M48
; DRILL file {KiCad 6.0.11+dfsg-1} date Sat 05 Aug 2023 12:31:08 PM CEST
; FORMAT={-:-/ absolute / metric / decimal}
; #@! TF.CreationDate,2023-08-05T12:31:08+02:00
; #@! TF.GenerationSoftware,Kicad,Pcbnew,6.0.11+dfsg-1
; #@! TF.FileFunction,Plated,1,8,PTH
FMAT,2
METRIC
; #@! TA.AperFunction,Plated,PTH,ViaDrill
T1C0.200
; #@! TA.AperFunction,Plated,PTH,ComponentDrill
T2C1.000
%
G90
G05
T1
X48.5Y-90.0
X48.9Y-100.7
X49.0Y-92.0
X49.0Y-93.0
X49.0Y-94.0
X49.0Y-95.0
X49.0Y-96.0
X49.0Y-97.0
X49.0Y-98.0
X49.25Y-77.25
X49.25Y-86.0
X50.0Y-93.0
X50.0Y-94.0
X50.0Y-95.0
X50.0Y-96.0
X50.0Y-97.0
X50.0Y-103.25
X51.0Y-77.25
X51.0Y-94.0
X51.0Y-95.0
X51.0Y-96.0
X51.0Y-110.5
X51.25Y-102.75
X52.5Y-105.3
X54.2Y-96.0
X54.3Y-88.3
X54.45Y-96.85
X54.5Y-106.0
X54.5Y-99.3
X54.6Y-105.3
X55.5Y-88.0
X55.5Y-88.5
X55.6Y-103.8
X55.75Y-102.75
X56.0Y-88.0
X56.0Y-88.5
X56.0Y-93.9
X56.0Y-94.4
X56.8Y-86.0
X56.8Y-86.7
X56.8Y-88.0
X56.8Y-88.5
X56.8Y-89.6
X56.8Y-90.4
X56.8Y-93.9
X56.8Y-94.4
X57.6Y-101.7
X57.7Y-100.4
X57.8Y-86.0
X57.8Y-86.7
X57.8Y-88.0
X57.8Y-88.5
X57.8Y-89.6
X57.8Y-90.4
X57.8Y-93.1
X57.8Y-93.6
X58.3Y-99.6
X58.5Y-88.0
X58.5Y-88.5
X58.5Y-93.1
X58.5Y-93.6
X59.0Y-88.0
X59.0Y-88.5
X59.1Y-106.0
X60.0Y-73.75
X60.0Y-81.25
X60.5Y-51.0
X60.5Y-103.8
X60.8Y-95.0
X61.2Y-92.0
X61.2Y-98.5
X61.4Y-96.3
X61.4Y-97.5
X61.6Y-89.7
X61.6Y-90.2
X61.6Y-94.0
X61.6Y-94.6
X61.7Y-92.7
X61.7Y-93.2
X62.0Y-96.9
X62.1Y-91.9
X62.1Y-95.1
X62.1Y-95.7
X62.1Y-98.1
X62.1Y-98.7
X62.3Y-94.2
X62.5Y-51.0
X62.5Y-119.1
X62.7Y-92.7
X62.7Y-93.2
X62.7Y-96.9
X62.8Y-89.7
X62.8Y-90.2
X62.8Y-91.5
X62.8Y-109.0
X62.8Y-109.6
X62.8Y-112.0
X62.8Y-112.6
X62.9Y-95.1
X62.9Y-95.7
X63.1Y-103.2
X63.2Y-98.1
X63.2Y-98.7
X63.5Y-75.5
X63.5Y-102.0
X63.5Y-102.8
X63.5Y-109.0
X63.5Y-109.6
X63.5Y-119.1
X63.9Y-103.9
X64.0Y-112.0
X64.0Y-112.6
X64.0Y-115.0
X64.0Y-116.75
X64.1Y-103.4
X64.5Y-51.0
X64.5Y-79.5
X64.5Y-107.75
X64.5Y-119.1
X65.0Y-87.8
X65.1Y-101.0
X65.2Y-87.0
X65.2Y-93.1
X65.2Y-98.9
X65.4Y-93.8
X65.5Y-98.4
X65.5Y-104.3
X65.5Y-105.0
X65.5Y-107.0
X65.5Y-119.1
X65.6Y-90.7
X65.7Y-99.4
X65.7Y-100.8
X65.75Y-108.75
X65.75Y-109.25
X65.8Y-102.7
X65.8Y-103.3
X65.9Y-87.8
X65.9Y-101.8
X66.0Y-98.8
X66.0Y-104.3
X66.0Y-105.0
X66.0Y-107.0
X66.1Y-87.0
X66.1Y-101.3
X66.2Y-110.9
X66.2Y-113.4
X66.3Y-98.3
X66.3Y-99.4
X66.4Y-93.1
X66.4Y-93.8
X66.5Y-51.0
X66.5Y-102.7
X66.5Y-108.75
X66.5Y-109.25
X66.7Y-98.9
X66.75Y-87.75
X67.1Y-101.9
X67.1Y-108.7
X67.1Y-109.2
X67.2Y-99.4
X67.3Y-104.7
X67.4Y-87.0
X67.4Y-93.1
X67.4Y-93.8
X67.4Y-110.9
X67.4Y-113.4
X67.5Y-87.8
X67.5Y-95.5
X67.5Y-105.5
X67.5Y-106.5
X67.8Y-83.2
X67.8Y-102.7
X67.8Y-103.3
X67.8Y-108.7
X67.8Y-109.2
X68.0Y-105.1
X68.1Y-106.5
X68.2Y-87.0
X68.4Y-87.8
X68.4Y-93.8
X68.4Y-102.7
X68.4Y-103.3
X68.5Y-51.0
X68.5Y-93.1
X68.5Y-101.7
X68.5Y-104.7
X68.5Y-119.1
X68.6Y-105.3
X69.0Y-105.8
X69.1Y-102.7
X69.2Y-104.8
X69.25Y-87.25
X69.25Y-110.75
X69.25Y-113.5
X69.4Y-94.4
X69.5Y-105.3
X69.6Y-106.6
X69.7Y-108.8
X69.7Y-109.3
X69.8Y-93.4
X70.0Y-105.0
X70.2Y-105.5
X70.2Y-106.6
X70.25Y-99.25
X70.25Y-110.75
X70.25Y-113.5
X70.3Y-93.1
X70.4Y-108.8
X70.4Y-109.3
X70.5Y-51.0
X70.5Y-83.0
X70.5Y-88.0
X70.5Y-96.5
X71.0Y-102.7
X71.0Y-118.75
X71.1Y-88.0
X71.1Y-108.8
X71.1Y-109.3
X71.3Y-93.0
X71.5Y-104.3
X71.5Y-105.0
X71.5Y-105.6
X71.7Y-102.7
X71.7Y-103.3
X71.75Y-110.75
X71.75Y-113.5
X71.8Y-108.8
X71.8Y-109.3
X72.0Y-104.3
X72.0Y-105.0
X72.0Y-105.6
X72.25Y-99.0
X72.3Y-89.0
X72.3Y-89.5
X72.3Y-97.5
X72.4Y-86.1
X72.4Y-86.6
X72.5Y-51.0
X72.75Y-110.75
X72.75Y-113.5
X72.9Y-79.6
X72.9Y-80.2
X72.9Y-93.8
X73.0Y-108.3
X73.1Y-109.1
X73.4Y-84.9
X73.4Y-86.1
X73.4Y-86.6
X73.4Y-91.5
X73.5Y-89.0
X73.5Y-89.5
X73.5Y-106.75
X73.6Y-102.8
X73.6Y-104.2
X73.6Y-105.5
X73.7Y-99.0
X73.7Y-101.6
X73.75Y-107.5
X73.8Y-108.5
X74.2Y-93.2
X74.3Y-78.5
X74.3Y-80.8
X74.3Y-89.9
X74.4Y-82.5
X74.4Y-84.2
X74.4Y-94.5
X74.5Y-51.0
X74.5Y-91.5
X75.0Y-73.0
X75.0Y-78.0
X75.0Y-83.0
X75.0Y-88.0
X75.0Y-93.0
X75.0Y-98.0
X75.0Y-99.0
X75.1Y-101.8
X75.3Y-102.9
X75.5Y-57.0
X75.5Y-83.5
X75.5Y-119.1
X75.75Y-106.75
X75.75Y-108.25
X75.75Y-109.75
X75.75Y-111.25
X75.75Y-112.75
X75.75Y-114.5
X75.75Y-116.0
X75.75Y-117.5
X75.9Y-104.5
X75.9Y-105.3
X76.0Y-76.0
X76.0Y-81.0
X76.0Y-86.0
X76.0Y-91.0
X76.0Y-96.0
X76.0Y-98.0
X76.3Y-101.5
X76.3Y-104.9
X76.5Y-83.5
X76.8Y-105.8
X77.0Y-74.0
X77.0Y-79.0
X77.0Y-84.0
X77.0Y-89.0
X77.0Y-94.0
X77.0Y-99.0
X77.0Y-119.1
X77.5Y-77.5
X77.5Y-83.5
X77.643Y-102.557
X77.7Y-104.7
X77.8Y-103.1
X78.0Y-77.0
X78.0Y-82.0
X78.0Y-87.0
X78.0Y-92.0
X78.0Y-97.0
X78.0Y-119.1
X78.1Y-100.4
X78.2Y-102.7
X78.5Y-80.5
X78.5Y-84.5
X78.5Y-89.5
X78.5Y-93.4
X78.8Y-103.7
X79.0Y-75.0
X79.0Y-80.0
X79.0Y-85.0
X79.0Y-90.0
X79.0Y-95.0
X79.0Y-97.0
X79.0Y-98.75
X79.5Y-62.0
X79.5Y-86.5
X79.5Y-94.5
X79.5Y-95.5
X79.5Y-96.5
X79.5Y-102.5
X80.0Y-73.0
X80.0Y-78.0
X80.0Y-83.0
X80.0Y-88.0
X80.0Y-93.0
X80.0Y-98.0
X80.0Y-119.1
X80.5Y-95.5
X80.5Y-101.5
X80.6Y-94.5
X80.6Y-96.5
X81.0Y-76.0
X81.0Y-81.0
X81.0Y-86.0
X81.0Y-91.0
X81.0Y-96.0
X81.0Y-98.75
X81.5Y-94.5
X81.5Y-95.5
X81.5Y-96.5
X81.5Y-100.5
X81.5Y-119.1
X81.7Y-54.8
X82.0Y-74.0
X82.0Y-79.0
X82.0Y-84.0
X82.0Y-89.0
X82.0Y-94.0
X82.5Y-75.5
X82.5Y-76.5
X82.5Y-77.5
X82.5Y-94.5
X82.5Y-95.5
X82.5Y-96.5
X83.0Y-56.7
X83.0Y-57.75
X83.0Y-60.25
X83.0Y-61.3
X83.0Y-63.5
X83.0Y-77.0
X83.0Y-82.0
X83.0Y-87.0
X83.0Y-92.0
X83.0Y-97.0
X83.0Y-98.75
X83.0Y-100.25
X83.0Y-119.1
X83.5Y-75.5
X83.5Y-76.5
X83.5Y-77.5
X83.5Y-88.5
X83.5Y-93.5
X83.5Y-94.5
X83.5Y-95.5
X83.5Y-96.5
X84.0Y-75.0
X84.0Y-80.0
X84.0Y-85.0
X84.0Y-90.0
X84.0Y-95.0
X84.5Y-75.5
X84.5Y-76.5
X84.5Y-77.5
X84.5Y-100.25
X84.8Y-54.8
X84.8Y-65.4
X85.0Y-73.0
X85.0Y-78.0
X85.0Y-83.0
X85.0Y-88.0
X85.0Y-93.0
X85.0Y-98.0
X85.0Y-119.1
X85.5Y-75.5
X85.5Y-76.5
X85.5Y-77.5
X86.0Y-76.0
X86.0Y-81.0
X86.0Y-82.0
X86.0Y-83.0
X86.0Y-84.0
X86.0Y-85.0
X86.0Y-86.0
X86.0Y-87.0
X86.0Y-88.0
X86.0Y-91.0
X86.0Y-96.0
X86.0Y-100.25
X86.3Y-66.9
X86.5Y-78.5
X86.5Y-80.5
X87.0Y-74.0
X87.0Y-82.0
X87.0Y-83.0
X87.0Y-84.0
X87.0Y-85.0
X87.0Y-86.0
X87.0Y-87.0
X87.0Y-88.0
X87.0Y-89.0
X87.0Y-94.0
X87.0Y-98.75
X87.0Y-119.1
X87.5Y-77.5
X87.5Y-80.5
X87.5Y-100.25
X87.8Y-68.4
X88.0Y-77.0
X88.0Y-82.0
X88.0Y-83.0
X88.0Y-84.0
X88.0Y-85.0
X88.0Y-86.0
X88.0Y-87.0
X88.0Y-88.0
X88.0Y-89.0
X88.0Y-92.0
X88.0Y-97.0
X89.0Y-70.0
X89.0Y-71.9
X89.0Y-75.0
X89.0Y-80.0
X89.0Y-82.0
X89.0Y-83.0
X89.0Y-86.0
X89.0Y-87.0
X89.0Y-88.0
X89.0Y-89.0
X89.0Y-90.0
X89.0Y-95.0
X89.0Y-98.75
X89.0Y-100.25
X89.0Y-119.1
X90.0Y-73.0
X90.0Y-78.0
X90.0Y-82.0
X90.0Y-83.0
X90.0Y-88.0
X90.0Y-93.0
X90.0Y-98.0
X90.5Y-82.5
X90.5Y-83.5
X90.5Y-84.5
X90.5Y-85.5
X90.5Y-86.5
X90.5Y-89.5
X90.5Y-99.25
X90.5Y-100.25
X91.0Y-76.0
X91.0Y-81.0
X91.0Y-82.0
X91.0Y-83.0
X91.0Y-84.0
X91.0Y-85.0
X91.0Y-86.0
X91.0Y-87.0
X91.0Y-88.0
X91.0Y-89.0
X91.0Y-96.0
X91.0Y-119.1
X91.5Y-81.5
X91.5Y-97.5
X91.5Y-98.5
X92.0Y-74.0
X92.0Y-79.0
X92.0Y-83.0
X92.0Y-84.0
X92.0Y-85.0
X92.0Y-86.0
X92.0Y-87.0
X92.0Y-88.0
X92.0Y-89.0
X92.0Y-90.0
X92.0Y-94.0
X92.0Y-100.25
X92.5Y-81.5
X92.5Y-90.5
X92.5Y-92.5
X93.0Y-65.4
X93.0Y-66.8
X93.0Y-69.4
X93.0Y-70.8
X93.0Y-77.0
X93.0Y-82.0
X93.0Y-83.0
X93.0Y-84.0
X93.0Y-85.0
X93.0Y-86.0
X93.0Y-87.0
X93.0Y-88.0
X93.0Y-89.0
X93.0Y-92.0
X93.0Y-97.0
X93.0Y-119.1
X93.25Y-99.75
X93.3Y-54.9
X93.5Y-81.5
X93.5Y-92.5
X93.5Y-98.75
X93.6Y-64.1
X94.0Y-75.0
X94.0Y-80.0
X94.0Y-84.0
X94.0Y-85.0
X94.0Y-86.0
X94.0Y-87.0
X94.0Y-88.0
X94.0Y-89.0
X94.0Y-91.0
X94.0Y-93.0
X94.0Y-94.0
X94.0Y-95.0
X94.0Y-96.0
X94.0Y-97.0
X94.0Y-98.0
X94.5Y-76.5
X94.5Y-78.5
X94.5Y-81.5
X94.5Y-85.5
X94.5Y-94.5
X94.5Y-119.1
X95.0Y-56.6
X95.0Y-57.75
X95.0Y-60.25
X95.0Y-61.1
X95.0Y-62.7
X95.0Y-72.1
X95.0Y-73.0
X95.0Y-80.0
X95.0Y-81.0
X95.0Y-83.0
X95.0Y-84.0
X95.0Y-87.0
X95.0Y-88.0
X95.0Y-89.0
X95.0Y-90.0
X95.0Y-92.0
X95.0Y-94.0
X95.0Y-95.0
X95.0Y-96.0
X95.0Y-98.0
X95.3Y-70.8
X95.5Y-74.5
X95.5Y-75.5
X95.5Y-85.5
X95.5Y-90.5
X95.5Y-92.5
X95.5Y-93.5
X95.5Y-119.1
X95.9Y-66.5
X96.0Y-70.1
X96.0Y-80.0
X96.0Y-81.0
X96.0Y-82.0
X96.0Y-84.0
X96.0Y-87.0
X96.0Y-88.0
X96.0Y-89.0
X96.0Y-90.0
X96.0Y-92.0
X96.0Y-94.0
X96.0Y-95.0
X96.0Y-96.0
X96.0Y-98.0
X96.3Y-67.7
X96.5Y-76.5
X96.5Y-78.5
X96.6Y-69.4
X96.7Y-54.9
X97.0Y-74.0
X97.0Y-76.0
X97.0Y-77.0
X97.0Y-78.0
X97.0Y-79.0
X97.0Y-81.0
X97.0Y-83.0
X97.0Y-85.0
X97.0Y-87.0
X97.0Y-89.0
X97.0Y-91.0
X97.0Y-93.0
X97.0Y-95.0
X97.0Y-97.0
X97.0Y-98.0
X97.0Y-119.1
X97.5Y-79.5
X98.0Y-76.0
X98.0Y-77.0
X98.0Y-78.0
X98.0Y-79.0
X98.0Y-81.0
X98.0Y-82.0
X98.0Y-83.0
X98.0Y-85.0
X98.0Y-87.0
X98.0Y-89.0
X98.0Y-91.0
X98.0Y-93.0
X98.0Y-95.0
X98.0Y-97.0
X98.0Y-98.0
X98.75Y-67.5
X99.0Y-75.0
X99.0Y-76.0
X99.0Y-80.0
X99.0Y-81.0
X99.0Y-84.0
X99.0Y-85.0
X99.0Y-86.0
X99.0Y-87.0
X99.0Y-88.0
X99.0Y-89.0
X99.0Y-90.0
X99.0Y-91.0
X99.0Y-92.0
X99.0Y-93.0
X99.0Y-94.0
X99.0Y-95.0
X99.0Y-96.0
X99.0Y-97.0
X99.0Y-98.0
X99.0Y-99.0
X99.0Y-119.1
X99.3Y-99.7
X99.5Y-98.6
X100.0Y-73.0
X100.0Y-76.0
X100.0Y-78.0
X100.0Y-80.0
X100.0Y-81.0
X100.0Y-82.0
X100.0Y-83.0
X100.0Y-84.0
X100.0Y-85.0
X100.0Y-86.0
X100.0Y-87.0
X100.0Y-88.0
X100.0Y-89.0
X100.0Y-90.0
X100.0Y-91.0
X100.0Y-92.0
X100.0Y-93.0
X100.0Y-94.0
X100.0Y-95.0
X100.0Y-96.0
X100.0Y-97.0
X100.0Y-98.0
X100.0Y-99.0
X101.0Y-83.0
X101.0Y-119.1
X101.25Y-67.5
X101.75Y-83.25
X102.5Y-83.25
X103.0Y-119.1
X103.25Y-83.25
X104.0Y-83.25
X104.75Y-83.25
X105.0Y-119.1
X105.5Y-83.25
X106.25Y-83.25
X107.0Y-83.25
X107.0Y-119.1
X107.75Y-83.25
X107.8Y-73.0
X107.8Y-74.6
X107.8Y-76.2
X107.8Y-79.4
X107.8Y-81.0
X108.5Y-83.25
X108.6Y-73.8
X108.6Y-75.4
X108.6Y-76.2
X108.6Y-80.2
X108.6Y-81.0
X109.0Y-119.1
X109.25Y-83.25
X109.4Y-73.0
X109.4Y-74.6
X109.4Y-76.2
X109.4Y-77.8
X109.4Y-79.4
X110.0Y-78.6
X110.0Y-80.2
X110.0Y-83.25
X110.1Y-72.9
X110.75Y-83.25
X111.0Y-74.6
X111.0Y-77.4
X111.0Y-119.1
X111.5Y-83.25
X112.0Y-78.6
X112.0Y-80.2
X112.0Y-84.723
X112.0Y-85.277
X112.25Y-83.25
X112.5Y-119.1
X112.6Y-73.0
X112.6Y-74.6
X112.6Y-77.8
X112.6Y-79.4
X113.0Y-75.8
X113.0Y-83.25
X113.0Y-114.0
X113.4Y-76.2
X113.4Y-77.0
X113.4Y-78.6
X113.4Y-79.4
X113.4Y-80.2
X113.4Y-81.0
X113.75Y-83.25
X113.8Y-74.2
X114.2Y-72.3
X114.2Y-74.6
X114.2Y-76.2
X114.2Y-77.0
X114.2Y-77.8
X114.2Y-78.6
X114.2Y-80.2
X114.5Y-81.0
X114.5Y-81.75
X114.5Y-82.5
X114.5Y-83.25
X114.9Y-79.5
X114.9Y-80.3
X115.2Y-76.2
X115.2Y-78.8
X115.25Y-83.25
X115.75Y-81.0
X115.8Y-74.6
X116.0Y-83.25
X117.5Y-70.6
X117.5Y-71.1
X117.5Y-72.5
X117.5Y-73.0
X118.25Y-81.0
X118.5Y-70.6
X118.5Y-71.1
X118.5Y-72.5
X118.5Y-73.0
X119.0Y-83.25
T2
X53.75Y-108.47
X53.75Y-111.01
X57.0Y-76.0
X57.0Y-78.54
X57.0Y-81.08
X57.475Y-108.475
X57.475Y-111.015
X60.015Y-108.475
X60.015Y-111.015
X79.37Y-52.025
X81.91Y-52.025
X84.45Y-52.025
X86.99Y-52.025
X91.18Y-52.025
X93.72Y-52.025
X96.26Y-52.025
X98.8Y-52.025
X103.15Y-63.25
X105.69Y-63.25
X108.23Y-63.25
X110.77Y-63.25
X113.31Y-63.25
X115.85Y-63.25
T0
M30
