G04 #@! TF.GenerationSoftware,KiCad,Pcbnew,6.0.11+dfsg-1*
G04 #@! TF.CreationDate,2023-08-05T12:29:54+02:00*
G04 #@! TF.ProjectId,kintex-pcie,6b696e74-6578-42d7-9063-69652e6b6963,rev?*
G04 #@! TF.SameCoordinates,Original*
G04 #@! TF.FileFunction,Copper,L1,Top*
G04 #@! TF.FilePolarity,Positive*
%FSLAX46Y46*%
G04 Gerber Fmt 4.6, Leading zero omitted, Abs format (unit mm)*
G04 Created by KiCad (PCBNEW 6.0.11+dfsg-1) date 2023-08-05 12:29:54*
%MOMM*%
%LPD*%
G01*
G04 APERTURE LIST*
G04 Aperture macros list*
%AMRoundRect*
0 Rectangle with rounded corners*
0 $1 Rounding radius*
0 $2 $3 $4 $5 $6 $7 $8 $9 X,Y pos of 4 corners*
0 Add a 4 corners polygon primitive as box body*
4,1,4,$2,$3,$4,$5,$6,$7,$8,$9,$2,$3,0*
0 Add four circle primitives for the rounded corners*
1,1,$1+$1,$2,$3*
1,1,$1+$1,$4,$5*
1,1,$1+$1,$6,$7*
1,1,$1+$1,$8,$9*
0 Add four rect primitives between the rounded corners*
20,1,$1+$1,$2,$3,$4,$5,0*
20,1,$1+$1,$4,$5,$6,$7,0*
20,1,$1+$1,$6,$7,$8,$9,0*
20,1,$1+$1,$8,$9,$2,$3,0*%
%AMFreePoly0*
4,1,9,0.550000,-0.975000,-0.550000,-0.975000,-0.550000,-0.625000,-0.050000,-0.625000,-0.050000,-0.175000,-0.550000,-0.175000,-0.550000,0.175000,0.550000,0.175000,0.550000,-0.975000,0.550000,-0.975000,$1*%
%AMFreePoly1*
4,1,9,1.750000,-0.975000,-0.550000,-0.975000,-0.550000,-0.625000,-0.050000,-0.625000,-0.050000,-0.175000,-0.550000,-0.175000,-0.550000,0.175000,1.750000,0.175000,1.750000,-0.975000,1.750000,-0.975000,$1*%
G04 Aperture macros list end*
G04 #@! TA.AperFunction,SMDPad,CuDef*
%ADD10RoundRect,0.135000X-0.135000X-0.185000X0.135000X-0.185000X0.135000X0.185000X-0.135000X0.185000X0*%
G04 #@! TD*
G04 #@! TA.AperFunction,SMDPad,CuDef*
%ADD11RoundRect,0.135000X0.185000X-0.135000X0.185000X0.135000X-0.185000X0.135000X-0.185000X-0.135000X0*%
G04 #@! TD*
G04 #@! TA.AperFunction,ComponentPad*
%ADD12R,1.700000X1.700000*%
G04 #@! TD*
G04 #@! TA.AperFunction,ComponentPad*
%ADD13O,1.700000X1.700000*%
G04 #@! TD*
G04 #@! TA.AperFunction,SMDPad,CuDef*
%ADD14RoundRect,0.135000X0.135000X0.185000X-0.135000X0.185000X-0.135000X-0.185000X0.135000X-0.185000X0*%
G04 #@! TD*
G04 #@! TA.AperFunction,SMDPad,CuDef*
%ADD15RoundRect,0.218750X-0.256250X0.218750X-0.256250X-0.218750X0.256250X-0.218750X0.256250X0.218750X0*%
G04 #@! TD*
G04 #@! TA.AperFunction,SMDPad,CuDef*
%ADD16R,0.250000X0.610000*%
G04 #@! TD*
G04 #@! TA.AperFunction,SMDPad,CuDef*
%ADD17R,0.380000X0.610000*%
G04 #@! TD*
G04 #@! TA.AperFunction,SMDPad,CuDef*
%ADD18C,0.530000*%
G04 #@! TD*
G04 #@! TA.AperFunction,ConnectorPad*
%ADD19R,0.700000X4.300000*%
G04 #@! TD*
G04 #@! TA.AperFunction,ConnectorPad*
%ADD20R,0.700000X3.200000*%
G04 #@! TD*
G04 #@! TA.AperFunction,SMDPad,CuDef*
%ADD21RoundRect,0.218750X0.256250X-0.218750X0.256250X0.218750X-0.256250X0.218750X-0.256250X-0.218750X0*%
G04 #@! TD*
G04 #@! TA.AperFunction,SMDPad,CuDef*
%ADD22RoundRect,0.140000X0.170000X-0.140000X0.170000X0.140000X-0.170000X0.140000X-0.170000X-0.140000X0*%
G04 #@! TD*
G04 #@! TA.AperFunction,SMDPad,CuDef*
%ADD23RoundRect,0.250000X0.650000X-0.325000X0.650000X0.325000X-0.650000X0.325000X-0.650000X-0.325000X0*%
G04 #@! TD*
G04 #@! TA.AperFunction,SMDPad,CuDef*
%ADD24RoundRect,0.250000X0.325000X0.650000X-0.325000X0.650000X-0.325000X-0.650000X0.325000X-0.650000X0*%
G04 #@! TD*
G04 #@! TA.AperFunction,SMDPad,CuDef*
%ADD25R,0.990600X0.355600*%
G04 #@! TD*
G04 #@! TA.AperFunction,SMDPad,CuDef*
%ADD26R,0.355600X0.990600*%
G04 #@! TD*
G04 #@! TA.AperFunction,SMDPad,CuDef*
%ADD27R,3.505200X3.505200*%
G04 #@! TD*
G04 #@! TA.AperFunction,SMDPad,CuDef*
%ADD28RoundRect,0.140000X-0.140000X-0.170000X0.140000X-0.170000X0.140000X0.170000X-0.140000X0.170000X0*%
G04 #@! TD*
G04 #@! TA.AperFunction,SMDPad,CuDef*
%ADD29RoundRect,0.135000X-0.185000X0.135000X-0.185000X-0.135000X0.185000X-0.135000X0.185000X0.135000X0*%
G04 #@! TD*
G04 #@! TA.AperFunction,SMDPad,CuDef*
%ADD30RoundRect,0.150000X-0.150000X0.650000X-0.150000X-0.650000X0.150000X-0.650000X0.150000X0.650000X0*%
G04 #@! TD*
G04 #@! TA.AperFunction,SMDPad,CuDef*
%ADD31FreePoly0,180.000000*%
G04 #@! TD*
G04 #@! TA.AperFunction,SMDPad,CuDef*
%ADD32R,1.092200X0.355600*%
G04 #@! TD*
G04 #@! TA.AperFunction,SMDPad,CuDef*
%ADD33R,0.355600X1.498600*%
G04 #@! TD*
G04 #@! TA.AperFunction,SMDPad,CuDef*
%ADD34FreePoly1,270.000000*%
G04 #@! TD*
G04 #@! TA.AperFunction,SMDPad,CuDef*
%ADD35FreePoly0,0.000000*%
G04 #@! TD*
G04 #@! TA.AperFunction,SMDPad,CuDef*
%ADD36R,1.143000X0.812800*%
G04 #@! TD*
G04 #@! TA.AperFunction,SMDPad,CuDef*
%ADD37RoundRect,0.140000X0.140000X0.170000X-0.140000X0.170000X-0.140000X-0.170000X0.140000X-0.170000X0*%
G04 #@! TD*
G04 #@! TA.AperFunction,SMDPad,CuDef*
%ADD38RoundRect,0.150000X0.150000X-0.587500X0.150000X0.587500X-0.150000X0.587500X-0.150000X-0.587500X0*%
G04 #@! TD*
G04 #@! TA.AperFunction,SMDPad,CuDef*
%ADD39C,0.360000*%
G04 #@! TD*
G04 #@! TA.AperFunction,SMDPad,CuDef*
%ADD40RoundRect,0.140000X-0.170000X0.140000X-0.170000X-0.140000X0.170000X-0.140000X0.170000X0.140000X0*%
G04 #@! TD*
G04 #@! TA.AperFunction,SMDPad,CuDef*
%ADD41RoundRect,0.250000X-0.650000X0.325000X-0.650000X-0.325000X0.650000X-0.325000X0.650000X0.325000X0*%
G04 #@! TD*
G04 #@! TA.AperFunction,SMDPad,CuDef*
%ADD42RoundRect,0.250000X0.229810X-0.689429X0.689429X-0.229810X-0.229810X0.689429X-0.689429X0.229810X0*%
G04 #@! TD*
G04 #@! TA.AperFunction,ViaPad*
%ADD43C,0.350000*%
G04 #@! TD*
G04 #@! TA.AperFunction,Conductor*
%ADD44C,0.203200*%
G04 #@! TD*
G04 #@! TA.AperFunction,Conductor*
%ADD45C,0.350000*%
G04 #@! TD*
G04 #@! TA.AperFunction,Conductor*
%ADD46C,0.152400*%
G04 #@! TD*
G04 #@! TA.AperFunction,Conductor*
%ADD47C,0.127000*%
G04 #@! TD*
G04 #@! TA.AperFunction,Conductor*
%ADD48C,0.186200*%
G04 #@! TD*
G04 #@! TA.AperFunction,Conductor*
%ADD49C,0.254000*%
G04 #@! TD*
G04 #@! TA.AperFunction,Conductor*
%ADD50C,0.090000*%
G04 #@! TD*
G04 #@! TA.AperFunction,Conductor*
%ADD51C,0.200000*%
G04 #@! TD*
G04 APERTURE END LIST*
D10*
X51990000Y-102750000D03*
X53010000Y-102750000D03*
D11*
X60000000Y-80510000D03*
X60000000Y-79490000D03*
D12*
X86990000Y-52025000D03*
D13*
X84450000Y-52025000D03*
X81910000Y-52025000D03*
X79370000Y-52025000D03*
D12*
X103150000Y-63250000D03*
D13*
X105690000Y-63250000D03*
X108230000Y-63250000D03*
X110770000Y-63250000D03*
X113310000Y-63250000D03*
X115850000Y-63250000D03*
D14*
X58310000Y-106000000D03*
X57290000Y-106000000D03*
D10*
X56390000Y-103800000D03*
X57410000Y-103800000D03*
D15*
X72500000Y-52212500D03*
X72500000Y-53787500D03*
D16*
X94000000Y-59410000D03*
X94500000Y-59410000D03*
D17*
X95000000Y-59410000D03*
D16*
X95500000Y-59410000D03*
X96000000Y-59410000D03*
X96000000Y-58590000D03*
X95500000Y-58590000D03*
D17*
X95000000Y-58590000D03*
D16*
X94500000Y-58590000D03*
X94000000Y-58590000D03*
D15*
X66500000Y-52212500D03*
X66500000Y-53787500D03*
D12*
X98800000Y-52025000D03*
D13*
X96260000Y-52025000D03*
X93720000Y-52025000D03*
X91180000Y-52025000D03*
D10*
X53980000Y-102750000D03*
X55000000Y-102750000D03*
D16*
X82000000Y-59410000D03*
X82500000Y-59410000D03*
D17*
X83000000Y-59410000D03*
D16*
X83500000Y-59410000D03*
X84000000Y-59410000D03*
X84000000Y-58590000D03*
X83500000Y-58590000D03*
D17*
X83000000Y-58590000D03*
D16*
X82500000Y-58590000D03*
X82000000Y-58590000D03*
D18*
X100000000Y-98000000D03*
X99000000Y-98000000D03*
X98000000Y-98000000D03*
X97000000Y-98000000D03*
X96000000Y-98000000D03*
X95000000Y-98000000D03*
X94000000Y-98000000D03*
X93000000Y-98000000D03*
X92000000Y-98000000D03*
X91000000Y-98000000D03*
X90000000Y-98000000D03*
X89000000Y-98000000D03*
X88000000Y-98000000D03*
X87000000Y-98000000D03*
X86000000Y-98000000D03*
X85000000Y-98000000D03*
X84000000Y-98000000D03*
X83000000Y-98000000D03*
X82000000Y-98000000D03*
X81000000Y-98000000D03*
X80000000Y-98000000D03*
X79000000Y-98000000D03*
X78000000Y-98000000D03*
X77000000Y-98000000D03*
X76000000Y-98000000D03*
X75000000Y-98000000D03*
X100000000Y-78000000D03*
X99000000Y-78000000D03*
X98000000Y-78000000D03*
X97000000Y-78000000D03*
X96000000Y-78000000D03*
X95000000Y-78000000D03*
X94000000Y-78000000D03*
X93000000Y-78000000D03*
X92000000Y-78000000D03*
X91000000Y-78000000D03*
X90000000Y-78000000D03*
X89000000Y-78000000D03*
X88000000Y-78000000D03*
X87000000Y-78000000D03*
X86000000Y-78000000D03*
X85000000Y-78000000D03*
X84000000Y-78000000D03*
X83000000Y-78000000D03*
X82000000Y-78000000D03*
X81000000Y-78000000D03*
X80000000Y-78000000D03*
X79000000Y-78000000D03*
X78000000Y-78000000D03*
X77000000Y-78000000D03*
X76000000Y-78000000D03*
X75000000Y-78000000D03*
X100000000Y-77000000D03*
X99000000Y-77000000D03*
X98000000Y-77000000D03*
X97000000Y-77000000D03*
X96000000Y-77000000D03*
X95000000Y-77000000D03*
X94000000Y-77000000D03*
X93000000Y-77000000D03*
X92000000Y-77000000D03*
X91000000Y-77000000D03*
X90000000Y-77000000D03*
X89000000Y-77000000D03*
X88000000Y-77000000D03*
X87000000Y-77000000D03*
X86000000Y-77000000D03*
X85000000Y-77000000D03*
X84000000Y-77000000D03*
X83000000Y-77000000D03*
X82000000Y-77000000D03*
X81000000Y-77000000D03*
X80000000Y-77000000D03*
X79000000Y-77000000D03*
X78000000Y-77000000D03*
X77000000Y-77000000D03*
X76000000Y-77000000D03*
X75000000Y-77000000D03*
X100000000Y-76000000D03*
X99000000Y-76000000D03*
X98000000Y-76000000D03*
X97000000Y-76000000D03*
X96000000Y-76000000D03*
X95000000Y-76000000D03*
X94000000Y-76000000D03*
X93000000Y-76000000D03*
X92000000Y-76000000D03*
X91000000Y-76000000D03*
X90000000Y-76000000D03*
X89000000Y-76000000D03*
X88000000Y-76000000D03*
X87000000Y-76000000D03*
X86000000Y-76000000D03*
X85000000Y-76000000D03*
X84000000Y-76000000D03*
X83000000Y-76000000D03*
X82000000Y-76000000D03*
X81000000Y-76000000D03*
X80000000Y-76000000D03*
X79000000Y-76000000D03*
X78000000Y-76000000D03*
X77000000Y-76000000D03*
X76000000Y-76000000D03*
X75000000Y-76000000D03*
X100000000Y-75000000D03*
X99000000Y-75000000D03*
X98000000Y-75000000D03*
X97000000Y-75000000D03*
X96000000Y-75000000D03*
X95000000Y-75000000D03*
X94000000Y-75000000D03*
X93000000Y-75000000D03*
X92000000Y-75000000D03*
X91000000Y-75000000D03*
X90000000Y-75000000D03*
X89000000Y-75000000D03*
X88000000Y-75000000D03*
X87000000Y-75000000D03*
X86000000Y-75000000D03*
X85000000Y-75000000D03*
X84000000Y-75000000D03*
X83000000Y-75000000D03*
X82000000Y-75000000D03*
X81000000Y-75000000D03*
X80000000Y-75000000D03*
X79000000Y-75000000D03*
X78000000Y-75000000D03*
X77000000Y-75000000D03*
X76000000Y-75000000D03*
X75000000Y-75000000D03*
X100000000Y-74000000D03*
X99000000Y-74000000D03*
X98000000Y-74000000D03*
X97000000Y-74000000D03*
X96000000Y-74000000D03*
X95000000Y-74000000D03*
X94000000Y-74000000D03*
X93000000Y-74000000D03*
X92000000Y-74000000D03*
X91000000Y-74000000D03*
X90000000Y-74000000D03*
X89000000Y-74000000D03*
X88000000Y-74000000D03*
X87000000Y-74000000D03*
X86000000Y-74000000D03*
X85000000Y-74000000D03*
X84000000Y-74000000D03*
X83000000Y-74000000D03*
X82000000Y-74000000D03*
X81000000Y-74000000D03*
X80000000Y-74000000D03*
X79000000Y-74000000D03*
X78000000Y-74000000D03*
X77000000Y-74000000D03*
X76000000Y-74000000D03*
X75000000Y-74000000D03*
X100000000Y-73000000D03*
X99000000Y-73000000D03*
X98000000Y-73000000D03*
X97000000Y-73000000D03*
X96000000Y-73000000D03*
X95000000Y-73000000D03*
X94000000Y-73000000D03*
X93000000Y-73000000D03*
X92000000Y-73000000D03*
X91000000Y-73000000D03*
X90000000Y-73000000D03*
X89000000Y-73000000D03*
X88000000Y-73000000D03*
X87000000Y-73000000D03*
X86000000Y-73000000D03*
X85000000Y-73000000D03*
X84000000Y-73000000D03*
X83000000Y-73000000D03*
X82000000Y-73000000D03*
X81000000Y-73000000D03*
X80000000Y-73000000D03*
X79000000Y-73000000D03*
X78000000Y-73000000D03*
X77000000Y-73000000D03*
X76000000Y-73000000D03*
X75000000Y-73000000D03*
X100000000Y-97000000D03*
X99000000Y-97000000D03*
X98000000Y-97000000D03*
X97000000Y-97000000D03*
X96000000Y-97000000D03*
X95000000Y-97000000D03*
X94000000Y-97000000D03*
X93000000Y-97000000D03*
X92000000Y-97000000D03*
X91000000Y-97000000D03*
X90000000Y-97000000D03*
X89000000Y-97000000D03*
X88000000Y-97000000D03*
X87000000Y-97000000D03*
X86000000Y-97000000D03*
X85000000Y-97000000D03*
X84000000Y-97000000D03*
X83000000Y-97000000D03*
X82000000Y-97000000D03*
X81000000Y-97000000D03*
X80000000Y-97000000D03*
X79000000Y-97000000D03*
X78000000Y-97000000D03*
X77000000Y-97000000D03*
X76000000Y-97000000D03*
X75000000Y-97000000D03*
X100000000Y-96000000D03*
X99000000Y-96000000D03*
X98000000Y-96000000D03*
X97000000Y-96000000D03*
X96000000Y-96000000D03*
X95000000Y-96000000D03*
X94000000Y-96000000D03*
X93000000Y-96000000D03*
X92000000Y-96000000D03*
X91000000Y-96000000D03*
X90000000Y-96000000D03*
X89000000Y-96000000D03*
X88000000Y-96000000D03*
X87000000Y-96000000D03*
X86000000Y-96000000D03*
X85000000Y-96000000D03*
X84000000Y-96000000D03*
X83000000Y-96000000D03*
X82000000Y-96000000D03*
X81000000Y-96000000D03*
X80000000Y-96000000D03*
X79000000Y-96000000D03*
X78000000Y-96000000D03*
X77000000Y-96000000D03*
X76000000Y-96000000D03*
X75000000Y-96000000D03*
X100000000Y-95000000D03*
X99000000Y-95000000D03*
X98000000Y-95000000D03*
X97000000Y-95000000D03*
X96000000Y-95000000D03*
X95000000Y-95000000D03*
X94000000Y-95000000D03*
X93000000Y-95000000D03*
X92000000Y-95000000D03*
X91000000Y-95000000D03*
X90000000Y-95000000D03*
X89000000Y-95000000D03*
X88000000Y-95000000D03*
X87000000Y-95000000D03*
X86000000Y-95000000D03*
X85000000Y-95000000D03*
X84000000Y-95000000D03*
X83000000Y-95000000D03*
X82000000Y-95000000D03*
X81000000Y-95000000D03*
X80000000Y-95000000D03*
X79000000Y-95000000D03*
X78000000Y-95000000D03*
X77000000Y-95000000D03*
X76000000Y-95000000D03*
X75000000Y-95000000D03*
X100000000Y-94000000D03*
X99000000Y-94000000D03*
X98000000Y-94000000D03*
X97000000Y-94000000D03*
X96000000Y-94000000D03*
X95000000Y-94000000D03*
X94000000Y-94000000D03*
X93000000Y-94000000D03*
X92000000Y-94000000D03*
X91000000Y-94000000D03*
X90000000Y-94000000D03*
X89000000Y-94000000D03*
X88000000Y-94000000D03*
X87000000Y-94000000D03*
X86000000Y-94000000D03*
X85000000Y-94000000D03*
X84000000Y-94000000D03*
X83000000Y-94000000D03*
X82000000Y-94000000D03*
X81000000Y-94000000D03*
X80000000Y-94000000D03*
X79000000Y-94000000D03*
X78000000Y-94000000D03*
X77000000Y-94000000D03*
X76000000Y-94000000D03*
X75000000Y-94000000D03*
X100000000Y-93000000D03*
X99000000Y-93000000D03*
X98000000Y-93000000D03*
X97000000Y-93000000D03*
X96000000Y-93000000D03*
X95000000Y-93000000D03*
X94000000Y-93000000D03*
X93000000Y-93000000D03*
X92000000Y-93000000D03*
X91000000Y-93000000D03*
X90000000Y-93000000D03*
X89000000Y-93000000D03*
X88000000Y-93000000D03*
X87000000Y-93000000D03*
X86000000Y-93000000D03*
X85000000Y-93000000D03*
X84000000Y-93000000D03*
X83000000Y-93000000D03*
X82000000Y-93000000D03*
X81000000Y-93000000D03*
X80000000Y-93000000D03*
X79000000Y-93000000D03*
X78000000Y-93000000D03*
X77000000Y-93000000D03*
X76000000Y-93000000D03*
X75000000Y-93000000D03*
X100000000Y-92000000D03*
X99000000Y-92000000D03*
X98000000Y-92000000D03*
X97000000Y-92000000D03*
X96000000Y-92000000D03*
X95000000Y-92000000D03*
X94000000Y-92000000D03*
X93000000Y-92000000D03*
X92000000Y-92000000D03*
X91000000Y-92000000D03*
X90000000Y-92000000D03*
X89000000Y-92000000D03*
X88000000Y-92000000D03*
X87000000Y-92000000D03*
X86000000Y-92000000D03*
X85000000Y-92000000D03*
X84000000Y-92000000D03*
X83000000Y-92000000D03*
X82000000Y-92000000D03*
X81000000Y-92000000D03*
X80000000Y-92000000D03*
X79000000Y-92000000D03*
X78000000Y-92000000D03*
X77000000Y-92000000D03*
X76000000Y-92000000D03*
X75000000Y-92000000D03*
X100000000Y-91000000D03*
X99000000Y-91000000D03*
X98000000Y-91000000D03*
X97000000Y-91000000D03*
X96000000Y-91000000D03*
X95000000Y-91000000D03*
X94000000Y-91000000D03*
X93000000Y-91000000D03*
X92000000Y-91000000D03*
X91000000Y-91000000D03*
X90000000Y-91000000D03*
X89000000Y-91000000D03*
X88000000Y-91000000D03*
X87000000Y-91000000D03*
X86000000Y-91000000D03*
X85000000Y-91000000D03*
X84000000Y-91000000D03*
X83000000Y-91000000D03*
X82000000Y-91000000D03*
X81000000Y-91000000D03*
X80000000Y-91000000D03*
X79000000Y-91000000D03*
X78000000Y-91000000D03*
X77000000Y-91000000D03*
X76000000Y-91000000D03*
X75000000Y-91000000D03*
X100000000Y-90000000D03*
X99000000Y-90000000D03*
X98000000Y-90000000D03*
X97000000Y-90000000D03*
X96000000Y-90000000D03*
X95000000Y-90000000D03*
X94000000Y-90000000D03*
X93000000Y-90000000D03*
X92000000Y-90000000D03*
X91000000Y-90000000D03*
X90000000Y-90000000D03*
X89000000Y-90000000D03*
X88000000Y-90000000D03*
X87000000Y-90000000D03*
X86000000Y-90000000D03*
X85000000Y-90000000D03*
X84000000Y-90000000D03*
X83000000Y-90000000D03*
X82000000Y-90000000D03*
X81000000Y-90000000D03*
X80000000Y-90000000D03*
X79000000Y-90000000D03*
X78000000Y-90000000D03*
X77000000Y-90000000D03*
X76000000Y-90000000D03*
X75000000Y-90000000D03*
X100000000Y-89000000D03*
X99000000Y-89000000D03*
X98000000Y-89000000D03*
X97000000Y-89000000D03*
X96000000Y-89000000D03*
X95000000Y-89000000D03*
X94000000Y-89000000D03*
X93000000Y-89000000D03*
X92000000Y-89000000D03*
X91000000Y-89000000D03*
X90000000Y-89000000D03*
X89000000Y-89000000D03*
X88000000Y-89000000D03*
X87000000Y-89000000D03*
X86000000Y-89000000D03*
X85000000Y-89000000D03*
X84000000Y-89000000D03*
X83000000Y-89000000D03*
X82000000Y-89000000D03*
X81000000Y-89000000D03*
X80000000Y-89000000D03*
X79000000Y-89000000D03*
X78000000Y-89000000D03*
X77000000Y-89000000D03*
X76000000Y-89000000D03*
X75000000Y-89000000D03*
X100000000Y-88000000D03*
X99000000Y-88000000D03*
X98000000Y-88000000D03*
X97000000Y-88000000D03*
X96000000Y-88000000D03*
X95000000Y-88000000D03*
X94000000Y-88000000D03*
X93000000Y-88000000D03*
X92000000Y-88000000D03*
X91000000Y-88000000D03*
X90000000Y-88000000D03*
X89000000Y-88000000D03*
X88000000Y-88000000D03*
X87000000Y-88000000D03*
X86000000Y-88000000D03*
X85000000Y-88000000D03*
X84000000Y-88000000D03*
X83000000Y-88000000D03*
X82000000Y-88000000D03*
X81000000Y-88000000D03*
X80000000Y-88000000D03*
X79000000Y-88000000D03*
X78000000Y-88000000D03*
X77000000Y-88000000D03*
X76000000Y-88000000D03*
X75000000Y-88000000D03*
X100000000Y-87000000D03*
X99000000Y-87000000D03*
X98000000Y-87000000D03*
X97000000Y-87000000D03*
X96000000Y-87000000D03*
X95000000Y-87000000D03*
X94000000Y-87000000D03*
X93000000Y-87000000D03*
X92000000Y-87000000D03*
X91000000Y-87000000D03*
X90000000Y-87000000D03*
X89000000Y-87000000D03*
X88000000Y-87000000D03*
X87000000Y-87000000D03*
X86000000Y-87000000D03*
X85000000Y-87000000D03*
X84000000Y-87000000D03*
X83000000Y-87000000D03*
X82000000Y-87000000D03*
X81000000Y-87000000D03*
X80000000Y-87000000D03*
X79000000Y-87000000D03*
X78000000Y-87000000D03*
X77000000Y-87000000D03*
X76000000Y-87000000D03*
X75000000Y-87000000D03*
X100000000Y-86000000D03*
X99000000Y-86000000D03*
X98000000Y-86000000D03*
X97000000Y-86000000D03*
X96000000Y-86000000D03*
X95000000Y-86000000D03*
X94000000Y-86000000D03*
X93000000Y-86000000D03*
X92000000Y-86000000D03*
X91000000Y-86000000D03*
X90000000Y-86000000D03*
X89000000Y-86000000D03*
X88000000Y-86000000D03*
X87000000Y-86000000D03*
X86000000Y-86000000D03*
X85000000Y-86000000D03*
X84000000Y-86000000D03*
X83000000Y-86000000D03*
X82000000Y-86000000D03*
X81000000Y-86000000D03*
X80000000Y-86000000D03*
X79000000Y-86000000D03*
X78000000Y-86000000D03*
X77000000Y-86000000D03*
X76000000Y-86000000D03*
X75000000Y-86000000D03*
X100000000Y-85000000D03*
X99000000Y-85000000D03*
X98000000Y-85000000D03*
X97000000Y-85000000D03*
X96000000Y-85000000D03*
X95000000Y-85000000D03*
X94000000Y-85000000D03*
X93000000Y-85000000D03*
X92000000Y-85000000D03*
X91000000Y-85000000D03*
X90000000Y-85000000D03*
X89000000Y-85000000D03*
X88000000Y-85000000D03*
X87000000Y-85000000D03*
X86000000Y-85000000D03*
X85000000Y-85000000D03*
X84000000Y-85000000D03*
X83000000Y-85000000D03*
X82000000Y-85000000D03*
X81000000Y-85000000D03*
X80000000Y-85000000D03*
X79000000Y-85000000D03*
X78000000Y-85000000D03*
X77000000Y-85000000D03*
X76000000Y-85000000D03*
X75000000Y-85000000D03*
X100000000Y-84000000D03*
X99000000Y-84000000D03*
X98000000Y-84000000D03*
X97000000Y-84000000D03*
X96000000Y-84000000D03*
X95000000Y-84000000D03*
X94000000Y-84000000D03*
X93000000Y-84000000D03*
X92000000Y-84000000D03*
X91000000Y-84000000D03*
X90000000Y-84000000D03*
X89000000Y-84000000D03*
X88000000Y-84000000D03*
X87000000Y-84000000D03*
X86000000Y-84000000D03*
X85000000Y-84000000D03*
X84000000Y-84000000D03*
X83000000Y-84000000D03*
X82000000Y-84000000D03*
X81000000Y-84000000D03*
X80000000Y-84000000D03*
X79000000Y-84000000D03*
X78000000Y-84000000D03*
X77000000Y-84000000D03*
X76000000Y-84000000D03*
X75000000Y-84000000D03*
X100000000Y-83000000D03*
X99000000Y-83000000D03*
X98000000Y-83000000D03*
X97000000Y-83000000D03*
X96000000Y-83000000D03*
X95000000Y-83000000D03*
X94000000Y-83000000D03*
X93000000Y-83000000D03*
X92000000Y-83000000D03*
X91000000Y-83000000D03*
X90000000Y-83000000D03*
X89000000Y-83000000D03*
X88000000Y-83000000D03*
X87000000Y-83000000D03*
X86000000Y-83000000D03*
X85000000Y-83000000D03*
X84000000Y-83000000D03*
X83000000Y-83000000D03*
X82000000Y-83000000D03*
X81000000Y-83000000D03*
X80000000Y-83000000D03*
X79000000Y-83000000D03*
X78000000Y-83000000D03*
X77000000Y-83000000D03*
X76000000Y-83000000D03*
X75000000Y-83000000D03*
X100000000Y-82000000D03*
X99000000Y-82000000D03*
X98000000Y-82000000D03*
X97000000Y-82000000D03*
X96000000Y-82000000D03*
X95000000Y-82000000D03*
X94000000Y-82000000D03*
X93000000Y-82000000D03*
X92000000Y-82000000D03*
X91000000Y-82000000D03*
X90000000Y-82000000D03*
X89000000Y-82000000D03*
X88000000Y-82000000D03*
X87000000Y-82000000D03*
X86000000Y-82000000D03*
X85000000Y-82000000D03*
X84000000Y-82000000D03*
X83000000Y-82000000D03*
X82000000Y-82000000D03*
X81000000Y-82000000D03*
X80000000Y-82000000D03*
X79000000Y-82000000D03*
X78000000Y-82000000D03*
X77000000Y-82000000D03*
X76000000Y-82000000D03*
X75000000Y-82000000D03*
X100000000Y-81000000D03*
X99000000Y-81000000D03*
X98000000Y-81000000D03*
X97000000Y-81000000D03*
X96000000Y-81000000D03*
X95000000Y-81000000D03*
X94000000Y-81000000D03*
X93000000Y-81000000D03*
X92000000Y-81000000D03*
X91000000Y-81000000D03*
X90000000Y-81000000D03*
X89000000Y-81000000D03*
X88000000Y-81000000D03*
X87000000Y-81000000D03*
X86000000Y-81000000D03*
X85000000Y-81000000D03*
X84000000Y-81000000D03*
X83000000Y-81000000D03*
X82000000Y-81000000D03*
X81000000Y-81000000D03*
X80000000Y-81000000D03*
X79000000Y-81000000D03*
X78000000Y-81000000D03*
X77000000Y-81000000D03*
X76000000Y-81000000D03*
X75000000Y-81000000D03*
X100000000Y-80000000D03*
X99000000Y-80000000D03*
X98000000Y-80000000D03*
X97000000Y-80000000D03*
X96000000Y-80000000D03*
X95000000Y-80000000D03*
X94000000Y-80000000D03*
X93000000Y-80000000D03*
X92000000Y-80000000D03*
X91000000Y-80000000D03*
X90000000Y-80000000D03*
X89000000Y-80000000D03*
X88000000Y-80000000D03*
X87000000Y-80000000D03*
X86000000Y-80000000D03*
X85000000Y-80000000D03*
X84000000Y-80000000D03*
X83000000Y-80000000D03*
X82000000Y-80000000D03*
X81000000Y-80000000D03*
X80000000Y-80000000D03*
X79000000Y-80000000D03*
X78000000Y-80000000D03*
X77000000Y-80000000D03*
X76000000Y-80000000D03*
X75000000Y-80000000D03*
X100000000Y-79000000D03*
X99000000Y-79000000D03*
X98000000Y-79000000D03*
X97000000Y-79000000D03*
X96000000Y-79000000D03*
X95000000Y-79000000D03*
X94000000Y-79000000D03*
X93000000Y-79000000D03*
X92000000Y-79000000D03*
X91000000Y-79000000D03*
X90000000Y-79000000D03*
X89000000Y-79000000D03*
X88000000Y-79000000D03*
X87000000Y-79000000D03*
X86000000Y-79000000D03*
X85000000Y-79000000D03*
X84000000Y-79000000D03*
X83000000Y-79000000D03*
X82000000Y-79000000D03*
X81000000Y-79000000D03*
X80000000Y-79000000D03*
X79000000Y-79000000D03*
X78000000Y-79000000D03*
X77000000Y-79000000D03*
X76000000Y-79000000D03*
X75000000Y-79000000D03*
D12*
X57000000Y-76000000D03*
D13*
X57000000Y-78540000D03*
X57000000Y-81080000D03*
D19*
X62500000Y-121750000D03*
X63500000Y-121750000D03*
X64500000Y-121750000D03*
X65500000Y-121750000D03*
X66500000Y-121750000D03*
X67500000Y-121750000D03*
X68500000Y-121750000D03*
X69500000Y-121750000D03*
X70500000Y-121750000D03*
X71500000Y-121750000D03*
X72500000Y-121750000D03*
X75500000Y-121750000D03*
X76500000Y-121750000D03*
X77500000Y-121750000D03*
X78500000Y-121750000D03*
X79500000Y-121750000D03*
X80500000Y-121750000D03*
X81500000Y-121750000D03*
X82500000Y-121750000D03*
X83500000Y-121750000D03*
X84500000Y-121750000D03*
X85500000Y-121750000D03*
X86500000Y-121750000D03*
X87500000Y-121750000D03*
X88500000Y-121750000D03*
X89500000Y-121750000D03*
X90500000Y-121750000D03*
X91500000Y-121750000D03*
X92500000Y-121750000D03*
X93500000Y-121750000D03*
X94500000Y-121750000D03*
X95500000Y-121750000D03*
X96500000Y-121750000D03*
X97500000Y-121750000D03*
X98500000Y-121750000D03*
X99500000Y-121750000D03*
X100500000Y-121750000D03*
X101500000Y-121750000D03*
X102500000Y-121750000D03*
X103500000Y-121750000D03*
X104500000Y-121750000D03*
X105500000Y-121750000D03*
X106500000Y-121750000D03*
X107500000Y-121750000D03*
X108500000Y-121750000D03*
X109500000Y-121750000D03*
X110500000Y-121750000D03*
D20*
X111500000Y-121200000D03*
D19*
X112500000Y-121750000D03*
D21*
X50000000Y-106037500D03*
X50000000Y-104462500D03*
D14*
X56310000Y-106000000D03*
X55290000Y-106000000D03*
D15*
X60500000Y-52212500D03*
X60500000Y-53787500D03*
D22*
X56900000Y-101680000D03*
X56900000Y-100720000D03*
D23*
X62230000Y-92915000D03*
X62230000Y-89965000D03*
D24*
X58775000Y-86400000D03*
X55825000Y-86400000D03*
D22*
X54300000Y-90180000D03*
X54300000Y-89220000D03*
D14*
X71510000Y-87000000D03*
X70490000Y-87000000D03*
D25*
X65765500Y-104374999D03*
X65765500Y-105025001D03*
X65765500Y-105674999D03*
X65765500Y-106325001D03*
X65765500Y-106974999D03*
X65765500Y-107625001D03*
D26*
X65825000Y-108984500D03*
X66475001Y-108984500D03*
X67124999Y-108984500D03*
X67775001Y-108984500D03*
X68424999Y-108984500D03*
X69075001Y-108984500D03*
X69724999Y-108984500D03*
X70375001Y-108984500D03*
X71024999Y-108984500D03*
X71675000Y-108984500D03*
D25*
X71734500Y-107625001D03*
X71734500Y-106974999D03*
X71734500Y-106325001D03*
X71734500Y-105674999D03*
X71734500Y-105025001D03*
X71734500Y-104374999D03*
D26*
X71675000Y-103015500D03*
X71024999Y-103015500D03*
X70375001Y-103015500D03*
X69724999Y-103015500D03*
X69075001Y-103015500D03*
X68424999Y-103015500D03*
X67775001Y-103015500D03*
X67124999Y-103015500D03*
X66475001Y-103015500D03*
X65825000Y-103015500D03*
D27*
X68750000Y-106000000D03*
D28*
X99520000Y-67500000D03*
X100480000Y-67500000D03*
D29*
X60000000Y-74490000D03*
X60000000Y-75510000D03*
D22*
X95000000Y-68480000D03*
X95000000Y-67520000D03*
D30*
X69405000Y-89400000D03*
X68135000Y-89400000D03*
X66865000Y-89400000D03*
X65595000Y-89400000D03*
X65595000Y-96600000D03*
X66865000Y-96600000D03*
X68135000Y-96600000D03*
X69405000Y-96600000D03*
D31*
X59799998Y-97400000D03*
D32*
X59799998Y-95800001D03*
X59799998Y-95000000D03*
X59799998Y-94199999D03*
D31*
X59799998Y-93400001D03*
D33*
X58500250Y-91949968D03*
X57700150Y-91949968D03*
D34*
X56900000Y-91750000D03*
D33*
X55299850Y-91949968D03*
X54499750Y-91949968D03*
D35*
X53200002Y-92600000D03*
D32*
X53200002Y-94199999D03*
X53200002Y-95000000D03*
X53200002Y-95800001D03*
D35*
X53200002Y-96599999D03*
D33*
X54500001Y-98049999D03*
X55300000Y-98049999D03*
X56100001Y-98049999D03*
X56899999Y-98049999D03*
X57700000Y-98049999D03*
X58500001Y-98049999D03*
D36*
X58099999Y-94424944D03*
X54900001Y-94424944D03*
D11*
X49250000Y-79260000D03*
X49250000Y-78240000D03*
D24*
X58775000Y-89800000D03*
X55825000Y-89800000D03*
D37*
X70380000Y-101400000D03*
X69420000Y-101400000D03*
D14*
X71510000Y-85500000D03*
X70490000Y-85500000D03*
D15*
X62500000Y-52212500D03*
X62500000Y-53787500D03*
D11*
X51000000Y-79260000D03*
X51000000Y-78240000D03*
D15*
X49250000Y-82462500D03*
X49250000Y-84037500D03*
D14*
X71510000Y-84000000D03*
X70490000Y-84000000D03*
D22*
X94000000Y-68480000D03*
X94000000Y-67520000D03*
D15*
X64500000Y-52212500D03*
X64500000Y-53787500D03*
D29*
X72000000Y-92990000D03*
X72000000Y-94010000D03*
D10*
X58690000Y-103800000D03*
X59710000Y-103800000D03*
D12*
X53750000Y-108470000D03*
D13*
X53750000Y-111010000D03*
D15*
X68500000Y-52212500D03*
X68500000Y-53787500D03*
X51000000Y-82462500D03*
X51000000Y-84037500D03*
D12*
X57475000Y-108475000D03*
D13*
X60015000Y-108475000D03*
X57475000Y-111015000D03*
X60015000Y-111015000D03*
D29*
X50000000Y-107490000D03*
X50000000Y-108510000D03*
D38*
X49050000Y-111937500D03*
X50950000Y-111937500D03*
X50000000Y-110062500D03*
D39*
X107800000Y-73000000D03*
X108600000Y-73000000D03*
X109400000Y-73000000D03*
X112600000Y-73000000D03*
X113400000Y-73000000D03*
X114200000Y-73000000D03*
X107800000Y-73800000D03*
X108600000Y-73800000D03*
X109400000Y-73800000D03*
X112600000Y-73800000D03*
X113400000Y-73800000D03*
X114200000Y-73800000D03*
X107800000Y-74600000D03*
X108600000Y-74600000D03*
X109400000Y-74600000D03*
X112600000Y-74600000D03*
X113400000Y-74600000D03*
X114200000Y-74600000D03*
X107800000Y-75400000D03*
X108600000Y-75400000D03*
X109400000Y-75400000D03*
X112600000Y-75400000D03*
X113400000Y-75400000D03*
X114200000Y-75400000D03*
X107800000Y-76200000D03*
X108600000Y-76200000D03*
X109400000Y-76200000D03*
X112600000Y-76200000D03*
X113400000Y-76200000D03*
X114200000Y-76200000D03*
X108600000Y-77000000D03*
X109400000Y-77000000D03*
X112600000Y-77000000D03*
X113400000Y-77000000D03*
X114200000Y-77000000D03*
X107800000Y-77800000D03*
X108600000Y-77800000D03*
X109400000Y-77800000D03*
X112600000Y-77800000D03*
X113400000Y-77800000D03*
X108600000Y-78600000D03*
X109400000Y-78600000D03*
X112600000Y-78600000D03*
X113400000Y-78600000D03*
X114200000Y-78600000D03*
X107800000Y-79400000D03*
X108600000Y-79400000D03*
X109400000Y-79400000D03*
X112600000Y-79400000D03*
X113400000Y-79400000D03*
X108600000Y-80200000D03*
X109400000Y-80200000D03*
X112600000Y-80200000D03*
X113400000Y-80200000D03*
X114200000Y-80200000D03*
X107800000Y-81000000D03*
X108600000Y-81000000D03*
X109400000Y-81000000D03*
X112600000Y-81000000D03*
X113400000Y-81000000D03*
D15*
X70500000Y-52212500D03*
X70500000Y-53787500D03*
X50000000Y-100712500D03*
X50000000Y-102287500D03*
X74500000Y-52212500D03*
X74500000Y-53787500D03*
D40*
X71400000Y-96520000D03*
X71400000Y-97480000D03*
D22*
X92000000Y-68480000D03*
X92000000Y-67520000D03*
D41*
X62700000Y-95425000D03*
X62700000Y-98375000D03*
D14*
X55510000Y-100000000D03*
X54490000Y-100000000D03*
D42*
X75657017Y-104642983D03*
X77742983Y-102557017D03*
D28*
X116520000Y-81000000D03*
X117480000Y-81000000D03*
D22*
X91000000Y-68480000D03*
X91000000Y-67520000D03*
D41*
X63400000Y-109325000D03*
X63400000Y-112275000D03*
D43*
X55750000Y-102750000D03*
X57800000Y-93600000D03*
X64500000Y-119100000D03*
X49250000Y-86000000D03*
X58500000Y-93600000D03*
X63500000Y-119100000D03*
X59000000Y-88500000D03*
X57800000Y-88500000D03*
X66200000Y-110900000D03*
X62500000Y-119100000D03*
X57800000Y-86700000D03*
X57800000Y-93100000D03*
X57800000Y-88000000D03*
X58500000Y-93100000D03*
X60500000Y-103800000D03*
X58500000Y-88000000D03*
X54500000Y-106000000D03*
X67800000Y-102700000D03*
X57800000Y-89600000D03*
X67800000Y-103300000D03*
X68400000Y-102700000D03*
X50000000Y-103250000D03*
X58500000Y-88500000D03*
X57800000Y-86000000D03*
X68400000Y-103300000D03*
X67400000Y-110900000D03*
X57800000Y-90400000D03*
X59000000Y-88000000D03*
X91000000Y-96000000D03*
X69500000Y-105300000D03*
X75750000Y-116000000D03*
X65000000Y-87800000D03*
X96300000Y-67700000D03*
X83000000Y-60250000D03*
X70200000Y-106600000D03*
X117500000Y-72500000D03*
X78500000Y-80500000D03*
X72300000Y-97500000D03*
X113000000Y-75800000D03*
X69700000Y-108800000D03*
X100000000Y-98000000D03*
X96700000Y-54900000D03*
X65500000Y-119100000D03*
X95000000Y-57750000D03*
X107800000Y-79400000D03*
X78500000Y-84500000D03*
X96600000Y-69400000D03*
X95300000Y-70800000D03*
X84000000Y-75000000D03*
X84500000Y-100250000D03*
X80000000Y-83000000D03*
X89000000Y-82000000D03*
X100000000Y-90000000D03*
X56800000Y-94400000D03*
X75750000Y-112750000D03*
X93000000Y-66800000D03*
X67500000Y-106500000D03*
X75000000Y-88000000D03*
X86000000Y-91000000D03*
X62100000Y-98700000D03*
X94000000Y-98000000D03*
X96000000Y-81000000D03*
X97000000Y-74000000D03*
X93000000Y-69400000D03*
X66000000Y-107000000D03*
X77000000Y-94000000D03*
X88000000Y-77000000D03*
X88000000Y-87000000D03*
X84800000Y-54800000D03*
X79000000Y-80000000D03*
X95000000Y-61100000D03*
X56000000Y-88500000D03*
X81500000Y-119100000D03*
X100000000Y-86000000D03*
X69600000Y-106600000D03*
X73400000Y-86100000D03*
X114500000Y-81750000D03*
X75000000Y-78000000D03*
X112250000Y-83250000D03*
X68500000Y-119100000D03*
X91000000Y-82000000D03*
X72750000Y-113500000D03*
X109400000Y-76200000D03*
X105000000Y-119100000D03*
X113750000Y-83250000D03*
X76300000Y-101500000D03*
X91000000Y-84000000D03*
X101250000Y-67500000D03*
X118500000Y-72500000D03*
X87000000Y-98750000D03*
X76800000Y-105800000D03*
X111000000Y-74600000D03*
X117500000Y-73000000D03*
X94000000Y-95000000D03*
X83000000Y-63500000D03*
X54500001Y-99299999D03*
X98000000Y-93000000D03*
X62800000Y-89700000D03*
X76000000Y-81000000D03*
X114200000Y-80200000D03*
X101750000Y-83250000D03*
X119000000Y-83250000D03*
X75750000Y-106750000D03*
X64000000Y-112000000D03*
X83000000Y-92000000D03*
X83000000Y-119100000D03*
X74200000Y-93200000D03*
X73700000Y-101600000D03*
X75000000Y-98000000D03*
X91000000Y-76000000D03*
X77000000Y-119100000D03*
X65600000Y-90700000D03*
X111500000Y-83250000D03*
X78000000Y-87000000D03*
X100000000Y-96000000D03*
X79000000Y-90000000D03*
X93000000Y-70800000D03*
X73600000Y-104200000D03*
X81000000Y-86000000D03*
X89000000Y-71900000D03*
X100000000Y-73000000D03*
X55500000Y-88500000D03*
X84800000Y-65400000D03*
X97000000Y-91000000D03*
X89000000Y-98750000D03*
X118250000Y-81000000D03*
X78100000Y-100400000D03*
X73700000Y-99000000D03*
X62800000Y-90200000D03*
X85000000Y-119100000D03*
X94000000Y-87000000D03*
X70200000Y-105500000D03*
X115250000Y-83250000D03*
X55500000Y-88000000D03*
X96000000Y-96000000D03*
X63100000Y-103200000D03*
X87000000Y-82000000D03*
X113000000Y-83250000D03*
X92000000Y-87000000D03*
X85000000Y-88000000D03*
X56800000Y-88000000D03*
X73400000Y-86600000D03*
X113800000Y-74200000D03*
X68500000Y-101700000D03*
X92000000Y-89000000D03*
X80500000Y-101500000D03*
X99000000Y-119100000D03*
X57600000Y-101700000D03*
X99000000Y-94000000D03*
X88000000Y-89000000D03*
X87000000Y-88000000D03*
X109250000Y-83250000D03*
X78800000Y-103700000D03*
X75750000Y-114500000D03*
X65900000Y-87800000D03*
X56000000Y-94400000D03*
X49250000Y-77250000D03*
X59100000Y-106000000D03*
X72000000Y-105000000D03*
X92000000Y-100250000D03*
X94500000Y-78500000D03*
X75750000Y-117500000D03*
X63200000Y-98100000D03*
X86000000Y-81000000D03*
X100000000Y-83000000D03*
X75500000Y-57000000D03*
X87000000Y-119100000D03*
X75750000Y-111250000D03*
X74300000Y-89900000D03*
X92000000Y-79000000D03*
X84000000Y-95000000D03*
X104000000Y-83250000D03*
X83500000Y-88500000D03*
X62800000Y-112000000D03*
X56000000Y-88000000D03*
X83000000Y-82000000D03*
X63200000Y-98700000D03*
X114900000Y-79500000D03*
X73600000Y-105500000D03*
X99000000Y-84000000D03*
X70250000Y-99250000D03*
X71500000Y-105600000D03*
X77000000Y-74000000D03*
X90000000Y-83000000D03*
X78200000Y-102700000D03*
X89000000Y-119100000D03*
X83000000Y-100250000D03*
X108500000Y-83250000D03*
X101000000Y-119100000D03*
X96000000Y-70100000D03*
X103000000Y-119100000D03*
X72900000Y-93800000D03*
X89000000Y-80000000D03*
X83000000Y-56700000D03*
X77000000Y-84000000D03*
X86000000Y-83000000D03*
X87000000Y-74000000D03*
X87000000Y-84000000D03*
X86000000Y-87000000D03*
X96000000Y-94000000D03*
X102500000Y-83250000D03*
X69200000Y-104800000D03*
X51250000Y-102750000D03*
X107750000Y-83250000D03*
X48500000Y-90000000D03*
X97000000Y-97000000D03*
X83000000Y-57750000D03*
X54200000Y-96000000D03*
X106250000Y-83250000D03*
X88000000Y-97000000D03*
X82000000Y-79000000D03*
X98000000Y-77000000D03*
X72000000Y-105600000D03*
X95000000Y-72100000D03*
X51000000Y-110500000D03*
X86000000Y-85000000D03*
X80000000Y-73000000D03*
X97000000Y-93000000D03*
X78000000Y-119100000D03*
X66000000Y-105000000D03*
X111000000Y-119100000D03*
X56800000Y-86700000D03*
X94000000Y-96000000D03*
X56800000Y-90400000D03*
X75750000Y-108250000D03*
X54450000Y-96850000D03*
X77800000Y-103100000D03*
X97000000Y-83000000D03*
X89000000Y-88000000D03*
X75750000Y-109750000D03*
X99000000Y-90000000D03*
X93600000Y-64100000D03*
X85000000Y-98000000D03*
X67400000Y-113400000D03*
X114500000Y-81000000D03*
X64000000Y-112600000D03*
X90500000Y-89500000D03*
X81000000Y-96000000D03*
X84000000Y-85000000D03*
X56800000Y-88500000D03*
X73600000Y-102800000D03*
X97000000Y-87000000D03*
X72400000Y-86100000D03*
X94000000Y-86000000D03*
X74300000Y-80800000D03*
X96000000Y-88000000D03*
X92000000Y-83000000D03*
X93000000Y-92000000D03*
X77000000Y-99000000D03*
X56800000Y-93900000D03*
X61600000Y-89700000D03*
X95000000Y-56600000D03*
X70250000Y-113500000D03*
X71800000Y-108800000D03*
X97000000Y-89000000D03*
X114500000Y-83250000D03*
X94000000Y-91000000D03*
X65500000Y-107000000D03*
X74400000Y-84200000D03*
X95500000Y-85500000D03*
X70000000Y-105000000D03*
X75100000Y-101800000D03*
X98000000Y-89000000D03*
X73400000Y-84900000D03*
X75000000Y-99000000D03*
X81000000Y-98750000D03*
X99000000Y-98000000D03*
X81500000Y-100500000D03*
X95500000Y-74500000D03*
X103250000Y-83250000D03*
X83000000Y-98750000D03*
X109000000Y-119100000D03*
X67800000Y-108700000D03*
X97000000Y-95000000D03*
X107000000Y-83250000D03*
X75300000Y-102900000D03*
X82000000Y-89000000D03*
X115200000Y-78800000D03*
X68500000Y-104700000D03*
X110000000Y-83250000D03*
X56800000Y-86000000D03*
X64100000Y-103400000D03*
X93000000Y-82000000D03*
X91000000Y-119100000D03*
X88000000Y-85000000D03*
X93250000Y-99750000D03*
X93000000Y-119100000D03*
X63900000Y-103900000D03*
X94000000Y-97000000D03*
X93500000Y-98750000D03*
X74400000Y-82500000D03*
X98000000Y-85000000D03*
X114500000Y-82500000D03*
X67400000Y-87000000D03*
X62100000Y-98100000D03*
X95500000Y-119100000D03*
X67300000Y-104700000D03*
X100000000Y-84000000D03*
X101000000Y-83000000D03*
X65750000Y-109250000D03*
X65500000Y-105000000D03*
X99000000Y-80000000D03*
X77700000Y-104700000D03*
X94000000Y-75000000D03*
X90000000Y-73000000D03*
X93300000Y-54900000D03*
X67500000Y-105500000D03*
X114900000Y-80300000D03*
X107000000Y-119100000D03*
X95000000Y-60250000D03*
X97000000Y-85000000D03*
X71800000Y-109300000D03*
X74400000Y-94500000D03*
X65200000Y-87000000D03*
X77500000Y-77500000D03*
X105500000Y-83250000D03*
X100000000Y-92000000D03*
X109400000Y-73000000D03*
X56800000Y-89600000D03*
X77642982Y-102557019D03*
X79500000Y-102500000D03*
X91000000Y-86000000D03*
X86300000Y-66900000D03*
X90500000Y-100250000D03*
X98000000Y-83000000D03*
X65750000Y-108750000D03*
X87000000Y-86000000D03*
X95000000Y-62700000D03*
X69000000Y-105800000D03*
X96000000Y-98000000D03*
X100000000Y-88000000D03*
X56000000Y-93900000D03*
X54300000Y-88300000D03*
X115800000Y-74600000D03*
X63500000Y-102000000D03*
X88000000Y-83000000D03*
X108600000Y-73800000D03*
X81700000Y-54800000D03*
X55600000Y-103800000D03*
X67800000Y-109200000D03*
X86000000Y-100250000D03*
X99000000Y-86000000D03*
X92000000Y-85000000D03*
X115200000Y-76200000D03*
X94000000Y-94000000D03*
X114200000Y-77800000D03*
X78000000Y-97000000D03*
X61600000Y-90200000D03*
X68000000Y-105100000D03*
X69100000Y-102700000D03*
X80000000Y-93000000D03*
X68400000Y-87800000D03*
X89000000Y-70000000D03*
X80000000Y-119100000D03*
X79000000Y-98750000D03*
X97000000Y-119100000D03*
X74500000Y-91500000D03*
X69250000Y-113500000D03*
X68200000Y-87000000D03*
X110750000Y-83250000D03*
X118500000Y-73000000D03*
X71500000Y-105000000D03*
X83000000Y-61300000D03*
X68100000Y-106500000D03*
X66200000Y-113400000D03*
X95000000Y-98000000D03*
X87500000Y-77500000D03*
X89000000Y-100250000D03*
X63500000Y-102800000D03*
X87000000Y-94000000D03*
X90000000Y-93000000D03*
X96000000Y-84000000D03*
X85000000Y-78000000D03*
X75500000Y-119100000D03*
X68600000Y-105300000D03*
X94500000Y-119100000D03*
X96000000Y-92000000D03*
X72400000Y-86600000D03*
X87500000Y-100250000D03*
X76000000Y-91000000D03*
X78000000Y-77000000D03*
X66100000Y-87000000D03*
X94000000Y-93000000D03*
X78500000Y-93400000D03*
X93000000Y-65400000D03*
X72250000Y-99000000D03*
X81000000Y-76000000D03*
X116000000Y-83250000D03*
X87800000Y-68400000D03*
X71750000Y-113500000D03*
X104750000Y-83250000D03*
X96000000Y-90000000D03*
X74300000Y-78500000D03*
X112600000Y-73000000D03*
X52500000Y-105300000D03*
X67500000Y-87800000D03*
X94000000Y-89000000D03*
X89000000Y-90000000D03*
X69700000Y-109300000D03*
X100000000Y-94000000D03*
X62800000Y-112600000D03*
X108600000Y-75400000D03*
X91000000Y-88000000D03*
X112500000Y-119100000D03*
X93000000Y-84000000D03*
X95000000Y-95000000D03*
X96000000Y-95000000D03*
X88000000Y-86000000D03*
X66400000Y-93800000D03*
X61200000Y-92000000D03*
X66400000Y-93100000D03*
X61600000Y-94600000D03*
X87000000Y-83000000D03*
X89000000Y-83000000D03*
X73400000Y-91500000D03*
X73500000Y-89000000D03*
X87000000Y-87000000D03*
X72300000Y-89500000D03*
X65200000Y-93100000D03*
X62800000Y-91500000D03*
X62700000Y-93200000D03*
X91000000Y-89000000D03*
X92000000Y-88000000D03*
X67400000Y-93100000D03*
X62900000Y-95700000D03*
X65400000Y-93800000D03*
X62100000Y-91900000D03*
X62000000Y-96900000D03*
X86000000Y-86000000D03*
X62700000Y-96900000D03*
X62700000Y-92700000D03*
X87000000Y-89000000D03*
X73500000Y-89500000D03*
X62100000Y-95100000D03*
X61600000Y-94000000D03*
X93000000Y-89000000D03*
X62900000Y-95100000D03*
X92000000Y-86000000D03*
X86000000Y-88000000D03*
X61400000Y-96300000D03*
X88000000Y-88000000D03*
X79500000Y-86500000D03*
X86000000Y-82000000D03*
X68500000Y-93100000D03*
X86000000Y-84000000D03*
X88000000Y-82000000D03*
X87000000Y-85000000D03*
X62100000Y-95700000D03*
X72300000Y-89000000D03*
X78500000Y-89500000D03*
X93000000Y-87000000D03*
X62300000Y-94200000D03*
X68400000Y-93800000D03*
X88000000Y-84000000D03*
X61700000Y-92700000D03*
X67400000Y-93800000D03*
X89000000Y-89000000D03*
X61400000Y-97500000D03*
X92000000Y-90000000D03*
X61700000Y-93200000D03*
X82500000Y-76500000D03*
X79500000Y-96500000D03*
X90500000Y-82500000D03*
X86500000Y-78500000D03*
X114200000Y-72300000D03*
X84500000Y-75500000D03*
X96500000Y-76500000D03*
X82500000Y-95500000D03*
X115750000Y-81000000D03*
X81500000Y-96500000D03*
X85500000Y-75500000D03*
X94500000Y-85500000D03*
X85000000Y-73000000D03*
X71100000Y-109300000D03*
X71100000Y-108800000D03*
X92000000Y-84000000D03*
X70400000Y-109300000D03*
X91000000Y-87000000D03*
X91000000Y-81000000D03*
X82500000Y-96500000D03*
X70400000Y-108800000D03*
X91000000Y-83000000D03*
X114200000Y-78600000D03*
X90500000Y-83500000D03*
X107800000Y-73000000D03*
X90500000Y-84500000D03*
X107800000Y-81000000D03*
X73800000Y-108500000D03*
X118500000Y-70600000D03*
X81500000Y-94500000D03*
X90000000Y-82000000D03*
X81500000Y-95500000D03*
X73100000Y-109100000D03*
X84500000Y-77500000D03*
X69250000Y-110750000D03*
X82500000Y-77500000D03*
X86000000Y-76000000D03*
X117500000Y-71100000D03*
X90500000Y-86500000D03*
X114200000Y-76200000D03*
X80600000Y-96500000D03*
X95500000Y-75500000D03*
X80600000Y-94500000D03*
X70250000Y-110750000D03*
X82500000Y-75500000D03*
X85500000Y-76500000D03*
X83500000Y-94500000D03*
X114200000Y-74600000D03*
X79500000Y-94500000D03*
X95000000Y-73000000D03*
X90500000Y-85500000D03*
X112600000Y-74600000D03*
X100000000Y-78000000D03*
X79500000Y-95500000D03*
X99000000Y-75000000D03*
X73000000Y-108300000D03*
X80500000Y-95500000D03*
X82500000Y-94500000D03*
X107800000Y-74600000D03*
X92000000Y-74000000D03*
X98000000Y-82000000D03*
X83000000Y-77000000D03*
X83500000Y-95500000D03*
X84000000Y-80000000D03*
X83500000Y-76500000D03*
X83500000Y-77500000D03*
X84500000Y-76500000D03*
X93000000Y-85000000D03*
X89000000Y-75000000D03*
X109400000Y-74600000D03*
X72750000Y-110750000D03*
X98750000Y-67500000D03*
X91000000Y-85000000D03*
X107800000Y-76200000D03*
X93000000Y-77000000D03*
X82000000Y-74000000D03*
X90000000Y-88000000D03*
X71750000Y-110750000D03*
X94500000Y-76500000D03*
X83500000Y-75500000D03*
X117500000Y-70600000D03*
X97000000Y-79000000D03*
X110100000Y-72900000D03*
X118500000Y-71100000D03*
X85500000Y-77500000D03*
X83500000Y-96500000D03*
X90000000Y-78000000D03*
X93000000Y-83000000D03*
X94000000Y-80000000D03*
X83500000Y-93500000D03*
X100000000Y-85000000D03*
X99000000Y-85000000D03*
X100000000Y-87000000D03*
X99000000Y-87000000D03*
X100000000Y-89000000D03*
X99000000Y-89000000D03*
X100000000Y-91000000D03*
X99000000Y-91000000D03*
X100000000Y-93000000D03*
X99000000Y-93000000D03*
X100000000Y-95000000D03*
X99000000Y-95000000D03*
X100000000Y-97000000D03*
X99000000Y-97000000D03*
X98000000Y-98000000D03*
X97000000Y-98000000D03*
X71000000Y-118750000D03*
X113000000Y-114000000D03*
X64000000Y-115000000D03*
X113400000Y-81000000D03*
X96000000Y-82000000D03*
X85000000Y-93000000D03*
X66500000Y-108750000D03*
X94000000Y-88000000D03*
X92000000Y-94000000D03*
X79500000Y-62000000D03*
X89000000Y-95000000D03*
X79000000Y-95000000D03*
X83000000Y-97000000D03*
X66000000Y-98800000D03*
X78000000Y-92000000D03*
X81000000Y-91000000D03*
X76000000Y-86000000D03*
X67200000Y-99400000D03*
X77000000Y-79000000D03*
X80000000Y-98000000D03*
X62800000Y-109600000D03*
X79000000Y-75000000D03*
X62800000Y-109000000D03*
X76000000Y-76000000D03*
X65700000Y-99400000D03*
X66300000Y-99400000D03*
X88000000Y-92000000D03*
X75000000Y-73000000D03*
X75000000Y-93000000D03*
X90000000Y-98000000D03*
X82000000Y-84000000D03*
X79000000Y-85000000D03*
X69400000Y-94400000D03*
X66700000Y-98900000D03*
X78000000Y-82000000D03*
X65500000Y-98400000D03*
X77000000Y-89000000D03*
X83000000Y-87000000D03*
X82000000Y-94000000D03*
X70500000Y-83000000D03*
X80000000Y-88000000D03*
X80000000Y-78000000D03*
X63500000Y-109000000D03*
X60000000Y-81250000D03*
X92500000Y-92500000D03*
X75000000Y-83000000D03*
X84000000Y-90000000D03*
X76000000Y-96000000D03*
X81000000Y-81000000D03*
X70500000Y-96500000D03*
X67800000Y-83200000D03*
X60000000Y-73750000D03*
X63500000Y-109600000D03*
X71300000Y-93000000D03*
X93500000Y-92500000D03*
X92500000Y-90500000D03*
X85000000Y-83000000D03*
X93000000Y-97000000D03*
X95000000Y-83000000D03*
X65200000Y-98900000D03*
X67100000Y-109200000D03*
X67100000Y-108700000D03*
X66300000Y-98300000D03*
X66500000Y-109250000D03*
X86000000Y-96000000D03*
X94000000Y-85000000D03*
X89000000Y-86000000D03*
X89000000Y-87000000D03*
X114200000Y-77000000D03*
X97000000Y-77000000D03*
X111000000Y-77400000D03*
X100000000Y-82000000D03*
X98000000Y-79000000D03*
X110000000Y-80200000D03*
X112000000Y-80200000D03*
X100000000Y-81000000D03*
X108600000Y-81000000D03*
X98000000Y-81000000D03*
X95000000Y-81000000D03*
X112600000Y-79400000D03*
X100000000Y-76000000D03*
X109400000Y-77800000D03*
X96500000Y-78500000D03*
X113400000Y-78600000D03*
X113400000Y-80200000D03*
X99000000Y-81000000D03*
X113400000Y-79400000D03*
X97000000Y-81000000D03*
X109400000Y-79400000D03*
X98000000Y-78000000D03*
X112600000Y-77800000D03*
X97000000Y-78000000D03*
X100000000Y-80000000D03*
X108600000Y-80200000D03*
X96000000Y-80000000D03*
X113400000Y-77000000D03*
X113400000Y-76200000D03*
X95000000Y-80000000D03*
X99000000Y-76000000D03*
X110000000Y-78600000D03*
X112000000Y-78600000D03*
X97500000Y-79500000D03*
X93000000Y-88000000D03*
X91500000Y-81500000D03*
X95900000Y-66500000D03*
X92500000Y-81500000D03*
X93000000Y-86000000D03*
X94000000Y-84000000D03*
X93500000Y-81500000D03*
X95000000Y-84000000D03*
X94500000Y-81500000D03*
X95000000Y-87000000D03*
X99000000Y-92000000D03*
X100000000Y-99000000D03*
X98000000Y-87000000D03*
X75900000Y-105300000D03*
X71700000Y-102700000D03*
X98000000Y-97000000D03*
X71700000Y-103300000D03*
X99000000Y-96000000D03*
X72000000Y-104300000D03*
X99000000Y-99000000D03*
X99500000Y-98600000D03*
X98000000Y-95000000D03*
X96000000Y-87000000D03*
X75900000Y-104500000D03*
X76300000Y-104900000D03*
X71500000Y-104300000D03*
X98000000Y-91000000D03*
X99000000Y-88000000D03*
X67500000Y-95500000D03*
X76000000Y-98000000D03*
X70300000Y-93100000D03*
X97000000Y-76000000D03*
X98000000Y-76000000D03*
X79000000Y-97000000D03*
X66750000Y-87750000D03*
X69800000Y-93400000D03*
X94500000Y-94500000D03*
X65100000Y-101000000D03*
X95000000Y-90000000D03*
X66000000Y-104300000D03*
X95000000Y-94000000D03*
X95000000Y-92000000D03*
X95500000Y-92500000D03*
X95500000Y-93500000D03*
X65500000Y-104300000D03*
X95500000Y-90500000D03*
X65700000Y-100800000D03*
X65900000Y-101800000D03*
X66100000Y-101300000D03*
X95000000Y-88000000D03*
X91500000Y-97500000D03*
X65800000Y-102700000D03*
X95000000Y-96000000D03*
X65800000Y-103300000D03*
X69250000Y-87250000D03*
X95000000Y-89000000D03*
X112000000Y-85276600D03*
X96000000Y-89000000D03*
X112000000Y-84723400D03*
X64500000Y-79500000D03*
X70500000Y-88000000D03*
X71100000Y-88000000D03*
X63500000Y-75500000D03*
X54600000Y-105300000D03*
X50000000Y-95000000D03*
X50000000Y-94000000D03*
X51000000Y-96000000D03*
X49000000Y-98000000D03*
X49000000Y-93000000D03*
X49000000Y-94000000D03*
X49000000Y-96000000D03*
X49000000Y-95000000D03*
X50000000Y-93000000D03*
X49000000Y-97000000D03*
X50000000Y-97000000D03*
X49000000Y-92000000D03*
X50000000Y-96000000D03*
X51000000Y-95000000D03*
X51000000Y-94000000D03*
X87500000Y-80500000D03*
X72900000Y-79600000D03*
X57700000Y-100400000D03*
X86500000Y-80500000D03*
X72900000Y-80200000D03*
X58300000Y-99600000D03*
X75500000Y-83500000D03*
X73500000Y-106750000D03*
X77500000Y-83500000D03*
X64500000Y-107750000D03*
X76500000Y-83500000D03*
X73750000Y-107500000D03*
X66500000Y-102700000D03*
X91500000Y-98500000D03*
X71000000Y-102700000D03*
X99300000Y-99700000D03*
X90500000Y-99250000D03*
X67100000Y-101900000D03*
X108600000Y-76200000D03*
X48900000Y-100700000D03*
X60500000Y-51000000D03*
X62500000Y-51000000D03*
X64500000Y-51000000D03*
X66500000Y-51000000D03*
X68500000Y-51000000D03*
X70500000Y-51000000D03*
X72500000Y-51000000D03*
X74500000Y-51000000D03*
X51000000Y-77250000D03*
X64000000Y-116750000D03*
X61200000Y-98500000D03*
X60800000Y-95000000D03*
D44*
X102503224Y-97493298D02*
G75*
G02*
X102657974Y-97338524I154776J-2D01*
G01*
X102503220Y-96853550D02*
G75*
G03*
X102193685Y-96106315I-1056820J-50D01*
G01*
X83203197Y-111009191D02*
G75*
G02*
X84493685Y-107893685I4406003J-9D01*
G01*
X92330206Y-106603200D02*
X87609191Y-106603200D01*
X102657974Y-97008400D02*
G75*
G02*
X102503200Y-96853550I26J154800D01*
G01*
X102812776Y-97163098D02*
G75*
G03*
X102657974Y-97008324I-154776J-2D01*
G01*
X98000000Y-96000000D02*
X98250000Y-95750000D01*
X98853553Y-95500000D02*
X100793330Y-95500000D01*
X84493688Y-107893688D02*
G75*
G02*
X87609191Y-106603200I3115512J-3115512D01*
G01*
X83203200Y-111009191D02*
X83203200Y-118018329D01*
X92330206Y-106603189D02*
G75*
G03*
X96177962Y-105009407I-6J5441589D01*
G01*
X101701215Y-99486144D02*
G75*
G03*
X102503200Y-97550000I-1936115J1936144D01*
G01*
X98853553Y-95500023D02*
G75*
G03*
X98250001Y-95750001I-53J-853477D01*
G01*
X102657974Y-97338548D02*
G75*
G03*
X102812748Y-97183750I26J154748D01*
G01*
X102090701Y-96003339D02*
G75*
G03*
X101592085Y-95796800I-498601J-498561D01*
G01*
X101509869Y-95796812D02*
G75*
G02*
X101151601Y-95648399I31J506712D01*
G01*
X101151591Y-95648409D02*
G75*
G03*
X100793330Y-95500000I-358291J-358291D01*
G01*
X83351608Y-118376591D02*
G75*
G02*
X83203200Y-118018329I358292J358291D01*
G01*
X102503200Y-97513950D02*
X102503200Y-97550000D01*
X83500013Y-118734868D02*
G75*
G03*
X83351600Y-118376599I-506713J-32D01*
G01*
X101509869Y-95796800D02*
X101592085Y-95796800D01*
X102090705Y-96003335D02*
X102193685Y-96106315D01*
X102812748Y-97163098D02*
X102812748Y-97183750D01*
X102503200Y-97493298D02*
X102503200Y-97513950D01*
X101701220Y-99486149D02*
X96177962Y-105009407D01*
X83500000Y-118734868D02*
X83500000Y-121750000D01*
X87203207Y-111714216D02*
G75*
G02*
X88143685Y-109443685I3210993J16D01*
G01*
X93130206Y-108503189D02*
G75*
G03*
X96977962Y-106909407I-6J5441589D01*
G01*
X87203200Y-111714216D02*
X87203200Y-118018329D01*
X102829463Y-101057894D02*
G75*
G03*
X104303200Y-97500000I-3557863J3557894D01*
G01*
X88143680Y-109443680D02*
G75*
G02*
X90414216Y-108503200I2270520J-2270520D01*
G01*
X87500000Y-118734868D02*
X87500000Y-121750000D01*
X104303209Y-97342818D02*
G75*
G02*
X104457909Y-97188109I154691J18D01*
G01*
X104457909Y-97188118D02*
G75*
G03*
X104612618Y-97033400I-9J154718D01*
G01*
X87351608Y-118376591D02*
G75*
G02*
X87203200Y-118018329I358292J358291D01*
G01*
X104612591Y-97012618D02*
G75*
G03*
X104457909Y-96857909I-154691J18D01*
G01*
X104457909Y-96857900D02*
G75*
G02*
X104303200Y-96703200I-9J154700D01*
G01*
X93130206Y-108503200D02*
X90414216Y-108503200D01*
X104303217Y-96560657D02*
G75*
G03*
X103493684Y-94606316I-2763917J-43D01*
G01*
X104303200Y-97342818D02*
X104303200Y-97363600D01*
X101709869Y-93796812D02*
G75*
G02*
X101351601Y-93648399I31J506712D01*
G01*
X103102840Y-94215464D02*
G75*
G03*
X102092085Y-93796800I-1010740J-1010736D01*
G01*
X101351591Y-93648409D02*
G75*
G03*
X100993330Y-93500000I-358291J-358291D01*
G01*
X98853553Y-93500023D02*
G75*
G03*
X98250001Y-93750001I-53J-853477D01*
G01*
X87500013Y-118734868D02*
G75*
G03*
X87351600Y-118376599I-506713J-32D01*
G01*
X98000000Y-94000000D02*
X98250000Y-93750000D01*
X98853553Y-93500000D02*
X100993330Y-93500000D01*
X101709869Y-93796800D02*
X102092085Y-93796800D01*
X103102837Y-94215467D02*
X103493685Y-94606315D01*
X104303200Y-96560657D02*
X104303200Y-96703200D01*
X102829469Y-101057900D02*
X96977962Y-106909407D01*
X104612618Y-97012618D02*
X104612618Y-97033400D01*
X104303200Y-97363600D02*
X104303200Y-97500000D01*
X91993690Y-111093690D02*
G75*
G02*
X93902084Y-110303200I1908410J-1908410D01*
G01*
X98853553Y-91500023D02*
G75*
G03*
X98250001Y-91750001I-53J-853477D01*
G01*
X94484170Y-110303167D02*
G75*
G03*
X97386251Y-109101118I30J4104167D01*
G01*
X104489865Y-93102431D02*
G75*
G02*
X104489833Y-92889801I106335J106331D01*
G01*
X104609415Y-101877970D02*
G75*
G03*
X106203200Y-98030206I-3847815J3847770D01*
G01*
X101909869Y-91796812D02*
G75*
G02*
X101551601Y-91648399I31J506712D01*
G01*
X103708900Y-92321536D02*
G75*
G03*
X102442085Y-91796800I-1266800J-1266764D01*
G01*
X91500000Y-118734868D02*
X91500000Y-121750000D01*
X104489863Y-92889831D02*
G75*
G03*
X104489833Y-92677139I-106363J106331D01*
G01*
X104510658Y-93123288D02*
X104693685Y-93306315D01*
X104256332Y-92656298D02*
G75*
G02*
X104043685Y-92656315I-106332J106298D01*
G01*
X106203197Y-96950606D02*
G75*
G03*
X104693685Y-93306315I-5153797J6D01*
G01*
X91203194Y-113002084D02*
G75*
G02*
X91993685Y-111093685I2698906J-16D01*
G01*
X106203200Y-96950606D02*
X106203200Y-98030206D01*
X101551591Y-91648409D02*
G75*
G03*
X101193330Y-91500000I-358291J-358291D01*
G01*
X91351608Y-118376591D02*
G75*
G02*
X91203200Y-118018329I358292J358291D01*
G01*
X104469008Y-92656316D02*
G75*
G03*
X104256348Y-92656316I-106330J-106333D01*
G01*
X104469009Y-92656315D02*
X104489833Y-92677139D01*
X91500013Y-118734868D02*
G75*
G03*
X91351600Y-118376599I-506713J-32D01*
G01*
X98000000Y-92000000D02*
X98250000Y-91750000D01*
X104609407Y-101877962D02*
X97386251Y-109101118D01*
X98853553Y-91500000D02*
X101193330Y-91500000D01*
X94484170Y-110303200D02*
X93902084Y-110303200D01*
X101909869Y-91796800D02*
X102442085Y-91796800D01*
X103708903Y-92321533D02*
X104043685Y-92656315D01*
X104256348Y-92656314D02*
X104256347Y-92656315D01*
X104489833Y-93102463D02*
X104510658Y-93123288D01*
X91203200Y-113002084D02*
X91203200Y-118018329D01*
X97203209Y-114838133D02*
G75*
G02*
X98796992Y-110990377I5441491J33D01*
G01*
X108303189Y-96469793D02*
G75*
G03*
X106709406Y-92622038I-5441589J-7D01*
G01*
X104727099Y-90639733D02*
G75*
G03*
X102692085Y-89796800I-2034999J-2034967D01*
G01*
X105696014Y-91389801D02*
X105696012Y-91389800D01*
X105696033Y-91389820D02*
G75*
G03*
X105696013Y-91170960I-109433J109420D01*
G01*
X98000000Y-90000000D02*
X98250000Y-89750000D01*
X105681368Y-91156315D02*
X105696013Y-91170960D01*
X105681319Y-91156360D02*
G75*
G03*
X105462526Y-91156314I-109419J-109340D01*
G01*
X105696034Y-91608619D02*
G75*
G02*
X105696013Y-91389802I109366J109419D01*
G01*
X98853553Y-89500023D02*
G75*
G03*
X98250001Y-89750001I-53J-853477D01*
G01*
X97351608Y-118376591D02*
G75*
G02*
X97203200Y-118018329I358292J358291D01*
G01*
X106709407Y-103077962D02*
X98796992Y-110990377D01*
X106709415Y-103077970D02*
G75*
G03*
X108303200Y-99230206I-3847815J3847770D01*
G01*
X101709869Y-89796812D02*
G75*
G02*
X101351601Y-89648399I31J506712D01*
G01*
X97500013Y-118734868D02*
G75*
G03*
X97351600Y-118376599I-506713J-32D01*
G01*
X101351591Y-89648409D02*
G75*
G03*
X100993330Y-89500000I-358291J-358291D01*
G01*
X105462521Y-91156309D02*
G75*
G02*
X105243685Y-91156315I-109421J109409D01*
G01*
X105696012Y-91389800D02*
X105696012Y-91389801D01*
X98853553Y-89500000D02*
X100993330Y-89500000D01*
X101709869Y-89796800D02*
X102692085Y-89796800D01*
X105696011Y-91608642D02*
X105696011Y-91608641D01*
X104727101Y-90639731D02*
X105243685Y-91156315D01*
X105681367Y-91156313D02*
X105681368Y-91156315D01*
X105696011Y-91608641D02*
X106709407Y-92622037D01*
X108303200Y-96469793D02*
X108303200Y-99230206D01*
X97203200Y-114838133D02*
X97203200Y-118018329D01*
X97500000Y-118734868D02*
X97500000Y-121750000D01*
X101500013Y-118734868D02*
G75*
G03*
X101351600Y-118376599I-506713J-32D01*
G01*
X106731357Y-89506315D02*
X106746006Y-89520964D01*
X101351608Y-118376591D02*
G75*
G02*
X101203200Y-118018329I358292J358291D01*
G01*
X110003189Y-95469793D02*
G75*
G03*
X108409406Y-91622038I-5441589J-7D01*
G01*
X101203200Y-114538133D02*
X101203200Y-118018329D01*
X106746027Y-89958618D02*
G75*
G02*
X106746007Y-89739802I109373J109418D01*
G01*
X106731357Y-89506315D02*
G75*
G03*
X106512521Y-89506315I-109418J-109419D01*
G01*
X108409415Y-105077970D02*
G75*
G03*
X110003200Y-101230206I-3847815J3847770D01*
G01*
X105709944Y-88922574D02*
X106293685Y-89506315D01*
X106512519Y-89506311D02*
G75*
G02*
X106293685Y-89506315I-109419J109411D01*
G01*
X101203209Y-114538133D02*
G75*
G02*
X102796992Y-110690377I5441491J33D01*
G01*
X101251591Y-87648409D02*
G75*
G03*
X100893330Y-87500000I-358291J-358291D01*
G01*
X105709945Y-88922573D02*
G75*
G03*
X102992085Y-87796800I-2717845J-2717827D01*
G01*
X110003200Y-95469793D02*
X110003200Y-101230206D01*
X106746024Y-89739818D02*
G75*
G03*
X106746006Y-89520964I-109424J109418D01*
G01*
X101609869Y-87796812D02*
G75*
G02*
X101251601Y-87648399I31J506712D01*
G01*
X98853553Y-87500023D02*
G75*
G03*
X98250001Y-87750001I-53J-853477D01*
G01*
X98000000Y-88000000D02*
X98250000Y-87750000D01*
X98853553Y-87500000D02*
X100893330Y-87500000D01*
X101609869Y-87796800D02*
X102992085Y-87796800D01*
X106512522Y-89506314D02*
X106512521Y-89506315D01*
X106746007Y-89739801D02*
X106746007Y-89739802D01*
X106746007Y-89958638D02*
X106760658Y-89973288D01*
X106760658Y-89973288D02*
X108409407Y-91622037D01*
X108409407Y-105077962D02*
X102796992Y-110690377D01*
X101500000Y-118734868D02*
X101500000Y-121750000D01*
X105500013Y-118734868D02*
G75*
G03*
X105351600Y-118376599I-506713J-32D01*
G01*
X105351608Y-118376591D02*
G75*
G02*
X105203200Y-118018329I358292J358291D01*
G01*
X111903189Y-94469793D02*
G75*
G03*
X110309406Y-90622038I-5441589J-7D01*
G01*
X101609869Y-85796812D02*
G75*
G02*
X101251601Y-85648399I31J506712D01*
G01*
X110309415Y-106377970D02*
G75*
G03*
X111903200Y-102530206I-3847815J3847770D01*
G01*
X105203200Y-113738133D02*
X105203200Y-118018329D01*
X108271046Y-88583624D02*
G75*
G02*
X108271021Y-88364801I109354J109424D01*
G01*
X106928143Y-87240771D02*
G75*
G03*
X103442085Y-85796800I-3486043J-3486029D01*
G01*
X108271046Y-88364824D02*
G75*
G03*
X108271020Y-88145950I-109446J109424D01*
G01*
X108271019Y-88583651D02*
X108271021Y-88583652D01*
X108256425Y-88131276D02*
G75*
G03*
X108037536Y-88131315I-109425J-109424D01*
G01*
X108037536Y-88131314D02*
X108037535Y-88131315D01*
X105203209Y-113738133D02*
G75*
G02*
X106796992Y-109890377I5441491J33D01*
G01*
X108037526Y-88131304D02*
G75*
G02*
X107818685Y-88131315I-109426J109404D01*
G01*
X108271021Y-88583652D02*
X110309407Y-90622037D01*
X110309407Y-106377962D02*
X106796992Y-109890377D01*
X101251591Y-85648409D02*
G75*
G03*
X100893330Y-85500000I-358291J-358291D01*
G01*
X98853553Y-85500023D02*
G75*
G03*
X98250001Y-85750001I-53J-853477D01*
G01*
X98000000Y-86000000D02*
X98250000Y-85750000D01*
X98853553Y-85500000D02*
X100893330Y-85500000D01*
X101609869Y-85796800D02*
X103442085Y-85796800D01*
X106928142Y-87240772D02*
X107818685Y-88131315D01*
X111903200Y-94469793D02*
X111903200Y-102530206D01*
X108037535Y-88131315D02*
X108037536Y-88131315D01*
X108256387Y-88131314D02*
X108256386Y-88131314D01*
X108256386Y-88131314D02*
X108271021Y-88145949D01*
X108271022Y-88364801D02*
X108271020Y-88364800D01*
X108271022Y-88364800D02*
X108271022Y-88364801D01*
X105500000Y-118734868D02*
X105500000Y-121750000D01*
X112109414Y-107377970D02*
G75*
G03*
X113703200Y-103530206I-3847814J3847770D01*
G01*
X109484470Y-86781360D02*
G75*
G02*
X109268685Y-86781315I-107870J107860D01*
G01*
X113703189Y-93469793D02*
G75*
G03*
X112109406Y-89622038I-5441589J-7D01*
G01*
X109717910Y-87230541D02*
X112109407Y-89622037D01*
X109717879Y-87230569D02*
G75*
G02*
X109717909Y-87014801I107921J107869D01*
G01*
X109484424Y-86781314D02*
X109484425Y-86781316D01*
X109500013Y-118734868D02*
G75*
G03*
X109351600Y-118376599I-506713J-32D01*
G01*
X101609869Y-83796812D02*
G75*
G02*
X101251601Y-83648399I31J506712D01*
G01*
X109717878Y-87014768D02*
G75*
G03*
X109717908Y-86799062I-107878J107868D01*
G01*
X109351608Y-118376591D02*
G75*
G02*
X109203200Y-118018329I358292J358291D01*
G01*
X109700163Y-86781316D02*
G75*
G03*
X109484425Y-86781316I-107869J-107868D01*
G01*
X107877969Y-85390585D02*
G75*
G03*
X104030206Y-83796800I-3847769J-3847815D01*
G01*
X109203209Y-112538133D02*
G75*
G02*
X110796992Y-108690377I5441491J33D01*
G01*
X112109406Y-107377962D02*
X110796992Y-108690377D01*
X101251591Y-83648409D02*
G75*
G03*
X100893330Y-83500000I-358291J-358291D01*
G01*
X113703200Y-93469793D02*
X113703200Y-103530206D01*
X98853553Y-83500023D02*
G75*
G03*
X98250001Y-83750001I-53J-853477D01*
G01*
X98000000Y-84000000D02*
X98250000Y-83750000D01*
X109203200Y-112538133D02*
X109203200Y-118018329D01*
X98853553Y-83500000D02*
X100893330Y-83500000D01*
X101609869Y-83796800D02*
X104030206Y-83796800D01*
X107877962Y-85390592D02*
X109268685Y-86781315D01*
X109717910Y-87014800D02*
X109717909Y-87014801D01*
X109717909Y-87230539D02*
X109717910Y-87230541D01*
X109700163Y-86781316D02*
X109700163Y-86781315D01*
X109700163Y-86781315D02*
X109717909Y-86799061D01*
X109500000Y-118734868D02*
X109500000Y-121750000D01*
X77648392Y-118376591D02*
G75*
G03*
X77796800Y-118018329I-358292J358291D01*
G01*
X79356310Y-105656310D02*
G75*
G02*
X83121317Y-104096800I3764990J-3764990D01*
G01*
X89161866Y-104096760D02*
G75*
G03*
X93009622Y-102503006I34J5441560D01*
G01*
X94500023Y-97853553D02*
G75*
G02*
X94750001Y-97250001I853477J53D01*
G01*
X94648409Y-98851591D02*
G75*
G02*
X94500000Y-98493330I358291J358291D01*
G01*
X77796808Y-109421317D02*
G75*
G02*
X79356316Y-105656316I5324492J17D01*
G01*
X94190157Y-101322462D02*
G75*
G03*
X94796800Y-99857915I-1464557J1464562D01*
G01*
X94796812Y-99209869D02*
G75*
G03*
X94648399Y-98851601I-506712J-31D01*
G01*
X77499987Y-118734868D02*
G75*
G02*
X77648400Y-118376599I506713J-32D01*
G01*
X89330206Y-104503188D02*
G75*
G03*
X93177962Y-102909406I-6J5441588D01*
G01*
X78351608Y-118376591D02*
G75*
G02*
X78203200Y-118018329I358292J358291D01*
G01*
X95499989Y-98604525D02*
G75*
G03*
X95496800Y-98596800I-10889J25D01*
G01*
X95496793Y-98596807D02*
G75*
G02*
X95493600Y-98589074I7707J7707D01*
G01*
X78203210Y-109421323D02*
G75*
G02*
X79643685Y-105943685I4918090J23D01*
G01*
X95203186Y-99209869D02*
G75*
G02*
X95351599Y-98851599I506714J-31D01*
G01*
X95463519Y-98739692D02*
G75*
G03*
X95500000Y-98651600I-88119J88092D01*
G01*
X78500013Y-118734868D02*
G75*
G03*
X78351600Y-118376599I-506713J-32D01*
G01*
X95493592Y-97864478D02*
G75*
G02*
X95746801Y-97253201I864508J-22D01*
G01*
X79643678Y-105943678D02*
G75*
G02*
X83121323Y-104503200I3477622J-3477622D01*
G01*
X94537054Y-101550333D02*
G75*
G03*
X95203200Y-99942085I-1608254J1608233D01*
G01*
X97853553Y-96500019D02*
G75*
G02*
X97250000Y-96250000I47J853619D01*
G01*
X82499987Y-118734868D02*
G75*
G02*
X82648400Y-118376599I506713J-32D01*
G01*
X82796794Y-111009185D02*
G75*
G02*
X84206315Y-107606315I4812406J-15D01*
G01*
X102096818Y-96853556D02*
G75*
G03*
X101906315Y-96393685I-650418J-44D01*
G01*
X101413851Y-99198770D02*
G75*
G03*
X102096800Y-97550000I-1648751J1648770D01*
G01*
X82648392Y-118376591D02*
G75*
G03*
X82796800Y-118018329I-358292J358291D01*
G01*
X101507915Y-96203175D02*
G75*
G02*
X101862848Y-96350218I-15J-501925D01*
G01*
X101152985Y-96350222D02*
G75*
G02*
X101507915Y-96203200I354915J-354878D01*
G01*
X100793330Y-96500012D02*
G75*
G03*
X101151599Y-96351599I-30J506712D01*
G01*
X84206319Y-107606319D02*
G75*
G02*
X87609185Y-106196800I3402881J-3402881D01*
G01*
X92161866Y-106196760D02*
G75*
G03*
X96009621Y-104603006I34J5441560D01*
G01*
X86648392Y-118376591D02*
G75*
G03*
X86796800Y-118018329I-358292J358291D01*
G01*
X100993330Y-94500012D02*
G75*
G03*
X101351599Y-94351599I-30J506712D01*
G01*
X87856312Y-109156312D02*
G75*
G02*
X90414210Y-108096800I2557888J-2557888D01*
G01*
X86499987Y-118734868D02*
G75*
G02*
X86648400Y-118376599I506713J-32D01*
G01*
X102542099Y-100770522D02*
G75*
G03*
X103896800Y-97500000I-3270499J3270522D01*
G01*
X92961866Y-108096760D02*
G75*
G03*
X96809621Y-106503006I34J5441560D01*
G01*
X101351609Y-94351609D02*
G75*
G02*
X101709869Y-94203200I358291J-358291D01*
G01*
X102007915Y-94203185D02*
G75*
G02*
X102874980Y-94562350I-15J-1226215D01*
G01*
X97853553Y-94500019D02*
G75*
G02*
X97250000Y-94250000I47J853619D01*
G01*
X103896815Y-96560663D02*
G75*
G03*
X103206315Y-94893685I-2357515J-37D01*
G01*
X86796805Y-111714210D02*
G75*
G02*
X87856315Y-109156315I3617395J10D01*
G01*
X102357915Y-92203176D02*
G75*
G02*
X103481046Y-92668416I-15J-1588324D01*
G01*
X101193330Y-92500012D02*
G75*
G03*
X101551599Y-92351599I-30J506712D01*
G01*
X104203035Y-101709650D02*
G75*
G03*
X105796800Y-97861866I-3847835J3847750D01*
G01*
X101551609Y-92351609D02*
G75*
G02*
X101909869Y-92203200I358291J-358291D01*
G01*
X90499987Y-118734868D02*
G75*
G02*
X90648400Y-118376599I506713J-32D01*
G01*
X94315830Y-109896809D02*
G75*
G03*
X97217911Y-108694718I-30J4104209D01*
G01*
X105796794Y-96950612D02*
G75*
G03*
X104406314Y-93593686I-4747394J12D01*
G01*
X91706321Y-110806321D02*
G75*
G02*
X93902078Y-109896800I2195779J-2195779D01*
G01*
X97853553Y-92500019D02*
G75*
G02*
X97250000Y-92250000I47J853619D01*
G01*
X90648392Y-118376591D02*
G75*
G03*
X90796800Y-118018329I-358292J358291D01*
G01*
X90796792Y-113002078D02*
G75*
G02*
X91706316Y-110806316I3105308J-22D01*
G01*
X100993330Y-90500012D02*
G75*
G03*
X101351599Y-90351599I-30J506712D01*
G01*
X106303035Y-102909650D02*
G75*
G03*
X107896800Y-99061866I-3847835J3847750D01*
G01*
X97853553Y-90500019D02*
G75*
G02*
X97250000Y-90250000I47J853619D01*
G01*
X101351609Y-90351609D02*
G75*
G02*
X101709869Y-90203200I358291J-358291D01*
G01*
X96648392Y-118376591D02*
G75*
G03*
X96796800Y-118018329I-358292J358291D01*
G01*
X96499987Y-118734868D02*
G75*
G02*
X96648400Y-118376599I506713J-32D01*
G01*
X107896761Y-96638133D02*
G75*
G03*
X106303007Y-92790377I-5441561J33D01*
G01*
X96796781Y-114669793D02*
G75*
G02*
X98390593Y-110822038I5441519J-7D01*
G01*
X102607915Y-90203177D02*
G75*
G02*
X104499244Y-90986614I-15J-2674723D01*
G01*
X108003035Y-104909650D02*
G75*
G03*
X109596800Y-101061866I-3847835J3847750D01*
G01*
X100499987Y-118734868D02*
G75*
G02*
X100648400Y-118376599I506713J-32D01*
G01*
X100796781Y-114369793D02*
G75*
G02*
X102390593Y-110522038I5441519J-7D01*
G01*
X100648392Y-118376591D02*
G75*
G03*
X100796800Y-118018329I-358292J358291D01*
G01*
X97853553Y-88500019D02*
G75*
G02*
X97250000Y-88250000I47J853619D01*
G01*
X102907915Y-88203181D02*
G75*
G02*
X105482086Y-89269456I-15J-3640419D01*
G01*
X109596761Y-95638133D02*
G75*
G03*
X108003007Y-91790377I-5441561J33D01*
G01*
X101251609Y-88351609D02*
G75*
G02*
X101609869Y-88203200I358291J-358291D01*
G01*
X100893330Y-88500012D02*
G75*
G03*
X101251599Y-88351599I-30J506712D01*
G01*
X109903035Y-106209650D02*
G75*
G03*
X111496800Y-102361866I-3847835J3847750D01*
G01*
X97853553Y-86500019D02*
G75*
G02*
X97250000Y-86250000I47J853619D01*
G01*
X111496761Y-94638133D02*
G75*
G03*
X109903007Y-90790377I-5441561J33D01*
G01*
X103357915Y-86203183D02*
G75*
G02*
X106700283Y-87587655I-15J-4726817D01*
G01*
X104499987Y-118734868D02*
G75*
G02*
X104648400Y-118376599I506713J-32D01*
G01*
X100893330Y-86500012D02*
G75*
G03*
X101251599Y-86351599I-30J506712D01*
G01*
X104648392Y-118376591D02*
G75*
G03*
X104796800Y-118018329I-358292J358291D01*
G01*
X104796781Y-113569793D02*
G75*
G02*
X106390593Y-109722038I5441519J-7D01*
G01*
X101251609Y-86351609D02*
G75*
G02*
X101609869Y-86203200I358291J-358291D01*
G01*
X97853553Y-84500019D02*
G75*
G02*
X97250000Y-84250000I47J853619D01*
G01*
X103861866Y-84203239D02*
G75*
G02*
X107709622Y-85796992I34J-5441561D01*
G01*
X111703034Y-107209650D02*
G75*
G03*
X113296800Y-103361866I-3847834J3847750D01*
G01*
X108796781Y-112369793D02*
G75*
G02*
X110390593Y-108522038I5441519J-7D01*
G01*
X113296761Y-93638133D02*
G75*
G03*
X111703007Y-89790377I-5441561J33D01*
G01*
X108499987Y-118734868D02*
G75*
G02*
X108648400Y-118376599I506713J-32D01*
G01*
X100893330Y-84500012D02*
G75*
G03*
X101251599Y-84351599I-30J506712D01*
G01*
X101251609Y-84351609D02*
G75*
G02*
X101609869Y-84203200I358291J-358291D01*
G01*
X108648392Y-118376591D02*
G75*
G03*
X108796800Y-118018329I-358292J358291D01*
G01*
D45*
X62500000Y-121750000D02*
X62500000Y-119100000D01*
D46*
X50000000Y-102287500D02*
X50000000Y-103250000D01*
X55290000Y-106000000D02*
X54500000Y-106000000D01*
D45*
X64500000Y-121750000D02*
X64500000Y-119100000D01*
D46*
X51000000Y-84037500D02*
X49250000Y-84037500D01*
X50000000Y-104462500D02*
X50000000Y-103250000D01*
X55000000Y-102750000D02*
X55750000Y-102750000D01*
D45*
X63500000Y-121750000D02*
X63500000Y-119100000D01*
D46*
X59710000Y-103800000D02*
X60500000Y-103800000D01*
X49250000Y-86000000D02*
X49250000Y-84037500D01*
D45*
X84500000Y-121750000D02*
X84500000Y-119600000D01*
X103500000Y-119600000D02*
X103000000Y-119100000D01*
D46*
X95000000Y-78000000D02*
X94500000Y-78500000D01*
D45*
X54450000Y-96850000D02*
X54500000Y-96900000D01*
X88500000Y-119600000D02*
X89000000Y-119100000D01*
X79500000Y-121750000D02*
X79500000Y-119600000D01*
X89500000Y-119600000D02*
X89000000Y-119100000D01*
X106500000Y-121750000D02*
X106500000Y-119600000D01*
X71400000Y-97480000D02*
X72280000Y-97480000D01*
X96000000Y-86000000D02*
X95500000Y-85500000D01*
D46*
X54500001Y-99299999D02*
X54500001Y-98499999D01*
D45*
X84500000Y-119600000D02*
X85000000Y-119100000D01*
X68500000Y-121750000D02*
X68500000Y-119100000D01*
D46*
X54500001Y-98499999D02*
X54500001Y-98049999D01*
D45*
X76500000Y-119600000D02*
X77000000Y-119100000D01*
X102500000Y-121750000D02*
X102500000Y-119600000D01*
X65500000Y-121750000D02*
X65500000Y-119100000D01*
X65595000Y-89400000D02*
X65595000Y-90695000D01*
X76500000Y-121750000D02*
X76500000Y-119600000D01*
X113400000Y-73800000D02*
X113800000Y-74200000D01*
D46*
X49250000Y-78240000D02*
X49250000Y-77250000D01*
X93000000Y-94000000D02*
X94000000Y-94000000D01*
X50950000Y-110550000D02*
X51000000Y-110500000D01*
D45*
X69420000Y-101400000D02*
X69075001Y-101744999D01*
X53200002Y-95800001D02*
X53200001Y-95800001D01*
X83000000Y-59410000D02*
X83000000Y-60250000D01*
X54000001Y-95800001D02*
X54200000Y-96000000D01*
X110500000Y-119600000D02*
X111000000Y-119100000D01*
X79500000Y-119600000D02*
X80000000Y-119100000D01*
X95000000Y-59410000D02*
X95000000Y-58590000D01*
X99500000Y-119600000D02*
X99000000Y-119100000D01*
X102500000Y-119600000D02*
X103000000Y-119100000D01*
X95000000Y-58590000D02*
X95000000Y-57750000D01*
D46*
X54500001Y-99989999D02*
X54500001Y-99299999D01*
X96000000Y-85000000D02*
X96000000Y-84000000D01*
D45*
X54500000Y-96900000D02*
X54500001Y-98049999D01*
D46*
X99000000Y-83000000D02*
X100000000Y-83000000D01*
D45*
X95000000Y-59410000D02*
X95000000Y-60250000D01*
X95500000Y-121750000D02*
X95500000Y-119100000D01*
X54300000Y-96700000D02*
X54450000Y-96850000D01*
D46*
X57580000Y-101680000D02*
X57600000Y-101700000D01*
X54490000Y-100000000D02*
X54500001Y-99989999D01*
D45*
X110500000Y-121750000D02*
X110500000Y-119600000D01*
X92500000Y-121750000D02*
X92500000Y-119600000D01*
D46*
X113400000Y-77800000D02*
X114200000Y-77800000D01*
D45*
X99500000Y-121750000D02*
X99500000Y-119600000D01*
X112500000Y-121750000D02*
X112500000Y-119100000D01*
X72280000Y-97480000D02*
X72300000Y-97500000D01*
X107500000Y-121750000D02*
X107500000Y-119600000D01*
X53200001Y-95800001D02*
X54000001Y-95800001D01*
X83000000Y-58590000D02*
X83000000Y-57750000D01*
X65595000Y-90695000D02*
X65600000Y-90700000D01*
X83000000Y-59410000D02*
X83000000Y-58590000D01*
X112600000Y-76200000D02*
X113000000Y-75800000D01*
X54300000Y-89220000D02*
X54300000Y-88300000D01*
D46*
X58310000Y-106000000D02*
X59100000Y-106000000D01*
X56900000Y-101680000D02*
X57580000Y-101680000D01*
D45*
X106500000Y-119600000D02*
X107000000Y-119100000D01*
X54200000Y-96000000D02*
X54300000Y-96100000D01*
X89500000Y-121750000D02*
X89500000Y-119600000D01*
X100480000Y-67500000D02*
X101250000Y-67500000D01*
X90000000Y-89000000D02*
X90500000Y-89500000D01*
X92500000Y-119600000D02*
X93000000Y-119100000D01*
X107500000Y-119600000D02*
X107000000Y-119100000D01*
X88500000Y-121750000D02*
X88500000Y-119600000D01*
X81500000Y-121750000D02*
X81500000Y-119100000D01*
X113400000Y-75400000D02*
X113000000Y-75800000D01*
D46*
X50950000Y-111937500D02*
X50950000Y-110550000D01*
X56390000Y-103800000D02*
X55600000Y-103800000D01*
D45*
X103500000Y-121750000D02*
X103500000Y-119600000D01*
X85500000Y-121750000D02*
X85500000Y-119600000D01*
X98500000Y-119600000D02*
X99000000Y-119100000D01*
X54300000Y-96100000D02*
X54300000Y-96700000D01*
X117480000Y-81000000D02*
X118250000Y-81000000D01*
X98500000Y-121750000D02*
X98500000Y-119600000D01*
D46*
X51990000Y-102750000D02*
X51250000Y-102750000D01*
D45*
X69075001Y-101744999D02*
X69075001Y-103015500D01*
X85500000Y-119600000D02*
X85000000Y-119100000D01*
X96000000Y-76000000D02*
X96500000Y-76500000D01*
X99520000Y-67500000D02*
X98750000Y-67500000D01*
X116520000Y-81000000D02*
X115750000Y-81000000D01*
X87000000Y-79000000D02*
X86500000Y-78500000D01*
X95000000Y-86000000D02*
X94500000Y-85500000D01*
X114200000Y-73000000D02*
X114200000Y-72300000D01*
D44*
X103861866Y-84203200D02*
X101609869Y-84203200D01*
X113296800Y-103361866D02*
X113296800Y-93638133D01*
X97853553Y-84500000D02*
X100893330Y-84500000D01*
X108500000Y-118734868D02*
X108500000Y-121750000D01*
X108796800Y-112369793D02*
X108796800Y-118018329D01*
X111703006Y-107209622D02*
X110390592Y-108522037D01*
X107709622Y-85796992D02*
X111703007Y-89790377D01*
X97250000Y-84250000D02*
X97000000Y-84000000D01*
X103357915Y-86203200D02*
X101609869Y-86203200D01*
X109903007Y-90790377D02*
X106700284Y-87587654D01*
X97250000Y-86250000D02*
X97000000Y-86000000D01*
X111496800Y-102361866D02*
X111496800Y-94638133D01*
X109903007Y-106209622D02*
X106390592Y-109722037D01*
X97853553Y-86500000D02*
X100893330Y-86500000D01*
X104796800Y-118018329D02*
X104796800Y-113569793D01*
X104500000Y-118734868D02*
X104500000Y-121750000D01*
X105482086Y-89269456D02*
X108003007Y-91790377D01*
X108003007Y-104909622D02*
X102390592Y-110522037D01*
X100500000Y-118734868D02*
X100500000Y-121750000D01*
X97853553Y-88500000D02*
X100893330Y-88500000D01*
X109596800Y-101061866D02*
X109596800Y-95638133D01*
X97250000Y-88250000D02*
X97000000Y-88000000D01*
X102907915Y-88203200D02*
X101609869Y-88203200D01*
X100796800Y-114369793D02*
X100796800Y-118018329D01*
X106303007Y-102909622D02*
X98390592Y-110822037D01*
X101709869Y-90203200D02*
X102607915Y-90203200D01*
X96500000Y-118734868D02*
X96500000Y-121750000D01*
X96796800Y-118018329D02*
X96796800Y-114669793D01*
X106303007Y-92790377D02*
X104499244Y-90986614D01*
X107896800Y-99061866D02*
X107896800Y-96638133D01*
X97250000Y-90250000D02*
X97000000Y-90000000D01*
X100993330Y-90500000D02*
X97853553Y-90500000D01*
X103481046Y-92668416D02*
X104406315Y-93593685D01*
X105796800Y-97861866D02*
X105796800Y-96950612D01*
X90500000Y-118734868D02*
X90500000Y-121750000D01*
X97250000Y-92250000D02*
X97000000Y-92000000D01*
X90796800Y-118018329D02*
X90796800Y-113002078D01*
X102357915Y-92203200D02*
X101909869Y-92203200D01*
X94315830Y-109896800D02*
X93902078Y-109896800D01*
X104203007Y-101709622D02*
X97217911Y-108694718D01*
X101193330Y-92500000D02*
X97853553Y-92500000D01*
X102542103Y-100770526D02*
X96809622Y-106503007D01*
X86500000Y-118734868D02*
X86500000Y-121750000D01*
X97250000Y-94250000D02*
X97000000Y-94000000D01*
X90414210Y-108096800D02*
X92961866Y-108096800D01*
X86796800Y-118018329D02*
X86796800Y-111714210D01*
X102874980Y-94562350D02*
X103206315Y-94893685D01*
X103896800Y-97500000D02*
X103896800Y-96560663D01*
X100993330Y-94500000D02*
X97853553Y-94500000D01*
X101709869Y-94203200D02*
X102007915Y-94203200D01*
X97853553Y-96500000D02*
X100793330Y-96500000D01*
X82500000Y-118734868D02*
X82500000Y-121750000D01*
X101906315Y-96393685D02*
X101862848Y-96350218D01*
X97250000Y-96250000D02*
X97000000Y-96000000D01*
X82796800Y-111009185D02*
X82796800Y-118018329D01*
X102096800Y-96853556D02*
X102096800Y-97550000D01*
X101152981Y-96350218D02*
X101151600Y-96351600D01*
X87609185Y-106196800D02*
X92161866Y-106196800D01*
X101413855Y-99198774D02*
X96009622Y-104603007D01*
X95500000Y-98604525D02*
X95500000Y-98651600D01*
X93177962Y-102909406D02*
X94537045Y-101550324D01*
X78500000Y-118734868D02*
X78500000Y-121750000D01*
X95351599Y-98851599D02*
X95463513Y-98739686D01*
X89330206Y-104503200D02*
X83121323Y-104503200D01*
X78203200Y-118018329D02*
X78203200Y-109421323D01*
X95203200Y-99209869D02*
X95203200Y-99942085D01*
X95746800Y-97253200D02*
X96000000Y-97000000D01*
X95493600Y-98589074D02*
X95493600Y-97864478D01*
X94796800Y-99857915D02*
X94796800Y-99209869D01*
X77796800Y-118018329D02*
X77796800Y-109421317D01*
X94750000Y-97250000D02*
X95000000Y-97000000D01*
X94500000Y-97853553D02*
X94500000Y-98493330D01*
X93009622Y-102503006D02*
X94190162Y-101322467D01*
X83121317Y-104096800D02*
X89161866Y-104096800D01*
X77500000Y-118734868D02*
X77500000Y-121750000D01*
D47*
X69500000Y-121750000D02*
X69500000Y-119250000D01*
X70000000Y-118750000D02*
X71000000Y-118750000D01*
X69500000Y-119250000D02*
X70000000Y-118750000D01*
D48*
X111500000Y-116800000D02*
X113000000Y-115300000D01*
X111500000Y-121200000D02*
X111500000Y-116800000D01*
X113000000Y-115300000D02*
X113000000Y-114000000D01*
D46*
X70490000Y-83010000D02*
X70500000Y-83000000D01*
D45*
X71400000Y-96520000D02*
X70520000Y-96520000D01*
D46*
X60000000Y-74490000D02*
X60000000Y-73750000D01*
X72000000Y-92990000D02*
X71310000Y-92990000D01*
X60000000Y-80510000D02*
X60000000Y-81250000D01*
X71310000Y-92990000D02*
X71300000Y-93000000D01*
D49*
X91000000Y-91000000D02*
X91500000Y-90500000D01*
D45*
X70520000Y-96520000D02*
X70500000Y-96500000D01*
D46*
X69405000Y-96600000D02*
X69505000Y-96500000D01*
X70490000Y-85500000D02*
X70490000Y-84000000D01*
D49*
X91500000Y-90500000D02*
X92500000Y-90500000D01*
D46*
X70490000Y-84000000D02*
X70490000Y-83010000D01*
D45*
X69505000Y-96500000D02*
X70500000Y-96500000D01*
D46*
X70490000Y-87000000D02*
X70490000Y-85500000D01*
X96000000Y-83000000D02*
X95000000Y-83000000D01*
X90000000Y-85000000D02*
X90000000Y-84000000D01*
X90000000Y-87000000D02*
X90000000Y-86000000D01*
X89000000Y-86000000D02*
X90000000Y-86000000D01*
X89000000Y-86000000D02*
X89000000Y-85000000D01*
X90000000Y-84000000D02*
X89000000Y-84000000D01*
X89000000Y-85000000D02*
X89000000Y-84000000D01*
X90000000Y-86000000D02*
X90000000Y-85000000D01*
X89000000Y-85000000D02*
X90000000Y-85000000D01*
X97500000Y-73200000D02*
X97500000Y-71600000D01*
X111200000Y-70800000D02*
X112000000Y-71600000D01*
X98300000Y-70800000D02*
X102200000Y-70800000D01*
X102905991Y-70995983D02*
X102964009Y-70995983D01*
X102551991Y-70800000D02*
X102554000Y-70800000D01*
X104078000Y-70897992D02*
X104078000Y-70677008D01*
X97500000Y-71600000D02*
X98300000Y-70800000D01*
X103921991Y-70995983D02*
X103980009Y-70995983D01*
X103184991Y-70554017D02*
X103193009Y-70554017D01*
X102554000Y-70800000D02*
X102554000Y-70677008D01*
X104332000Y-70677008D02*
X104332000Y-70897992D01*
X103824000Y-70677008D02*
X103824000Y-70897992D01*
X96000000Y-74000000D02*
X96500000Y-73500000D01*
X102551991Y-70897992D02*
X102551991Y-70800000D01*
X102395982Y-70995983D02*
X102454000Y-70995983D01*
X104429991Y-70995983D02*
X104488009Y-70995983D01*
X103062000Y-70897992D02*
X103062000Y-70677008D01*
X103570000Y-70897992D02*
X103570000Y-70677008D01*
X103692991Y-70554017D02*
X103701009Y-70554017D01*
X103316000Y-70677008D02*
X103316000Y-70897992D01*
X104962991Y-70800000D02*
X111200000Y-70800000D01*
X102808000Y-70677008D02*
X102808000Y-70897992D01*
X112957800Y-74157800D02*
X113400000Y-74600000D01*
X112000000Y-74000000D02*
X112157800Y-74157800D01*
X103413991Y-70995983D02*
X103472009Y-70995983D01*
X104586000Y-70897992D02*
X104586000Y-70677008D01*
X104200991Y-70554017D02*
X104209009Y-70554017D01*
X104708991Y-70554017D02*
X104717009Y-70554017D01*
X102676991Y-70554017D02*
X102685009Y-70554017D01*
X104840000Y-70677008D02*
X104840000Y-70677009D01*
X112000000Y-71600000D02*
X112000000Y-74000000D01*
X112157800Y-74157800D02*
X112957800Y-74157800D01*
X102297991Y-70897991D02*
X102297991Y-70897992D01*
X96500000Y-73500000D02*
X97200000Y-73500000D01*
X97200000Y-73500000D02*
X97500000Y-73200000D01*
X103061983Y-70897992D02*
G75*
G02*
X102964009Y-70995983I-97983J-8D01*
G01*
X104962991Y-70800000D02*
G75*
G02*
X104840000Y-70677009I9J123000D01*
G01*
X104429991Y-70996000D02*
G75*
G02*
X104332000Y-70897992I9J98000D01*
G01*
X103315983Y-70677008D02*
G75*
G03*
X103193009Y-70554017I-122983J8D01*
G01*
X103413991Y-70996000D02*
G75*
G02*
X103316000Y-70897992I9J98000D01*
G01*
X102395982Y-70996009D02*
G75*
G02*
X102297991Y-70897992I18J98009D01*
G01*
X103921991Y-70996000D02*
G75*
G02*
X103824000Y-70897992I9J98000D01*
G01*
X103184991Y-70554000D02*
G75*
G03*
X103062000Y-70677008I9J-123000D01*
G01*
X104839983Y-70677008D02*
G75*
G03*
X104717009Y-70554017I-122983J8D01*
G01*
X103569983Y-70897992D02*
G75*
G02*
X103472009Y-70995983I-97983J-8D01*
G01*
X104077983Y-70897992D02*
G75*
G02*
X103980009Y-70995983I-97983J-8D01*
G01*
X102298000Y-70897991D02*
G75*
G03*
X102200000Y-70800000I-98000J-9D01*
G01*
X102905991Y-70996000D02*
G75*
G02*
X102808000Y-70897992I9J98000D01*
G01*
X104708991Y-70554000D02*
G75*
G03*
X104586000Y-70677008I9J-123000D01*
G01*
X102676991Y-70554000D02*
G75*
G03*
X102554000Y-70677008I9J-123000D01*
G01*
X102551983Y-70897992D02*
G75*
G02*
X102454000Y-70995983I-97983J-8D01*
G01*
X104200991Y-70554000D02*
G75*
G03*
X104078000Y-70677008I9J-123000D01*
G01*
X104331983Y-70677008D02*
G75*
G03*
X104209009Y-70554017I-122983J8D01*
G01*
X103823983Y-70677008D02*
G75*
G03*
X103701009Y-70554017I-122983J8D01*
G01*
X102807983Y-70677008D02*
G75*
G03*
X102685009Y-70554017I-122983J8D01*
G01*
X104585983Y-70897992D02*
G75*
G02*
X104488009Y-70995983I-97983J-8D01*
G01*
X103692991Y-70554000D02*
G75*
G03*
X103570000Y-70677008I9J-123000D01*
G01*
X104796000Y-79700000D02*
X104900000Y-79700000D01*
X103197000Y-80473000D02*
X103197000Y-79850000D01*
X105737000Y-80473000D02*
X105737000Y-79850000D01*
X105229000Y-80473000D02*
X105229000Y-79850000D01*
X105304000Y-79700000D02*
X105408000Y-79700000D01*
X103705000Y-80473000D02*
X103705000Y-79850000D01*
X102689000Y-79850000D02*
X102689000Y-79775000D01*
X103197000Y-79850000D02*
X103197000Y-79775000D01*
X105483000Y-79775000D02*
X105483000Y-79850000D01*
X106372000Y-79850000D02*
X106650000Y-79850000D01*
X102181000Y-79977000D02*
X102181000Y-79775000D01*
X103705000Y-79850000D02*
X103705000Y-79775000D01*
X105483000Y-79850000D02*
X105483000Y-80473000D01*
X104213000Y-80473000D02*
X104213000Y-79850000D01*
X102256000Y-79700000D02*
X102360000Y-79700000D01*
X106245000Y-80473000D02*
X106245000Y-79977000D01*
X104467000Y-79775000D02*
X104467000Y-79850000D01*
X102943000Y-79850000D02*
X102943000Y-80473000D01*
X105812000Y-79700000D02*
X105916000Y-79700000D01*
X105229000Y-79850000D02*
X105229000Y-79775000D01*
X104721000Y-80473000D02*
X104721000Y-79850000D01*
X103959000Y-79850000D02*
X103959000Y-80473000D01*
X103451000Y-79775000D02*
X103451000Y-79850000D01*
X99500000Y-78500000D02*
X100250000Y-78500000D01*
X102181000Y-80473000D02*
X102181000Y-79977000D01*
X101600000Y-79850000D02*
X101800000Y-79850000D01*
X105737000Y-79850000D02*
X105737000Y-79775000D01*
X108150000Y-78250000D02*
X108600000Y-77800000D01*
X103959000Y-79775000D02*
X103959000Y-79850000D01*
X102689000Y-80473000D02*
X102689000Y-79850000D01*
X103451000Y-79850000D02*
X103451000Y-80473000D01*
X104721000Y-79850000D02*
X104721000Y-79775000D01*
X104975000Y-79850000D02*
X104975000Y-80473000D01*
X102435000Y-79775000D02*
X102435000Y-79850000D01*
X104975000Y-79775000D02*
X104975000Y-79850000D01*
X107500000Y-78250000D02*
X108150000Y-78250000D01*
X102764000Y-79700000D02*
X102868000Y-79700000D01*
X103780000Y-79700000D02*
X103884000Y-79700000D01*
X104213000Y-79850000D02*
X104213000Y-79775000D01*
X104467000Y-79850000D02*
X104467000Y-80473000D01*
X103272000Y-79700000D02*
X103376000Y-79700000D01*
X105991000Y-79775000D02*
X105991000Y-79850000D01*
X102943000Y-79775000D02*
X102943000Y-79850000D01*
X106650000Y-79850000D02*
X107050000Y-79450000D01*
X104288000Y-79700000D02*
X104392000Y-79700000D01*
X100250000Y-78500000D02*
X101600000Y-79850000D01*
X99000000Y-78000000D02*
X99500000Y-78500000D01*
X102435000Y-79850000D02*
X102435000Y-80473000D01*
X105991000Y-79850000D02*
X105991000Y-80473000D01*
X107050000Y-78700000D02*
X107500000Y-78250000D01*
X101927000Y-79977000D02*
X101927000Y-80473000D01*
X107050000Y-79450000D02*
X107050000Y-78700000D01*
X102181000Y-80473000D02*
G75*
G02*
X102054000Y-80600000I-127000J0D01*
G01*
X105991000Y-79775000D02*
G75*
G03*
X105916000Y-79700000I-75000J0D01*
G01*
X105812000Y-79700000D02*
G75*
G03*
X105737000Y-79775000I0J-75000D01*
G01*
X105483000Y-79775000D02*
G75*
G03*
X105408000Y-79700000I-75000J0D01*
G01*
X103959000Y-79775000D02*
G75*
G03*
X103884000Y-79700000I-75000J0D01*
G01*
X102256000Y-79700000D02*
G75*
G03*
X102181000Y-79775000I0J-75000D01*
G01*
X102054000Y-80600000D02*
G75*
G02*
X101927000Y-80473000I0J127000D01*
G01*
X103705000Y-80473000D02*
G75*
G02*
X103578000Y-80600000I-127000J0D01*
G01*
X104213000Y-80473000D02*
G75*
G02*
X104086000Y-80600000I-127000J0D01*
G01*
X102435000Y-79775000D02*
G75*
G03*
X102360000Y-79700000I-75000J0D01*
G01*
X102764000Y-79700000D02*
G75*
G03*
X102689000Y-79775000I0J-75000D01*
G01*
X103451000Y-79775000D02*
G75*
G03*
X103376000Y-79700000I-75000J0D01*
G01*
X103780000Y-79700000D02*
G75*
G03*
X103705000Y-79775000I0J-75000D01*
G01*
X104467000Y-79775000D02*
G75*
G03*
X104392000Y-79700000I-75000J0D01*
G01*
X104288000Y-79700000D02*
G75*
G03*
X104213000Y-79775000I0J-75000D01*
G01*
X103578000Y-80600000D02*
G75*
G02*
X103451000Y-80473000I0J127000D01*
G01*
X102943000Y-79775000D02*
G75*
G03*
X102868000Y-79700000I-75000J0D01*
G01*
X103272000Y-79700000D02*
G75*
G03*
X103197000Y-79775000I0J-75000D01*
G01*
X104975000Y-79775000D02*
G75*
G03*
X104900000Y-79700000I-75000J0D01*
G01*
X102562000Y-80600000D02*
G75*
G02*
X102435000Y-80473000I0J127000D01*
G01*
X104594000Y-80600000D02*
G75*
G02*
X104467000Y-80473000I0J127000D01*
G01*
X101927000Y-79977000D02*
G75*
G03*
X101800000Y-79850000I-127000J0D01*
G01*
X106245000Y-80473000D02*
G75*
G02*
X106118000Y-80600000I-127000J0D01*
G01*
X102689000Y-80473000D02*
G75*
G02*
X102562000Y-80600000I-127000J0D01*
G01*
X103070000Y-80600000D02*
G75*
G02*
X102943000Y-80473000I0J127000D01*
G01*
X104721000Y-80473000D02*
G75*
G02*
X104594000Y-80600000I-127000J0D01*
G01*
X104796000Y-79700000D02*
G75*
G03*
X104721000Y-79775000I0J-75000D01*
G01*
X106372000Y-79850000D02*
G75*
G03*
X106245000Y-79977000I0J-127000D01*
G01*
X105304000Y-79700000D02*
G75*
G03*
X105229000Y-79775000I0J-75000D01*
G01*
X103197000Y-80473000D02*
G75*
G02*
X103070000Y-80600000I-127000J0D01*
G01*
X105610000Y-80600000D02*
G75*
G02*
X105483000Y-80473000I0J127000D01*
G01*
X105102000Y-80600000D02*
G75*
G02*
X104975000Y-80473000I0J127000D01*
G01*
X104086000Y-80600000D02*
G75*
G02*
X103959000Y-80473000I0J127000D01*
G01*
X106118000Y-80600000D02*
G75*
G02*
X105991000Y-80473000I0J127000D01*
G01*
X105737000Y-80473000D02*
G75*
G02*
X105610000Y-80600000I-127000J0D01*
G01*
X105229000Y-80473000D02*
G75*
G02*
X105102000Y-80600000I-127000J0D01*
G01*
X104437000Y-74014145D02*
X104437000Y-73385855D01*
X101643000Y-73385855D02*
X101643000Y-74014145D01*
X103421000Y-74014145D02*
X103421000Y-73385855D01*
X108157800Y-74157800D02*
X108600000Y-74600000D01*
X102151000Y-73385855D02*
X102151000Y-74014145D01*
X107557800Y-74157800D02*
X108157800Y-74157800D01*
X101897000Y-74014145D02*
X101897000Y-73385855D01*
X106215000Y-73385855D02*
X106215000Y-73573000D01*
X107100000Y-73700000D02*
X107557800Y-74157800D01*
X102405000Y-74014145D02*
X102405000Y-73385855D01*
X103167000Y-73385855D02*
X103167000Y-74014145D01*
X104183000Y-73385855D02*
X104183000Y-74014145D01*
X103675000Y-73385855D02*
X103675000Y-74014145D01*
X102659000Y-73385855D02*
X102659000Y-74014145D01*
X104945000Y-74014145D02*
X104945000Y-73385855D01*
X105961000Y-74014145D02*
X105961000Y-73385855D01*
X103929000Y-74014145D02*
X103929000Y-73385855D01*
X101389000Y-74014145D02*
X101389000Y-73385855D01*
X104691000Y-73385855D02*
X104691000Y-74014145D01*
X106342000Y-73700000D02*
X107100000Y-73700000D01*
X105453000Y-74014145D02*
X105453000Y-73385855D01*
X102913000Y-74014145D02*
X102913000Y-73385855D01*
X105707000Y-73385855D02*
X105707000Y-74014145D01*
X105199000Y-73385855D02*
X105199000Y-74014145D01*
X100627000Y-73827000D02*
X100627000Y-74014145D01*
X101135000Y-73385855D02*
X101135000Y-74014145D01*
X100881000Y-74014145D02*
X100881000Y-73385855D01*
X100300000Y-73700000D02*
X100500000Y-73700000D01*
X100000000Y-74000000D02*
X100300000Y-73700000D01*
X101897045Y-74014145D02*
G75*
G02*
X101770000Y-74141145I-127045J45D01*
G01*
X104437045Y-74014145D02*
G75*
G02*
X104310000Y-74141145I-127045J45D01*
G01*
X103675045Y-73385855D02*
G75*
G03*
X103548000Y-73258855I-127045J-45D01*
G01*
X101008000Y-73258900D02*
G75*
G03*
X100881000Y-73385855I0J-127000D01*
G01*
X104056000Y-73258900D02*
G75*
G03*
X103929000Y-73385855I0J-127000D01*
G01*
X103167045Y-73385855D02*
G75*
G03*
X103040000Y-73258855I-127045J-45D01*
G01*
X101262000Y-74141100D02*
G75*
G02*
X101135000Y-74014145I0J127000D01*
G01*
X104818000Y-74141100D02*
G75*
G02*
X104691000Y-74014145I0J127000D01*
G01*
X106215045Y-73385855D02*
G75*
G03*
X106088000Y-73258855I-127045J-45D01*
G01*
X103040000Y-73258900D02*
G75*
G03*
X102913000Y-73385855I0J-127000D01*
G01*
X106088000Y-73258900D02*
G75*
G03*
X105961000Y-73385855I0J-127000D01*
G01*
X101643045Y-73385855D02*
G75*
G03*
X101516000Y-73258855I-127045J-45D01*
G01*
X103802000Y-74141100D02*
G75*
G02*
X103675000Y-74014145I0J127000D01*
G01*
X101135045Y-73385855D02*
G75*
G03*
X101008000Y-73258855I-127045J-45D01*
G01*
X101770000Y-74141100D02*
G75*
G02*
X101643000Y-74014145I0J127000D01*
G01*
X106342000Y-73700000D02*
G75*
G02*
X106215000Y-73573000I0J127000D01*
G01*
X104691045Y-73385855D02*
G75*
G03*
X104564000Y-73258855I-127045J-45D01*
G01*
X102786000Y-74141100D02*
G75*
G02*
X102659000Y-74014145I0J127000D01*
G01*
X105326000Y-74141100D02*
G75*
G02*
X105199000Y-74014145I0J127000D01*
G01*
X101389045Y-74014145D02*
G75*
G02*
X101262000Y-74141145I-127045J45D01*
G01*
X103294000Y-74141100D02*
G75*
G02*
X103167000Y-74014145I0J127000D01*
G01*
X104310000Y-74141100D02*
G75*
G02*
X104183000Y-74014145I0J127000D01*
G01*
X103548000Y-73258900D02*
G75*
G03*
X103421000Y-73385855I0J-127000D01*
G01*
X104183045Y-73385855D02*
G75*
G03*
X104056000Y-73258855I-127045J-45D01*
G01*
X103421045Y-74014145D02*
G75*
G02*
X103294000Y-74141145I-127045J45D01*
G01*
X105707045Y-73385855D02*
G75*
G03*
X105580000Y-73258855I-127045J-45D01*
G01*
X102151045Y-73385855D02*
G75*
G03*
X102024000Y-73258855I-127045J-45D01*
G01*
X104564000Y-73258900D02*
G75*
G03*
X104437000Y-73385855I0J-127000D01*
G01*
X105199045Y-73385855D02*
G75*
G03*
X105072000Y-73258855I-127045J-45D01*
G01*
X101516000Y-73258900D02*
G75*
G03*
X101389000Y-73385855I0J-127000D01*
G01*
X103929045Y-74014145D02*
G75*
G02*
X103802000Y-74141145I-127045J45D01*
G01*
X102532000Y-73258900D02*
G75*
G03*
X102405000Y-73385855I0J-127000D01*
G01*
X105834000Y-74141100D02*
G75*
G02*
X105707000Y-74014145I0J127000D01*
G01*
X102278000Y-74141100D02*
G75*
G02*
X102151000Y-74014145I0J127000D01*
G01*
X100881045Y-74014145D02*
G75*
G02*
X100754000Y-74141145I-127045J45D01*
G01*
X102913045Y-74014145D02*
G75*
G02*
X102786000Y-74141145I-127045J45D01*
G01*
X105961045Y-74014145D02*
G75*
G02*
X105834000Y-74141145I-127045J45D01*
G01*
X102405045Y-74014145D02*
G75*
G02*
X102278000Y-74141145I-127045J45D01*
G01*
X104945045Y-74014145D02*
G75*
G02*
X104818000Y-74141145I-127045J45D01*
G01*
X100627000Y-73827000D02*
G75*
G03*
X100500000Y-73700000I-127000J0D01*
G01*
X102659045Y-73385855D02*
G75*
G03*
X102532000Y-73258855I-127045J-45D01*
G01*
X102024000Y-73258900D02*
G75*
G03*
X101897000Y-73385855I0J-127000D01*
G01*
X105453045Y-74014145D02*
G75*
G02*
X105326000Y-74141145I-127045J45D01*
G01*
X100754000Y-74141100D02*
G75*
G02*
X100627000Y-74014145I0J127000D01*
G01*
X105072000Y-73258900D02*
G75*
G03*
X104945000Y-73385855I0J-127000D01*
G01*
X105580000Y-73258900D02*
G75*
G03*
X105453000Y-73385855I0J-127000D01*
G01*
X111400000Y-77000000D02*
X111000000Y-77400000D01*
X112600000Y-77000000D02*
X111400000Y-77000000D01*
X100230000Y-77480000D02*
X101600000Y-78850000D01*
X103909000Y-78850000D02*
X103909000Y-78583878D01*
X103655000Y-78583878D02*
X103655000Y-78850000D01*
X99000000Y-77000000D02*
X99480000Y-77480000D01*
X104671000Y-78850000D02*
X104671000Y-79316122D01*
X103147000Y-78850000D02*
X103147000Y-79316122D01*
X107350000Y-77950000D02*
X107350000Y-77500000D01*
X104163000Y-78850000D02*
X104163000Y-79316122D01*
X103655000Y-78850000D02*
X103655000Y-79316122D01*
X104925000Y-78850000D02*
X104925000Y-78583878D01*
X102385000Y-79316122D02*
X102385000Y-78850000D01*
X105687000Y-78583878D02*
X105687000Y-78850000D01*
X103909000Y-79316122D02*
X103909000Y-78850000D01*
X105179000Y-78850000D02*
X105179000Y-79316122D01*
X101600000Y-78850000D02*
X101750000Y-78850000D01*
X105433000Y-79316122D02*
X105433000Y-78850000D01*
X105941000Y-79316122D02*
X105941000Y-78850000D01*
X102893000Y-79316122D02*
X102893000Y-78850000D01*
X106195000Y-78583878D02*
X106195000Y-78723000D01*
X102131000Y-78723000D02*
X102131000Y-79316122D01*
X99480000Y-77480000D02*
X100230000Y-77480000D01*
X104671000Y-78583878D02*
X104671000Y-78850000D01*
X105941000Y-78850000D02*
X105941000Y-78583878D01*
X102893000Y-78850000D02*
X102893000Y-78583878D01*
X106322000Y-78850000D02*
X106450000Y-78850000D01*
X103401000Y-78850000D02*
X103401000Y-78583878D01*
X101877000Y-78723000D02*
X101877000Y-78583878D01*
X105433000Y-78850000D02*
X105433000Y-78583878D01*
X105179000Y-78583878D02*
X105179000Y-78850000D01*
X104417000Y-79316122D02*
X104417000Y-78850000D01*
X102639000Y-78583878D02*
X102639000Y-78850000D01*
X107850000Y-77000000D02*
X108600000Y-77000000D01*
X102385000Y-78850000D02*
X102385000Y-78583878D01*
X107350000Y-77500000D02*
X107850000Y-77000000D01*
X103147000Y-78583878D02*
X103147000Y-78850000D01*
X105687000Y-78850000D02*
X105687000Y-79316122D01*
X104417000Y-78850000D02*
X104417000Y-78583878D01*
X103401000Y-79316122D02*
X103401000Y-78850000D01*
X102639000Y-78850000D02*
X102639000Y-79316122D01*
X104925000Y-79316122D02*
X104925000Y-78850000D01*
X102131000Y-78583878D02*
X102131000Y-78723000D01*
X106450000Y-78850000D02*
X107350000Y-77950000D01*
X104163000Y-78583878D02*
X104163000Y-78850000D01*
X104671022Y-78583878D02*
G75*
G03*
X104544000Y-78456878I-127022J-22D01*
G01*
X104036000Y-78456900D02*
G75*
G03*
X103909000Y-78583878I0J-127000D01*
G01*
X102639022Y-78583878D02*
G75*
G03*
X102512000Y-78456878I-127022J-22D01*
G01*
X104163022Y-78583878D02*
G75*
G03*
X104036000Y-78456878I-127022J-22D01*
G01*
X104290000Y-79443100D02*
G75*
G02*
X104163000Y-79316122I0J127000D01*
G01*
X102893022Y-79316122D02*
G75*
G02*
X102766000Y-79443122I-127022J22D01*
G01*
X102385022Y-79316122D02*
G75*
G02*
X102258000Y-79443122I-127022J22D01*
G01*
X106195022Y-78583878D02*
G75*
G03*
X106068000Y-78456878I-127022J-22D01*
G01*
X105306000Y-79443100D02*
G75*
G02*
X105179000Y-79316122I0J127000D01*
G01*
X103655022Y-78583878D02*
G75*
G03*
X103528000Y-78456878I-127022J-22D01*
G01*
X105814000Y-79443100D02*
G75*
G02*
X105687000Y-79316122I0J127000D01*
G01*
X105433022Y-79316122D02*
G75*
G02*
X105306000Y-79443122I-127022J22D01*
G01*
X106322000Y-78850000D02*
G75*
G02*
X106195000Y-78723000I0J127000D01*
G01*
X105941022Y-79316122D02*
G75*
G02*
X105814000Y-79443122I-127022J22D01*
G01*
X105179022Y-78583878D02*
G75*
G03*
X105052000Y-78456878I-127022J-22D01*
G01*
X105052000Y-78456900D02*
G75*
G03*
X104925000Y-78583878I0J-127000D01*
G01*
X102512000Y-78456900D02*
G75*
G03*
X102385000Y-78583878I0J-127000D01*
G01*
X103782000Y-79443100D02*
G75*
G02*
X103655000Y-79316122I0J127000D01*
G01*
X102131022Y-78583878D02*
G75*
G03*
X102004000Y-78456878I-127022J-22D01*
G01*
X103528000Y-78456900D02*
G75*
G03*
X103401000Y-78583878I0J-127000D01*
G01*
X105560000Y-78456900D02*
G75*
G03*
X105433000Y-78583878I0J-127000D01*
G01*
X102004000Y-78456900D02*
G75*
G03*
X101877000Y-78583878I0J-127000D01*
G01*
X102258000Y-79443100D02*
G75*
G02*
X102131000Y-79316122I0J127000D01*
G01*
X103401022Y-79316122D02*
G75*
G02*
X103274000Y-79443122I-127022J22D01*
G01*
X103909022Y-79316122D02*
G75*
G02*
X103782000Y-79443122I-127022J22D01*
G01*
X105687022Y-78583878D02*
G75*
G03*
X105560000Y-78456878I-127022J-22D01*
G01*
X104544000Y-78456900D02*
G75*
G03*
X104417000Y-78583878I0J-127000D01*
G01*
X102766000Y-79443100D02*
G75*
G02*
X102639000Y-79316122I0J127000D01*
G01*
X104798000Y-79443100D02*
G75*
G02*
X104671000Y-79316122I0J127000D01*
G01*
X103147022Y-78583878D02*
G75*
G03*
X103020000Y-78456878I-127022J-22D01*
G01*
X104417022Y-79316122D02*
G75*
G02*
X104290000Y-79443122I-127022J22D01*
G01*
X104925022Y-79316122D02*
G75*
G02*
X104798000Y-79443122I-127022J22D01*
G01*
X103020000Y-78456900D02*
G75*
G03*
X102893000Y-78583878I0J-127000D01*
G01*
X101877000Y-78723000D02*
G75*
G02*
X101750000Y-78850000I-127000J0D01*
G01*
X103274000Y-79443100D02*
G75*
G02*
X103147000Y-79316122I0J127000D01*
G01*
X106068000Y-78456900D02*
G75*
G03*
X105941000Y-78583878I0J-127000D01*
G01*
X108192200Y-74957800D02*
X108957800Y-74957800D01*
X102805000Y-75012925D02*
X102805000Y-74587075D01*
X108107800Y-75042200D02*
X108192200Y-74957800D01*
X105599000Y-74587075D02*
X105599000Y-75012925D01*
X105853000Y-75012925D02*
X105853000Y-74587075D01*
X102551000Y-74587075D02*
X102551000Y-75012925D01*
X106869000Y-75012925D02*
X106869000Y-74927000D01*
X104583000Y-74587075D02*
X104583000Y-75012925D01*
X104837000Y-75012925D02*
X104837000Y-74587075D01*
X97500000Y-74500000D02*
X100400000Y-74500000D01*
X100700000Y-74800000D02*
X100900000Y-74800000D01*
X102297000Y-75012925D02*
X102297000Y-74587075D01*
X106996000Y-74800000D02*
X107300000Y-74800000D01*
X103567000Y-74587075D02*
X103567000Y-75012925D01*
X105091000Y-74587075D02*
X105091000Y-75012925D01*
X101789000Y-75012925D02*
X101789000Y-74587075D01*
X103059000Y-74587075D02*
X103059000Y-75012925D01*
X102043000Y-74587075D02*
X102043000Y-75012925D01*
X103821000Y-75012925D02*
X103821000Y-74587075D01*
X103313000Y-75012925D02*
X103313000Y-74587075D01*
X104075000Y-74587075D02*
X104075000Y-75012925D01*
X105345000Y-75012925D02*
X105345000Y-74587075D01*
X101027000Y-74927000D02*
X101027000Y-75012925D01*
X107300000Y-74800000D02*
X107542200Y-75042200D01*
X101535000Y-74587075D02*
X101535000Y-75012925D01*
X101281000Y-75012925D02*
X101281000Y-74587075D01*
X106361000Y-75012925D02*
X106361000Y-74587075D01*
X107542200Y-75042200D02*
X108107800Y-75042200D01*
X108957800Y-74957800D02*
X109400000Y-75400000D01*
X97000000Y-75000000D02*
X97500000Y-74500000D01*
X106107000Y-74587075D02*
X106107000Y-75012925D01*
X100400000Y-74500000D02*
X100700000Y-74800000D01*
X104329000Y-75012925D02*
X104329000Y-74587075D01*
X106615000Y-74587075D02*
X106615000Y-75012925D01*
X102932000Y-74460100D02*
G75*
G03*
X102805000Y-74587075I0J-127000D01*
G01*
X103821025Y-75012925D02*
G75*
G02*
X103694000Y-75139925I-127025J25D01*
G01*
X103186000Y-75139900D02*
G75*
G02*
X103059000Y-75012925I0J127000D01*
G01*
X105980000Y-74460100D02*
G75*
G03*
X105853000Y-74587075I0J-127000D01*
G01*
X105599025Y-74587075D02*
G75*
G03*
X105472000Y-74460075I-127025J-25D01*
G01*
X106488000Y-74460100D02*
G75*
G03*
X106361000Y-74587075I0J-127000D01*
G01*
X105472000Y-74460100D02*
G75*
G03*
X105345000Y-74587075I0J-127000D01*
G01*
X104202000Y-75139900D02*
G75*
G02*
X104075000Y-75012925I0J127000D01*
G01*
X106742000Y-75139900D02*
G75*
G02*
X106615000Y-75012925I0J127000D01*
G01*
X104456000Y-74460100D02*
G75*
G03*
X104329000Y-74587075I0J-127000D01*
G01*
X102043025Y-74587075D02*
G75*
G03*
X101916000Y-74460075I-127025J-25D01*
G01*
X101535025Y-74587075D02*
G75*
G03*
X101408000Y-74460075I-127025J-25D01*
G01*
X102551025Y-74587075D02*
G75*
G03*
X102424000Y-74460075I-127025J-25D01*
G01*
X103567025Y-74587075D02*
G75*
G03*
X103440000Y-74460075I-127025J-25D01*
G01*
X103059025Y-74587075D02*
G75*
G03*
X102932000Y-74460075I-127025J-25D01*
G01*
X105726000Y-75139900D02*
G75*
G02*
X105599000Y-75012925I0J127000D01*
G01*
X105218000Y-75139900D02*
G75*
G02*
X105091000Y-75012925I0J127000D01*
G01*
X103440000Y-74460100D02*
G75*
G03*
X103313000Y-74587075I0J-127000D01*
G01*
X106361025Y-75012925D02*
G75*
G02*
X106234000Y-75139925I-127025J25D01*
G01*
X104329025Y-75012925D02*
G75*
G02*
X104202000Y-75139925I-127025J25D01*
G01*
X103948000Y-74460100D02*
G75*
G03*
X103821000Y-74587075I0J-127000D01*
G01*
X106996000Y-74800000D02*
G75*
G03*
X106869000Y-74927000I0J-127000D01*
G01*
X103313025Y-75012925D02*
G75*
G02*
X103186000Y-75139925I-127025J25D01*
G01*
X105345025Y-75012925D02*
G75*
G02*
X105218000Y-75139925I-127025J25D01*
G01*
X101789025Y-75012925D02*
G75*
G02*
X101662000Y-75139925I-127025J25D01*
G01*
X102170000Y-75139900D02*
G75*
G02*
X102043000Y-75012925I0J127000D01*
G01*
X105091025Y-74587075D02*
G75*
G03*
X104964000Y-74460075I-127025J-25D01*
G01*
X102297025Y-75012925D02*
G75*
G02*
X102170000Y-75139925I-127025J25D01*
G01*
X102805025Y-75012925D02*
G75*
G02*
X102678000Y-75139925I-127025J25D01*
G01*
X102678000Y-75139900D02*
G75*
G02*
X102551000Y-75012925I0J127000D01*
G01*
X101916000Y-74460100D02*
G75*
G03*
X101789000Y-74587075I0J-127000D01*
G01*
X101281025Y-75012925D02*
G75*
G02*
X101154000Y-75139925I-127025J25D01*
G01*
X106234000Y-75139900D02*
G75*
G02*
X106107000Y-75012925I0J127000D01*
G01*
X101662000Y-75139900D02*
G75*
G02*
X101535000Y-75012925I0J127000D01*
G01*
X101027000Y-74927000D02*
G75*
G03*
X100900000Y-74800000I-127000J0D01*
G01*
X103694000Y-75139900D02*
G75*
G02*
X103567000Y-75012925I0J127000D01*
G01*
X104075025Y-74587075D02*
G75*
G03*
X103948000Y-74460075I-127025J-25D01*
G01*
X104583025Y-74587075D02*
G75*
G03*
X104456000Y-74460075I-127025J-25D01*
G01*
X106869025Y-75012925D02*
G75*
G02*
X106742000Y-75139925I-127025J25D01*
G01*
X104710000Y-75139900D02*
G75*
G02*
X104583000Y-75012925I0J127000D01*
G01*
X105853025Y-75012925D02*
G75*
G02*
X105726000Y-75139925I-127025J25D01*
G01*
X102424000Y-74460100D02*
G75*
G03*
X102297000Y-74587075I0J-127000D01*
G01*
X104964000Y-74460100D02*
G75*
G03*
X104837000Y-74587075I0J-127000D01*
G01*
X106615025Y-74587075D02*
G75*
G03*
X106488000Y-74460075I-127025J-25D01*
G01*
X101408000Y-74460100D02*
G75*
G03*
X101281000Y-74587075I0J-127000D01*
G01*
X104837025Y-75012925D02*
G75*
G02*
X104710000Y-75139925I-127025J25D01*
G01*
X106107025Y-74587075D02*
G75*
G03*
X105980000Y-74460075I-127025J-25D01*
G01*
X101154000Y-75139900D02*
G75*
G02*
X101027000Y-75012925I0J127000D01*
G01*
X98000000Y-75000000D02*
X98500000Y-75500000D01*
X109757800Y-75757800D02*
X108942200Y-75757800D01*
X107000000Y-76900000D02*
X107300000Y-76600000D01*
X109927000Y-75927000D02*
X109927000Y-76398777D01*
X107300000Y-76600000D02*
X107300000Y-76000000D01*
X110943000Y-75201223D02*
X110943000Y-76398777D01*
X100300000Y-75500000D02*
X100600000Y-75800000D01*
X100600000Y-76400000D02*
X101100000Y-76900000D01*
X109757800Y-75757800D02*
X109800000Y-75800000D01*
X111451000Y-75201223D02*
X111451000Y-76398777D01*
X110435000Y-75201223D02*
X110435000Y-76398777D01*
D50*
X108900000Y-75800000D02*
X108250000Y-75800000D01*
D46*
X110689000Y-76398777D02*
X110689000Y-75201223D01*
X107300000Y-76000000D02*
X107542200Y-75757800D01*
X111705000Y-76398777D02*
X111705000Y-75927000D01*
X111832000Y-75800000D02*
X112200000Y-75800000D01*
X107542200Y-75757800D02*
X108207800Y-75757800D01*
X111197000Y-76398777D02*
X111197000Y-75201223D01*
D50*
X108942200Y-75757800D02*
X108900000Y-75800000D01*
D46*
X100600000Y-75800000D02*
X100600000Y-76400000D01*
X110181000Y-76398777D02*
X110181000Y-75201223D01*
D50*
X108250000Y-75800000D02*
X108207800Y-75757800D01*
D46*
X98500000Y-75500000D02*
X100300000Y-75500000D01*
X101100000Y-76900000D02*
X107000000Y-76900000D01*
X112200000Y-75800000D02*
X112600000Y-75400000D01*
X111704977Y-76398777D02*
G75*
G02*
X111578000Y-76525777I-126977J-23D01*
G01*
X109927000Y-75927000D02*
G75*
G03*
X109800000Y-75800000I-127000J0D01*
G01*
X111832000Y-75800000D02*
G75*
G03*
X111705000Y-75927000I0J-127000D01*
G01*
X110308000Y-75074200D02*
G75*
G03*
X110181000Y-75201223I0J-127000D01*
G01*
X110434977Y-75201223D02*
G75*
G03*
X110308000Y-75074223I-126977J23D01*
G01*
X111070000Y-76525800D02*
G75*
G02*
X110943000Y-76398777I0J127000D01*
G01*
X110816000Y-75074200D02*
G75*
G03*
X110689000Y-75201223I0J-127000D01*
G01*
X111324000Y-75074200D02*
G75*
G03*
X111197000Y-75201223I0J-127000D01*
G01*
X111196977Y-76398777D02*
G75*
G02*
X111070000Y-76525777I-126977J-23D01*
G01*
X110180977Y-76398777D02*
G75*
G02*
X110054000Y-76525777I-126977J-23D01*
G01*
X110562000Y-76525800D02*
G75*
G02*
X110435000Y-76398777I0J127000D01*
G01*
X110054000Y-76525800D02*
G75*
G02*
X109927000Y-76398777I0J127000D01*
G01*
X111450977Y-75201223D02*
G75*
G03*
X111324000Y-75074223I-126977J23D01*
G01*
X110942977Y-75201223D02*
G75*
G03*
X110816000Y-75074223I-126977J23D01*
G01*
X111578000Y-76525800D02*
G75*
G02*
X111451000Y-76398777I0J127000D01*
G01*
X110688977Y-76398777D02*
G75*
G02*
X110562000Y-76525777I-126977J-23D01*
G01*
X103967000Y-76000000D02*
X103967000Y-76368666D01*
X102951000Y-75631334D02*
X102951000Y-76000000D01*
X102697000Y-76368666D02*
X102697000Y-76000000D01*
X104221000Y-76000000D02*
X104221000Y-75631334D01*
X102189000Y-76000000D02*
X102189000Y-75631334D01*
X104729000Y-76000000D02*
X104729000Y-75631334D01*
X101427000Y-76127000D02*
X101427000Y-76368666D01*
X102189000Y-76368666D02*
X102189000Y-76000000D01*
X106253000Y-76368666D02*
X106253000Y-76000000D01*
X103205000Y-76000000D02*
X103205000Y-75631334D01*
X105745000Y-76000000D02*
X105745000Y-75631334D01*
X100000000Y-75000000D02*
X100300000Y-75000000D01*
X103459000Y-75631334D02*
X103459000Y-76000000D01*
X101681000Y-76127000D02*
X101681000Y-75631334D01*
X105745000Y-76368666D02*
X105745000Y-76000000D01*
X103713000Y-76000000D02*
X103713000Y-75631334D01*
X103205000Y-76368666D02*
X103205000Y-76000000D01*
X105237000Y-76000000D02*
X105237000Y-75631334D01*
X104475000Y-75631334D02*
X104475000Y-76000000D01*
X107400000Y-75400000D02*
X107800000Y-75400000D01*
X104221000Y-76368666D02*
X104221000Y-76000000D01*
X103713000Y-76368666D02*
X103713000Y-76000000D01*
X105491000Y-76000000D02*
X105491000Y-76368666D01*
X100300000Y-75000000D02*
X101300000Y-76000000D01*
X104729000Y-76368666D02*
X104729000Y-76000000D01*
X106800000Y-76000000D02*
X107400000Y-75400000D01*
X105491000Y-75631334D02*
X105491000Y-76000000D01*
X104475000Y-76000000D02*
X104475000Y-76368666D01*
X101935000Y-75631334D02*
X101935000Y-76000000D01*
X101935000Y-76000000D02*
X101935000Y-76368666D01*
X106253000Y-76000000D02*
X106253000Y-75631334D01*
X104983000Y-76000000D02*
X104983000Y-76368666D01*
X102443000Y-75631334D02*
X102443000Y-76000000D01*
X105999000Y-76000000D02*
X105999000Y-76368666D01*
X103967000Y-75631334D02*
X103967000Y-76000000D01*
X102697000Y-76000000D02*
X102697000Y-75631334D01*
X102951000Y-76000000D02*
X102951000Y-76368666D01*
X105999000Y-75631334D02*
X105999000Y-76000000D01*
X106634000Y-76000000D02*
X106800000Y-76000000D01*
X102443000Y-76000000D02*
X102443000Y-76368666D01*
X105237000Y-76368666D02*
X105237000Y-76000000D01*
X101681000Y-76368666D02*
X101681000Y-76127000D01*
X104983000Y-75631334D02*
X104983000Y-76000000D01*
X103459000Y-76000000D02*
X103459000Y-76368666D01*
X106507000Y-75631334D02*
X106507000Y-75873000D01*
X102316000Y-75504300D02*
G75*
G03*
X102189000Y-75631334I0J-127000D01*
G01*
X102442966Y-75631334D02*
G75*
G03*
X102316000Y-75504334I-126966J34D01*
G01*
X104094000Y-76495700D02*
G75*
G02*
X103967000Y-76368666I0J127000D01*
G01*
X106634000Y-76000000D02*
G75*
G02*
X106507000Y-75873000I0J127000D01*
G01*
X104982966Y-75631334D02*
G75*
G03*
X104856000Y-75504334I-126966J34D01*
G01*
X104220966Y-76368666D02*
G75*
G02*
X104094000Y-76495666I-126966J-34D01*
G01*
X101934966Y-75631334D02*
G75*
G03*
X101808000Y-75504334I-126966J34D01*
G01*
X103078000Y-76495700D02*
G75*
G02*
X102951000Y-76368666I0J127000D01*
G01*
X106506966Y-75631334D02*
G75*
G03*
X106380000Y-75504334I-126966J34D01*
G01*
X105364000Y-75504300D02*
G75*
G03*
X105237000Y-75631334I0J-127000D01*
G01*
X106126000Y-76495700D02*
G75*
G02*
X105999000Y-76368666I0J127000D01*
G01*
X103586000Y-76495700D02*
G75*
G02*
X103459000Y-76368666I0J127000D01*
G01*
X105744966Y-76368666D02*
G75*
G02*
X105618000Y-76495666I-126966J-34D01*
G01*
X103840000Y-75504300D02*
G75*
G03*
X103713000Y-75631334I0J-127000D01*
G01*
X105490966Y-75631334D02*
G75*
G03*
X105364000Y-75504334I-126966J34D01*
G01*
X106252966Y-76368666D02*
G75*
G02*
X106126000Y-76495666I-126966J-34D01*
G01*
X104602000Y-76495700D02*
G75*
G02*
X104475000Y-76368666I0J127000D01*
G01*
X103712966Y-76368666D02*
G75*
G02*
X103586000Y-76495666I-126966J-34D01*
G01*
X105236966Y-76368666D02*
G75*
G02*
X105110000Y-76495666I-126966J-34D01*
G01*
X101680966Y-76368666D02*
G75*
G02*
X101554000Y-76495666I-126966J-34D01*
G01*
X106380000Y-75504300D02*
G75*
G03*
X106253000Y-75631334I0J-127000D01*
G01*
X101808000Y-75504300D02*
G75*
G03*
X101681000Y-75631334I0J-127000D01*
G01*
X101427000Y-76127000D02*
G75*
G03*
X101300000Y-76000000I-127000J0D01*
G01*
X103332000Y-75504300D02*
G75*
G03*
X103205000Y-75631334I0J-127000D01*
G01*
X102696966Y-76368666D02*
G75*
G02*
X102570000Y-76495666I-126966J-34D01*
G01*
X104348000Y-75504300D02*
G75*
G03*
X104221000Y-75631334I0J-127000D01*
G01*
X102062000Y-76495700D02*
G75*
G02*
X101935000Y-76368666I0J127000D01*
G01*
X103204966Y-76368666D02*
G75*
G02*
X103078000Y-76495666I-126966J-34D01*
G01*
X105872000Y-75504300D02*
G75*
G03*
X105745000Y-75631334I0J-127000D01*
G01*
X102824000Y-75504300D02*
G75*
G03*
X102697000Y-75631334I0J-127000D01*
G01*
X105998966Y-75631334D02*
G75*
G03*
X105872000Y-75504334I-126966J34D01*
G01*
X102570000Y-76495700D02*
G75*
G02*
X102443000Y-76368666I0J127000D01*
G01*
X101554000Y-76495700D02*
G75*
G02*
X101427000Y-76368666I0J127000D01*
G01*
X105110000Y-76495700D02*
G75*
G02*
X104983000Y-76368666I0J127000D01*
G01*
X104728966Y-76368666D02*
G75*
G02*
X104602000Y-76495666I-126966J-34D01*
G01*
X105618000Y-76495700D02*
G75*
G02*
X105491000Y-76368666I0J127000D01*
G01*
X102188966Y-76368666D02*
G75*
G02*
X102062000Y-76495666I-126966J-34D01*
G01*
X104474966Y-75631334D02*
G75*
G03*
X104348000Y-75504334I-126966J34D01*
G01*
X104856000Y-75504300D02*
G75*
G03*
X104729000Y-75631334I0J-127000D01*
G01*
X103966966Y-75631334D02*
G75*
G03*
X103840000Y-75504334I-126966J34D01*
G01*
X103458966Y-75631334D02*
G75*
G03*
X103332000Y-75504334I-126966J34D01*
G01*
X102950966Y-75631334D02*
G75*
G03*
X102824000Y-75504334I-126966J34D01*
G01*
X114630000Y-73370000D02*
X114200000Y-73800000D01*
X114630000Y-71130000D02*
X114630000Y-73370000D01*
X97500000Y-69590000D02*
X113090000Y-69590000D01*
X95000000Y-74000000D02*
X95500000Y-73500000D01*
X95500000Y-71590000D02*
X97500000Y-69590000D01*
X113090000Y-69590000D02*
X114630000Y-71130000D01*
X95500000Y-73500000D02*
X95500000Y-71590000D01*
X108197000Y-72258739D02*
X108197000Y-71900000D01*
X109213000Y-71900000D02*
X109213000Y-71741261D01*
X110500000Y-73800000D02*
X109400000Y-73800000D01*
X109467000Y-71741261D02*
X109467000Y-71900000D01*
X107689000Y-72258739D02*
X107689000Y-71900000D01*
X110700000Y-73600000D02*
X110500000Y-73800000D01*
X109213000Y-72258739D02*
X109213000Y-71900000D01*
X110229000Y-72258739D02*
X110229000Y-72027000D01*
X110700000Y-72100000D02*
X110700000Y-73600000D01*
X108197000Y-71900000D02*
X108197000Y-71741261D01*
X106927000Y-72027000D02*
X106927000Y-72258739D01*
X107943000Y-71741261D02*
X107943000Y-71900000D01*
X107181000Y-72258739D02*
X107181000Y-72027000D01*
X108959000Y-71900000D02*
X108959000Y-72258739D01*
X107435000Y-71741261D02*
X107435000Y-71900000D01*
X109721000Y-71900000D02*
X109721000Y-71741261D01*
X108451000Y-71741261D02*
X108451000Y-71900000D01*
X109721000Y-72258739D02*
X109721000Y-71900000D01*
X107943000Y-71900000D02*
X107943000Y-72258739D01*
X108705000Y-72258739D02*
X108705000Y-71900000D01*
X109975000Y-71900000D02*
X109975000Y-72258739D01*
X98500000Y-73500000D02*
X98500000Y-72200000D01*
X109467000Y-71900000D02*
X109467000Y-72258739D01*
X108451000Y-71900000D02*
X108451000Y-72258739D01*
X108705000Y-71900000D02*
X108705000Y-71741261D01*
X109975000Y-71741261D02*
X109975000Y-71900000D01*
X98000000Y-74000000D02*
X98500000Y-73500000D01*
X98800000Y-71900000D02*
X106800000Y-71900000D01*
X98500000Y-72200000D02*
X98800000Y-71900000D01*
X107435000Y-71900000D02*
X107435000Y-72258739D01*
X110356000Y-71900000D02*
X110500000Y-71900000D01*
X108959000Y-71741261D02*
X108959000Y-71900000D01*
X107181000Y-72027000D02*
X107181000Y-71741261D01*
X107689000Y-71900000D02*
X107689000Y-71741261D01*
X110500000Y-71900000D02*
X110700000Y-72100000D01*
X108070000Y-72385700D02*
G75*
G02*
X107943000Y-72258739I0J127000D01*
G01*
X109721039Y-72258739D02*
G75*
G02*
X109594000Y-72385739I-127039J39D01*
G01*
X108324000Y-71614300D02*
G75*
G03*
X108197000Y-71741261I0J-127000D01*
G01*
X107308000Y-71614300D02*
G75*
G03*
X107181000Y-71741261I0J-127000D01*
G01*
X108578000Y-72385700D02*
G75*
G02*
X108451000Y-72258739I0J127000D01*
G01*
X107943039Y-71741261D02*
G75*
G03*
X107816000Y-71614261I-127039J-39D01*
G01*
X107689039Y-72258739D02*
G75*
G02*
X107562000Y-72385739I-127039J39D01*
G01*
X107435039Y-71741261D02*
G75*
G03*
X107308000Y-71614261I-127039J-39D01*
G01*
X107816000Y-71614300D02*
G75*
G03*
X107689000Y-71741261I0J-127000D01*
G01*
X106927000Y-72027000D02*
G75*
G03*
X106800000Y-71900000I-127000J0D01*
G01*
X109467039Y-71741261D02*
G75*
G03*
X109340000Y-71614261I-127039J-39D01*
G01*
X107562000Y-72385700D02*
G75*
G02*
X107435000Y-72258739I0J127000D01*
G01*
X109594000Y-72385700D02*
G75*
G02*
X109467000Y-72258739I0J127000D01*
G01*
X107181039Y-72258739D02*
G75*
G02*
X107054000Y-72385739I-127039J39D01*
G01*
X108959039Y-71741261D02*
G75*
G03*
X108832000Y-71614261I-127039J-39D01*
G01*
X107054000Y-72385700D02*
G75*
G02*
X106927000Y-72258739I0J127000D01*
G01*
X109340000Y-71614300D02*
G75*
G03*
X109213000Y-71741261I0J-127000D01*
G01*
X109848000Y-71614300D02*
G75*
G03*
X109721000Y-71741261I0J-127000D01*
G01*
X108832000Y-71614300D02*
G75*
G03*
X108705000Y-71741261I0J-127000D01*
G01*
X109213039Y-72258739D02*
G75*
G02*
X109086000Y-72385739I-127039J39D01*
G01*
X110356000Y-71900000D02*
G75*
G03*
X110229000Y-72027000I0J-127000D01*
G01*
X108705039Y-72258739D02*
G75*
G02*
X108578000Y-72385739I-127039J39D01*
G01*
X108451039Y-71741261D02*
G75*
G03*
X108324000Y-71614261I-127039J-39D01*
G01*
X110229039Y-72258739D02*
G75*
G02*
X110102000Y-72385739I-127039J39D01*
G01*
X109975039Y-71741261D02*
G75*
G03*
X109848000Y-71614261I-127039J-39D01*
G01*
X108197039Y-72258739D02*
G75*
G02*
X108070000Y-72385739I-127039J39D01*
G01*
X110102000Y-72385700D02*
G75*
G02*
X109975000Y-72258739I0J127000D01*
G01*
X109086000Y-72385700D02*
G75*
G02*
X108959000Y-72258739I0J127000D01*
G01*
D47*
X113434900Y-72382700D02*
X113434900Y-72500000D01*
X108915300Y-70315100D02*
X108915300Y-70265100D01*
X111201300Y-70265100D02*
X111201300Y-70215100D01*
X111201300Y-70315100D02*
X111201300Y-70265100D01*
X109372500Y-70265100D02*
X109372500Y-70215100D01*
X109601100Y-70215100D02*
X109601100Y-70265100D01*
X110972700Y-70265100D02*
X110972700Y-70315100D01*
X112731612Y-70265100D02*
X113434900Y-70968388D01*
X111853677Y-70265100D02*
X112731612Y-70265100D01*
X111022700Y-70365100D02*
X111151300Y-70365100D01*
X109143900Y-70215100D02*
X109143900Y-70265100D01*
X113400000Y-72534900D02*
X113400000Y-73000000D01*
X108229500Y-70215100D02*
X108229500Y-70265100D01*
X109422500Y-70165100D02*
X109551100Y-70165100D01*
X107543700Y-70315100D02*
X107543700Y-70265100D01*
X109143900Y-70265100D02*
X109143900Y-70315100D01*
X109879700Y-70165100D02*
X110008300Y-70165100D01*
X110515500Y-70215100D02*
X110515500Y-70265100D01*
X109372500Y-70315100D02*
X109372500Y-70265100D01*
X108458100Y-70315100D02*
X108458100Y-70265100D01*
X108915300Y-70265100D02*
X108915300Y-70215100D01*
X108508100Y-70165100D02*
X108636700Y-70165100D01*
X110286900Y-70265100D02*
X110286900Y-70215100D01*
X113434900Y-70968388D02*
X113434900Y-71265100D01*
X108229500Y-70265100D02*
X108229500Y-70315100D01*
X96665100Y-72665100D02*
X96665100Y-71368388D01*
X110058300Y-70215100D02*
X110058300Y-70265100D01*
X108050900Y-70165100D02*
X108179500Y-70165100D01*
X97768388Y-70265100D02*
X107265100Y-70265100D01*
X107365100Y-70365100D02*
X107493700Y-70365100D01*
X108279500Y-70365100D02*
X108408100Y-70365100D01*
X108736700Y-70365100D02*
X108865300Y-70365100D01*
X108686700Y-70215100D02*
X108686700Y-70265100D01*
X110972700Y-70215100D02*
X110972700Y-70265100D01*
X107772300Y-70265100D02*
X107772300Y-70315100D01*
X110565500Y-70365100D02*
X110694100Y-70365100D01*
X112714300Y-72268400D02*
X113320600Y-72268400D01*
X111479900Y-70265100D02*
X111853677Y-70265100D01*
X108965300Y-70165100D02*
X109093900Y-70165100D01*
X109829700Y-70265100D02*
X109829700Y-70215100D01*
X110286900Y-70315100D02*
X110286900Y-70265100D01*
X108000900Y-70315100D02*
X108000900Y-70265100D01*
X107593700Y-70165100D02*
X107722300Y-70165100D01*
X111251300Y-70165100D02*
X111379900Y-70165100D01*
X107822300Y-70365100D02*
X107950900Y-70365100D01*
X113434900Y-72500000D02*
X113400000Y-72534900D01*
X109601100Y-70265100D02*
X109601100Y-70315100D01*
X110744100Y-70265100D02*
X110744100Y-70215100D01*
X97000000Y-73000000D02*
X96665100Y-72665100D01*
X110058300Y-70265100D02*
X110058300Y-70315100D01*
X108686700Y-70265100D02*
X108686700Y-70315100D01*
X109193900Y-70365100D02*
X109322500Y-70365100D01*
X110794100Y-70165100D02*
X110922700Y-70165100D01*
X96665100Y-71368388D02*
X97768388Y-70265100D01*
X109829700Y-70315100D02*
X109829700Y-70265100D01*
X110108300Y-70365100D02*
X110236900Y-70365100D01*
X108458100Y-70265100D02*
X108458100Y-70215100D01*
X113320600Y-71379400D02*
X112714300Y-71379400D01*
X110515500Y-70265100D02*
X110515500Y-70315100D01*
X109651100Y-70365100D02*
X109779700Y-70365100D01*
X110336900Y-70165100D02*
X110465500Y-70165100D01*
X107543700Y-70265100D02*
X107543700Y-70215100D01*
X108000900Y-70265100D02*
X108000900Y-70215100D01*
X110744100Y-70315100D02*
X110744100Y-70265100D01*
X107772300Y-70215100D02*
X107772300Y-70265100D01*
X109601100Y-70215100D02*
G75*
G03*
X109551100Y-70165100I-50000J0D01*
G01*
X110565500Y-70365100D02*
G75*
G02*
X110515500Y-70315100I0J50000D01*
G01*
X111201300Y-70315100D02*
G75*
G02*
X111151300Y-70365100I-50000J0D01*
G01*
X107593700Y-70165100D02*
G75*
G03*
X107543700Y-70215100I0J-50000D01*
G01*
X108686700Y-70215100D02*
G75*
G03*
X108636700Y-70165100I-50000J0D01*
G01*
X107543700Y-70315100D02*
G75*
G02*
X107493700Y-70365100I-50000J0D01*
G01*
X108279500Y-70365100D02*
G75*
G02*
X108229500Y-70315100I0J50000D01*
G01*
X108736700Y-70365100D02*
G75*
G02*
X108686700Y-70315100I0J50000D01*
G01*
X113434900Y-72382700D02*
G75*
G03*
X113320600Y-72268400I-114300J0D01*
G01*
X110286900Y-70315100D02*
G75*
G02*
X110236900Y-70365100I-50000J0D01*
G01*
X109193900Y-70365100D02*
G75*
G02*
X109143900Y-70315100I0J50000D01*
G01*
X110108300Y-70365100D02*
G75*
G02*
X110058300Y-70315100I0J50000D01*
G01*
X109372500Y-70315100D02*
G75*
G02*
X109322500Y-70365100I-50000J0D01*
G01*
X112714300Y-72268400D02*
G75*
G02*
X112269800Y-71823900I0J444500D01*
G01*
X108965300Y-70165100D02*
G75*
G03*
X108915300Y-70215100I0J-50000D01*
G01*
X107822300Y-70365100D02*
G75*
G02*
X107772300Y-70315100I0J50000D01*
G01*
X110972700Y-70215100D02*
G75*
G03*
X110922700Y-70165100I-50000J0D01*
G01*
X110744100Y-70315100D02*
G75*
G02*
X110694100Y-70365100I-50000J0D01*
G01*
X108000900Y-70315100D02*
G75*
G02*
X107950900Y-70365100I-50000J0D01*
G01*
X108050900Y-70165100D02*
G75*
G03*
X108000900Y-70215100I0J-50000D01*
G01*
X108915300Y-70315100D02*
G75*
G02*
X108865300Y-70365100I-50000J0D01*
G01*
X108508100Y-70165100D02*
G75*
G03*
X108458100Y-70215100I0J-50000D01*
G01*
X109651100Y-70365100D02*
G75*
G02*
X109601100Y-70315100I0J50000D01*
G01*
X109422500Y-70165100D02*
G75*
G03*
X109372500Y-70215100I0J-50000D01*
G01*
X109879700Y-70165100D02*
G75*
G03*
X109829700Y-70215100I0J-50000D01*
G01*
X108229500Y-70215100D02*
G75*
G03*
X108179500Y-70165100I-50000J0D01*
G01*
X111251300Y-70165100D02*
G75*
G03*
X111201300Y-70215100I0J-50000D01*
G01*
X111479900Y-70265100D02*
G75*
G02*
X111429900Y-70215100I0J50000D01*
G01*
X110336900Y-70165100D02*
G75*
G03*
X110286900Y-70215100I0J-50000D01*
G01*
X111429900Y-70215100D02*
G75*
G03*
X111379900Y-70165100I-50000J0D01*
G01*
X112269800Y-71823900D02*
G75*
G02*
X112714300Y-71379400I444500J0D01*
G01*
X109829700Y-70315100D02*
G75*
G02*
X109779700Y-70365100I-50000J0D01*
G01*
X110515500Y-70215100D02*
G75*
G03*
X110465500Y-70165100I-50000J0D01*
G01*
X113320600Y-71379400D02*
G75*
G03*
X113434900Y-71265100I0J114300D01*
G01*
X107315100Y-70315100D02*
G75*
G03*
X107265100Y-70265100I-50000J0D01*
G01*
X111022700Y-70365100D02*
G75*
G02*
X110972700Y-70315100I0J50000D01*
G01*
X110794100Y-70165100D02*
G75*
G03*
X110744100Y-70215100I0J-50000D01*
G01*
X110058300Y-70215100D02*
G75*
G03*
X110008300Y-70165100I-50000J0D01*
G01*
X109143900Y-70215100D02*
G75*
G03*
X109093900Y-70165100I-50000J0D01*
G01*
X108458100Y-70315100D02*
G75*
G02*
X108408100Y-70365100I-50000J0D01*
G01*
X107365100Y-70365100D02*
G75*
G02*
X107315100Y-70315100I0J50000D01*
G01*
X107772300Y-70215100D02*
G75*
G03*
X107722300Y-70165100I-50000J0D01*
G01*
X113320600Y-71709600D02*
X112714300Y-71709600D01*
X112868388Y-69934900D02*
X113765100Y-70831612D01*
X113765100Y-72500000D02*
X113800000Y-72534900D01*
X113765100Y-72382700D02*
X113765100Y-72500000D01*
X113600000Y-73400000D02*
X113000000Y-73400000D01*
X96334900Y-72665100D02*
X96334900Y-71231612D01*
X97631612Y-69934900D02*
X112868388Y-69934900D01*
X113800000Y-72534900D02*
X113800000Y-73200000D01*
X113765100Y-70831612D02*
X113765100Y-71265100D01*
X96000000Y-73000000D02*
X96334900Y-72665100D01*
X113800000Y-73200000D02*
X113600000Y-73400000D01*
X112714300Y-71938200D02*
X113320600Y-71938200D01*
X96334900Y-71231612D02*
X97631612Y-69934900D01*
X113000000Y-73400000D02*
X112600000Y-73800000D01*
X113320600Y-71709600D02*
G75*
G03*
X113765100Y-71265100I0J444500D01*
G01*
X113765100Y-72382700D02*
G75*
G03*
X113320600Y-71938200I-444500J0D01*
G01*
X112600000Y-71823900D02*
G75*
G02*
X112714300Y-71709600I114300J0D01*
G01*
X112714300Y-71938200D02*
G75*
G02*
X112600000Y-71823900I0J114300D01*
G01*
D46*
X109400000Y-80200000D02*
X110000000Y-80200000D01*
X102889000Y-81092827D02*
X102889000Y-81500000D01*
X105683000Y-81500000D02*
X105683000Y-81092827D01*
X106318000Y-81500000D02*
X106500000Y-81500000D01*
X104413000Y-81500000D02*
X104413000Y-81807173D01*
X104921000Y-81500000D02*
X104921000Y-81807173D01*
X100350000Y-79000000D02*
X101400000Y-80050000D01*
X106750000Y-80350000D02*
X107350000Y-79750000D01*
X105937000Y-81500000D02*
X105937000Y-81807173D01*
X107900000Y-78600000D02*
X108600000Y-78600000D01*
X101400000Y-80050000D02*
X101400000Y-81150000D01*
X101750000Y-81500000D02*
X102000000Y-81500000D01*
X104667000Y-81500000D02*
X104667000Y-81092827D01*
X105429000Y-81092827D02*
X105429000Y-81500000D01*
X103651000Y-81807173D02*
X103651000Y-81500000D01*
X102635000Y-81500000D02*
X102635000Y-81092827D01*
X106500000Y-81500000D02*
X106750000Y-81250000D01*
X102381000Y-81092827D02*
X102381000Y-81373000D01*
X104159000Y-81807173D02*
X104159000Y-81500000D01*
X105683000Y-81807173D02*
X105683000Y-81500000D01*
X103397000Y-81500000D02*
X103397000Y-81807173D01*
X107350000Y-79150000D02*
X107900000Y-78600000D01*
X106191000Y-81807173D02*
X106191000Y-81627000D01*
X102127000Y-81373000D02*
X102127000Y-81092827D01*
X103143000Y-81807173D02*
X103143000Y-81500000D01*
X104413000Y-81092827D02*
X104413000Y-81500000D01*
X105175000Y-81500000D02*
X105175000Y-81092827D01*
X103397000Y-81092827D02*
X103397000Y-81500000D01*
X105937000Y-81092827D02*
X105937000Y-81500000D01*
X103905000Y-81092827D02*
X103905000Y-81500000D01*
X103905000Y-81500000D02*
X103905000Y-81807173D01*
X105429000Y-81500000D02*
X105429000Y-81807173D01*
X100000000Y-79000000D02*
X100350000Y-79000000D01*
X102381000Y-81373000D02*
X102381000Y-81807173D01*
X104159000Y-81500000D02*
X104159000Y-81092827D01*
X104921000Y-81092827D02*
X104921000Y-81500000D01*
X104667000Y-81807173D02*
X104667000Y-81500000D01*
X106750000Y-81250000D02*
X106750000Y-80350000D01*
X105175000Y-81807173D02*
X105175000Y-81500000D01*
X101400000Y-81150000D02*
X101750000Y-81500000D01*
X102889000Y-81500000D02*
X102889000Y-81807173D01*
X103143000Y-81500000D02*
X103143000Y-81092827D01*
X102635000Y-81807173D02*
X102635000Y-81500000D01*
X107350000Y-79750000D02*
X107350000Y-79150000D01*
X103651000Y-81500000D02*
X103651000Y-81092827D01*
X102888973Y-81092827D02*
G75*
G03*
X102762000Y-80965827I-126973J27D01*
G01*
X103904973Y-81092827D02*
G75*
G03*
X103778000Y-80965827I-126973J27D01*
G01*
X104032000Y-81934200D02*
G75*
G02*
X103905000Y-81807173I0J127000D01*
G01*
X103270000Y-80965800D02*
G75*
G03*
X103143000Y-81092827I0J-127000D01*
G01*
X104158973Y-81807173D02*
G75*
G02*
X104032000Y-81934173I-126973J-27D01*
G01*
X103650973Y-81807173D02*
G75*
G02*
X103524000Y-81934173I-126973J-27D01*
G01*
X103142973Y-81807173D02*
G75*
G02*
X103016000Y-81934173I-126973J-27D01*
G01*
X102634973Y-81807173D02*
G75*
G02*
X102508000Y-81934173I-126973J-27D01*
G01*
X104412973Y-81092827D02*
G75*
G03*
X104286000Y-80965827I-126973J27D01*
G01*
X105556000Y-81934200D02*
G75*
G02*
X105429000Y-81807173I0J127000D01*
G01*
X106190973Y-81807173D02*
G75*
G02*
X106064000Y-81934173I-126973J-27D01*
G01*
X103396973Y-81092827D02*
G75*
G03*
X103270000Y-80965827I-126973J27D01*
G01*
X105810000Y-80965800D02*
G75*
G03*
X105683000Y-81092827I0J-127000D01*
G01*
X104540000Y-81934200D02*
G75*
G02*
X104413000Y-81807173I0J127000D01*
G01*
X106318000Y-81500000D02*
G75*
G03*
X106191000Y-81627000I0J-127000D01*
G01*
X103778000Y-80965800D02*
G75*
G03*
X103651000Y-81092827I0J-127000D01*
G01*
X102380973Y-81092827D02*
G75*
G03*
X102254000Y-80965827I-126973J27D01*
G01*
X102254000Y-80965800D02*
G75*
G03*
X102127000Y-81092827I0J-127000D01*
G01*
X102508000Y-81934200D02*
G75*
G02*
X102381000Y-81807173I0J127000D01*
G01*
X105302000Y-80965800D02*
G75*
G03*
X105175000Y-81092827I0J-127000D01*
G01*
X104666973Y-81807173D02*
G75*
G02*
X104540000Y-81934173I-126973J-27D01*
G01*
X105048000Y-81934200D02*
G75*
G02*
X104921000Y-81807173I0J127000D01*
G01*
X103016000Y-81934200D02*
G75*
G02*
X102889000Y-81807173I0J127000D01*
G01*
X106064000Y-81934200D02*
G75*
G02*
X105937000Y-81807173I0J127000D01*
G01*
X105174973Y-81807173D02*
G75*
G02*
X105048000Y-81934173I-126973J-27D01*
G01*
X105936973Y-81092827D02*
G75*
G03*
X105810000Y-80965827I-126973J27D01*
G01*
X104794000Y-80965800D02*
G75*
G03*
X104667000Y-81092827I0J-127000D01*
G01*
X103524000Y-81934200D02*
G75*
G02*
X103397000Y-81807173I0J127000D01*
G01*
X105682973Y-81807173D02*
G75*
G02*
X105556000Y-81934173I-126973J-27D01*
G01*
X102762000Y-80965800D02*
G75*
G03*
X102635000Y-81092827I0J-127000D01*
G01*
X102127000Y-81373000D02*
G75*
G02*
X102000000Y-81500000I-127000J0D01*
G01*
X104286000Y-80965800D02*
G75*
G03*
X104159000Y-81092827I0J-127000D01*
G01*
X105428973Y-81092827D02*
G75*
G03*
X105302000Y-80965827I-126973J27D01*
G01*
X104920973Y-81092827D02*
G75*
G03*
X104794000Y-80965827I-126973J27D01*
G01*
X112600000Y-80200000D02*
X112000000Y-80200000D01*
X96000000Y-78000000D02*
X96500000Y-78500000D01*
X100750000Y-79850000D02*
X100750000Y-82250000D01*
X104671000Y-82340519D02*
X104671000Y-82500000D01*
X106195000Y-82500000D02*
X106195000Y-82659481D01*
X108150000Y-79850000D02*
X108600000Y-79400000D01*
X102893000Y-82709481D02*
X102893000Y-82500000D01*
X103401000Y-82659481D02*
X103401000Y-82500000D01*
X103401000Y-82500000D02*
X103401000Y-82340519D01*
X102131000Y-82373000D02*
X102131000Y-82709481D01*
X99000000Y-79000000D02*
X99500000Y-79500000D01*
X105941000Y-82500000D02*
X105941000Y-82340519D01*
X104163000Y-82500000D02*
X104163000Y-82759481D01*
X103909000Y-82709481D02*
X103909000Y-82500000D01*
X105179000Y-82500000D02*
X105179000Y-82709481D01*
X107000000Y-82500000D02*
X107250000Y-82250000D01*
X106449000Y-82500000D02*
X106449000Y-81890519D01*
X104925000Y-82500000D02*
X104925000Y-82340519D01*
X104417000Y-82500000D02*
X104417000Y-82340519D01*
X105433000Y-82709481D02*
X105433000Y-82500000D01*
X103909000Y-82500000D02*
X103909000Y-82340519D01*
X105179000Y-82340519D02*
X105179000Y-82500000D01*
X103655000Y-82500000D02*
X103655000Y-82709481D01*
X102131000Y-81940519D02*
X102131000Y-82373000D01*
X107850000Y-79850000D02*
X108150000Y-79850000D01*
X103655000Y-82340519D02*
X103655000Y-82500000D01*
X106703000Y-81890519D02*
X106703000Y-82373000D01*
X105687000Y-82340519D02*
X105687000Y-82500000D01*
X106195000Y-82340519D02*
X106195000Y-82500000D01*
X100400000Y-79500000D02*
X100750000Y-79850000D01*
X104925000Y-82659481D02*
X104925000Y-82500000D01*
X103147000Y-82340519D02*
X103147000Y-82500000D01*
X105941000Y-82759481D02*
X105941000Y-82500000D01*
X99500000Y-79500000D02*
X100400000Y-79500000D01*
X105687000Y-82500000D02*
X105687000Y-82759481D01*
X102639000Y-82500000D02*
X102639000Y-82709481D01*
X107250000Y-82250000D02*
X107250000Y-80450000D01*
X104417000Y-82759481D02*
X104417000Y-82500000D01*
X104163000Y-82340519D02*
X104163000Y-82500000D01*
X106830000Y-82500000D02*
X107000000Y-82500000D01*
X105433000Y-82500000D02*
X105433000Y-82340519D01*
X102893000Y-82500000D02*
X102893000Y-82340519D01*
X101877000Y-82373000D02*
X101877000Y-81940519D01*
X103147000Y-82500000D02*
X103147000Y-82659481D01*
X104671000Y-82500000D02*
X104671000Y-82659481D01*
X106449000Y-82659481D02*
X106449000Y-82500000D01*
X102385000Y-82709481D02*
X102385000Y-82500000D01*
X100750000Y-82250000D02*
X101000000Y-82500000D01*
X101000000Y-82500000D02*
X101750000Y-82500000D01*
X107250000Y-80450000D02*
X107850000Y-79850000D01*
X102385000Y-82500000D02*
X102385000Y-82340519D01*
X102639000Y-82340519D02*
X102639000Y-82500000D01*
X106068000Y-82213500D02*
G75*
G03*
X105941000Y-82340519I0J-127000D01*
G01*
X105940981Y-82759481D02*
G75*
G02*
X105814000Y-82886481I-126981J-19D01*
G01*
X104798000Y-82786500D02*
G75*
G02*
X104671000Y-82659481I0J127000D01*
G01*
X103654981Y-82340519D02*
G75*
G03*
X103528000Y-82213519I-126981J19D01*
G01*
X106194981Y-82340519D02*
G75*
G03*
X106068000Y-82213519I-126981J19D01*
G01*
X102512000Y-82213500D02*
G75*
G03*
X102385000Y-82340519I0J-127000D01*
G01*
X103908981Y-82709481D02*
G75*
G02*
X103782000Y-82836481I-126981J-19D01*
G01*
X105814000Y-82886500D02*
G75*
G02*
X105687000Y-82759481I0J127000D01*
G01*
X106448981Y-82659481D02*
G75*
G02*
X106322000Y-82786481I-126981J-19D01*
G01*
X104670981Y-82340519D02*
G75*
G03*
X104544000Y-82213519I-126981J19D01*
G01*
X105306000Y-82836500D02*
G75*
G02*
X105179000Y-82709481I0J127000D01*
G01*
X102892981Y-82709481D02*
G75*
G02*
X102766000Y-82836481I-126981J-19D01*
G01*
X102258000Y-82836500D02*
G75*
G02*
X102131000Y-82709481I0J127000D01*
G01*
X103528000Y-82213500D02*
G75*
G03*
X103401000Y-82340519I0J-127000D01*
G01*
X103400981Y-82659481D02*
G75*
G02*
X103274000Y-82786481I-126981J-19D01*
G01*
X105560000Y-82213500D02*
G75*
G03*
X105433000Y-82340519I0J-127000D01*
G01*
X106830000Y-82500000D02*
G75*
G02*
X106703000Y-82373000I0J127000D01*
G01*
X102130981Y-81940519D02*
G75*
G03*
X102004000Y-81813519I-126981J19D01*
G01*
X104544000Y-82213500D02*
G75*
G03*
X104417000Y-82340519I0J-127000D01*
G01*
X104924981Y-82659481D02*
G75*
G02*
X104798000Y-82786481I-126981J-19D01*
G01*
X105178981Y-82340519D02*
G75*
G03*
X105052000Y-82213519I-126981J19D01*
G01*
X104036000Y-82213500D02*
G75*
G03*
X103909000Y-82340519I0J-127000D01*
G01*
X104290000Y-82886500D02*
G75*
G02*
X104163000Y-82759481I0J127000D01*
G01*
X106702981Y-81890519D02*
G75*
G03*
X106576000Y-81763519I-126981J19D01*
G01*
X102384981Y-82709481D02*
G75*
G02*
X102258000Y-82836481I-126981J-19D01*
G01*
X106322000Y-82786500D02*
G75*
G02*
X106195000Y-82659481I0J127000D01*
G01*
X105052000Y-82213500D02*
G75*
G03*
X104925000Y-82340519I0J-127000D01*
G01*
X105686981Y-82340519D02*
G75*
G03*
X105560000Y-82213519I-126981J19D01*
G01*
X103020000Y-82213500D02*
G75*
G03*
X102893000Y-82340519I0J-127000D01*
G01*
X103146981Y-82340519D02*
G75*
G03*
X103020000Y-82213519I-126981J19D01*
G01*
X106576000Y-81763500D02*
G75*
G03*
X106449000Y-81890519I0J-127000D01*
G01*
X104162981Y-82340519D02*
G75*
G03*
X104036000Y-82213519I-126981J19D01*
G01*
X104416981Y-82759481D02*
G75*
G02*
X104290000Y-82886481I-126981J-19D01*
G01*
X102638981Y-82340519D02*
G75*
G03*
X102512000Y-82213519I-126981J19D01*
G01*
X103782000Y-82836500D02*
G75*
G02*
X103655000Y-82709481I0J127000D01*
G01*
X105432981Y-82709481D02*
G75*
G02*
X105306000Y-82836481I-126981J-19D01*
G01*
X101877000Y-82373000D02*
G75*
G02*
X101750000Y-82500000I-127000J0D01*
G01*
X103274000Y-82786500D02*
G75*
G02*
X103147000Y-82659481I0J127000D01*
G01*
X102004000Y-81813500D02*
G75*
G03*
X101877000Y-81940519I0J-127000D01*
G01*
X102766000Y-82836500D02*
G75*
G02*
X102639000Y-82709481I0J127000D01*
G01*
X107957800Y-76642200D02*
X109042200Y-76642200D01*
X109042200Y-76642200D02*
X109400000Y-77000000D01*
X101527000Y-77573000D02*
X101527000Y-77333664D01*
X103813000Y-77333664D02*
X103813000Y-78066336D01*
X104829000Y-77333664D02*
X104829000Y-78066336D01*
X101340000Y-77700000D02*
X101400000Y-77700000D01*
X106226000Y-77700000D02*
X106670000Y-77700000D01*
X105591000Y-78066336D02*
X105591000Y-77333664D01*
X105845000Y-77333664D02*
X105845000Y-78066336D01*
X107670000Y-76700000D02*
X107900000Y-76700000D01*
X102035000Y-78066336D02*
X102035000Y-77333664D01*
X101781000Y-77333664D02*
X101781000Y-78066336D01*
X102797000Y-77333664D02*
X102797000Y-78066336D01*
X100640000Y-77000000D02*
X101340000Y-77700000D01*
X102289000Y-77333664D02*
X102289000Y-78066336D01*
X103305000Y-77333664D02*
X103305000Y-78066336D01*
X104575000Y-78066336D02*
X104575000Y-77333664D01*
X107900000Y-76700000D02*
X107957800Y-76642200D01*
X102543000Y-78066336D02*
X102543000Y-77333664D01*
X104321000Y-77333664D02*
X104321000Y-78066336D01*
X105337000Y-77333664D02*
X105337000Y-78066336D01*
X100000000Y-77000000D02*
X100640000Y-77000000D01*
X106099000Y-78066336D02*
X106099000Y-77827000D01*
X105083000Y-78066336D02*
X105083000Y-77333664D01*
X103051000Y-78066336D02*
X103051000Y-77333664D01*
X104067000Y-78066336D02*
X104067000Y-77333664D01*
X106670000Y-77700000D02*
X107670000Y-76700000D01*
X103559000Y-78066336D02*
X103559000Y-77333664D01*
X105972000Y-78193300D02*
G75*
G02*
X105845000Y-78066336I0J127000D01*
G01*
X103686000Y-77206700D02*
G75*
G03*
X103559000Y-77333664I0J-127000D01*
G01*
X106226000Y-77700000D02*
G75*
G03*
X106099000Y-77827000I0J-127000D01*
G01*
X103051036Y-78066336D02*
G75*
G02*
X102924000Y-78193336I-127036J36D01*
G01*
X104321036Y-77333664D02*
G75*
G03*
X104194000Y-77206664I-127036J-36D01*
G01*
X105845036Y-77333664D02*
G75*
G03*
X105718000Y-77206664I-127036J-36D01*
G01*
X101908000Y-78193300D02*
G75*
G02*
X101781000Y-78066336I0J127000D01*
G01*
X102797036Y-77333664D02*
G75*
G03*
X102670000Y-77206664I-127036J-36D01*
G01*
X103559036Y-78066336D02*
G75*
G02*
X103432000Y-78193336I-127036J36D01*
G01*
X105083036Y-78066336D02*
G75*
G02*
X104956000Y-78193336I-127036J36D01*
G01*
X102543036Y-78066336D02*
G75*
G02*
X102416000Y-78193336I-127036J36D01*
G01*
X101527000Y-77573000D02*
G75*
G02*
X101400000Y-77700000I-127000J0D01*
G01*
X103813036Y-77333664D02*
G75*
G03*
X103686000Y-77206664I-127036J-36D01*
G01*
X104702000Y-77206700D02*
G75*
G03*
X104575000Y-77333664I0J-127000D01*
G01*
X104194000Y-77206700D02*
G75*
G03*
X104067000Y-77333664I0J-127000D01*
G01*
X102162000Y-77206700D02*
G75*
G03*
X102035000Y-77333664I0J-127000D01*
G01*
X104448000Y-78193300D02*
G75*
G02*
X104321000Y-78066336I0J127000D01*
G01*
X101781036Y-77333664D02*
G75*
G03*
X101654000Y-77206664I-127036J-36D01*
G01*
X106099036Y-78066336D02*
G75*
G02*
X105972000Y-78193336I-127036J36D01*
G01*
X105337036Y-77333664D02*
G75*
G03*
X105210000Y-77206664I-127036J-36D01*
G01*
X105464000Y-78193300D02*
G75*
G02*
X105337000Y-78066336I0J127000D01*
G01*
X105210000Y-77206700D02*
G75*
G03*
X105083000Y-77333664I0J-127000D01*
G01*
X105718000Y-77206700D02*
G75*
G03*
X105591000Y-77333664I0J-127000D01*
G01*
X104575036Y-78066336D02*
G75*
G02*
X104448000Y-78193336I-127036J36D01*
G01*
X105591036Y-78066336D02*
G75*
G02*
X105464000Y-78193336I-127036J36D01*
G01*
X103432000Y-78193300D02*
G75*
G02*
X103305000Y-78066336I0J127000D01*
G01*
X102416000Y-78193300D02*
G75*
G02*
X102289000Y-78066336I0J127000D01*
G01*
X103178000Y-77206700D02*
G75*
G03*
X103051000Y-77333664I0J-127000D01*
G01*
X102670000Y-77206700D02*
G75*
G03*
X102543000Y-77333664I0J-127000D01*
G01*
X104956000Y-78193300D02*
G75*
G02*
X104829000Y-78066336I0J127000D01*
G01*
X101654000Y-77206700D02*
G75*
G03*
X101527000Y-77333664I0J-127000D01*
G01*
X102035036Y-78066336D02*
G75*
G02*
X101908000Y-78193336I-127036J36D01*
G01*
X104067036Y-78066336D02*
G75*
G02*
X103940000Y-78193336I-127036J36D01*
G01*
X104829036Y-77333664D02*
G75*
G03*
X104702000Y-77206664I-127036J-36D01*
G01*
X102289036Y-77333664D02*
G75*
G03*
X102162000Y-77206664I-127036J-36D01*
G01*
X102924000Y-78193300D02*
G75*
G02*
X102797000Y-78066336I0J127000D01*
G01*
X103940000Y-78193300D02*
G75*
G02*
X103813000Y-78066336I0J127000D01*
G01*
X103305036Y-77333664D02*
G75*
G03*
X103178000Y-77206664I-127036J-36D01*
G01*
X109400000Y-78600000D02*
X110000000Y-78600000D01*
X112600000Y-78600000D02*
X112000000Y-78600000D01*
X98000000Y-80000000D02*
X97500000Y-79500000D01*
X101389000Y-72919905D02*
X101389000Y-72500000D01*
X102659000Y-72500000D02*
X102659000Y-72919905D01*
X101897000Y-72500000D02*
X101897000Y-72330095D01*
X99500000Y-73500000D02*
X99500000Y-72700000D01*
X102913000Y-72500000D02*
X102913000Y-72330095D01*
X102151000Y-72330095D02*
X102151000Y-72500000D01*
X100881000Y-72919905D02*
X100881000Y-72627000D01*
X105961000Y-72919905D02*
X105961000Y-72627000D01*
X103167000Y-72330095D02*
X103167000Y-72500000D01*
X103167000Y-72500000D02*
X103167000Y-72919905D01*
X101643000Y-72500000D02*
X101643000Y-72919905D01*
X102405000Y-72500000D02*
X102405000Y-72330095D01*
X105453000Y-72919905D02*
X105453000Y-72500000D01*
X104945000Y-72919905D02*
X104945000Y-72500000D01*
X99700000Y-72500000D02*
X100500000Y-72500000D01*
X103929000Y-72919905D02*
X103929000Y-72500000D01*
X105199000Y-72330095D02*
X105199000Y-72500000D01*
X103929000Y-72500000D02*
X103929000Y-72330095D01*
X106088000Y-72500000D02*
X106500000Y-72500000D01*
X104945000Y-72500000D02*
X104945000Y-72330095D01*
X101389000Y-72500000D02*
X101389000Y-72330095D01*
X99500000Y-72700000D02*
X99700000Y-72500000D01*
X104437000Y-72500000D02*
X104437000Y-72330095D01*
X102659000Y-72330095D02*
X102659000Y-72500000D01*
X104691000Y-72500000D02*
X104691000Y-72919905D01*
X99000000Y-74000000D02*
X99500000Y-73500000D01*
X104183000Y-72330095D02*
X104183000Y-72500000D01*
X102151000Y-72500000D02*
X102151000Y-72919905D01*
X101135000Y-72330095D02*
X101135000Y-72500000D01*
X104691000Y-72330095D02*
X104691000Y-72500000D01*
X103421000Y-72919905D02*
X103421000Y-72500000D01*
X105199000Y-72500000D02*
X105199000Y-72919905D01*
X100881000Y-72627000D02*
X100881000Y-72330095D01*
X104183000Y-72500000D02*
X104183000Y-72919905D01*
X103421000Y-72500000D02*
X103421000Y-72330095D01*
X105707000Y-72500000D02*
X105707000Y-72919905D01*
X103675000Y-72330095D02*
X103675000Y-72500000D01*
X101643000Y-72330095D02*
X101643000Y-72500000D01*
X105707000Y-72330095D02*
X105707000Y-72500000D01*
X101135000Y-72500000D02*
X101135000Y-72919905D01*
X103675000Y-72500000D02*
X103675000Y-72919905D01*
X105453000Y-72500000D02*
X105453000Y-72330095D01*
X102913000Y-72919905D02*
X102913000Y-72500000D01*
X106500000Y-72500000D02*
X107800000Y-73800000D01*
X104437000Y-72919905D02*
X104437000Y-72500000D01*
X102405000Y-72919905D02*
X102405000Y-72500000D01*
X100627000Y-72627000D02*
X100627000Y-72919905D01*
X101897000Y-72919905D02*
X101897000Y-72500000D01*
X102532000Y-72203100D02*
G75*
G03*
X102405000Y-72330095I0J-127000D01*
G01*
X101262000Y-73046900D02*
G75*
G02*
X101135000Y-72919905I0J127000D01*
G01*
X101643005Y-72330095D02*
G75*
G03*
X101516000Y-72203095I-127005J-5D01*
G01*
X104437005Y-72919905D02*
G75*
G02*
X104310000Y-73046905I-127005J5D01*
G01*
X104691005Y-72330095D02*
G75*
G03*
X104564000Y-72203095I-127005J-5D01*
G01*
X104945005Y-72919905D02*
G75*
G02*
X104818000Y-73046905I-127005J5D01*
G01*
X105961005Y-72919905D02*
G75*
G02*
X105834000Y-73046905I-127005J5D01*
G01*
X104183005Y-72330095D02*
G75*
G03*
X104056000Y-72203095I-127005J-5D01*
G01*
X103294000Y-73046900D02*
G75*
G02*
X103167000Y-72919905I0J127000D01*
G01*
X104564000Y-72203100D02*
G75*
G03*
X104437000Y-72330095I0J-127000D01*
G01*
X102278000Y-73046900D02*
G75*
G02*
X102151000Y-72919905I0J127000D01*
G01*
X103929005Y-72919905D02*
G75*
G02*
X103802000Y-73046905I-127005J5D01*
G01*
X100754000Y-73046900D02*
G75*
G02*
X100627000Y-72919905I0J127000D01*
G01*
X103675005Y-72330095D02*
G75*
G03*
X103548000Y-72203095I-127005J-5D01*
G01*
X103167005Y-72330095D02*
G75*
G03*
X103040000Y-72203095I-127005J-5D01*
G01*
X104056000Y-72203100D02*
G75*
G03*
X103929000Y-72330095I0J-127000D01*
G01*
X104818000Y-73046900D02*
G75*
G02*
X104691000Y-72919905I0J127000D01*
G01*
X105834000Y-73046900D02*
G75*
G02*
X105707000Y-72919905I0J127000D01*
G01*
X102786000Y-73046900D02*
G75*
G02*
X102659000Y-72919905I0J127000D01*
G01*
X102659005Y-72330095D02*
G75*
G03*
X102532000Y-72203095I-127005J-5D01*
G01*
X103548000Y-72203100D02*
G75*
G03*
X103421000Y-72330095I0J-127000D01*
G01*
X105326000Y-73046900D02*
G75*
G02*
X105199000Y-72919905I0J127000D01*
G01*
X105199005Y-72330095D02*
G75*
G03*
X105072000Y-72203095I-127005J-5D01*
G01*
X102151005Y-72330095D02*
G75*
G03*
X102024000Y-72203095I-127005J-5D01*
G01*
X105453005Y-72919905D02*
G75*
G02*
X105326000Y-73046905I-127005J5D01*
G01*
X101008000Y-72203100D02*
G75*
G03*
X100881000Y-72330095I0J-127000D01*
G01*
X106088000Y-72500000D02*
G75*
G03*
X105961000Y-72627000I0J-127000D01*
G01*
X103421005Y-72919905D02*
G75*
G02*
X103294000Y-73046905I-127005J5D01*
G01*
X103802000Y-73046900D02*
G75*
G02*
X103675000Y-72919905I0J127000D01*
G01*
X101516000Y-72203100D02*
G75*
G03*
X101389000Y-72330095I0J-127000D01*
G01*
X102405005Y-72919905D02*
G75*
G02*
X102278000Y-73046905I-127005J5D01*
G01*
X102913005Y-72919905D02*
G75*
G02*
X102786000Y-73046905I-127005J5D01*
G01*
X100627000Y-72627000D02*
G75*
G03*
X100500000Y-72500000I-127000J0D01*
G01*
X101770000Y-73046900D02*
G75*
G02*
X101643000Y-72919905I0J127000D01*
G01*
X103040000Y-72203100D02*
G75*
G03*
X102913000Y-72330095I0J-127000D01*
G01*
X105707005Y-72330095D02*
G75*
G03*
X105580000Y-72203095I-127005J-5D01*
G01*
X101389005Y-72919905D02*
G75*
G02*
X101262000Y-73046905I-127005J5D01*
G01*
X101135005Y-72330095D02*
G75*
G03*
X101008000Y-72203095I-127005J-5D01*
G01*
X102024000Y-72203100D02*
G75*
G03*
X101897000Y-72330095I0J-127000D01*
G01*
X104310000Y-73046900D02*
G75*
G02*
X104183000Y-72919905I0J127000D01*
G01*
X101897005Y-72919905D02*
G75*
G02*
X101770000Y-73046905I-127005J5D01*
G01*
X105072000Y-72203100D02*
G75*
G03*
X104945000Y-72330095I0J-127000D01*
G01*
X100881005Y-72919905D02*
G75*
G02*
X100754000Y-73046905I-127005J5D01*
G01*
X105580000Y-72203100D02*
G75*
G03*
X105453000Y-72330095I0J-127000D01*
G01*
X101675000Y-71205298D02*
X101675000Y-71462403D01*
X100151000Y-71205298D02*
X100151000Y-71462403D01*
X100499701Y-71110597D02*
X100564299Y-71110597D01*
X98400000Y-71300000D02*
X98500000Y-71300000D01*
X101007701Y-71110597D02*
X101072299Y-71110597D01*
X100405000Y-71462403D02*
X100405000Y-71205298D01*
X99135000Y-71205298D02*
X99135000Y-71462403D01*
X98000000Y-71700000D02*
X98400000Y-71300000D01*
X101929000Y-71462403D02*
X101929000Y-71427000D01*
X101421000Y-71462403D02*
X101421000Y-71205298D01*
X98881000Y-71462403D02*
X98881000Y-71205298D01*
X98627000Y-71427000D02*
X98627000Y-71462403D01*
X111500000Y-71700000D02*
X111500000Y-74600000D01*
X99897000Y-71462403D02*
X99897000Y-71205298D01*
X98975701Y-71110597D02*
X99040299Y-71110597D01*
X99389000Y-71462403D02*
X99389000Y-71205298D01*
X102056000Y-71300000D02*
X111100000Y-71300000D01*
X99991701Y-71110597D02*
X100056299Y-71110597D01*
X111942200Y-75042200D02*
X113842200Y-75042200D01*
X98000000Y-73000000D02*
X98000000Y-71700000D01*
X111500000Y-74600000D02*
X111942200Y-75042200D01*
X111100000Y-71300000D02*
X111500000Y-71700000D01*
X99643000Y-71205298D02*
X99643000Y-71462403D01*
X101167000Y-71205298D02*
X101167000Y-71462403D01*
X113945000Y-75145000D02*
X114200000Y-75400000D01*
X100913000Y-71462403D02*
X100913000Y-71205298D01*
X99483701Y-71110597D02*
X99548299Y-71110597D01*
X101515701Y-71110597D02*
X101580299Y-71110597D01*
X100659000Y-71205298D02*
X100659000Y-71462403D01*
X113842200Y-75042200D02*
X113945000Y-75145000D01*
X101675003Y-71205298D02*
G75*
G03*
X101580299Y-71110597I-94703J-2D01*
G01*
X100786000Y-71589400D02*
G75*
G02*
X100659000Y-71462403I0J127000D01*
G01*
X102056000Y-71300000D02*
G75*
G03*
X101929000Y-71427000I0J-127000D01*
G01*
X99643003Y-71205298D02*
G75*
G03*
X99548299Y-71110597I-94703J-2D01*
G01*
X101515701Y-71110600D02*
G75*
G03*
X101421000Y-71205298I-1J-94700D01*
G01*
X99770000Y-71589400D02*
G75*
G02*
X99643000Y-71462403I0J127000D01*
G01*
X99897003Y-71462403D02*
G75*
G02*
X99770000Y-71589403I-127003J3D01*
G01*
X100278000Y-71589400D02*
G75*
G02*
X100151000Y-71462403I0J127000D01*
G01*
X99262000Y-71589400D02*
G75*
G02*
X99135000Y-71462403I0J127000D01*
G01*
X99991701Y-71110600D02*
G75*
G03*
X99897000Y-71205298I-1J-94700D01*
G01*
X101421003Y-71462403D02*
G75*
G02*
X101294000Y-71589403I-127003J3D01*
G01*
X100151003Y-71205298D02*
G75*
G03*
X100056299Y-71110597I-94703J-2D01*
G01*
X99135003Y-71205298D02*
G75*
G03*
X99040299Y-71110597I-94703J-2D01*
G01*
X98754000Y-71589400D02*
G75*
G02*
X98627000Y-71462403I0J127000D01*
G01*
X100499701Y-71110600D02*
G75*
G03*
X100405000Y-71205298I-1J-94700D01*
G01*
X100659003Y-71205298D02*
G75*
G03*
X100564299Y-71110597I-94703J-2D01*
G01*
X101294000Y-71589400D02*
G75*
G02*
X101167000Y-71462403I0J127000D01*
G01*
X98627000Y-71427000D02*
G75*
G03*
X98500000Y-71300000I-127000J0D01*
G01*
X98881003Y-71462403D02*
G75*
G02*
X98754000Y-71589403I-127003J3D01*
G01*
X101167003Y-71205298D02*
G75*
G03*
X101072299Y-71110597I-94703J-2D01*
G01*
X99483701Y-71110600D02*
G75*
G03*
X99389000Y-71205298I-1J-94700D01*
G01*
X101929003Y-71462403D02*
G75*
G02*
X101802000Y-71589403I-127003J3D01*
G01*
X98975701Y-71110600D02*
G75*
G03*
X98881000Y-71205298I-1J-94700D01*
G01*
X101802000Y-71589400D02*
G75*
G02*
X101675000Y-71462403I0J127000D01*
G01*
X99389003Y-71462403D02*
G75*
G02*
X99262000Y-71589403I-127003J3D01*
G01*
X100405003Y-71462403D02*
G75*
G02*
X100278000Y-71589403I-127003J3D01*
G01*
X101007701Y-71110600D02*
G75*
G03*
X100913000Y-71205298I-1J-94700D01*
G01*
X100913003Y-71462403D02*
G75*
G02*
X100786000Y-71589403I-127003J3D01*
G01*
X95900000Y-66500000D02*
X105000000Y-66500000D01*
X105690000Y-65810000D02*
X105690000Y-63250000D01*
X105000000Y-66500000D02*
X105690000Y-65810000D01*
X72000000Y-94500000D02*
X72000000Y-94010000D01*
X75500000Y-96500000D02*
X74000000Y-96500000D01*
X74000000Y-96500000D02*
X72000000Y-94500000D01*
X76000000Y-97000000D02*
X75500000Y-96500000D01*
X68135000Y-95635000D02*
X68135000Y-96600000D01*
X79000000Y-98000000D02*
X78500000Y-98500000D01*
X78500000Y-98500000D02*
X68500000Y-98500000D01*
X68000000Y-95500000D02*
X68135000Y-95635000D01*
X68135000Y-98135000D02*
X68135000Y-96600000D01*
X67500000Y-95500000D02*
X68000000Y-95500000D01*
X68500000Y-98500000D02*
X68135000Y-98135000D01*
X68135000Y-90935000D02*
X70300000Y-93100000D01*
X68135000Y-89400000D02*
X68135000Y-90935000D01*
X66750000Y-87750000D02*
X66750000Y-89285000D01*
X66750000Y-89285000D02*
X66865000Y-89400000D01*
X66865000Y-89400000D02*
X66865000Y-90465000D01*
X66865000Y-90465000D02*
X69800000Y-93400000D01*
X73500000Y-97500000D02*
X71000000Y-95000000D01*
X71000000Y-95000000D02*
X66000000Y-95000000D01*
X66000000Y-95000000D02*
X65595000Y-95405000D01*
X77000000Y-97000000D02*
X76500000Y-97500000D01*
X76500000Y-97500000D02*
X73500000Y-97500000D01*
X65595000Y-95405000D02*
X65595000Y-96600000D01*
X93000000Y-96000000D02*
X92500000Y-96500000D01*
X66865000Y-98365000D02*
X66865000Y-96600000D01*
X68250000Y-99750000D02*
X66865000Y-98365000D01*
X92500000Y-99250000D02*
X92000000Y-99750000D01*
X92500000Y-96500000D02*
X92500000Y-99250000D01*
X92000000Y-99750000D02*
X68250000Y-99750000D01*
X74000000Y-95500000D02*
X73500000Y-95000000D01*
X69405000Y-87405000D02*
X69250000Y-87250000D01*
X73500000Y-95000000D02*
X73500000Y-92800000D01*
X78000000Y-96000000D02*
X77500000Y-95500000D01*
X69405000Y-89400000D02*
X69405000Y-87405000D01*
X73500000Y-92800000D02*
X70100000Y-89400000D01*
X70100000Y-89400000D02*
X69405000Y-89400000D01*
X77500000Y-95500000D02*
X74000000Y-95500000D01*
D47*
X94084900Y-59952401D02*
X94000000Y-59867501D01*
X94000000Y-59410000D02*
X94000000Y-58590000D01*
X94084900Y-58047599D02*
X94084900Y-57318388D01*
X94000000Y-59867501D02*
X94000000Y-59410000D01*
X94084900Y-61931612D02*
X94084900Y-59952401D01*
X94000000Y-58132499D02*
X94084900Y-58047599D01*
X91334900Y-67185100D02*
X91334900Y-64681612D01*
X91334900Y-64681612D02*
X94084900Y-61931612D01*
X92284900Y-55518388D02*
X92284900Y-53129900D01*
X92284900Y-53129900D02*
X91180000Y-52025000D01*
X94000000Y-58590000D02*
X94000000Y-58132499D01*
X91000000Y-67520000D02*
X91334900Y-67185100D01*
X94084900Y-57318388D02*
X92284900Y-55518388D01*
X92615100Y-53129900D02*
X93720000Y-52025000D01*
X94500000Y-58132499D02*
X94415100Y-58047599D01*
X94415100Y-62068388D02*
X94415100Y-59952401D01*
X94415100Y-59952401D02*
X94500000Y-59867501D01*
X91665100Y-64818388D02*
X94415100Y-62068388D01*
X94500000Y-59410000D02*
X94500000Y-58590000D01*
X91665100Y-67185100D02*
X91665100Y-64818388D01*
X94500000Y-58590000D02*
X94500000Y-58132499D01*
X94415100Y-58047599D02*
X94415100Y-57181612D01*
X94415100Y-57181612D02*
X92615100Y-55381612D01*
X92000000Y-67520000D02*
X91665100Y-67185100D01*
X94500000Y-59867501D02*
X94500000Y-59410000D01*
X92615100Y-55381612D02*
X92615100Y-53129900D01*
X90000000Y-76000000D02*
X90500000Y-75500000D01*
X90365100Y-70965100D02*
X90636782Y-70965100D01*
X84000000Y-58590000D02*
X84000000Y-58132499D01*
X83915100Y-57318388D02*
X85885100Y-55348388D01*
X90165100Y-72000000D02*
X90165100Y-71165100D01*
X83915100Y-63431612D02*
X83915100Y-59952401D01*
X90165100Y-70365100D02*
X90165100Y-69850126D01*
X85885100Y-53129900D02*
X86990000Y-52025000D01*
X83915100Y-58047599D02*
X83915100Y-57318388D01*
X90500000Y-72334900D02*
X90165100Y-72000000D01*
X85885100Y-55348388D02*
X85885100Y-53129900D01*
X83915100Y-59952401D02*
X84000000Y-59867501D01*
X84000000Y-59410000D02*
X84000000Y-58590000D01*
X84000000Y-58132499D02*
X83915100Y-58047599D01*
X90636782Y-70565100D02*
X90365100Y-70565100D01*
X84000000Y-59867501D02*
X84000000Y-59410000D01*
X90165100Y-69850126D02*
X90165100Y-69681612D01*
X90500000Y-75500000D02*
X90500000Y-72334900D01*
X90165100Y-69681612D02*
X83915100Y-63431612D01*
X90165100Y-70365100D02*
G75*
G03*
X90365100Y-70565100I200000J0D01*
G01*
X90836800Y-70765100D02*
G75*
G02*
X90636782Y-70965100I-200000J0D01*
G01*
X90365100Y-70965100D02*
G75*
G03*
X90165100Y-71165100I0J-200000D01*
G01*
X90636782Y-70565118D02*
G75*
G02*
X90836782Y-70765100I18J-199982D01*
G01*
X90000000Y-77000000D02*
X89500000Y-76500000D01*
X83584900Y-59952401D02*
X83500000Y-59867501D01*
X89834900Y-69818388D02*
X83584900Y-63568388D01*
X89500000Y-72334900D02*
X89834900Y-72000000D01*
X85554900Y-53129900D02*
X84450000Y-52025000D01*
X83584900Y-58047599D02*
X83584900Y-57181612D01*
X89500000Y-76500000D02*
X89500000Y-72334900D01*
X83500000Y-59410000D02*
X83500000Y-58590000D01*
X83584900Y-57181612D02*
X85554900Y-55211612D01*
X83500000Y-58132499D02*
X83584900Y-58047599D01*
X85554900Y-55211612D02*
X85554900Y-53129900D01*
X89834900Y-72000000D02*
X89834900Y-69818388D01*
X83584900Y-63568388D02*
X83584900Y-59952401D01*
X83500000Y-58590000D02*
X83500000Y-58132499D01*
X83500000Y-59867501D02*
X83500000Y-59410000D01*
X88000000Y-76000000D02*
X87500000Y-75500000D01*
X82084900Y-59952401D02*
X82000000Y-59867501D01*
X87834900Y-69568388D02*
X82084900Y-63818388D01*
X82084900Y-58047599D02*
X82084900Y-57318388D01*
X82000000Y-59410000D02*
X82000000Y-58590000D01*
X82084900Y-57318388D02*
X80474900Y-55708388D01*
X87500000Y-72334900D02*
X87834900Y-72000000D01*
X80474900Y-53129900D02*
X79370000Y-52025000D01*
X80474900Y-55708388D02*
X80474900Y-53129900D01*
X87500000Y-75500000D02*
X87500000Y-72334900D01*
X82000000Y-59867501D02*
X82000000Y-59410000D01*
X87834900Y-72000000D02*
X87834900Y-69568388D01*
X82000000Y-58132499D02*
X82084900Y-58047599D01*
X82000000Y-58590000D02*
X82000000Y-58132499D01*
X82084900Y-63818388D02*
X82084900Y-59952401D01*
X82500000Y-58132499D02*
X82415100Y-58047599D01*
X82500000Y-59867501D02*
X82500000Y-59410000D01*
X82415100Y-58047599D02*
X82415100Y-57181612D01*
X88636782Y-70815100D02*
X88365100Y-70815100D01*
X82415100Y-63681612D02*
X82415100Y-59952401D01*
X80805100Y-55571612D02*
X80805100Y-53129900D01*
X88165100Y-69431612D02*
X82415100Y-63681612D01*
X82415100Y-59952401D02*
X82500000Y-59867501D01*
X88000000Y-75000000D02*
X88500000Y-74500000D01*
X88165100Y-72000000D02*
X88165100Y-71415100D01*
X88365100Y-71215100D02*
X88636782Y-71215100D01*
X88500000Y-74500000D02*
X88500000Y-72334900D01*
X80805100Y-53129900D02*
X81910000Y-52025000D01*
X88500000Y-72334900D02*
X88165100Y-72000000D01*
X88165100Y-70615100D02*
X88165100Y-69838238D01*
X82500000Y-59410000D02*
X82500000Y-58590000D01*
X82500000Y-58590000D02*
X82500000Y-58132499D01*
X88165100Y-69838238D02*
X88165100Y-69431612D01*
X82415100Y-57181612D02*
X80805100Y-55571612D01*
X88636782Y-70815118D02*
G75*
G02*
X88836782Y-71015100I18J-199982D01*
G01*
X88365100Y-71215100D02*
G75*
G03*
X88165100Y-71415100I0J-200000D01*
G01*
X88836800Y-71015100D02*
G75*
G02*
X88636782Y-71215100I-200000J0D01*
G01*
X88165100Y-70615100D02*
G75*
G03*
X88365100Y-70815100I200000J0D01*
G01*
X94334900Y-67185100D02*
X94334900Y-64681612D01*
X95500000Y-58590000D02*
X95500000Y-58132499D01*
X94334900Y-64681612D02*
X95584900Y-63431612D01*
X97364900Y-55401612D02*
X97364900Y-53129900D01*
X95584900Y-59952401D02*
X95500000Y-59867501D01*
X95500000Y-58132499D02*
X95584900Y-58047599D01*
X97364900Y-53129900D02*
X96260000Y-52025000D01*
X95584900Y-63431612D02*
X95584900Y-59952401D01*
X94000000Y-67520000D02*
X94334900Y-67185100D01*
X95584900Y-57181612D02*
X97364900Y-55401612D01*
X95500000Y-59867501D02*
X95500000Y-59410000D01*
X95500000Y-59410000D02*
X95500000Y-58590000D01*
X95584900Y-58047599D02*
X95584900Y-57181612D01*
X94665100Y-67185100D02*
X94665100Y-64818388D01*
X95915100Y-57318388D02*
X97695100Y-55538388D01*
X97695100Y-55538388D02*
X97695100Y-53129900D01*
X95915100Y-63568388D02*
X95915100Y-59952401D01*
X95000000Y-67520000D02*
X94665100Y-67185100D01*
X96000000Y-59410000D02*
X96000000Y-58590000D01*
X95915100Y-59952401D02*
X96000000Y-59867501D01*
X96000000Y-58590000D02*
X96000000Y-58132499D01*
X96000000Y-58132499D02*
X95915100Y-58047599D01*
X97695100Y-53129900D02*
X98800000Y-52025000D01*
X94665100Y-64818388D02*
X95915100Y-63568388D01*
X95915100Y-58047599D02*
X95915100Y-57318388D01*
X96000000Y-59867501D02*
X96000000Y-59410000D01*
X93834900Y-72000000D02*
X93834900Y-70431612D01*
X94334900Y-68814900D02*
X94000000Y-68480000D01*
X94000000Y-77000000D02*
X93500000Y-76500000D01*
X93834900Y-70431612D02*
X94334900Y-69931612D01*
X93500000Y-72334900D02*
X93834900Y-72000000D01*
X93500000Y-76500000D02*
X93500000Y-72334900D01*
X94334900Y-69931612D02*
X94334900Y-68814900D01*
X94638298Y-71097200D02*
X94354400Y-71097200D01*
X94354400Y-71475800D02*
X94638298Y-71475800D01*
X94165100Y-70907900D02*
X94165100Y-70857900D01*
X94665100Y-70068388D02*
X94665100Y-68814900D01*
X94665100Y-68814900D02*
X95000000Y-68480000D01*
X94500000Y-75500000D02*
X94500000Y-72334900D01*
X94500000Y-72334900D02*
X94165100Y-72000000D01*
X94165100Y-70568388D02*
X94665100Y-70068388D01*
X94165100Y-72000000D02*
X94165100Y-71665100D01*
X94165100Y-70857900D02*
X94165100Y-70568388D01*
X94000000Y-76000000D02*
X94500000Y-75500000D01*
X94827600Y-71286500D02*
G75*
G02*
X94638298Y-71475800I-189300J0D01*
G01*
X94354400Y-71475800D02*
G75*
G03*
X94165100Y-71665100I0J-189300D01*
G01*
X94638298Y-71097202D02*
G75*
G02*
X94827598Y-71286500I2J-189298D01*
G01*
X94165100Y-70907900D02*
G75*
G03*
X94354400Y-71097200I189300J0D01*
G01*
X91665100Y-70931612D02*
X91665100Y-70584900D01*
X91665100Y-69827700D02*
X91665100Y-68966051D01*
X92165100Y-72000000D02*
X92165100Y-71431612D01*
X91665100Y-68814900D02*
X92000000Y-68480000D01*
X92000000Y-75000000D02*
X92500000Y-74500000D01*
X92138298Y-70017000D02*
X91854400Y-70017000D01*
X92500000Y-74500000D02*
X92500000Y-72334900D01*
X91854400Y-70395600D02*
X92138298Y-70395600D01*
X91665100Y-68966051D02*
X91665100Y-68814900D01*
X92165100Y-71431612D02*
X91665100Y-70931612D01*
X92500000Y-72334900D02*
X92165100Y-72000000D01*
X92327600Y-70206300D02*
G75*
G02*
X92138298Y-70395600I-189300J0D01*
G01*
X91854400Y-70395600D02*
G75*
G03*
X91665100Y-70584900I0J-189300D01*
G01*
X92138298Y-70017002D02*
G75*
G02*
X92327598Y-70206300I2J-189298D01*
G01*
X91665100Y-69827700D02*
G75*
G03*
X91854400Y-70017000I189300J0D01*
G01*
X91334900Y-71068388D02*
X91334900Y-68814900D01*
X91334900Y-68814900D02*
X91000000Y-68480000D01*
X91834900Y-71568388D02*
X91334900Y-71068388D01*
X91500000Y-75500000D02*
X91500000Y-72334900D01*
X91834900Y-72000000D02*
X91834900Y-71568388D01*
X91500000Y-72334900D02*
X91834900Y-72000000D01*
X92000000Y-76000000D02*
X91500000Y-75500000D01*
D46*
X70500000Y-89400000D02*
X70500000Y-88000000D01*
X64500000Y-79500000D02*
X60010000Y-79500000D01*
X57950000Y-79490000D02*
X57000000Y-78540000D01*
X75000000Y-92000000D02*
X73100000Y-92000000D01*
X60000000Y-79490000D02*
X57950000Y-79490000D01*
X60010000Y-79500000D02*
X60000000Y-79490000D01*
X73100000Y-92000000D02*
X70500000Y-89400000D01*
X63500000Y-75500000D02*
X60010000Y-75500000D01*
X75000000Y-91000000D02*
X72500000Y-91000000D01*
X72500000Y-91000000D02*
X71100000Y-89600000D01*
X59510000Y-76000000D02*
X57000000Y-76000000D01*
X71100000Y-89600000D02*
X71100000Y-88000000D01*
X60010000Y-75500000D02*
X60000000Y-75510000D01*
X60000000Y-75510000D02*
X59510000Y-76000000D01*
X66500000Y-116000000D02*
X64500000Y-114000000D01*
X66500000Y-121750000D02*
X66500000Y-116000000D01*
X64500000Y-114000000D02*
X58500000Y-114000000D01*
X57475000Y-112975000D02*
X57475000Y-111015000D01*
X58500000Y-114000000D02*
X57475000Y-112975000D01*
X67500000Y-116000000D02*
X65000000Y-113500000D01*
X60015000Y-113015000D02*
X60015000Y-111015000D01*
X65000000Y-113500000D02*
X60500000Y-113500000D01*
X60500000Y-113500000D02*
X60015000Y-113015000D01*
X67500000Y-121750000D02*
X67500000Y-116000000D01*
X57475000Y-108475000D02*
X58700000Y-109700000D01*
X61200000Y-109700000D02*
X64574999Y-106325001D01*
X58700000Y-109700000D02*
X61200000Y-109700000D01*
X64574999Y-106325001D02*
X65765500Y-106325001D01*
X62815001Y-105674999D02*
X65765500Y-105674999D01*
X60015000Y-108475000D02*
X62815001Y-105674999D01*
X69529437Y-100750000D02*
X67000000Y-100750000D01*
X61600000Y-101400000D02*
X61300000Y-101700000D01*
X56800000Y-106000000D02*
X56800000Y-105300000D01*
X67000000Y-100750000D02*
X66500000Y-100250000D01*
X57290000Y-106000000D02*
X56800000Y-106000000D01*
X62750000Y-100250000D02*
X61600000Y-101400000D01*
X69724999Y-103015500D02*
X69922200Y-102818299D01*
X66500000Y-100250000D02*
X63750000Y-100250000D01*
X61300000Y-101700000D02*
X61300000Y-104100000D01*
X63750000Y-100250000D02*
X62750000Y-100250000D01*
X56800000Y-105300000D02*
X54600000Y-105300000D01*
X69922200Y-102818299D02*
X69922200Y-101142763D01*
X61300000Y-104100000D02*
X60100000Y-105300000D01*
X56800000Y-106000000D02*
X56310000Y-106000000D01*
X69922200Y-101142763D02*
X69529437Y-100750000D01*
X60100000Y-105300000D02*
X59700000Y-105300000D01*
X59700000Y-105300000D02*
X56800000Y-105300000D01*
X70375001Y-101404999D02*
X70380000Y-101400000D01*
D45*
X70375001Y-103015500D02*
X70375001Y-101404999D01*
D46*
X55300000Y-98049999D02*
X55300000Y-99790000D01*
X55300000Y-99790000D02*
X55510000Y-100000000D01*
D51*
X57700000Y-100400000D02*
X57700000Y-98049999D01*
X58500001Y-98049999D02*
X58500001Y-99399999D01*
X58500001Y-99399999D02*
X58300000Y-99600000D01*
X73275001Y-106974999D02*
X73500000Y-106750000D01*
X71734500Y-106974999D02*
X73275001Y-106974999D01*
X64624999Y-107625001D02*
X64500000Y-107750000D01*
X65765500Y-107625001D02*
X64624999Y-107625001D01*
X73624999Y-107625001D02*
X71734500Y-107625001D01*
X73750000Y-107500000D02*
X73624999Y-107625001D01*
X67100000Y-101900000D02*
X67100000Y-102990501D01*
X67100000Y-102990501D02*
X67124999Y-103015500D01*
D46*
X56900000Y-100720000D02*
X56899999Y-98049999D01*
D45*
X54499750Y-91949968D02*
X54499750Y-90379750D01*
X54499750Y-90379750D02*
X54300000Y-90180000D01*
D46*
X49987500Y-100700000D02*
X50000000Y-100712500D01*
X48900000Y-100700000D02*
X49987500Y-100700000D01*
X51000000Y-82462500D02*
X51000000Y-79260000D01*
X50000000Y-107490000D02*
X50000000Y-106037500D01*
X49250000Y-82462500D02*
X49250000Y-79260000D01*
X60500000Y-51000000D02*
X60500000Y-52212500D01*
X62500000Y-51000000D02*
X62500000Y-52212500D01*
X64500000Y-51000000D02*
X64500000Y-52212500D01*
X66500000Y-51000000D02*
X66500000Y-52212500D01*
X68500000Y-51000000D02*
X68500000Y-52212500D01*
X70500000Y-51000000D02*
X70500000Y-52212500D01*
X72500000Y-51000000D02*
X72500000Y-52212500D01*
X74500000Y-52212500D02*
X74500000Y-51000000D01*
X51000000Y-77250000D02*
X51000000Y-78240000D01*
X50000000Y-110062500D02*
X50000000Y-108510000D01*
X75500000Y-71500000D02*
X60500000Y-56500000D01*
X76000000Y-74000000D02*
X75500000Y-73500000D01*
X75500000Y-73500000D02*
X75500000Y-71500000D01*
X60500000Y-56500000D02*
X60500000Y-53787500D01*
X76500000Y-70500000D02*
X64500000Y-58500000D01*
X64500000Y-58500000D02*
X64500000Y-53787500D01*
X77000000Y-75000000D02*
X76500000Y-74500000D01*
X76500000Y-74500000D02*
X76500000Y-70500000D01*
X68500000Y-60500000D02*
X68500000Y-53787500D01*
X77500000Y-73500000D02*
X77500000Y-69500000D01*
X78000000Y-74000000D02*
X77500000Y-73500000D01*
X77500000Y-69500000D02*
X68500000Y-60500000D01*
X78500000Y-73500000D02*
X78500000Y-68500000D01*
X78500000Y-68500000D02*
X72500000Y-62500000D01*
X72500000Y-62500000D02*
X72500000Y-53787500D01*
X79000000Y-74000000D02*
X78500000Y-73500000D01*
X62500000Y-57500000D02*
X62500000Y-53787500D01*
X76000000Y-73000000D02*
X76000000Y-71000000D01*
X76000000Y-71000000D02*
X62500000Y-57500000D01*
X77000000Y-73000000D02*
X77000000Y-70000000D01*
X66500000Y-59500000D02*
X66500000Y-53787500D01*
X77000000Y-70000000D02*
X66500000Y-59500000D01*
X78000000Y-73000000D02*
X78000000Y-69000000D01*
X70500000Y-61500000D02*
X70500000Y-53787500D01*
X78000000Y-69000000D02*
X70500000Y-61500000D01*
X79000000Y-68000000D02*
X74500000Y-63500000D01*
X74500000Y-63500000D02*
X74500000Y-53787500D01*
X79000000Y-73000000D02*
X79000000Y-68000000D01*
X74200000Y-85700000D02*
X74000000Y-85500000D01*
X82700000Y-89500000D02*
X82500000Y-89300000D01*
X85250000Y-90500000D02*
X84750000Y-90500000D01*
X85750000Y-91500000D02*
X85500000Y-91250000D01*
X74000000Y-85500000D02*
X71510000Y-85500000D01*
X85500000Y-91250000D02*
X85500000Y-90750000D01*
X82500000Y-88700000D02*
X82300000Y-88500000D01*
X84500000Y-89750000D02*
X84250000Y-89500000D01*
X82500000Y-89300000D02*
X82500000Y-88700000D01*
X85500000Y-90750000D02*
X85250000Y-90500000D01*
X84500000Y-90250000D02*
X84500000Y-89750000D01*
X74500000Y-88500000D02*
X74200000Y-88200000D01*
X93500000Y-90500000D02*
X93500000Y-91250000D01*
X82300000Y-88500000D02*
X74500000Y-88500000D01*
X94000000Y-90000000D02*
X93500000Y-90500000D01*
X74200000Y-88200000D02*
X74200000Y-85700000D01*
X84250000Y-89500000D02*
X82700000Y-89500000D01*
X93500000Y-91250000D02*
X93250000Y-91500000D01*
X84750000Y-90500000D02*
X84500000Y-90250000D01*
X93250000Y-91500000D02*
X85750000Y-91500000D01*
X84250000Y-90500000D02*
X72400000Y-90500000D01*
X71600000Y-87090000D02*
X71510000Y-87000000D01*
X94300000Y-93500000D02*
X84750000Y-93500000D01*
X94500000Y-92500000D02*
X94500000Y-93300000D01*
X84500000Y-93250000D02*
X84500000Y-90750000D01*
X84500000Y-90750000D02*
X84250000Y-90500000D01*
X94500000Y-93300000D02*
X94300000Y-93500000D01*
X94000000Y-92000000D02*
X94500000Y-92500000D01*
X84750000Y-93500000D02*
X84500000Y-93250000D01*
X71600000Y-89700000D02*
X71600000Y-87090000D01*
X72400000Y-90500000D02*
X71600000Y-89700000D01*
X95000000Y-85000000D02*
X94500000Y-84500000D01*
X74500000Y-85000000D02*
X73500000Y-84000000D01*
X93750000Y-84500000D02*
X93500000Y-84750000D01*
X93250000Y-87500000D02*
X74800000Y-87500000D01*
X74800000Y-87500000D02*
X74500000Y-87200000D01*
X93500000Y-84750000D02*
X93500000Y-87250000D01*
X93500000Y-87250000D02*
X93250000Y-87500000D01*
X94500000Y-84500000D02*
X93750000Y-84500000D01*
X73500000Y-84000000D02*
X71510000Y-84000000D01*
X74500000Y-87200000D02*
X74500000Y-85000000D01*
X64000000Y-116750000D02*
X61750000Y-114500000D01*
X49050000Y-113050000D02*
X49750000Y-113750000D01*
X49050000Y-111937500D02*
X49050000Y-113050000D01*
X49750000Y-113750000D02*
X54500000Y-113750000D01*
X53750000Y-113000000D02*
X53750000Y-111010000D01*
X61750000Y-114500000D02*
X55250000Y-114500000D01*
X54500000Y-113750000D02*
X53750000Y-113000000D01*
X55250000Y-114500000D02*
X54500000Y-113750000D01*
X53010000Y-102750000D02*
X53750000Y-102750000D01*
X56500000Y-99500000D02*
X56500000Y-97000000D01*
X56500000Y-97000000D02*
X56700000Y-96800000D01*
X58700000Y-96200000D02*
X59099999Y-95800001D01*
X58400000Y-96800000D02*
X58700000Y-96500000D01*
X56250000Y-99750000D02*
X56500000Y-99500000D01*
X54750000Y-101250000D02*
X55750000Y-101250000D01*
X59099999Y-95800001D02*
X59799998Y-95800001D01*
X55750000Y-101250000D02*
X56250000Y-100750000D01*
X53980000Y-102750000D02*
X53980000Y-102020000D01*
X56250000Y-100750000D02*
X56250000Y-99750000D01*
X58700000Y-96500000D02*
X58700000Y-96200000D01*
X53750000Y-108470000D02*
X53750000Y-102750000D01*
X53750000Y-102750000D02*
X53980000Y-102750000D01*
X53980000Y-102020000D02*
X54750000Y-101250000D01*
X56700000Y-96800000D02*
X58400000Y-96800000D01*
X73000000Y-101100000D02*
X72150000Y-100250000D01*
X71734500Y-106325001D02*
X72052000Y-106325001D01*
X72052000Y-106325001D02*
X73000000Y-105377001D01*
X57410000Y-103800000D02*
X58690000Y-103800000D01*
X61200000Y-100000000D02*
X58690000Y-102510000D01*
X58690000Y-102510000D02*
X58690000Y-103800000D01*
X73000000Y-105377001D02*
X73000000Y-101100000D01*
X61200000Y-100000000D02*
X61200000Y-99400000D01*
X59799998Y-95000000D02*
X60800000Y-95000000D01*
X67150000Y-100250000D02*
X66800000Y-99900000D01*
X61300000Y-99900000D02*
X61200000Y-100000000D01*
X66800000Y-99900000D02*
X61300000Y-99900000D01*
X72150000Y-100250000D02*
X67150000Y-100250000D01*
X61200000Y-98500000D02*
X61200000Y-99400000D01*
G04 #@! TA.AperFunction,Conductor*
G36*
X59585414Y-85214586D02*
G01*
X59600000Y-85249800D01*
X59600000Y-90293870D01*
X59598513Y-90305948D01*
X59503346Y-90686617D01*
X59490247Y-90709753D01*
X58800000Y-91400000D01*
X58800000Y-93000000D01*
X59000000Y-94000000D01*
X60350200Y-94000000D01*
X60385414Y-94014586D01*
X60400000Y-94049800D01*
X60400000Y-94450200D01*
X60385414Y-94485414D01*
X60350200Y-94500000D01*
X59200000Y-94500000D01*
X58814586Y-94885414D01*
X58779372Y-94900000D01*
X57549800Y-94900000D01*
X57514586Y-94885414D01*
X57500000Y-94850200D01*
X57500000Y-85249800D01*
X57514586Y-85214586D01*
X57549800Y-85200000D01*
X59550200Y-85200000D01*
X59585414Y-85214586D01*
G37*
G04 #@! TD.AperFunction*
G04 #@! TA.AperFunction,Conductor*
G36*
X57085414Y-85214586D02*
G01*
X57100000Y-85249800D01*
X57100000Y-94650200D01*
X57085414Y-94685414D01*
X57050200Y-94700000D01*
X55749800Y-94700000D01*
X55714586Y-94685414D01*
X55700000Y-94650200D01*
X55700000Y-93700000D01*
X54923406Y-93214629D01*
X54901275Y-93183597D01*
X54900000Y-93172399D01*
X54900000Y-85249800D01*
X54914586Y-85214586D01*
X54949800Y-85200000D01*
X57050200Y-85200000D01*
X57085414Y-85214586D01*
G37*
G04 #@! TD.AperFunction*
G04 #@! TA.AperFunction,Conductor*
G36*
X63073501Y-91023414D02*
G01*
X63097798Y-91052782D01*
X63100000Y-91067427D01*
X63100000Y-97495700D01*
X63085414Y-97530914D01*
X63050200Y-97545500D01*
X62002244Y-97545500D01*
X61940552Y-97552202D01*
X61805236Y-97602929D01*
X61689596Y-97689596D01*
X61687466Y-97692438D01*
X61621793Y-97780066D01*
X61589003Y-97799497D01*
X61581943Y-97800000D01*
X59220628Y-97800000D01*
X59185414Y-97785414D01*
X59014586Y-97614586D01*
X59000000Y-97579372D01*
X59000000Y-96808080D01*
X59002556Y-96792332D01*
X59178000Y-96266000D01*
X59202973Y-96237206D01*
X59228831Y-96232425D01*
X59228831Y-96232301D01*
X59231279Y-96232301D01*
X59800231Y-96232300D01*
X60371164Y-96232300D01*
X60373561Y-96231823D01*
X60373564Y-96231823D01*
X60440587Y-96218492D01*
X60445399Y-96217535D01*
X60459081Y-96208393D01*
X60486748Y-96200000D01*
X60500000Y-96200000D01*
X61200000Y-95600000D01*
X61200000Y-95170962D01*
X61204983Y-95149248D01*
X61211828Y-95135120D01*
X61213376Y-95131925D01*
X61233787Y-95010602D01*
X61233917Y-95000000D01*
X61216476Y-94878214D01*
X61204466Y-94851799D01*
X61200000Y-94831187D01*
X61200000Y-94400000D01*
X60617846Y-93901011D01*
X60608850Y-93890869D01*
X60571634Y-93835171D01*
X60568908Y-93831091D01*
X60484720Y-93774839D01*
X60449506Y-93760253D01*
X60447106Y-93759776D01*
X60447104Y-93759775D01*
X60352599Y-93740977D01*
X60352597Y-93740977D01*
X60350200Y-93740500D01*
X59253565Y-93740500D01*
X59218351Y-93725914D01*
X59204732Y-93700467D01*
X59060467Y-92979138D01*
X59059500Y-92969371D01*
X59059500Y-92316060D01*
X59074086Y-92280846D01*
X59093552Y-92268816D01*
X60499430Y-91800190D01*
X60500533Y-91799836D01*
X62880862Y-91067427D01*
X63035556Y-91019829D01*
X63073501Y-91023414D01*
G37*
G04 #@! TD.AperFunction*
G04 #@! TA.AperFunction,Conductor*
G36*
X47809255Y-91030926D02*
G01*
X52484806Y-91498481D01*
X52511732Y-91509777D01*
X54106757Y-92838964D01*
X54116282Y-92849552D01*
X54138466Y-92882752D01*
X54222649Y-92939002D01*
X54224634Y-92939397D01*
X54234257Y-92945214D01*
X54527752Y-93189793D01*
X54674498Y-93312082D01*
X54688023Y-93329885D01*
X54689999Y-93334272D01*
X54712130Y-93365304D01*
X54785871Y-93434685D01*
X54867339Y-93485602D01*
X54925997Y-93522264D01*
X54931484Y-93526237D01*
X55422581Y-93935484D01*
X55440295Y-93969232D01*
X55440500Y-93973741D01*
X55440500Y-94650200D01*
X55440977Y-94652597D01*
X55440977Y-94652599D01*
X55454961Y-94722899D01*
X55460253Y-94749506D01*
X55474839Y-94784720D01*
X55476200Y-94786756D01*
X55476200Y-94786757D01*
X55491607Y-94809815D01*
X55500000Y-94837482D01*
X55500000Y-94850200D01*
X55485414Y-94885414D01*
X55450200Y-94900000D01*
X54050401Y-94900000D01*
X54015187Y-94885414D01*
X54000601Y-94850200D01*
X54000601Y-94797134D01*
X53985836Y-94722899D01*
X53938863Y-94652599D01*
X53932311Y-94642794D01*
X53929586Y-94638716D01*
X53845403Y-94582466D01*
X53840591Y-94581509D01*
X53840589Y-94581508D01*
X53773568Y-94568177D01*
X53773566Y-94568177D01*
X53771169Y-94567700D01*
X53768723Y-94567700D01*
X53200003Y-94567701D01*
X52628836Y-94567701D01*
X52626439Y-94568178D01*
X52626436Y-94568178D01*
X52598306Y-94573773D01*
X52554601Y-94582466D01*
X52470418Y-94638716D01*
X52467693Y-94642794D01*
X52461142Y-94652599D01*
X52414168Y-94722899D01*
X52413211Y-94727711D01*
X52413210Y-94727713D01*
X52402321Y-94782458D01*
X52399402Y-94797133D01*
X52399403Y-95202866D01*
X52414168Y-95277101D01*
X52470418Y-95361284D01*
X52474496Y-95364009D01*
X52475274Y-95364787D01*
X52489860Y-95400001D01*
X52475272Y-95435217D01*
X52474498Y-95435991D01*
X52470418Y-95438717D01*
X52414168Y-95522900D01*
X52399402Y-95597134D01*
X52399403Y-96002867D01*
X52414168Y-96077102D01*
X52470418Y-96161285D01*
X52554601Y-96217535D01*
X52559413Y-96218492D01*
X52559415Y-96218493D01*
X52626436Y-96231824D01*
X52626438Y-96231824D01*
X52628835Y-96232301D01*
X53200002Y-96232301D01*
X53771168Y-96232300D01*
X53773565Y-96231823D01*
X53773568Y-96231823D01*
X53780429Y-96230458D01*
X53790144Y-96229501D01*
X53801469Y-96229501D01*
X53836683Y-96244087D01*
X53855914Y-96263318D01*
X53870500Y-96298532D01*
X53870500Y-96671527D01*
X53870155Y-96677380D01*
X53865863Y-96713643D01*
X53866531Y-96717300D01*
X53876110Y-96769752D01*
X53876367Y-96771295D01*
X53884850Y-96827717D01*
X53886462Y-96831074D01*
X53887384Y-96834069D01*
X53888399Y-96837033D01*
X53889067Y-96840694D01*
X53890782Y-96843996D01*
X53890783Y-96843998D01*
X53894393Y-96850947D01*
X53900000Y-96873903D01*
X53900000Y-97650200D01*
X53885414Y-97685414D01*
X53850200Y-97700000D01*
X52500000Y-97700000D01*
X52496936Y-97700797D01*
X52496933Y-97700797D01*
X47816831Y-98917624D01*
X47779080Y-98912368D01*
X47756102Y-98881957D01*
X47754500Y-98869426D01*
X47754500Y-91080479D01*
X47769086Y-91045265D01*
X47804300Y-91030679D01*
X47809255Y-91030926D01*
G37*
G04 #@! TD.AperFunction*
G04 #@! TA.AperFunction,Conductor*
G36*
X71088802Y-108008393D02*
G01*
X71139899Y-108042535D01*
X71144711Y-108043492D01*
X71144713Y-108043493D01*
X71211734Y-108056824D01*
X71211736Y-108056824D01*
X71214133Y-108057301D01*
X71734500Y-108057301D01*
X72254866Y-108057300D01*
X72257263Y-108056823D01*
X72257266Y-108056823D01*
X72285396Y-108051228D01*
X72329101Y-108042535D01*
X72380198Y-108008393D01*
X72407865Y-108000000D01*
X73484922Y-108000000D01*
X73512546Y-108008364D01*
X74954804Y-108969870D01*
X74976013Y-109001539D01*
X74968616Y-109038930D01*
X74966067Y-109042416D01*
X73014952Y-111481310D01*
X72981564Y-111499695D01*
X72976065Y-111500000D01*
X69049800Y-111500000D01*
X69014586Y-111485414D01*
X69000000Y-111450200D01*
X69000000Y-109784100D01*
X69014586Y-109748886D01*
X69049800Y-109734300D01*
X69272357Y-109734299D01*
X69277867Y-109734299D01*
X69280264Y-109733822D01*
X69280267Y-109733822D01*
X69308397Y-109728227D01*
X69352102Y-109719534D01*
X69356185Y-109716806D01*
X69372333Y-109706017D01*
X69409716Y-109698581D01*
X69427667Y-109706017D01*
X69443815Y-109716806D01*
X69447898Y-109719534D01*
X69452710Y-109720491D01*
X69452712Y-109720492D01*
X69519733Y-109733823D01*
X69519735Y-109733823D01*
X69522132Y-109734300D01*
X69724999Y-109734300D01*
X69927865Y-109734299D01*
X69930262Y-109733822D01*
X69930265Y-109733822D01*
X69958395Y-109728227D01*
X70002100Y-109719534D01*
X70022330Y-109706017D01*
X70082205Y-109666009D01*
X70086283Y-109663284D01*
X70089008Y-109659206D01*
X70139807Y-109583181D01*
X70139807Y-109583180D01*
X70142533Y-109579101D01*
X70150421Y-109539448D01*
X70156822Y-109507266D01*
X70156822Y-109507264D01*
X70157299Y-109504867D01*
X70157298Y-108464134D01*
X70157298Y-108464133D01*
X71242700Y-108464133D01*
X71242701Y-109504866D01*
X71257466Y-109579101D01*
X71260192Y-109583180D01*
X71260192Y-109583181D01*
X71310991Y-109659206D01*
X71313716Y-109663284D01*
X71317794Y-109666009D01*
X71377670Y-109706017D01*
X71397899Y-109719534D01*
X71402711Y-109720491D01*
X71402713Y-109720492D01*
X71469734Y-109733823D01*
X71469736Y-109733823D01*
X71472133Y-109734300D01*
X71675000Y-109734300D01*
X71877866Y-109734299D01*
X71880263Y-109733822D01*
X71880266Y-109733822D01*
X71908396Y-109728227D01*
X71952101Y-109719534D01*
X71972331Y-109706017D01*
X72032206Y-109666009D01*
X72036284Y-109663284D01*
X72039009Y-109659206D01*
X72039824Y-109658391D01*
X72048980Y-109651166D01*
X72074151Y-109635711D01*
X72077172Y-109633856D01*
X72079552Y-109631227D01*
X72079554Y-109631225D01*
X72157349Y-109545277D01*
X72157349Y-109545276D01*
X72159733Y-109542643D01*
X72213376Y-109431925D01*
X72233787Y-109310602D01*
X72233917Y-109300000D01*
X72216476Y-109178214D01*
X72166884Y-109069143D01*
X72165587Y-109031050D01*
X72167401Y-109026817D01*
X72211828Y-108935120D01*
X72213376Y-108931925D01*
X72233787Y-108810602D01*
X72233917Y-108800000D01*
X72216476Y-108678214D01*
X72165554Y-108566218D01*
X72163241Y-108563533D01*
X72163238Y-108563529D01*
X72119372Y-108512620D01*
X72107299Y-108480113D01*
X72107299Y-108464134D01*
X72092534Y-108389899D01*
X72036284Y-108305716D01*
X71983459Y-108270419D01*
X71956181Y-108252192D01*
X71956180Y-108252192D01*
X71952101Y-108249466D01*
X71947289Y-108248509D01*
X71947287Y-108248508D01*
X71880266Y-108235177D01*
X71880264Y-108235177D01*
X71877867Y-108234700D01*
X71875421Y-108234700D01*
X71675001Y-108234701D01*
X71472134Y-108234701D01*
X71469737Y-108235178D01*
X71469734Y-108235178D01*
X71441604Y-108240773D01*
X71397899Y-108249466D01*
X71393820Y-108252192D01*
X71393819Y-108252192D01*
X71366541Y-108270419D01*
X71313716Y-108305716D01*
X71257466Y-108389899D01*
X71242700Y-108464133D01*
X70157298Y-108464133D01*
X70142533Y-108389899D01*
X70086283Y-108305716D01*
X70033458Y-108270419D01*
X70006180Y-108252192D01*
X70006179Y-108252192D01*
X70002100Y-108249466D01*
X69997288Y-108248509D01*
X69997286Y-108248508D01*
X69930265Y-108235177D01*
X69930263Y-108235177D01*
X69927866Y-108234700D01*
X69925420Y-108234700D01*
X69725000Y-108234701D01*
X69522133Y-108234701D01*
X69519736Y-108235178D01*
X69519733Y-108235178D01*
X69491603Y-108240773D01*
X69447898Y-108249466D01*
X69443816Y-108252194D01*
X69443815Y-108252194D01*
X69427667Y-108262983D01*
X69390284Y-108270419D01*
X69372333Y-108262983D01*
X69356185Y-108252194D01*
X69356184Y-108252194D01*
X69352102Y-108249466D01*
X69347290Y-108248509D01*
X69347288Y-108248508D01*
X69280267Y-108235177D01*
X69280265Y-108235177D01*
X69277868Y-108234700D01*
X69272358Y-108234700D01*
X69049799Y-108234701D01*
X69014586Y-108220115D01*
X69000000Y-108184901D01*
X69000000Y-108056899D01*
X69014586Y-108021685D01*
X69049799Y-108007099D01*
X70527666Y-108007099D01*
X70530063Y-108006622D01*
X70530066Y-108006622D01*
X70551717Y-108002315D01*
X70558547Y-108000957D01*
X70568261Y-108000000D01*
X71061135Y-108000000D01*
X71088802Y-108008393D01*
G37*
G04 #@! TD.AperFunction*
M02*
