G04 #@! TF.GenerationSoftware,KiCad,Pcbnew,6.0.11+dfsg-1*
G04 #@! TF.CreationDate,2023-08-05T12:29:56+02:00*
G04 #@! TF.ProjectId,kintex-pcie,6b696e74-6578-42d7-9063-69652e6b6963,rev?*
G04 #@! TF.SameCoordinates,Original*
G04 #@! TF.FileFunction,Soldermask,Bot*
G04 #@! TF.FilePolarity,Negative*
%FSLAX46Y46*%
G04 Gerber Fmt 4.6, Leading zero omitted, Abs format (unit mm)*
G04 Created by KiCad (PCBNEW 6.0.11+dfsg-1) date 2023-08-05 12:29:56*
%MOMM*%
%LPD*%
G01*
G04 APERTURE LIST*
G04 Aperture macros list*
%AMRoundRect*
0 Rectangle with rounded corners*
0 $1 Rounding radius*
0 $2 $3 $4 $5 $6 $7 $8 $9 X,Y pos of 4 corners*
0 Add a 4 corners polygon primitive as box body*
4,1,4,$2,$3,$4,$5,$6,$7,$8,$9,$2,$3,0*
0 Add four circle primitives for the rounded corners*
1,1,$1+$1,$2,$3*
1,1,$1+$1,$4,$5*
1,1,$1+$1,$6,$7*
1,1,$1+$1,$8,$9*
0 Add four rect primitives between the rounded corners*
20,1,$1+$1,$2,$3,$4,$5,0*
20,1,$1+$1,$4,$5,$6,$7,0*
20,1,$1+$1,$6,$7,$8,$9,0*
20,1,$1+$1,$8,$9,$2,$3,0*%
G04 Aperture macros list end*
%ADD10R,1.700000X1.700000*%
%ADD11O,1.700000X1.700000*%
%ADD12R,0.700000X3.200000*%
%ADD13R,0.700000X4.300000*%
%ADD14C,3.200000*%
%ADD15RoundRect,0.140000X0.170000X-0.140000X0.170000X0.140000X-0.170000X0.140000X-0.170000X-0.140000X0*%
%ADD16RoundRect,0.135000X-0.135000X-0.185000X0.135000X-0.185000X0.135000X0.185000X-0.135000X0.185000X0*%
%ADD17RoundRect,0.140000X0.140000X0.170000X-0.140000X0.170000X-0.140000X-0.170000X0.140000X-0.170000X0*%
%ADD18RoundRect,0.135000X-0.185000X0.135000X-0.185000X-0.135000X0.185000X-0.135000X0.185000X0.135000X0*%
%ADD19RoundRect,0.250000X-0.650000X0.325000X-0.650000X-0.325000X0.650000X-0.325000X0.650000X0.325000X0*%
%ADD20RoundRect,0.250000X-0.250000X-0.475000X0.250000X-0.475000X0.250000X0.475000X-0.250000X0.475000X0*%
%ADD21RoundRect,0.140000X-0.140000X-0.170000X0.140000X-0.170000X0.140000X0.170000X-0.140000X0.170000X0*%
%ADD22RoundRect,0.250000X0.325000X0.650000X-0.325000X0.650000X-0.325000X-0.650000X0.325000X-0.650000X0*%
%ADD23RoundRect,0.200000X0.200000X0.275000X-0.200000X0.275000X-0.200000X-0.275000X0.200000X-0.275000X0*%
%ADD24RoundRect,0.140000X-0.170000X0.140000X-0.170000X-0.140000X0.170000X-0.140000X0.170000X0.140000X0*%
%ADD25R,0.860000X1.050000*%
%ADD26R,0.820000X1.050000*%
%ADD27RoundRect,0.250000X0.650000X-0.325000X0.650000X0.325000X-0.650000X0.325000X-0.650000X-0.325000X0*%
%ADD28RoundRect,0.250000X0.475000X-0.250000X0.475000X0.250000X-0.475000X0.250000X-0.475000X-0.250000X0*%
%ADD29RoundRect,0.250000X-0.475000X0.250000X-0.475000X-0.250000X0.475000X-0.250000X0.475000X0.250000X0*%
%ADD30RoundRect,0.250000X0.250000X0.475000X-0.250000X0.475000X-0.250000X-0.475000X0.250000X-0.475000X0*%
%ADD31RoundRect,0.250000X-0.229810X0.689429X-0.689429X0.229810X0.229810X-0.689429X0.689429X-0.229810X0*%
%ADD32RoundRect,0.150000X0.150000X-0.587500X0.150000X0.587500X-0.150000X0.587500X-0.150000X-0.587500X0*%
%ADD33RoundRect,0.135000X0.135000X0.185000X-0.135000X0.185000X-0.135000X-0.185000X0.135000X-0.185000X0*%
%ADD34RoundRect,0.150000X0.587500X0.150000X-0.587500X0.150000X-0.587500X-0.150000X0.587500X-0.150000X0*%
%ADD35RoundRect,0.135000X0.185000X-0.135000X0.185000X0.135000X-0.185000X0.135000X-0.185000X-0.135000X0*%
%ADD36RoundRect,0.250000X0.159099X-0.512652X0.512652X-0.159099X-0.159099X0.512652X-0.512652X0.159099X0*%
%ADD37RoundRect,0.250000X-0.512652X-0.159099X-0.159099X-0.512652X0.512652X0.159099X0.159099X0.512652X0*%
G04 APERTURE END LIST*
D10*
X86990000Y-52025000D03*
D11*
X84450000Y-52025000D03*
X81910000Y-52025000D03*
X79370000Y-52025000D03*
D10*
X103150000Y-63250000D03*
D11*
X105690000Y-63250000D03*
X108230000Y-63250000D03*
X110770000Y-63250000D03*
X113310000Y-63250000D03*
X115850000Y-63250000D03*
D10*
X98800000Y-52025000D03*
D11*
X96260000Y-52025000D03*
X93720000Y-52025000D03*
X91180000Y-52025000D03*
D10*
X57000000Y-76000000D03*
D11*
X57000000Y-78540000D03*
X57000000Y-81080000D03*
D12*
X62500000Y-121200000D03*
D13*
X63500000Y-121750000D03*
X64500000Y-121750000D03*
X65500000Y-121750000D03*
X66500000Y-121750000D03*
X67500000Y-121750000D03*
X68500000Y-121750000D03*
X69500000Y-121750000D03*
X70500000Y-121750000D03*
X71500000Y-121750000D03*
X72500000Y-121750000D03*
X75500000Y-121750000D03*
X76500000Y-121750000D03*
X77500000Y-121750000D03*
X78500000Y-121750000D03*
X79500000Y-121750000D03*
X80500000Y-121750000D03*
X81500000Y-121750000D03*
X82500000Y-121750000D03*
X83500000Y-121750000D03*
X84500000Y-121750000D03*
X85500000Y-121750000D03*
X86500000Y-121750000D03*
X87500000Y-121750000D03*
X88500000Y-121750000D03*
X89500000Y-121750000D03*
X90500000Y-121750000D03*
X91500000Y-121750000D03*
X92500000Y-121750000D03*
X93500000Y-121750000D03*
X94500000Y-121750000D03*
X95500000Y-121750000D03*
X96500000Y-121750000D03*
X97500000Y-121750000D03*
X98500000Y-121750000D03*
X99500000Y-121750000D03*
X100500000Y-121750000D03*
X101500000Y-121750000D03*
X102500000Y-121750000D03*
X103500000Y-121750000D03*
X104500000Y-121750000D03*
X105500000Y-121750000D03*
X106500000Y-121750000D03*
X107500000Y-121750000D03*
X108500000Y-121750000D03*
X109500000Y-121750000D03*
X110500000Y-121750000D03*
X111500000Y-121750000D03*
X112500000Y-121750000D03*
D14*
X116000000Y-54000000D03*
X51500000Y-54000000D03*
D10*
X53750000Y-108470000D03*
D11*
X53750000Y-111010000D03*
D10*
X57475000Y-108475000D03*
D11*
X60015000Y-108475000D03*
X57475000Y-111015000D03*
X60015000Y-111015000D03*
D15*
X85500000Y-116980000D03*
X85500000Y-116020000D03*
X84500000Y-116980000D03*
X84500000Y-116020000D03*
D16*
X111790000Y-75600000D03*
X112810000Y-75600000D03*
D17*
X114180000Y-72300000D03*
X113220000Y-72300000D03*
D15*
X107500000Y-116980000D03*
X107500000Y-116020000D03*
D18*
X59100000Y-99690000D03*
X59100000Y-100710000D03*
D19*
X67700000Y-103625000D03*
X67700000Y-106575000D03*
D15*
X80500000Y-116980000D03*
X80500000Y-116020000D03*
D18*
X68500000Y-55490000D03*
X68500000Y-56510000D03*
D20*
X85850000Y-77100000D03*
X87750000Y-77100000D03*
D21*
X114520000Y-74600000D03*
X115480000Y-74600000D03*
D20*
X75050000Y-73500000D03*
X76950000Y-73500000D03*
D17*
X88480000Y-101500000D03*
X87520000Y-101500000D03*
D22*
X78375000Y-88800000D03*
X75425000Y-88800000D03*
D23*
X85825000Y-89000000D03*
X84175000Y-89000000D03*
D24*
X87000000Y-83020000D03*
X87000000Y-83980000D03*
D15*
X88000000Y-83980000D03*
X88000000Y-83020000D03*
D18*
X62500000Y-55490000D03*
X62500000Y-56510000D03*
D19*
X66800000Y-110825000D03*
X66800000Y-113775000D03*
D24*
X89800000Y-86020000D03*
X89800000Y-86980000D03*
D25*
X98710000Y-66570000D03*
D26*
X100000000Y-66600000D03*
D25*
X101290000Y-66570000D03*
X101290000Y-68430000D03*
D26*
X100000000Y-68430000D03*
D25*
X98710000Y-68430000D03*
D15*
X88500000Y-116980000D03*
X88500000Y-116020000D03*
D19*
X62700000Y-95425000D03*
X62700000Y-98375000D03*
D15*
X110500000Y-116980000D03*
X110500000Y-116020000D03*
D27*
X72900000Y-89275000D03*
X72900000Y-86325000D03*
D24*
X98000000Y-82070000D03*
X98000000Y-83030000D03*
D15*
X106500000Y-116980000D03*
X106500000Y-116020000D03*
D19*
X72300000Y-110825000D03*
X72300000Y-113775000D03*
D21*
X108120000Y-73000000D03*
X109080000Y-73000000D03*
D27*
X68000000Y-91875000D03*
X68000000Y-88925000D03*
D28*
X95500000Y-75850000D03*
X95500000Y-73950000D03*
D20*
X76050000Y-96500000D03*
X77950000Y-96500000D03*
D29*
X118000000Y-70850000D03*
X118000000Y-72750000D03*
X77500000Y-92050000D03*
X77500000Y-93950000D03*
D18*
X60500000Y-55490000D03*
X60500000Y-56510000D03*
D30*
X91850000Y-93500000D03*
X89950000Y-93500000D03*
D31*
X65742983Y-101257017D03*
X63657017Y-103342983D03*
D27*
X65600000Y-91875000D03*
X65600000Y-88925000D03*
D15*
X93500000Y-116980000D03*
X93500000Y-116020000D03*
D21*
X109420000Y-74600000D03*
X110380000Y-74600000D03*
D15*
X93000000Y-84980000D03*
X93000000Y-84020000D03*
D32*
X51450000Y-89937500D03*
X49550000Y-89937500D03*
X50500000Y-88062500D03*
D33*
X96010000Y-86270000D03*
X94990000Y-86270000D03*
D19*
X63400000Y-109325000D03*
X63400000Y-112275000D03*
D15*
X61300000Y-100680000D03*
X61300000Y-99720000D03*
X103500000Y-116980000D03*
X103500000Y-116020000D03*
D19*
X69800000Y-110825000D03*
X69800000Y-113775000D03*
D18*
X66700000Y-83990000D03*
X66700000Y-85010000D03*
D21*
X95020000Y-91300000D03*
X95980000Y-91300000D03*
D17*
X114480000Y-85500000D03*
X113520000Y-85500000D03*
D21*
X111820000Y-73600000D03*
X112780000Y-73600000D03*
D30*
X81150000Y-80500000D03*
X79250000Y-80500000D03*
D21*
X114220000Y-76200000D03*
X115180000Y-76200000D03*
D34*
X52437500Y-104050000D03*
X52437500Y-105950000D03*
X50562500Y-105000000D03*
D17*
X114480000Y-84500000D03*
X113520000Y-84500000D03*
D15*
X92500000Y-116980000D03*
X92500000Y-116020000D03*
X107800000Y-76280000D03*
X107800000Y-75320000D03*
X89500000Y-116980000D03*
X89500000Y-116020000D03*
D18*
X74500000Y-55490000D03*
X74500000Y-56510000D03*
X48900000Y-103990000D03*
X48900000Y-105010000D03*
D17*
X97980000Y-90300000D03*
X97020000Y-90300000D03*
D20*
X85150000Y-73500000D03*
X87050000Y-73500000D03*
D15*
X87000000Y-90980000D03*
X87000000Y-90020000D03*
X102500000Y-116980000D03*
X102500000Y-116020000D03*
D27*
X79200000Y-86075000D03*
X79200000Y-83125000D03*
D35*
X60200000Y-100710000D03*
X60200000Y-99690000D03*
D17*
X88480000Y-102500000D03*
X87520000Y-102500000D03*
D33*
X68510000Y-94800000D03*
X67490000Y-94800000D03*
D27*
X62230000Y-92915000D03*
X62230000Y-89965000D03*
D18*
X64500000Y-55490000D03*
X64500000Y-56510000D03*
D15*
X89000000Y-82980000D03*
X89000000Y-82020000D03*
D17*
X87980000Y-85900000D03*
X87020000Y-85900000D03*
D15*
X93000000Y-82980000D03*
X93000000Y-82020000D03*
D20*
X86050000Y-96500000D03*
X87950000Y-96500000D03*
D24*
X114200000Y-78920000D03*
X114200000Y-79880000D03*
D15*
X98500000Y-116980000D03*
X98500000Y-116020000D03*
X107800000Y-80380000D03*
X107800000Y-79420000D03*
D25*
X115710000Y-80070000D03*
D26*
X117000000Y-80100000D03*
D25*
X118290000Y-80070000D03*
X118290000Y-81930000D03*
D26*
X117000000Y-81930000D03*
D25*
X115710000Y-81930000D03*
D18*
X66500000Y-55490000D03*
X66500000Y-56510000D03*
D15*
X106800000Y-74580000D03*
X106800000Y-73620000D03*
D36*
X90828249Y-80571751D03*
X92171751Y-79228249D03*
D15*
X79500000Y-116980000D03*
X79500000Y-116020000D03*
D17*
X87980000Y-88000000D03*
X87020000Y-88000000D03*
D21*
X93020000Y-89000000D03*
X93980000Y-89000000D03*
D18*
X72500000Y-55490000D03*
X72500000Y-56510000D03*
D17*
X111780000Y-72600000D03*
X110820000Y-72600000D03*
D19*
X72900000Y-91125000D03*
X72900000Y-94075000D03*
D15*
X111500000Y-116980000D03*
X111500000Y-116020000D03*
D37*
X89328249Y-74828249D03*
X90671751Y-76171751D03*
D15*
X99500000Y-116980000D03*
X99500000Y-116020000D03*
D36*
X99228249Y-74671751D03*
X100571751Y-73328249D03*
D18*
X67800000Y-83990000D03*
X67800000Y-85010000D03*
D23*
X85825000Y-92000000D03*
X84175000Y-92000000D03*
D17*
X91980000Y-88100000D03*
X91020000Y-88100000D03*
D18*
X70500000Y-55490000D03*
X70500000Y-56510000D03*
D22*
X58775000Y-88100000D03*
X55825000Y-88100000D03*
D33*
X112810000Y-74600000D03*
X111790000Y-74600000D03*
M02*
