G04 #@! TF.GenerationSoftware,KiCad,Pcbnew,6.0.11+dfsg-1*
G04 #@! TF.CreationDate,2023-08-05T12:29:56+02:00*
G04 #@! TF.ProjectId,kintex-pcie,6b696e74-6578-42d7-9063-69652e6b6963,rev?*
G04 #@! TF.SameCoordinates,Original*
G04 #@! TF.FileFunction,Legend,Bot*
G04 #@! TF.FilePolarity,Positive*
%FSLAX46Y46*%
G04 Gerber Fmt 4.6, Leading zero omitted, Abs format (unit mm)*
G04 Created by KiCad (PCBNEW 6.0.11+dfsg-1) date 2023-08-05 12:29:56*
%MOMM*%
%LPD*%
G01*
G04 APERTURE LIST*
G04 Aperture macros list*
%AMRoundRect*
0 Rectangle with rounded corners*
0 $1 Rounding radius*
0 $2 $3 $4 $5 $6 $7 $8 $9 X,Y pos of 4 corners*
0 Add a 4 corners polygon primitive as box body*
4,1,4,$2,$3,$4,$5,$6,$7,$8,$9,$2,$3,0*
0 Add four circle primitives for the rounded corners*
1,1,$1+$1,$2,$3*
1,1,$1+$1,$4,$5*
1,1,$1+$1,$6,$7*
1,1,$1+$1,$8,$9*
0 Add four rect primitives between the rounded corners*
20,1,$1+$1,$2,$3,$4,$5,0*
20,1,$1+$1,$4,$5,$6,$7,0*
20,1,$1+$1,$6,$7,$8,$9,0*
20,1,$1+$1,$8,$9,$2,$3,0*%
G04 Aperture macros list end*
%ADD10C,0.150000*%
%ADD11C,0.120000*%
%ADD12C,0.250000*%
%ADD13C,0.300000*%
%ADD14R,1.700000X1.700000*%
%ADD15O,1.700000X1.700000*%
%ADD16R,0.700000X3.200000*%
%ADD17R,0.700000X4.300000*%
%ADD18C,3.200000*%
%ADD19RoundRect,0.140000X0.170000X-0.140000X0.170000X0.140000X-0.170000X0.140000X-0.170000X-0.140000X0*%
%ADD20RoundRect,0.135000X-0.135000X-0.185000X0.135000X-0.185000X0.135000X0.185000X-0.135000X0.185000X0*%
%ADD21RoundRect,0.140000X0.140000X0.170000X-0.140000X0.170000X-0.140000X-0.170000X0.140000X-0.170000X0*%
%ADD22RoundRect,0.135000X-0.185000X0.135000X-0.185000X-0.135000X0.185000X-0.135000X0.185000X0.135000X0*%
%ADD23RoundRect,0.250000X-0.650000X0.325000X-0.650000X-0.325000X0.650000X-0.325000X0.650000X0.325000X0*%
%ADD24RoundRect,0.250000X-0.250000X-0.475000X0.250000X-0.475000X0.250000X0.475000X-0.250000X0.475000X0*%
%ADD25RoundRect,0.140000X-0.140000X-0.170000X0.140000X-0.170000X0.140000X0.170000X-0.140000X0.170000X0*%
%ADD26RoundRect,0.250000X0.325000X0.650000X-0.325000X0.650000X-0.325000X-0.650000X0.325000X-0.650000X0*%
%ADD27RoundRect,0.200000X0.200000X0.275000X-0.200000X0.275000X-0.200000X-0.275000X0.200000X-0.275000X0*%
%ADD28RoundRect,0.140000X-0.170000X0.140000X-0.170000X-0.140000X0.170000X-0.140000X0.170000X0.140000X0*%
%ADD29R,0.860000X1.050000*%
%ADD30R,0.820000X1.050000*%
%ADD31RoundRect,0.250000X0.650000X-0.325000X0.650000X0.325000X-0.650000X0.325000X-0.650000X-0.325000X0*%
%ADD32RoundRect,0.250000X0.475000X-0.250000X0.475000X0.250000X-0.475000X0.250000X-0.475000X-0.250000X0*%
%ADD33RoundRect,0.250000X-0.475000X0.250000X-0.475000X-0.250000X0.475000X-0.250000X0.475000X0.250000X0*%
%ADD34RoundRect,0.250000X0.250000X0.475000X-0.250000X0.475000X-0.250000X-0.475000X0.250000X-0.475000X0*%
%ADD35RoundRect,0.250000X-0.229810X0.689429X-0.689429X0.229810X0.229810X-0.689429X0.689429X-0.229810X0*%
%ADD36RoundRect,0.150000X0.150000X-0.587500X0.150000X0.587500X-0.150000X0.587500X-0.150000X-0.587500X0*%
%ADD37RoundRect,0.135000X0.135000X0.185000X-0.135000X0.185000X-0.135000X-0.185000X0.135000X-0.185000X0*%
%ADD38RoundRect,0.150000X0.587500X0.150000X-0.587500X0.150000X-0.587500X-0.150000X0.587500X-0.150000X0*%
%ADD39RoundRect,0.135000X0.185000X-0.135000X0.185000X0.135000X-0.185000X0.135000X-0.185000X-0.135000X0*%
%ADD40RoundRect,0.250000X0.159099X-0.512652X0.512652X-0.159099X-0.159099X0.512652X-0.512652X0.159099X0*%
%ADD41RoundRect,0.250000X-0.512652X-0.159099X-0.159099X-0.512652X0.512652X0.159099X0.159099X0.512652X0*%
G04 APERTURE END LIST*
D10*
X86557142Y-112380952D02*
X86604761Y-112333333D01*
X86652380Y-112190476D01*
X86652380Y-112095238D01*
X86604761Y-111952380D01*
X86509523Y-111857142D01*
X86414285Y-111809523D01*
X86223809Y-111761904D01*
X86080952Y-111761904D01*
X85890476Y-111809523D01*
X85795238Y-111857142D01*
X85700000Y-111952380D01*
X85652380Y-112095238D01*
X85652380Y-112190476D01*
X85700000Y-112333333D01*
X85747619Y-112380952D01*
X86652380Y-113333333D02*
X86652380Y-112761904D01*
X86652380Y-113047619D02*
X85652380Y-113047619D01*
X85795238Y-112952380D01*
X85890476Y-112857142D01*
X85938095Y-112761904D01*
X85652380Y-113952380D02*
X85652380Y-114047619D01*
X85700000Y-114142857D01*
X85747619Y-114190476D01*
X85842857Y-114238095D01*
X86033333Y-114285714D01*
X86271428Y-114285714D01*
X86461904Y-114238095D01*
X86557142Y-114190476D01*
X86604761Y-114142857D01*
X86652380Y-114047619D01*
X86652380Y-113952380D01*
X86604761Y-113857142D01*
X86557142Y-113809523D01*
X86461904Y-113761904D01*
X86271428Y-113714285D01*
X86033333Y-113714285D01*
X85842857Y-113761904D01*
X85747619Y-113809523D01*
X85700000Y-113857142D01*
X85652380Y-113952380D01*
X85652380Y-114619047D02*
X85652380Y-115238095D01*
X86033333Y-114904761D01*
X86033333Y-115047619D01*
X86080952Y-115142857D01*
X86128571Y-115190476D01*
X86223809Y-115238095D01*
X86461904Y-115238095D01*
X86557142Y-115190476D01*
X86604761Y-115142857D01*
X86652380Y-115047619D01*
X86652380Y-114761904D01*
X86604761Y-114666666D01*
X86557142Y-114619047D01*
X81652380Y-76857142D02*
X80652380Y-76857142D01*
X81652380Y-77428571D01*
X80652380Y-77428571D01*
X80652380Y-77761904D02*
X80652380Y-78333333D01*
X81652380Y-78047619D02*
X80652380Y-78047619D01*
X80985714Y-79095238D02*
X81652380Y-79095238D01*
X80604761Y-78857142D02*
X81319047Y-78619047D01*
X81319047Y-79238095D01*
X84257142Y-112380952D02*
X84304761Y-112333333D01*
X84352380Y-112190476D01*
X84352380Y-112095238D01*
X84304761Y-111952380D01*
X84209523Y-111857142D01*
X84114285Y-111809523D01*
X83923809Y-111761904D01*
X83780952Y-111761904D01*
X83590476Y-111809523D01*
X83495238Y-111857142D01*
X83400000Y-111952380D01*
X83352380Y-112095238D01*
X83352380Y-112190476D01*
X83400000Y-112333333D01*
X83447619Y-112380952D01*
X84352380Y-113333333D02*
X84352380Y-112761904D01*
X84352380Y-113047619D02*
X83352380Y-113047619D01*
X83495238Y-112952380D01*
X83590476Y-112857142D01*
X83638095Y-112761904D01*
X83352380Y-113952380D02*
X83352380Y-114047619D01*
X83400000Y-114142857D01*
X83447619Y-114190476D01*
X83542857Y-114238095D01*
X83733333Y-114285714D01*
X83971428Y-114285714D01*
X84161904Y-114238095D01*
X84257142Y-114190476D01*
X84304761Y-114142857D01*
X84352380Y-114047619D01*
X84352380Y-113952380D01*
X84304761Y-113857142D01*
X84257142Y-113809523D01*
X84161904Y-113761904D01*
X83971428Y-113714285D01*
X83733333Y-113714285D01*
X83542857Y-113761904D01*
X83447619Y-113809523D01*
X83400000Y-113857142D01*
X83352380Y-113952380D01*
X83447619Y-114666666D02*
X83400000Y-114714285D01*
X83352380Y-114809523D01*
X83352380Y-115047619D01*
X83400000Y-115142857D01*
X83447619Y-115190476D01*
X83542857Y-115238095D01*
X83638095Y-115238095D01*
X83780952Y-115190476D01*
X84352380Y-114619047D01*
X84352380Y-115238095D01*
X111642857Y-71552380D02*
X111976190Y-71076190D01*
X112214285Y-71552380D02*
X112214285Y-70552380D01*
X111833333Y-70552380D01*
X111738095Y-70600000D01*
X111690476Y-70647619D01*
X111642857Y-70742857D01*
X111642857Y-70885714D01*
X111690476Y-70980952D01*
X111738095Y-71028571D01*
X111833333Y-71076190D01*
X112214285Y-71076190D01*
X110690476Y-71552380D02*
X111261904Y-71552380D01*
X110976190Y-71552380D02*
X110976190Y-70552380D01*
X111071428Y-70695238D01*
X111166666Y-70790476D01*
X111261904Y-70838095D01*
X110214285Y-71552380D02*
X110023809Y-71552380D01*
X109928571Y-71504761D01*
X109880952Y-71457142D01*
X109785714Y-71314285D01*
X109738095Y-71123809D01*
X109738095Y-70742857D01*
X109785714Y-70647619D01*
X109833333Y-70600000D01*
X109928571Y-70552380D01*
X110119047Y-70552380D01*
X110214285Y-70600000D01*
X110261904Y-70647619D01*
X110309523Y-70742857D01*
X110309523Y-70980952D01*
X110261904Y-71076190D01*
X110214285Y-71123809D01*
X110119047Y-71171428D01*
X109928571Y-71171428D01*
X109833333Y-71123809D01*
X109785714Y-71076190D01*
X109738095Y-70980952D01*
X114742857Y-71497142D02*
X114790476Y-71544761D01*
X114933333Y-71592380D01*
X115028571Y-71592380D01*
X115171428Y-71544761D01*
X115266666Y-71449523D01*
X115314285Y-71354285D01*
X115361904Y-71163809D01*
X115361904Y-71020952D01*
X115314285Y-70830476D01*
X115266666Y-70735238D01*
X115171428Y-70640000D01*
X115028571Y-70592380D01*
X114933333Y-70592380D01*
X114790476Y-70640000D01*
X114742857Y-70687619D01*
X113838095Y-70592380D02*
X114314285Y-70592380D01*
X114361904Y-71068571D01*
X114314285Y-71020952D01*
X114219047Y-70973333D01*
X113980952Y-70973333D01*
X113885714Y-71020952D01*
X113838095Y-71068571D01*
X113790476Y-71163809D01*
X113790476Y-71401904D01*
X113838095Y-71497142D01*
X113885714Y-71544761D01*
X113980952Y-71592380D01*
X114219047Y-71592380D01*
X114314285Y-71544761D01*
X114361904Y-71497142D01*
X113457142Y-70592380D02*
X112838095Y-70592380D01*
X113171428Y-70973333D01*
X113028571Y-70973333D01*
X112933333Y-71020952D01*
X112885714Y-71068571D01*
X112838095Y-71163809D01*
X112838095Y-71401904D01*
X112885714Y-71497142D01*
X112933333Y-71544761D01*
X113028571Y-71592380D01*
X113314285Y-71592380D01*
X113409523Y-71544761D01*
X113457142Y-71497142D01*
X108557142Y-112380952D02*
X108604761Y-112333333D01*
X108652380Y-112190476D01*
X108652380Y-112095238D01*
X108604761Y-111952380D01*
X108509523Y-111857142D01*
X108414285Y-111809523D01*
X108223809Y-111761904D01*
X108080952Y-111761904D01*
X107890476Y-111809523D01*
X107795238Y-111857142D01*
X107700000Y-111952380D01*
X107652380Y-112095238D01*
X107652380Y-112190476D01*
X107700000Y-112333333D01*
X107747619Y-112380952D01*
X108652380Y-113333333D02*
X108652380Y-112761904D01*
X108652380Y-113047619D02*
X107652380Y-113047619D01*
X107795238Y-112952380D01*
X107890476Y-112857142D01*
X107938095Y-112761904D01*
X108652380Y-114285714D02*
X108652380Y-113714285D01*
X108652380Y-114000000D02*
X107652380Y-114000000D01*
X107795238Y-113904761D01*
X107890476Y-113809523D01*
X107938095Y-113714285D01*
X107652380Y-114619047D02*
X107652380Y-115238095D01*
X108033333Y-114904761D01*
X108033333Y-115047619D01*
X108080952Y-115142857D01*
X108128571Y-115190476D01*
X108223809Y-115238095D01*
X108461904Y-115238095D01*
X108557142Y-115190476D01*
X108604761Y-115142857D01*
X108652380Y-115047619D01*
X108652380Y-114761904D01*
X108604761Y-114666666D01*
X108557142Y-114619047D01*
X59152380Y-102057142D02*
X58676190Y-101723809D01*
X59152380Y-101485714D02*
X58152380Y-101485714D01*
X58152380Y-101866666D01*
X58200000Y-101961904D01*
X58247619Y-102009523D01*
X58342857Y-102057142D01*
X58485714Y-102057142D01*
X58580952Y-102009523D01*
X58628571Y-101961904D01*
X58676190Y-101866666D01*
X58676190Y-101485714D01*
X59152380Y-103009523D02*
X59152380Y-102438095D01*
X59152380Y-102723809D02*
X58152380Y-102723809D01*
X58295238Y-102628571D01*
X58390476Y-102533333D01*
X58438095Y-102438095D01*
X58247619Y-103390476D02*
X58200000Y-103438095D01*
X58152380Y-103533333D01*
X58152380Y-103771428D01*
X58200000Y-103866666D01*
X58247619Y-103914285D01*
X58342857Y-103961904D01*
X58438095Y-103961904D01*
X58580952Y-103914285D01*
X59152380Y-103342857D01*
X59152380Y-103961904D01*
X66207142Y-104457142D02*
X66254761Y-104409523D01*
X66302380Y-104266666D01*
X66302380Y-104171428D01*
X66254761Y-104028571D01*
X66159523Y-103933333D01*
X66064285Y-103885714D01*
X65873809Y-103838095D01*
X65730952Y-103838095D01*
X65540476Y-103885714D01*
X65445238Y-103933333D01*
X65350000Y-104028571D01*
X65302380Y-104171428D01*
X65302380Y-104266666D01*
X65350000Y-104409523D01*
X65397619Y-104457142D01*
X65397619Y-104838095D02*
X65350000Y-104885714D01*
X65302380Y-104980952D01*
X65302380Y-105219047D01*
X65350000Y-105314285D01*
X65397619Y-105361904D01*
X65492857Y-105409523D01*
X65588095Y-105409523D01*
X65730952Y-105361904D01*
X66302380Y-104790476D01*
X66302380Y-105409523D01*
X65635714Y-106266666D02*
X66302380Y-106266666D01*
X65254761Y-106028571D02*
X65969047Y-105790476D01*
X65969047Y-106409523D01*
X81557142Y-112380952D02*
X81604761Y-112333333D01*
X81652380Y-112190476D01*
X81652380Y-112095238D01*
X81604761Y-111952380D01*
X81509523Y-111857142D01*
X81414285Y-111809523D01*
X81223809Y-111761904D01*
X81080952Y-111761904D01*
X80890476Y-111809523D01*
X80795238Y-111857142D01*
X80700000Y-111952380D01*
X80652380Y-112095238D01*
X80652380Y-112190476D01*
X80700000Y-112333333D01*
X80747619Y-112380952D01*
X81652380Y-113333333D02*
X81652380Y-112761904D01*
X81652380Y-113047619D02*
X80652380Y-113047619D01*
X80795238Y-112952380D01*
X80890476Y-112857142D01*
X80938095Y-112761904D01*
X80652380Y-113952380D02*
X80652380Y-114047619D01*
X80700000Y-114142857D01*
X80747619Y-114190476D01*
X80842857Y-114238095D01*
X81033333Y-114285714D01*
X81271428Y-114285714D01*
X81461904Y-114238095D01*
X81557142Y-114190476D01*
X81604761Y-114142857D01*
X81652380Y-114047619D01*
X81652380Y-113952380D01*
X81604761Y-113857142D01*
X81557142Y-113809523D01*
X81461904Y-113761904D01*
X81271428Y-113714285D01*
X81033333Y-113714285D01*
X80842857Y-113761904D01*
X80747619Y-113809523D01*
X80700000Y-113857142D01*
X80652380Y-113952380D01*
X81652380Y-115238095D02*
X81652380Y-114666666D01*
X81652380Y-114952380D02*
X80652380Y-114952380D01*
X80795238Y-114857142D01*
X80890476Y-114761904D01*
X80938095Y-114666666D01*
X68952380Y-58357142D02*
X68476190Y-58023809D01*
X68952380Y-57785714D02*
X67952380Y-57785714D01*
X67952380Y-58166666D01*
X68000000Y-58261904D01*
X68047619Y-58309523D01*
X68142857Y-58357142D01*
X68285714Y-58357142D01*
X68380952Y-58309523D01*
X68428571Y-58261904D01*
X68476190Y-58166666D01*
X68476190Y-57785714D01*
X67952380Y-58690476D02*
X67952380Y-59309523D01*
X68333333Y-58976190D01*
X68333333Y-59119047D01*
X68380952Y-59214285D01*
X68428571Y-59261904D01*
X68523809Y-59309523D01*
X68761904Y-59309523D01*
X68857142Y-59261904D01*
X68904761Y-59214285D01*
X68952380Y-59119047D01*
X68952380Y-58833333D01*
X68904761Y-58738095D01*
X68857142Y-58690476D01*
X67952380Y-59928571D02*
X67952380Y-60023809D01*
X68000000Y-60119047D01*
X68047619Y-60166666D01*
X68142857Y-60214285D01*
X68333333Y-60261904D01*
X68571428Y-60261904D01*
X68761904Y-60214285D01*
X68857142Y-60166666D01*
X68904761Y-60119047D01*
X68952380Y-60023809D01*
X68952380Y-59928571D01*
X68904761Y-59833333D01*
X68857142Y-59785714D01*
X68761904Y-59738095D01*
X68571428Y-59690476D01*
X68333333Y-59690476D01*
X68142857Y-59738095D01*
X68047619Y-59785714D01*
X68000000Y-59833333D01*
X67952380Y-59928571D01*
X87442857Y-79137142D02*
X87490476Y-79184761D01*
X87633333Y-79232380D01*
X87728571Y-79232380D01*
X87871428Y-79184761D01*
X87966666Y-79089523D01*
X88014285Y-78994285D01*
X88061904Y-78803809D01*
X88061904Y-78660952D01*
X88014285Y-78470476D01*
X87966666Y-78375238D01*
X87871428Y-78280000D01*
X87728571Y-78232380D01*
X87633333Y-78232380D01*
X87490476Y-78280000D01*
X87442857Y-78327619D01*
X87061904Y-78327619D02*
X87014285Y-78280000D01*
X86919047Y-78232380D01*
X86680952Y-78232380D01*
X86585714Y-78280000D01*
X86538095Y-78327619D01*
X86490476Y-78422857D01*
X86490476Y-78518095D01*
X86538095Y-78660952D01*
X87109523Y-79232380D01*
X86490476Y-79232380D01*
X86014285Y-79232380D02*
X85823809Y-79232380D01*
X85728571Y-79184761D01*
X85680952Y-79137142D01*
X85585714Y-78994285D01*
X85538095Y-78803809D01*
X85538095Y-78422857D01*
X85585714Y-78327619D01*
X85633333Y-78280000D01*
X85728571Y-78232380D01*
X85919047Y-78232380D01*
X86014285Y-78280000D01*
X86061904Y-78327619D01*
X86109523Y-78422857D01*
X86109523Y-78660952D01*
X86061904Y-78756190D01*
X86014285Y-78803809D01*
X85919047Y-78851428D01*
X85728571Y-78851428D01*
X85633333Y-78803809D01*
X85585714Y-78756190D01*
X85538095Y-78660952D01*
X118542857Y-74957142D02*
X118590476Y-75004761D01*
X118733333Y-75052380D01*
X118828571Y-75052380D01*
X118971428Y-75004761D01*
X119066666Y-74909523D01*
X119114285Y-74814285D01*
X119161904Y-74623809D01*
X119161904Y-74480952D01*
X119114285Y-74290476D01*
X119066666Y-74195238D01*
X118971428Y-74100000D01*
X118828571Y-74052380D01*
X118733333Y-74052380D01*
X118590476Y-74100000D01*
X118542857Y-74147619D01*
X117638095Y-74052380D02*
X118114285Y-74052380D01*
X118161904Y-74528571D01*
X118114285Y-74480952D01*
X118019047Y-74433333D01*
X117780952Y-74433333D01*
X117685714Y-74480952D01*
X117638095Y-74528571D01*
X117590476Y-74623809D01*
X117590476Y-74861904D01*
X117638095Y-74957142D01*
X117685714Y-75004761D01*
X117780952Y-75052380D01*
X118019047Y-75052380D01*
X118114285Y-75004761D01*
X118161904Y-74957142D01*
X116733333Y-74052380D02*
X116923809Y-74052380D01*
X117019047Y-74100000D01*
X117066666Y-74147619D01*
X117161904Y-74290476D01*
X117209523Y-74480952D01*
X117209523Y-74861904D01*
X117161904Y-74957142D01*
X117114285Y-75004761D01*
X117019047Y-75052380D01*
X116828571Y-75052380D01*
X116733333Y-75004761D01*
X116685714Y-74957142D01*
X116638095Y-74861904D01*
X116638095Y-74623809D01*
X116685714Y-74528571D01*
X116733333Y-74480952D01*
X116828571Y-74433333D01*
X117019047Y-74433333D01*
X117114285Y-74480952D01*
X117161904Y-74528571D01*
X117209523Y-74623809D01*
X76642857Y-75537142D02*
X76690476Y-75584761D01*
X76833333Y-75632380D01*
X76928571Y-75632380D01*
X77071428Y-75584761D01*
X77166666Y-75489523D01*
X77214285Y-75394285D01*
X77261904Y-75203809D01*
X77261904Y-75060952D01*
X77214285Y-74870476D01*
X77166666Y-74775238D01*
X77071428Y-74680000D01*
X76928571Y-74632380D01*
X76833333Y-74632380D01*
X76690476Y-74680000D01*
X76642857Y-74727619D01*
X75785714Y-74965714D02*
X75785714Y-75632380D01*
X76023809Y-74584761D02*
X76261904Y-75299047D01*
X75642857Y-75299047D01*
X74738095Y-75632380D02*
X75309523Y-75632380D01*
X75023809Y-75632380D02*
X75023809Y-74632380D01*
X75119047Y-74775238D01*
X75214285Y-74870476D01*
X75309523Y-74918095D01*
X89119047Y-100357142D02*
X89166666Y-100404761D01*
X89309523Y-100452380D01*
X89404761Y-100452380D01*
X89547619Y-100404761D01*
X89642857Y-100309523D01*
X89690476Y-100214285D01*
X89738095Y-100023809D01*
X89738095Y-99880952D01*
X89690476Y-99690476D01*
X89642857Y-99595238D01*
X89547619Y-99500000D01*
X89404761Y-99452380D01*
X89309523Y-99452380D01*
X89166666Y-99500000D01*
X89119047Y-99547619D01*
X88166666Y-100452380D02*
X88738095Y-100452380D01*
X88452380Y-100452380D02*
X88452380Y-99452380D01*
X88547619Y-99595238D01*
X88642857Y-99690476D01*
X88738095Y-99738095D01*
X87785714Y-99547619D02*
X87738095Y-99500000D01*
X87642857Y-99452380D01*
X87404761Y-99452380D01*
X87309523Y-99500000D01*
X87261904Y-99547619D01*
X87214285Y-99642857D01*
X87214285Y-99738095D01*
X87261904Y-99880952D01*
X87833333Y-100452380D01*
X87214285Y-100452380D01*
X86595238Y-99452380D02*
X86500000Y-99452380D01*
X86404761Y-99500000D01*
X86357142Y-99547619D01*
X86309523Y-99642857D01*
X86261904Y-99833333D01*
X86261904Y-100071428D01*
X86309523Y-100261904D01*
X86357142Y-100357142D01*
X86404761Y-100404761D01*
X86500000Y-100452380D01*
X86595238Y-100452380D01*
X86690476Y-100404761D01*
X86738095Y-100357142D01*
X86785714Y-100261904D01*
X86833333Y-100071428D01*
X86833333Y-99833333D01*
X86785714Y-99642857D01*
X86738095Y-99547619D01*
X86690476Y-99500000D01*
X86595238Y-99452380D01*
X76942857Y-87157142D02*
X76990476Y-87204761D01*
X77133333Y-87252380D01*
X77228571Y-87252380D01*
X77371428Y-87204761D01*
X77466666Y-87109523D01*
X77514285Y-87014285D01*
X77561904Y-86823809D01*
X77561904Y-86680952D01*
X77514285Y-86490476D01*
X77466666Y-86395238D01*
X77371428Y-86300000D01*
X77228571Y-86252380D01*
X77133333Y-86252380D01*
X76990476Y-86300000D01*
X76942857Y-86347619D01*
X76085714Y-86585714D02*
X76085714Y-87252380D01*
X76323809Y-86204761D02*
X76561904Y-86919047D01*
X75942857Y-86919047D01*
X75133333Y-86585714D02*
X75133333Y-87252380D01*
X75371428Y-86204761D02*
X75609523Y-86919047D01*
X74990476Y-86919047D01*
X82733333Y-88928571D02*
X83066666Y-88928571D01*
X83066666Y-89452380D02*
X83066666Y-88452380D01*
X82590476Y-88452380D01*
X81876190Y-88928571D02*
X81733333Y-88976190D01*
X81685714Y-89023809D01*
X81638095Y-89119047D01*
X81638095Y-89261904D01*
X81685714Y-89357142D01*
X81733333Y-89404761D01*
X81828571Y-89452380D01*
X82209523Y-89452380D01*
X82209523Y-88452380D01*
X81876190Y-88452380D01*
X81780952Y-88500000D01*
X81733333Y-88547619D01*
X81685714Y-88642857D01*
X81685714Y-88738095D01*
X81733333Y-88833333D01*
X81780952Y-88880952D01*
X81876190Y-88928571D01*
X82209523Y-88928571D01*
X80685714Y-89452380D02*
X81257142Y-89452380D01*
X80971428Y-89452380D02*
X80971428Y-88452380D01*
X81066666Y-88595238D01*
X81161904Y-88690476D01*
X81257142Y-88738095D01*
X84757142Y-83557142D02*
X84804761Y-83509523D01*
X84852380Y-83366666D01*
X84852380Y-83271428D01*
X84804761Y-83128571D01*
X84709523Y-83033333D01*
X84614285Y-82985714D01*
X84423809Y-82938095D01*
X84280952Y-82938095D01*
X84090476Y-82985714D01*
X83995238Y-83033333D01*
X83900000Y-83128571D01*
X83852380Y-83271428D01*
X83852380Y-83366666D01*
X83900000Y-83509523D01*
X83947619Y-83557142D01*
X83852380Y-83890476D02*
X83852380Y-84509523D01*
X84233333Y-84176190D01*
X84233333Y-84319047D01*
X84280952Y-84414285D01*
X84328571Y-84461904D01*
X84423809Y-84509523D01*
X84661904Y-84509523D01*
X84757142Y-84461904D01*
X84804761Y-84414285D01*
X84852380Y-84319047D01*
X84852380Y-84033333D01*
X84804761Y-83938095D01*
X84757142Y-83890476D01*
X83852380Y-85128571D02*
X83852380Y-85223809D01*
X83900000Y-85319047D01*
X83947619Y-85366666D01*
X84042857Y-85414285D01*
X84233333Y-85461904D01*
X84471428Y-85461904D01*
X84661904Y-85414285D01*
X84757142Y-85366666D01*
X84804761Y-85319047D01*
X84852380Y-85223809D01*
X84852380Y-85128571D01*
X84804761Y-85033333D01*
X84757142Y-84985714D01*
X84661904Y-84938095D01*
X84471428Y-84890476D01*
X84233333Y-84890476D01*
X84042857Y-84938095D01*
X83947619Y-84985714D01*
X83900000Y-85033333D01*
X83852380Y-85128571D01*
X84152380Y-72857142D02*
X83152380Y-72857142D01*
X84152380Y-73428571D01*
X83152380Y-73428571D01*
X83152380Y-73761904D02*
X83152380Y-74333333D01*
X84152380Y-74047619D02*
X83152380Y-74047619D01*
X83152380Y-74571428D02*
X83152380Y-75190476D01*
X83533333Y-74857142D01*
X83533333Y-75000000D01*
X83580952Y-75095238D01*
X83628571Y-75142857D01*
X83723809Y-75190476D01*
X83961904Y-75190476D01*
X84057142Y-75142857D01*
X84104761Y-75095238D01*
X84152380Y-75000000D01*
X84152380Y-74714285D01*
X84104761Y-74619047D01*
X84057142Y-74571428D01*
X89652380Y-78957142D02*
X88652380Y-78957142D01*
X89652380Y-79528571D01*
X88652380Y-79528571D01*
X88652380Y-79861904D02*
X88652380Y-80433333D01*
X89652380Y-80147619D02*
X88652380Y-80147619D01*
X88747619Y-80719047D02*
X88700000Y-80766666D01*
X88652380Y-80861904D01*
X88652380Y-81100000D01*
X88700000Y-81195238D01*
X88747619Y-81242857D01*
X88842857Y-81290476D01*
X88938095Y-81290476D01*
X89080952Y-81242857D01*
X89652380Y-80671428D01*
X89652380Y-81290476D01*
X86057142Y-83557142D02*
X86104761Y-83509523D01*
X86152380Y-83366666D01*
X86152380Y-83271428D01*
X86104761Y-83128571D01*
X86009523Y-83033333D01*
X85914285Y-82985714D01*
X85723809Y-82938095D01*
X85580952Y-82938095D01*
X85390476Y-82985714D01*
X85295238Y-83033333D01*
X85200000Y-83128571D01*
X85152380Y-83271428D01*
X85152380Y-83366666D01*
X85200000Y-83509523D01*
X85247619Y-83557142D01*
X85152380Y-83890476D02*
X85152380Y-84509523D01*
X85533333Y-84176190D01*
X85533333Y-84319047D01*
X85580952Y-84414285D01*
X85628571Y-84461904D01*
X85723809Y-84509523D01*
X85961904Y-84509523D01*
X86057142Y-84461904D01*
X86104761Y-84414285D01*
X86152380Y-84319047D01*
X86152380Y-84033333D01*
X86104761Y-83938095D01*
X86057142Y-83890476D01*
X85247619Y-84890476D02*
X85200000Y-84938095D01*
X85152380Y-85033333D01*
X85152380Y-85271428D01*
X85200000Y-85366666D01*
X85247619Y-85414285D01*
X85342857Y-85461904D01*
X85438095Y-85461904D01*
X85580952Y-85414285D01*
X86152380Y-84842857D01*
X86152380Y-85461904D01*
X62952380Y-58357142D02*
X62476190Y-58023809D01*
X62952380Y-57785714D02*
X61952380Y-57785714D01*
X61952380Y-58166666D01*
X62000000Y-58261904D01*
X62047619Y-58309523D01*
X62142857Y-58357142D01*
X62285714Y-58357142D01*
X62380952Y-58309523D01*
X62428571Y-58261904D01*
X62476190Y-58166666D01*
X62476190Y-57785714D01*
X62047619Y-58738095D02*
X62000000Y-58785714D01*
X61952380Y-58880952D01*
X61952380Y-59119047D01*
X62000000Y-59214285D01*
X62047619Y-59261904D01*
X62142857Y-59309523D01*
X62238095Y-59309523D01*
X62380952Y-59261904D01*
X62952380Y-58690476D01*
X62952380Y-59309523D01*
X61952380Y-59642857D02*
X61952380Y-60309523D01*
X62952380Y-59880952D01*
X66942857Y-115857142D02*
X66990476Y-115904761D01*
X67133333Y-115952380D01*
X67228571Y-115952380D01*
X67371428Y-115904761D01*
X67466666Y-115809523D01*
X67514285Y-115714285D01*
X67561904Y-115523809D01*
X67561904Y-115380952D01*
X67514285Y-115190476D01*
X67466666Y-115095238D01*
X67371428Y-115000000D01*
X67228571Y-114952380D01*
X67133333Y-114952380D01*
X66990476Y-115000000D01*
X66942857Y-115047619D01*
X66561904Y-115047619D02*
X66514285Y-115000000D01*
X66419047Y-114952380D01*
X66180952Y-114952380D01*
X66085714Y-115000000D01*
X66038095Y-115047619D01*
X65990476Y-115142857D01*
X65990476Y-115238095D01*
X66038095Y-115380952D01*
X66609523Y-115952380D01*
X65990476Y-115952380D01*
X65133333Y-114952380D02*
X65323809Y-114952380D01*
X65419047Y-115000000D01*
X65466666Y-115047619D01*
X65561904Y-115190476D01*
X65609523Y-115380952D01*
X65609523Y-115761904D01*
X65561904Y-115857142D01*
X65514285Y-115904761D01*
X65419047Y-115952380D01*
X65228571Y-115952380D01*
X65133333Y-115904761D01*
X65085714Y-115857142D01*
X65038095Y-115761904D01*
X65038095Y-115523809D01*
X65085714Y-115428571D01*
X65133333Y-115380952D01*
X65228571Y-115333333D01*
X65419047Y-115333333D01*
X65514285Y-115380952D01*
X65561904Y-115428571D01*
X65609523Y-115523809D01*
X90742857Y-85257142D02*
X90790476Y-85304761D01*
X90933333Y-85352380D01*
X91028571Y-85352380D01*
X91171428Y-85304761D01*
X91266666Y-85209523D01*
X91314285Y-85114285D01*
X91361904Y-84923809D01*
X91361904Y-84780952D01*
X91314285Y-84590476D01*
X91266666Y-84495238D01*
X91171428Y-84400000D01*
X91028571Y-84352380D01*
X90933333Y-84352380D01*
X90790476Y-84400000D01*
X90742857Y-84447619D01*
X89790476Y-85352380D02*
X90361904Y-85352380D01*
X90076190Y-85352380D02*
X90076190Y-84352380D01*
X90171428Y-84495238D01*
X90266666Y-84590476D01*
X90361904Y-84638095D01*
X89219047Y-84780952D02*
X89314285Y-84733333D01*
X89361904Y-84685714D01*
X89409523Y-84590476D01*
X89409523Y-84542857D01*
X89361904Y-84447619D01*
X89314285Y-84400000D01*
X89219047Y-84352380D01*
X89028571Y-84352380D01*
X88933333Y-84400000D01*
X88885714Y-84447619D01*
X88838095Y-84542857D01*
X88838095Y-84590476D01*
X88885714Y-84685714D01*
X88933333Y-84733333D01*
X89028571Y-84780952D01*
X89219047Y-84780952D01*
X89314285Y-84828571D01*
X89361904Y-84876190D01*
X89409523Y-84971428D01*
X89409523Y-85161904D01*
X89361904Y-85257142D01*
X89314285Y-85304761D01*
X89219047Y-85352380D01*
X89028571Y-85352380D01*
X88933333Y-85304761D01*
X88885714Y-85257142D01*
X88838095Y-85161904D01*
X88838095Y-84971428D01*
X88885714Y-84876190D01*
X88933333Y-84828571D01*
X89028571Y-84780952D01*
X104061904Y-66952380D02*
X104061904Y-67761904D01*
X104014285Y-67857142D01*
X103966666Y-67904761D01*
X103871428Y-67952380D01*
X103680952Y-67952380D01*
X103585714Y-67904761D01*
X103538095Y-67857142D01*
X103490476Y-67761904D01*
X103490476Y-66952380D01*
X102538095Y-66952380D02*
X103014285Y-66952380D01*
X103061904Y-67428571D01*
X103014285Y-67380952D01*
X102919047Y-67333333D01*
X102680952Y-67333333D01*
X102585714Y-67380952D01*
X102538095Y-67428571D01*
X102490476Y-67523809D01*
X102490476Y-67761904D01*
X102538095Y-67857142D01*
X102585714Y-67904761D01*
X102680952Y-67952380D01*
X102919047Y-67952380D01*
X103014285Y-67904761D01*
X103061904Y-67857142D01*
X88257142Y-112380952D02*
X88304761Y-112333333D01*
X88352380Y-112190476D01*
X88352380Y-112095238D01*
X88304761Y-111952380D01*
X88209523Y-111857142D01*
X88114285Y-111809523D01*
X87923809Y-111761904D01*
X87780952Y-111761904D01*
X87590476Y-111809523D01*
X87495238Y-111857142D01*
X87400000Y-111952380D01*
X87352380Y-112095238D01*
X87352380Y-112190476D01*
X87400000Y-112333333D01*
X87447619Y-112380952D01*
X88352380Y-113333333D02*
X88352380Y-112761904D01*
X88352380Y-113047619D02*
X87352380Y-113047619D01*
X87495238Y-112952380D01*
X87590476Y-112857142D01*
X87638095Y-112761904D01*
X87352380Y-113952380D02*
X87352380Y-114047619D01*
X87400000Y-114142857D01*
X87447619Y-114190476D01*
X87542857Y-114238095D01*
X87733333Y-114285714D01*
X87971428Y-114285714D01*
X88161904Y-114238095D01*
X88257142Y-114190476D01*
X88304761Y-114142857D01*
X88352380Y-114047619D01*
X88352380Y-113952380D01*
X88304761Y-113857142D01*
X88257142Y-113809523D01*
X88161904Y-113761904D01*
X87971428Y-113714285D01*
X87733333Y-113714285D01*
X87542857Y-113761904D01*
X87447619Y-113809523D01*
X87400000Y-113857142D01*
X87352380Y-113952380D01*
X87685714Y-115142857D02*
X88352380Y-115142857D01*
X87304761Y-114904761D02*
X88019047Y-114666666D01*
X88019047Y-115285714D01*
X61207142Y-96733333D02*
X61254761Y-96685714D01*
X61302380Y-96542857D01*
X61302380Y-96447619D01*
X61254761Y-96304761D01*
X61159523Y-96209523D01*
X61064285Y-96161904D01*
X60873809Y-96114285D01*
X60730952Y-96114285D01*
X60540476Y-96161904D01*
X60445238Y-96209523D01*
X60350000Y-96304761D01*
X60302380Y-96447619D01*
X60302380Y-96542857D01*
X60350000Y-96685714D01*
X60397619Y-96733333D01*
X60302380Y-97066666D02*
X60302380Y-97733333D01*
X61302380Y-97304761D01*
X110257142Y-112380952D02*
X110304761Y-112333333D01*
X110352380Y-112190476D01*
X110352380Y-112095238D01*
X110304761Y-111952380D01*
X110209523Y-111857142D01*
X110114285Y-111809523D01*
X109923809Y-111761904D01*
X109780952Y-111761904D01*
X109590476Y-111809523D01*
X109495238Y-111857142D01*
X109400000Y-111952380D01*
X109352380Y-112095238D01*
X109352380Y-112190476D01*
X109400000Y-112333333D01*
X109447619Y-112380952D01*
X110352380Y-113333333D02*
X110352380Y-112761904D01*
X110352380Y-113047619D02*
X109352380Y-113047619D01*
X109495238Y-112952380D01*
X109590476Y-112857142D01*
X109638095Y-112761904D01*
X110352380Y-114285714D02*
X110352380Y-113714285D01*
X110352380Y-114000000D02*
X109352380Y-114000000D01*
X109495238Y-113904761D01*
X109590476Y-113809523D01*
X109638095Y-113714285D01*
X109685714Y-115142857D02*
X110352380Y-115142857D01*
X109304761Y-114904761D02*
X110019047Y-114666666D01*
X110019047Y-115285714D01*
X73257142Y-83157142D02*
X73304761Y-83109523D01*
X73352380Y-82966666D01*
X73352380Y-82871428D01*
X73304761Y-82728571D01*
X73209523Y-82633333D01*
X73114285Y-82585714D01*
X72923809Y-82538095D01*
X72780952Y-82538095D01*
X72590476Y-82585714D01*
X72495238Y-82633333D01*
X72400000Y-82728571D01*
X72352380Y-82871428D01*
X72352380Y-82966666D01*
X72400000Y-83109523D01*
X72447619Y-83157142D01*
X73352380Y-84109523D02*
X73352380Y-83538095D01*
X73352380Y-83823809D02*
X72352380Y-83823809D01*
X72495238Y-83728571D01*
X72590476Y-83633333D01*
X72638095Y-83538095D01*
X72352380Y-84728571D02*
X72352380Y-84823809D01*
X72400000Y-84919047D01*
X72447619Y-84966666D01*
X72542857Y-85014285D01*
X72733333Y-85061904D01*
X72971428Y-85061904D01*
X73161904Y-85014285D01*
X73257142Y-84966666D01*
X73304761Y-84919047D01*
X73352380Y-84823809D01*
X73352380Y-84728571D01*
X73304761Y-84633333D01*
X73257142Y-84585714D01*
X73161904Y-84538095D01*
X72971428Y-84490476D01*
X72733333Y-84490476D01*
X72542857Y-84538095D01*
X72447619Y-84585714D01*
X72400000Y-84633333D01*
X72352380Y-84728571D01*
X97197142Y-81907142D02*
X97244761Y-81859523D01*
X97292380Y-81716666D01*
X97292380Y-81621428D01*
X97244761Y-81478571D01*
X97149523Y-81383333D01*
X97054285Y-81335714D01*
X96863809Y-81288095D01*
X96720952Y-81288095D01*
X96530476Y-81335714D01*
X96435238Y-81383333D01*
X96340000Y-81478571D01*
X96292380Y-81621428D01*
X96292380Y-81716666D01*
X96340000Y-81859523D01*
X96387619Y-81907142D01*
X96292380Y-82764285D02*
X96292380Y-82573809D01*
X96340000Y-82478571D01*
X96387619Y-82430952D01*
X96530476Y-82335714D01*
X96720952Y-82288095D01*
X97101904Y-82288095D01*
X97197142Y-82335714D01*
X97244761Y-82383333D01*
X97292380Y-82478571D01*
X97292380Y-82669047D01*
X97244761Y-82764285D01*
X97197142Y-82811904D01*
X97101904Y-82859523D01*
X96863809Y-82859523D01*
X96768571Y-82811904D01*
X96720952Y-82764285D01*
X96673333Y-82669047D01*
X96673333Y-82478571D01*
X96720952Y-82383333D01*
X96768571Y-82335714D01*
X96863809Y-82288095D01*
X96292380Y-83716666D02*
X96292380Y-83526190D01*
X96340000Y-83430952D01*
X96387619Y-83383333D01*
X96530476Y-83288095D01*
X96720952Y-83240476D01*
X97101904Y-83240476D01*
X97197142Y-83288095D01*
X97244761Y-83335714D01*
X97292380Y-83430952D01*
X97292380Y-83621428D01*
X97244761Y-83716666D01*
X97197142Y-83764285D01*
X97101904Y-83811904D01*
X96863809Y-83811904D01*
X96768571Y-83764285D01*
X96720952Y-83716666D01*
X96673333Y-83621428D01*
X96673333Y-83430952D01*
X96720952Y-83335714D01*
X96768571Y-83288095D01*
X96863809Y-83240476D01*
X106257142Y-112380952D02*
X106304761Y-112333333D01*
X106352380Y-112190476D01*
X106352380Y-112095238D01*
X106304761Y-111952380D01*
X106209523Y-111857142D01*
X106114285Y-111809523D01*
X105923809Y-111761904D01*
X105780952Y-111761904D01*
X105590476Y-111809523D01*
X105495238Y-111857142D01*
X105400000Y-111952380D01*
X105352380Y-112095238D01*
X105352380Y-112190476D01*
X105400000Y-112333333D01*
X105447619Y-112380952D01*
X106352380Y-113333333D02*
X106352380Y-112761904D01*
X106352380Y-113047619D02*
X105352380Y-113047619D01*
X105495238Y-112952380D01*
X105590476Y-112857142D01*
X105638095Y-112761904D01*
X106352380Y-114285714D02*
X106352380Y-113714285D01*
X106352380Y-114000000D02*
X105352380Y-114000000D01*
X105495238Y-113904761D01*
X105590476Y-113809523D01*
X105638095Y-113714285D01*
X105447619Y-114666666D02*
X105400000Y-114714285D01*
X105352380Y-114809523D01*
X105352380Y-115047619D01*
X105400000Y-115142857D01*
X105447619Y-115190476D01*
X105542857Y-115238095D01*
X105638095Y-115238095D01*
X105780952Y-115190476D01*
X106352380Y-114619047D01*
X106352380Y-115238095D01*
X98878003Y-100761759D02*
X98170896Y-100054652D01*
X98473942Y-101165820D01*
X97766835Y-100458713D01*
X97531133Y-100694416D02*
X97127072Y-101098477D01*
X98036209Y-101603553D02*
X97329103Y-100896446D01*
X96958713Y-101266835D02*
X96487309Y-101738240D01*
X97497461Y-102142301D01*
X73242857Y-115857142D02*
X73290476Y-115904761D01*
X73433333Y-115952380D01*
X73528571Y-115952380D01*
X73671428Y-115904761D01*
X73766666Y-115809523D01*
X73814285Y-115714285D01*
X73861904Y-115523809D01*
X73861904Y-115380952D01*
X73814285Y-115190476D01*
X73766666Y-115095238D01*
X73671428Y-115000000D01*
X73528571Y-114952380D01*
X73433333Y-114952380D01*
X73290476Y-115000000D01*
X73242857Y-115047619D01*
X72290476Y-115952380D02*
X72861904Y-115952380D01*
X72576190Y-115952380D02*
X72576190Y-114952380D01*
X72671428Y-115095238D01*
X72766666Y-115190476D01*
X72861904Y-115238095D01*
X71433333Y-115285714D02*
X71433333Y-115952380D01*
X71671428Y-114904761D02*
X71909523Y-115619047D01*
X71290476Y-115619047D01*
X106642857Y-72857142D02*
X106690476Y-72904761D01*
X106833333Y-72952380D01*
X106928571Y-72952380D01*
X107071428Y-72904761D01*
X107166666Y-72809523D01*
X107214285Y-72714285D01*
X107261904Y-72523809D01*
X107261904Y-72380952D01*
X107214285Y-72190476D01*
X107166666Y-72095238D01*
X107071428Y-72000000D01*
X106928571Y-71952380D01*
X106833333Y-71952380D01*
X106690476Y-72000000D01*
X106642857Y-72047619D01*
X105738095Y-71952380D02*
X106214285Y-71952380D01*
X106261904Y-72428571D01*
X106214285Y-72380952D01*
X106119047Y-72333333D01*
X105880952Y-72333333D01*
X105785714Y-72380952D01*
X105738095Y-72428571D01*
X105690476Y-72523809D01*
X105690476Y-72761904D01*
X105738095Y-72857142D01*
X105785714Y-72904761D01*
X105880952Y-72952380D01*
X106119047Y-72952380D01*
X106214285Y-72904761D01*
X106261904Y-72857142D01*
X104738095Y-72952380D02*
X105309523Y-72952380D01*
X105023809Y-72952380D02*
X105023809Y-71952380D01*
X105119047Y-72095238D01*
X105214285Y-72190476D01*
X105309523Y-72238095D01*
X70207142Y-90233333D02*
X70254761Y-90185714D01*
X70302380Y-90042857D01*
X70302380Y-89947619D01*
X70254761Y-89804761D01*
X70159523Y-89709523D01*
X70064285Y-89661904D01*
X69873809Y-89614285D01*
X69730952Y-89614285D01*
X69540476Y-89661904D01*
X69445238Y-89709523D01*
X69350000Y-89804761D01*
X69302380Y-89947619D01*
X69302380Y-90042857D01*
X69350000Y-90185714D01*
X69397619Y-90233333D01*
X70302380Y-90709523D02*
X70302380Y-90900000D01*
X70254761Y-90995238D01*
X70207142Y-91042857D01*
X70064285Y-91138095D01*
X69873809Y-91185714D01*
X69492857Y-91185714D01*
X69397619Y-91138095D01*
X69350000Y-91090476D01*
X69302380Y-90995238D01*
X69302380Y-90804761D01*
X69350000Y-90709523D01*
X69397619Y-90661904D01*
X69492857Y-90614285D01*
X69730952Y-90614285D01*
X69826190Y-90661904D01*
X69873809Y-90709523D01*
X69921428Y-90804761D01*
X69921428Y-90995238D01*
X69873809Y-91090476D01*
X69826190Y-91138095D01*
X69730952Y-91185714D01*
X97537142Y-74257142D02*
X97584761Y-74209523D01*
X97632380Y-74066666D01*
X97632380Y-73971428D01*
X97584761Y-73828571D01*
X97489523Y-73733333D01*
X97394285Y-73685714D01*
X97203809Y-73638095D01*
X97060952Y-73638095D01*
X96870476Y-73685714D01*
X96775238Y-73733333D01*
X96680000Y-73828571D01*
X96632380Y-73971428D01*
X96632380Y-74066666D01*
X96680000Y-74209523D01*
X96727619Y-74257142D01*
X96632380Y-74590476D02*
X96632380Y-75209523D01*
X97013333Y-74876190D01*
X97013333Y-75019047D01*
X97060952Y-75114285D01*
X97108571Y-75161904D01*
X97203809Y-75209523D01*
X97441904Y-75209523D01*
X97537142Y-75161904D01*
X97584761Y-75114285D01*
X97632380Y-75019047D01*
X97632380Y-74733333D01*
X97584761Y-74638095D01*
X97537142Y-74590476D01*
X96965714Y-76066666D02*
X97632380Y-76066666D01*
X96584761Y-75828571D02*
X97299047Y-75590476D01*
X97299047Y-76209523D01*
X77642857Y-98537142D02*
X77690476Y-98584761D01*
X77833333Y-98632380D01*
X77928571Y-98632380D01*
X78071428Y-98584761D01*
X78166666Y-98489523D01*
X78214285Y-98394285D01*
X78261904Y-98203809D01*
X78261904Y-98060952D01*
X78214285Y-97870476D01*
X78166666Y-97775238D01*
X78071428Y-97680000D01*
X77928571Y-97632380D01*
X77833333Y-97632380D01*
X77690476Y-97680000D01*
X77642857Y-97727619D01*
X76785714Y-97965714D02*
X76785714Y-98632380D01*
X77023809Y-97584761D02*
X77261904Y-98299047D01*
X76642857Y-98299047D01*
X76071428Y-97632380D02*
X75976190Y-97632380D01*
X75880952Y-97680000D01*
X75833333Y-97727619D01*
X75785714Y-97822857D01*
X75738095Y-98013333D01*
X75738095Y-98251428D01*
X75785714Y-98441904D01*
X75833333Y-98537142D01*
X75880952Y-98584761D01*
X75976190Y-98632380D01*
X76071428Y-98632380D01*
X76166666Y-98584761D01*
X76214285Y-98537142D01*
X76261904Y-98441904D01*
X76309523Y-98251428D01*
X76309523Y-98013333D01*
X76261904Y-97822857D01*
X76214285Y-97727619D01*
X76166666Y-97680000D01*
X76071428Y-97632380D01*
X116677142Y-71157142D02*
X116724761Y-71109523D01*
X116772380Y-70966666D01*
X116772380Y-70871428D01*
X116724761Y-70728571D01*
X116629523Y-70633333D01*
X116534285Y-70585714D01*
X116343809Y-70538095D01*
X116200952Y-70538095D01*
X116010476Y-70585714D01*
X115915238Y-70633333D01*
X115820000Y-70728571D01*
X115772380Y-70871428D01*
X115772380Y-70966666D01*
X115820000Y-71109523D01*
X115867619Y-71157142D01*
X115772380Y-72014285D02*
X115772380Y-71823809D01*
X115820000Y-71728571D01*
X115867619Y-71680952D01*
X116010476Y-71585714D01*
X116200952Y-71538095D01*
X116581904Y-71538095D01*
X116677142Y-71585714D01*
X116724761Y-71633333D01*
X116772380Y-71728571D01*
X116772380Y-71919047D01*
X116724761Y-72014285D01*
X116677142Y-72061904D01*
X116581904Y-72109523D01*
X116343809Y-72109523D01*
X116248571Y-72061904D01*
X116200952Y-72014285D01*
X116153333Y-71919047D01*
X116153333Y-71728571D01*
X116200952Y-71633333D01*
X116248571Y-71585714D01*
X116343809Y-71538095D01*
X115772380Y-72442857D02*
X115772380Y-73061904D01*
X116153333Y-72728571D01*
X116153333Y-72871428D01*
X116200952Y-72966666D01*
X116248571Y-73014285D01*
X116343809Y-73061904D01*
X116581904Y-73061904D01*
X116677142Y-73014285D01*
X116724761Y-72966666D01*
X116772380Y-72871428D01*
X116772380Y-72585714D01*
X116724761Y-72490476D01*
X116677142Y-72442857D01*
X79657142Y-92357142D02*
X79704761Y-92309523D01*
X79752380Y-92166666D01*
X79752380Y-92071428D01*
X79704761Y-91928571D01*
X79609523Y-91833333D01*
X79514285Y-91785714D01*
X79323809Y-91738095D01*
X79180952Y-91738095D01*
X78990476Y-91785714D01*
X78895238Y-91833333D01*
X78800000Y-91928571D01*
X78752380Y-92071428D01*
X78752380Y-92166666D01*
X78800000Y-92309523D01*
X78847619Y-92357142D01*
X78752380Y-92690476D02*
X78752380Y-93309523D01*
X79133333Y-92976190D01*
X79133333Y-93119047D01*
X79180952Y-93214285D01*
X79228571Y-93261904D01*
X79323809Y-93309523D01*
X79561904Y-93309523D01*
X79657142Y-93261904D01*
X79704761Y-93214285D01*
X79752380Y-93119047D01*
X79752380Y-92833333D01*
X79704761Y-92738095D01*
X79657142Y-92690476D01*
X79752380Y-93785714D02*
X79752380Y-93976190D01*
X79704761Y-94071428D01*
X79657142Y-94119047D01*
X79514285Y-94214285D01*
X79323809Y-94261904D01*
X78942857Y-94261904D01*
X78847619Y-94214285D01*
X78800000Y-94166666D01*
X78752380Y-94071428D01*
X78752380Y-93880952D01*
X78800000Y-93785714D01*
X78847619Y-93738095D01*
X78942857Y-93690476D01*
X79180952Y-93690476D01*
X79276190Y-93738095D01*
X79323809Y-93785714D01*
X79371428Y-93880952D01*
X79371428Y-94071428D01*
X79323809Y-94166666D01*
X79276190Y-94214285D01*
X79180952Y-94261904D01*
X60952380Y-58357142D02*
X60476190Y-58023809D01*
X60952380Y-57785714D02*
X59952380Y-57785714D01*
X59952380Y-58166666D01*
X60000000Y-58261904D01*
X60047619Y-58309523D01*
X60142857Y-58357142D01*
X60285714Y-58357142D01*
X60380952Y-58309523D01*
X60428571Y-58261904D01*
X60476190Y-58166666D01*
X60476190Y-57785714D01*
X60047619Y-58738095D02*
X60000000Y-58785714D01*
X59952380Y-58880952D01*
X59952380Y-59119047D01*
X60000000Y-59214285D01*
X60047619Y-59261904D01*
X60142857Y-59309523D01*
X60238095Y-59309523D01*
X60380952Y-59261904D01*
X60952380Y-58690476D01*
X60952380Y-59309523D01*
X59952380Y-60166666D02*
X59952380Y-59976190D01*
X60000000Y-59880952D01*
X60047619Y-59833333D01*
X60190476Y-59738095D01*
X60380952Y-59690476D01*
X60761904Y-59690476D01*
X60857142Y-59738095D01*
X60904761Y-59785714D01*
X60952380Y-59880952D01*
X60952380Y-60071428D01*
X60904761Y-60166666D01*
X60857142Y-60214285D01*
X60761904Y-60261904D01*
X60523809Y-60261904D01*
X60428571Y-60214285D01*
X60380952Y-60166666D01*
X60333333Y-60071428D01*
X60333333Y-59880952D01*
X60380952Y-59785714D01*
X60428571Y-59738095D01*
X60523809Y-59690476D01*
X91542857Y-92177142D02*
X91590476Y-92224761D01*
X91733333Y-92272380D01*
X91828571Y-92272380D01*
X91971428Y-92224761D01*
X92066666Y-92129523D01*
X92114285Y-92034285D01*
X92161904Y-91843809D01*
X92161904Y-91700952D01*
X92114285Y-91510476D01*
X92066666Y-91415238D01*
X91971428Y-91320000D01*
X91828571Y-91272380D01*
X91733333Y-91272380D01*
X91590476Y-91320000D01*
X91542857Y-91367619D01*
X91209523Y-91272380D02*
X90590476Y-91272380D01*
X90923809Y-91653333D01*
X90780952Y-91653333D01*
X90685714Y-91700952D01*
X90638095Y-91748571D01*
X90590476Y-91843809D01*
X90590476Y-92081904D01*
X90638095Y-92177142D01*
X90685714Y-92224761D01*
X90780952Y-92272380D01*
X91066666Y-92272380D01*
X91161904Y-92224761D01*
X91209523Y-92177142D01*
X90019047Y-91700952D02*
X90114285Y-91653333D01*
X90161904Y-91605714D01*
X90209523Y-91510476D01*
X90209523Y-91462857D01*
X90161904Y-91367619D01*
X90114285Y-91320000D01*
X90019047Y-91272380D01*
X89828571Y-91272380D01*
X89733333Y-91320000D01*
X89685714Y-91367619D01*
X89638095Y-91462857D01*
X89638095Y-91510476D01*
X89685714Y-91605714D01*
X89733333Y-91653333D01*
X89828571Y-91700952D01*
X90019047Y-91700952D01*
X90114285Y-91748571D01*
X90161904Y-91796190D01*
X90209523Y-91891428D01*
X90209523Y-92081904D01*
X90161904Y-92177142D01*
X90114285Y-92224761D01*
X90019047Y-92272380D01*
X89828571Y-92272380D01*
X89733333Y-92224761D01*
X89685714Y-92177142D01*
X89638095Y-92081904D01*
X89638095Y-91891428D01*
X89685714Y-91796190D01*
X89733333Y-91748571D01*
X89828571Y-91700952D01*
X64098958Y-100789821D02*
X64166302Y-100789821D01*
X64300989Y-100722477D01*
X64368332Y-100655134D01*
X64435676Y-100520447D01*
X64435676Y-100385760D01*
X64402004Y-100284745D01*
X64300989Y-100116386D01*
X64199974Y-100015371D01*
X64031615Y-99914355D01*
X63930600Y-99880684D01*
X63795913Y-99880684D01*
X63661226Y-99948027D01*
X63593882Y-100015371D01*
X63526539Y-100150058D01*
X63526539Y-100217401D01*
X63492867Y-101530600D02*
X63896928Y-101126539D01*
X63694897Y-101328569D02*
X62987790Y-100621462D01*
X63156149Y-100655134D01*
X63290836Y-100655134D01*
X63391852Y-100621462D01*
X62583729Y-101160210D02*
X62516386Y-101160210D01*
X62415371Y-101193882D01*
X62247012Y-101362241D01*
X62213340Y-101463256D01*
X62213340Y-101530600D01*
X62247012Y-101631615D01*
X62314355Y-101698958D01*
X62449042Y-101766302D01*
X63257164Y-101766302D01*
X62819432Y-102204035D01*
X64157142Y-87833333D02*
X64204761Y-87785714D01*
X64252380Y-87642857D01*
X64252380Y-87547619D01*
X64204761Y-87404761D01*
X64109523Y-87309523D01*
X64014285Y-87261904D01*
X63823809Y-87214285D01*
X63680952Y-87214285D01*
X63490476Y-87261904D01*
X63395238Y-87309523D01*
X63300000Y-87404761D01*
X63252380Y-87547619D01*
X63252380Y-87642857D01*
X63300000Y-87785714D01*
X63347619Y-87833333D01*
X63680952Y-88404761D02*
X63633333Y-88309523D01*
X63585714Y-88261904D01*
X63490476Y-88214285D01*
X63442857Y-88214285D01*
X63347619Y-88261904D01*
X63300000Y-88309523D01*
X63252380Y-88404761D01*
X63252380Y-88595238D01*
X63300000Y-88690476D01*
X63347619Y-88738095D01*
X63442857Y-88785714D01*
X63490476Y-88785714D01*
X63585714Y-88738095D01*
X63633333Y-88690476D01*
X63680952Y-88595238D01*
X63680952Y-88404761D01*
X63728571Y-88309523D01*
X63776190Y-88261904D01*
X63871428Y-88214285D01*
X64061904Y-88214285D01*
X64157142Y-88261904D01*
X64204761Y-88309523D01*
X64252380Y-88404761D01*
X64252380Y-88595238D01*
X64204761Y-88690476D01*
X64157142Y-88738095D01*
X64061904Y-88785714D01*
X63871428Y-88785714D01*
X63776190Y-88738095D01*
X63728571Y-88690476D01*
X63680952Y-88595238D01*
X95157142Y-113680952D02*
X95204761Y-113633333D01*
X95252380Y-113490476D01*
X95252380Y-113395238D01*
X95204761Y-113252380D01*
X95109523Y-113157142D01*
X95014285Y-113109523D01*
X94823809Y-113061904D01*
X94680952Y-113061904D01*
X94490476Y-113109523D01*
X94395238Y-113157142D01*
X94300000Y-113252380D01*
X94252380Y-113395238D01*
X94252380Y-113490476D01*
X94300000Y-113633333D01*
X94347619Y-113680952D01*
X95252380Y-114633333D02*
X95252380Y-114061904D01*
X95252380Y-114347619D02*
X94252380Y-114347619D01*
X94395238Y-114252380D01*
X94490476Y-114157142D01*
X94538095Y-114061904D01*
X94252380Y-115252380D02*
X94252380Y-115347619D01*
X94300000Y-115442857D01*
X94347619Y-115490476D01*
X94442857Y-115538095D01*
X94633333Y-115585714D01*
X94871428Y-115585714D01*
X95061904Y-115538095D01*
X95157142Y-115490476D01*
X95204761Y-115442857D01*
X95252380Y-115347619D01*
X95252380Y-115252380D01*
X95204761Y-115157142D01*
X95157142Y-115109523D01*
X95061904Y-115061904D01*
X94871428Y-115014285D01*
X94633333Y-115014285D01*
X94442857Y-115061904D01*
X94347619Y-115109523D01*
X94300000Y-115157142D01*
X94252380Y-115252380D01*
X94252380Y-115919047D02*
X94252380Y-116585714D01*
X95252380Y-116157142D01*
X110542857Y-76117142D02*
X110590476Y-76164761D01*
X110733333Y-76212380D01*
X110828571Y-76212380D01*
X110971428Y-76164761D01*
X111066666Y-76069523D01*
X111114285Y-75974285D01*
X111161904Y-75783809D01*
X111161904Y-75640952D01*
X111114285Y-75450476D01*
X111066666Y-75355238D01*
X110971428Y-75260000D01*
X110828571Y-75212380D01*
X110733333Y-75212380D01*
X110590476Y-75260000D01*
X110542857Y-75307619D01*
X109638095Y-75212380D02*
X110114285Y-75212380D01*
X110161904Y-75688571D01*
X110114285Y-75640952D01*
X110019047Y-75593333D01*
X109780952Y-75593333D01*
X109685714Y-75640952D01*
X109638095Y-75688571D01*
X109590476Y-75783809D01*
X109590476Y-76021904D01*
X109638095Y-76117142D01*
X109685714Y-76164761D01*
X109780952Y-76212380D01*
X110019047Y-76212380D01*
X110114285Y-76164761D01*
X110161904Y-76117142D01*
X108733333Y-75545714D02*
X108733333Y-76212380D01*
X108971428Y-75164761D02*
X109209523Y-75879047D01*
X108590476Y-75879047D01*
X93152380Y-96857142D02*
X92152380Y-96857142D01*
X93152380Y-97428571D01*
X92152380Y-97428571D01*
X92152380Y-97761904D02*
X92152380Y-98333333D01*
X93152380Y-98047619D02*
X92152380Y-98047619D01*
X92152380Y-99095238D02*
X92152380Y-98904761D01*
X92200000Y-98809523D01*
X92247619Y-98761904D01*
X92390476Y-98666666D01*
X92580952Y-98619047D01*
X92961904Y-98619047D01*
X93057142Y-98666666D01*
X93104761Y-98714285D01*
X93152380Y-98809523D01*
X93152380Y-99000000D01*
X93104761Y-99095238D01*
X93057142Y-99142857D01*
X92961904Y-99190476D01*
X92723809Y-99190476D01*
X92628571Y-99142857D01*
X92580952Y-99095238D01*
X92533333Y-99000000D01*
X92533333Y-98809523D01*
X92580952Y-98714285D01*
X92628571Y-98666666D01*
X92723809Y-98619047D01*
X94257142Y-85557142D02*
X94304761Y-85509523D01*
X94352380Y-85366666D01*
X94352380Y-85271428D01*
X94304761Y-85128571D01*
X94209523Y-85033333D01*
X94114285Y-84985714D01*
X93923809Y-84938095D01*
X93780952Y-84938095D01*
X93590476Y-84985714D01*
X93495238Y-85033333D01*
X93400000Y-85128571D01*
X93352380Y-85271428D01*
X93352380Y-85366666D01*
X93400000Y-85509523D01*
X93447619Y-85557142D01*
X93352380Y-86414285D02*
X93352380Y-86223809D01*
X93400000Y-86128571D01*
X93447619Y-86080952D01*
X93590476Y-85985714D01*
X93780952Y-85938095D01*
X94161904Y-85938095D01*
X94257142Y-85985714D01*
X94304761Y-86033333D01*
X94352380Y-86128571D01*
X94352380Y-86319047D01*
X94304761Y-86414285D01*
X94257142Y-86461904D01*
X94161904Y-86509523D01*
X93923809Y-86509523D01*
X93828571Y-86461904D01*
X93780952Y-86414285D01*
X93733333Y-86319047D01*
X93733333Y-86128571D01*
X93780952Y-86033333D01*
X93828571Y-85985714D01*
X93923809Y-85938095D01*
X93352380Y-87414285D02*
X93352380Y-86938095D01*
X93828571Y-86890476D01*
X93780952Y-86938095D01*
X93733333Y-87033333D01*
X93733333Y-87271428D01*
X93780952Y-87366666D01*
X93828571Y-87414285D01*
X93923809Y-87461904D01*
X94161904Y-87461904D01*
X94257142Y-87414285D01*
X94304761Y-87366666D01*
X94352380Y-87271428D01*
X94352380Y-87033333D01*
X94304761Y-86938095D01*
X94257142Y-86890476D01*
X51047619Y-92154761D02*
X51000000Y-92059523D01*
X50904761Y-91964285D01*
X50761904Y-91821428D01*
X50714285Y-91726190D01*
X50714285Y-91630952D01*
X50952380Y-91678571D02*
X50904761Y-91583333D01*
X50809523Y-91488095D01*
X50619047Y-91440476D01*
X50285714Y-91440476D01*
X50095238Y-91488095D01*
X50000000Y-91583333D01*
X49952380Y-91678571D01*
X49952380Y-91869047D01*
X50000000Y-91964285D01*
X50095238Y-92059523D01*
X50285714Y-92107142D01*
X50619047Y-92107142D01*
X50809523Y-92059523D01*
X50904761Y-91964285D01*
X50952380Y-91869047D01*
X50952380Y-91678571D01*
X50047619Y-92488095D02*
X50000000Y-92535714D01*
X49952380Y-92630952D01*
X49952380Y-92869047D01*
X50000000Y-92964285D01*
X50047619Y-93011904D01*
X50142857Y-93059523D01*
X50238095Y-93059523D01*
X50380952Y-93011904D01*
X50952380Y-92440476D01*
X50952380Y-93059523D01*
X82952380Y-74857142D02*
X81952380Y-74857142D01*
X82952380Y-75428571D01*
X81952380Y-75428571D01*
X81952380Y-75761904D02*
X81952380Y-76333333D01*
X82952380Y-76047619D02*
X81952380Y-76047619D01*
X81952380Y-77142857D02*
X81952380Y-76666666D01*
X82428571Y-76619047D01*
X82380952Y-76666666D01*
X82333333Y-76761904D01*
X82333333Y-77000000D01*
X82380952Y-77095238D01*
X82428571Y-77142857D01*
X82523809Y-77190476D01*
X82761904Y-77190476D01*
X82857142Y-77142857D01*
X82904761Y-77095238D01*
X82952380Y-77000000D01*
X82952380Y-76761904D01*
X82904761Y-76666666D01*
X82857142Y-76619047D01*
X86052380Y-80357142D02*
X85052380Y-80357142D01*
X86052380Y-80928571D01*
X85052380Y-80928571D01*
X85052380Y-81261904D02*
X85052380Y-81833333D01*
X86052380Y-81547619D02*
X85052380Y-81547619D01*
X86052380Y-82690476D02*
X86052380Y-82119047D01*
X86052380Y-82404761D02*
X85052380Y-82404761D01*
X85195238Y-82309523D01*
X85290476Y-82214285D01*
X85338095Y-82119047D01*
X95666666Y-85552380D02*
X96000000Y-85076190D01*
X96238095Y-85552380D02*
X96238095Y-84552380D01*
X95857142Y-84552380D01*
X95761904Y-84600000D01*
X95714285Y-84647619D01*
X95666666Y-84742857D01*
X95666666Y-84885714D01*
X95714285Y-84980952D01*
X95761904Y-85028571D01*
X95857142Y-85076190D01*
X96238095Y-85076190D01*
X94714285Y-85552380D02*
X95285714Y-85552380D01*
X95000000Y-85552380D02*
X95000000Y-84552380D01*
X95095238Y-84695238D01*
X95190476Y-84790476D01*
X95285714Y-84838095D01*
X61907142Y-110157142D02*
X61954761Y-110109523D01*
X62002380Y-109966666D01*
X62002380Y-109871428D01*
X61954761Y-109728571D01*
X61859523Y-109633333D01*
X61764285Y-109585714D01*
X61573809Y-109538095D01*
X61430952Y-109538095D01*
X61240476Y-109585714D01*
X61145238Y-109633333D01*
X61050000Y-109728571D01*
X61002380Y-109871428D01*
X61002380Y-109966666D01*
X61050000Y-110109523D01*
X61097619Y-110157142D01*
X62002380Y-111109523D02*
X62002380Y-110538095D01*
X62002380Y-110823809D02*
X61002380Y-110823809D01*
X61145238Y-110728571D01*
X61240476Y-110633333D01*
X61288095Y-110538095D01*
X62002380Y-112061904D02*
X62002380Y-111490476D01*
X62002380Y-111776190D02*
X61002380Y-111776190D01*
X61145238Y-111680952D01*
X61240476Y-111585714D01*
X61288095Y-111490476D01*
X61657142Y-102533333D02*
X61704761Y-102485714D01*
X61752380Y-102342857D01*
X61752380Y-102247619D01*
X61704761Y-102104761D01*
X61609523Y-102009523D01*
X61514285Y-101961904D01*
X61323809Y-101914285D01*
X61180952Y-101914285D01*
X60990476Y-101961904D01*
X60895238Y-102009523D01*
X60800000Y-102104761D01*
X60752380Y-102247619D01*
X60752380Y-102342857D01*
X60800000Y-102485714D01*
X60847619Y-102533333D01*
X60847619Y-102914285D02*
X60800000Y-102961904D01*
X60752380Y-103057142D01*
X60752380Y-103295238D01*
X60800000Y-103390476D01*
X60847619Y-103438095D01*
X60942857Y-103485714D01*
X61038095Y-103485714D01*
X61180952Y-103438095D01*
X61752380Y-102866666D01*
X61752380Y-103485714D01*
X104557142Y-112380952D02*
X104604761Y-112333333D01*
X104652380Y-112190476D01*
X104652380Y-112095238D01*
X104604761Y-111952380D01*
X104509523Y-111857142D01*
X104414285Y-111809523D01*
X104223809Y-111761904D01*
X104080952Y-111761904D01*
X103890476Y-111809523D01*
X103795238Y-111857142D01*
X103700000Y-111952380D01*
X103652380Y-112095238D01*
X103652380Y-112190476D01*
X103700000Y-112333333D01*
X103747619Y-112380952D01*
X104652380Y-113333333D02*
X104652380Y-112761904D01*
X104652380Y-113047619D02*
X103652380Y-113047619D01*
X103795238Y-112952380D01*
X103890476Y-112857142D01*
X103938095Y-112761904D01*
X104652380Y-114285714D02*
X104652380Y-113714285D01*
X104652380Y-114000000D02*
X103652380Y-114000000D01*
X103795238Y-113904761D01*
X103890476Y-113809523D01*
X103938095Y-113714285D01*
X104652380Y-115238095D02*
X104652380Y-114666666D01*
X104652380Y-114952380D02*
X103652380Y-114952380D01*
X103795238Y-114857142D01*
X103890476Y-114761904D01*
X103938095Y-114666666D01*
X69942857Y-115857142D02*
X69990476Y-115904761D01*
X70133333Y-115952380D01*
X70228571Y-115952380D01*
X70371428Y-115904761D01*
X70466666Y-115809523D01*
X70514285Y-115714285D01*
X70561904Y-115523809D01*
X70561904Y-115380952D01*
X70514285Y-115190476D01*
X70466666Y-115095238D01*
X70371428Y-115000000D01*
X70228571Y-114952380D01*
X70133333Y-114952380D01*
X69990476Y-115000000D01*
X69942857Y-115047619D01*
X68990476Y-115952380D02*
X69561904Y-115952380D01*
X69276190Y-115952380D02*
X69276190Y-114952380D01*
X69371428Y-115095238D01*
X69466666Y-115190476D01*
X69561904Y-115238095D01*
X68133333Y-114952380D02*
X68323809Y-114952380D01*
X68419047Y-115000000D01*
X68466666Y-115047619D01*
X68561904Y-115190476D01*
X68609523Y-115380952D01*
X68609523Y-115761904D01*
X68561904Y-115857142D01*
X68514285Y-115904761D01*
X68419047Y-115952380D01*
X68228571Y-115952380D01*
X68133333Y-115904761D01*
X68085714Y-115857142D01*
X68038095Y-115761904D01*
X68038095Y-115523809D01*
X68085714Y-115428571D01*
X68133333Y-115380952D01*
X68228571Y-115333333D01*
X68419047Y-115333333D01*
X68514285Y-115380952D01*
X68561904Y-115428571D01*
X68609523Y-115523809D01*
X65982380Y-84333333D02*
X65506190Y-84000000D01*
X65982380Y-83761904D02*
X64982380Y-83761904D01*
X64982380Y-84142857D01*
X65030000Y-84238095D01*
X65077619Y-84285714D01*
X65172857Y-84333333D01*
X65315714Y-84333333D01*
X65410952Y-84285714D01*
X65458571Y-84238095D01*
X65506190Y-84142857D01*
X65506190Y-83761904D01*
X64982380Y-84666666D02*
X64982380Y-85333333D01*
X65982380Y-84904761D01*
X96142857Y-92817142D02*
X96190476Y-92864761D01*
X96333333Y-92912380D01*
X96428571Y-92912380D01*
X96571428Y-92864761D01*
X96666666Y-92769523D01*
X96714285Y-92674285D01*
X96761904Y-92483809D01*
X96761904Y-92340952D01*
X96714285Y-92150476D01*
X96666666Y-92055238D01*
X96571428Y-91960000D01*
X96428571Y-91912380D01*
X96333333Y-91912380D01*
X96190476Y-91960000D01*
X96142857Y-92007619D01*
X95761904Y-92007619D02*
X95714285Y-91960000D01*
X95619047Y-91912380D01*
X95380952Y-91912380D01*
X95285714Y-91960000D01*
X95238095Y-92007619D01*
X95190476Y-92102857D01*
X95190476Y-92198095D01*
X95238095Y-92340952D01*
X95809523Y-92912380D01*
X95190476Y-92912380D01*
X94238095Y-92912380D02*
X94809523Y-92912380D01*
X94523809Y-92912380D02*
X94523809Y-91912380D01*
X94619047Y-92055238D01*
X94714285Y-92150476D01*
X94809523Y-92198095D01*
X114369047Y-87107142D02*
X114416666Y-87154761D01*
X114559523Y-87202380D01*
X114654761Y-87202380D01*
X114797619Y-87154761D01*
X114892857Y-87059523D01*
X114940476Y-86964285D01*
X114988095Y-86773809D01*
X114988095Y-86630952D01*
X114940476Y-86440476D01*
X114892857Y-86345238D01*
X114797619Y-86250000D01*
X114654761Y-86202380D01*
X114559523Y-86202380D01*
X114416666Y-86250000D01*
X114369047Y-86297619D01*
X113416666Y-87202380D02*
X113988095Y-87202380D01*
X113702380Y-87202380D02*
X113702380Y-86202380D01*
X113797619Y-86345238D01*
X113892857Y-86440476D01*
X113988095Y-86488095D01*
X113083333Y-86202380D02*
X112464285Y-86202380D01*
X112797619Y-86583333D01*
X112654761Y-86583333D01*
X112559523Y-86630952D01*
X112511904Y-86678571D01*
X112464285Y-86773809D01*
X112464285Y-87011904D01*
X112511904Y-87107142D01*
X112559523Y-87154761D01*
X112654761Y-87202380D01*
X112940476Y-87202380D01*
X113035714Y-87154761D01*
X113083333Y-87107142D01*
X111511904Y-87202380D02*
X112083333Y-87202380D01*
X111797619Y-87202380D02*
X111797619Y-86202380D01*
X111892857Y-86345238D01*
X111988095Y-86440476D01*
X112083333Y-86488095D01*
X111642857Y-68857142D02*
X111690476Y-68904761D01*
X111833333Y-68952380D01*
X111928571Y-68952380D01*
X112071428Y-68904761D01*
X112166666Y-68809523D01*
X112214285Y-68714285D01*
X112261904Y-68523809D01*
X112261904Y-68380952D01*
X112214285Y-68190476D01*
X112166666Y-68095238D01*
X112071428Y-68000000D01*
X111928571Y-67952380D01*
X111833333Y-67952380D01*
X111690476Y-68000000D01*
X111642857Y-68047619D01*
X110785714Y-67952380D02*
X110976190Y-67952380D01*
X111071428Y-68000000D01*
X111119047Y-68047619D01*
X111214285Y-68190476D01*
X111261904Y-68380952D01*
X111261904Y-68761904D01*
X111214285Y-68857142D01*
X111166666Y-68904761D01*
X111071428Y-68952380D01*
X110880952Y-68952380D01*
X110785714Y-68904761D01*
X110738095Y-68857142D01*
X110690476Y-68761904D01*
X110690476Y-68523809D01*
X110738095Y-68428571D01*
X110785714Y-68380952D01*
X110880952Y-68333333D01*
X111071428Y-68333333D01*
X111166666Y-68380952D01*
X111214285Y-68428571D01*
X111261904Y-68523809D01*
X109738095Y-68952380D02*
X110309523Y-68952380D01*
X110023809Y-68952380D02*
X110023809Y-67952380D01*
X110119047Y-68095238D01*
X110214285Y-68190476D01*
X110309523Y-68238095D01*
X84042857Y-80857142D02*
X84090476Y-80904761D01*
X84233333Y-80952380D01*
X84328571Y-80952380D01*
X84471428Y-80904761D01*
X84566666Y-80809523D01*
X84614285Y-80714285D01*
X84661904Y-80523809D01*
X84661904Y-80380952D01*
X84614285Y-80190476D01*
X84566666Y-80095238D01*
X84471428Y-80000000D01*
X84328571Y-79952380D01*
X84233333Y-79952380D01*
X84090476Y-80000000D01*
X84042857Y-80047619D01*
X83709523Y-79952380D02*
X83090476Y-79952380D01*
X83423809Y-80333333D01*
X83280952Y-80333333D01*
X83185714Y-80380952D01*
X83138095Y-80428571D01*
X83090476Y-80523809D01*
X83090476Y-80761904D01*
X83138095Y-80857142D01*
X83185714Y-80904761D01*
X83280952Y-80952380D01*
X83566666Y-80952380D01*
X83661904Y-80904761D01*
X83709523Y-80857142D01*
X82233333Y-79952380D02*
X82423809Y-79952380D01*
X82519047Y-80000000D01*
X82566666Y-80047619D01*
X82661904Y-80190476D01*
X82709523Y-80380952D01*
X82709523Y-80761904D01*
X82661904Y-80857142D01*
X82614285Y-80904761D01*
X82519047Y-80952380D01*
X82328571Y-80952380D01*
X82233333Y-80904761D01*
X82185714Y-80857142D01*
X82138095Y-80761904D01*
X82138095Y-80523809D01*
X82185714Y-80428571D01*
X82233333Y-80380952D01*
X82328571Y-80333333D01*
X82519047Y-80333333D01*
X82614285Y-80380952D01*
X82661904Y-80428571D01*
X82709523Y-80523809D01*
X115342857Y-77717142D02*
X115390476Y-77764761D01*
X115533333Y-77812380D01*
X115628571Y-77812380D01*
X115771428Y-77764761D01*
X115866666Y-77669523D01*
X115914285Y-77574285D01*
X115961904Y-77383809D01*
X115961904Y-77240952D01*
X115914285Y-77050476D01*
X115866666Y-76955238D01*
X115771428Y-76860000D01*
X115628571Y-76812380D01*
X115533333Y-76812380D01*
X115390476Y-76860000D01*
X115342857Y-76907619D01*
X114438095Y-76812380D02*
X114914285Y-76812380D01*
X114961904Y-77288571D01*
X114914285Y-77240952D01*
X114819047Y-77193333D01*
X114580952Y-77193333D01*
X114485714Y-77240952D01*
X114438095Y-77288571D01*
X114390476Y-77383809D01*
X114390476Y-77621904D01*
X114438095Y-77717142D01*
X114485714Y-77764761D01*
X114580952Y-77812380D01*
X114819047Y-77812380D01*
X114914285Y-77764761D01*
X114961904Y-77717142D01*
X113485714Y-76812380D02*
X113961904Y-76812380D01*
X114009523Y-77288571D01*
X113961904Y-77240952D01*
X113866666Y-77193333D01*
X113628571Y-77193333D01*
X113533333Y-77240952D01*
X113485714Y-77288571D01*
X113438095Y-77383809D01*
X113438095Y-77621904D01*
X113485714Y-77717142D01*
X113533333Y-77764761D01*
X113628571Y-77812380D01*
X113866666Y-77812380D01*
X113961904Y-77764761D01*
X114009523Y-77717142D01*
X54947619Y-104904761D02*
X54900000Y-104809523D01*
X54804761Y-104714285D01*
X54661904Y-104571428D01*
X54614285Y-104476190D01*
X54614285Y-104380952D01*
X54852380Y-104428571D02*
X54804761Y-104333333D01*
X54709523Y-104238095D01*
X54519047Y-104190476D01*
X54185714Y-104190476D01*
X53995238Y-104238095D01*
X53900000Y-104333333D01*
X53852380Y-104428571D01*
X53852380Y-104619047D01*
X53900000Y-104714285D01*
X53995238Y-104809523D01*
X54185714Y-104857142D01*
X54519047Y-104857142D01*
X54709523Y-104809523D01*
X54804761Y-104714285D01*
X54852380Y-104619047D01*
X54852380Y-104428571D01*
X54852380Y-105809523D02*
X54852380Y-105238095D01*
X54852380Y-105523809D02*
X53852380Y-105523809D01*
X53995238Y-105428571D01*
X54090476Y-105333333D01*
X54138095Y-105238095D01*
X114369047Y-83607142D02*
X114416666Y-83654761D01*
X114559523Y-83702380D01*
X114654761Y-83702380D01*
X114797619Y-83654761D01*
X114892857Y-83559523D01*
X114940476Y-83464285D01*
X114988095Y-83273809D01*
X114988095Y-83130952D01*
X114940476Y-82940476D01*
X114892857Y-82845238D01*
X114797619Y-82750000D01*
X114654761Y-82702380D01*
X114559523Y-82702380D01*
X114416666Y-82750000D01*
X114369047Y-82797619D01*
X113416666Y-83702380D02*
X113988095Y-83702380D01*
X113702380Y-83702380D02*
X113702380Y-82702380D01*
X113797619Y-82845238D01*
X113892857Y-82940476D01*
X113988095Y-82988095D01*
X113083333Y-82702380D02*
X112464285Y-82702380D01*
X112797619Y-83083333D01*
X112654761Y-83083333D01*
X112559523Y-83130952D01*
X112511904Y-83178571D01*
X112464285Y-83273809D01*
X112464285Y-83511904D01*
X112511904Y-83607142D01*
X112559523Y-83654761D01*
X112654761Y-83702380D01*
X112940476Y-83702380D01*
X113035714Y-83654761D01*
X113083333Y-83607142D01*
X111845238Y-82702380D02*
X111750000Y-82702380D01*
X111654761Y-82750000D01*
X111607142Y-82797619D01*
X111559523Y-82892857D01*
X111511904Y-83083333D01*
X111511904Y-83321428D01*
X111559523Y-83511904D01*
X111607142Y-83607142D01*
X111654761Y-83654761D01*
X111750000Y-83702380D01*
X111845238Y-83702380D01*
X111940476Y-83654761D01*
X111988095Y-83607142D01*
X112035714Y-83511904D01*
X112083333Y-83321428D01*
X112083333Y-83083333D01*
X112035714Y-82892857D01*
X111988095Y-82797619D01*
X111940476Y-82750000D01*
X111845238Y-82702380D01*
X92257142Y-112380952D02*
X92304761Y-112333333D01*
X92352380Y-112190476D01*
X92352380Y-112095238D01*
X92304761Y-111952380D01*
X92209523Y-111857142D01*
X92114285Y-111809523D01*
X91923809Y-111761904D01*
X91780952Y-111761904D01*
X91590476Y-111809523D01*
X91495238Y-111857142D01*
X91400000Y-111952380D01*
X91352380Y-112095238D01*
X91352380Y-112190476D01*
X91400000Y-112333333D01*
X91447619Y-112380952D01*
X92352380Y-113333333D02*
X92352380Y-112761904D01*
X92352380Y-113047619D02*
X91352380Y-113047619D01*
X91495238Y-112952380D01*
X91590476Y-112857142D01*
X91638095Y-112761904D01*
X91352380Y-113952380D02*
X91352380Y-114047619D01*
X91400000Y-114142857D01*
X91447619Y-114190476D01*
X91542857Y-114238095D01*
X91733333Y-114285714D01*
X91971428Y-114285714D01*
X92161904Y-114238095D01*
X92257142Y-114190476D01*
X92304761Y-114142857D01*
X92352380Y-114047619D01*
X92352380Y-113952380D01*
X92304761Y-113857142D01*
X92257142Y-113809523D01*
X92161904Y-113761904D01*
X91971428Y-113714285D01*
X91733333Y-113714285D01*
X91542857Y-113761904D01*
X91447619Y-113809523D01*
X91400000Y-113857142D01*
X91352380Y-113952380D01*
X91352380Y-115142857D02*
X91352380Y-114952380D01*
X91400000Y-114857142D01*
X91447619Y-114809523D01*
X91590476Y-114714285D01*
X91780952Y-114666666D01*
X92161904Y-114666666D01*
X92257142Y-114714285D01*
X92304761Y-114761904D01*
X92352380Y-114857142D01*
X92352380Y-115047619D01*
X92304761Y-115142857D01*
X92257142Y-115190476D01*
X92161904Y-115238095D01*
X91923809Y-115238095D01*
X91828571Y-115190476D01*
X91780952Y-115142857D01*
X91733333Y-115047619D01*
X91733333Y-114857142D01*
X91780952Y-114761904D01*
X91828571Y-114714285D01*
X91923809Y-114666666D01*
X106957142Y-77357142D02*
X107004761Y-77309523D01*
X107052380Y-77166666D01*
X107052380Y-77071428D01*
X107004761Y-76928571D01*
X106909523Y-76833333D01*
X106814285Y-76785714D01*
X106623809Y-76738095D01*
X106480952Y-76738095D01*
X106290476Y-76785714D01*
X106195238Y-76833333D01*
X106100000Y-76928571D01*
X106052380Y-77071428D01*
X106052380Y-77166666D01*
X106100000Y-77309523D01*
X106147619Y-77357142D01*
X106052380Y-78261904D02*
X106052380Y-77785714D01*
X106528571Y-77738095D01*
X106480952Y-77785714D01*
X106433333Y-77880952D01*
X106433333Y-78119047D01*
X106480952Y-78214285D01*
X106528571Y-78261904D01*
X106623809Y-78309523D01*
X106861904Y-78309523D01*
X106957142Y-78261904D01*
X107004761Y-78214285D01*
X107052380Y-78119047D01*
X107052380Y-77880952D01*
X107004761Y-77785714D01*
X106957142Y-77738095D01*
X107052380Y-78785714D02*
X107052380Y-78976190D01*
X107004761Y-79071428D01*
X106957142Y-79119047D01*
X106814285Y-79214285D01*
X106623809Y-79261904D01*
X106242857Y-79261904D01*
X106147619Y-79214285D01*
X106100000Y-79166666D01*
X106052380Y-79071428D01*
X106052380Y-78880952D01*
X106100000Y-78785714D01*
X106147619Y-78738095D01*
X106242857Y-78690476D01*
X106480952Y-78690476D01*
X106576190Y-78738095D01*
X106623809Y-78785714D01*
X106671428Y-78880952D01*
X106671428Y-79071428D01*
X106623809Y-79166666D01*
X106576190Y-79214285D01*
X106480952Y-79261904D01*
X90557142Y-112380952D02*
X90604761Y-112333333D01*
X90652380Y-112190476D01*
X90652380Y-112095238D01*
X90604761Y-111952380D01*
X90509523Y-111857142D01*
X90414285Y-111809523D01*
X90223809Y-111761904D01*
X90080952Y-111761904D01*
X89890476Y-111809523D01*
X89795238Y-111857142D01*
X89700000Y-111952380D01*
X89652380Y-112095238D01*
X89652380Y-112190476D01*
X89700000Y-112333333D01*
X89747619Y-112380952D01*
X90652380Y-113333333D02*
X90652380Y-112761904D01*
X90652380Y-113047619D02*
X89652380Y-113047619D01*
X89795238Y-112952380D01*
X89890476Y-112857142D01*
X89938095Y-112761904D01*
X89652380Y-113952380D02*
X89652380Y-114047619D01*
X89700000Y-114142857D01*
X89747619Y-114190476D01*
X89842857Y-114238095D01*
X90033333Y-114285714D01*
X90271428Y-114285714D01*
X90461904Y-114238095D01*
X90557142Y-114190476D01*
X90604761Y-114142857D01*
X90652380Y-114047619D01*
X90652380Y-113952380D01*
X90604761Y-113857142D01*
X90557142Y-113809523D01*
X90461904Y-113761904D01*
X90271428Y-113714285D01*
X90033333Y-113714285D01*
X89842857Y-113761904D01*
X89747619Y-113809523D01*
X89700000Y-113857142D01*
X89652380Y-113952380D01*
X89652380Y-115190476D02*
X89652380Y-114714285D01*
X90128571Y-114666666D01*
X90080952Y-114714285D01*
X90033333Y-114809523D01*
X90033333Y-115047619D01*
X90080952Y-115142857D01*
X90128571Y-115190476D01*
X90223809Y-115238095D01*
X90461904Y-115238095D01*
X90557142Y-115190476D01*
X90604761Y-115142857D01*
X90652380Y-115047619D01*
X90652380Y-114809523D01*
X90604761Y-114714285D01*
X90557142Y-114666666D01*
X74952380Y-58357142D02*
X74476190Y-58023809D01*
X74952380Y-57785714D02*
X73952380Y-57785714D01*
X73952380Y-58166666D01*
X74000000Y-58261904D01*
X74047619Y-58309523D01*
X74142857Y-58357142D01*
X74285714Y-58357142D01*
X74380952Y-58309523D01*
X74428571Y-58261904D01*
X74476190Y-58166666D01*
X74476190Y-57785714D01*
X73952380Y-58690476D02*
X73952380Y-59309523D01*
X74333333Y-58976190D01*
X74333333Y-59119047D01*
X74380952Y-59214285D01*
X74428571Y-59261904D01*
X74523809Y-59309523D01*
X74761904Y-59309523D01*
X74857142Y-59261904D01*
X74904761Y-59214285D01*
X74952380Y-59119047D01*
X74952380Y-58833333D01*
X74904761Y-58738095D01*
X74857142Y-58690476D01*
X73952380Y-59642857D02*
X73952380Y-60261904D01*
X74333333Y-59928571D01*
X74333333Y-60071428D01*
X74380952Y-60166666D01*
X74428571Y-60214285D01*
X74523809Y-60261904D01*
X74761904Y-60261904D01*
X74857142Y-60214285D01*
X74904761Y-60166666D01*
X74952380Y-60071428D01*
X74952380Y-59785714D01*
X74904761Y-59690476D01*
X74857142Y-59642857D01*
X49352380Y-106357142D02*
X48876190Y-106023809D01*
X49352380Y-105785714D02*
X48352380Y-105785714D01*
X48352380Y-106166666D01*
X48400000Y-106261904D01*
X48447619Y-106309523D01*
X48542857Y-106357142D01*
X48685714Y-106357142D01*
X48780952Y-106309523D01*
X48828571Y-106261904D01*
X48876190Y-106166666D01*
X48876190Y-105785714D01*
X48447619Y-106738095D02*
X48400000Y-106785714D01*
X48352380Y-106880952D01*
X48352380Y-107119047D01*
X48400000Y-107214285D01*
X48447619Y-107261904D01*
X48542857Y-107309523D01*
X48638095Y-107309523D01*
X48780952Y-107261904D01*
X49352380Y-106690476D01*
X49352380Y-107309523D01*
X48352380Y-107928571D02*
X48352380Y-108023809D01*
X48400000Y-108119047D01*
X48447619Y-108166666D01*
X48542857Y-108214285D01*
X48733333Y-108261904D01*
X48971428Y-108261904D01*
X49161904Y-108214285D01*
X49257142Y-108166666D01*
X49304761Y-108119047D01*
X49352380Y-108023809D01*
X49352380Y-107928571D01*
X49304761Y-107833333D01*
X49257142Y-107785714D01*
X49161904Y-107738095D01*
X48971428Y-107690476D01*
X48733333Y-107690476D01*
X48542857Y-107738095D01*
X48447619Y-107785714D01*
X48400000Y-107833333D01*
X48352380Y-107928571D01*
X98142857Y-89497142D02*
X98190476Y-89544761D01*
X98333333Y-89592380D01*
X98428571Y-89592380D01*
X98571428Y-89544761D01*
X98666666Y-89449523D01*
X98714285Y-89354285D01*
X98761904Y-89163809D01*
X98761904Y-89020952D01*
X98714285Y-88830476D01*
X98666666Y-88735238D01*
X98571428Y-88640000D01*
X98428571Y-88592380D01*
X98333333Y-88592380D01*
X98190476Y-88640000D01*
X98142857Y-88687619D01*
X97761904Y-88687619D02*
X97714285Y-88640000D01*
X97619047Y-88592380D01*
X97380952Y-88592380D01*
X97285714Y-88640000D01*
X97238095Y-88687619D01*
X97190476Y-88782857D01*
X97190476Y-88878095D01*
X97238095Y-89020952D01*
X97809523Y-89592380D01*
X97190476Y-89592380D01*
X96285714Y-88592380D02*
X96761904Y-88592380D01*
X96809523Y-89068571D01*
X96761904Y-89020952D01*
X96666666Y-88973333D01*
X96428571Y-88973333D01*
X96333333Y-89020952D01*
X96285714Y-89068571D01*
X96238095Y-89163809D01*
X96238095Y-89401904D01*
X96285714Y-89497142D01*
X96333333Y-89544761D01*
X96428571Y-89592380D01*
X96666666Y-89592380D01*
X96761904Y-89544761D01*
X96809523Y-89497142D01*
X86742857Y-75537142D02*
X86790476Y-75584761D01*
X86933333Y-75632380D01*
X87028571Y-75632380D01*
X87171428Y-75584761D01*
X87266666Y-75489523D01*
X87314285Y-75394285D01*
X87361904Y-75203809D01*
X87361904Y-75060952D01*
X87314285Y-74870476D01*
X87266666Y-74775238D01*
X87171428Y-74680000D01*
X87028571Y-74632380D01*
X86933333Y-74632380D01*
X86790476Y-74680000D01*
X86742857Y-74727619D01*
X86409523Y-74632380D02*
X85790476Y-74632380D01*
X86123809Y-75013333D01*
X85980952Y-75013333D01*
X85885714Y-75060952D01*
X85838095Y-75108571D01*
X85790476Y-75203809D01*
X85790476Y-75441904D01*
X85838095Y-75537142D01*
X85885714Y-75584761D01*
X85980952Y-75632380D01*
X86266666Y-75632380D01*
X86361904Y-75584761D01*
X86409523Y-75537142D01*
X84885714Y-74632380D02*
X85361904Y-74632380D01*
X85409523Y-75108571D01*
X85361904Y-75060952D01*
X85266666Y-75013333D01*
X85028571Y-75013333D01*
X84933333Y-75060952D01*
X84885714Y-75108571D01*
X84838095Y-75203809D01*
X84838095Y-75441904D01*
X84885714Y-75537142D01*
X84933333Y-75584761D01*
X85028571Y-75632380D01*
X85266666Y-75632380D01*
X85361904Y-75584761D01*
X85409523Y-75537142D01*
X88517142Y-89857142D02*
X88564761Y-89809523D01*
X88612380Y-89666666D01*
X88612380Y-89571428D01*
X88564761Y-89428571D01*
X88469523Y-89333333D01*
X88374285Y-89285714D01*
X88183809Y-89238095D01*
X88040952Y-89238095D01*
X87850476Y-89285714D01*
X87755238Y-89333333D01*
X87660000Y-89428571D01*
X87612380Y-89571428D01*
X87612380Y-89666666D01*
X87660000Y-89809523D01*
X87707619Y-89857142D01*
X88612380Y-90809523D02*
X88612380Y-90238095D01*
X88612380Y-90523809D02*
X87612380Y-90523809D01*
X87755238Y-90428571D01*
X87850476Y-90333333D01*
X87898095Y-90238095D01*
X88612380Y-91285714D02*
X88612380Y-91476190D01*
X88564761Y-91571428D01*
X88517142Y-91619047D01*
X88374285Y-91714285D01*
X88183809Y-91761904D01*
X87802857Y-91761904D01*
X87707619Y-91714285D01*
X87660000Y-91666666D01*
X87612380Y-91571428D01*
X87612380Y-91380952D01*
X87660000Y-91285714D01*
X87707619Y-91238095D01*
X87802857Y-91190476D01*
X88040952Y-91190476D01*
X88136190Y-91238095D01*
X88183809Y-91285714D01*
X88231428Y-91380952D01*
X88231428Y-91571428D01*
X88183809Y-91666666D01*
X88136190Y-91714285D01*
X88040952Y-91761904D01*
X102257142Y-112380952D02*
X102304761Y-112333333D01*
X102352380Y-112190476D01*
X102352380Y-112095238D01*
X102304761Y-111952380D01*
X102209523Y-111857142D01*
X102114285Y-111809523D01*
X101923809Y-111761904D01*
X101780952Y-111761904D01*
X101590476Y-111809523D01*
X101495238Y-111857142D01*
X101400000Y-111952380D01*
X101352380Y-112095238D01*
X101352380Y-112190476D01*
X101400000Y-112333333D01*
X101447619Y-112380952D01*
X102352380Y-113333333D02*
X102352380Y-112761904D01*
X102352380Y-113047619D02*
X101352380Y-113047619D01*
X101495238Y-112952380D01*
X101590476Y-112857142D01*
X101638095Y-112761904D01*
X102352380Y-114285714D02*
X102352380Y-113714285D01*
X102352380Y-114000000D02*
X101352380Y-114000000D01*
X101495238Y-113904761D01*
X101590476Y-113809523D01*
X101638095Y-113714285D01*
X101352380Y-114904761D02*
X101352380Y-115000000D01*
X101400000Y-115095238D01*
X101447619Y-115142857D01*
X101542857Y-115190476D01*
X101733333Y-115238095D01*
X101971428Y-115238095D01*
X102161904Y-115190476D01*
X102257142Y-115142857D01*
X102304761Y-115095238D01*
X102352380Y-115000000D01*
X102352380Y-114904761D01*
X102304761Y-114809523D01*
X102257142Y-114761904D01*
X102161904Y-114714285D01*
X101971428Y-114666666D01*
X101733333Y-114666666D01*
X101542857Y-114714285D01*
X101447619Y-114761904D01*
X101400000Y-114809523D01*
X101352380Y-114904761D01*
X81407142Y-83957142D02*
X81454761Y-83909523D01*
X81502380Y-83766666D01*
X81502380Y-83671428D01*
X81454761Y-83528571D01*
X81359523Y-83433333D01*
X81264285Y-83385714D01*
X81073809Y-83338095D01*
X80930952Y-83338095D01*
X80740476Y-83385714D01*
X80645238Y-83433333D01*
X80550000Y-83528571D01*
X80502380Y-83671428D01*
X80502380Y-83766666D01*
X80550000Y-83909523D01*
X80597619Y-83957142D01*
X80835714Y-84814285D02*
X81502380Y-84814285D01*
X80454761Y-84576190D02*
X81169047Y-84338095D01*
X81169047Y-84957142D01*
X80502380Y-85242857D02*
X80502380Y-85861904D01*
X80883333Y-85528571D01*
X80883333Y-85671428D01*
X80930952Y-85766666D01*
X80978571Y-85814285D01*
X81073809Y-85861904D01*
X81311904Y-85861904D01*
X81407142Y-85814285D01*
X81454761Y-85766666D01*
X81502380Y-85671428D01*
X81502380Y-85385714D01*
X81454761Y-85290476D01*
X81407142Y-85242857D01*
X60452380Y-102057142D02*
X59976190Y-101723809D01*
X60452380Y-101485714D02*
X59452380Y-101485714D01*
X59452380Y-101866666D01*
X59500000Y-101961904D01*
X59547619Y-102009523D01*
X59642857Y-102057142D01*
X59785714Y-102057142D01*
X59880952Y-102009523D01*
X59928571Y-101961904D01*
X59976190Y-101866666D01*
X59976190Y-101485714D01*
X60452380Y-103009523D02*
X60452380Y-102438095D01*
X60452380Y-102723809D02*
X59452380Y-102723809D01*
X59595238Y-102628571D01*
X59690476Y-102533333D01*
X59738095Y-102438095D01*
X60452380Y-103961904D02*
X60452380Y-103390476D01*
X60452380Y-103676190D02*
X59452380Y-103676190D01*
X59595238Y-103580952D01*
X59690476Y-103485714D01*
X59738095Y-103390476D01*
X89119047Y-104357142D02*
X89166666Y-104404761D01*
X89309523Y-104452380D01*
X89404761Y-104452380D01*
X89547619Y-104404761D01*
X89642857Y-104309523D01*
X89690476Y-104214285D01*
X89738095Y-104023809D01*
X89738095Y-103880952D01*
X89690476Y-103690476D01*
X89642857Y-103595238D01*
X89547619Y-103500000D01*
X89404761Y-103452380D01*
X89309523Y-103452380D01*
X89166666Y-103500000D01*
X89119047Y-103547619D01*
X88166666Y-104452380D02*
X88738095Y-104452380D01*
X88452380Y-104452380D02*
X88452380Y-103452380D01*
X88547619Y-103595238D01*
X88642857Y-103690476D01*
X88738095Y-103738095D01*
X87785714Y-103547619D02*
X87738095Y-103500000D01*
X87642857Y-103452380D01*
X87404761Y-103452380D01*
X87309523Y-103500000D01*
X87261904Y-103547619D01*
X87214285Y-103642857D01*
X87214285Y-103738095D01*
X87261904Y-103880952D01*
X87833333Y-104452380D01*
X87214285Y-104452380D01*
X86261904Y-104452380D02*
X86833333Y-104452380D01*
X86547619Y-104452380D02*
X86547619Y-103452380D01*
X86642857Y-103595238D01*
X86738095Y-103690476D01*
X86833333Y-103738095D01*
X68166666Y-94082380D02*
X68500000Y-93606190D01*
X68738095Y-94082380D02*
X68738095Y-93082380D01*
X68357142Y-93082380D01*
X68261904Y-93130000D01*
X68214285Y-93177619D01*
X68166666Y-93272857D01*
X68166666Y-93415714D01*
X68214285Y-93510952D01*
X68261904Y-93558571D01*
X68357142Y-93606190D01*
X68738095Y-93606190D01*
X67595238Y-93510952D02*
X67690476Y-93463333D01*
X67738095Y-93415714D01*
X67785714Y-93320476D01*
X67785714Y-93272857D01*
X67738095Y-93177619D01*
X67690476Y-93130000D01*
X67595238Y-93082380D01*
X67404761Y-93082380D01*
X67309523Y-93130000D01*
X67261904Y-93177619D01*
X67214285Y-93272857D01*
X67214285Y-93320476D01*
X67261904Y-93415714D01*
X67309523Y-93463333D01*
X67404761Y-93510952D01*
X67595238Y-93510952D01*
X67690476Y-93558571D01*
X67738095Y-93606190D01*
X67785714Y-93701428D01*
X67785714Y-93891904D01*
X67738095Y-93987142D01*
X67690476Y-94034761D01*
X67595238Y-94082380D01*
X67404761Y-94082380D01*
X67309523Y-94034761D01*
X67261904Y-93987142D01*
X67214285Y-93891904D01*
X67214285Y-93701428D01*
X67261904Y-93606190D01*
X67309523Y-93558571D01*
X67404761Y-93510952D01*
X62557142Y-87833333D02*
X62604761Y-87785714D01*
X62652380Y-87642857D01*
X62652380Y-87547619D01*
X62604761Y-87404761D01*
X62509523Y-87309523D01*
X62414285Y-87261904D01*
X62223809Y-87214285D01*
X62080952Y-87214285D01*
X61890476Y-87261904D01*
X61795238Y-87309523D01*
X61700000Y-87404761D01*
X61652380Y-87547619D01*
X61652380Y-87642857D01*
X61700000Y-87785714D01*
X61747619Y-87833333D01*
X61985714Y-88690476D02*
X62652380Y-88690476D01*
X61604761Y-88452380D02*
X62319047Y-88214285D01*
X62319047Y-88833333D01*
X64952380Y-58357142D02*
X64476190Y-58023809D01*
X64952380Y-57785714D02*
X63952380Y-57785714D01*
X63952380Y-58166666D01*
X64000000Y-58261904D01*
X64047619Y-58309523D01*
X64142857Y-58357142D01*
X64285714Y-58357142D01*
X64380952Y-58309523D01*
X64428571Y-58261904D01*
X64476190Y-58166666D01*
X64476190Y-57785714D01*
X64047619Y-58738095D02*
X64000000Y-58785714D01*
X63952380Y-58880952D01*
X63952380Y-59119047D01*
X64000000Y-59214285D01*
X64047619Y-59261904D01*
X64142857Y-59309523D01*
X64238095Y-59309523D01*
X64380952Y-59261904D01*
X64952380Y-58690476D01*
X64952380Y-59309523D01*
X64380952Y-59880952D02*
X64333333Y-59785714D01*
X64285714Y-59738095D01*
X64190476Y-59690476D01*
X64142857Y-59690476D01*
X64047619Y-59738095D01*
X64000000Y-59785714D01*
X63952380Y-59880952D01*
X63952380Y-60071428D01*
X64000000Y-60166666D01*
X64047619Y-60214285D01*
X64142857Y-60261904D01*
X64190476Y-60261904D01*
X64285714Y-60214285D01*
X64333333Y-60166666D01*
X64380952Y-60071428D01*
X64380952Y-59880952D01*
X64428571Y-59785714D01*
X64476190Y-59738095D01*
X64571428Y-59690476D01*
X64761904Y-59690476D01*
X64857142Y-59738095D01*
X64904761Y-59785714D01*
X64952380Y-59880952D01*
X64952380Y-60071428D01*
X64904761Y-60166666D01*
X64857142Y-60214285D01*
X64761904Y-60261904D01*
X64571428Y-60261904D01*
X64476190Y-60214285D01*
X64428571Y-60166666D01*
X64380952Y-60071428D01*
X91742857Y-83957142D02*
X91790476Y-84004761D01*
X91933333Y-84052380D01*
X92028571Y-84052380D01*
X92171428Y-84004761D01*
X92266666Y-83909523D01*
X92314285Y-83814285D01*
X92361904Y-83623809D01*
X92361904Y-83480952D01*
X92314285Y-83290476D01*
X92266666Y-83195238D01*
X92171428Y-83100000D01*
X92028571Y-83052380D01*
X91933333Y-83052380D01*
X91790476Y-83100000D01*
X91742857Y-83147619D01*
X90885714Y-83385714D02*
X90885714Y-84052380D01*
X91123809Y-83004761D02*
X91361904Y-83719047D01*
X90742857Y-83719047D01*
X89933333Y-83052380D02*
X90123809Y-83052380D01*
X90219047Y-83100000D01*
X90266666Y-83147619D01*
X90361904Y-83290476D01*
X90409523Y-83480952D01*
X90409523Y-83861904D01*
X90361904Y-83957142D01*
X90314285Y-84004761D01*
X90219047Y-84052380D01*
X90028571Y-84052380D01*
X89933333Y-84004761D01*
X89885714Y-83957142D01*
X89838095Y-83861904D01*
X89838095Y-83623809D01*
X89885714Y-83528571D01*
X89933333Y-83480952D01*
X90028571Y-83433333D01*
X90219047Y-83433333D01*
X90314285Y-83480952D01*
X90361904Y-83528571D01*
X90409523Y-83623809D01*
X85542857Y-86657142D02*
X85590476Y-86704761D01*
X85733333Y-86752380D01*
X85828571Y-86752380D01*
X85971428Y-86704761D01*
X86066666Y-86609523D01*
X86114285Y-86514285D01*
X86161904Y-86323809D01*
X86161904Y-86180952D01*
X86114285Y-85990476D01*
X86066666Y-85895238D01*
X85971428Y-85800000D01*
X85828571Y-85752380D01*
X85733333Y-85752380D01*
X85590476Y-85800000D01*
X85542857Y-85847619D01*
X85161904Y-85847619D02*
X85114285Y-85800000D01*
X85019047Y-85752380D01*
X84780952Y-85752380D01*
X84685714Y-85800000D01*
X84638095Y-85847619D01*
X84590476Y-85942857D01*
X84590476Y-86038095D01*
X84638095Y-86180952D01*
X85209523Y-86752380D01*
X84590476Y-86752380D01*
X84257142Y-85752380D02*
X83590476Y-85752380D01*
X84019047Y-86752380D01*
X94517142Y-81857142D02*
X94564761Y-81809523D01*
X94612380Y-81666666D01*
X94612380Y-81571428D01*
X94564761Y-81428571D01*
X94469523Y-81333333D01*
X94374285Y-81285714D01*
X94183809Y-81238095D01*
X94040952Y-81238095D01*
X93850476Y-81285714D01*
X93755238Y-81333333D01*
X93660000Y-81428571D01*
X93612380Y-81571428D01*
X93612380Y-81666666D01*
X93660000Y-81809523D01*
X93707619Y-81857142D01*
X93612380Y-82714285D02*
X93612380Y-82523809D01*
X93660000Y-82428571D01*
X93707619Y-82380952D01*
X93850476Y-82285714D01*
X94040952Y-82238095D01*
X94421904Y-82238095D01*
X94517142Y-82285714D01*
X94564761Y-82333333D01*
X94612380Y-82428571D01*
X94612380Y-82619047D01*
X94564761Y-82714285D01*
X94517142Y-82761904D01*
X94421904Y-82809523D01*
X94183809Y-82809523D01*
X94088571Y-82761904D01*
X94040952Y-82714285D01*
X93993333Y-82619047D01*
X93993333Y-82428571D01*
X94040952Y-82333333D01*
X94088571Y-82285714D01*
X94183809Y-82238095D01*
X93945714Y-83666666D02*
X94612380Y-83666666D01*
X93564761Y-83428571D02*
X94279047Y-83190476D01*
X94279047Y-83809523D01*
X87642857Y-98537142D02*
X87690476Y-98584761D01*
X87833333Y-98632380D01*
X87928571Y-98632380D01*
X88071428Y-98584761D01*
X88166666Y-98489523D01*
X88214285Y-98394285D01*
X88261904Y-98203809D01*
X88261904Y-98060952D01*
X88214285Y-97870476D01*
X88166666Y-97775238D01*
X88071428Y-97680000D01*
X87928571Y-97632380D01*
X87833333Y-97632380D01*
X87690476Y-97680000D01*
X87642857Y-97727619D01*
X87309523Y-97632380D02*
X86690476Y-97632380D01*
X87023809Y-98013333D01*
X86880952Y-98013333D01*
X86785714Y-98060952D01*
X86738095Y-98108571D01*
X86690476Y-98203809D01*
X86690476Y-98441904D01*
X86738095Y-98537142D01*
X86785714Y-98584761D01*
X86880952Y-98632380D01*
X87166666Y-98632380D01*
X87261904Y-98584761D01*
X87309523Y-98537142D01*
X86357142Y-97632380D02*
X85690476Y-97632380D01*
X86119047Y-98632380D01*
X113397142Y-78757142D02*
X113444761Y-78709523D01*
X113492380Y-78566666D01*
X113492380Y-78471428D01*
X113444761Y-78328571D01*
X113349523Y-78233333D01*
X113254285Y-78185714D01*
X113063809Y-78138095D01*
X112920952Y-78138095D01*
X112730476Y-78185714D01*
X112635238Y-78233333D01*
X112540000Y-78328571D01*
X112492380Y-78471428D01*
X112492380Y-78566666D01*
X112540000Y-78709523D01*
X112587619Y-78757142D01*
X112492380Y-79661904D02*
X112492380Y-79185714D01*
X112968571Y-79138095D01*
X112920952Y-79185714D01*
X112873333Y-79280952D01*
X112873333Y-79519047D01*
X112920952Y-79614285D01*
X112968571Y-79661904D01*
X113063809Y-79709523D01*
X113301904Y-79709523D01*
X113397142Y-79661904D01*
X113444761Y-79614285D01*
X113492380Y-79519047D01*
X113492380Y-79280952D01*
X113444761Y-79185714D01*
X113397142Y-79138095D01*
X112587619Y-80090476D02*
X112540000Y-80138095D01*
X112492380Y-80233333D01*
X112492380Y-80471428D01*
X112540000Y-80566666D01*
X112587619Y-80614285D01*
X112682857Y-80661904D01*
X112778095Y-80661904D01*
X112920952Y-80614285D01*
X113492380Y-80042857D01*
X113492380Y-80661904D01*
X98257142Y-112380952D02*
X98304761Y-112333333D01*
X98352380Y-112190476D01*
X98352380Y-112095238D01*
X98304761Y-111952380D01*
X98209523Y-111857142D01*
X98114285Y-111809523D01*
X97923809Y-111761904D01*
X97780952Y-111761904D01*
X97590476Y-111809523D01*
X97495238Y-111857142D01*
X97400000Y-111952380D01*
X97352380Y-112095238D01*
X97352380Y-112190476D01*
X97400000Y-112333333D01*
X97447619Y-112380952D01*
X98352380Y-113333333D02*
X98352380Y-112761904D01*
X98352380Y-113047619D02*
X97352380Y-113047619D01*
X97495238Y-112952380D01*
X97590476Y-112857142D01*
X97638095Y-112761904D01*
X97352380Y-113952380D02*
X97352380Y-114047619D01*
X97400000Y-114142857D01*
X97447619Y-114190476D01*
X97542857Y-114238095D01*
X97733333Y-114285714D01*
X97971428Y-114285714D01*
X98161904Y-114238095D01*
X98257142Y-114190476D01*
X98304761Y-114142857D01*
X98352380Y-114047619D01*
X98352380Y-113952380D01*
X98304761Y-113857142D01*
X98257142Y-113809523D01*
X98161904Y-113761904D01*
X97971428Y-113714285D01*
X97733333Y-113714285D01*
X97542857Y-113761904D01*
X97447619Y-113809523D01*
X97400000Y-113857142D01*
X97352380Y-113952380D01*
X97780952Y-114857142D02*
X97733333Y-114761904D01*
X97685714Y-114714285D01*
X97590476Y-114666666D01*
X97542857Y-114666666D01*
X97447619Y-114714285D01*
X97400000Y-114761904D01*
X97352380Y-114857142D01*
X97352380Y-115047619D01*
X97400000Y-115142857D01*
X97447619Y-115190476D01*
X97542857Y-115238095D01*
X97590476Y-115238095D01*
X97685714Y-115190476D01*
X97733333Y-115142857D01*
X97780952Y-115047619D01*
X97780952Y-114857142D01*
X97828571Y-114761904D01*
X97876190Y-114714285D01*
X97971428Y-114666666D01*
X98161904Y-114666666D01*
X98257142Y-114714285D01*
X98304761Y-114761904D01*
X98352380Y-114857142D01*
X98352380Y-115047619D01*
X98304761Y-115142857D01*
X98257142Y-115190476D01*
X98161904Y-115238095D01*
X97971428Y-115238095D01*
X97876190Y-115190476D01*
X97828571Y-115142857D01*
X97780952Y-115047619D01*
X109317142Y-79257142D02*
X109364761Y-79209523D01*
X109412380Y-79066666D01*
X109412380Y-78971428D01*
X109364761Y-78828571D01*
X109269523Y-78733333D01*
X109174285Y-78685714D01*
X108983809Y-78638095D01*
X108840952Y-78638095D01*
X108650476Y-78685714D01*
X108555238Y-78733333D01*
X108460000Y-78828571D01*
X108412380Y-78971428D01*
X108412380Y-79066666D01*
X108460000Y-79209523D01*
X108507619Y-79257142D01*
X108412380Y-80161904D02*
X108412380Y-79685714D01*
X108888571Y-79638095D01*
X108840952Y-79685714D01*
X108793333Y-79780952D01*
X108793333Y-80019047D01*
X108840952Y-80114285D01*
X108888571Y-80161904D01*
X108983809Y-80209523D01*
X109221904Y-80209523D01*
X109317142Y-80161904D01*
X109364761Y-80114285D01*
X109412380Y-80019047D01*
X109412380Y-79780952D01*
X109364761Y-79685714D01*
X109317142Y-79638095D01*
X108412380Y-80542857D02*
X108412380Y-81209523D01*
X109412380Y-80780952D01*
X117761904Y-77952380D02*
X117761904Y-78761904D01*
X117714285Y-78857142D01*
X117666666Y-78904761D01*
X117571428Y-78952380D01*
X117380952Y-78952380D01*
X117285714Y-78904761D01*
X117238095Y-78857142D01*
X117190476Y-78761904D01*
X117190476Y-77952380D01*
X116285714Y-78285714D02*
X116285714Y-78952380D01*
X116523809Y-77904761D02*
X116761904Y-78619047D01*
X116142857Y-78619047D01*
X66952380Y-58357142D02*
X66476190Y-58023809D01*
X66952380Y-57785714D02*
X65952380Y-57785714D01*
X65952380Y-58166666D01*
X66000000Y-58261904D01*
X66047619Y-58309523D01*
X66142857Y-58357142D01*
X66285714Y-58357142D01*
X66380952Y-58309523D01*
X66428571Y-58261904D01*
X66476190Y-58166666D01*
X66476190Y-57785714D01*
X66047619Y-58738095D02*
X66000000Y-58785714D01*
X65952380Y-58880952D01*
X65952380Y-59119047D01*
X66000000Y-59214285D01*
X66047619Y-59261904D01*
X66142857Y-59309523D01*
X66238095Y-59309523D01*
X66380952Y-59261904D01*
X66952380Y-58690476D01*
X66952380Y-59309523D01*
X66952380Y-59785714D02*
X66952380Y-59976190D01*
X66904761Y-60071428D01*
X66857142Y-60119047D01*
X66714285Y-60214285D01*
X66523809Y-60261904D01*
X66142857Y-60261904D01*
X66047619Y-60214285D01*
X66000000Y-60166666D01*
X65952380Y-60071428D01*
X65952380Y-59880952D01*
X66000000Y-59785714D01*
X66047619Y-59738095D01*
X66142857Y-59690476D01*
X66380952Y-59690476D01*
X66476190Y-59738095D01*
X66523809Y-59785714D01*
X66571428Y-59880952D01*
X66571428Y-60071428D01*
X66523809Y-60166666D01*
X66476190Y-60214285D01*
X66380952Y-60261904D01*
X105957142Y-74357142D02*
X106004761Y-74309523D01*
X106052380Y-74166666D01*
X106052380Y-74071428D01*
X106004761Y-73928571D01*
X105909523Y-73833333D01*
X105814285Y-73785714D01*
X105623809Y-73738095D01*
X105480952Y-73738095D01*
X105290476Y-73785714D01*
X105195238Y-73833333D01*
X105100000Y-73928571D01*
X105052380Y-74071428D01*
X105052380Y-74166666D01*
X105100000Y-74309523D01*
X105147619Y-74357142D01*
X105052380Y-75261904D02*
X105052380Y-74785714D01*
X105528571Y-74738095D01*
X105480952Y-74785714D01*
X105433333Y-74880952D01*
X105433333Y-75119047D01*
X105480952Y-75214285D01*
X105528571Y-75261904D01*
X105623809Y-75309523D01*
X105861904Y-75309523D01*
X105957142Y-75261904D01*
X106004761Y-75214285D01*
X106052380Y-75119047D01*
X106052380Y-74880952D01*
X106004761Y-74785714D01*
X105957142Y-74738095D01*
X105480952Y-75880952D02*
X105433333Y-75785714D01*
X105385714Y-75738095D01*
X105290476Y-75690476D01*
X105242857Y-75690476D01*
X105147619Y-75738095D01*
X105100000Y-75785714D01*
X105052380Y-75880952D01*
X105052380Y-76071428D01*
X105100000Y-76166666D01*
X105147619Y-76214285D01*
X105242857Y-76261904D01*
X105290476Y-76261904D01*
X105385714Y-76214285D01*
X105433333Y-76166666D01*
X105480952Y-76071428D01*
X105480952Y-75880952D01*
X105528571Y-75785714D01*
X105576190Y-75738095D01*
X105671428Y-75690476D01*
X105861904Y-75690476D01*
X105957142Y-75738095D01*
X106004761Y-75785714D01*
X106052380Y-75880952D01*
X106052380Y-76071428D01*
X106004761Y-76166666D01*
X105957142Y-76214285D01*
X105861904Y-76261904D01*
X105671428Y-76261904D01*
X105576190Y-76214285D01*
X105528571Y-76166666D01*
X105480952Y-76071428D01*
X92202380Y-99357142D02*
X91202380Y-99357142D01*
X92202380Y-99928571D01*
X91202380Y-99928571D01*
X91202380Y-100261904D02*
X91202380Y-100833333D01*
X92202380Y-100547619D02*
X91202380Y-100547619D01*
X91630952Y-101309523D02*
X91583333Y-101214285D01*
X91535714Y-101166666D01*
X91440476Y-101119047D01*
X91392857Y-101119047D01*
X91297619Y-101166666D01*
X91250000Y-101214285D01*
X91202380Y-101309523D01*
X91202380Y-101500000D01*
X91250000Y-101595238D01*
X91297619Y-101642857D01*
X91392857Y-101690476D01*
X91440476Y-101690476D01*
X91535714Y-101642857D01*
X91583333Y-101595238D01*
X91630952Y-101500000D01*
X91630952Y-101309523D01*
X91678571Y-101214285D01*
X91726190Y-101166666D01*
X91821428Y-101119047D01*
X92011904Y-101119047D01*
X92107142Y-101166666D01*
X92154761Y-101214285D01*
X92202380Y-101309523D01*
X92202380Y-101500000D01*
X92154761Y-101595238D01*
X92107142Y-101642857D01*
X92011904Y-101690476D01*
X91821428Y-101690476D01*
X91726190Y-101642857D01*
X91678571Y-101595238D01*
X91630952Y-101500000D01*
X93395045Y-80885908D02*
X93462389Y-80885908D01*
X93597076Y-80818564D01*
X93664419Y-80751221D01*
X93731763Y-80616534D01*
X93731763Y-80481847D01*
X93698091Y-80380832D01*
X93597076Y-80212473D01*
X93496061Y-80111458D01*
X93327702Y-80010442D01*
X93226687Y-79976771D01*
X93092000Y-79976771D01*
X92957313Y-80044114D01*
X92889969Y-80111458D01*
X92822626Y-80246145D01*
X92822626Y-80313488D01*
X92519580Y-80481847D02*
X92081847Y-80919580D01*
X92586923Y-80953251D01*
X92485908Y-81054267D01*
X92452236Y-81155282D01*
X92452236Y-81222626D01*
X92485908Y-81323641D01*
X92654267Y-81492000D01*
X92755282Y-81525671D01*
X92822626Y-81525671D01*
X92923641Y-81492000D01*
X93125671Y-81289969D01*
X93159343Y-81188954D01*
X93159343Y-81121610D01*
X92115519Y-82300122D02*
X92519580Y-81896061D01*
X92317549Y-82098091D02*
X91610442Y-81390984D01*
X91778801Y-81424656D01*
X91913488Y-81424656D01*
X92014503Y-81390984D01*
X79257142Y-112380952D02*
X79304761Y-112333333D01*
X79352380Y-112190476D01*
X79352380Y-112095238D01*
X79304761Y-111952380D01*
X79209523Y-111857142D01*
X79114285Y-111809523D01*
X78923809Y-111761904D01*
X78780952Y-111761904D01*
X78590476Y-111809523D01*
X78495238Y-111857142D01*
X78400000Y-111952380D01*
X78352380Y-112095238D01*
X78352380Y-112190476D01*
X78400000Y-112333333D01*
X78447619Y-112380952D01*
X79352380Y-113333333D02*
X79352380Y-112761904D01*
X79352380Y-113047619D02*
X78352380Y-113047619D01*
X78495238Y-112952380D01*
X78590476Y-112857142D01*
X78638095Y-112761904D01*
X78352380Y-113952380D02*
X78352380Y-114047619D01*
X78400000Y-114142857D01*
X78447619Y-114190476D01*
X78542857Y-114238095D01*
X78733333Y-114285714D01*
X78971428Y-114285714D01*
X79161904Y-114238095D01*
X79257142Y-114190476D01*
X79304761Y-114142857D01*
X79352380Y-114047619D01*
X79352380Y-113952380D01*
X79304761Y-113857142D01*
X79257142Y-113809523D01*
X79161904Y-113761904D01*
X78971428Y-113714285D01*
X78733333Y-113714285D01*
X78542857Y-113761904D01*
X78447619Y-113809523D01*
X78400000Y-113857142D01*
X78352380Y-113952380D01*
X78352380Y-114904761D02*
X78352380Y-115000000D01*
X78400000Y-115095238D01*
X78447619Y-115142857D01*
X78542857Y-115190476D01*
X78733333Y-115238095D01*
X78971428Y-115238095D01*
X79161904Y-115190476D01*
X79257142Y-115142857D01*
X79304761Y-115095238D01*
X79352380Y-115000000D01*
X79352380Y-114904761D01*
X79304761Y-114809523D01*
X79257142Y-114761904D01*
X79161904Y-114714285D01*
X78971428Y-114666666D01*
X78733333Y-114666666D01*
X78542857Y-114714285D01*
X78447619Y-114761904D01*
X78400000Y-114809523D01*
X78352380Y-114904761D01*
X85642857Y-88057142D02*
X85690476Y-88104761D01*
X85833333Y-88152380D01*
X85928571Y-88152380D01*
X86071428Y-88104761D01*
X86166666Y-88009523D01*
X86214285Y-87914285D01*
X86261904Y-87723809D01*
X86261904Y-87580952D01*
X86214285Y-87390476D01*
X86166666Y-87295238D01*
X86071428Y-87200000D01*
X85928571Y-87152380D01*
X85833333Y-87152380D01*
X85690476Y-87200000D01*
X85642857Y-87247619D01*
X84785714Y-87485714D02*
X84785714Y-88152380D01*
X85023809Y-87104761D02*
X85261904Y-87819047D01*
X84642857Y-87819047D01*
X84357142Y-87152380D02*
X83690476Y-87152380D01*
X84119047Y-88152380D01*
X94142857Y-90517142D02*
X94190476Y-90564761D01*
X94333333Y-90612380D01*
X94428571Y-90612380D01*
X94571428Y-90564761D01*
X94666666Y-90469523D01*
X94714285Y-90374285D01*
X94761904Y-90183809D01*
X94761904Y-90040952D01*
X94714285Y-89850476D01*
X94666666Y-89755238D01*
X94571428Y-89660000D01*
X94428571Y-89612380D01*
X94333333Y-89612380D01*
X94190476Y-89660000D01*
X94142857Y-89707619D01*
X93285714Y-89945714D02*
X93285714Y-90612380D01*
X93523809Y-89564761D02*
X93761904Y-90279047D01*
X93142857Y-90279047D01*
X92619047Y-90040952D02*
X92714285Y-89993333D01*
X92761904Y-89945714D01*
X92809523Y-89850476D01*
X92809523Y-89802857D01*
X92761904Y-89707619D01*
X92714285Y-89660000D01*
X92619047Y-89612380D01*
X92428571Y-89612380D01*
X92333333Y-89660000D01*
X92285714Y-89707619D01*
X92238095Y-89802857D01*
X92238095Y-89850476D01*
X92285714Y-89945714D01*
X92333333Y-89993333D01*
X92428571Y-90040952D01*
X92619047Y-90040952D01*
X92714285Y-90088571D01*
X92761904Y-90136190D01*
X92809523Y-90231428D01*
X92809523Y-90421904D01*
X92761904Y-90517142D01*
X92714285Y-90564761D01*
X92619047Y-90612380D01*
X92428571Y-90612380D01*
X92333333Y-90564761D01*
X92285714Y-90517142D01*
X92238095Y-90421904D01*
X92238095Y-90231428D01*
X92285714Y-90136190D01*
X92333333Y-90088571D01*
X92428571Y-90040952D01*
X72952380Y-58357142D02*
X72476190Y-58023809D01*
X72952380Y-57785714D02*
X71952380Y-57785714D01*
X71952380Y-58166666D01*
X72000000Y-58261904D01*
X72047619Y-58309523D01*
X72142857Y-58357142D01*
X72285714Y-58357142D01*
X72380952Y-58309523D01*
X72428571Y-58261904D01*
X72476190Y-58166666D01*
X72476190Y-57785714D01*
X71952380Y-58690476D02*
X71952380Y-59309523D01*
X72333333Y-58976190D01*
X72333333Y-59119047D01*
X72380952Y-59214285D01*
X72428571Y-59261904D01*
X72523809Y-59309523D01*
X72761904Y-59309523D01*
X72857142Y-59261904D01*
X72904761Y-59214285D01*
X72952380Y-59119047D01*
X72952380Y-58833333D01*
X72904761Y-58738095D01*
X72857142Y-58690476D01*
X72047619Y-59690476D02*
X72000000Y-59738095D01*
X71952380Y-59833333D01*
X71952380Y-60071428D01*
X72000000Y-60166666D01*
X72047619Y-60214285D01*
X72142857Y-60261904D01*
X72238095Y-60261904D01*
X72380952Y-60214285D01*
X72952380Y-59642857D01*
X72952380Y-60261904D01*
X111642857Y-67557142D02*
X111690476Y-67604761D01*
X111833333Y-67652380D01*
X111928571Y-67652380D01*
X112071428Y-67604761D01*
X112166666Y-67509523D01*
X112214285Y-67414285D01*
X112261904Y-67223809D01*
X112261904Y-67080952D01*
X112214285Y-66890476D01*
X112166666Y-66795238D01*
X112071428Y-66700000D01*
X111928571Y-66652380D01*
X111833333Y-66652380D01*
X111690476Y-66700000D01*
X111642857Y-66747619D01*
X110785714Y-66652380D02*
X110976190Y-66652380D01*
X111071428Y-66700000D01*
X111119047Y-66747619D01*
X111214285Y-66890476D01*
X111261904Y-67080952D01*
X111261904Y-67461904D01*
X111214285Y-67557142D01*
X111166666Y-67604761D01*
X111071428Y-67652380D01*
X110880952Y-67652380D01*
X110785714Y-67604761D01*
X110738095Y-67557142D01*
X110690476Y-67461904D01*
X110690476Y-67223809D01*
X110738095Y-67128571D01*
X110785714Y-67080952D01*
X110880952Y-67033333D01*
X111071428Y-67033333D01*
X111166666Y-67080952D01*
X111214285Y-67128571D01*
X111261904Y-67223809D01*
X110309523Y-66747619D02*
X110261904Y-66700000D01*
X110166666Y-66652380D01*
X109928571Y-66652380D01*
X109833333Y-66700000D01*
X109785714Y-66747619D01*
X109738095Y-66842857D01*
X109738095Y-66938095D01*
X109785714Y-67080952D01*
X110357142Y-67652380D01*
X109738095Y-67652380D01*
X71407142Y-91957142D02*
X71454761Y-91909523D01*
X71502380Y-91766666D01*
X71502380Y-91671428D01*
X71454761Y-91528571D01*
X71359523Y-91433333D01*
X71264285Y-91385714D01*
X71073809Y-91338095D01*
X70930952Y-91338095D01*
X70740476Y-91385714D01*
X70645238Y-91433333D01*
X70550000Y-91528571D01*
X70502380Y-91671428D01*
X70502380Y-91766666D01*
X70550000Y-91909523D01*
X70597619Y-91957142D01*
X70835714Y-92814285D02*
X71502380Y-92814285D01*
X70454761Y-92576190D02*
X71169047Y-92338095D01*
X71169047Y-92957142D01*
X70597619Y-93290476D02*
X70550000Y-93338095D01*
X70502380Y-93433333D01*
X70502380Y-93671428D01*
X70550000Y-93766666D01*
X70597619Y-93814285D01*
X70692857Y-93861904D01*
X70788095Y-93861904D01*
X70930952Y-93814285D01*
X71502380Y-93242857D01*
X71502380Y-93861904D01*
X112557142Y-112380952D02*
X112604761Y-112333333D01*
X112652380Y-112190476D01*
X112652380Y-112095238D01*
X112604761Y-111952380D01*
X112509523Y-111857142D01*
X112414285Y-111809523D01*
X112223809Y-111761904D01*
X112080952Y-111761904D01*
X111890476Y-111809523D01*
X111795238Y-111857142D01*
X111700000Y-111952380D01*
X111652380Y-112095238D01*
X111652380Y-112190476D01*
X111700000Y-112333333D01*
X111747619Y-112380952D01*
X112652380Y-113333333D02*
X112652380Y-112761904D01*
X112652380Y-113047619D02*
X111652380Y-113047619D01*
X111795238Y-112952380D01*
X111890476Y-112857142D01*
X111938095Y-112761904D01*
X112652380Y-114285714D02*
X112652380Y-113714285D01*
X112652380Y-114000000D02*
X111652380Y-114000000D01*
X111795238Y-113904761D01*
X111890476Y-113809523D01*
X111938095Y-113714285D01*
X111652380Y-115190476D02*
X111652380Y-114714285D01*
X112128571Y-114666666D01*
X112080952Y-114714285D01*
X112033333Y-114809523D01*
X112033333Y-115047619D01*
X112080952Y-115142857D01*
X112128571Y-115190476D01*
X112223809Y-115238095D01*
X112461904Y-115238095D01*
X112557142Y-115190476D01*
X112604761Y-115142857D01*
X112652380Y-115047619D01*
X112652380Y-114809523D01*
X112604761Y-114714285D01*
X112557142Y-114666666D01*
X90997969Y-73492893D02*
X90997969Y-73425549D01*
X90930625Y-73290862D01*
X90863282Y-73223519D01*
X90728595Y-73156175D01*
X90593908Y-73156175D01*
X90492893Y-73189847D01*
X90324534Y-73290862D01*
X90223519Y-73391877D01*
X90122503Y-73560236D01*
X90088832Y-73661251D01*
X90088832Y-73795938D01*
X90156175Y-73930625D01*
X90223519Y-73997969D01*
X90358206Y-74065312D01*
X90425549Y-74065312D01*
X90694923Y-74334687D02*
X90694923Y-74402030D01*
X90728595Y-74503045D01*
X90896954Y-74671404D01*
X90997969Y-74705076D01*
X91065312Y-74705076D01*
X91166328Y-74671404D01*
X91233671Y-74604061D01*
X91301015Y-74469374D01*
X91301015Y-73661251D01*
X91738748Y-74098984D01*
X91738748Y-74907106D02*
X91637732Y-74873435D01*
X91570389Y-74873435D01*
X91469374Y-74907106D01*
X91435702Y-74940778D01*
X91402030Y-75041793D01*
X91402030Y-75109137D01*
X91435702Y-75210152D01*
X91570389Y-75344839D01*
X91671404Y-75378511D01*
X91738748Y-75378511D01*
X91839763Y-75344839D01*
X91873435Y-75311167D01*
X91907106Y-75210152D01*
X91907106Y-75142809D01*
X91873435Y-75041793D01*
X91738748Y-74907106D01*
X91705076Y-74806091D01*
X91705076Y-74738748D01*
X91738748Y-74637732D01*
X91873435Y-74503045D01*
X91974450Y-74469374D01*
X92041793Y-74469374D01*
X92142809Y-74503045D01*
X92277496Y-74637732D01*
X92311167Y-74738748D01*
X92311167Y-74806091D01*
X92277496Y-74907106D01*
X92142809Y-75041793D01*
X92041793Y-75075465D01*
X91974450Y-75075465D01*
X91873435Y-75041793D01*
X100557142Y-112380952D02*
X100604761Y-112333333D01*
X100652380Y-112190476D01*
X100652380Y-112095238D01*
X100604761Y-111952380D01*
X100509523Y-111857142D01*
X100414285Y-111809523D01*
X100223809Y-111761904D01*
X100080952Y-111761904D01*
X99890476Y-111809523D01*
X99795238Y-111857142D01*
X99700000Y-111952380D01*
X99652380Y-112095238D01*
X99652380Y-112190476D01*
X99700000Y-112333333D01*
X99747619Y-112380952D01*
X100652380Y-113333333D02*
X100652380Y-112761904D01*
X100652380Y-113047619D02*
X99652380Y-113047619D01*
X99795238Y-112952380D01*
X99890476Y-112857142D01*
X99938095Y-112761904D01*
X99652380Y-113952380D02*
X99652380Y-114047619D01*
X99700000Y-114142857D01*
X99747619Y-114190476D01*
X99842857Y-114238095D01*
X100033333Y-114285714D01*
X100271428Y-114285714D01*
X100461904Y-114238095D01*
X100557142Y-114190476D01*
X100604761Y-114142857D01*
X100652380Y-114047619D01*
X100652380Y-113952380D01*
X100604761Y-113857142D01*
X100557142Y-113809523D01*
X100461904Y-113761904D01*
X100271428Y-113714285D01*
X100033333Y-113714285D01*
X99842857Y-113761904D01*
X99747619Y-113809523D01*
X99700000Y-113857142D01*
X99652380Y-113952380D01*
X100652380Y-114761904D02*
X100652380Y-114952380D01*
X100604761Y-115047619D01*
X100557142Y-115095238D01*
X100414285Y-115190476D01*
X100223809Y-115238095D01*
X99842857Y-115238095D01*
X99747619Y-115190476D01*
X99700000Y-115142857D01*
X99652380Y-115047619D01*
X99652380Y-114857142D01*
X99700000Y-114761904D01*
X99747619Y-114714285D01*
X99842857Y-114666666D01*
X100080952Y-114666666D01*
X100176190Y-114714285D01*
X100223809Y-114761904D01*
X100271428Y-114857142D01*
X100271428Y-115047619D01*
X100223809Y-115142857D01*
X100176190Y-115190476D01*
X100080952Y-115238095D01*
X101795045Y-74985908D02*
X101862389Y-74985908D01*
X101997076Y-74918564D01*
X102064419Y-74851221D01*
X102131763Y-74716534D01*
X102131763Y-74581847D01*
X102098091Y-74480832D01*
X101997076Y-74312473D01*
X101896061Y-74211458D01*
X101727702Y-74110442D01*
X101626687Y-74076771D01*
X101492000Y-74076771D01*
X101357313Y-74144114D01*
X101289969Y-74211458D01*
X101222626Y-74346145D01*
X101222626Y-74413488D01*
X100919580Y-74581847D02*
X100481847Y-75019580D01*
X100986923Y-75053251D01*
X100885908Y-75154267D01*
X100852236Y-75255282D01*
X100852236Y-75322626D01*
X100885908Y-75423641D01*
X101054267Y-75592000D01*
X101155282Y-75625671D01*
X101222626Y-75625671D01*
X101323641Y-75592000D01*
X101525671Y-75389969D01*
X101559343Y-75288954D01*
X101559343Y-75221610D01*
X100246145Y-75255282D02*
X99808412Y-75693015D01*
X100313488Y-75726687D01*
X100212473Y-75827702D01*
X100178801Y-75928717D01*
X100178801Y-75996061D01*
X100212473Y-76097076D01*
X100380832Y-76265435D01*
X100481847Y-76299106D01*
X100549190Y-76299106D01*
X100650206Y-76265435D01*
X100852236Y-76063404D01*
X100885908Y-75962389D01*
X100885908Y-75895045D01*
X69552380Y-84333333D02*
X69076190Y-84000000D01*
X69552380Y-83761904D02*
X68552380Y-83761904D01*
X68552380Y-84142857D01*
X68600000Y-84238095D01*
X68647619Y-84285714D01*
X68742857Y-84333333D01*
X68885714Y-84333333D01*
X68980952Y-84285714D01*
X69028571Y-84238095D01*
X69076190Y-84142857D01*
X69076190Y-83761904D01*
X68552380Y-85190476D02*
X68552380Y-85000000D01*
X68600000Y-84904761D01*
X68647619Y-84857142D01*
X68790476Y-84761904D01*
X68980952Y-84714285D01*
X69361904Y-84714285D01*
X69457142Y-84761904D01*
X69504761Y-84809523D01*
X69552380Y-84904761D01*
X69552380Y-85095238D01*
X69504761Y-85190476D01*
X69457142Y-85238095D01*
X69361904Y-85285714D01*
X69123809Y-85285714D01*
X69028571Y-85238095D01*
X68980952Y-85190476D01*
X68933333Y-85095238D01*
X68933333Y-84904761D01*
X68980952Y-84809523D01*
X69028571Y-84761904D01*
X69123809Y-84714285D01*
X85833333Y-90498571D02*
X86166666Y-90498571D01*
X86166666Y-91022380D02*
X86166666Y-90022380D01*
X85690476Y-90022380D01*
X84976190Y-90498571D02*
X84833333Y-90546190D01*
X84785714Y-90593809D01*
X84738095Y-90689047D01*
X84738095Y-90831904D01*
X84785714Y-90927142D01*
X84833333Y-90974761D01*
X84928571Y-91022380D01*
X85309523Y-91022380D01*
X85309523Y-90022380D01*
X84976190Y-90022380D01*
X84880952Y-90070000D01*
X84833333Y-90117619D01*
X84785714Y-90212857D01*
X84785714Y-90308095D01*
X84833333Y-90403333D01*
X84880952Y-90450952D01*
X84976190Y-90498571D01*
X85309523Y-90498571D01*
X84357142Y-90117619D02*
X84309523Y-90070000D01*
X84214285Y-90022380D01*
X83976190Y-90022380D01*
X83880952Y-90070000D01*
X83833333Y-90117619D01*
X83785714Y-90212857D01*
X83785714Y-90308095D01*
X83833333Y-90450952D01*
X84404761Y-91022380D01*
X83785714Y-91022380D01*
X92542857Y-87297142D02*
X92590476Y-87344761D01*
X92733333Y-87392380D01*
X92828571Y-87392380D01*
X92971428Y-87344761D01*
X93066666Y-87249523D01*
X93114285Y-87154285D01*
X93161904Y-86963809D01*
X93161904Y-86820952D01*
X93114285Y-86630476D01*
X93066666Y-86535238D01*
X92971428Y-86440000D01*
X92828571Y-86392380D01*
X92733333Y-86392380D01*
X92590476Y-86440000D01*
X92542857Y-86487619D01*
X91685714Y-86725714D02*
X91685714Y-87392380D01*
X91923809Y-86344761D02*
X92161904Y-87059047D01*
X91542857Y-87059047D01*
X90685714Y-86392380D02*
X91161904Y-86392380D01*
X91209523Y-86868571D01*
X91161904Y-86820952D01*
X91066666Y-86773333D01*
X90828571Y-86773333D01*
X90733333Y-86820952D01*
X90685714Y-86868571D01*
X90638095Y-86963809D01*
X90638095Y-87201904D01*
X90685714Y-87297142D01*
X90733333Y-87344761D01*
X90828571Y-87392380D01*
X91066666Y-87392380D01*
X91161904Y-87344761D01*
X91209523Y-87297142D01*
X70952380Y-58357142D02*
X70476190Y-58023809D01*
X70952380Y-57785714D02*
X69952380Y-57785714D01*
X69952380Y-58166666D01*
X70000000Y-58261904D01*
X70047619Y-58309523D01*
X70142857Y-58357142D01*
X70285714Y-58357142D01*
X70380952Y-58309523D01*
X70428571Y-58261904D01*
X70476190Y-58166666D01*
X70476190Y-57785714D01*
X69952380Y-58690476D02*
X69952380Y-59309523D01*
X70333333Y-58976190D01*
X70333333Y-59119047D01*
X70380952Y-59214285D01*
X70428571Y-59261904D01*
X70523809Y-59309523D01*
X70761904Y-59309523D01*
X70857142Y-59261904D01*
X70904761Y-59214285D01*
X70952380Y-59119047D01*
X70952380Y-58833333D01*
X70904761Y-58738095D01*
X70857142Y-58690476D01*
X70952380Y-60261904D02*
X70952380Y-59690476D01*
X70952380Y-59976190D02*
X69952380Y-59976190D01*
X70095238Y-59880952D01*
X70190476Y-59785714D01*
X70238095Y-59690476D01*
X57942857Y-86607142D02*
X57990476Y-86654761D01*
X58133333Y-86702380D01*
X58228571Y-86702380D01*
X58371428Y-86654761D01*
X58466666Y-86559523D01*
X58514285Y-86464285D01*
X58561904Y-86273809D01*
X58561904Y-86130952D01*
X58514285Y-85940476D01*
X58466666Y-85845238D01*
X58371428Y-85750000D01*
X58228571Y-85702380D01*
X58133333Y-85702380D01*
X57990476Y-85750000D01*
X57942857Y-85797619D01*
X57561904Y-85797619D02*
X57514285Y-85750000D01*
X57419047Y-85702380D01*
X57180952Y-85702380D01*
X57085714Y-85750000D01*
X57038095Y-85797619D01*
X56990476Y-85892857D01*
X56990476Y-85988095D01*
X57038095Y-86130952D01*
X57609523Y-86702380D01*
X56990476Y-86702380D01*
X56371428Y-85702380D02*
X56276190Y-85702380D01*
X56180952Y-85750000D01*
X56133333Y-85797619D01*
X56085714Y-85892857D01*
X56038095Y-86083333D01*
X56038095Y-86321428D01*
X56085714Y-86511904D01*
X56133333Y-86607142D01*
X56180952Y-86654761D01*
X56276190Y-86702380D01*
X56371428Y-86702380D01*
X56466666Y-86654761D01*
X56514285Y-86607142D01*
X56561904Y-86511904D01*
X56609523Y-86321428D01*
X56609523Y-86083333D01*
X56561904Y-85892857D01*
X56514285Y-85797619D01*
X56466666Y-85750000D01*
X56371428Y-85702380D01*
X111642857Y-70252380D02*
X111976190Y-69776190D01*
X112214285Y-70252380D02*
X112214285Y-69252380D01*
X111833333Y-69252380D01*
X111738095Y-69300000D01*
X111690476Y-69347619D01*
X111642857Y-69442857D01*
X111642857Y-69585714D01*
X111690476Y-69680952D01*
X111738095Y-69728571D01*
X111833333Y-69776190D01*
X112214285Y-69776190D01*
X110690476Y-70252380D02*
X111261904Y-70252380D01*
X110976190Y-70252380D02*
X110976190Y-69252380D01*
X111071428Y-69395238D01*
X111166666Y-69490476D01*
X111261904Y-69538095D01*
X110119047Y-69680952D02*
X110214285Y-69633333D01*
X110261904Y-69585714D01*
X110309523Y-69490476D01*
X110309523Y-69442857D01*
X110261904Y-69347619D01*
X110214285Y-69300000D01*
X110119047Y-69252380D01*
X109928571Y-69252380D01*
X109833333Y-69300000D01*
X109785714Y-69347619D01*
X109738095Y-69442857D01*
X109738095Y-69490476D01*
X109785714Y-69585714D01*
X109833333Y-69633333D01*
X109928571Y-69680952D01*
X110119047Y-69680952D01*
X110214285Y-69728571D01*
X110261904Y-69776190D01*
X110309523Y-69871428D01*
X110309523Y-70061904D01*
X110261904Y-70157142D01*
X110214285Y-70204761D01*
X110119047Y-70252380D01*
X109928571Y-70252380D01*
X109833333Y-70204761D01*
X109785714Y-70157142D01*
X109738095Y-70061904D01*
X109738095Y-69871428D01*
X109785714Y-69776190D01*
X109833333Y-69728571D01*
X109928571Y-69680952D01*
D11*
X85140000Y-116607836D02*
X85140000Y-116392164D01*
X85860000Y-116607836D02*
X85860000Y-116392164D01*
X84860000Y-116607836D02*
X84860000Y-116392164D01*
X84140000Y-116607836D02*
X84140000Y-116392164D01*
X112146359Y-75980000D02*
X112453641Y-75980000D01*
X112146359Y-75220000D02*
X112453641Y-75220000D01*
X113807836Y-71940000D02*
X113592164Y-71940000D01*
X113807836Y-72660000D02*
X113592164Y-72660000D01*
X107860000Y-116607836D02*
X107860000Y-116392164D01*
X107140000Y-116607836D02*
X107140000Y-116392164D01*
X59480000Y-100046359D02*
X59480000Y-100353641D01*
X58720000Y-100046359D02*
X58720000Y-100353641D01*
X66790000Y-104388748D02*
X66790000Y-105811252D01*
X68610000Y-104388748D02*
X68610000Y-105811252D01*
X80140000Y-116607836D02*
X80140000Y-116392164D01*
X80860000Y-116607836D02*
X80860000Y-116392164D01*
X68880000Y-55846359D02*
X68880000Y-56153641D01*
X68120000Y-55846359D02*
X68120000Y-56153641D01*
X86538748Y-77835000D02*
X87061252Y-77835000D01*
X86538748Y-76365000D02*
X87061252Y-76365000D01*
X114892164Y-74240000D02*
X115107836Y-74240000D01*
X114892164Y-74960000D02*
X115107836Y-74960000D01*
X75738748Y-74235000D02*
X76261252Y-74235000D01*
X75738748Y-72765000D02*
X76261252Y-72765000D01*
X88107836Y-101860000D02*
X87892164Y-101860000D01*
X88107836Y-101140000D02*
X87892164Y-101140000D01*
X77611252Y-87890000D02*
X76188748Y-87890000D01*
X77611252Y-89710000D02*
X76188748Y-89710000D01*
X85237258Y-89522500D02*
X84762742Y-89522500D01*
X85237258Y-88477500D02*
X84762742Y-88477500D01*
X87360000Y-83392164D02*
X87360000Y-83607836D01*
X86640000Y-83392164D02*
X86640000Y-83607836D01*
X88360000Y-83607836D02*
X88360000Y-83392164D01*
X87640000Y-83607836D02*
X87640000Y-83392164D01*
X62120000Y-55846359D02*
X62120000Y-56153641D01*
X62880000Y-55846359D02*
X62880000Y-56153641D01*
X65890000Y-111588748D02*
X65890000Y-113011252D01*
X67710000Y-111588748D02*
X67710000Y-113011252D01*
X90160000Y-86392164D02*
X90160000Y-86607836D01*
X89440000Y-86392164D02*
X89440000Y-86607836D01*
D12*
X98000000Y-68800000D02*
X98000000Y-66200000D01*
X102000000Y-68800000D02*
X102000000Y-66200000D01*
D13*
X98700000Y-65700000D02*
G75*
G03*
X98700000Y-65700000I0J0D01*
G01*
D11*
X88140000Y-116607836D02*
X88140000Y-116392164D01*
X88860000Y-116607836D02*
X88860000Y-116392164D01*
X61790000Y-96188748D02*
X61790000Y-97611252D01*
X63610000Y-96188748D02*
X63610000Y-97611252D01*
X110140000Y-116607836D02*
X110140000Y-116392164D01*
X110860000Y-116607836D02*
X110860000Y-116392164D01*
X73810000Y-88511252D02*
X73810000Y-87088748D01*
X71990000Y-88511252D02*
X71990000Y-87088748D01*
X98360000Y-82442164D02*
X98360000Y-82657836D01*
X97640000Y-82442164D02*
X97640000Y-82657836D01*
X106860000Y-116607836D02*
X106860000Y-116392164D01*
X106140000Y-116607836D02*
X106140000Y-116392164D01*
X71390000Y-111588748D02*
X71390000Y-113011252D01*
X73210000Y-111588748D02*
X73210000Y-113011252D01*
X108492164Y-73360000D02*
X108707836Y-73360000D01*
X108492164Y-72640000D02*
X108707836Y-72640000D01*
X68910000Y-91111252D02*
X68910000Y-89688748D01*
X67090000Y-91111252D02*
X67090000Y-89688748D01*
X94765000Y-75161252D02*
X94765000Y-74638748D01*
X96235000Y-75161252D02*
X96235000Y-74638748D01*
X76738748Y-97235000D02*
X77261252Y-97235000D01*
X76738748Y-95765000D02*
X77261252Y-95765000D01*
X118735000Y-71538748D02*
X118735000Y-72061252D01*
X117265000Y-71538748D02*
X117265000Y-72061252D01*
X76765000Y-92738748D02*
X76765000Y-93261252D01*
X78235000Y-92738748D02*
X78235000Y-93261252D01*
X60880000Y-55846359D02*
X60880000Y-56153641D01*
X60120000Y-55846359D02*
X60120000Y-56153641D01*
X91161252Y-92765000D02*
X90638748Y-92765000D01*
X91161252Y-94235000D02*
X90638748Y-94235000D01*
X64559464Y-101153602D02*
X63553602Y-102159464D01*
X65846398Y-102440536D02*
X64840536Y-103446398D01*
X64690000Y-91111252D02*
X64690000Y-89688748D01*
X66510000Y-91111252D02*
X66510000Y-89688748D01*
X93860000Y-116607836D02*
X93860000Y-116392164D01*
X93140000Y-116607836D02*
X93140000Y-116392164D01*
X109792164Y-74240000D02*
X110007836Y-74240000D01*
X109792164Y-74960000D02*
X110007836Y-74960000D01*
X92640000Y-84607836D02*
X92640000Y-84392164D01*
X93360000Y-84607836D02*
X93360000Y-84392164D01*
X48940000Y-89000000D02*
X48940000Y-89650000D01*
X48940000Y-89000000D02*
X48940000Y-88350000D01*
X52060000Y-89000000D02*
X52060000Y-88350000D01*
X52060000Y-89000000D02*
X52060000Y-90675000D01*
X95653641Y-86650000D02*
X95346359Y-86650000D01*
X95653641Y-85890000D02*
X95346359Y-85890000D01*
X64310000Y-110088748D02*
X64310000Y-111511252D01*
X62490000Y-110088748D02*
X62490000Y-111511252D01*
X60940000Y-100307836D02*
X60940000Y-100092164D01*
X61660000Y-100307836D02*
X61660000Y-100092164D01*
X103860000Y-116607836D02*
X103860000Y-116392164D01*
X103140000Y-116607836D02*
X103140000Y-116392164D01*
X70710000Y-111588748D02*
X70710000Y-113011252D01*
X68890000Y-111588748D02*
X68890000Y-113011252D01*
X67080000Y-84346359D02*
X67080000Y-84653641D01*
X66320000Y-84346359D02*
X66320000Y-84653641D01*
X95392164Y-90940000D02*
X95607836Y-90940000D01*
X95392164Y-91660000D02*
X95607836Y-91660000D01*
X114107836Y-85860000D02*
X113892164Y-85860000D01*
X114107836Y-85140000D02*
X113892164Y-85140000D01*
X112192164Y-73960000D02*
X112407836Y-73960000D01*
X112192164Y-73240000D02*
X112407836Y-73240000D01*
X80461252Y-79765000D02*
X79938748Y-79765000D01*
X80461252Y-81235000D02*
X79938748Y-81235000D01*
X114592164Y-76560000D02*
X114807836Y-76560000D01*
X114592164Y-75840000D02*
X114807836Y-75840000D01*
X51500000Y-103440000D02*
X50850000Y-103440000D01*
X51500000Y-106560000D02*
X52150000Y-106560000D01*
X51500000Y-106560000D02*
X50850000Y-106560000D01*
X51500000Y-103440000D02*
X53175000Y-103440000D01*
X114107836Y-84860000D02*
X113892164Y-84860000D01*
X114107836Y-84140000D02*
X113892164Y-84140000D01*
X92860000Y-116607836D02*
X92860000Y-116392164D01*
X92140000Y-116607836D02*
X92140000Y-116392164D01*
X107440000Y-75907836D02*
X107440000Y-75692164D01*
X108160000Y-75907836D02*
X108160000Y-75692164D01*
X89140000Y-116607836D02*
X89140000Y-116392164D01*
X89860000Y-116607836D02*
X89860000Y-116392164D01*
X74120000Y-55846359D02*
X74120000Y-56153641D01*
X74880000Y-55846359D02*
X74880000Y-56153641D01*
X48520000Y-104346359D02*
X48520000Y-104653641D01*
X49280000Y-104346359D02*
X49280000Y-104653641D01*
X97607836Y-89940000D02*
X97392164Y-89940000D01*
X97607836Y-90660000D02*
X97392164Y-90660000D01*
X85838748Y-74235000D02*
X86361252Y-74235000D01*
X85838748Y-72765000D02*
X86361252Y-72765000D01*
X86640000Y-90607836D02*
X86640000Y-90392164D01*
X87360000Y-90607836D02*
X87360000Y-90392164D01*
X102140000Y-116607836D02*
X102140000Y-116392164D01*
X102860000Y-116607836D02*
X102860000Y-116392164D01*
X78290000Y-85311252D02*
X78290000Y-83888748D01*
X80110000Y-85311252D02*
X80110000Y-83888748D01*
X59820000Y-100353641D02*
X59820000Y-100046359D01*
X60580000Y-100353641D02*
X60580000Y-100046359D01*
X88107836Y-102140000D02*
X87892164Y-102140000D01*
X88107836Y-102860000D02*
X87892164Y-102860000D01*
X68153641Y-95180000D02*
X67846359Y-95180000D01*
X68153641Y-94420000D02*
X67846359Y-94420000D01*
X61320000Y-92151252D02*
X61320000Y-90728748D01*
X63140000Y-92151252D02*
X63140000Y-90728748D01*
X64120000Y-55846359D02*
X64120000Y-56153641D01*
X64880000Y-55846359D02*
X64880000Y-56153641D01*
X88640000Y-82607836D02*
X88640000Y-82392164D01*
X89360000Y-82607836D02*
X89360000Y-82392164D01*
X87607836Y-86260000D02*
X87392164Y-86260000D01*
X87607836Y-85540000D02*
X87392164Y-85540000D01*
X93360000Y-82607836D02*
X93360000Y-82392164D01*
X92640000Y-82607836D02*
X92640000Y-82392164D01*
X86738748Y-97235000D02*
X87261252Y-97235000D01*
X86738748Y-95765000D02*
X87261252Y-95765000D01*
X114560000Y-79292164D02*
X114560000Y-79507836D01*
X113840000Y-79292164D02*
X113840000Y-79507836D01*
X98140000Y-116607836D02*
X98140000Y-116392164D01*
X98860000Y-116607836D02*
X98860000Y-116392164D01*
X107440000Y-80007836D02*
X107440000Y-79792164D01*
X108160000Y-80007836D02*
X108160000Y-79792164D01*
D12*
X115000000Y-82300000D02*
X115000000Y-79700000D01*
X119000000Y-82300000D02*
X119000000Y-79700000D01*
D13*
X115700000Y-79200000D02*
G75*
G03*
X115700000Y-79200000I0J0D01*
G01*
D11*
X66880000Y-55846359D02*
X66880000Y-56153641D01*
X66120000Y-55846359D02*
X66120000Y-56153641D01*
X107160000Y-74207836D02*
X107160000Y-73992164D01*
X106440000Y-74207836D02*
X106440000Y-73992164D01*
X90795543Y-79565010D02*
X91165010Y-79195543D01*
X91834990Y-80604457D02*
X92204457Y-80234990D01*
X79860000Y-116607836D02*
X79860000Y-116392164D01*
X79140000Y-116607836D02*
X79140000Y-116392164D01*
X87607836Y-88360000D02*
X87392164Y-88360000D01*
X87607836Y-87640000D02*
X87392164Y-87640000D01*
X93392164Y-89360000D02*
X93607836Y-89360000D01*
X93392164Y-88640000D02*
X93607836Y-88640000D01*
X72880000Y-55846359D02*
X72880000Y-56153641D01*
X72120000Y-55846359D02*
X72120000Y-56153641D01*
X111407836Y-72240000D02*
X111192164Y-72240000D01*
X111407836Y-72960000D02*
X111192164Y-72960000D01*
X73810000Y-91888748D02*
X73810000Y-93311252D01*
X71990000Y-91888748D02*
X71990000Y-93311252D01*
X111140000Y-116607836D02*
X111140000Y-116392164D01*
X111860000Y-116607836D02*
X111860000Y-116392164D01*
X90334990Y-74795543D02*
X90704457Y-75165010D01*
X89295543Y-75834990D02*
X89665010Y-76204457D01*
X99140000Y-116607836D02*
X99140000Y-116392164D01*
X99860000Y-116607836D02*
X99860000Y-116392164D01*
X100234990Y-74704457D02*
X100604457Y-74334990D01*
X99195543Y-73665010D02*
X99565010Y-73295543D01*
X67420000Y-84346359D02*
X67420000Y-84653641D01*
X68180000Y-84346359D02*
X68180000Y-84653641D01*
X85237258Y-91477500D02*
X84762742Y-91477500D01*
X85237258Y-92522500D02*
X84762742Y-92522500D01*
X91607836Y-87740000D02*
X91392164Y-87740000D01*
X91607836Y-88460000D02*
X91392164Y-88460000D01*
X70120000Y-55846359D02*
X70120000Y-56153641D01*
X70880000Y-55846359D02*
X70880000Y-56153641D01*
X58011252Y-87190000D02*
X56588748Y-87190000D01*
X58011252Y-89010000D02*
X56588748Y-89010000D01*
X112453641Y-74980000D02*
X112146359Y-74980000D01*
X112453641Y-74220000D02*
X112146359Y-74220000D01*
%LPC*%
D14*
X86990000Y-52025000D03*
D15*
X84450000Y-52025000D03*
X81910000Y-52025000D03*
X79370000Y-52025000D03*
D14*
X103150000Y-63250000D03*
D15*
X105690000Y-63250000D03*
X108230000Y-63250000D03*
X110770000Y-63250000D03*
X113310000Y-63250000D03*
X115850000Y-63250000D03*
D14*
X98800000Y-52025000D03*
D15*
X96260000Y-52025000D03*
X93720000Y-52025000D03*
X91180000Y-52025000D03*
D14*
X57000000Y-76000000D03*
D15*
X57000000Y-78540000D03*
X57000000Y-81080000D03*
D16*
X62500000Y-121200000D03*
D17*
X63500000Y-121750000D03*
X64500000Y-121750000D03*
X65500000Y-121750000D03*
X66500000Y-121750000D03*
X67500000Y-121750000D03*
X68500000Y-121750000D03*
X69500000Y-121750000D03*
X70500000Y-121750000D03*
X71500000Y-121750000D03*
X72500000Y-121750000D03*
X75500000Y-121750000D03*
X76500000Y-121750000D03*
X77500000Y-121750000D03*
X78500000Y-121750000D03*
X79500000Y-121750000D03*
X80500000Y-121750000D03*
X81500000Y-121750000D03*
X82500000Y-121750000D03*
X83500000Y-121750000D03*
X84500000Y-121750000D03*
X85500000Y-121750000D03*
X86500000Y-121750000D03*
X87500000Y-121750000D03*
X88500000Y-121750000D03*
X89500000Y-121750000D03*
X90500000Y-121750000D03*
X91500000Y-121750000D03*
X92500000Y-121750000D03*
X93500000Y-121750000D03*
X94500000Y-121750000D03*
X95500000Y-121750000D03*
X96500000Y-121750000D03*
X97500000Y-121750000D03*
X98500000Y-121750000D03*
X99500000Y-121750000D03*
X100500000Y-121750000D03*
X101500000Y-121750000D03*
X102500000Y-121750000D03*
X103500000Y-121750000D03*
X104500000Y-121750000D03*
X105500000Y-121750000D03*
X106500000Y-121750000D03*
X107500000Y-121750000D03*
X108500000Y-121750000D03*
X109500000Y-121750000D03*
X110500000Y-121750000D03*
X111500000Y-121750000D03*
X112500000Y-121750000D03*
D18*
X116000000Y-54000000D03*
X51500000Y-54000000D03*
D14*
X53750000Y-108470000D03*
D15*
X53750000Y-111010000D03*
D14*
X57475000Y-108475000D03*
D15*
X60015000Y-108475000D03*
X57475000Y-111015000D03*
X60015000Y-111015000D03*
D19*
X85500000Y-116980000D03*
X85500000Y-116020000D03*
X84500000Y-116980000D03*
X84500000Y-116020000D03*
D20*
X111790000Y-75600000D03*
X112810000Y-75600000D03*
D21*
X114180000Y-72300000D03*
X113220000Y-72300000D03*
D19*
X107500000Y-116980000D03*
X107500000Y-116020000D03*
D22*
X59100000Y-99690000D03*
X59100000Y-100710000D03*
D23*
X67700000Y-103625000D03*
X67700000Y-106575000D03*
D19*
X80500000Y-116980000D03*
X80500000Y-116020000D03*
D22*
X68500000Y-55490000D03*
X68500000Y-56510000D03*
D24*
X85850000Y-77100000D03*
X87750000Y-77100000D03*
D25*
X114520000Y-74600000D03*
X115480000Y-74600000D03*
D24*
X75050000Y-73500000D03*
X76950000Y-73500000D03*
D21*
X88480000Y-101500000D03*
X87520000Y-101500000D03*
D26*
X78375000Y-88800000D03*
X75425000Y-88800000D03*
D27*
X85825000Y-89000000D03*
X84175000Y-89000000D03*
D28*
X87000000Y-83020000D03*
X87000000Y-83980000D03*
D19*
X88000000Y-83980000D03*
X88000000Y-83020000D03*
D22*
X62500000Y-55490000D03*
X62500000Y-56510000D03*
D23*
X66800000Y-110825000D03*
X66800000Y-113775000D03*
D28*
X89800000Y-86020000D03*
X89800000Y-86980000D03*
D29*
X98710000Y-66570000D03*
D30*
X100000000Y-66600000D03*
D29*
X101290000Y-66570000D03*
X101290000Y-68430000D03*
D30*
X100000000Y-68430000D03*
D29*
X98710000Y-68430000D03*
D19*
X88500000Y-116980000D03*
X88500000Y-116020000D03*
D23*
X62700000Y-95425000D03*
X62700000Y-98375000D03*
D19*
X110500000Y-116980000D03*
X110500000Y-116020000D03*
D31*
X72900000Y-89275000D03*
X72900000Y-86325000D03*
D28*
X98000000Y-82070000D03*
X98000000Y-83030000D03*
D19*
X106500000Y-116980000D03*
X106500000Y-116020000D03*
D23*
X72300000Y-110825000D03*
X72300000Y-113775000D03*
D25*
X108120000Y-73000000D03*
X109080000Y-73000000D03*
D31*
X68000000Y-91875000D03*
X68000000Y-88925000D03*
D32*
X95500000Y-75850000D03*
X95500000Y-73950000D03*
D24*
X76050000Y-96500000D03*
X77950000Y-96500000D03*
D33*
X118000000Y-70850000D03*
X118000000Y-72750000D03*
X77500000Y-92050000D03*
X77500000Y-93950000D03*
D22*
X60500000Y-55490000D03*
X60500000Y-56510000D03*
D34*
X91850000Y-93500000D03*
X89950000Y-93500000D03*
D35*
X65742983Y-101257017D03*
X63657017Y-103342983D03*
D31*
X65600000Y-91875000D03*
X65600000Y-88925000D03*
D19*
X93500000Y-116980000D03*
X93500000Y-116020000D03*
D25*
X109420000Y-74600000D03*
X110380000Y-74600000D03*
D19*
X93000000Y-84980000D03*
X93000000Y-84020000D03*
D36*
X51450000Y-89937500D03*
X49550000Y-89937500D03*
X50500000Y-88062500D03*
D37*
X96010000Y-86270000D03*
X94990000Y-86270000D03*
D23*
X63400000Y-109325000D03*
X63400000Y-112275000D03*
D19*
X61300000Y-100680000D03*
X61300000Y-99720000D03*
X103500000Y-116980000D03*
X103500000Y-116020000D03*
D23*
X69800000Y-110825000D03*
X69800000Y-113775000D03*
D22*
X66700000Y-83990000D03*
X66700000Y-85010000D03*
D25*
X95020000Y-91300000D03*
X95980000Y-91300000D03*
D21*
X114480000Y-85500000D03*
X113520000Y-85500000D03*
D25*
X111820000Y-73600000D03*
X112780000Y-73600000D03*
D34*
X81150000Y-80500000D03*
X79250000Y-80500000D03*
D25*
X114220000Y-76200000D03*
X115180000Y-76200000D03*
D38*
X52437500Y-104050000D03*
X52437500Y-105950000D03*
X50562500Y-105000000D03*
D21*
X114480000Y-84500000D03*
X113520000Y-84500000D03*
D19*
X92500000Y-116980000D03*
X92500000Y-116020000D03*
X107800000Y-76280000D03*
X107800000Y-75320000D03*
X89500000Y-116980000D03*
X89500000Y-116020000D03*
D22*
X74500000Y-55490000D03*
X74500000Y-56510000D03*
X48900000Y-103990000D03*
X48900000Y-105010000D03*
D21*
X97980000Y-90300000D03*
X97020000Y-90300000D03*
D24*
X85150000Y-73500000D03*
X87050000Y-73500000D03*
D19*
X87000000Y-90980000D03*
X87000000Y-90020000D03*
X102500000Y-116980000D03*
X102500000Y-116020000D03*
D31*
X79200000Y-86075000D03*
X79200000Y-83125000D03*
D39*
X60200000Y-100710000D03*
X60200000Y-99690000D03*
D21*
X88480000Y-102500000D03*
X87520000Y-102500000D03*
D37*
X68510000Y-94800000D03*
X67490000Y-94800000D03*
D31*
X62230000Y-92915000D03*
X62230000Y-89965000D03*
D22*
X64500000Y-55490000D03*
X64500000Y-56510000D03*
D19*
X89000000Y-82980000D03*
X89000000Y-82020000D03*
D21*
X87980000Y-85900000D03*
X87020000Y-85900000D03*
D19*
X93000000Y-82980000D03*
X93000000Y-82020000D03*
D24*
X86050000Y-96500000D03*
X87950000Y-96500000D03*
D28*
X114200000Y-78920000D03*
X114200000Y-79880000D03*
D19*
X98500000Y-116980000D03*
X98500000Y-116020000D03*
X107800000Y-80380000D03*
X107800000Y-79420000D03*
D29*
X115710000Y-80070000D03*
D30*
X117000000Y-80100000D03*
D29*
X118290000Y-80070000D03*
X118290000Y-81930000D03*
D30*
X117000000Y-81930000D03*
D29*
X115710000Y-81930000D03*
D22*
X66500000Y-55490000D03*
X66500000Y-56510000D03*
D19*
X106800000Y-74580000D03*
X106800000Y-73620000D03*
D40*
X90828249Y-80571751D03*
X92171751Y-79228249D03*
D19*
X79500000Y-116980000D03*
X79500000Y-116020000D03*
D21*
X87980000Y-88000000D03*
X87020000Y-88000000D03*
D25*
X93020000Y-89000000D03*
X93980000Y-89000000D03*
D22*
X72500000Y-55490000D03*
X72500000Y-56510000D03*
D21*
X111780000Y-72600000D03*
X110820000Y-72600000D03*
D23*
X72900000Y-91125000D03*
X72900000Y-94075000D03*
D19*
X111500000Y-116980000D03*
X111500000Y-116020000D03*
D41*
X89328249Y-74828249D03*
X90671751Y-76171751D03*
D19*
X99500000Y-116980000D03*
X99500000Y-116020000D03*
D40*
X99228249Y-74671751D03*
X100571751Y-73328249D03*
D22*
X67800000Y-83990000D03*
X67800000Y-85010000D03*
D27*
X85825000Y-92000000D03*
X84175000Y-92000000D03*
D21*
X91980000Y-88100000D03*
X91020000Y-88100000D03*
D22*
X70500000Y-55490000D03*
X70500000Y-56510000D03*
D26*
X58775000Y-88100000D03*
X55825000Y-88100000D03*
D37*
X112810000Y-74600000D03*
X111790000Y-74600000D03*
M02*
