G04 #@! TF.GenerationSoftware,KiCad,Pcbnew,6.0.11+dfsg-1*
G04 #@! TF.CreationDate,2023-08-05T12:29:55+02:00*
G04 #@! TF.ProjectId,kintex-pcie,6b696e74-6578-42d7-9063-69652e6b6963,rev?*
G04 #@! TF.SameCoordinates,Original*
G04 #@! TF.FileFunction,Copper,L8,Bot*
G04 #@! TF.FilePolarity,Positive*
%FSLAX46Y46*%
G04 Gerber Fmt 4.6, Leading zero omitted, Abs format (unit mm)*
G04 Created by KiCad (PCBNEW 6.0.11+dfsg-1) date 2023-08-05 12:29:55*
%MOMM*%
%LPD*%
G01*
G04 APERTURE LIST*
G04 Aperture macros list*
%AMRoundRect*
0 Rectangle with rounded corners*
0 $1 Rounding radius*
0 $2 $3 $4 $5 $6 $7 $8 $9 X,Y pos of 4 corners*
0 Add a 4 corners polygon primitive as box body*
4,1,4,$2,$3,$4,$5,$6,$7,$8,$9,$2,$3,0*
0 Add four circle primitives for the rounded corners*
1,1,$1+$1,$2,$3*
1,1,$1+$1,$4,$5*
1,1,$1+$1,$6,$7*
1,1,$1+$1,$8,$9*
0 Add four rect primitives between the rounded corners*
20,1,$1+$1,$2,$3,$4,$5,0*
20,1,$1+$1,$4,$5,$6,$7,0*
20,1,$1+$1,$6,$7,$8,$9,0*
20,1,$1+$1,$8,$9,$2,$3,0*%
G04 Aperture macros list end*
G04 #@! TA.AperFunction,ComponentPad*
%ADD10R,1.700000X1.700000*%
G04 #@! TD*
G04 #@! TA.AperFunction,ComponentPad*
%ADD11O,1.700000X1.700000*%
G04 #@! TD*
G04 #@! TA.AperFunction,ConnectorPad*
%ADD12R,0.700000X3.200000*%
G04 #@! TD*
G04 #@! TA.AperFunction,ConnectorPad*
%ADD13R,0.700000X4.300000*%
G04 #@! TD*
G04 #@! TA.AperFunction,SMDPad,CuDef*
%ADD14RoundRect,0.140000X0.170000X-0.140000X0.170000X0.140000X-0.170000X0.140000X-0.170000X-0.140000X0*%
G04 #@! TD*
G04 #@! TA.AperFunction,SMDPad,CuDef*
%ADD15C,0.500000*%
G04 #@! TD*
G04 #@! TA.AperFunction,SMDPad,CuDef*
%ADD16RoundRect,0.135000X-0.135000X-0.185000X0.135000X-0.185000X0.135000X0.185000X-0.135000X0.185000X0*%
G04 #@! TD*
G04 #@! TA.AperFunction,SMDPad,CuDef*
%ADD17RoundRect,0.140000X0.140000X0.170000X-0.140000X0.170000X-0.140000X-0.170000X0.140000X-0.170000X0*%
G04 #@! TD*
G04 #@! TA.AperFunction,SMDPad,CuDef*
%ADD18RoundRect,0.135000X-0.185000X0.135000X-0.185000X-0.135000X0.185000X-0.135000X0.185000X0.135000X0*%
G04 #@! TD*
G04 #@! TA.AperFunction,SMDPad,CuDef*
%ADD19RoundRect,0.250000X-0.650000X0.325000X-0.650000X-0.325000X0.650000X-0.325000X0.650000X0.325000X0*%
G04 #@! TD*
G04 #@! TA.AperFunction,SMDPad,CuDef*
%ADD20RoundRect,0.250000X-0.250000X-0.475000X0.250000X-0.475000X0.250000X0.475000X-0.250000X0.475000X0*%
G04 #@! TD*
G04 #@! TA.AperFunction,SMDPad,CuDef*
%ADD21RoundRect,0.140000X-0.140000X-0.170000X0.140000X-0.170000X0.140000X0.170000X-0.140000X0.170000X0*%
G04 #@! TD*
G04 #@! TA.AperFunction,SMDPad,CuDef*
%ADD22RoundRect,0.250000X0.325000X0.650000X-0.325000X0.650000X-0.325000X-0.650000X0.325000X-0.650000X0*%
G04 #@! TD*
G04 #@! TA.AperFunction,SMDPad,CuDef*
%ADD23RoundRect,0.200000X0.200000X0.275000X-0.200000X0.275000X-0.200000X-0.275000X0.200000X-0.275000X0*%
G04 #@! TD*
G04 #@! TA.AperFunction,SMDPad,CuDef*
%ADD24RoundRect,0.140000X-0.170000X0.140000X-0.170000X-0.140000X0.170000X-0.140000X0.170000X0.140000X0*%
G04 #@! TD*
G04 #@! TA.AperFunction,SMDPad,CuDef*
%ADD25R,0.860000X1.050000*%
G04 #@! TD*
G04 #@! TA.AperFunction,SMDPad,CuDef*
%ADD26R,0.820000X1.050000*%
G04 #@! TD*
G04 #@! TA.AperFunction,SMDPad,CuDef*
%ADD27RoundRect,0.250000X0.650000X-0.325000X0.650000X0.325000X-0.650000X0.325000X-0.650000X-0.325000X0*%
G04 #@! TD*
G04 #@! TA.AperFunction,SMDPad,CuDef*
%ADD28RoundRect,0.250000X0.475000X-0.250000X0.475000X0.250000X-0.475000X0.250000X-0.475000X-0.250000X0*%
G04 #@! TD*
G04 #@! TA.AperFunction,SMDPad,CuDef*
%ADD29RoundRect,0.250000X-0.475000X0.250000X-0.475000X-0.250000X0.475000X-0.250000X0.475000X0.250000X0*%
G04 #@! TD*
G04 #@! TA.AperFunction,SMDPad,CuDef*
%ADD30RoundRect,0.250000X0.250000X0.475000X-0.250000X0.475000X-0.250000X-0.475000X0.250000X-0.475000X0*%
G04 #@! TD*
G04 #@! TA.AperFunction,SMDPad,CuDef*
%ADD31RoundRect,0.250000X-0.229810X0.689429X-0.689429X0.229810X0.229810X-0.689429X0.689429X-0.229810X0*%
G04 #@! TD*
G04 #@! TA.AperFunction,SMDPad,CuDef*
%ADD32RoundRect,0.150000X0.150000X-0.587500X0.150000X0.587500X-0.150000X0.587500X-0.150000X-0.587500X0*%
G04 #@! TD*
G04 #@! TA.AperFunction,SMDPad,CuDef*
%ADD33RoundRect,0.135000X0.135000X0.185000X-0.135000X0.185000X-0.135000X-0.185000X0.135000X-0.185000X0*%
G04 #@! TD*
G04 #@! TA.AperFunction,SMDPad,CuDef*
%ADD34RoundRect,0.150000X0.587500X0.150000X-0.587500X0.150000X-0.587500X-0.150000X0.587500X-0.150000X0*%
G04 #@! TD*
G04 #@! TA.AperFunction,SMDPad,CuDef*
%ADD35RoundRect,0.135000X0.185000X-0.135000X0.185000X0.135000X-0.185000X0.135000X-0.185000X-0.135000X0*%
G04 #@! TD*
G04 #@! TA.AperFunction,SMDPad,CuDef*
%ADD36RoundRect,0.250000X0.159099X-0.512652X0.512652X-0.159099X-0.159099X0.512652X-0.512652X0.159099X0*%
G04 #@! TD*
G04 #@! TA.AperFunction,SMDPad,CuDef*
%ADD37RoundRect,0.250000X-0.512652X-0.159099X-0.159099X-0.512652X0.512652X0.159099X0.159099X0.512652X0*%
G04 #@! TD*
G04 #@! TA.AperFunction,ViaPad*
%ADD38C,0.350000*%
G04 #@! TD*
G04 #@! TA.AperFunction,Conductor*
%ADD39C,0.142200*%
G04 #@! TD*
G04 #@! TA.AperFunction,Conductor*
%ADD40C,0.203200*%
G04 #@! TD*
G04 #@! TA.AperFunction,Conductor*
%ADD41C,0.350000*%
G04 #@! TD*
G04 #@! TA.AperFunction,Conductor*
%ADD42C,0.152400*%
G04 #@! TD*
G04 #@! TA.AperFunction,Conductor*
%ADD43C,0.127000*%
G04 #@! TD*
G04 #@! TA.AperFunction,Conductor*
%ADD44C,0.186200*%
G04 #@! TD*
G04 #@! TA.AperFunction,Conductor*
%ADD45C,0.200000*%
G04 #@! TD*
G04 #@! TA.AperFunction,Conductor*
%ADD46C,0.120000*%
G04 #@! TD*
G04 APERTURE END LIST*
G36*
X80000000Y-78250000D02*
G01*
X79000000Y-78250000D01*
X79000000Y-77750000D01*
X80000000Y-77750000D01*
X80000000Y-78250000D01*
G37*
G36*
X82000000Y-74250000D02*
G01*
X81000000Y-74250000D01*
X81000000Y-73750000D01*
X82000000Y-73750000D01*
X82000000Y-74250000D01*
G37*
G36*
X88250000Y-82000000D02*
G01*
X87750000Y-82000000D01*
X87750000Y-81000000D01*
X88250000Y-81000000D01*
X88250000Y-82000000D01*
G37*
G36*
X100176777Y-99176776D02*
G01*
X99469670Y-99883883D01*
X99116117Y-99530330D01*
X99823224Y-98823223D01*
X100176777Y-99176776D01*
G37*
G36*
X91750000Y-98500000D02*
G01*
X91250000Y-98500000D01*
X91250000Y-97500000D01*
X91750000Y-97500000D01*
X91750000Y-98500000D01*
G37*
G36*
X81000000Y-76250000D02*
G01*
X80000000Y-76250000D01*
X80000000Y-75750000D01*
X81000000Y-75750000D01*
X81000000Y-76250000D01*
G37*
G36*
X87250000Y-82000000D02*
G01*
X86750000Y-82000000D01*
X86750000Y-81000000D01*
X87250000Y-81000000D01*
X87250000Y-82000000D01*
G37*
G36*
X90750000Y-100250000D02*
G01*
X90250000Y-100250000D01*
X90250000Y-99250000D01*
X90750000Y-99250000D01*
X90750000Y-100250000D01*
G37*
D10*
X86990000Y-52025000D03*
D11*
X84450000Y-52025000D03*
X81910000Y-52025000D03*
X79370000Y-52025000D03*
D10*
X103150000Y-63250000D03*
D11*
X105690000Y-63250000D03*
X108230000Y-63250000D03*
X110770000Y-63250000D03*
X113310000Y-63250000D03*
X115850000Y-63250000D03*
D10*
X98800000Y-52025000D03*
D11*
X96260000Y-52025000D03*
X93720000Y-52025000D03*
X91180000Y-52025000D03*
D10*
X57000000Y-76000000D03*
D11*
X57000000Y-78540000D03*
X57000000Y-81080000D03*
D12*
X62500000Y-121200000D03*
D13*
X63500000Y-121750000D03*
X64500000Y-121750000D03*
X65500000Y-121750000D03*
X66500000Y-121750000D03*
X67500000Y-121750000D03*
X68500000Y-121750000D03*
X69500000Y-121750000D03*
X70500000Y-121750000D03*
X71500000Y-121750000D03*
X72500000Y-121750000D03*
X75500000Y-121750000D03*
X76500000Y-121750000D03*
X77500000Y-121750000D03*
X78500000Y-121750000D03*
X79500000Y-121750000D03*
X80500000Y-121750000D03*
X81500000Y-121750000D03*
X82500000Y-121750000D03*
X83500000Y-121750000D03*
X84500000Y-121750000D03*
X85500000Y-121750000D03*
X86500000Y-121750000D03*
X87500000Y-121750000D03*
X88500000Y-121750000D03*
X89500000Y-121750000D03*
X90500000Y-121750000D03*
X91500000Y-121750000D03*
X92500000Y-121750000D03*
X93500000Y-121750000D03*
X94500000Y-121750000D03*
X95500000Y-121750000D03*
X96500000Y-121750000D03*
X97500000Y-121750000D03*
X98500000Y-121750000D03*
X99500000Y-121750000D03*
X100500000Y-121750000D03*
X101500000Y-121750000D03*
X102500000Y-121750000D03*
X103500000Y-121750000D03*
X104500000Y-121750000D03*
X105500000Y-121750000D03*
X106500000Y-121750000D03*
X107500000Y-121750000D03*
X108500000Y-121750000D03*
X109500000Y-121750000D03*
X110500000Y-121750000D03*
X111500000Y-121750000D03*
X112500000Y-121750000D03*
D10*
X53750000Y-108470000D03*
D11*
X53750000Y-111010000D03*
D10*
X57475000Y-108475000D03*
D11*
X60015000Y-108475000D03*
X57475000Y-111015000D03*
X60015000Y-111015000D03*
D14*
X85500000Y-116980000D03*
X85500000Y-116020000D03*
D15*
X79000000Y-78000000D03*
X80000000Y-78000000D03*
D14*
X84500000Y-116980000D03*
X84500000Y-116020000D03*
D16*
X111790000Y-75600000D03*
X112810000Y-75600000D03*
D17*
X114180000Y-72300000D03*
X113220000Y-72300000D03*
D14*
X107500000Y-116980000D03*
X107500000Y-116020000D03*
D18*
X59100000Y-99690000D03*
X59100000Y-100710000D03*
D19*
X67700000Y-103625000D03*
X67700000Y-106575000D03*
D14*
X80500000Y-116980000D03*
X80500000Y-116020000D03*
D18*
X68500000Y-55490000D03*
X68500000Y-56510000D03*
D20*
X85850000Y-77100000D03*
X87750000Y-77100000D03*
D21*
X114520000Y-74600000D03*
X115480000Y-74600000D03*
D20*
X75050000Y-73500000D03*
X76950000Y-73500000D03*
D17*
X88480000Y-101500000D03*
X87520000Y-101500000D03*
D22*
X78375000Y-88800000D03*
X75425000Y-88800000D03*
D23*
X85825000Y-89000000D03*
X84175000Y-89000000D03*
D24*
X87000000Y-83020000D03*
X87000000Y-83980000D03*
D15*
X81000000Y-74000000D03*
X82000000Y-74000000D03*
X88000000Y-81000000D03*
X88000000Y-82000000D03*
D14*
X88000000Y-83980000D03*
X88000000Y-83020000D03*
D18*
X62500000Y-55490000D03*
X62500000Y-56510000D03*
D19*
X66800000Y-110825000D03*
X66800000Y-113775000D03*
D24*
X89800000Y-86020000D03*
X89800000Y-86980000D03*
D25*
X98710000Y-66570000D03*
D26*
X100000000Y-66600000D03*
D25*
X101290000Y-66570000D03*
X101290000Y-68430000D03*
D26*
X100000000Y-68430000D03*
D25*
X98710000Y-68430000D03*
D14*
X88500000Y-116980000D03*
X88500000Y-116020000D03*
D19*
X62700000Y-95425000D03*
X62700000Y-98375000D03*
D14*
X110500000Y-116980000D03*
X110500000Y-116020000D03*
D27*
X72900000Y-89275000D03*
X72900000Y-86325000D03*
D24*
X98000000Y-82070000D03*
X98000000Y-83030000D03*
D14*
X106500000Y-116980000D03*
X106500000Y-116020000D03*
D15*
X99292894Y-99707106D03*
X100000000Y-99000000D03*
D19*
X72300000Y-110825000D03*
X72300000Y-113775000D03*
D21*
X108120000Y-73000000D03*
X109080000Y-73000000D03*
D27*
X68000000Y-91875000D03*
X68000000Y-88925000D03*
D28*
X95500000Y-75850000D03*
X95500000Y-73950000D03*
D20*
X76050000Y-96500000D03*
X77950000Y-96500000D03*
D29*
X118000000Y-70850000D03*
X118000000Y-72750000D03*
X77500000Y-92050000D03*
X77500000Y-93950000D03*
D18*
X60500000Y-55490000D03*
X60500000Y-56510000D03*
D30*
X91850000Y-93500000D03*
X89950000Y-93500000D03*
D31*
X65742983Y-101257017D03*
X63657017Y-103342983D03*
D27*
X65600000Y-91875000D03*
X65600000Y-88925000D03*
D14*
X93500000Y-116980000D03*
X93500000Y-116020000D03*
D21*
X109420000Y-74600000D03*
X110380000Y-74600000D03*
D15*
X91500000Y-98500000D03*
X91500000Y-97500000D03*
D14*
X93000000Y-84980000D03*
X93000000Y-84020000D03*
D32*
X51450000Y-89937500D03*
X49550000Y-89937500D03*
X50500000Y-88062500D03*
D15*
X80000000Y-76000000D03*
X81000000Y-76000000D03*
X87000000Y-82000000D03*
X87000000Y-81000000D03*
D33*
X96010000Y-86270000D03*
X94990000Y-86270000D03*
D19*
X63400000Y-109325000D03*
X63400000Y-112275000D03*
D14*
X61300000Y-100680000D03*
X61300000Y-99720000D03*
X103500000Y-116980000D03*
X103500000Y-116020000D03*
D19*
X69800000Y-110825000D03*
X69800000Y-113775000D03*
D18*
X66700000Y-83990000D03*
X66700000Y-85010000D03*
D21*
X95020000Y-91300000D03*
X95980000Y-91300000D03*
D17*
X114480000Y-85500000D03*
X113520000Y-85500000D03*
D21*
X111820000Y-73600000D03*
X112780000Y-73600000D03*
D30*
X81150000Y-80500000D03*
X79250000Y-80500000D03*
D21*
X114220000Y-76200000D03*
X115180000Y-76200000D03*
D34*
X52437500Y-104050000D03*
X52437500Y-105950000D03*
X50562500Y-105000000D03*
D17*
X114480000Y-84500000D03*
X113520000Y-84500000D03*
D14*
X92500000Y-116980000D03*
X92500000Y-116020000D03*
X107800000Y-76280000D03*
X107800000Y-75320000D03*
X89500000Y-116980000D03*
X89500000Y-116020000D03*
D18*
X74500000Y-55490000D03*
X74500000Y-56510000D03*
X48900000Y-103990000D03*
X48900000Y-105010000D03*
D17*
X97980000Y-90300000D03*
X97020000Y-90300000D03*
D20*
X85150000Y-73500000D03*
X87050000Y-73500000D03*
D14*
X87000000Y-90980000D03*
X87000000Y-90020000D03*
X102500000Y-116980000D03*
X102500000Y-116020000D03*
D27*
X79200000Y-86075000D03*
X79200000Y-83125000D03*
D35*
X60200000Y-100710000D03*
X60200000Y-99690000D03*
D17*
X88480000Y-102500000D03*
X87520000Y-102500000D03*
D33*
X68510000Y-94800000D03*
X67490000Y-94800000D03*
D27*
X62230000Y-92915000D03*
X62230000Y-89965000D03*
D18*
X64500000Y-55490000D03*
X64500000Y-56510000D03*
D14*
X89000000Y-82980000D03*
X89000000Y-82020000D03*
D17*
X87980000Y-85900000D03*
X87020000Y-85900000D03*
D14*
X93000000Y-82980000D03*
X93000000Y-82020000D03*
D20*
X86050000Y-96500000D03*
X87950000Y-96500000D03*
D24*
X114200000Y-78920000D03*
X114200000Y-79880000D03*
D14*
X98500000Y-116980000D03*
X98500000Y-116020000D03*
X107800000Y-80380000D03*
X107800000Y-79420000D03*
D25*
X115710000Y-80070000D03*
D26*
X117000000Y-80100000D03*
D25*
X118290000Y-80070000D03*
X118290000Y-81930000D03*
D26*
X117000000Y-81930000D03*
D25*
X115710000Y-81930000D03*
D18*
X66500000Y-55490000D03*
X66500000Y-56510000D03*
D14*
X106800000Y-74580000D03*
X106800000Y-73620000D03*
D15*
X90500000Y-99250000D03*
X90500000Y-100250000D03*
D36*
X90828249Y-80571751D03*
X92171751Y-79228249D03*
D14*
X79500000Y-116980000D03*
X79500000Y-116020000D03*
D17*
X87980000Y-88000000D03*
X87020000Y-88000000D03*
D21*
X93020000Y-89000000D03*
X93980000Y-89000000D03*
D18*
X72500000Y-55490000D03*
X72500000Y-56510000D03*
D17*
X111780000Y-72600000D03*
X110820000Y-72600000D03*
D19*
X72900000Y-91125000D03*
X72900000Y-94075000D03*
D14*
X111500000Y-116980000D03*
X111500000Y-116020000D03*
D37*
X89328249Y-74828249D03*
X90671751Y-76171751D03*
D14*
X99500000Y-116980000D03*
X99500000Y-116020000D03*
D36*
X99228249Y-74671751D03*
X100571751Y-73328249D03*
D18*
X67800000Y-83990000D03*
X67800000Y-85010000D03*
D23*
X85825000Y-92000000D03*
X84175000Y-92000000D03*
D17*
X91980000Y-88100000D03*
X91020000Y-88100000D03*
D18*
X70500000Y-55490000D03*
X70500000Y-56510000D03*
D22*
X58775000Y-88100000D03*
X55825000Y-88100000D03*
D33*
X112810000Y-74600000D03*
X111790000Y-74600000D03*
D38*
X55750000Y-102750000D03*
X57800000Y-93600000D03*
X64500000Y-119100000D03*
X49250000Y-86000000D03*
X58500000Y-93600000D03*
X63500000Y-119100000D03*
X59000000Y-88500000D03*
X57800000Y-88500000D03*
X66200000Y-110900000D03*
X62500000Y-119100000D03*
X57800000Y-86700000D03*
X57800000Y-93100000D03*
X57800000Y-88000000D03*
X58500000Y-93100000D03*
X60500000Y-103800000D03*
X58500000Y-88000000D03*
X54500000Y-106000000D03*
X67800000Y-102700000D03*
X57800000Y-89600000D03*
X67800000Y-103300000D03*
X68400000Y-102700000D03*
X50000000Y-103250000D03*
X58500000Y-88500000D03*
X57800000Y-86000000D03*
X68400000Y-103300000D03*
X67400000Y-110900000D03*
X57800000Y-90400000D03*
X59000000Y-88000000D03*
X91000000Y-96000000D03*
X69500000Y-105300000D03*
X75750000Y-116000000D03*
X65000000Y-87800000D03*
X96300000Y-67700000D03*
X83000000Y-60250000D03*
X70200000Y-106600000D03*
X117500000Y-72500000D03*
X78500000Y-80500000D03*
X72300000Y-97500000D03*
X113000000Y-75800000D03*
X69700000Y-108800000D03*
X100000000Y-98000000D03*
X96700000Y-54900000D03*
X65500000Y-119100000D03*
X95000000Y-57750000D03*
X107800000Y-79400000D03*
X78500000Y-84500000D03*
X96600000Y-69400000D03*
X95300000Y-70800000D03*
X84000000Y-75000000D03*
X84500000Y-100250000D03*
X80000000Y-83000000D03*
X89000000Y-82000000D03*
X100000000Y-90000000D03*
X56800000Y-94400000D03*
X75750000Y-112750000D03*
X93000000Y-66800000D03*
X67500000Y-106500000D03*
X75000000Y-88000000D03*
X86000000Y-91000000D03*
X62100000Y-98700000D03*
X94000000Y-98000000D03*
X96000000Y-81000000D03*
X97000000Y-74000000D03*
X93000000Y-69400000D03*
X66000000Y-107000000D03*
X77000000Y-94000000D03*
X88000000Y-77000000D03*
X88000000Y-87000000D03*
X84800000Y-54800000D03*
X79000000Y-80000000D03*
X95000000Y-61100000D03*
X56000000Y-88500000D03*
X81500000Y-119100000D03*
X100000000Y-86000000D03*
X69600000Y-106600000D03*
X73400000Y-86100000D03*
X114500000Y-81750000D03*
X75000000Y-78000000D03*
X112250000Y-83250000D03*
X68500000Y-119100000D03*
X91000000Y-82000000D03*
X72750000Y-113500000D03*
X109400000Y-76200000D03*
X105000000Y-119100000D03*
X113750000Y-83250000D03*
X76300000Y-101500000D03*
X91000000Y-84000000D03*
X101250000Y-67500000D03*
X118500000Y-72500000D03*
X87000000Y-98750000D03*
X76800000Y-105800000D03*
X111000000Y-74600000D03*
X117500000Y-73000000D03*
X94000000Y-95000000D03*
X83000000Y-63500000D03*
X54500001Y-99299999D03*
X98000000Y-93000000D03*
X62800000Y-89700000D03*
X76000000Y-81000000D03*
X114200000Y-80200000D03*
X101750000Y-83250000D03*
X119000000Y-83250000D03*
X75750000Y-106750000D03*
X64000000Y-112000000D03*
X83000000Y-92000000D03*
X83000000Y-119100000D03*
X74200000Y-93200000D03*
X73700000Y-101600000D03*
X75000000Y-98000000D03*
X91000000Y-76000000D03*
X77000000Y-119100000D03*
X65600000Y-90700000D03*
X111500000Y-83250000D03*
X78000000Y-87000000D03*
X100000000Y-96000000D03*
X79000000Y-90000000D03*
X93000000Y-70800000D03*
X73600000Y-104200000D03*
X81000000Y-86000000D03*
X89000000Y-71900000D03*
X100000000Y-73000000D03*
X55500000Y-88500000D03*
X84800000Y-65400000D03*
X97000000Y-91000000D03*
X89000000Y-98750000D03*
X118250000Y-81000000D03*
X78100000Y-100400000D03*
X73700000Y-99000000D03*
X62800000Y-90200000D03*
X85000000Y-119100000D03*
X94000000Y-87000000D03*
X70200000Y-105500000D03*
X115250000Y-83250000D03*
X55500000Y-88000000D03*
X96000000Y-96000000D03*
X63100000Y-103200000D03*
X87000000Y-82000000D03*
X113000000Y-83250000D03*
X92000000Y-87000000D03*
X85000000Y-88000000D03*
X56800000Y-88000000D03*
X73400000Y-86600000D03*
X113800000Y-74200000D03*
X68500000Y-101700000D03*
X92000000Y-89000000D03*
X80500000Y-101500000D03*
X99000000Y-119100000D03*
X57600000Y-101700000D03*
X99000000Y-94000000D03*
X88000000Y-89000000D03*
X87000000Y-88000000D03*
X109250000Y-83250000D03*
X78800000Y-103700000D03*
X75750000Y-114500000D03*
X65900000Y-87800000D03*
X56000000Y-94400000D03*
X49250000Y-77250000D03*
X59100000Y-106000000D03*
X72000000Y-105000000D03*
X92000000Y-100250000D03*
X94500000Y-78500000D03*
X75750000Y-117500000D03*
X63200000Y-98100000D03*
X86000000Y-81000000D03*
X100000000Y-83000000D03*
X75500000Y-57000000D03*
X87000000Y-119100000D03*
X75750000Y-111250000D03*
X74300000Y-89900000D03*
X92000000Y-79000000D03*
X84000000Y-95000000D03*
X104000000Y-83250000D03*
X83500000Y-88500000D03*
X62800000Y-112000000D03*
X56000000Y-88000000D03*
X83000000Y-82000000D03*
X63200000Y-98700000D03*
X114900000Y-79500000D03*
X73600000Y-105500000D03*
X99000000Y-84000000D03*
X70250000Y-99250000D03*
X71500000Y-105600000D03*
X77000000Y-74000000D03*
X90000000Y-83000000D03*
X78200000Y-102700000D03*
X89000000Y-119100000D03*
X83000000Y-100250000D03*
X108500000Y-83250000D03*
X101000000Y-119100000D03*
X96000000Y-70100000D03*
X103000000Y-119100000D03*
X72900000Y-93800000D03*
X89000000Y-80000000D03*
X83000000Y-56700000D03*
X77000000Y-84000000D03*
X86000000Y-83000000D03*
X87000000Y-74000000D03*
X87000000Y-84000000D03*
X86000000Y-87000000D03*
X96000000Y-94000000D03*
X102500000Y-83250000D03*
X69200000Y-104800000D03*
X51250000Y-102750000D03*
X107750000Y-83250000D03*
X48500000Y-90000000D03*
X97000000Y-97000000D03*
X83000000Y-57750000D03*
X54200000Y-96000000D03*
X106250000Y-83250000D03*
X88000000Y-97000000D03*
X82000000Y-79000000D03*
X98000000Y-77000000D03*
X72000000Y-105600000D03*
X95000000Y-72100000D03*
X51000000Y-110500000D03*
X86000000Y-85000000D03*
X80000000Y-73000000D03*
X97000000Y-93000000D03*
X78000000Y-119100000D03*
X66000000Y-105000000D03*
X111000000Y-119100000D03*
X56800000Y-86700000D03*
X94000000Y-96000000D03*
X56800000Y-90400000D03*
X75750000Y-108250000D03*
X54450000Y-96850000D03*
X77800000Y-103100000D03*
X97000000Y-83000000D03*
X89000000Y-88000000D03*
X75750000Y-109750000D03*
X99000000Y-90000000D03*
X93600000Y-64100000D03*
X85000000Y-98000000D03*
X67400000Y-113400000D03*
X114500000Y-81000000D03*
X64000000Y-112600000D03*
X90500000Y-89500000D03*
X81000000Y-96000000D03*
X84000000Y-85000000D03*
X56800000Y-88500000D03*
X73600000Y-102800000D03*
X97000000Y-87000000D03*
X72400000Y-86100000D03*
X94000000Y-86000000D03*
X74300000Y-80800000D03*
X96000000Y-88000000D03*
X92000000Y-83000000D03*
X93000000Y-92000000D03*
X77000000Y-99000000D03*
X56800000Y-93900000D03*
X61600000Y-89700000D03*
X95000000Y-56600000D03*
X70250000Y-113500000D03*
X71800000Y-108800000D03*
X97000000Y-89000000D03*
X114500000Y-83250000D03*
X94000000Y-91000000D03*
X65500000Y-107000000D03*
X74400000Y-84200000D03*
X95500000Y-85500000D03*
X70000000Y-105000000D03*
X75100000Y-101800000D03*
X98000000Y-89000000D03*
X73400000Y-84900000D03*
X75000000Y-99000000D03*
X81000000Y-98750000D03*
X99000000Y-98000000D03*
X81500000Y-100500000D03*
X95500000Y-74500000D03*
X103250000Y-83250000D03*
X83000000Y-98750000D03*
X109000000Y-119100000D03*
X67800000Y-108700000D03*
X97000000Y-95000000D03*
X107000000Y-83250000D03*
X75300000Y-102900000D03*
X82000000Y-89000000D03*
X115200000Y-78800000D03*
X68500000Y-104700000D03*
X110000000Y-83250000D03*
X56800000Y-86000000D03*
X64100000Y-103400000D03*
X93000000Y-82000000D03*
X91000000Y-119100000D03*
X88000000Y-85000000D03*
X93250000Y-99750000D03*
X93000000Y-119100000D03*
X63900000Y-103900000D03*
X94000000Y-97000000D03*
X93500000Y-98750000D03*
X74400000Y-82500000D03*
X98000000Y-85000000D03*
X114500000Y-82500000D03*
X67400000Y-87000000D03*
X62100000Y-98100000D03*
X95500000Y-119100000D03*
X67300000Y-104700000D03*
X100000000Y-84000000D03*
X101000000Y-83000000D03*
X65750000Y-109250000D03*
X65500000Y-105000000D03*
X99000000Y-80000000D03*
X77700000Y-104700000D03*
X94000000Y-75000000D03*
X90000000Y-73000000D03*
X93300000Y-54900000D03*
X67500000Y-105500000D03*
X114900000Y-80300000D03*
X107000000Y-119100000D03*
X95000000Y-60250000D03*
X97000000Y-85000000D03*
X71800000Y-109300000D03*
X74400000Y-94500000D03*
X65200000Y-87000000D03*
X77500000Y-77500000D03*
X105500000Y-83250000D03*
X100000000Y-92000000D03*
X109400000Y-73000000D03*
X56800000Y-89600000D03*
X77642982Y-102557019D03*
X79500000Y-102500000D03*
X91000000Y-86000000D03*
X86300000Y-66900000D03*
X90500000Y-100250000D03*
X98000000Y-83000000D03*
X65750000Y-108750000D03*
X87000000Y-86000000D03*
X95000000Y-62700000D03*
X69000000Y-105800000D03*
X96000000Y-98000000D03*
X100000000Y-88000000D03*
X56000000Y-93900000D03*
X54300000Y-88300000D03*
X115800000Y-74600000D03*
X63500000Y-102000000D03*
X88000000Y-83000000D03*
X108600000Y-73800000D03*
X81700000Y-54800000D03*
X55600000Y-103800000D03*
X67800000Y-109200000D03*
X86000000Y-100250000D03*
X99000000Y-86000000D03*
X92000000Y-85000000D03*
X115200000Y-76200000D03*
X94000000Y-94000000D03*
X114200000Y-77800000D03*
X78000000Y-97000000D03*
X61600000Y-90200000D03*
X68000000Y-105100000D03*
X69100000Y-102700000D03*
X80000000Y-93000000D03*
X68400000Y-87800000D03*
X89000000Y-70000000D03*
X80000000Y-119100000D03*
X79000000Y-98750000D03*
X97000000Y-119100000D03*
X74500000Y-91500000D03*
X69250000Y-113500000D03*
X68200000Y-87000000D03*
X110750000Y-83250000D03*
X118500000Y-73000000D03*
X71500000Y-105000000D03*
X83000000Y-61300000D03*
X68100000Y-106500000D03*
X66200000Y-113400000D03*
X95000000Y-98000000D03*
X87500000Y-77500000D03*
X89000000Y-100250000D03*
X63500000Y-102800000D03*
X87000000Y-94000000D03*
X90000000Y-93000000D03*
X96000000Y-84000000D03*
X85000000Y-78000000D03*
X75500000Y-119100000D03*
X68600000Y-105300000D03*
X94500000Y-119100000D03*
X96000000Y-92000000D03*
X72400000Y-86600000D03*
X87500000Y-100250000D03*
X76000000Y-91000000D03*
X78000000Y-77000000D03*
X66100000Y-87000000D03*
X94000000Y-93000000D03*
X78500000Y-93400000D03*
X93000000Y-65400000D03*
X72250000Y-99000000D03*
X81000000Y-76000000D03*
X116000000Y-83250000D03*
X87800000Y-68400000D03*
X71750000Y-113500000D03*
X104750000Y-83250000D03*
X96000000Y-90000000D03*
X74300000Y-78500000D03*
X112600000Y-73000000D03*
X52500000Y-105300000D03*
X67500000Y-87800000D03*
X94000000Y-89000000D03*
X89000000Y-90000000D03*
X69700000Y-109300000D03*
X100000000Y-94000000D03*
X62800000Y-112600000D03*
X108600000Y-75400000D03*
X91000000Y-88000000D03*
X112500000Y-119100000D03*
X93000000Y-84000000D03*
X95000000Y-95000000D03*
X96000000Y-95000000D03*
X88000000Y-86000000D03*
X66400000Y-93800000D03*
X61200000Y-92000000D03*
X66400000Y-93100000D03*
X61600000Y-94600000D03*
X87000000Y-83000000D03*
X89000000Y-83000000D03*
X73400000Y-91500000D03*
X73500000Y-89000000D03*
X87000000Y-87000000D03*
X72300000Y-89500000D03*
X65200000Y-93100000D03*
X62800000Y-91500000D03*
X62700000Y-93200000D03*
X91000000Y-89000000D03*
X92000000Y-88000000D03*
X67400000Y-93100000D03*
X62900000Y-95700000D03*
X65400000Y-93800000D03*
X62100000Y-91900000D03*
X62000000Y-96900000D03*
X86000000Y-86000000D03*
X62700000Y-96900000D03*
X62700000Y-92700000D03*
X87000000Y-89000000D03*
X73500000Y-89500000D03*
X62100000Y-95100000D03*
X61600000Y-94000000D03*
X93000000Y-89000000D03*
X62900000Y-95100000D03*
X92000000Y-86000000D03*
X86000000Y-88000000D03*
X61400000Y-96300000D03*
X88000000Y-88000000D03*
X79500000Y-86500000D03*
X86000000Y-82000000D03*
X68500000Y-93100000D03*
X86000000Y-84000000D03*
X88000000Y-82000000D03*
X87000000Y-85000000D03*
X62100000Y-95700000D03*
X72300000Y-89000000D03*
X78500000Y-89500000D03*
X93000000Y-87000000D03*
X62300000Y-94200000D03*
X68400000Y-93800000D03*
X88000000Y-84000000D03*
X61700000Y-92700000D03*
X67400000Y-93800000D03*
X89000000Y-89000000D03*
X61400000Y-97500000D03*
X92000000Y-90000000D03*
X61700000Y-93200000D03*
X82500000Y-76500000D03*
X79500000Y-96500000D03*
X90500000Y-82500000D03*
X86500000Y-78500000D03*
X114200000Y-72300000D03*
X84500000Y-75500000D03*
X96500000Y-76500000D03*
X82500000Y-95500000D03*
X115750000Y-81000000D03*
X81500000Y-96500000D03*
X85500000Y-75500000D03*
X94500000Y-85500000D03*
X85000000Y-73000000D03*
X71100000Y-109300000D03*
X71100000Y-108800000D03*
X92000000Y-84000000D03*
X70400000Y-109300000D03*
X91000000Y-87000000D03*
X91000000Y-81000000D03*
X82500000Y-96500000D03*
X70400000Y-108800000D03*
X91000000Y-83000000D03*
X114200000Y-78600000D03*
X90500000Y-83500000D03*
X107800000Y-73000000D03*
X90500000Y-84500000D03*
X107800000Y-81000000D03*
X73800000Y-108500000D03*
X118500000Y-70600000D03*
X81500000Y-94500000D03*
X90000000Y-82000000D03*
X81500000Y-95500000D03*
X73100000Y-109100000D03*
X84500000Y-77500000D03*
X69250000Y-110750000D03*
X82500000Y-77500000D03*
X86000000Y-76000000D03*
X117500000Y-71100000D03*
X90500000Y-86500000D03*
X114200000Y-76200000D03*
X80600000Y-96500000D03*
X95500000Y-75500000D03*
X80600000Y-94500000D03*
X70250000Y-110750000D03*
X82500000Y-75500000D03*
X85500000Y-76500000D03*
X83500000Y-94500000D03*
X114200000Y-74600000D03*
X79500000Y-94500000D03*
X95000000Y-73000000D03*
X90500000Y-85500000D03*
X112600000Y-74600000D03*
X100000000Y-78000000D03*
X79500000Y-95500000D03*
X99000000Y-75000000D03*
X73000000Y-108300000D03*
X80500000Y-95500000D03*
X82500000Y-94500000D03*
X107800000Y-74600000D03*
X92000000Y-74000000D03*
X98000000Y-82000000D03*
X83000000Y-77000000D03*
X83500000Y-95500000D03*
X84000000Y-80000000D03*
X83500000Y-76500000D03*
X83500000Y-77500000D03*
X84500000Y-76500000D03*
X93000000Y-85000000D03*
X89000000Y-75000000D03*
X109400000Y-74600000D03*
X72750000Y-110750000D03*
X98750000Y-67500000D03*
X91000000Y-85000000D03*
X107800000Y-76200000D03*
X93000000Y-77000000D03*
X82000000Y-74000000D03*
X90000000Y-88000000D03*
X71750000Y-110750000D03*
X94500000Y-76500000D03*
X83500000Y-75500000D03*
X117500000Y-70600000D03*
X97000000Y-79000000D03*
X110100000Y-72900000D03*
X118500000Y-71100000D03*
X85500000Y-77500000D03*
X83500000Y-96500000D03*
X90000000Y-78000000D03*
X93000000Y-83000000D03*
X94000000Y-80000000D03*
X83500000Y-93500000D03*
X100000000Y-85000000D03*
X99000000Y-85000000D03*
X100000000Y-87000000D03*
X99000000Y-87000000D03*
X100000000Y-89000000D03*
X99000000Y-89000000D03*
X100000000Y-91000000D03*
X99000000Y-91000000D03*
X100000000Y-93000000D03*
X99000000Y-93000000D03*
X100000000Y-95000000D03*
X99000000Y-95000000D03*
X100000000Y-97000000D03*
X99000000Y-97000000D03*
X98000000Y-98000000D03*
X97000000Y-98000000D03*
X71000000Y-118750000D03*
X113000000Y-114000000D03*
X64000000Y-115000000D03*
X113400000Y-81000000D03*
X96000000Y-82000000D03*
X85000000Y-93000000D03*
X66500000Y-108750000D03*
X94000000Y-88000000D03*
X92000000Y-94000000D03*
X79500000Y-62000000D03*
X89000000Y-95000000D03*
X79000000Y-95000000D03*
X83000000Y-97000000D03*
X66000000Y-98800000D03*
X78000000Y-92000000D03*
X81000000Y-91000000D03*
X76000000Y-86000000D03*
X67200000Y-99400000D03*
X77000000Y-79000000D03*
X80000000Y-98000000D03*
X62800000Y-109600000D03*
X79000000Y-75000000D03*
X62800000Y-109000000D03*
X76000000Y-76000000D03*
X65700000Y-99400000D03*
X66300000Y-99400000D03*
X88000000Y-92000000D03*
X75000000Y-73000000D03*
X75000000Y-93000000D03*
X90000000Y-98000000D03*
X82000000Y-84000000D03*
X79000000Y-85000000D03*
X69400000Y-94400000D03*
X66700000Y-98900000D03*
X78000000Y-82000000D03*
X65500000Y-98400000D03*
X77000000Y-89000000D03*
X83000000Y-87000000D03*
X82000000Y-94000000D03*
X70500000Y-83000000D03*
X80000000Y-88000000D03*
X80000000Y-78000000D03*
X63500000Y-109000000D03*
X60000000Y-81250000D03*
X92500000Y-92500000D03*
X75000000Y-83000000D03*
X84000000Y-90000000D03*
X76000000Y-96000000D03*
X81000000Y-81000000D03*
X70500000Y-96500000D03*
X67800000Y-83200000D03*
X60000000Y-73750000D03*
X63500000Y-109600000D03*
X71300000Y-93000000D03*
X93500000Y-92500000D03*
X92500000Y-90500000D03*
X85000000Y-83000000D03*
X93000000Y-97000000D03*
X95000000Y-83000000D03*
X65200000Y-98900000D03*
X67100000Y-109200000D03*
X67100000Y-108700000D03*
X66300000Y-98300000D03*
X66500000Y-109250000D03*
X86000000Y-96000000D03*
X94000000Y-85000000D03*
X89000000Y-86000000D03*
X89000000Y-87000000D03*
X114200000Y-77000000D03*
X97000000Y-77000000D03*
X111000000Y-77400000D03*
X100000000Y-82000000D03*
X98000000Y-79000000D03*
X110000000Y-80200000D03*
X112000000Y-80200000D03*
X100000000Y-81000000D03*
X108600000Y-81000000D03*
X98000000Y-81000000D03*
X95000000Y-81000000D03*
X112600000Y-79400000D03*
X100000000Y-76000000D03*
X109400000Y-77800000D03*
X96500000Y-78500000D03*
X113400000Y-78600000D03*
X113400000Y-80200000D03*
X99000000Y-81000000D03*
X113400000Y-79400000D03*
X97000000Y-81000000D03*
X109400000Y-79400000D03*
X98000000Y-78000000D03*
X112600000Y-77800000D03*
X97000000Y-78000000D03*
X100000000Y-80000000D03*
X108600000Y-80200000D03*
X96000000Y-80000000D03*
X113400000Y-77000000D03*
X113400000Y-76200000D03*
X95000000Y-80000000D03*
X99000000Y-76000000D03*
X110000000Y-78600000D03*
X112000000Y-78600000D03*
X97500000Y-79500000D03*
X93000000Y-88000000D03*
X91500000Y-81500000D03*
X95900000Y-66500000D03*
X92500000Y-81500000D03*
X93000000Y-86000000D03*
X94000000Y-84000000D03*
X93500000Y-81500000D03*
X95000000Y-84000000D03*
X94500000Y-81500000D03*
X95000000Y-87000000D03*
X99000000Y-92000000D03*
X100000000Y-99000000D03*
X98000000Y-87000000D03*
X75900000Y-105300000D03*
X71700000Y-102700000D03*
X98000000Y-97000000D03*
X71700000Y-103300000D03*
X99000000Y-96000000D03*
X72000000Y-104300000D03*
X99000000Y-99000000D03*
X99500000Y-98600000D03*
X98000000Y-95000000D03*
X96000000Y-87000000D03*
X75900000Y-104500000D03*
X76300000Y-104900000D03*
X71500000Y-104300000D03*
X98000000Y-91000000D03*
X99000000Y-88000000D03*
X67500000Y-95500000D03*
X76000000Y-98000000D03*
X70300000Y-93100000D03*
X97000000Y-76000000D03*
X98000000Y-76000000D03*
X79000000Y-97000000D03*
X66750000Y-87750000D03*
X69800000Y-93400000D03*
X94500000Y-94500000D03*
X65100000Y-101000000D03*
X95000000Y-90000000D03*
X66000000Y-104300000D03*
X95000000Y-94000000D03*
X95000000Y-92000000D03*
X95500000Y-92500000D03*
X95500000Y-93500000D03*
X65500000Y-104300000D03*
X95500000Y-90500000D03*
X65700000Y-100800000D03*
X65900000Y-101800000D03*
X66100000Y-101300000D03*
X95000000Y-88000000D03*
X91500000Y-97500000D03*
X65800000Y-102700000D03*
X95000000Y-96000000D03*
X65800000Y-103300000D03*
X69250000Y-87250000D03*
X95000000Y-89000000D03*
X112000000Y-85276600D03*
X96000000Y-89000000D03*
X112000000Y-84723400D03*
X64500000Y-79500000D03*
X70500000Y-88000000D03*
X71100000Y-88000000D03*
X63500000Y-75500000D03*
X54600000Y-105300000D03*
X50000000Y-95000000D03*
X50000000Y-94000000D03*
X51000000Y-96000000D03*
X49000000Y-98000000D03*
X49000000Y-93000000D03*
X49000000Y-94000000D03*
X49000000Y-96000000D03*
X49000000Y-95000000D03*
X50000000Y-93000000D03*
X49000000Y-97000000D03*
X50000000Y-97000000D03*
X49000000Y-92000000D03*
X50000000Y-96000000D03*
X51000000Y-95000000D03*
X51000000Y-94000000D03*
X87500000Y-80500000D03*
X72900000Y-79600000D03*
X57700000Y-100400000D03*
X86500000Y-80500000D03*
X72900000Y-80200000D03*
X58300000Y-99600000D03*
X75500000Y-83500000D03*
X73500000Y-106750000D03*
X77500000Y-83500000D03*
X64500000Y-107750000D03*
X76500000Y-83500000D03*
X73750000Y-107500000D03*
X66500000Y-102700000D03*
X91500000Y-98500000D03*
X71000000Y-102700000D03*
X99300000Y-99700000D03*
X90500000Y-99250000D03*
X67100000Y-101900000D03*
X108600000Y-76200000D03*
X48900000Y-100700000D03*
X60500000Y-51000000D03*
X62500000Y-51000000D03*
X64500000Y-51000000D03*
X66500000Y-51000000D03*
X68500000Y-51000000D03*
X70500000Y-51000000D03*
X72500000Y-51000000D03*
X74500000Y-51000000D03*
X51000000Y-77250000D03*
X64000000Y-116750000D03*
X61200000Y-98500000D03*
X60800000Y-95000000D03*
D39*
X92107300Y-101692700D02*
X92107300Y-101572754D01*
X92376546Y-101572754D02*
G75*
G03*
X92241900Y-101438154I-134646J-46D01*
G01*
X94500015Y-98441263D02*
G75*
G03*
X94663650Y-98836350I558685J-37D01*
G01*
X92241900Y-101438200D02*
G75*
G03*
X92107300Y-101572754I0J-134600D01*
G01*
X92511100Y-101827300D02*
X92561100Y-101827300D01*
X94252878Y-101252878D02*
G75*
G02*
X92866114Y-101827300I-1386778J1386778D01*
G01*
X92561100Y-101827300D02*
X92866114Y-101827300D01*
X92511100Y-101827300D02*
G75*
G02*
X92376500Y-101692700I0J134600D01*
G01*
X88480000Y-101500000D02*
X88643650Y-101663650D01*
X94749984Y-95249984D02*
G75*
G03*
X94500000Y-95853553I603516J-603516D01*
G01*
X92107300Y-101692700D02*
G75*
G02*
X91972700Y-101827300I-134600J0D01*
G01*
X94500000Y-98441263D02*
X94500000Y-95853553D01*
X89038736Y-101827300D02*
X91972700Y-101827300D01*
X94663661Y-98836339D02*
G75*
G02*
X94827300Y-99231436I-395061J-395061D01*
G01*
X94827305Y-99866114D02*
G75*
G02*
X94252881Y-101252881I-1961205J14D01*
G01*
X89038736Y-101827285D02*
G75*
G02*
X88643650Y-101663650I-36J558685D01*
G01*
X92376500Y-101572754D02*
X92376500Y-101692700D01*
X94827300Y-99866114D02*
X94827300Y-99231436D01*
X94750000Y-95250000D02*
X95000000Y-95000000D01*
X78766492Y-105477742D02*
X80477743Y-103766492D01*
X77172700Y-117966262D02*
X77172700Y-109325499D01*
X77500000Y-121750000D02*
X77500000Y-118756435D01*
X85415700Y-102172700D02*
G75*
G03*
X85281100Y-102307300I0J-134600D01*
G01*
X85146500Y-102574400D02*
G75*
G02*
X85011900Y-102439782I0J134600D01*
G01*
X87356350Y-102336350D02*
X87520000Y-102500000D01*
X85011900Y-102307300D02*
G75*
G03*
X84877300Y-102172700I-134600J0D01*
G01*
X85281082Y-102439782D02*
G75*
G02*
X85146500Y-102574382I-134582J-18D01*
G01*
X84325499Y-102172685D02*
G75*
G03*
X80477743Y-103766492I1J-5441515D01*
G01*
X84325499Y-102172700D02*
X84877300Y-102172700D01*
X78766483Y-105477733D02*
G75*
G03*
X77172700Y-109325499I3847817J-3847767D01*
G01*
X77172716Y-117966262D02*
G75*
G03*
X77336350Y-118361349I558684J-38D01*
G01*
X87356361Y-102336339D02*
G75*
G03*
X86961263Y-102172700I-395061J-395061D01*
G01*
X77336360Y-118361339D02*
G75*
G02*
X77500000Y-118756435I-395060J-395061D01*
G01*
X85011900Y-102307300D02*
X85011900Y-102439782D01*
X85281100Y-102439782D02*
X85281100Y-102307300D01*
X85415700Y-102172700D02*
X86004100Y-102172700D01*
X86004100Y-102172700D02*
X86961263Y-102172700D01*
X115873517Y-84574817D02*
G75*
G02*
X116008100Y-84440217I134583J17D01*
G01*
X116142700Y-84692700D02*
X116142700Y-84574817D01*
X116543913Y-84827300D02*
X116277300Y-84827300D01*
X116008100Y-84440200D02*
G75*
G02*
X116142700Y-84574817I0J-134600D01*
G01*
X117236160Y-82953641D02*
G75*
G02*
X117000000Y-82383534I570140J570141D01*
G01*
X116142700Y-84692700D02*
G75*
G03*
X116277300Y-84827300I134600J0D01*
G01*
X116543913Y-84827305D02*
G75*
G03*
X117200381Y-84555381I-13J928405D01*
G01*
X117472300Y-83523767D02*
X117472300Y-83898913D01*
X114643639Y-84663661D02*
G75*
G03*
X115038736Y-84827300I395061J395061D01*
G01*
X115738900Y-84827300D02*
G75*
G03*
X115873500Y-84692700I0J134600D01*
G01*
X117200378Y-84555378D02*
G75*
G03*
X117472300Y-83898913I-656478J656478D01*
G01*
X115873500Y-84574817D02*
X115873500Y-84692700D01*
X117472313Y-83523767D02*
G75*
G03*
X117236150Y-82953651I-806313J-33D01*
G01*
X117000000Y-81930000D02*
X117000000Y-82383534D01*
X115738900Y-84827300D02*
X115150500Y-84827300D01*
X115150500Y-84827300D02*
X115038736Y-84827300D01*
X114643650Y-84663650D02*
X114480000Y-84500000D01*
D40*
X85203198Y-110572793D02*
G75*
G02*
X86043685Y-108543684I2869602J-7D01*
G01*
X91630206Y-107703189D02*
G75*
G03*
X95477962Y-106109407I-6J5441589D01*
G01*
X85203201Y-110572793D02*
X85203201Y-115513332D01*
X100926756Y-100660704D02*
G75*
G02*
X101160199Y-100660659I116744J-116696D01*
G01*
X101175191Y-100675651D02*
G75*
G03*
X101408677Y-100675651I116743J116741D01*
G01*
X102203183Y-98191938D02*
G75*
G03*
X101831184Y-97293816I-1270083J38D01*
G01*
X100871480Y-96921807D02*
G75*
G02*
X100664101Y-96835899I20J293307D01*
G01*
X101393713Y-100427144D02*
G75*
G02*
X101393685Y-100193684I116687J116744D01*
G01*
X86043687Y-108543686D02*
G75*
G02*
X88072794Y-107703200I2029113J-2029114D01*
G01*
X85351610Y-115871590D02*
G75*
G02*
X85203201Y-115513332I358290J358290D01*
G01*
X100414100Y-96750000D02*
X100456719Y-96750000D01*
X101408676Y-100675652D02*
X101408677Y-100675651D01*
X101408667Y-100675643D02*
G75*
G03*
X101408676Y-100442166I-116767J116743D01*
G01*
X102203200Y-98191938D02*
X102203200Y-98525000D01*
X101709897Y-97172531D02*
G75*
G03*
X101104585Y-96921800I-605297J-605269D01*
G01*
X101595671Y-99991690D02*
G75*
G03*
X102203200Y-98525000I-1466671J1466690D01*
G01*
X100926712Y-100660660D02*
X100926713Y-100660659D01*
X100664094Y-96835906D02*
G75*
G03*
X100456719Y-96750000I-207394J-207394D01*
G01*
X101393685Y-100427172D02*
X101393684Y-100427172D01*
X100414100Y-96750008D02*
G75*
G03*
X100133963Y-96866036I0J-396192D01*
G01*
X85351600Y-115871600D02*
X85500000Y-116020000D01*
X100000000Y-97000000D02*
X100133963Y-96866036D01*
X100871480Y-96921800D02*
X101104585Y-96921800D01*
X101709899Y-97172529D02*
X101831185Y-97293815D01*
X101595675Y-99991694D02*
X101393685Y-100193684D01*
X101393684Y-100427172D02*
X101408677Y-100442165D01*
X101175191Y-100675651D02*
X101160199Y-100660659D01*
X100926713Y-100660659D02*
X95477962Y-106109407D01*
X91630206Y-107703200D02*
X88072794Y-107703200D01*
X102585657Y-95898287D02*
X102585656Y-95898286D01*
X103703200Y-98496532D02*
X103703200Y-98900000D01*
X102352143Y-95431285D02*
G75*
G02*
X102118686Y-95431314I-116743J116685D01*
G01*
X102352171Y-95431315D02*
X102367190Y-95416297D01*
X92334170Y-109903200D02*
X90707109Y-109903200D01*
X102352172Y-95431314D02*
X102352171Y-95431315D01*
X101912932Y-95225562D02*
X102118685Y-95431315D01*
X100414100Y-94750000D02*
X100456719Y-94750000D01*
X102600676Y-95649783D02*
X102585656Y-95664800D01*
X100000000Y-95000000D02*
X100133963Y-94866036D01*
X89203201Y-111407108D02*
X89203201Y-115513332D01*
X102585701Y-95898243D02*
G75*
G02*
X102585657Y-95664801I116699J116743D01*
G01*
X100871480Y-94921800D02*
X101179585Y-94921800D01*
X100414100Y-94750008D02*
G75*
G03*
X100133963Y-94866036I0J-396192D01*
G01*
X100664094Y-94835906D02*
G75*
G03*
X100456719Y-94750000I-207394J-207394D01*
G01*
X102370890Y-102116479D02*
X96175160Y-108312209D01*
X102370893Y-102116482D02*
G75*
G03*
X103703200Y-98900000I-3216493J3216482D01*
G01*
X102600643Y-95416332D02*
G75*
G03*
X102367191Y-95416298I-116743J-116668D01*
G01*
X102600675Y-95649784D02*
X102600676Y-95649783D01*
X102600677Y-95416298D02*
X102600676Y-95416297D01*
X100871480Y-94921807D02*
G75*
G02*
X100664101Y-94835899I20J293307D01*
G01*
X89351610Y-115871590D02*
G75*
G02*
X89203201Y-115513332I358290J358290D01*
G01*
X101912937Y-95225557D02*
G75*
G03*
X101179585Y-94921800I-733337J-733343D01*
G01*
X102585656Y-95898286D02*
X102656185Y-95968815D01*
X102600635Y-95649744D02*
G75*
G03*
X102600676Y-95416297I-116735J116744D01*
G01*
X92334170Y-109903172D02*
G75*
G03*
X96175160Y-108312209I30J5431972D01*
G01*
X103703186Y-98496532D02*
G75*
G03*
X102656185Y-95968815I-3574686J32D01*
G01*
X89643683Y-110343682D02*
G75*
G02*
X90707109Y-109903200I1063417J-1063418D01*
G01*
X89203204Y-111407108D02*
G75*
G02*
X89643685Y-110343684I1503896J8D01*
G01*
X89351600Y-115871600D02*
X89500000Y-116020000D01*
X93203181Y-114703685D02*
G75*
G02*
X93924107Y-112963262I2461319J-15D01*
G01*
X100000000Y-93000000D02*
X100133963Y-92866036D01*
X103709415Y-103177970D02*
G75*
G03*
X105303200Y-99330206I-3847815J3847770D01*
G01*
X100664094Y-92835906D02*
G75*
G03*
X100456719Y-92750000I-207394J-207394D01*
G01*
X93351610Y-115871590D02*
G75*
G02*
X93203201Y-115513332I358290J358290D01*
G01*
X103177171Y-93556315D02*
X103195138Y-93538349D01*
X103410701Y-94023243D02*
G75*
G02*
X103410657Y-93789801I116699J116743D01*
G01*
X103428630Y-93771843D02*
G75*
G03*
X103428623Y-93538350I-116730J116743D01*
G01*
X103709407Y-103177962D02*
X93924107Y-112963262D01*
X105303188Y-98032928D02*
G75*
G03*
X103806185Y-94418815I-5111088J28D01*
G01*
X102860419Y-93473049D02*
X102943685Y-93556315D01*
X103428623Y-93771836D02*
X103428624Y-93771835D01*
X103428644Y-93538331D02*
G75*
G03*
X103195138Y-93538349I-116744J-116769D01*
G01*
X103177143Y-93556285D02*
G75*
G02*
X102943686Y-93556314I-116743J116685D01*
G01*
X102860430Y-93473038D02*
G75*
G03*
X101529585Y-92921800I-1330830J-1330862D01*
G01*
X100871480Y-92921807D02*
G75*
G02*
X100664101Y-92835899I20J293307D01*
G01*
X100414100Y-92750008D02*
G75*
G03*
X100133963Y-92866036I0J-396192D01*
G01*
X103410656Y-94023286D02*
X103806185Y-94418815D01*
X93203201Y-114703685D02*
X93203201Y-115513332D01*
X100414100Y-92750000D02*
X100456719Y-92750000D01*
X103428625Y-93538350D02*
X103428624Y-93538349D01*
X100871480Y-92921800D02*
X101529585Y-92921800D01*
X103177172Y-93556314D02*
X103177171Y-93556315D01*
X103428624Y-93771835D02*
X103410656Y-93789800D01*
X103410657Y-94023287D02*
X103410656Y-94023286D01*
X105303200Y-98032928D02*
X105303200Y-99330206D01*
X93351600Y-115871600D02*
X93500000Y-116020000D01*
X99203209Y-112738132D02*
G75*
G02*
X100796993Y-108890376I5441491J32D01*
G01*
X105110702Y-92823242D02*
G75*
G02*
X105110659Y-92589802I116698J116742D01*
G01*
X100871480Y-90921807D02*
G75*
G02*
X100664101Y-90835899I20J293307D01*
G01*
X105709415Y-103977970D02*
G75*
G03*
X107303200Y-100130206I-3847815J3847770D01*
G01*
X107303189Y-97269793D02*
G75*
G03*
X105709406Y-93422038I-5441589J-7D01*
G01*
X104078617Y-91791247D02*
X104643685Y-92356315D01*
X99203201Y-112738132D02*
X99203201Y-115513332D01*
X105125813Y-92574643D02*
G75*
G03*
X105125814Y-92341158I-116713J116743D01*
G01*
X105125815Y-92341158D02*
G75*
G03*
X104892329Y-92341158I-116743J-116741D01*
G01*
X100871480Y-90921800D02*
X101979585Y-90921800D01*
X100000000Y-91000000D02*
X100133963Y-90866036D01*
X104078628Y-91791236D02*
G75*
G03*
X101979585Y-90921800I-2099028J-2099064D01*
G01*
X105125815Y-92341158D02*
X105125815Y-92341157D01*
X99351610Y-115871590D02*
G75*
G02*
X99203201Y-115513332I358290J358290D01*
G01*
X100664094Y-90835906D02*
G75*
G03*
X100456719Y-90750000I-207394J-207394D01*
G01*
X104877143Y-92356285D02*
G75*
G02*
X104643686Y-92356314I-116743J116685D01*
G01*
X105125814Y-92574644D02*
X105125815Y-92574643D01*
X100414100Y-90750008D02*
G75*
G03*
X100133963Y-90866036I0J-396192D01*
G01*
X100414100Y-90750000D02*
X100456719Y-90750000D01*
X104877172Y-92356314D02*
X104877171Y-92356315D01*
X104877171Y-92356315D02*
X104892329Y-92341158D01*
X105125815Y-92574643D02*
X105110658Y-92589801D01*
X105110658Y-92823287D02*
X105110657Y-92823287D01*
X105110657Y-92823287D02*
X105709407Y-93422037D01*
X107303200Y-97269793D02*
X107303200Y-100130206D01*
X105709407Y-103977962D02*
X100796993Y-108890376D01*
X99351600Y-115871600D02*
X99500000Y-116020000D01*
X100000000Y-85000000D02*
X100133963Y-84866036D01*
X111351610Y-115871590D02*
G75*
G02*
X111203201Y-115513332I358290J358290D01*
G01*
X111203237Y-109815539D02*
G75*
G02*
X112003200Y-107884169I2731363J39D01*
G01*
X109547727Y-88069246D02*
G75*
G03*
X109314241Y-88069246I-116743J-116741D01*
G01*
X109547726Y-88302732D02*
X109547727Y-88302731D01*
X112803189Y-94069793D02*
G75*
G03*
X111209406Y-90222038I-5441589J-7D01*
G01*
X109535702Y-88548242D02*
G75*
G02*
X109535659Y-88314802I116698J116742D01*
G01*
X109302143Y-88081285D02*
G75*
G02*
X109068686Y-88081314I-116743J116685D01*
G01*
X112003207Y-107884176D02*
G75*
G03*
X112803200Y-105952799I-1931407J1931376D01*
G01*
X107502969Y-86515585D02*
G75*
G03*
X103655206Y-84921800I-3847769J-3847815D01*
G01*
X109547727Y-88069246D02*
X109547727Y-88069245D01*
X100871480Y-84921807D02*
G75*
G02*
X100664101Y-84835899I20J293307D01*
G01*
X100664094Y-84835906D02*
G75*
G03*
X100456719Y-84750000I-207394J-207394D01*
G01*
X109547738Y-88302744D02*
G75*
G03*
X109547727Y-88069245I-116738J116744D01*
G01*
X100871480Y-84921800D02*
X103655206Y-84921800D01*
X100414100Y-84750008D02*
G75*
G03*
X100133963Y-84866036I0J-396192D01*
G01*
X100414100Y-84750000D02*
X100456719Y-84750000D01*
X112803200Y-94069793D02*
X112803200Y-105952799D01*
X107502962Y-86515592D02*
X109068685Y-88081315D01*
X109302172Y-88081314D02*
X109302171Y-88081315D01*
X109302171Y-88081315D02*
X109314241Y-88069246D01*
X109547727Y-88302731D02*
X109535658Y-88314801D01*
X109535658Y-88548287D02*
X109535657Y-88548287D01*
X109535657Y-88548287D02*
X111209407Y-90222037D01*
X111203201Y-109815539D02*
X111203201Y-115513332D01*
X111351600Y-115871600D02*
X111500000Y-116020000D01*
X100000000Y-87000000D02*
X100133963Y-86866036D01*
X106650380Y-88462988D02*
G75*
G03*
X102929585Y-86921800I-3720780J-3720812D01*
G01*
X100664094Y-86835906D02*
G75*
G03*
X100456719Y-86750000I-207394J-207394D01*
G01*
X100414100Y-86750000D02*
X100456719Y-86750000D01*
X107203238Y-110738132D02*
G75*
G02*
X108796994Y-106890376I5441562J32D01*
G01*
X107800820Y-89116153D02*
X107800820Y-89116152D01*
X107800820Y-89349638D02*
X107785658Y-89364801D01*
X107800823Y-89349643D02*
G75*
G03*
X107800819Y-89116153I-116723J116743D01*
G01*
X109309415Y-106377970D02*
G75*
G03*
X110903200Y-102530206I-3847815J3847770D01*
G01*
X107552171Y-89131315D02*
X107567334Y-89116153D01*
X107800819Y-89349639D02*
X107800820Y-89349638D01*
X107351610Y-115871590D02*
G75*
G02*
X107203201Y-115513332I358290J358290D01*
G01*
X107552172Y-89131314D02*
X107552171Y-89131315D01*
X109309407Y-106377962D02*
X108796993Y-106890375D01*
X107552143Y-89131285D02*
G75*
G02*
X107318686Y-89131314I-116743J116685D01*
G01*
X110903189Y-94969793D02*
G75*
G03*
X109309406Y-91122038I-5441589J-7D01*
G01*
X100871480Y-86921807D02*
G75*
G02*
X100664101Y-86835899I20J293307D01*
G01*
X106650369Y-88462999D02*
X107318685Y-89131315D01*
X107785702Y-89598242D02*
G75*
G02*
X107785659Y-89364802I116698J116742D01*
G01*
X107800820Y-89116153D02*
G75*
G03*
X107567334Y-89116153I-116743J-116741D01*
G01*
X100414100Y-86750008D02*
G75*
G03*
X100133963Y-86866036I0J-396192D01*
G01*
X107785657Y-89598287D02*
X109309407Y-91122037D01*
X100871480Y-86921800D02*
X102929585Y-86921800D01*
X107785658Y-89598287D02*
X107785657Y-89598287D01*
X110903200Y-94969793D02*
X110903200Y-102530206D01*
X107203201Y-110738132D02*
X107203201Y-115513332D01*
X107351600Y-115871600D02*
X107500000Y-116020000D01*
X103351610Y-115871590D02*
G75*
G02*
X103203201Y-115513332I358290J358290D01*
G01*
X100000000Y-89000000D02*
X100133963Y-88866036D01*
X107509415Y-105277970D02*
G75*
G03*
X109103200Y-101430206I-3847815J3847770D01*
G01*
X109103189Y-96069793D02*
G75*
G03*
X107509406Y-92222038I-5441589J-7D01*
G01*
X106310702Y-91023242D02*
G75*
G02*
X106310659Y-90789802I116698J116742D01*
G01*
X106325826Y-90774644D02*
G75*
G03*
X106325821Y-90541151I-116726J116744D01*
G01*
X105432171Y-90144801D02*
X105843685Y-90556315D01*
X107509407Y-105277962D02*
X104796993Y-107990375D01*
X106325843Y-90541130D02*
G75*
G03*
X106092335Y-90541152I-116743J-116770D01*
G01*
X106077172Y-90556314D02*
X106077171Y-90556315D01*
X106325821Y-90774637D02*
X106310658Y-90789801D01*
X103203238Y-111838132D02*
G75*
G02*
X104796994Y-107990376I5441562J32D01*
G01*
X106325820Y-90774638D02*
X106325821Y-90774637D01*
X106077143Y-90556285D02*
G75*
G02*
X105843686Y-90556314I-116743J116685D01*
G01*
X105432181Y-90144791D02*
G75*
G03*
X102479585Y-88921800I-2952581J-2952609D01*
G01*
X100871480Y-88921807D02*
G75*
G02*
X100664101Y-88835899I20J293307D01*
G01*
X100664094Y-88835906D02*
G75*
G03*
X100456719Y-88750000I-207394J-207394D01*
G01*
X100414100Y-88750008D02*
G75*
G03*
X100133963Y-88866036I0J-396192D01*
G01*
X100414100Y-88750000D02*
X100456719Y-88750000D01*
X106325822Y-90541151D02*
X106325821Y-90541151D01*
X100871480Y-88921800D02*
X102479585Y-88921800D01*
X106077171Y-90556315D02*
X106092335Y-90541152D01*
X106310657Y-91023288D02*
X106310657Y-91023287D01*
X106310657Y-91023287D02*
X107509407Y-92222037D01*
X103351600Y-115871600D02*
X103500000Y-116020000D01*
X109103200Y-96069793D02*
X109103200Y-101430206D01*
X103203201Y-111838132D02*
X103203201Y-115513332D01*
X111351608Y-118376591D02*
G75*
G02*
X111203200Y-118018329I358292J358291D01*
G01*
X111203187Y-117486667D02*
G75*
G02*
X111351600Y-117128399I506713J-33D01*
G01*
X111500013Y-118734868D02*
G75*
G03*
X111351600Y-118376599I-506713J-32D01*
G01*
X110648391Y-118376590D02*
G75*
G03*
X110796799Y-118018329I-358291J358290D01*
G01*
X110499987Y-118734868D02*
G75*
G02*
X110648400Y-118376599I506713J-32D01*
G01*
X110796812Y-117486667D02*
G75*
G03*
X110648398Y-117128400I-506712J-33D01*
G01*
X107351608Y-118376591D02*
G75*
G02*
X107203200Y-118018329I358292J358291D01*
G01*
X107203187Y-117486667D02*
G75*
G02*
X107351600Y-117128399I506713J-33D01*
G01*
X107500013Y-118734868D02*
G75*
G03*
X107351600Y-118376599I-506713J-32D01*
G01*
X106648391Y-118376590D02*
G75*
G03*
X106796799Y-118018329I-358291J358290D01*
G01*
X106796812Y-117486667D02*
G75*
G03*
X106648398Y-117128400I-506712J-33D01*
G01*
X106499987Y-118734868D02*
G75*
G02*
X106648400Y-118376599I506713J-32D01*
G01*
X103351608Y-118376591D02*
G75*
G02*
X103203200Y-118018329I358292J358291D01*
G01*
X103203187Y-117486667D02*
G75*
G02*
X103351600Y-117128399I506713J-33D01*
G01*
X103500013Y-118734868D02*
G75*
G03*
X103351600Y-118376599I-506713J-32D01*
G01*
X102648391Y-118376590D02*
G75*
G03*
X102796799Y-118018329I-358291J358290D01*
G01*
X102796812Y-117486667D02*
G75*
G03*
X102648398Y-117128400I-506712J-33D01*
G01*
X102499987Y-118734868D02*
G75*
G02*
X102648400Y-118376599I506713J-32D01*
G01*
X99500013Y-118734868D02*
G75*
G03*
X99351600Y-118376599I-506713J-32D01*
G01*
X99351608Y-118376591D02*
G75*
G02*
X99203200Y-118018329I358292J358291D01*
G01*
X99203187Y-117486667D02*
G75*
G02*
X99351600Y-117128399I506713J-33D01*
G01*
X98499987Y-118734868D02*
G75*
G02*
X98648400Y-118376599I506713J-32D01*
G01*
X98648391Y-118376590D02*
G75*
G03*
X98796799Y-118018329I-358291J358290D01*
G01*
X98796812Y-117486667D02*
G75*
G03*
X98648398Y-117128400I-506712J-33D01*
G01*
X93203187Y-117486667D02*
G75*
G02*
X93351600Y-117128399I506713J-33D01*
G01*
X93500013Y-118734868D02*
G75*
G03*
X93351600Y-118376599I-506713J-32D01*
G01*
X93351608Y-118376591D02*
G75*
G02*
X93203200Y-118018329I358292J358291D01*
G01*
X92796812Y-117486667D02*
G75*
G03*
X92648398Y-117128400I-506712J-33D01*
G01*
X92499987Y-118734868D02*
G75*
G02*
X92648400Y-118376599I506713J-32D01*
G01*
X92648391Y-118376590D02*
G75*
G03*
X92796799Y-118018329I-358291J358290D01*
G01*
X89351608Y-118376591D02*
G75*
G02*
X89203200Y-118018329I358292J358291D01*
G01*
X89203187Y-117486667D02*
G75*
G02*
X89351600Y-117128399I506713J-33D01*
G01*
X89500013Y-118734868D02*
G75*
G03*
X89351600Y-118376599I-506713J-32D01*
G01*
X88796812Y-117486667D02*
G75*
G03*
X88648398Y-117128400I-506712J-33D01*
G01*
X88648391Y-118376590D02*
G75*
G03*
X88796799Y-118018329I-358291J358290D01*
G01*
X88499987Y-118734868D02*
G75*
G02*
X88648400Y-118376599I506713J-32D01*
G01*
X85500013Y-118734868D02*
G75*
G03*
X85351600Y-118376599I-506713J-32D01*
G01*
X85351608Y-118376591D02*
G75*
G02*
X85203200Y-118018329I358292J358291D01*
G01*
X85203187Y-117486667D02*
G75*
G02*
X85351600Y-117128399I506713J-33D01*
G01*
X84796812Y-117486667D02*
G75*
G03*
X84648398Y-117128400I-506712J-33D01*
G01*
X84499987Y-118734868D02*
G75*
G02*
X84648400Y-118376599I506713J-32D01*
G01*
X84648391Y-118376590D02*
G75*
G03*
X84796799Y-118018329I-358291J358290D01*
G01*
X80500013Y-118734868D02*
G75*
G03*
X80351600Y-118376599I-506713J-32D01*
G01*
X80351608Y-118376591D02*
G75*
G02*
X80203200Y-118018329I358292J358291D01*
G01*
X80203187Y-117486667D02*
G75*
G02*
X80351600Y-117128399I506713J-33D01*
G01*
X79796812Y-117486667D02*
G75*
G03*
X79648398Y-117128400I-506712J-33D01*
G01*
X79499987Y-118734868D02*
G75*
G02*
X79648400Y-118376599I506713J-32D01*
G01*
X79648391Y-118376590D02*
G75*
G03*
X79796799Y-118018329I-358291J358290D01*
G01*
X89261866Y-105396760D02*
G75*
G03*
X93109621Y-103803006I34J5441560D01*
G01*
X97296812Y-98506667D02*
G75*
G03*
X97148398Y-98148400I-506712J-33D01*
G01*
X96830440Y-100082169D02*
G75*
G03*
X97296799Y-98956315I-1125840J1125869D01*
G01*
X79796809Y-110869794D02*
G75*
G02*
X81390591Y-107022037I5441591J-6D01*
G01*
X79648390Y-115871591D02*
G75*
G03*
X79796799Y-115513332I-358290J358291D01*
G01*
X81422051Y-106990606D02*
G75*
G02*
X85269793Y-105396800I3847749J-3847694D01*
G01*
X89430206Y-105803189D02*
G75*
G03*
X93277962Y-104209407I-6J5441589D01*
G01*
X80351610Y-115871590D02*
G75*
G02*
X80203201Y-115513332I358290J358290D01*
G01*
X80203214Y-110892032D02*
G75*
G02*
X81693685Y-107293684I5088786J32D01*
G01*
X81693676Y-107293675D02*
G75*
G02*
X85292033Y-105803200I3598324J-3598325D01*
G01*
X97703187Y-98506667D02*
G75*
G02*
X97851600Y-98148399I506713J-33D01*
G01*
X97177342Y-100310039D02*
G75*
G03*
X97703201Y-99040484I-1269542J1269539D01*
G01*
X85756318Y-108256319D02*
G75*
G02*
X88072789Y-107296800I2316482J-2316481D01*
G01*
X100456719Y-97500007D02*
G75*
G03*
X100664099Y-97414099I-19J293307D01*
G01*
X101020415Y-97328178D02*
G75*
G02*
X101482042Y-97519412I-15J-652822D01*
G01*
X84648390Y-115871591D02*
G75*
G03*
X84796799Y-115513332I-358290J358291D01*
G01*
X101796781Y-98191944D02*
G75*
G03*
X101543815Y-97581185I-863681J44D01*
G01*
X100664106Y-97414106D02*
G75*
G02*
X100871480Y-97328200I207394J-207394D01*
G01*
X91461866Y-107296760D02*
G75*
G03*
X95309621Y-105703006I34J5441560D01*
G01*
X84796795Y-110572790D02*
G75*
G02*
X85756314Y-108256315I3276005J-10D01*
G01*
X101308307Y-99704318D02*
G75*
G03*
X101796800Y-98525000I-1179307J1179318D01*
G01*
X99853553Y-97500019D02*
G75*
G02*
X99250000Y-97250000I47J853619D01*
G01*
X102083529Y-101829109D02*
G75*
G03*
X103296800Y-98900000I-2929129J2929109D01*
G01*
X89356313Y-110056314D02*
G75*
G02*
X90707104Y-109496800I1350787J-1350786D01*
G01*
X101095415Y-95328188D02*
G75*
G02*
X101685075Y-95572445I-15J-833912D01*
G01*
X103296783Y-98496538D02*
G75*
G03*
X102368814Y-96256186I-3168283J38D01*
G01*
X100664106Y-95414106D02*
G75*
G02*
X100871480Y-95328200I207394J-207394D01*
G01*
X100456719Y-95500007D02*
G75*
G03*
X100664099Y-95414099I-19J293307D01*
G01*
X88648390Y-115871591D02*
G75*
G03*
X88796799Y-115513332I-358290J358291D01*
G01*
X88796801Y-111407105D02*
G75*
G02*
X89356314Y-110056315I1910299J5D01*
G01*
X99853553Y-95500019D02*
G75*
G02*
X99250000Y-95250000I47J853619D01*
G01*
X92165830Y-109496814D02*
G75*
G03*
X96006819Y-107905808I-30J5432014D01*
G01*
X104896785Y-98032935D02*
G75*
G03*
X103518815Y-94706185I-4704685J35D01*
G01*
X103303035Y-103009650D02*
G75*
G03*
X104896800Y-99161866I-3847835J3847750D01*
G01*
X92648390Y-115871591D02*
G75*
G03*
X92796799Y-115513332I-358290J358291D01*
G01*
X100664106Y-93414106D02*
G75*
G02*
X100871480Y-93328200I207394J-207394D01*
G01*
X101445415Y-93328196D02*
G75*
G02*
X102632561Y-93819933I-15J-1678904D01*
G01*
X99853553Y-93500019D02*
G75*
G02*
X99250000Y-93250000I47J853619D01*
G01*
X92796801Y-114619516D02*
G75*
G02*
X93577222Y-112735407I2664499J16D01*
G01*
X100456719Y-93500007D02*
G75*
G03*
X100664099Y-93414099I-19J293307D01*
G01*
X101895415Y-91328197D02*
G75*
G02*
X103850760Y-92138130I-15J-2765303D01*
G01*
X98796781Y-112569794D02*
G75*
G02*
X100390592Y-108722039I5441519J-6D01*
G01*
X98648390Y-115871591D02*
G75*
G03*
X98796799Y-115513332I-358290J358291D01*
G01*
X100664106Y-91414106D02*
G75*
G02*
X100871480Y-91328200I207394J-207394D01*
G01*
X99853553Y-91500019D02*
G75*
G02*
X99250000Y-91250000I47J853619D01*
G01*
X105303035Y-103809650D02*
G75*
G03*
X106896800Y-99961866I-3847835J3847750D01*
G01*
X106896761Y-97438133D02*
G75*
G03*
X105303007Y-93590377I-5441561J33D01*
G01*
X100456719Y-91500007D02*
G75*
G03*
X100664099Y-91414099I-19J293307D01*
G01*
X107103035Y-105109650D02*
G75*
G03*
X108696800Y-101261866I-3847835J3847750D01*
G01*
X102395415Y-89328195D02*
G75*
G02*
X105204314Y-90491684I-15J-3972405D01*
G01*
X108696761Y-96238133D02*
G75*
G03*
X107103007Y-92390377I-5441561J33D01*
G01*
X100664106Y-89414106D02*
G75*
G02*
X100871480Y-89328200I207394J-207394D01*
G01*
X102796781Y-111669794D02*
G75*
G02*
X104390592Y-107822039I5441519J-6D01*
G01*
X100456719Y-89500007D02*
G75*
G03*
X100664099Y-89414099I-19J293307D01*
G01*
X99853553Y-89500019D02*
G75*
G02*
X99250000Y-89250000I47J853619D01*
G01*
X102648390Y-115871591D02*
G75*
G03*
X102796799Y-115513332I-358290J358291D01*
G01*
X108903034Y-106209650D02*
G75*
G03*
X110496800Y-102361866I-3847834J3847750D01*
G01*
X100664106Y-87414106D02*
G75*
G02*
X100871480Y-87328200I207394J-207394D01*
G01*
X106796781Y-110569794D02*
G75*
G02*
X108390592Y-106722039I5441519J-6D01*
G01*
X99853553Y-87500019D02*
G75*
G02*
X99250000Y-87250000I47J853619D01*
G01*
X106648390Y-115871591D02*
G75*
G03*
X106796799Y-115513332I-358290J358291D01*
G01*
X100456719Y-87500007D02*
G75*
G03*
X100664099Y-87414099I-19J293307D01*
G01*
X102845415Y-87328196D02*
G75*
G02*
X106422512Y-88809882I-15J-5058804D01*
G01*
X110496761Y-95138133D02*
G75*
G03*
X108903007Y-91290377I-5441561J33D01*
G01*
X100664106Y-85414106D02*
G75*
G02*
X100871480Y-85328200I207394J-207394D01*
G01*
X111596826Y-107715857D02*
G75*
G03*
X112396800Y-105784458I-1931426J1931357D01*
G01*
X100456719Y-85500007D02*
G75*
G03*
X100664099Y-85414099I-19J293307D01*
G01*
X110648390Y-115871591D02*
G75*
G03*
X110796799Y-115513332I-358290J358291D01*
G01*
X99853553Y-85500019D02*
G75*
G02*
X99250000Y-85250000I47J853619D01*
G01*
X103486866Y-85328239D02*
G75*
G02*
X107334622Y-86921992I34J-5441561D01*
G01*
X112396761Y-94238133D02*
G75*
G03*
X110803007Y-90390377I-5441561J33D01*
G01*
X110796809Y-109647202D02*
G75*
G02*
X111596799Y-107715830I2731391J2D01*
G01*
D39*
X114643639Y-85336339D02*
G75*
G02*
X115038736Y-85172700I395061J-395061D01*
G01*
X118053840Y-82953641D02*
G75*
G03*
X118290000Y-82383534I-570140J570141D01*
G01*
X117444613Y-84799613D02*
G75*
G03*
X117817700Y-83898918I-900713J900713D01*
G01*
X117817687Y-83523767D02*
G75*
G02*
X118053850Y-82953651I806313J-33D01*
G01*
X116543918Y-85172707D02*
G75*
G03*
X117444618Y-84799618I-18J1273807D01*
G01*
X112961263Y-84827285D02*
G75*
G03*
X113356350Y-84663650I37J558685D01*
G01*
X112177368Y-84827313D02*
G75*
G02*
X112051950Y-84775350I32J177413D01*
G01*
X112051959Y-85224659D02*
G75*
G02*
X112177368Y-85172700I125441J-125441D01*
G01*
X112961263Y-85172715D02*
G75*
G02*
X113356350Y-85336350I37J-558685D01*
G01*
X100203682Y-72040575D02*
G75*
G03*
X100817700Y-70558168I-1482382J1482375D01*
G01*
X97836339Y-75836361D02*
G75*
G02*
X97672700Y-75441263I395061J395061D01*
G01*
X100817687Y-70023767D02*
G75*
G02*
X101053850Y-69453651I806313J-33D01*
G01*
X97672706Y-75122118D02*
G75*
G02*
X98062020Y-74182215I1329194J18D01*
G01*
X101053840Y-69453641D02*
G75*
G03*
X101290000Y-68883534I-570140J570141D01*
G01*
X100472313Y-70023767D02*
G75*
G03*
X100236150Y-69453651I-806313J-33D01*
G01*
X97163661Y-75836361D02*
G75*
G03*
X97327300Y-75441263I-395061J395061D01*
G01*
X100236160Y-69453641D02*
G75*
G02*
X100000000Y-68883534I570140J570141D01*
G01*
X97327280Y-75050582D02*
G75*
G02*
X97767204Y-73988561I1501920J-18D01*
G01*
X99908835Y-71846888D02*
G75*
G03*
X100472300Y-70486632I-1360235J1360288D01*
G01*
X76827333Y-109182427D02*
G75*
G02*
X78421092Y-105334670I5441567J27D01*
G01*
X80334668Y-103421089D02*
G75*
G02*
X84182427Y-101827300I3847732J-3847711D01*
G01*
X86961263Y-101827285D02*
G75*
G03*
X87356350Y-101663650I37J558685D01*
G01*
X76500015Y-118756435D02*
G75*
G02*
X76663651Y-118361350I558685J35D01*
G01*
X76663661Y-118361360D02*
G75*
G03*
X76827300Y-117966262I-395061J395060D01*
G01*
X88643639Y-102336339D02*
G75*
G02*
X89038736Y-102172700I395061J-395061D01*
G01*
X95500023Y-95853553D02*
G75*
G02*
X95750001Y-95250001I853477J53D01*
G01*
X92866118Y-102172706D02*
G75*
G03*
X94497117Y-101497117I-18J2306606D01*
G01*
X94528708Y-101465565D02*
G75*
G03*
X95172700Y-99910768I-1554808J1554765D01*
G01*
X95336361Y-98836361D02*
G75*
G03*
X95500000Y-98441263I-395061J395061D01*
G01*
X95172715Y-99231436D02*
G75*
G02*
X95336350Y-98836350I558685J36D01*
G01*
D41*
X63500000Y-121750000D02*
X63500000Y-119100000D01*
X64500000Y-121750000D02*
X64500000Y-119100000D01*
X87500000Y-121750000D02*
X87500000Y-119600000D01*
X87500000Y-119600000D02*
X87000000Y-119100000D01*
X101250000Y-66610000D02*
X101250000Y-67500000D01*
X84000000Y-89000000D02*
X83500000Y-88500000D01*
X107880000Y-75400000D02*
X107800000Y-75320000D01*
X112780000Y-73600000D02*
X112780000Y-73180000D01*
X97000000Y-90320000D02*
X97020000Y-90300000D01*
X96000000Y-92000000D02*
X96000000Y-91320000D01*
D42*
X52437500Y-105362500D02*
X52500000Y-105300000D01*
D41*
X108500000Y-121750000D02*
X108500000Y-119600000D01*
X106980000Y-73800000D02*
X106800000Y-73620000D01*
X105500000Y-121750000D02*
X105500000Y-119600000D01*
X97500000Y-119600000D02*
X97000000Y-119100000D01*
X65500000Y-121750000D02*
X65500000Y-119100000D01*
X84175000Y-89000000D02*
X84000000Y-89000000D01*
X112600000Y-72500000D02*
X112600000Y-73000000D01*
X94500000Y-121750000D02*
X94500000Y-119100000D01*
X112780000Y-73180000D02*
X112600000Y-73000000D01*
X60500000Y-56510000D02*
X62500000Y-56510000D01*
X64500000Y-56510000D02*
X66500000Y-56510000D01*
X78500000Y-121750000D02*
X78500000Y-119600000D01*
D42*
X48562500Y-89937500D02*
X48500000Y-90000000D01*
D41*
X74500000Y-56510000D02*
X75010000Y-56510000D01*
X104500000Y-121750000D02*
X104500000Y-119600000D01*
X75500000Y-121750000D02*
X75500000Y-119100000D01*
X108500000Y-119600000D02*
X109000000Y-119100000D01*
X62500000Y-56510000D02*
X64500000Y-56510000D01*
X100500000Y-121750000D02*
X100500000Y-119600000D01*
X101500000Y-121750000D02*
X101500000Y-119600000D01*
X83500000Y-121750000D02*
X83500000Y-119600000D01*
X90500000Y-121750000D02*
X90500000Y-119600000D01*
X70500000Y-56510000D02*
X72500000Y-56510000D01*
X97500000Y-121750000D02*
X97500000Y-119600000D01*
D42*
X49550000Y-89937500D02*
X48562500Y-89937500D01*
D41*
X112500000Y-119100000D02*
X112500000Y-121750000D01*
X113220000Y-72300000D02*
X112800000Y-72300000D01*
X104500000Y-119600000D02*
X105000000Y-119100000D01*
X101500000Y-119600000D02*
X101000000Y-119100000D01*
X96000000Y-91320000D02*
X95980000Y-91300000D01*
X75010000Y-56510000D02*
X75500000Y-57000000D01*
X91500000Y-121750000D02*
X91500000Y-119600000D01*
X68500000Y-56510000D02*
X70500000Y-56510000D01*
X66500000Y-56510000D02*
X68500000Y-56510000D01*
X90500000Y-119600000D02*
X91000000Y-119100000D01*
X109500000Y-119600000D02*
X109000000Y-119100000D01*
X72500000Y-56510000D02*
X74500000Y-56510000D01*
X100500000Y-119600000D02*
X101000000Y-119100000D01*
X109500000Y-121750000D02*
X109500000Y-119600000D01*
X91500000Y-119600000D02*
X91000000Y-119100000D01*
X78500000Y-119600000D02*
X78000000Y-119100000D01*
X118250000Y-80110000D02*
X118250000Y-81000000D01*
X81500000Y-121750000D02*
X81500000Y-119100000D01*
X108600000Y-75400000D02*
X107880000Y-75400000D01*
X86500000Y-121750000D02*
X86500000Y-119600000D01*
X86500000Y-119600000D02*
X87000000Y-119100000D01*
D42*
X52437500Y-105950000D02*
X52437500Y-105362500D01*
D41*
X112800000Y-72300000D02*
X112600000Y-72500000D01*
X83500000Y-119600000D02*
X83000000Y-119100000D01*
X108600000Y-73800000D02*
X106980000Y-73800000D01*
X97000000Y-91000000D02*
X97000000Y-90320000D01*
D42*
X101290000Y-66570000D02*
X101250000Y-66610000D01*
D41*
X110380000Y-74600000D02*
X111000000Y-74600000D01*
X105500000Y-119600000D02*
X105000000Y-119100000D01*
D42*
X118290000Y-80070000D02*
X118250000Y-80110000D01*
D39*
X95750000Y-95250000D02*
X96000000Y-95000000D01*
X94497117Y-101497117D02*
X94528689Y-101465546D01*
X95172700Y-99910768D02*
X95172700Y-99231436D01*
X88643650Y-102336350D02*
X88480000Y-102500000D01*
X89038736Y-102172700D02*
X92866118Y-102172700D01*
X95500000Y-95853553D02*
X95500000Y-98441263D01*
D42*
X115710000Y-81930000D02*
X115750000Y-81890000D01*
X115710000Y-80070000D02*
X115710000Y-80960000D01*
D41*
X84175000Y-92000000D02*
X84175000Y-92825000D01*
D42*
X98710000Y-68430000D02*
X98750000Y-68390000D01*
X98710000Y-67460000D02*
X98750000Y-67500000D01*
D41*
X107800000Y-81000000D02*
X107800000Y-80380000D01*
X84175000Y-92825000D02*
X83500000Y-93500000D01*
X107800000Y-74600000D02*
X106820000Y-74600000D01*
X110820000Y-72600000D02*
X110400000Y-72600000D01*
X110400000Y-72600000D02*
X110100000Y-72900000D01*
X98750000Y-68390000D02*
X98750000Y-67500000D01*
D42*
X115710000Y-80960000D02*
X115750000Y-81000000D01*
D41*
X115750000Y-81890000D02*
X115750000Y-81000000D01*
X106820000Y-74600000D02*
X106800000Y-74580000D01*
D42*
X98710000Y-66570000D02*
X98710000Y-67460000D01*
D40*
X107334622Y-86921992D02*
X110803007Y-90390377D01*
X99250000Y-85250000D02*
X99000000Y-85000000D01*
X100871480Y-85328200D02*
X103486866Y-85328200D01*
X110648399Y-115871600D02*
X110500000Y-116020000D01*
X110796799Y-115513332D02*
X110796799Y-109647202D01*
X112396800Y-105784458D02*
X112396800Y-94238133D01*
X100456719Y-85500000D02*
X99853553Y-85500000D01*
X106796799Y-110569794D02*
X106796799Y-115513332D01*
X99853553Y-87500000D02*
X100456719Y-87500000D01*
X99250000Y-87250000D02*
X99000000Y-87000000D01*
X108903006Y-106209622D02*
X108390591Y-106722038D01*
X106422512Y-88809882D02*
X108903007Y-91290377D01*
X100871480Y-87328200D02*
X102845415Y-87328200D01*
X110496800Y-102361866D02*
X110496800Y-95138133D01*
X106648399Y-115871600D02*
X106500000Y-116020000D01*
X102796799Y-111669794D02*
X102796799Y-115513332D01*
X100456719Y-89500000D02*
X99853553Y-89500000D01*
X99250000Y-89250000D02*
X99000000Y-89000000D01*
X107103007Y-105109622D02*
X104390591Y-107822038D01*
X108696800Y-101261866D02*
X108696800Y-96238133D01*
X102395415Y-89328200D02*
X100871480Y-89328200D01*
X102648399Y-115871600D02*
X102500000Y-116020000D01*
X105204314Y-90491684D02*
X107103007Y-92390377D01*
X99250000Y-91250000D02*
X99000000Y-91000000D01*
X100390591Y-108722038D02*
X105303007Y-103809622D01*
X101895415Y-91328200D02*
X100871480Y-91328200D01*
X106896800Y-99961866D02*
X106896800Y-97438133D01*
X99853553Y-91500000D02*
X100456719Y-91500000D01*
X98648399Y-115871600D02*
X98500000Y-116020000D01*
X98796799Y-112569794D02*
X98796799Y-115513332D01*
X103850760Y-92138130D02*
X105303007Y-93590377D01*
X92796799Y-115513332D02*
X92796799Y-114619516D01*
X103518815Y-94706185D02*
X102632562Y-93819932D01*
X103303007Y-103009622D02*
X93577222Y-112735407D01*
X100871480Y-93328200D02*
X101445415Y-93328200D01*
X92648399Y-115871600D02*
X92500000Y-116020000D01*
X99000000Y-93000000D02*
X99250000Y-93250000D01*
X104896800Y-98032935D02*
X104896800Y-99161866D01*
X99853553Y-93500000D02*
X100456719Y-93500000D01*
X102083524Y-101829104D02*
X96006820Y-107905809D01*
X88796799Y-115513332D02*
X88796799Y-111407105D01*
X88648399Y-115871600D02*
X88500000Y-116020000D01*
X99000000Y-95000000D02*
X99250000Y-95250000D01*
X100456719Y-95500000D02*
X99853553Y-95500000D01*
X103296800Y-98900000D02*
X103296800Y-98496538D01*
X101685075Y-95572445D02*
X102368815Y-96256185D01*
X90707104Y-109496800D02*
X92165830Y-109496800D01*
X101095415Y-95328200D02*
X100871480Y-95328200D01*
X84648399Y-115871600D02*
X84500000Y-116020000D01*
X101020415Y-97328200D02*
X100871480Y-97328200D01*
X101482042Y-97519412D02*
X101543815Y-97581185D01*
X99000000Y-97000000D02*
X99250000Y-97250000D01*
X101796800Y-98191944D02*
X101796800Y-98525000D01*
X100456719Y-97500000D02*
X99853553Y-97500000D01*
X88072789Y-107296800D02*
X91461866Y-107296800D01*
X84796799Y-115513332D02*
X84796799Y-110572790D01*
X95309622Y-105703007D02*
X101308309Y-99704320D01*
X93277962Y-104209407D02*
X97177336Y-100310033D01*
X89430206Y-105803200D02*
X85292033Y-105803200D01*
X80203201Y-115513332D02*
X80203201Y-110892032D01*
X80351600Y-115871600D02*
X80500000Y-116020000D01*
X97703201Y-98506667D02*
X97703201Y-99040484D01*
X98000000Y-98000000D02*
X97851600Y-98148399D01*
X79648399Y-115871600D02*
X79500000Y-116020000D01*
X97296799Y-98506667D02*
X97296799Y-98956315D01*
X93109622Y-103803007D02*
X96830450Y-100082179D01*
X81390591Y-107022037D02*
X81422037Y-106990592D01*
X89261866Y-105396800D02*
X85269793Y-105396800D01*
X79796799Y-110869794D02*
X79796799Y-115513332D01*
X97000000Y-98000000D02*
X97148399Y-98148399D01*
X79648399Y-117128399D02*
X79500000Y-116980000D01*
X79796799Y-117486667D02*
X79796799Y-118018329D01*
X79500000Y-118734868D02*
X79500000Y-121750000D01*
X80351600Y-117128399D02*
X80500000Y-116980000D01*
X80203200Y-118018329D02*
X80203200Y-117486667D01*
X80500000Y-118734868D02*
X80500000Y-121750000D01*
X84500000Y-118734868D02*
X84500000Y-121750000D01*
X84796799Y-117486667D02*
X84796799Y-118018329D01*
X84648399Y-117128399D02*
X84500000Y-116980000D01*
X85500000Y-118734868D02*
X85500000Y-121750000D01*
X85351600Y-117128399D02*
X85500000Y-116980000D01*
X85203200Y-118018329D02*
X85203200Y-117486667D01*
X88500000Y-118734868D02*
X88500000Y-121750000D01*
X88648399Y-117128399D02*
X88500000Y-116980000D01*
X88796799Y-117486667D02*
X88796799Y-118018329D01*
X89500000Y-118734868D02*
X89500000Y-121750000D01*
X89203200Y-118018329D02*
X89203200Y-117486667D01*
X89351600Y-117128399D02*
X89500000Y-116980000D01*
X92796799Y-117486667D02*
X92796799Y-118018329D01*
X92648399Y-117128399D02*
X92500000Y-116980000D01*
X92500000Y-118734868D02*
X92500000Y-121750000D01*
X93500000Y-118734868D02*
X93500000Y-121750000D01*
X93203200Y-117486667D02*
X93203200Y-118018329D01*
X93351600Y-117128399D02*
X93500000Y-116980000D01*
X98648399Y-117128399D02*
X98500000Y-116980000D01*
X98500000Y-118734868D02*
X98500000Y-121750000D01*
X98796799Y-118018329D02*
X98796799Y-117486667D01*
X99500000Y-118734868D02*
X99500000Y-121750000D01*
X99351600Y-117128399D02*
X99500000Y-116980000D01*
X99203200Y-118018329D02*
X99203200Y-117486667D01*
X102500000Y-118734868D02*
X102500000Y-121750000D01*
X102648399Y-117128399D02*
X102500000Y-116980000D01*
X102796799Y-118018329D02*
X102796799Y-117486667D01*
X103500000Y-118734868D02*
X103500000Y-121750000D01*
X103351600Y-117128399D02*
X103500000Y-116980000D01*
X103203200Y-118018329D02*
X103203200Y-117486667D01*
X106648399Y-117128399D02*
X106500000Y-116980000D01*
X106500000Y-118734868D02*
X106500000Y-121750000D01*
X106796799Y-118018329D02*
X106796799Y-117486667D01*
X107351600Y-117128399D02*
X107500000Y-116980000D01*
X107203200Y-118018329D02*
X107203200Y-117486667D01*
X107500000Y-118734868D02*
X107500000Y-121750000D01*
X110500000Y-118734868D02*
X110500000Y-121750000D01*
X110648399Y-117128399D02*
X110500000Y-116980000D01*
X110796799Y-118018329D02*
X110796799Y-117486667D01*
X111500000Y-118734868D02*
X111500000Y-121750000D01*
X111351600Y-117128399D02*
X111500000Y-116980000D01*
X111203200Y-118018329D02*
X111203200Y-117486667D01*
D39*
X87356350Y-101663650D02*
X87520000Y-101500000D01*
X76827300Y-109182427D02*
X76827300Y-117966262D01*
X84182427Y-101827300D02*
X86961263Y-101827300D01*
X76500000Y-118756435D02*
X76500000Y-121750000D01*
X78421092Y-105334670D02*
X80334671Y-103421092D01*
D43*
X71500000Y-121750000D02*
X71500000Y-119250000D01*
X70500000Y-119250000D02*
X71000000Y-118750000D01*
X71500000Y-119250000D02*
X71000000Y-118750000D01*
X70500000Y-121750000D02*
X70500000Y-119250000D01*
D44*
X62500000Y-119950000D02*
X63000000Y-119450000D01*
X63000000Y-119450000D02*
X63000000Y-116000000D01*
X62500000Y-121200000D02*
X62500000Y-119950000D01*
X63000000Y-116000000D02*
X64000000Y-115000000D01*
D42*
X112681045Y-82542229D02*
X112359209Y-82220393D01*
X112808229Y-81591773D02*
X113219866Y-82003408D01*
X112681045Y-82721834D02*
X112681045Y-82721835D01*
X113077637Y-81322361D02*
X113077636Y-81322361D01*
X113077636Y-81322361D02*
X113400000Y-81000000D01*
X96000000Y-82000000D02*
X96553501Y-82553501D01*
X113399472Y-81823802D02*
X113077636Y-81501966D01*
X112359209Y-82220393D02*
X112175970Y-82037152D01*
X112714789Y-81498333D02*
X112808229Y-81591773D01*
X112175969Y-81857547D02*
X112175970Y-81857546D01*
X112449016Y-81950986D02*
X112860653Y-82362621D01*
X113040259Y-82183015D02*
X112628621Y-81771377D01*
X112355576Y-81857546D02*
X112449016Y-81950986D01*
X112179604Y-82400000D02*
X112179605Y-82400000D01*
X112535182Y-81498334D02*
X112535183Y-81498333D01*
X112179605Y-82400000D02*
X112501440Y-82721835D01*
X113399471Y-82003409D02*
X113399472Y-82003408D01*
X113040258Y-82362622D02*
X113040259Y-82362621D01*
X96553501Y-82553501D02*
X111846499Y-82553501D01*
X112628621Y-81771377D02*
X112535183Y-81677939D01*
X111846499Y-82553501D02*
X112000000Y-82400000D01*
X112714789Y-81498333D02*
G75*
G03*
X112535183Y-81498333I-89803J-89798D01*
G01*
X112175920Y-81857498D02*
G75*
G03*
X112175970Y-82037152I89880J-89802D01*
G01*
X112179603Y-82400001D02*
G75*
G03*
X112000001Y-82400001I-89801J-89802D01*
G01*
X113399502Y-82003440D02*
G75*
G02*
X113219866Y-82003408I-89802J89840D01*
G01*
X112535147Y-81498299D02*
G75*
G03*
X112535184Y-81677938I89853J-89801D01*
G01*
X112355576Y-81857546D02*
G75*
G03*
X112175970Y-81857546I-89803J-89798D01*
G01*
X113399477Y-81823797D02*
G75*
G02*
X113399472Y-82003408I-89777J-89803D01*
G01*
X112681076Y-82542198D02*
G75*
G02*
X112681044Y-82721834I-89876J-89802D01*
G01*
X113040277Y-82182997D02*
G75*
G02*
X113040259Y-82362621I-89777J-89803D01*
G01*
X113077674Y-81322398D02*
G75*
G03*
X113077637Y-81501965I89726J-89802D01*
G01*
X112681002Y-82721791D02*
G75*
G02*
X112501441Y-82721834I-89802J89791D01*
G01*
X113040302Y-82362666D02*
G75*
G02*
X112860653Y-82362621I-89802J89866D01*
G01*
X101900000Y-62000000D02*
X103150000Y-63250000D01*
X68510000Y-94800000D02*
X69000000Y-94800000D01*
X69000000Y-94800000D02*
X69400000Y-94400000D01*
X79500000Y-62000000D02*
X101900000Y-62000000D01*
X67800000Y-83990000D02*
X67800000Y-83200000D01*
X66700000Y-83990000D02*
X67800000Y-83990000D01*
D45*
X85825000Y-89000000D02*
X86100000Y-89000000D01*
D41*
X87000000Y-90020000D02*
X86845000Y-90020000D01*
D45*
X86800000Y-86500000D02*
X88500000Y-86500000D01*
X86500000Y-88600000D02*
X86500000Y-86800000D01*
D41*
X86845000Y-90020000D02*
X85825000Y-89000000D01*
X89800000Y-86020000D02*
X89020000Y-86020000D01*
D45*
X86500000Y-86800000D02*
X86800000Y-86500000D01*
D41*
X89020000Y-86020000D02*
X89000000Y-86000000D01*
D45*
X86100000Y-89000000D02*
X86500000Y-88600000D01*
X88500000Y-86500000D02*
X89000000Y-86000000D01*
X88500000Y-87500000D02*
X88500000Y-91200000D01*
D41*
X86845000Y-90980000D02*
X85825000Y-92000000D01*
X87000000Y-90980000D02*
X86845000Y-90980000D01*
X89020000Y-86980000D02*
X89000000Y-87000000D01*
X89800000Y-86980000D02*
X89020000Y-86980000D01*
D45*
X88200000Y-91500000D02*
X87500000Y-91500000D01*
X89000000Y-87000000D02*
X88500000Y-87500000D01*
X87500000Y-91500000D02*
X87000000Y-92000000D01*
X88500000Y-91200000D02*
X88200000Y-91500000D01*
X87000000Y-92000000D02*
X85825000Y-92000000D01*
D42*
X102751000Y-76500000D02*
X102751000Y-76700162D01*
X103513000Y-76700162D02*
X103513000Y-76627000D01*
X101481000Y-76627000D02*
X101481000Y-76299838D01*
X97000000Y-77000000D02*
X97500000Y-76500000D01*
X101227000Y-76627000D02*
X101227000Y-76700162D01*
X107400000Y-76800000D02*
X112400000Y-76800000D01*
X102243000Y-76299838D02*
X102243000Y-76500000D01*
X101735000Y-76299838D02*
X101735000Y-76500000D01*
X106861180Y-76500000D02*
X107100000Y-76500000D01*
X103259000Y-76500000D02*
X103259000Y-76700162D01*
X103005000Y-76700162D02*
X103005000Y-76500000D01*
X101989000Y-76500000D02*
X101989000Y-76299838D01*
X102751000Y-76299838D02*
X102751000Y-76500000D01*
X101735000Y-76500000D02*
X101735000Y-76700162D01*
X103259000Y-76299838D02*
X103259000Y-76500000D01*
X103640000Y-76500000D02*
X106861180Y-76500000D01*
X112400000Y-76800000D02*
X113200000Y-77600000D01*
X113200000Y-77600000D02*
X113600000Y-77600000D01*
X102243000Y-76500000D02*
X102243000Y-76700162D01*
X103005000Y-76500000D02*
X103005000Y-76299838D01*
X102497000Y-76500000D02*
X102497000Y-76299838D01*
X102497000Y-76700162D02*
X102497000Y-76500000D01*
X97500000Y-76500000D02*
X101100000Y-76500000D01*
X101989000Y-76700162D02*
X101989000Y-76500000D01*
X113600000Y-77600000D02*
X114200000Y-77000000D01*
X107100000Y-76500000D02*
X107400000Y-76800000D01*
X101481000Y-76700162D02*
X101481000Y-76627000D01*
X102878000Y-76827200D02*
G75*
G02*
X102751000Y-76700162I0J127000D01*
G01*
X102116000Y-76172800D02*
G75*
G03*
X101989000Y-76299838I0J-127000D01*
G01*
X101862000Y-76827200D02*
G75*
G02*
X101735000Y-76700162I0J127000D01*
G01*
X101988962Y-76700162D02*
G75*
G02*
X101862000Y-76827162I-126962J-38D01*
G01*
X103386000Y-76827200D02*
G75*
G02*
X103259000Y-76700162I0J127000D01*
G01*
X102370000Y-76827200D02*
G75*
G02*
X102243000Y-76700162I0J127000D01*
G01*
X103258962Y-76299838D02*
G75*
G03*
X103132000Y-76172838I-126962J38D01*
G01*
X101354000Y-76827200D02*
G75*
G02*
X101227000Y-76700162I0J127000D01*
G01*
X103640000Y-76500000D02*
G75*
G03*
X103513000Y-76627000I0J-127000D01*
G01*
X102750962Y-76299838D02*
G75*
G03*
X102624000Y-76172838I-126962J38D01*
G01*
X103132000Y-76172800D02*
G75*
G03*
X103005000Y-76299838I0J-127000D01*
G01*
X103512962Y-76700162D02*
G75*
G02*
X103386000Y-76827162I-126962J-38D01*
G01*
X101480962Y-76700162D02*
G75*
G02*
X101354000Y-76827162I-126962J-38D01*
G01*
X101608000Y-76172800D02*
G75*
G03*
X101481000Y-76299838I0J-127000D01*
G01*
X102242962Y-76299838D02*
G75*
G03*
X102116000Y-76172838I-126962J38D01*
G01*
X102624000Y-76172800D02*
G75*
G03*
X102497000Y-76299838I0J-127000D01*
G01*
X101227000Y-76627000D02*
G75*
G03*
X101100000Y-76500000I-127000J0D01*
G01*
X102496962Y-76700162D02*
G75*
G02*
X102370000Y-76827162I-126962J-38D01*
G01*
X101734962Y-76299838D02*
G75*
G03*
X101608000Y-76172838I-126962J38D01*
G01*
X103004962Y-76700162D02*
G75*
G02*
X102878000Y-76827162I-126962J-38D01*
G01*
X104351000Y-81343029D02*
X104351000Y-81600000D01*
X106129000Y-81856971D02*
X106129000Y-81600000D01*
X100000000Y-81000000D02*
X102200000Y-81000000D01*
X103589000Y-81600000D02*
X103589000Y-81343029D01*
X105875000Y-81600000D02*
X105875000Y-81856971D01*
X105875000Y-81343029D02*
X105875000Y-81600000D01*
X105367000Y-81600000D02*
X105367000Y-81856971D01*
X104859000Y-81343029D02*
X104859000Y-81600000D01*
X105113000Y-81856971D02*
X105113000Y-81600000D01*
X102827000Y-81727000D02*
X102827000Y-81856971D01*
X102400000Y-81400000D02*
X102600000Y-81600000D01*
X106510000Y-81600000D02*
X106800000Y-81600000D01*
X111200000Y-80200000D02*
X112000000Y-80200000D01*
X106383000Y-81343029D02*
X106383000Y-81473000D01*
X102200000Y-81000000D02*
X102400000Y-81200000D01*
X103843000Y-81343029D02*
X103843000Y-81600000D01*
X104097000Y-81600000D02*
X104097000Y-81343029D01*
X102600000Y-81600000D02*
X102700000Y-81600000D01*
X102400000Y-81200000D02*
X102400000Y-81400000D01*
X103335000Y-81600000D02*
X103335000Y-81856971D01*
X106800000Y-81600000D02*
X107100000Y-81900000D01*
X106129000Y-81600000D02*
X106129000Y-81343029D01*
X105621000Y-81856971D02*
X105621000Y-81600000D01*
X103335000Y-81343029D02*
X103335000Y-81600000D01*
X104605000Y-81600000D02*
X104605000Y-81343029D01*
X103081000Y-81727000D02*
X103081000Y-81343029D01*
X103843000Y-81600000D02*
X103843000Y-81856971D01*
X104605000Y-81856971D02*
X104605000Y-81600000D01*
X105113000Y-81600000D02*
X105113000Y-81343029D01*
X104859000Y-81600000D02*
X104859000Y-81856971D01*
X103589000Y-81856971D02*
X103589000Y-81600000D01*
X104097000Y-81856971D02*
X104097000Y-81600000D01*
X109500000Y-81900000D02*
X111200000Y-80200000D01*
X105367000Y-81343029D02*
X105367000Y-81600000D01*
X103081000Y-81856971D02*
X103081000Y-81727000D01*
X107100000Y-81900000D02*
X109500000Y-81900000D01*
X104351000Y-81600000D02*
X104351000Y-81856971D01*
X105621000Y-81600000D02*
X105621000Y-81343029D01*
X105112971Y-81856971D02*
G75*
G02*
X104986000Y-81983971I-126971J-29D01*
G01*
X106128971Y-81856971D02*
G75*
G02*
X106002000Y-81983971I-126971J-29D01*
G01*
X105620971Y-81856971D02*
G75*
G02*
X105494000Y-81983971I-126971J-29D01*
G01*
X102827000Y-81727000D02*
G75*
G03*
X102700000Y-81600000I-127000J0D01*
G01*
X104986000Y-81984000D02*
G75*
G02*
X104859000Y-81856971I0J127000D01*
G01*
X105748000Y-81216000D02*
G75*
G03*
X105621000Y-81343029I0J-127000D01*
G01*
X104224000Y-81216000D02*
G75*
G03*
X104097000Y-81343029I0J-127000D01*
G01*
X102954000Y-81984000D02*
G75*
G02*
X102827000Y-81856971I0J127000D01*
G01*
X103334971Y-81343029D02*
G75*
G03*
X103208000Y-81216029I-126971J29D01*
G01*
X103970000Y-81984000D02*
G75*
G02*
X103843000Y-81856971I0J127000D01*
G01*
X106382971Y-81343029D02*
G75*
G03*
X106256000Y-81216029I-126971J29D01*
G01*
X105240000Y-81216000D02*
G75*
G03*
X105113000Y-81343029I0J-127000D01*
G01*
X104096971Y-81856971D02*
G75*
G02*
X103970000Y-81983971I-126971J-29D01*
G01*
X103842971Y-81343029D02*
G75*
G03*
X103716000Y-81216029I-126971J29D01*
G01*
X104478000Y-81984000D02*
G75*
G02*
X104351000Y-81856971I0J127000D01*
G01*
X105494000Y-81984000D02*
G75*
G02*
X105367000Y-81856971I0J127000D01*
G01*
X103462000Y-81984000D02*
G75*
G02*
X103335000Y-81856971I0J127000D01*
G01*
X104732000Y-81216000D02*
G75*
G03*
X104605000Y-81343029I0J-127000D01*
G01*
X103080971Y-81856971D02*
G75*
G02*
X102954000Y-81983971I-126971J-29D01*
G01*
X103588971Y-81856971D02*
G75*
G02*
X103462000Y-81983971I-126971J-29D01*
G01*
X106256000Y-81216000D02*
G75*
G03*
X106129000Y-81343029I0J-127000D01*
G01*
X106002000Y-81984000D02*
G75*
G02*
X105875000Y-81856971I0J127000D01*
G01*
X104350971Y-81343029D02*
G75*
G03*
X104224000Y-81216029I-126971J29D01*
G01*
X104604971Y-81856971D02*
G75*
G02*
X104478000Y-81983971I-126971J-29D01*
G01*
X103208000Y-81216000D02*
G75*
G03*
X103081000Y-81343029I0J-127000D01*
G01*
X106510000Y-81600000D02*
G75*
G02*
X106383000Y-81473000I0J127000D01*
G01*
X104858971Y-81343029D02*
G75*
G03*
X104732000Y-81216029I-126971J29D01*
G01*
X105874971Y-81343029D02*
G75*
G03*
X105748000Y-81216029I-126971J29D01*
G01*
X105366971Y-81343029D02*
G75*
G03*
X105240000Y-81216029I-126971J29D01*
G01*
X103716000Y-81216000D02*
G75*
G03*
X103589000Y-81343029I0J-127000D01*
G01*
X101281000Y-80059531D02*
X101281000Y-80027000D01*
X101789000Y-80059531D02*
X101789000Y-79900000D01*
X102043000Y-79900000D02*
X102043000Y-80059531D01*
X100300000Y-79500000D02*
X100700000Y-79900000D01*
X108400000Y-79600000D02*
X108800000Y-79600000D01*
X101027000Y-80027000D02*
X101027000Y-80059531D01*
X103059000Y-79740469D02*
X103059000Y-79900000D01*
X110100000Y-79400000D02*
X112600000Y-79400000D01*
X103313000Y-80059531D02*
X103313000Y-80027000D01*
X100700000Y-79900000D02*
X100900000Y-79900000D01*
D46*
X107070142Y-79900000D02*
X108100000Y-79900000D01*
D42*
X108800000Y-79600000D02*
X109100000Y-79900000D01*
X101281000Y-80027000D02*
X101281000Y-79740469D01*
X102297000Y-79900000D02*
X102297000Y-79740469D01*
X97800000Y-80000000D02*
X98300000Y-80000000D01*
X101535000Y-79900000D02*
X101535000Y-80059531D01*
X102551000Y-79740469D02*
X102551000Y-79900000D01*
X102805000Y-80059531D02*
X102805000Y-79900000D01*
X103440000Y-79900000D02*
X107070142Y-79900000D01*
X101789000Y-79900000D02*
X101789000Y-79740469D01*
X109600000Y-79900000D02*
X110100000Y-79400000D01*
X98300000Y-80000000D02*
X98800000Y-79500000D01*
X102297000Y-80059531D02*
X102297000Y-79900000D01*
X103059000Y-79900000D02*
X103059000Y-80059531D01*
X109100000Y-79900000D02*
X109600000Y-79900000D01*
X101535000Y-79740469D02*
X101535000Y-79900000D01*
X97300000Y-80500000D02*
X97800000Y-80000000D01*
X102551000Y-79900000D02*
X102551000Y-80059531D01*
X102805000Y-79900000D02*
X102805000Y-79740469D01*
X95500000Y-80500000D02*
X97300000Y-80500000D01*
X98800000Y-79500000D02*
X100300000Y-79500000D01*
X95000000Y-81000000D02*
X95500000Y-80500000D01*
X102043000Y-79740469D02*
X102043000Y-79900000D01*
D46*
X108100000Y-79900000D02*
X108400000Y-79600000D01*
D42*
X101154000Y-80186500D02*
G75*
G02*
X101027000Y-80059531I0J127000D01*
G01*
X102424000Y-79613500D02*
G75*
G03*
X102297000Y-79740469I0J-127000D01*
G01*
X102932000Y-79613500D02*
G75*
G03*
X102805000Y-79740469I0J-127000D01*
G01*
X103440000Y-79900000D02*
G75*
G03*
X103313000Y-80027000I0J-127000D01*
G01*
X103059031Y-79740469D02*
G75*
G03*
X102932000Y-79613469I-127031J-31D01*
G01*
X103313031Y-80059531D02*
G75*
G02*
X103186000Y-80186531I-127031J31D01*
G01*
X101789031Y-80059531D02*
G75*
G02*
X101662000Y-80186531I-127031J31D01*
G01*
X101535031Y-79740469D02*
G75*
G03*
X101408000Y-79613469I-127031J-31D01*
G01*
X101916000Y-79613500D02*
G75*
G03*
X101789000Y-79740469I0J-127000D01*
G01*
X102043031Y-79740469D02*
G75*
G03*
X101916000Y-79613469I-127031J-31D01*
G01*
X102170000Y-80186500D02*
G75*
G02*
X102043000Y-80059531I0J127000D01*
G01*
X102551031Y-79740469D02*
G75*
G03*
X102424000Y-79613469I-127031J-31D01*
G01*
X102805031Y-80059531D02*
G75*
G02*
X102678000Y-80186531I-127031J31D01*
G01*
X101408000Y-79613500D02*
G75*
G03*
X101281000Y-79740469I0J-127000D01*
G01*
X102297031Y-80059531D02*
G75*
G02*
X102170000Y-80186531I-127031J31D01*
G01*
X101027000Y-80027000D02*
G75*
G03*
X100900000Y-79900000I-127000J0D01*
G01*
X103186000Y-80186500D02*
G75*
G02*
X103059000Y-80059531I0J127000D01*
G01*
X101662000Y-80186500D02*
G75*
G02*
X101535000Y-80059531I0J127000D01*
G01*
X101281031Y-80059531D02*
G75*
G02*
X101154000Y-80186531I-127031J31D01*
G01*
X102678000Y-80186500D02*
G75*
G02*
X102551000Y-80059531I0J127000D01*
G01*
X96500000Y-78500000D02*
X100300000Y-78500000D01*
X112200000Y-78100000D02*
X112500000Y-78400000D01*
X104981000Y-78132961D02*
X104981000Y-78173000D01*
X105743000Y-78300000D02*
X105743000Y-78132961D01*
X106759000Y-78300000D02*
X106759000Y-78132961D01*
X106759000Y-78467039D02*
X106759000Y-78300000D01*
X111700000Y-78100000D02*
X112200000Y-78100000D01*
X109510074Y-78300000D02*
X109600000Y-78300000D01*
X109600000Y-78300000D02*
X109800000Y-78100000D01*
X105235000Y-78467039D02*
X105235000Y-78300000D01*
X107013000Y-78300000D02*
X107013000Y-78467039D01*
X105235000Y-78300000D02*
X105235000Y-78132961D01*
X106251000Y-78300000D02*
X106251000Y-78132961D01*
X110200000Y-78100000D02*
X110500000Y-78400000D01*
X105489000Y-78300000D02*
X105489000Y-78467039D01*
X112500000Y-78400000D02*
X113200000Y-78400000D01*
X111400000Y-78400000D02*
X111700000Y-78100000D01*
X106505000Y-78132961D02*
X106505000Y-78300000D01*
X107267000Y-78467039D02*
X107267000Y-78427000D01*
X113200000Y-78400000D02*
X113400000Y-78600000D01*
X106251000Y-78467039D02*
X106251000Y-78300000D01*
X105997000Y-78132961D02*
X105997000Y-78300000D01*
X104727000Y-78173000D02*
X104727000Y-78132961D01*
X107394000Y-78300000D02*
X109510074Y-78300000D01*
X110500000Y-78400000D02*
X111400000Y-78400000D01*
X104981000Y-78173000D02*
X104981000Y-78467039D01*
X109800000Y-78100000D02*
X110200000Y-78100000D01*
X106505000Y-78300000D02*
X106505000Y-78467039D01*
X105743000Y-78467039D02*
X105743000Y-78300000D01*
X100500000Y-78300000D02*
X104600000Y-78300000D01*
X105489000Y-78132961D02*
X105489000Y-78300000D01*
X100300000Y-78500000D02*
X100500000Y-78300000D01*
X105997000Y-78300000D02*
X105997000Y-78467039D01*
X107013000Y-78132961D02*
X107013000Y-78300000D01*
X105108000Y-78594000D02*
G75*
G02*
X104981000Y-78467039I0J127000D01*
G01*
X105997039Y-78132961D02*
G75*
G03*
X105870000Y-78005961I-127039J-39D01*
G01*
X106124000Y-78594000D02*
G75*
G02*
X105997000Y-78467039I0J127000D01*
G01*
X105870000Y-78006000D02*
G75*
G03*
X105743000Y-78132961I0J-127000D01*
G01*
X106632000Y-78594000D02*
G75*
G02*
X106505000Y-78467039I0J127000D01*
G01*
X104981039Y-78132961D02*
G75*
G03*
X104854000Y-78005961I-127039J-39D01*
G01*
X105489039Y-78132961D02*
G75*
G03*
X105362000Y-78005961I-127039J-39D01*
G01*
X104854000Y-78006000D02*
G75*
G03*
X104727000Y-78132961I0J-127000D01*
G01*
X107267039Y-78467039D02*
G75*
G02*
X107140000Y-78594039I-127039J39D01*
G01*
X105362000Y-78006000D02*
G75*
G03*
X105235000Y-78132961I0J-127000D01*
G01*
X106251039Y-78467039D02*
G75*
G02*
X106124000Y-78594039I-127039J39D01*
G01*
X105616000Y-78594000D02*
G75*
G02*
X105489000Y-78467039I0J127000D01*
G01*
X107394000Y-78300000D02*
G75*
G03*
X107267000Y-78427000I0J-127000D01*
G01*
X105743039Y-78467039D02*
G75*
G02*
X105616000Y-78594039I-127039J39D01*
G01*
X107013039Y-78132961D02*
G75*
G03*
X106886000Y-78005961I-127039J-39D01*
G01*
X106378000Y-78006000D02*
G75*
G03*
X106251000Y-78132961I0J-127000D01*
G01*
X107140000Y-78594000D02*
G75*
G02*
X107013000Y-78467039I0J127000D01*
G01*
X105235039Y-78467039D02*
G75*
G02*
X105108000Y-78594039I-127039J39D01*
G01*
X106505039Y-78132961D02*
G75*
G03*
X106378000Y-78005961I-127039J-39D01*
G01*
X106886000Y-78006000D02*
G75*
G03*
X106759000Y-78132961I0J-127000D01*
G01*
X104727000Y-78173000D02*
G75*
G02*
X104600000Y-78300000I-127000J0D01*
G01*
X106759039Y-78467039D02*
G75*
G02*
X106632000Y-78594039I-127039J39D01*
G01*
X101900000Y-81500000D02*
X102000000Y-81600000D01*
X111535000Y-82173000D02*
X111535000Y-80677000D01*
X109600000Y-82300000D02*
X110800000Y-81100000D01*
X112170000Y-81100000D02*
X112500000Y-81100000D01*
X101632620Y-81500000D02*
X101900000Y-81500000D01*
X111789000Y-80677000D02*
X111789000Y-81573000D01*
X99500000Y-81500000D02*
X100400000Y-81500000D01*
X101378620Y-81320760D02*
X101453380Y-81320760D01*
X102000000Y-81600000D02*
X102000000Y-82000000D01*
X111027000Y-80973000D02*
X111027000Y-80827000D01*
X99000000Y-81000000D02*
X99500000Y-81500000D01*
X112500000Y-81100000D02*
X113400000Y-80200000D01*
X100527000Y-81627000D02*
X100527000Y-81852240D01*
X100781000Y-81852240D02*
X100781000Y-81410380D01*
X101035000Y-81410380D02*
X101035000Y-81852240D01*
X112043000Y-81573000D02*
X112043000Y-81227000D01*
X100870620Y-81320760D02*
X100945380Y-81320760D01*
X111281000Y-80827000D02*
X111281000Y-82173000D01*
X102000000Y-82000000D02*
X102300000Y-82300000D01*
X102300000Y-82300000D02*
X109600000Y-82300000D01*
X101289000Y-81852240D02*
X101289000Y-81410380D01*
X110800000Y-81100000D02*
X110900000Y-81100000D01*
X101289040Y-81852240D02*
G75*
G02*
X101162000Y-81979240I-127040J40D01*
G01*
X111408000Y-82300000D02*
G75*
G02*
X111281000Y-82173000I0J127000D01*
G01*
X111662000Y-80550000D02*
G75*
G03*
X111535000Y-80677000I0J-127000D01*
G01*
X101035040Y-81410380D02*
G75*
G03*
X100945380Y-81320760I-89640J-20D01*
G01*
X112170000Y-81100000D02*
G75*
G03*
X112043000Y-81227000I0J-127000D01*
G01*
X111535000Y-82173000D02*
G75*
G02*
X111408000Y-82300000I-127000J0D01*
G01*
X101632620Y-81500000D02*
G75*
G02*
X101543000Y-81410380I-20J89600D01*
G01*
X112043000Y-81573000D02*
G75*
G02*
X111916000Y-81700000I-127000J0D01*
G01*
X111027000Y-80973000D02*
G75*
G02*
X110900000Y-81100000I-127000J0D01*
G01*
X111789000Y-80677000D02*
G75*
G03*
X111662000Y-80550000I-127000J0D01*
G01*
X101162000Y-81979200D02*
G75*
G02*
X101035000Y-81852240I0J127000D01*
G01*
X100870620Y-81320800D02*
G75*
G03*
X100781000Y-81410380I-20J-89600D01*
G01*
X111916000Y-81700000D02*
G75*
G02*
X111789000Y-81573000I0J127000D01*
G01*
X100781040Y-81852240D02*
G75*
G02*
X100654000Y-81979240I-127040J40D01*
G01*
X100654000Y-81979200D02*
G75*
G02*
X100527000Y-81852240I0J127000D01*
G01*
X100527000Y-81627000D02*
G75*
G03*
X100400000Y-81500000I-127000J0D01*
G01*
X101378620Y-81320800D02*
G75*
G03*
X101289000Y-81410380I-20J-89600D01*
G01*
X111154000Y-80700000D02*
G75*
G03*
X111027000Y-80827000I0J-127000D01*
G01*
X111281000Y-80827000D02*
G75*
G03*
X111154000Y-80700000I-127000J0D01*
G01*
X101543040Y-81410380D02*
G75*
G03*
X101453380Y-81320760I-89640J-20D01*
G01*
X107300000Y-81300000D02*
X107500000Y-81500000D01*
X105251000Y-80339027D02*
X105251000Y-80500000D01*
X103981000Y-80627000D02*
X103981000Y-80339027D01*
X104235000Y-80500000D02*
X104235000Y-80660973D01*
X112400000Y-79900000D02*
X112900000Y-79900000D01*
X112200000Y-79700000D02*
X112400000Y-79900000D01*
X104743000Y-80339027D02*
X104743000Y-80500000D01*
X107500000Y-81500000D02*
X109400000Y-81500000D01*
X105251000Y-80500000D02*
X105251000Y-80660973D01*
X104743000Y-80500000D02*
X104743000Y-80660973D01*
X111200000Y-79700000D02*
X112200000Y-79700000D01*
X109400000Y-81500000D02*
X111200000Y-79700000D01*
X112900000Y-79900000D02*
X113400000Y-79400000D01*
X106267000Y-80339027D02*
X106267000Y-80373000D01*
X106394000Y-80500000D02*
X107000000Y-80500000D01*
X105759000Y-80339027D02*
X105759000Y-80500000D01*
X105759000Y-80500000D02*
X105759000Y-80660973D01*
X97000000Y-81000000D02*
X97200000Y-81000000D01*
X104235000Y-80339027D02*
X104235000Y-80500000D01*
X106013000Y-80660973D02*
X106013000Y-80500000D01*
X104997000Y-80500000D02*
X104997000Y-80339027D01*
X104489000Y-80500000D02*
X104489000Y-80339027D01*
X107300000Y-80800000D02*
X107300000Y-81300000D01*
X107000000Y-80500000D02*
X107300000Y-80800000D01*
X103727000Y-80627000D02*
X103727000Y-80660973D01*
X97700000Y-80500000D02*
X103600000Y-80500000D01*
X97200000Y-81000000D02*
X97700000Y-80500000D01*
X105505000Y-80660973D02*
X105505000Y-80500000D01*
X104997000Y-80660973D02*
X104997000Y-80500000D01*
X103981000Y-80660973D02*
X103981000Y-80627000D01*
X105505000Y-80500000D02*
X105505000Y-80339027D01*
X104489000Y-80660973D02*
X104489000Y-80500000D01*
X106013000Y-80500000D02*
X106013000Y-80339027D01*
X104996973Y-80660973D02*
G75*
G02*
X104870000Y-80787973I-126973J-27D01*
G01*
X104362000Y-80788000D02*
G75*
G02*
X104235000Y-80660973I0J127000D01*
G01*
X106394000Y-80500000D02*
G75*
G02*
X106267000Y-80373000I0J127000D01*
G01*
X104108000Y-80212000D02*
G75*
G03*
X103981000Y-80339027I0J-127000D01*
G01*
X104870000Y-80788000D02*
G75*
G02*
X104743000Y-80660973I0J127000D01*
G01*
X103980973Y-80660973D02*
G75*
G02*
X103854000Y-80787973I-126973J-27D01*
G01*
X105632000Y-80212000D02*
G75*
G03*
X105505000Y-80339027I0J-127000D01*
G01*
X105504973Y-80660973D02*
G75*
G02*
X105378000Y-80787973I-126973J-27D01*
G01*
X104616000Y-80212000D02*
G75*
G03*
X104489000Y-80339027I0J-127000D01*
G01*
X104234973Y-80339027D02*
G75*
G03*
X104108000Y-80212027I-126973J27D01*
G01*
X104742973Y-80339027D02*
G75*
G03*
X104616000Y-80212027I-126973J27D01*
G01*
X105378000Y-80788000D02*
G75*
G02*
X105251000Y-80660973I0J127000D01*
G01*
X105886000Y-80788000D02*
G75*
G02*
X105759000Y-80660973I0J127000D01*
G01*
X104488973Y-80660973D02*
G75*
G02*
X104362000Y-80787973I-126973J-27D01*
G01*
X105250973Y-80339027D02*
G75*
G03*
X105124000Y-80212027I-126973J27D01*
G01*
X105124000Y-80212000D02*
G75*
G03*
X104997000Y-80339027I0J-127000D01*
G01*
X106140000Y-80212000D02*
G75*
G03*
X106013000Y-80339027I0J-127000D01*
G01*
X106012973Y-80660973D02*
G75*
G02*
X105886000Y-80787973I-126973J-27D01*
G01*
X105758973Y-80339027D02*
G75*
G03*
X105632000Y-80212027I-126973J27D01*
G01*
X106266973Y-80339027D02*
G75*
G03*
X106140000Y-80212027I-126973J27D01*
G01*
X103854000Y-80788000D02*
G75*
G02*
X103727000Y-80660973I0J127000D01*
G01*
X103727000Y-80627000D02*
G75*
G03*
X103600000Y-80500000I-127000J0D01*
G01*
X101681000Y-77627000D02*
X101681000Y-77294431D01*
X109100000Y-77200000D02*
X110000000Y-77200000D01*
X101935000Y-77294431D02*
X101935000Y-77500000D01*
X102189000Y-77500000D02*
X102189000Y-77294431D01*
X101935000Y-77500000D02*
X101935000Y-77705569D01*
X103713000Y-77500000D02*
X103713000Y-77294431D01*
X97500000Y-77500000D02*
X101300000Y-77500000D01*
X97000000Y-78000000D02*
X97500000Y-77500000D01*
X111600000Y-77800000D02*
X112600000Y-77800000D01*
X102697000Y-77500000D02*
X102697000Y-77294431D01*
X103459000Y-77500000D02*
X103459000Y-77705569D01*
X102951000Y-77294431D02*
X102951000Y-77500000D01*
X103967000Y-77500000D02*
X103967000Y-77705569D01*
X108800000Y-77500000D02*
X109100000Y-77200000D01*
X103713000Y-77705569D02*
X103713000Y-77500000D01*
X103205000Y-77500000D02*
X103205000Y-77294431D01*
X102189000Y-77705569D02*
X102189000Y-77500000D01*
X104475000Y-77294431D02*
X104475000Y-77373000D01*
X101427000Y-77627000D02*
X101427000Y-77705569D01*
X102443000Y-77294431D02*
X102443000Y-77500000D01*
X102443000Y-77500000D02*
X102443000Y-77705569D01*
X104602000Y-77500000D02*
X106282100Y-77500000D01*
X110800000Y-78000000D02*
X111400000Y-78000000D01*
X110000000Y-77200000D02*
X110800000Y-78000000D01*
X104221000Y-77500000D02*
X104221000Y-77294431D01*
X103967000Y-77294431D02*
X103967000Y-77500000D01*
X103205000Y-77705569D02*
X103205000Y-77500000D01*
X104221000Y-77705569D02*
X104221000Y-77500000D01*
X102697000Y-77705569D02*
X102697000Y-77500000D01*
X101681000Y-77705569D02*
X101681000Y-77627000D01*
X102951000Y-77500000D02*
X102951000Y-77705569D01*
X103459000Y-77294431D02*
X103459000Y-77500000D01*
X111400000Y-78000000D02*
X111600000Y-77800000D01*
X106282100Y-77500000D02*
X108800000Y-77500000D01*
X102442969Y-77294431D02*
G75*
G03*
X102316000Y-77167431I-126969J31D01*
G01*
X104602000Y-77500000D02*
G75*
G02*
X104475000Y-77373000I0J127000D01*
G01*
X102696969Y-77705569D02*
G75*
G02*
X102570000Y-77832569I-126969J-31D01*
G01*
X103840000Y-77167400D02*
G75*
G03*
X103713000Y-77294431I0J-127000D01*
G01*
X101934969Y-77294431D02*
G75*
G03*
X101808000Y-77167431I-126969J31D01*
G01*
X102316000Y-77167400D02*
G75*
G03*
X102189000Y-77294431I0J-127000D01*
G01*
X104094000Y-77832600D02*
G75*
G02*
X103967000Y-77705569I0J127000D01*
G01*
X101808000Y-77167400D02*
G75*
G03*
X101681000Y-77294431I0J-127000D01*
G01*
X104474969Y-77294431D02*
G75*
G03*
X104348000Y-77167431I-126969J31D01*
G01*
X102570000Y-77832600D02*
G75*
G02*
X102443000Y-77705569I0J127000D01*
G01*
X103586000Y-77832600D02*
G75*
G02*
X103459000Y-77705569I0J127000D01*
G01*
X101680969Y-77705569D02*
G75*
G02*
X101554000Y-77832569I-126969J-31D01*
G01*
X103332000Y-77167400D02*
G75*
G03*
X103205000Y-77294431I0J-127000D01*
G01*
X102062000Y-77832600D02*
G75*
G02*
X101935000Y-77705569I0J127000D01*
G01*
X104220969Y-77705569D02*
G75*
G02*
X104094000Y-77832569I-126969J-31D01*
G01*
X101427000Y-77627000D02*
G75*
G03*
X101300000Y-77500000I-127000J0D01*
G01*
X101554000Y-77832600D02*
G75*
G02*
X101427000Y-77705569I0J127000D01*
G01*
X103712969Y-77705569D02*
G75*
G02*
X103586000Y-77832569I-126969J-31D01*
G01*
X102950969Y-77294431D02*
G75*
G03*
X102824000Y-77167431I-126969J31D01*
G01*
X103078000Y-77832600D02*
G75*
G02*
X102951000Y-77705569I0J127000D01*
G01*
X103204969Y-77705569D02*
G75*
G02*
X103078000Y-77832569I-126969J-31D01*
G01*
X104348000Y-77167400D02*
G75*
G03*
X104221000Y-77294431I0J-127000D01*
G01*
X102824000Y-77167400D02*
G75*
G03*
X102697000Y-77294431I0J-127000D01*
G01*
X102188969Y-77705569D02*
G75*
G02*
X102062000Y-77832569I-126969J-31D01*
G01*
X103966969Y-77294431D02*
G75*
G03*
X103840000Y-77167431I-126969J31D01*
G01*
X103458969Y-77294431D02*
G75*
G03*
X103332000Y-77167431I-126969J31D01*
G01*
X98200000Y-79500000D02*
X98700000Y-79000000D01*
X111100000Y-79100000D02*
X111600000Y-78600000D01*
X98700000Y-79000000D02*
X101400000Y-79000000D01*
X103559000Y-79000000D02*
X103559000Y-78840071D01*
X102797000Y-79000000D02*
X102797000Y-79159929D01*
X103305000Y-78840071D02*
X103305000Y-79000000D01*
X109800000Y-79100000D02*
X111100000Y-79100000D01*
X102035000Y-79159929D02*
X102035000Y-79000000D01*
X102543000Y-79159929D02*
X102543000Y-79000000D01*
X103813000Y-78840071D02*
X103813000Y-79000000D01*
X97500000Y-79500000D02*
X98200000Y-79500000D01*
X103051000Y-79159929D02*
X103051000Y-79000000D01*
X102797000Y-78840071D02*
X102797000Y-79000000D01*
X102543000Y-79000000D02*
X102543000Y-78840071D01*
X102289000Y-78840071D02*
X102289000Y-79000000D01*
X103305000Y-79000000D02*
X103305000Y-79159929D01*
X111600000Y-78600000D02*
X112000000Y-78600000D01*
X104575000Y-79159929D02*
X104575000Y-79000000D01*
X109400000Y-78700000D02*
X109800000Y-79100000D01*
X105083000Y-79159929D02*
X105083000Y-79127000D01*
X104321000Y-79000000D02*
X104321000Y-79159929D01*
X102289000Y-79000000D02*
X102289000Y-79159929D01*
X107400000Y-79000000D02*
X107700000Y-78700000D01*
X103559000Y-79159929D02*
X103559000Y-79000000D01*
X101781000Y-78840071D02*
X101781000Y-78873000D01*
X103813000Y-79000000D02*
X103813000Y-79159929D01*
X101527000Y-78873000D02*
X101527000Y-78840071D01*
X104321000Y-78840071D02*
X104321000Y-79000000D01*
X104829000Y-79000000D02*
X104829000Y-79159929D01*
X104575000Y-79000000D02*
X104575000Y-78840071D01*
X101781000Y-78873000D02*
X101781000Y-79159929D01*
X105210000Y-79000000D02*
X107132257Y-79000000D01*
X104067000Y-79159929D02*
X104067000Y-79000000D01*
X107132257Y-79000000D02*
X107400000Y-79000000D01*
X102035000Y-79000000D02*
X102035000Y-78840071D01*
X104829000Y-78840071D02*
X104829000Y-79000000D01*
X103051000Y-79000000D02*
X103051000Y-78840071D01*
X107700000Y-78700000D02*
X109400000Y-78700000D01*
X104067000Y-79000000D02*
X104067000Y-78840071D01*
X103559029Y-79159929D02*
G75*
G02*
X103432000Y-79286929I-127029J29D01*
G01*
X101908000Y-79286900D02*
G75*
G02*
X101781000Y-79159929I0J127000D01*
G01*
X104067029Y-79159929D02*
G75*
G02*
X103940000Y-79286929I-127029J29D01*
G01*
X103305029Y-78840071D02*
G75*
G03*
X103178000Y-78713071I-127029J-29D01*
G01*
X104956000Y-79286900D02*
G75*
G02*
X104829000Y-79159929I0J127000D01*
G01*
X104702000Y-78713100D02*
G75*
G03*
X104575000Y-78840071I0J-127000D01*
G01*
X104448000Y-79286900D02*
G75*
G02*
X104321000Y-79159929I0J127000D01*
G01*
X102035029Y-79159929D02*
G75*
G02*
X101908000Y-79286929I-127029J29D01*
G01*
X104321029Y-78840071D02*
G75*
G03*
X104194000Y-78713071I-127029J-29D01*
G01*
X105210000Y-79000000D02*
G75*
G03*
X105083000Y-79127000I0J-127000D01*
G01*
X102924000Y-79286900D02*
G75*
G02*
X102797000Y-79159929I0J127000D01*
G01*
X103051029Y-79159929D02*
G75*
G02*
X102924000Y-79286929I-127029J29D01*
G01*
X102289029Y-78840071D02*
G75*
G03*
X102162000Y-78713071I-127029J-29D01*
G01*
X103432000Y-79286900D02*
G75*
G02*
X103305000Y-79159929I0J127000D01*
G01*
X101781029Y-78840071D02*
G75*
G03*
X101654000Y-78713071I-127029J-29D01*
G01*
X103686000Y-78713100D02*
G75*
G03*
X103559000Y-78840071I0J-127000D01*
G01*
X104575029Y-79159929D02*
G75*
G02*
X104448000Y-79286929I-127029J29D01*
G01*
X103813029Y-78840071D02*
G75*
G03*
X103686000Y-78713071I-127029J-29D01*
G01*
X103940000Y-79286900D02*
G75*
G02*
X103813000Y-79159929I0J127000D01*
G01*
X102543029Y-79159929D02*
G75*
G02*
X102416000Y-79286929I-127029J29D01*
G01*
X102162000Y-78713100D02*
G75*
G03*
X102035000Y-78840071I0J-127000D01*
G01*
X104194000Y-78713100D02*
G75*
G03*
X104067000Y-78840071I0J-127000D01*
G01*
X102797029Y-78840071D02*
G75*
G03*
X102670000Y-78713071I-127029J-29D01*
G01*
X104829029Y-78840071D02*
G75*
G03*
X104702000Y-78713071I-127029J-29D01*
G01*
X103178000Y-78713100D02*
G75*
G03*
X103051000Y-78840071I0J-127000D01*
G01*
X102670000Y-78713100D02*
G75*
G03*
X102543000Y-78840071I0J-127000D01*
G01*
X101654000Y-78713100D02*
G75*
G03*
X101527000Y-78840071I0J-127000D01*
G01*
X105083029Y-79159929D02*
G75*
G02*
X104956000Y-79286929I-127029J29D01*
G01*
X101527000Y-78873000D02*
G75*
G02*
X101400000Y-79000000I-127000J0D01*
G01*
X102416000Y-79286900D02*
G75*
G02*
X102289000Y-79159929I0J127000D01*
G01*
X92500000Y-87500000D02*
X91750000Y-87500000D01*
X91750000Y-87500000D02*
X91500000Y-87250000D01*
X93000000Y-88000000D02*
X92500000Y-87500000D01*
X91500000Y-87250000D02*
X91500000Y-81500000D01*
X92500000Y-85500000D02*
X92500000Y-81500000D01*
X93000000Y-86000000D02*
X92500000Y-85500000D01*
X93500000Y-83500000D02*
X93500000Y-82000000D01*
X93500000Y-82000000D02*
X93500000Y-81500000D01*
X94000000Y-84000000D02*
X93500000Y-83500000D01*
X94500000Y-82000000D02*
X94500000Y-81500000D01*
X94500000Y-83500000D02*
X94500000Y-82000000D01*
X95000000Y-84000000D02*
X94500000Y-83500000D01*
D41*
X95000000Y-87000000D02*
X95000000Y-86280000D01*
X98000000Y-90320000D02*
X97980000Y-90300000D01*
X98000000Y-91000000D02*
X98000000Y-90320000D01*
X96000000Y-87000000D02*
X96000000Y-86280000D01*
X97270000Y-86270000D02*
X96010000Y-86270000D01*
X98000000Y-87000000D02*
X97270000Y-86270000D01*
D42*
X67490000Y-94800000D02*
X67490000Y-95490000D01*
X67490000Y-95490000D02*
X67500000Y-95500000D01*
X70300000Y-93600000D02*
X70300000Y-93100000D01*
X76000000Y-98000000D02*
X75000000Y-97000000D01*
X75000000Y-97000000D02*
X73700000Y-97000000D01*
X73700000Y-97000000D02*
X70300000Y-93600000D01*
D39*
X100472300Y-70023767D02*
X100472300Y-70486632D01*
X100000000Y-68883534D02*
X100000000Y-68430000D01*
X97327300Y-75441263D02*
X97327300Y-75050582D01*
X97767203Y-73988560D02*
X99908855Y-71846908D01*
X97000000Y-76000000D02*
X97163650Y-75836350D01*
X101290000Y-68883534D02*
X101290000Y-68430000D01*
X100817700Y-70558168D02*
X100817700Y-70023767D01*
X100203671Y-72040564D02*
X98062020Y-74182215D01*
X97836350Y-75836350D02*
X98000000Y-76000000D01*
X97672700Y-75441263D02*
X97672700Y-75122118D01*
D42*
X66750000Y-87750000D02*
X66750000Y-85060000D01*
X77500000Y-98500000D02*
X74600000Y-98500000D01*
X79000000Y-97000000D02*
X77500000Y-98500000D01*
X69800000Y-93700000D02*
X69800000Y-93400000D01*
X66750000Y-85060000D02*
X66700000Y-85010000D01*
X74600000Y-98500000D02*
X69800000Y-93700000D01*
D41*
X95000000Y-92000000D02*
X95000000Y-91320000D01*
X95000000Y-91320000D02*
X95020000Y-91300000D01*
D42*
X67800000Y-85800000D02*
X67800000Y-85010000D01*
X69250000Y-87250000D02*
X67800000Y-85800000D01*
D39*
X112177368Y-85172700D02*
X112961263Y-85172700D01*
X112051950Y-85224650D02*
X112000000Y-85276600D01*
X113356350Y-85336350D02*
X113520000Y-85500000D01*
X113356350Y-84663650D02*
X113520000Y-84500000D01*
X112961263Y-84827300D02*
X112177368Y-84827300D01*
X112000000Y-84723400D02*
X112051950Y-84775350D01*
X117817700Y-83898918D02*
X117817700Y-83523767D01*
X118290000Y-82383534D02*
X118290000Y-81930000D01*
X115038736Y-85172700D02*
X116543918Y-85172700D01*
X114643650Y-85336350D02*
X114480000Y-85500000D01*
D42*
X54600000Y-105300000D02*
X53350000Y-104050000D01*
X53350000Y-104050000D02*
X52437500Y-104050000D01*
D45*
X88000000Y-81000000D02*
X87500000Y-80500000D01*
X60193200Y-102075000D02*
X61706800Y-102075000D01*
X59875000Y-101756800D02*
X60193200Y-102075000D01*
X64175000Y-99606800D02*
X64175000Y-94193200D01*
X60200000Y-100710000D02*
X59875001Y-101034999D01*
X67706801Y-79674999D02*
X72825001Y-79674999D01*
X63675000Y-83706800D02*
X67706801Y-79674999D01*
X59875001Y-101034999D02*
X59875000Y-101756800D01*
X64175000Y-94193200D02*
X63675000Y-93693200D01*
X61706800Y-102075000D02*
X64175000Y-99606800D01*
X61270000Y-100710000D02*
X61300000Y-100680000D01*
X72825001Y-79674999D02*
X72900000Y-79600000D01*
X63675000Y-93693200D02*
X63675000Y-83706800D01*
X60200000Y-100710000D02*
X61270000Y-100710000D01*
X59425000Y-101943200D02*
X60006800Y-102525000D01*
X59100000Y-100710000D02*
X58010000Y-100710000D01*
X72825001Y-80125001D02*
X72900000Y-80200000D01*
X87000000Y-81000000D02*
X86500000Y-80500000D01*
X60006800Y-102525000D02*
X61893200Y-102525000D01*
X59100000Y-100710000D02*
X59424999Y-101034999D01*
X64625000Y-94006800D02*
X64125000Y-93506800D01*
X64125000Y-93506800D02*
X64125000Y-83893200D01*
X64125000Y-83893200D02*
X67893199Y-80125001D01*
X59424999Y-101034999D02*
X59425000Y-101943200D01*
X64625000Y-99793200D02*
X64625000Y-94006800D01*
X58010000Y-100710000D02*
X57700000Y-100400000D01*
X67893199Y-80125001D02*
X72825001Y-80125001D01*
X61893200Y-102525000D02*
X64625000Y-99793200D01*
X61270000Y-99690000D02*
X61300000Y-99720000D01*
X60200000Y-99690000D02*
X59100000Y-99690000D01*
X58390000Y-99690000D02*
X58300000Y-99600000D01*
X60200000Y-99690000D02*
X61270000Y-99690000D01*
X59100000Y-99690000D02*
X58390000Y-99690000D01*
X79000000Y-74000000D02*
X75500000Y-77500000D01*
X81000000Y-74000000D02*
X79000000Y-74000000D01*
X75500000Y-77500000D02*
X75500000Y-83500000D01*
X77500000Y-78500000D02*
X77500000Y-83500000D01*
X78000000Y-78000000D02*
X77500000Y-78500000D01*
X79000000Y-78000000D02*
X78000000Y-78000000D01*
X76500000Y-77500000D02*
X76500000Y-83500000D01*
X78000000Y-76000000D02*
X76500000Y-77500000D01*
X80000000Y-76000000D02*
X78000000Y-76000000D01*
D42*
X109200000Y-75600000D02*
X111790000Y-75600000D01*
X111780000Y-73560000D02*
X111820000Y-73600000D01*
X111780000Y-72600000D02*
X111780000Y-73560000D01*
X111790000Y-74600000D02*
X111790000Y-73630000D01*
X111790000Y-73630000D02*
X111820000Y-73600000D01*
X108600000Y-76200000D02*
X109200000Y-75600000D01*
X111790000Y-74600000D02*
X111790000Y-75600000D01*
X48900000Y-103990000D02*
X48900000Y-100700000D01*
X60500000Y-55490000D02*
X60500000Y-51000000D01*
X62500000Y-55490000D02*
X62500000Y-51000000D01*
X64500000Y-55490000D02*
X64500000Y-51000000D01*
X66500000Y-55490000D02*
X66500000Y-51000000D01*
X68500000Y-55490000D02*
X68500000Y-51000000D01*
X70500000Y-55490000D02*
X70500000Y-51000000D01*
X72500000Y-55490000D02*
X72500000Y-51000000D01*
X74500000Y-51000000D02*
X74500000Y-55490000D01*
X48910000Y-105000000D02*
X48900000Y-105010000D01*
X50562500Y-105000000D02*
X48910000Y-105000000D01*
X51000000Y-86100000D02*
X51000000Y-77250000D01*
X50500000Y-86600000D02*
X51000000Y-86100000D01*
X50500000Y-88062500D02*
X50500000Y-86600000D01*
X72500000Y-118000000D02*
X71250000Y-116750000D01*
X72500000Y-121750000D02*
X72500000Y-118000000D01*
X71250000Y-116750000D02*
X64000000Y-116750000D01*
X54000000Y-91400000D02*
X52537500Y-89937500D01*
X60800000Y-95000000D02*
X60800000Y-98100000D01*
X52537500Y-89937500D02*
X51450000Y-89937500D01*
X60800000Y-95000000D02*
X60800000Y-93500000D01*
X60800000Y-93500000D02*
X58700000Y-91400000D01*
X58700000Y-91400000D02*
X54000000Y-91400000D01*
X60800000Y-98100000D02*
X61200000Y-98500000D01*
G04 #@! TA.AperFunction,Conductor*
G36*
X81911644Y-74501385D02*
G01*
X81911705Y-74501008D01*
X81922136Y-74502698D01*
X82059388Y-74505214D01*
X82066362Y-74504345D01*
X82075865Y-74501754D01*
X82088964Y-74500000D01*
X86444836Y-74500000D01*
X86480050Y-74514586D01*
X86494636Y-74549800D01*
X86494377Y-74554876D01*
X86335224Y-76108206D01*
X86317124Y-76141750D01*
X86280607Y-76152671D01*
X86268202Y-76149761D01*
X86212263Y-76128791D01*
X86206237Y-76127358D01*
X86149043Y-76121145D01*
X86146369Y-76121000D01*
X86113906Y-76121000D01*
X86106901Y-76123901D01*
X86104000Y-76130906D01*
X86104000Y-78069093D01*
X86110487Y-78084754D01*
X86125198Y-78099466D01*
X86128729Y-78123598D01*
X85870649Y-80642470D01*
X85852549Y-80676014D01*
X85843716Y-80681766D01*
X85789033Y-80709628D01*
X85709628Y-80789033D01*
X85707849Y-80792525D01*
X85666364Y-80873945D01*
X85658648Y-80889088D01*
X85641081Y-81000000D01*
X85641694Y-81003870D01*
X85657087Y-81101055D01*
X85658648Y-81110912D01*
X85709628Y-81210967D01*
X85786109Y-81287448D01*
X85800695Y-81322662D01*
X85800436Y-81327738D01*
X85759948Y-81722902D01*
X85745621Y-81753040D01*
X85709628Y-81789033D01*
X85658648Y-81889088D01*
X85641081Y-82000000D01*
X85658648Y-82110912D01*
X85660426Y-82114401D01*
X85660427Y-82114405D01*
X85703223Y-82198398D01*
X85708392Y-82226082D01*
X85156488Y-87612675D01*
X85138388Y-87646219D01*
X85099156Y-87656786D01*
X85090240Y-87655374D01*
X85000000Y-87641081D01*
X84996130Y-87641694D01*
X84892956Y-87658035D01*
X84892954Y-87658036D01*
X84889088Y-87658648D01*
X84789033Y-87709628D01*
X84709628Y-87789033D01*
X84658648Y-87889088D01*
X84658036Y-87892954D01*
X84658035Y-87892956D01*
X84655191Y-87910912D01*
X84641081Y-88000000D01*
X84641694Y-88003870D01*
X84655395Y-88090372D01*
X84658648Y-88110912D01*
X84709628Y-88210967D01*
X84789033Y-88290372D01*
X84889088Y-88341352D01*
X84892954Y-88341964D01*
X84892956Y-88341965D01*
X84996130Y-88358306D01*
X85000000Y-88358919D01*
X85003870Y-88358306D01*
X85003871Y-88358306D01*
X85017421Y-88356160D01*
X85054483Y-88365058D01*
X85074398Y-88397557D01*
X85074752Y-88410421D01*
X84831326Y-90786261D01*
X84772469Y-91360703D01*
X84754369Y-91394247D01*
X84717852Y-91405168D01*
X84693341Y-91395685D01*
X84592834Y-91321450D01*
X84586329Y-91318005D01*
X84463893Y-91275009D01*
X84458013Y-91273719D01*
X84437112Y-91271743D01*
X84431901Y-91273901D01*
X84429000Y-91280906D01*
X84429000Y-92719093D01*
X84431901Y-92726098D01*
X84437112Y-92728256D01*
X84458012Y-92726281D01*
X84463893Y-92724991D01*
X84564945Y-92689504D01*
X84603003Y-92691598D01*
X84628433Y-92719990D01*
X84630987Y-92741567D01*
X84480792Y-94207475D01*
X84416520Y-94834765D01*
X84398420Y-94868309D01*
X84361903Y-94879230D01*
X84328359Y-94861130D01*
X84322607Y-94852298D01*
X84292152Y-94792525D01*
X84292149Y-94792522D01*
X84290372Y-94789033D01*
X84210967Y-94709628D01*
X84110912Y-94658648D01*
X84107046Y-94658036D01*
X84107044Y-94658035D01*
X84003870Y-94641694D01*
X84000000Y-94641081D01*
X83996130Y-94641694D01*
X83892956Y-94658035D01*
X83892954Y-94658036D01*
X83889088Y-94658648D01*
X83789033Y-94709628D01*
X83709628Y-94789033D01*
X83658648Y-94889088D01*
X83641081Y-95000000D01*
X83658648Y-95110912D01*
X83709628Y-95210967D01*
X83789033Y-95290372D01*
X83889088Y-95341352D01*
X83892954Y-95341964D01*
X83892956Y-95341965D01*
X83996130Y-95358306D01*
X84000000Y-95358919D01*
X84003870Y-95358306D01*
X84107044Y-95341965D01*
X84107046Y-95341964D01*
X84110912Y-95341352D01*
X84210967Y-95290372D01*
X84288946Y-95212393D01*
X84324160Y-95197807D01*
X84359374Y-95212393D01*
X84373960Y-95247607D01*
X84373701Y-95252674D01*
X84015765Y-98746130D01*
X84001426Y-98886083D01*
X83991534Y-98911139D01*
X83232076Y-99910426D01*
X83224408Y-99920516D01*
X83191488Y-99939726D01*
X83162150Y-99934755D01*
X83114402Y-99910426D01*
X83114401Y-99910426D01*
X83110912Y-99908648D01*
X83107046Y-99908036D01*
X83107044Y-99908035D01*
X83003870Y-99891694D01*
X83000000Y-99891081D01*
X82996130Y-99891694D01*
X82892956Y-99908035D01*
X82892954Y-99908036D01*
X82889088Y-99908648D01*
X82789033Y-99959628D01*
X82709628Y-100039033D01*
X82658648Y-100139088D01*
X82641081Y-100250000D01*
X82658648Y-100360912D01*
X82709628Y-100460967D01*
X82738002Y-100489341D01*
X82752588Y-100524555D01*
X82742437Y-100554688D01*
X82702319Y-100607475D01*
X82102129Y-101397199D01*
X82097500Y-101402471D01*
X80622495Y-102860522D01*
X80618330Y-102864201D01*
X80500105Y-102957403D01*
X80499379Y-102958075D01*
X80499378Y-102958075D01*
X80192934Y-103241352D01*
X80173244Y-103259553D01*
X80173176Y-103259598D01*
X80170421Y-103263721D01*
X80163408Y-103274217D01*
X80157215Y-103281764D01*
X78281765Y-105157213D01*
X78274220Y-105163406D01*
X78259596Y-105173177D01*
X78259536Y-105173267D01*
X78256949Y-105176066D01*
X78256948Y-105176066D01*
X78013224Y-105439731D01*
X78011672Y-105441336D01*
X76477903Y-106957475D01*
X73407097Y-109992984D01*
X73407097Y-109992985D01*
X73400000Y-110000000D01*
X73400000Y-110110491D01*
X73385414Y-110145705D01*
X73350200Y-110160291D01*
X73314986Y-110145705D01*
X73314326Y-110144944D01*
X73307205Y-110137823D01*
X73197361Y-110055500D01*
X73191201Y-110052127D01*
X73062263Y-110003791D01*
X73056237Y-110002358D01*
X72999043Y-109996145D01*
X72996369Y-109996000D01*
X72563906Y-109996000D01*
X72556901Y-109998901D01*
X72554000Y-110005906D01*
X72554000Y-111644093D01*
X72556901Y-111651098D01*
X72563906Y-111653999D01*
X72996368Y-111653999D01*
X72999043Y-111653854D01*
X73056238Y-111647642D01*
X73062262Y-111646210D01*
X73191201Y-111597873D01*
X73197361Y-111594500D01*
X73307205Y-111512177D01*
X73314683Y-111504699D01*
X73316172Y-111506188D01*
X73343157Y-111490210D01*
X73380080Y-111499669D01*
X73399499Y-111532466D01*
X73400000Y-111539509D01*
X73400000Y-111850200D01*
X73385414Y-111885414D01*
X73350200Y-111900000D01*
X68749800Y-111900000D01*
X68714586Y-111885414D01*
X68700000Y-111850200D01*
X68700000Y-111539509D01*
X68714586Y-111504295D01*
X68749800Y-111489709D01*
X68785014Y-111504295D01*
X68785674Y-111505056D01*
X68792795Y-111512177D01*
X68902639Y-111594500D01*
X68908799Y-111597873D01*
X69037737Y-111646209D01*
X69043763Y-111647642D01*
X69100957Y-111653855D01*
X69103631Y-111654000D01*
X69536094Y-111654000D01*
X69543099Y-111651099D01*
X69546000Y-111644094D01*
X69546000Y-111644093D01*
X70054000Y-111644093D01*
X70056901Y-111651098D01*
X70063906Y-111653999D01*
X70496368Y-111653999D01*
X70499043Y-111653854D01*
X70556238Y-111647642D01*
X70562262Y-111646210D01*
X70691201Y-111597873D01*
X70697361Y-111594500D01*
X70807205Y-111512177D01*
X70812177Y-111507205D01*
X70894500Y-111397361D01*
X70897873Y-111391201D01*
X70946209Y-111262263D01*
X70947642Y-111256237D01*
X70953855Y-111199043D01*
X70954000Y-111196369D01*
X70954000Y-111196368D01*
X71146001Y-111196368D01*
X71146146Y-111199043D01*
X71152358Y-111256238D01*
X71153790Y-111262262D01*
X71202127Y-111391201D01*
X71205500Y-111397361D01*
X71287823Y-111507205D01*
X71292795Y-111512177D01*
X71402639Y-111594500D01*
X71408799Y-111597873D01*
X71537737Y-111646209D01*
X71543763Y-111647642D01*
X71600957Y-111653855D01*
X71603631Y-111654000D01*
X72036094Y-111654000D01*
X72043099Y-111651099D01*
X72046000Y-111644094D01*
X72046000Y-111088906D01*
X72043099Y-111081901D01*
X72036094Y-111079000D01*
X71155907Y-111079000D01*
X71148902Y-111081901D01*
X71146001Y-111088906D01*
X71146001Y-111196368D01*
X70954000Y-111196368D01*
X70954000Y-111088906D01*
X70951099Y-111081901D01*
X70944094Y-111079000D01*
X70063906Y-111079000D01*
X70056901Y-111081901D01*
X70054000Y-111088906D01*
X70054000Y-111644093D01*
X69546000Y-111644093D01*
X69546000Y-110561094D01*
X70054000Y-110561094D01*
X70056901Y-110568099D01*
X70063906Y-110571000D01*
X70944093Y-110571000D01*
X70951098Y-110568099D01*
X70953999Y-110561094D01*
X71146000Y-110561094D01*
X71148901Y-110568099D01*
X71155906Y-110571000D01*
X72036094Y-110571000D01*
X72043099Y-110568099D01*
X72046000Y-110561094D01*
X72046000Y-110005907D01*
X72043099Y-109998902D01*
X72036094Y-109996001D01*
X71603632Y-109996001D01*
X71600957Y-109996146D01*
X71543762Y-110002358D01*
X71537738Y-110003790D01*
X71408799Y-110052127D01*
X71402639Y-110055500D01*
X71292795Y-110137823D01*
X71287823Y-110142795D01*
X71205500Y-110252639D01*
X71202127Y-110258799D01*
X71153791Y-110387737D01*
X71152358Y-110393763D01*
X71146145Y-110450957D01*
X71146000Y-110453631D01*
X71146000Y-110561094D01*
X70953999Y-110561094D01*
X70953999Y-110453632D01*
X70953854Y-110450957D01*
X70947642Y-110393762D01*
X70946210Y-110387738D01*
X70897873Y-110258799D01*
X70894500Y-110252639D01*
X70812177Y-110142795D01*
X70807205Y-110137823D01*
X70697361Y-110055500D01*
X70691201Y-110052127D01*
X70562263Y-110003791D01*
X70556237Y-110002358D01*
X70499043Y-109996145D01*
X70496369Y-109996000D01*
X70063906Y-109996000D01*
X70056901Y-109998901D01*
X70054000Y-110005906D01*
X70054000Y-110561094D01*
X69546000Y-110561094D01*
X69546000Y-110005907D01*
X69543099Y-109998902D01*
X69536094Y-109996001D01*
X69103632Y-109996001D01*
X69100957Y-109996146D01*
X69043762Y-110002358D01*
X69037738Y-110003790D01*
X68908799Y-110052127D01*
X68902639Y-110055500D01*
X68792795Y-110137823D01*
X68785317Y-110145301D01*
X68783828Y-110143812D01*
X68756843Y-110159790D01*
X68719920Y-110150331D01*
X68700501Y-110117534D01*
X68700000Y-110110491D01*
X68700000Y-109300000D01*
X69341081Y-109300000D01*
X69358648Y-109410912D01*
X69409628Y-109510967D01*
X69489033Y-109590372D01*
X69492525Y-109592151D01*
X69584645Y-109639088D01*
X69589088Y-109641352D01*
X69592954Y-109641964D01*
X69592956Y-109641965D01*
X69696130Y-109658306D01*
X69700000Y-109658919D01*
X69703870Y-109658306D01*
X69807044Y-109641965D01*
X69807046Y-109641964D01*
X69810912Y-109641352D01*
X69815356Y-109639088D01*
X69907475Y-109592151D01*
X69910967Y-109590372D01*
X69990372Y-109510967D01*
X70041352Y-109410912D01*
X70058919Y-109300000D01*
X71441081Y-109300000D01*
X71458648Y-109410912D01*
X71509628Y-109510967D01*
X71589033Y-109590372D01*
X71592525Y-109592151D01*
X71684645Y-109639088D01*
X71689088Y-109641352D01*
X71692954Y-109641964D01*
X71692956Y-109641965D01*
X71796130Y-109658306D01*
X71800000Y-109658919D01*
X71803870Y-109658306D01*
X71907044Y-109641965D01*
X71907046Y-109641964D01*
X71910912Y-109641352D01*
X71915356Y-109639088D01*
X72007475Y-109592151D01*
X72010967Y-109590372D01*
X72090372Y-109510967D01*
X72141352Y-109410912D01*
X72158919Y-109300000D01*
X72141352Y-109189088D01*
X72090372Y-109089033D01*
X72086553Y-109085214D01*
X72086173Y-109084297D01*
X72085297Y-109083091D01*
X72085587Y-109082881D01*
X72071967Y-109050000D01*
X72085587Y-109017119D01*
X72085297Y-109016909D01*
X72086173Y-109015703D01*
X72086553Y-109014786D01*
X72090372Y-109010967D01*
X72125355Y-108942309D01*
X72139574Y-108914402D01*
X72139574Y-108914401D01*
X72141352Y-108910912D01*
X72142048Y-108906521D01*
X72158306Y-108803870D01*
X72158919Y-108800000D01*
X72149137Y-108738239D01*
X72141965Y-108692956D01*
X72141964Y-108692954D01*
X72141352Y-108689088D01*
X72090372Y-108589033D01*
X72010967Y-108509628D01*
X71959041Y-108483171D01*
X71914402Y-108460426D01*
X71914401Y-108460426D01*
X71910912Y-108458648D01*
X71907046Y-108458036D01*
X71907044Y-108458035D01*
X71803870Y-108441694D01*
X71800000Y-108441081D01*
X71796130Y-108441694D01*
X71692956Y-108458035D01*
X71692954Y-108458036D01*
X71689088Y-108458648D01*
X71685599Y-108460426D01*
X71685598Y-108460426D01*
X71640959Y-108483171D01*
X71589033Y-108509628D01*
X71509628Y-108589033D01*
X71458648Y-108689088D01*
X71458036Y-108692954D01*
X71458035Y-108692956D01*
X71450863Y-108738239D01*
X71441081Y-108800000D01*
X71441694Y-108803870D01*
X71457953Y-108906521D01*
X71458648Y-108910912D01*
X71460426Y-108914401D01*
X71460426Y-108914402D01*
X71474645Y-108942309D01*
X71509628Y-109010967D01*
X71513447Y-109014786D01*
X71513827Y-109015703D01*
X71514703Y-109016909D01*
X71514413Y-109017119D01*
X71528033Y-109050000D01*
X71514413Y-109082881D01*
X71514703Y-109083091D01*
X71513827Y-109084297D01*
X71513447Y-109085214D01*
X71509628Y-109089033D01*
X71458648Y-109189088D01*
X71441081Y-109300000D01*
X70058919Y-109300000D01*
X70041352Y-109189088D01*
X69990372Y-109089033D01*
X69986553Y-109085214D01*
X69986173Y-109084297D01*
X69985297Y-109083091D01*
X69985587Y-109082881D01*
X69971967Y-109050000D01*
X69985587Y-109017119D01*
X69985297Y-109016909D01*
X69986173Y-109015703D01*
X69986553Y-109014786D01*
X69990372Y-109010967D01*
X70025355Y-108942309D01*
X70039574Y-108914402D01*
X70039574Y-108914401D01*
X70041352Y-108910912D01*
X70042048Y-108906521D01*
X70058306Y-108803870D01*
X70058919Y-108800000D01*
X70049137Y-108738239D01*
X70041965Y-108692956D01*
X70041964Y-108692954D01*
X70041352Y-108689088D01*
X69990372Y-108589033D01*
X69910967Y-108509628D01*
X69859041Y-108483171D01*
X69814402Y-108460426D01*
X69814401Y-108460426D01*
X69810912Y-108458648D01*
X69807046Y-108458036D01*
X69807044Y-108458035D01*
X69703870Y-108441694D01*
X69700000Y-108441081D01*
X69696130Y-108441694D01*
X69592956Y-108458035D01*
X69592954Y-108458036D01*
X69589088Y-108458648D01*
X69585599Y-108460426D01*
X69585598Y-108460426D01*
X69540959Y-108483171D01*
X69489033Y-108509628D01*
X69409628Y-108589033D01*
X69358648Y-108689088D01*
X69358036Y-108692954D01*
X69358035Y-108692956D01*
X69350863Y-108738239D01*
X69341081Y-108800000D01*
X69341694Y-108803870D01*
X69357953Y-108906521D01*
X69358648Y-108910912D01*
X69360426Y-108914401D01*
X69360426Y-108914402D01*
X69374645Y-108942309D01*
X69409628Y-109010967D01*
X69413447Y-109014786D01*
X69413827Y-109015703D01*
X69414703Y-109016909D01*
X69414413Y-109017119D01*
X69428033Y-109050000D01*
X69414413Y-109082881D01*
X69414703Y-109083091D01*
X69413827Y-109084297D01*
X69413447Y-109085214D01*
X69409628Y-109089033D01*
X69358648Y-109189088D01*
X69341081Y-109300000D01*
X68700000Y-109300000D01*
X68700000Y-108029302D01*
X68714586Y-107994088D01*
X68725613Y-107985771D01*
X70500000Y-107000000D01*
X70535025Y-106963739D01*
X70741478Y-106750000D01*
X73141081Y-106750000D01*
X73141694Y-106753870D01*
X73155107Y-106838554D01*
X73158648Y-106860912D01*
X73209628Y-106960967D01*
X73289033Y-107040372D01*
X73389088Y-107091352D01*
X73392954Y-107091964D01*
X73392956Y-107091965D01*
X73496130Y-107108306D01*
X73500000Y-107108919D01*
X73503870Y-107108306D01*
X73503872Y-107108306D01*
X73532891Y-107103710D01*
X73569953Y-107112608D01*
X73589868Y-107145107D01*
X73580970Y-107182169D01*
X73563292Y-107197268D01*
X73539033Y-107209628D01*
X73459628Y-107289033D01*
X73408648Y-107389088D01*
X73408036Y-107392954D01*
X73408035Y-107392956D01*
X73398141Y-107455424D01*
X73391081Y-107500000D01*
X73408648Y-107610912D01*
X73459628Y-107710967D01*
X73539033Y-107790372D01*
X73639088Y-107841352D01*
X73642954Y-107841964D01*
X73642956Y-107841965D01*
X73746130Y-107858306D01*
X73750000Y-107858919D01*
X73753870Y-107858306D01*
X73857044Y-107841965D01*
X73857046Y-107841964D01*
X73860912Y-107841352D01*
X73960967Y-107790372D01*
X74040372Y-107710967D01*
X74091352Y-107610912D01*
X74108919Y-107500000D01*
X74101859Y-107455424D01*
X74091965Y-107392956D01*
X74091964Y-107392954D01*
X74091352Y-107389088D01*
X74040372Y-107289033D01*
X73960967Y-107209628D01*
X73860912Y-107158648D01*
X73857046Y-107158036D01*
X73857044Y-107158035D01*
X73753870Y-107141694D01*
X73750000Y-107141081D01*
X73746130Y-107141694D01*
X73746128Y-107141694D01*
X73717109Y-107146290D01*
X73680047Y-107137392D01*
X73660132Y-107104893D01*
X73669030Y-107067831D01*
X73686708Y-107052732D01*
X73710967Y-107040372D01*
X73790372Y-106960967D01*
X73841352Y-106860912D01*
X73844894Y-106838554D01*
X73858306Y-106753870D01*
X73858919Y-106750000D01*
X75391081Y-106750000D01*
X75391694Y-106753870D01*
X75405107Y-106838554D01*
X75408648Y-106860912D01*
X75459628Y-106960967D01*
X75539033Y-107040372D01*
X75639088Y-107091352D01*
X75642954Y-107091964D01*
X75642956Y-107091965D01*
X75746130Y-107108306D01*
X75750000Y-107108919D01*
X75753870Y-107108306D01*
X75857044Y-107091965D01*
X75857046Y-107091964D01*
X75860912Y-107091352D01*
X75960967Y-107040372D01*
X76040372Y-106960967D01*
X76091352Y-106860912D01*
X76094894Y-106838554D01*
X76108306Y-106753870D01*
X76108919Y-106750000D01*
X76091352Y-106639088D01*
X76040372Y-106539033D01*
X75960967Y-106459628D01*
X75909041Y-106433171D01*
X75864402Y-106410426D01*
X75864401Y-106410426D01*
X75860912Y-106408648D01*
X75857046Y-106408036D01*
X75857044Y-106408035D01*
X75753870Y-106391694D01*
X75750000Y-106391081D01*
X75746130Y-106391694D01*
X75642956Y-106408035D01*
X75642954Y-106408036D01*
X75639088Y-106408648D01*
X75635599Y-106410426D01*
X75635598Y-106410426D01*
X75590959Y-106433171D01*
X75539033Y-106459628D01*
X75459628Y-106539033D01*
X75408648Y-106639088D01*
X75391081Y-106750000D01*
X73858919Y-106750000D01*
X73841352Y-106639088D01*
X73790372Y-106539033D01*
X73710967Y-106459628D01*
X73659041Y-106433171D01*
X73614402Y-106410426D01*
X73614401Y-106410426D01*
X73610912Y-106408648D01*
X73607046Y-106408036D01*
X73607044Y-106408035D01*
X73503870Y-106391694D01*
X73500000Y-106391081D01*
X73496130Y-106391694D01*
X73392956Y-106408035D01*
X73392954Y-106408036D01*
X73389088Y-106408648D01*
X73385599Y-106410426D01*
X73385598Y-106410426D01*
X73340959Y-106433171D01*
X73289033Y-106459628D01*
X73209628Y-106539033D01*
X73158648Y-106639088D01*
X73141081Y-106750000D01*
X70741478Y-106750000D01*
X71495025Y-105969857D01*
X71523053Y-105955268D01*
X71607044Y-105941965D01*
X71607046Y-105941964D01*
X71610912Y-105941352D01*
X71710967Y-105890372D01*
X71714786Y-105886553D01*
X71715703Y-105886173D01*
X71716909Y-105885297D01*
X71717119Y-105885587D01*
X71750000Y-105871967D01*
X71782881Y-105885587D01*
X71783091Y-105885297D01*
X71784297Y-105886173D01*
X71785214Y-105886553D01*
X71789033Y-105890372D01*
X71889088Y-105941352D01*
X71892954Y-105941964D01*
X71892956Y-105941965D01*
X71996130Y-105958306D01*
X72000000Y-105958919D01*
X72003870Y-105958306D01*
X72107044Y-105941965D01*
X72107046Y-105941964D01*
X72110912Y-105941352D01*
X72210967Y-105890372D01*
X72290372Y-105810967D01*
X72341352Y-105710912D01*
X72345362Y-105685598D01*
X72358306Y-105603870D01*
X72358919Y-105600000D01*
X72354457Y-105571831D01*
X72343081Y-105500000D01*
X73241081Y-105500000D01*
X73241694Y-105503870D01*
X73257533Y-105603870D01*
X73258648Y-105610912D01*
X73260426Y-105614401D01*
X73260426Y-105614402D01*
X73273080Y-105639236D01*
X73309628Y-105710967D01*
X73389033Y-105790372D01*
X73489088Y-105841352D01*
X73492954Y-105841964D01*
X73492956Y-105841965D01*
X73596130Y-105858306D01*
X73600000Y-105858919D01*
X73603870Y-105858306D01*
X73707044Y-105841965D01*
X73707046Y-105841964D01*
X73710912Y-105841352D01*
X73792071Y-105800000D01*
X76441081Y-105800000D01*
X76441694Y-105803870D01*
X76457316Y-105902501D01*
X76458648Y-105910912D01*
X76509628Y-106010967D01*
X76589033Y-106090372D01*
X76689088Y-106141352D01*
X76692954Y-106141964D01*
X76692956Y-106141965D01*
X76796130Y-106158306D01*
X76800000Y-106158919D01*
X76803870Y-106158306D01*
X76907044Y-106141965D01*
X76907046Y-106141964D01*
X76910912Y-106141352D01*
X77010967Y-106090372D01*
X77090372Y-106010967D01*
X77141352Y-105910912D01*
X77142685Y-105902501D01*
X77158306Y-105803870D01*
X77158919Y-105800000D01*
X77156562Y-105785121D01*
X77141965Y-105692956D01*
X77141964Y-105692954D01*
X77141352Y-105689088D01*
X77090372Y-105589033D01*
X77010967Y-105509628D01*
X76910912Y-105458648D01*
X76907046Y-105458036D01*
X76907044Y-105458035D01*
X76803870Y-105441694D01*
X76800000Y-105441081D01*
X76796130Y-105441694D01*
X76692956Y-105458035D01*
X76692954Y-105458036D01*
X76689088Y-105458648D01*
X76589033Y-105509628D01*
X76509628Y-105589033D01*
X76458648Y-105689088D01*
X76458036Y-105692954D01*
X76458035Y-105692956D01*
X76443438Y-105785121D01*
X76441081Y-105800000D01*
X73792071Y-105800000D01*
X73810967Y-105790372D01*
X73890372Y-105710967D01*
X73926920Y-105639236D01*
X73939574Y-105614402D01*
X73939574Y-105614401D01*
X73941352Y-105610912D01*
X73942468Y-105603870D01*
X73958306Y-105503870D01*
X73958919Y-105500000D01*
X73949684Y-105441694D01*
X73941965Y-105392956D01*
X73941964Y-105392954D01*
X73941352Y-105389088D01*
X73895960Y-105300000D01*
X75541081Y-105300000D01*
X75541694Y-105303870D01*
X75555736Y-105392525D01*
X75558648Y-105410912D01*
X75560426Y-105414401D01*
X75560426Y-105414402D01*
X75573332Y-105439731D01*
X75609628Y-105510967D01*
X75689033Y-105590372D01*
X75789088Y-105641352D01*
X75792954Y-105641964D01*
X75792956Y-105641965D01*
X75896130Y-105658306D01*
X75900000Y-105658919D01*
X75903870Y-105658306D01*
X76007044Y-105641965D01*
X76007046Y-105641964D01*
X76010912Y-105641352D01*
X76110967Y-105590372D01*
X76190372Y-105510967D01*
X76226668Y-105439731D01*
X76239574Y-105414402D01*
X76239574Y-105414401D01*
X76241352Y-105410912D01*
X76244265Y-105392525D01*
X76258876Y-105300272D01*
X76278791Y-105267774D01*
X76300272Y-105258876D01*
X76407044Y-105241965D01*
X76407046Y-105241964D01*
X76410912Y-105241352D01*
X76510967Y-105190372D01*
X76590372Y-105110967D01*
X76641352Y-105010912D01*
X76643081Y-105000000D01*
X76658306Y-104903870D01*
X76658919Y-104900000D01*
X76651188Y-104851188D01*
X76641965Y-104792956D01*
X76641964Y-104792954D01*
X76641352Y-104789088D01*
X76595960Y-104700000D01*
X77341081Y-104700000D01*
X77341694Y-104703870D01*
X77356920Y-104800000D01*
X77358648Y-104810912D01*
X77409628Y-104910967D01*
X77489033Y-104990372D01*
X77589088Y-105041352D01*
X77592954Y-105041964D01*
X77592956Y-105041965D01*
X77696130Y-105058306D01*
X77700000Y-105058919D01*
X77703870Y-105058306D01*
X77807044Y-105041965D01*
X77807046Y-105041964D01*
X77810912Y-105041352D01*
X77910967Y-104990372D01*
X77990372Y-104910967D01*
X78041352Y-104810912D01*
X78043081Y-104800000D01*
X78058306Y-104703870D01*
X78058919Y-104700000D01*
X78049587Y-104641081D01*
X78041965Y-104592956D01*
X78041964Y-104592954D01*
X78041352Y-104589088D01*
X77990372Y-104489033D01*
X77910967Y-104409628D01*
X77810912Y-104358648D01*
X77807046Y-104358036D01*
X77807044Y-104358035D01*
X77703870Y-104341694D01*
X77700000Y-104341081D01*
X77696130Y-104341694D01*
X77592956Y-104358035D01*
X77592954Y-104358036D01*
X77589088Y-104358648D01*
X77489033Y-104409628D01*
X77409628Y-104489033D01*
X77358648Y-104589088D01*
X77358036Y-104592954D01*
X77358035Y-104592956D01*
X77350413Y-104641081D01*
X77341081Y-104700000D01*
X76595960Y-104700000D01*
X76590372Y-104689033D01*
X76510967Y-104609628D01*
X76410912Y-104558648D01*
X76407046Y-104558036D01*
X76407044Y-104558035D01*
X76300272Y-104541124D01*
X76267774Y-104521209D01*
X76258876Y-104499728D01*
X76241965Y-104392956D01*
X76241964Y-104392954D01*
X76241352Y-104389088D01*
X76222914Y-104352900D01*
X76192151Y-104292525D01*
X76190372Y-104289033D01*
X76110967Y-104209628D01*
X76010912Y-104158648D01*
X76007046Y-104158036D01*
X76007044Y-104158035D01*
X75903870Y-104141694D01*
X75900000Y-104141081D01*
X75896130Y-104141694D01*
X75792956Y-104158035D01*
X75792954Y-104158036D01*
X75789088Y-104158648D01*
X75689033Y-104209628D01*
X75609628Y-104289033D01*
X75607849Y-104292525D01*
X75577087Y-104352900D01*
X75558648Y-104389088D01*
X75558036Y-104392954D01*
X75558035Y-104392956D01*
X75550413Y-104441081D01*
X75541081Y-104500000D01*
X75541694Y-104503870D01*
X75555395Y-104590372D01*
X75558648Y-104610912D01*
X75609628Y-104710967D01*
X75689033Y-104790372D01*
X75789088Y-104841352D01*
X75792956Y-104841965D01*
X75792957Y-104841965D01*
X75848821Y-104850813D01*
X75881320Y-104870728D01*
X75890218Y-104907790D01*
X75870303Y-104940289D01*
X75848821Y-104949187D01*
X75792957Y-104958035D01*
X75792956Y-104958035D01*
X75789088Y-104958648D01*
X75689033Y-105009628D01*
X75609628Y-105089033D01*
X75598480Y-105110912D01*
X75565688Y-105175272D01*
X75558648Y-105189088D01*
X75558036Y-105192954D01*
X75558035Y-105192956D01*
X75550652Y-105239574D01*
X75541081Y-105300000D01*
X73895960Y-105300000D01*
X73890372Y-105289033D01*
X73810967Y-105209628D01*
X73734065Y-105170445D01*
X73714402Y-105160426D01*
X73714401Y-105160426D01*
X73710912Y-105158648D01*
X73707046Y-105158036D01*
X73707044Y-105158035D01*
X73603870Y-105141694D01*
X73600000Y-105141081D01*
X73596130Y-105141694D01*
X73492956Y-105158035D01*
X73492954Y-105158036D01*
X73489088Y-105158648D01*
X73485599Y-105160426D01*
X73485598Y-105160426D01*
X73465935Y-105170445D01*
X73389033Y-105209628D01*
X73309628Y-105289033D01*
X73258648Y-105389088D01*
X73258036Y-105392954D01*
X73258035Y-105392956D01*
X73250316Y-105441694D01*
X73241081Y-105500000D01*
X72343081Y-105500000D01*
X72341965Y-105492956D01*
X72341964Y-105492954D01*
X72341352Y-105489088D01*
X72290372Y-105389033D01*
X72236553Y-105335214D01*
X72221967Y-105300000D01*
X72236553Y-105264786D01*
X72290372Y-105210967D01*
X72341352Y-105110912D01*
X72342164Y-105105785D01*
X72342766Y-105104578D01*
X72343177Y-105103313D01*
X72343366Y-105103374D01*
X72355532Y-105078979D01*
X72804271Y-104614402D01*
X73166552Y-104239335D01*
X73201507Y-104224140D01*
X73236968Y-104238114D01*
X73251557Y-104266142D01*
X73256920Y-104300000D01*
X73258648Y-104310912D01*
X73309628Y-104410967D01*
X73389033Y-104490372D01*
X73489088Y-104541352D01*
X73492954Y-104541964D01*
X73492956Y-104541965D01*
X73596130Y-104558306D01*
X73600000Y-104558919D01*
X73603870Y-104558306D01*
X73707044Y-104541965D01*
X73707046Y-104541964D01*
X73710912Y-104541352D01*
X73810967Y-104490372D01*
X73890372Y-104410967D01*
X73941352Y-104310912D01*
X73943081Y-104300000D01*
X73958306Y-104203870D01*
X73958919Y-104200000D01*
X73941352Y-104089088D01*
X73934712Y-104076055D01*
X73916124Y-104039574D01*
X73890372Y-103989033D01*
X73810967Y-103909628D01*
X73710912Y-103858648D01*
X73707044Y-103858035D01*
X73707043Y-103858035D01*
X73680034Y-103853757D01*
X73652200Y-103849349D01*
X73619701Y-103829434D01*
X73610803Y-103792372D01*
X73624171Y-103765564D01*
X73687500Y-103700000D01*
X78441081Y-103700000D01*
X78441694Y-103703870D01*
X78455712Y-103792372D01*
X78458648Y-103810912D01*
X78509628Y-103910967D01*
X78589033Y-103990372D01*
X78689088Y-104041352D01*
X78692954Y-104041964D01*
X78692956Y-104041965D01*
X78796130Y-104058306D01*
X78800000Y-104058919D01*
X78803870Y-104058306D01*
X78907044Y-104041965D01*
X78907046Y-104041964D01*
X78910912Y-104041352D01*
X79010967Y-103990372D01*
X79090372Y-103910967D01*
X79141352Y-103810912D01*
X79144289Y-103792372D01*
X79158306Y-103703870D01*
X79158919Y-103700000D01*
X79141352Y-103589088D01*
X79090372Y-103489033D01*
X79010967Y-103409628D01*
X78910912Y-103358648D01*
X78907046Y-103358036D01*
X78907044Y-103358035D01*
X78803870Y-103341694D01*
X78800000Y-103341081D01*
X78796130Y-103341694D01*
X78692956Y-103358035D01*
X78692954Y-103358036D01*
X78689088Y-103358648D01*
X78589033Y-103409628D01*
X78509628Y-103489033D01*
X78458648Y-103589088D01*
X78441081Y-103700000D01*
X73687500Y-103700000D01*
X74115488Y-103256907D01*
X74460228Y-102900000D01*
X74941081Y-102900000D01*
X74941694Y-102903870D01*
X74956920Y-103000000D01*
X74958648Y-103010912D01*
X75009628Y-103110967D01*
X75089033Y-103190372D01*
X75189088Y-103241352D01*
X75192954Y-103241964D01*
X75192956Y-103241965D01*
X75296130Y-103258306D01*
X75300000Y-103258919D01*
X75303870Y-103258306D01*
X75407044Y-103241965D01*
X75407046Y-103241964D01*
X75410912Y-103241352D01*
X75510967Y-103190372D01*
X75590372Y-103110967D01*
X75641352Y-103010912D01*
X75643081Y-103000000D01*
X75658306Y-102903870D01*
X75658919Y-102900000D01*
X75656562Y-102885121D01*
X75641965Y-102792956D01*
X75641964Y-102792954D01*
X75641352Y-102789088D01*
X75590372Y-102689033D01*
X75510967Y-102609628D01*
X75459041Y-102583171D01*
X75414402Y-102560426D01*
X75414401Y-102560426D01*
X75410912Y-102558648D01*
X75407046Y-102558036D01*
X75407044Y-102558035D01*
X75400629Y-102557019D01*
X77284063Y-102557019D01*
X77284676Y-102560889D01*
X77292835Y-102612400D01*
X77301630Y-102667931D01*
X77352610Y-102767986D01*
X77432015Y-102847391D01*
X77466106Y-102864761D01*
X77490859Y-102893743D01*
X77487868Y-102931740D01*
X77458648Y-102989088D01*
X77458036Y-102992954D01*
X77458035Y-102992956D01*
X77450652Y-103039574D01*
X77441081Y-103100000D01*
X77441694Y-103103870D01*
X77455677Y-103192151D01*
X77458648Y-103210912D01*
X77509628Y-103310967D01*
X77589033Y-103390372D01*
X77689088Y-103441352D01*
X77692954Y-103441964D01*
X77692956Y-103441965D01*
X77796130Y-103458306D01*
X77800000Y-103458919D01*
X77803870Y-103458306D01*
X77907044Y-103441965D01*
X77907046Y-103441964D01*
X77910912Y-103441352D01*
X78010967Y-103390372D01*
X78090372Y-103310967D01*
X78141352Y-103210912D01*
X78144324Y-103192151D01*
X78158876Y-103100272D01*
X78178791Y-103067774D01*
X78200272Y-103058876D01*
X78307044Y-103041965D01*
X78307046Y-103041964D01*
X78310912Y-103041352D01*
X78410967Y-102990372D01*
X78490372Y-102910967D01*
X78541352Y-102810912D01*
X78543081Y-102800000D01*
X78558306Y-102703870D01*
X78558919Y-102700000D01*
X78556034Y-102681782D01*
X78541965Y-102592956D01*
X78541964Y-102592954D01*
X78541352Y-102589088D01*
X78495960Y-102500000D01*
X79141081Y-102500000D01*
X79141694Y-102503870D01*
X79155183Y-102589033D01*
X79158648Y-102610912D01*
X79209628Y-102710967D01*
X79289033Y-102790372D01*
X79389088Y-102841352D01*
X79392954Y-102841964D01*
X79392956Y-102841965D01*
X79496130Y-102858306D01*
X79500000Y-102858919D01*
X79503870Y-102858306D01*
X79607044Y-102841965D01*
X79607046Y-102841964D01*
X79610912Y-102841352D01*
X79710967Y-102790372D01*
X79790372Y-102710967D01*
X79841352Y-102610912D01*
X79844818Y-102589033D01*
X79858306Y-102503870D01*
X79858919Y-102500000D01*
X79849587Y-102441081D01*
X79841965Y-102392956D01*
X79841964Y-102392954D01*
X79841352Y-102389088D01*
X79790372Y-102289033D01*
X79710967Y-102209628D01*
X79610912Y-102158648D01*
X79607046Y-102158036D01*
X79607044Y-102158035D01*
X79503870Y-102141694D01*
X79500000Y-102141081D01*
X79496130Y-102141694D01*
X79392956Y-102158035D01*
X79392954Y-102158036D01*
X79389088Y-102158648D01*
X79289033Y-102209628D01*
X79209628Y-102289033D01*
X79158648Y-102389088D01*
X79158036Y-102392954D01*
X79158035Y-102392956D01*
X79150413Y-102441081D01*
X79141081Y-102500000D01*
X78495960Y-102500000D01*
X78490372Y-102489033D01*
X78410967Y-102409628D01*
X78310912Y-102358648D01*
X78307046Y-102358036D01*
X78307044Y-102358035D01*
X78203870Y-102341694D01*
X78200000Y-102341081D01*
X78196130Y-102341694D01*
X78092956Y-102358035D01*
X78092954Y-102358036D01*
X78089088Y-102358648D01*
X78014918Y-102396439D01*
X77976921Y-102399430D01*
X77947938Y-102374676D01*
X77933354Y-102346052D01*
X77853949Y-102266647D01*
X77753894Y-102215667D01*
X77750028Y-102215055D01*
X77750026Y-102215054D01*
X77646852Y-102198713D01*
X77642982Y-102198100D01*
X77639112Y-102198713D01*
X77535938Y-102215054D01*
X77535936Y-102215055D01*
X77532070Y-102215667D01*
X77432015Y-102266647D01*
X77352610Y-102346052D01*
X77326937Y-102396439D01*
X77304869Y-102439751D01*
X77301630Y-102446107D01*
X77301018Y-102449973D01*
X77301017Y-102449975D01*
X77294831Y-102489033D01*
X77284063Y-102557019D01*
X75400629Y-102557019D01*
X75303870Y-102541694D01*
X75300000Y-102541081D01*
X75296130Y-102541694D01*
X75192956Y-102558035D01*
X75192954Y-102558036D01*
X75189088Y-102558648D01*
X75185599Y-102560426D01*
X75185598Y-102560426D01*
X75140959Y-102583171D01*
X75089033Y-102609628D01*
X75009628Y-102689033D01*
X74958648Y-102789088D01*
X74958036Y-102792954D01*
X74958035Y-102792956D01*
X74943438Y-102885121D01*
X74941081Y-102900000D01*
X74460228Y-102900000D01*
X75178205Y-102156682D01*
X75203434Y-102143550D01*
X75203313Y-102143176D01*
X75205547Y-102142450D01*
X75206233Y-102142093D01*
X75210912Y-102141352D01*
X75214405Y-102139572D01*
X75214406Y-102139572D01*
X75307475Y-102092151D01*
X75310967Y-102090372D01*
X75390372Y-102010967D01*
X75441352Y-101910912D01*
X75443947Y-101894528D01*
X75457315Y-101867721D01*
X75530309Y-101792151D01*
X75856592Y-101454351D01*
X75891546Y-101439157D01*
X75927008Y-101453131D01*
X75942203Y-101488086D01*
X75941694Y-101495353D01*
X75941694Y-101496130D01*
X75941081Y-101500000D01*
X75941694Y-101503870D01*
X75956920Y-101600000D01*
X75958648Y-101610912D01*
X76009628Y-101710967D01*
X76089033Y-101790372D01*
X76189088Y-101841352D01*
X76192954Y-101841964D01*
X76192956Y-101841965D01*
X76296130Y-101858306D01*
X76300000Y-101858919D01*
X76303870Y-101858306D01*
X76407044Y-101841965D01*
X76407046Y-101841964D01*
X76410912Y-101841352D01*
X76510967Y-101790372D01*
X76590372Y-101710967D01*
X76641352Y-101610912D01*
X76643081Y-101600000D01*
X76658306Y-101503870D01*
X76658919Y-101500000D01*
X80141081Y-101500000D01*
X80141694Y-101503870D01*
X80156920Y-101600000D01*
X80158648Y-101610912D01*
X80209628Y-101710967D01*
X80289033Y-101790372D01*
X80389088Y-101841352D01*
X80392954Y-101841964D01*
X80392956Y-101841965D01*
X80496130Y-101858306D01*
X80500000Y-101858919D01*
X80503870Y-101858306D01*
X80607044Y-101841965D01*
X80607046Y-101841964D01*
X80610912Y-101841352D01*
X80710967Y-101790372D01*
X80790372Y-101710967D01*
X80841352Y-101610912D01*
X80843081Y-101600000D01*
X80858306Y-101503870D01*
X80858919Y-101500000D01*
X80849282Y-101439157D01*
X80841965Y-101392956D01*
X80841964Y-101392954D01*
X80841352Y-101389088D01*
X80790372Y-101289033D01*
X80710967Y-101209628D01*
X80610912Y-101158648D01*
X80607046Y-101158036D01*
X80607044Y-101158035D01*
X80503870Y-101141694D01*
X80500000Y-101141081D01*
X80496130Y-101141694D01*
X80392956Y-101158035D01*
X80392954Y-101158036D01*
X80389088Y-101158648D01*
X80289033Y-101209628D01*
X80209628Y-101289033D01*
X80158648Y-101389088D01*
X80158036Y-101392954D01*
X80158035Y-101392956D01*
X80150718Y-101439157D01*
X80141081Y-101500000D01*
X76658919Y-101500000D01*
X76649282Y-101439157D01*
X76641965Y-101392956D01*
X76641964Y-101392954D01*
X76641352Y-101389088D01*
X76590372Y-101289033D01*
X76510967Y-101209628D01*
X76410912Y-101158648D01*
X76407046Y-101158036D01*
X76407044Y-101158035D01*
X76303870Y-101141694D01*
X76300000Y-101141081D01*
X76296130Y-101141694D01*
X76296129Y-101141694D01*
X76280780Y-101144125D01*
X76243718Y-101135227D01*
X76223803Y-101102728D01*
X76232701Y-101065666D01*
X76237167Y-101060345D01*
X76875000Y-100400000D01*
X77741081Y-100400000D01*
X77741694Y-100403870D01*
X77757533Y-100503870D01*
X77758648Y-100510912D01*
X77809628Y-100610967D01*
X77889033Y-100690372D01*
X77989088Y-100741352D01*
X77992954Y-100741964D01*
X77992956Y-100741965D01*
X78096130Y-100758306D01*
X78100000Y-100758919D01*
X78103870Y-100758306D01*
X78207044Y-100741965D01*
X78207046Y-100741964D01*
X78210912Y-100741352D01*
X78310967Y-100690372D01*
X78390372Y-100610967D01*
X78441352Y-100510912D01*
X78442468Y-100503870D01*
X78443081Y-100500000D01*
X81141081Y-100500000D01*
X81158648Y-100610912D01*
X81209628Y-100710967D01*
X81289033Y-100790372D01*
X81389088Y-100841352D01*
X81392954Y-100841964D01*
X81392956Y-100841965D01*
X81496130Y-100858306D01*
X81500000Y-100858919D01*
X81503870Y-100858306D01*
X81607044Y-100841965D01*
X81607046Y-100841964D01*
X81610912Y-100841352D01*
X81710967Y-100790372D01*
X81790372Y-100710967D01*
X81841352Y-100610912D01*
X81858919Y-100500000D01*
X81852184Y-100457475D01*
X81841965Y-100392956D01*
X81841964Y-100392954D01*
X81841352Y-100389088D01*
X81790372Y-100289033D01*
X81710967Y-100209628D01*
X81610912Y-100158648D01*
X81607046Y-100158036D01*
X81607044Y-100158035D01*
X81503870Y-100141694D01*
X81500000Y-100141081D01*
X81496130Y-100141694D01*
X81392956Y-100158035D01*
X81392954Y-100158036D01*
X81389088Y-100158648D01*
X81289033Y-100209628D01*
X81209628Y-100289033D01*
X81158648Y-100389088D01*
X81158036Y-100392954D01*
X81158035Y-100392956D01*
X81147816Y-100457475D01*
X81141081Y-100500000D01*
X78443081Y-100500000D01*
X78458306Y-100403870D01*
X78458919Y-100400000D01*
X78441352Y-100289088D01*
X78390372Y-100189033D01*
X78310967Y-100109628D01*
X78210912Y-100058648D01*
X78207046Y-100058036D01*
X78207044Y-100058035D01*
X78103870Y-100041694D01*
X78100000Y-100041081D01*
X78096130Y-100041694D01*
X77992956Y-100058035D01*
X77992954Y-100058036D01*
X77989088Y-100058648D01*
X77889033Y-100109628D01*
X77809628Y-100189033D01*
X77758648Y-100289088D01*
X77741081Y-100400000D01*
X76875000Y-100400000D01*
X78565172Y-98650175D01*
X78600128Y-98634980D01*
X78635589Y-98648954D01*
X78650784Y-98683910D01*
X78650178Y-98692563D01*
X78641694Y-98746129D01*
X78641081Y-98750000D01*
X78658648Y-98860912D01*
X78709628Y-98960967D01*
X78789033Y-99040372D01*
X78889088Y-99091352D01*
X78892954Y-99091964D01*
X78892956Y-99091965D01*
X78996130Y-99108306D01*
X79000000Y-99108919D01*
X79003870Y-99108306D01*
X79107044Y-99091965D01*
X79107046Y-99091964D01*
X79110912Y-99091352D01*
X79210967Y-99040372D01*
X79290372Y-98960967D01*
X79341352Y-98860912D01*
X79358919Y-98750000D01*
X80641081Y-98750000D01*
X80658648Y-98860912D01*
X80709628Y-98960967D01*
X80789033Y-99040372D01*
X80889088Y-99091352D01*
X80892954Y-99091964D01*
X80892956Y-99091965D01*
X80996130Y-99108306D01*
X81000000Y-99108919D01*
X81003870Y-99108306D01*
X81107044Y-99091965D01*
X81107046Y-99091964D01*
X81110912Y-99091352D01*
X81210967Y-99040372D01*
X81290372Y-98960967D01*
X81341352Y-98860912D01*
X81358919Y-98750000D01*
X82641081Y-98750000D01*
X82658648Y-98860912D01*
X82709628Y-98960967D01*
X82789033Y-99040372D01*
X82889088Y-99091352D01*
X82892954Y-99091964D01*
X82892956Y-99091965D01*
X82996130Y-99108306D01*
X83000000Y-99108919D01*
X83003870Y-99108306D01*
X83107044Y-99091965D01*
X83107046Y-99091964D01*
X83110912Y-99091352D01*
X83210967Y-99040372D01*
X83290372Y-98960967D01*
X83341352Y-98860912D01*
X83358919Y-98750000D01*
X83356562Y-98735121D01*
X83341965Y-98642956D01*
X83341964Y-98642954D01*
X83341352Y-98639088D01*
X83290372Y-98539033D01*
X83210967Y-98459628D01*
X83110912Y-98408648D01*
X83107046Y-98408036D01*
X83107044Y-98408035D01*
X83003870Y-98391694D01*
X83000000Y-98391081D01*
X82996130Y-98391694D01*
X82892956Y-98408035D01*
X82892954Y-98408036D01*
X82889088Y-98408648D01*
X82789033Y-98459628D01*
X82709628Y-98539033D01*
X82658648Y-98639088D01*
X82658036Y-98642954D01*
X82658035Y-98642956D01*
X82643438Y-98735121D01*
X82641081Y-98750000D01*
X81358919Y-98750000D01*
X81356562Y-98735121D01*
X81341965Y-98642956D01*
X81341964Y-98642954D01*
X81341352Y-98639088D01*
X81290372Y-98539033D01*
X81210967Y-98459628D01*
X81110912Y-98408648D01*
X81107046Y-98408036D01*
X81107044Y-98408035D01*
X81003870Y-98391694D01*
X81000000Y-98391081D01*
X80996130Y-98391694D01*
X80892956Y-98408035D01*
X80892954Y-98408036D01*
X80889088Y-98408648D01*
X80789033Y-98459628D01*
X80709628Y-98539033D01*
X80658648Y-98639088D01*
X80658036Y-98642954D01*
X80658035Y-98642956D01*
X80643438Y-98735121D01*
X80641081Y-98750000D01*
X79358919Y-98750000D01*
X79356562Y-98735121D01*
X79341965Y-98642956D01*
X79341964Y-98642954D01*
X79341352Y-98639088D01*
X79290372Y-98539033D01*
X79210967Y-98459628D01*
X79110912Y-98408648D01*
X79107046Y-98408036D01*
X79107044Y-98408035D01*
X79003870Y-98391694D01*
X79000000Y-98391081D01*
X78929130Y-98402306D01*
X78892067Y-98393408D01*
X78872152Y-98360910D01*
X78881050Y-98323847D01*
X78885520Y-98318521D01*
X78994212Y-98205992D01*
X79000000Y-98200000D01*
X79009806Y-98107044D01*
X79021097Y-98000000D01*
X79641081Y-98000000D01*
X79658648Y-98110912D01*
X79709628Y-98210967D01*
X79789033Y-98290372D01*
X79889088Y-98341352D01*
X79892954Y-98341964D01*
X79892956Y-98341965D01*
X79996130Y-98358306D01*
X80000000Y-98358919D01*
X80003870Y-98358306D01*
X80107044Y-98341965D01*
X80107046Y-98341964D01*
X80110912Y-98341352D01*
X80210967Y-98290372D01*
X80290372Y-98210967D01*
X80341352Y-98110912D01*
X80358919Y-98000000D01*
X80341352Y-97889088D01*
X80290372Y-97789033D01*
X80210967Y-97709628D01*
X80110912Y-97658648D01*
X80107046Y-97658036D01*
X80107044Y-97658035D01*
X80003870Y-97641694D01*
X80000000Y-97641081D01*
X79996130Y-97641694D01*
X79892956Y-97658035D01*
X79892954Y-97658036D01*
X79889088Y-97658648D01*
X79789033Y-97709628D01*
X79709628Y-97789033D01*
X79658648Y-97889088D01*
X79641081Y-98000000D01*
X79021097Y-98000000D01*
X79033165Y-97885598D01*
X79086584Y-97379180D01*
X79104783Y-97345691D01*
X79113501Y-97340033D01*
X79207472Y-97292153D01*
X79207475Y-97292151D01*
X79210967Y-97290372D01*
X79290372Y-97210967D01*
X79341352Y-97110912D01*
X79342914Y-97101055D01*
X79358306Y-97003870D01*
X79358919Y-97000000D01*
X82641081Y-97000000D01*
X82641694Y-97003870D01*
X82657087Y-97101055D01*
X82658648Y-97110912D01*
X82709628Y-97210967D01*
X82789033Y-97290372D01*
X82889088Y-97341352D01*
X82892954Y-97341964D01*
X82892956Y-97341965D01*
X82996130Y-97358306D01*
X83000000Y-97358919D01*
X83003870Y-97358306D01*
X83107044Y-97341965D01*
X83107046Y-97341964D01*
X83110912Y-97341352D01*
X83210967Y-97290372D01*
X83290372Y-97210967D01*
X83341352Y-97110912D01*
X83342914Y-97101055D01*
X83358306Y-97003870D01*
X83358919Y-97000000D01*
X83341352Y-96889088D01*
X83290372Y-96789033D01*
X83210967Y-96709628D01*
X83159041Y-96683171D01*
X83114402Y-96660426D01*
X83114401Y-96660426D01*
X83110912Y-96658648D01*
X83107046Y-96658036D01*
X83107044Y-96658035D01*
X83003870Y-96641694D01*
X83000000Y-96641081D01*
X82996130Y-96641694D01*
X82892956Y-96658035D01*
X82892954Y-96658036D01*
X82889088Y-96658648D01*
X82885599Y-96660426D01*
X82885598Y-96660426D01*
X82840959Y-96683171D01*
X82789033Y-96709628D01*
X82709628Y-96789033D01*
X82658648Y-96889088D01*
X82641081Y-97000000D01*
X79358919Y-97000000D01*
X79341352Y-96889088D01*
X79290372Y-96789033D01*
X79210967Y-96709628D01*
X79190463Y-96699181D01*
X79165709Y-96670199D01*
X79163546Y-96649585D01*
X79232068Y-96000000D01*
X80641081Y-96000000D01*
X80658648Y-96110912D01*
X80709628Y-96210967D01*
X80789033Y-96290372D01*
X80889088Y-96341352D01*
X80892954Y-96341964D01*
X80892956Y-96341965D01*
X80996130Y-96358306D01*
X81000000Y-96358919D01*
X81003870Y-96358306D01*
X81107044Y-96341965D01*
X81107046Y-96341964D01*
X81110912Y-96341352D01*
X81210967Y-96290372D01*
X81290372Y-96210967D01*
X81341352Y-96110912D01*
X81358919Y-96000000D01*
X81356562Y-95985121D01*
X81341965Y-95892956D01*
X81341964Y-95892954D01*
X81341352Y-95889088D01*
X81290372Y-95789033D01*
X81210967Y-95709628D01*
X81110912Y-95658648D01*
X81107046Y-95658036D01*
X81107044Y-95658035D01*
X81003870Y-95641694D01*
X81000000Y-95641081D01*
X80996130Y-95641694D01*
X80892956Y-95658035D01*
X80892954Y-95658036D01*
X80889088Y-95658648D01*
X80789033Y-95709628D01*
X80709628Y-95789033D01*
X80658648Y-95889088D01*
X80658036Y-95892954D01*
X80658035Y-95892956D01*
X80643438Y-95985121D01*
X80641081Y-96000000D01*
X79232068Y-96000000D01*
X79320840Y-95158441D01*
X79325991Y-95141059D01*
X79341352Y-95110912D01*
X79358919Y-95000000D01*
X79347121Y-94925511D01*
X79346783Y-94912497D01*
X79412700Y-94287600D01*
X79443038Y-94000000D01*
X81641081Y-94000000D01*
X81641694Y-94003870D01*
X81655395Y-94090372D01*
X81658648Y-94110912D01*
X81709628Y-94210967D01*
X81789033Y-94290372D01*
X81792525Y-94292151D01*
X81861117Y-94327100D01*
X81889088Y-94341352D01*
X81892954Y-94341964D01*
X81892956Y-94341965D01*
X81996130Y-94358306D01*
X82000000Y-94358919D01*
X82003870Y-94358306D01*
X82107044Y-94341965D01*
X82107046Y-94341964D01*
X82110912Y-94341352D01*
X82138884Y-94327100D01*
X82207475Y-94292151D01*
X82210967Y-94290372D01*
X82290372Y-94210967D01*
X82341352Y-94110912D01*
X82344606Y-94090372D01*
X82358306Y-94003870D01*
X82358919Y-94000000D01*
X82341352Y-93889088D01*
X82290372Y-93789033D01*
X82210967Y-93709628D01*
X82110912Y-93658648D01*
X82107046Y-93658036D01*
X82107044Y-93658035D01*
X82003870Y-93641694D01*
X82000000Y-93641081D01*
X81996130Y-93641694D01*
X81892956Y-93658035D01*
X81892954Y-93658036D01*
X81889088Y-93658648D01*
X81789033Y-93709628D01*
X81709628Y-93789033D01*
X81658648Y-93889088D01*
X81641081Y-94000000D01*
X79443038Y-94000000D01*
X79545901Y-93024862D01*
X79564099Y-92991373D01*
X79600649Y-92980562D01*
X79634139Y-92998761D01*
X79644612Y-93022296D01*
X79658035Y-93107044D01*
X79658648Y-93110912D01*
X79709628Y-93210967D01*
X79789033Y-93290372D01*
X79831565Y-93312043D01*
X79881493Y-93337482D01*
X79889088Y-93341352D01*
X79892954Y-93341964D01*
X79892956Y-93341965D01*
X79996130Y-93358306D01*
X80000000Y-93358919D01*
X80003870Y-93358306D01*
X80107044Y-93341965D01*
X80107046Y-93341964D01*
X80110912Y-93341352D01*
X80118508Y-93337482D01*
X80168435Y-93312043D01*
X80210967Y-93290372D01*
X80290372Y-93210967D01*
X80341352Y-93110912D01*
X80343081Y-93100000D01*
X80358306Y-93003870D01*
X80358919Y-93000000D01*
X80355840Y-92980562D01*
X80341965Y-92892956D01*
X80341964Y-92892954D01*
X80341352Y-92889088D01*
X80290372Y-92789033D01*
X80210967Y-92709628D01*
X80110912Y-92658648D01*
X80107046Y-92658036D01*
X80107044Y-92658035D01*
X80003870Y-92641694D01*
X80000000Y-92641081D01*
X79996130Y-92641694D01*
X79892956Y-92658035D01*
X79892954Y-92658036D01*
X79889088Y-92658648D01*
X79789033Y-92709628D01*
X79709628Y-92789033D01*
X79658648Y-92889088D01*
X79658497Y-92890043D01*
X79634523Y-92918108D01*
X79596525Y-92921095D01*
X79567544Y-92896339D01*
X79562393Y-92868510D01*
X79570409Y-92792525D01*
X79654009Y-92000000D01*
X82641081Y-92000000D01*
X82658648Y-92110912D01*
X82709628Y-92210967D01*
X82789033Y-92290372D01*
X82840959Y-92316829D01*
X82859066Y-92326055D01*
X82889088Y-92341352D01*
X82892954Y-92341964D01*
X82892956Y-92341965D01*
X82996130Y-92358306D01*
X83000000Y-92358919D01*
X83003870Y-92358306D01*
X83107044Y-92341965D01*
X83107046Y-92341964D01*
X83110912Y-92341352D01*
X83136982Y-92328069D01*
X83521001Y-92328069D01*
X83521112Y-92330427D01*
X83523719Y-92358012D01*
X83525009Y-92363893D01*
X83568005Y-92486329D01*
X83571450Y-92492834D01*
X83648134Y-92596657D01*
X83653343Y-92601866D01*
X83757166Y-92678550D01*
X83763671Y-92681995D01*
X83886107Y-92724991D01*
X83891987Y-92726281D01*
X83912888Y-92728257D01*
X83918099Y-92726099D01*
X83921000Y-92719094D01*
X83921000Y-92263906D01*
X83918099Y-92256901D01*
X83911094Y-92254000D01*
X83530907Y-92254000D01*
X83523902Y-92256901D01*
X83521001Y-92263906D01*
X83521001Y-92328069D01*
X83136982Y-92328069D01*
X83140935Y-92326055D01*
X83159041Y-92316829D01*
X83210967Y-92290372D01*
X83290372Y-92210967D01*
X83341352Y-92110912D01*
X83358919Y-92000000D01*
X83341352Y-91889088D01*
X83322914Y-91852900D01*
X83315300Y-91837957D01*
X83290372Y-91789033D01*
X83237433Y-91736094D01*
X83521000Y-91736094D01*
X83523901Y-91743099D01*
X83530906Y-91746000D01*
X83911094Y-91746000D01*
X83918099Y-91743099D01*
X83921000Y-91736094D01*
X83921000Y-91280907D01*
X83918099Y-91273902D01*
X83912888Y-91271744D01*
X83891988Y-91273719D01*
X83886107Y-91275009D01*
X83763671Y-91318005D01*
X83757166Y-91321450D01*
X83653343Y-91398134D01*
X83648134Y-91403343D01*
X83571450Y-91507166D01*
X83568005Y-91513671D01*
X83525009Y-91636107D01*
X83523719Y-91641987D01*
X83521111Y-91669574D01*
X83521000Y-91671929D01*
X83521000Y-91736094D01*
X83237433Y-91736094D01*
X83210967Y-91709628D01*
X83159041Y-91683171D01*
X83114402Y-91660426D01*
X83114401Y-91660426D01*
X83110912Y-91658648D01*
X83107046Y-91658036D01*
X83107044Y-91658035D01*
X83003870Y-91641694D01*
X83000000Y-91641081D01*
X82996130Y-91641694D01*
X82892956Y-91658035D01*
X82892954Y-91658036D01*
X82889088Y-91658648D01*
X82885599Y-91660426D01*
X82885598Y-91660426D01*
X82840959Y-91683171D01*
X82789033Y-91709628D01*
X82709628Y-91789033D01*
X82684700Y-91837957D01*
X82677087Y-91852900D01*
X82658648Y-91889088D01*
X82641081Y-92000000D01*
X79654009Y-92000000D01*
X79759494Y-91000000D01*
X80641081Y-91000000D01*
X80658648Y-91110912D01*
X80660426Y-91114401D01*
X80660426Y-91114402D01*
X80682970Y-91158648D01*
X80709628Y-91210967D01*
X80789033Y-91290372D01*
X80889088Y-91341352D01*
X80892954Y-91341964D01*
X80892956Y-91341965D01*
X80996130Y-91358306D01*
X81000000Y-91358919D01*
X81003870Y-91358306D01*
X81107044Y-91341965D01*
X81107046Y-91341964D01*
X81110912Y-91341352D01*
X81210967Y-91290372D01*
X81290372Y-91210967D01*
X81317030Y-91158648D01*
X81339574Y-91114402D01*
X81339574Y-91114401D01*
X81341352Y-91110912D01*
X81358919Y-91000000D01*
X81341352Y-90889088D01*
X81290372Y-90789033D01*
X81210967Y-90709628D01*
X81159041Y-90683171D01*
X81114402Y-90660426D01*
X81114401Y-90660426D01*
X81110912Y-90658648D01*
X81107046Y-90658036D01*
X81107044Y-90658035D01*
X81003870Y-90641694D01*
X81000000Y-90641081D01*
X80996130Y-90641694D01*
X80892956Y-90658035D01*
X80892954Y-90658036D01*
X80889088Y-90658648D01*
X80885599Y-90660426D01*
X80885598Y-90660426D01*
X80840959Y-90683171D01*
X80789033Y-90709628D01*
X80709628Y-90789033D01*
X80658648Y-90889088D01*
X80641081Y-91000000D01*
X79759494Y-91000000D01*
X79919179Y-89486179D01*
X79970464Y-89000000D01*
X81641081Y-89000000D01*
X81641694Y-89003870D01*
X81655206Y-89089179D01*
X81658648Y-89110912D01*
X81709628Y-89210967D01*
X81789033Y-89290372D01*
X81889088Y-89341352D01*
X81892954Y-89341964D01*
X81892956Y-89341965D01*
X81996130Y-89358306D01*
X82000000Y-89358919D01*
X82003870Y-89358306D01*
X82107044Y-89341965D01*
X82107046Y-89341964D01*
X82110912Y-89341352D01*
X82210967Y-89290372D01*
X82290372Y-89210967D01*
X82341352Y-89110912D01*
X82344795Y-89089179D01*
X82358306Y-89003870D01*
X82358919Y-89000000D01*
X82341352Y-88889088D01*
X82290372Y-88789033D01*
X82210967Y-88709628D01*
X82110912Y-88658648D01*
X82107046Y-88658036D01*
X82107044Y-88658035D01*
X82003870Y-88641694D01*
X82000000Y-88641081D01*
X81996130Y-88641694D01*
X81892956Y-88658035D01*
X81892954Y-88658036D01*
X81889088Y-88658648D01*
X81789033Y-88709628D01*
X81709628Y-88789033D01*
X81658648Y-88889088D01*
X81641081Y-89000000D01*
X79970464Y-89000000D01*
X80023207Y-88500000D01*
X83141081Y-88500000D01*
X83141694Y-88503870D01*
X83156920Y-88600000D01*
X83158648Y-88610912D01*
X83209628Y-88710967D01*
X83289033Y-88790372D01*
X83292525Y-88792151D01*
X83292526Y-88792152D01*
X83358699Y-88825868D01*
X83371305Y-88835026D01*
X83607514Y-89071235D01*
X83622100Y-89106449D01*
X83622100Y-89308452D01*
X83632310Y-89377812D01*
X83684089Y-89483272D01*
X83767236Y-89566274D01*
X83770932Y-89568081D01*
X83770934Y-89568082D01*
X83832314Y-89598086D01*
X83857545Y-89626655D01*
X83855185Y-89664697D01*
X83833052Y-89687199D01*
X83792528Y-89707847D01*
X83789033Y-89709628D01*
X83709628Y-89789033D01*
X83685453Y-89836480D01*
X83677087Y-89852900D01*
X83658648Y-89889088D01*
X83658036Y-89892954D01*
X83658035Y-89892956D01*
X83643438Y-89985121D01*
X83641081Y-90000000D01*
X83658648Y-90110912D01*
X83709628Y-90210967D01*
X83789033Y-90290372D01*
X83889088Y-90341352D01*
X83892954Y-90341964D01*
X83892956Y-90341965D01*
X83996130Y-90358306D01*
X84000000Y-90358919D01*
X84003870Y-90358306D01*
X84107044Y-90341965D01*
X84107046Y-90341964D01*
X84110912Y-90341352D01*
X84210967Y-90290372D01*
X84290372Y-90210967D01*
X84341352Y-90110912D01*
X84358919Y-90000000D01*
X84356562Y-89985121D01*
X84341965Y-89892956D01*
X84341964Y-89892954D01*
X84341352Y-89889088D01*
X84322914Y-89852900D01*
X84314547Y-89836480D01*
X84290372Y-89789033D01*
X84214253Y-89712914D01*
X84199667Y-89677700D01*
X84214253Y-89642486D01*
X84249467Y-89627900D01*
X84408452Y-89627900D01*
X84477812Y-89617690D01*
X84583272Y-89565911D01*
X84666274Y-89482764D01*
X84717869Y-89377214D01*
X84727900Y-89308452D01*
X84727900Y-88691548D01*
X84717690Y-88622188D01*
X84665911Y-88516728D01*
X84582764Y-88433726D01*
X84477214Y-88382131D01*
X84408452Y-88372100D01*
X83941548Y-88372100D01*
X83939750Y-88372365D01*
X83939746Y-88372365D01*
X83875676Y-88381796D01*
X83838714Y-88372494D01*
X83824052Y-88355135D01*
X83816124Y-88339574D01*
X83790372Y-88289033D01*
X83710967Y-88209628D01*
X83610912Y-88158648D01*
X83607046Y-88158036D01*
X83607044Y-88158035D01*
X83503870Y-88141694D01*
X83500000Y-88141081D01*
X83496130Y-88141694D01*
X83392956Y-88158035D01*
X83392954Y-88158036D01*
X83389088Y-88158648D01*
X83289033Y-88209628D01*
X83209628Y-88289033D01*
X83207849Y-88292525D01*
X83161328Y-88383829D01*
X83158648Y-88389088D01*
X83158036Y-88392954D01*
X83158035Y-88392956D01*
X83155269Y-88410421D01*
X83141081Y-88500000D01*
X80023207Y-88500000D01*
X80034729Y-88390771D01*
X80052928Y-88357281D01*
X80076464Y-88346808D01*
X80087235Y-88345102D01*
X80107043Y-88341965D01*
X80107044Y-88341965D01*
X80110912Y-88341352D01*
X80210967Y-88290372D01*
X80290372Y-88210967D01*
X80341352Y-88110912D01*
X80344606Y-88090372D01*
X80358306Y-88003870D01*
X80358919Y-88000000D01*
X80344809Y-87910912D01*
X80341965Y-87892956D01*
X80341964Y-87892954D01*
X80341352Y-87889088D01*
X80290372Y-87789033D01*
X80210967Y-87709628D01*
X80170655Y-87689088D01*
X80142413Y-87674698D01*
X80117658Y-87645715D01*
X80115496Y-87625102D01*
X80181435Y-87000000D01*
X82641081Y-87000000D01*
X82658648Y-87110912D01*
X82709628Y-87210967D01*
X82789033Y-87290372D01*
X82889088Y-87341352D01*
X82892954Y-87341964D01*
X82892956Y-87341965D01*
X82996130Y-87358306D01*
X83000000Y-87358919D01*
X83003870Y-87358306D01*
X83107044Y-87341965D01*
X83107046Y-87341964D01*
X83110912Y-87341352D01*
X83210967Y-87290372D01*
X83290372Y-87210967D01*
X83341352Y-87110912D01*
X83358919Y-87000000D01*
X83344450Y-86908648D01*
X83341965Y-86892956D01*
X83341964Y-86892954D01*
X83341352Y-86889088D01*
X83290372Y-86789033D01*
X83210967Y-86709628D01*
X83110912Y-86658648D01*
X83107046Y-86658036D01*
X83107044Y-86658035D01*
X83003870Y-86641694D01*
X83000000Y-86641081D01*
X82996130Y-86641694D01*
X82892956Y-86658035D01*
X82892954Y-86658036D01*
X82889088Y-86658648D01*
X82789033Y-86709628D01*
X82709628Y-86789033D01*
X82658648Y-86889088D01*
X82658036Y-86892954D01*
X82658035Y-86892956D01*
X82655550Y-86908648D01*
X82641081Y-87000000D01*
X80181435Y-87000000D01*
X80217507Y-86658035D01*
X80228757Y-86551381D01*
X80233910Y-86533998D01*
X80236176Y-86529551D01*
X80236177Y-86529549D01*
X80237957Y-86526055D01*
X80252900Y-86431708D01*
X80252900Y-86325125D01*
X80253175Y-86319901D01*
X80286920Y-86000000D01*
X80641081Y-86000000D01*
X80658648Y-86110912D01*
X80660426Y-86114401D01*
X80660426Y-86114402D01*
X80672987Y-86139055D01*
X80709628Y-86210967D01*
X80789033Y-86290372D01*
X80814914Y-86303559D01*
X80884052Y-86338786D01*
X80889088Y-86341352D01*
X80892954Y-86341964D01*
X80892956Y-86341965D01*
X80996130Y-86358306D01*
X81000000Y-86358919D01*
X81003870Y-86358306D01*
X81107044Y-86341965D01*
X81107046Y-86341964D01*
X81110912Y-86341352D01*
X81115949Y-86338786D01*
X81185086Y-86303559D01*
X81210967Y-86290372D01*
X81290372Y-86210967D01*
X81327013Y-86139055D01*
X81339574Y-86114402D01*
X81339574Y-86114401D01*
X81341352Y-86110912D01*
X81358919Y-86000000D01*
X81341352Y-85889088D01*
X81333637Y-85873945D01*
X81292151Y-85792525D01*
X81290372Y-85789033D01*
X81210967Y-85709628D01*
X81159041Y-85683171D01*
X81114402Y-85660426D01*
X81114401Y-85660426D01*
X81110912Y-85658648D01*
X81107046Y-85658036D01*
X81107044Y-85658035D01*
X81003870Y-85641694D01*
X81000000Y-85641081D01*
X80996130Y-85641694D01*
X80892956Y-85658035D01*
X80892954Y-85658036D01*
X80889088Y-85658648D01*
X80885599Y-85660426D01*
X80885598Y-85660426D01*
X80840959Y-85683171D01*
X80789033Y-85709628D01*
X80709628Y-85789033D01*
X80707849Y-85792525D01*
X80666364Y-85873945D01*
X80658648Y-85889088D01*
X80641081Y-86000000D01*
X80286920Y-86000000D01*
X80392406Y-85000000D01*
X83641081Y-85000000D01*
X83658648Y-85110912D01*
X83709628Y-85210967D01*
X83789033Y-85290372D01*
X83889088Y-85341352D01*
X83892954Y-85341964D01*
X83892956Y-85341965D01*
X83996130Y-85358306D01*
X84000000Y-85358919D01*
X84003870Y-85358306D01*
X84107044Y-85341965D01*
X84107046Y-85341964D01*
X84110912Y-85341352D01*
X84210967Y-85290372D01*
X84290372Y-85210967D01*
X84341352Y-85110912D01*
X84358919Y-85000000D01*
X84356562Y-84985121D01*
X84341965Y-84892956D01*
X84341964Y-84892954D01*
X84341352Y-84889088D01*
X84290372Y-84789033D01*
X84210967Y-84709628D01*
X84110912Y-84658648D01*
X84107046Y-84658036D01*
X84107044Y-84658035D01*
X84003870Y-84641694D01*
X84000000Y-84641081D01*
X83996130Y-84641694D01*
X83892956Y-84658035D01*
X83892954Y-84658036D01*
X83889088Y-84658648D01*
X83789033Y-84709628D01*
X83709628Y-84789033D01*
X83658648Y-84889088D01*
X83658036Y-84892954D01*
X83658035Y-84892956D01*
X83643438Y-84985121D01*
X83641081Y-85000000D01*
X80392406Y-85000000D01*
X80497891Y-84000000D01*
X81641081Y-84000000D01*
X81658648Y-84110912D01*
X81709628Y-84210967D01*
X81789033Y-84290372D01*
X81889088Y-84341352D01*
X81892954Y-84341964D01*
X81892956Y-84341965D01*
X81996130Y-84358306D01*
X82000000Y-84358919D01*
X82003870Y-84358306D01*
X82107044Y-84341965D01*
X82107046Y-84341964D01*
X82110912Y-84341352D01*
X82210967Y-84290372D01*
X82290372Y-84210967D01*
X82341352Y-84110912D01*
X82358919Y-84000000D01*
X82356562Y-83985121D01*
X82341965Y-83892956D01*
X82341964Y-83892954D01*
X82341352Y-83889088D01*
X82322914Y-83852900D01*
X82292151Y-83792525D01*
X82290372Y-83789033D01*
X82210967Y-83709628D01*
X82110912Y-83658648D01*
X82107046Y-83658036D01*
X82107044Y-83658035D01*
X82003870Y-83641694D01*
X82000000Y-83641081D01*
X81996130Y-83641694D01*
X81892956Y-83658035D01*
X81892954Y-83658036D01*
X81889088Y-83658648D01*
X81789033Y-83709628D01*
X81709628Y-83789033D01*
X81707849Y-83792525D01*
X81677087Y-83852900D01*
X81658648Y-83889088D01*
X81658036Y-83892954D01*
X81658035Y-83892956D01*
X81643438Y-83985121D01*
X81641081Y-84000000D01*
X80497891Y-84000000D01*
X80603376Y-83000000D01*
X84641081Y-83000000D01*
X84658648Y-83110912D01*
X84709628Y-83210967D01*
X84789033Y-83290372D01*
X84889088Y-83341352D01*
X84892954Y-83341964D01*
X84892956Y-83341965D01*
X84996130Y-83358306D01*
X85000000Y-83358919D01*
X85003870Y-83358306D01*
X85107044Y-83341965D01*
X85107046Y-83341964D01*
X85110912Y-83341352D01*
X85210967Y-83290372D01*
X85290372Y-83210967D01*
X85341352Y-83110912D01*
X85358919Y-83000000D01*
X85341352Y-82889088D01*
X85290372Y-82789033D01*
X85210967Y-82709628D01*
X85159041Y-82683171D01*
X85114402Y-82660426D01*
X85114401Y-82660426D01*
X85110912Y-82658648D01*
X85107046Y-82658036D01*
X85107044Y-82658035D01*
X85003870Y-82641694D01*
X85000000Y-82641081D01*
X84996130Y-82641694D01*
X84892956Y-82658035D01*
X84892954Y-82658036D01*
X84889088Y-82658648D01*
X84885599Y-82660426D01*
X84885598Y-82660426D01*
X84840959Y-82683171D01*
X84789033Y-82709628D01*
X84709628Y-82789033D01*
X84658648Y-82889088D01*
X84641081Y-83000000D01*
X80603376Y-83000000D01*
X80708861Y-82000000D01*
X82641081Y-82000000D01*
X82658648Y-82110912D01*
X82660426Y-82114401D01*
X82660426Y-82114402D01*
X82674020Y-82141081D01*
X82709628Y-82210967D01*
X82789033Y-82290372D01*
X82792525Y-82292151D01*
X82866840Y-82330016D01*
X82889088Y-82341352D01*
X82892954Y-82341964D01*
X82892956Y-82341965D01*
X82996130Y-82358306D01*
X83000000Y-82358919D01*
X83003870Y-82358306D01*
X83107044Y-82341965D01*
X83107046Y-82341964D01*
X83110912Y-82341352D01*
X83133161Y-82330016D01*
X83207475Y-82292151D01*
X83210967Y-82290372D01*
X83290372Y-82210967D01*
X83325980Y-82141081D01*
X83339574Y-82114402D01*
X83339574Y-82114401D01*
X83341352Y-82110912D01*
X83358919Y-82000000D01*
X83341352Y-81889088D01*
X83290372Y-81789033D01*
X83210967Y-81709628D01*
X83110912Y-81658648D01*
X83107046Y-81658036D01*
X83107044Y-81658035D01*
X83003870Y-81641694D01*
X83000000Y-81641081D01*
X82996130Y-81641694D01*
X82892956Y-81658035D01*
X82892954Y-81658036D01*
X82889088Y-81658648D01*
X82789033Y-81709628D01*
X82709628Y-81789033D01*
X82658648Y-81889088D01*
X82641081Y-82000000D01*
X80708861Y-82000000D01*
X80770522Y-81415456D01*
X80788721Y-81381966D01*
X80827837Y-81371493D01*
X80861862Y-81376882D01*
X80868292Y-81377900D01*
X81431708Y-81377900D01*
X81526055Y-81362957D01*
X81529548Y-81361177D01*
X81529549Y-81361177D01*
X81636279Y-81306796D01*
X81636282Y-81306794D01*
X81639771Y-81305016D01*
X81730016Y-81214771D01*
X81731794Y-81211282D01*
X81731796Y-81211279D01*
X81786177Y-81104549D01*
X81786177Y-81104548D01*
X81787957Y-81101055D01*
X81802900Y-81006708D01*
X81802900Y-79993292D01*
X81787957Y-79898945D01*
X81783589Y-79890372D01*
X81731796Y-79788721D01*
X81731794Y-79788718D01*
X81730016Y-79785229D01*
X81639771Y-79694984D01*
X81636282Y-79693206D01*
X81636279Y-79693204D01*
X81529549Y-79638823D01*
X81529548Y-79638823D01*
X81526055Y-79637043D01*
X81431708Y-79622100D01*
X81015023Y-79622100D01*
X80979809Y-79607514D01*
X80965223Y-79572300D01*
X80965498Y-79567076D01*
X81025317Y-79000000D01*
X81641081Y-79000000D01*
X81658648Y-79110912D01*
X81709628Y-79210967D01*
X81789033Y-79290372D01*
X81889088Y-79341352D01*
X81892954Y-79341964D01*
X81892956Y-79341965D01*
X81996130Y-79358306D01*
X82000000Y-79358919D01*
X82003870Y-79358306D01*
X82107044Y-79341965D01*
X82107046Y-79341964D01*
X82110912Y-79341352D01*
X82210967Y-79290372D01*
X82290372Y-79210967D01*
X82341352Y-79110912D01*
X82358919Y-79000000D01*
X82341352Y-78889088D01*
X82290372Y-78789033D01*
X82210967Y-78709628D01*
X82110912Y-78658648D01*
X82107046Y-78658036D01*
X82107044Y-78658035D01*
X82003870Y-78641694D01*
X82000000Y-78641081D01*
X81996130Y-78641694D01*
X81892956Y-78658035D01*
X81892954Y-78658036D01*
X81889088Y-78658648D01*
X81789033Y-78709628D01*
X81709628Y-78789033D01*
X81658648Y-78889088D01*
X81641081Y-79000000D01*
X81025317Y-79000000D01*
X81025725Y-78996130D01*
X81130802Y-78000000D01*
X84641081Y-78000000D01*
X84641694Y-78003870D01*
X84653594Y-78079000D01*
X84658648Y-78110912D01*
X84660426Y-78114401D01*
X84660426Y-78114402D01*
X84674020Y-78141081D01*
X84709628Y-78210967D01*
X84789033Y-78290372D01*
X84792525Y-78292151D01*
X84884054Y-78338787D01*
X84889088Y-78341352D01*
X84892954Y-78341964D01*
X84892956Y-78341965D01*
X84996130Y-78358306D01*
X85000000Y-78358919D01*
X85003870Y-78358306D01*
X85107044Y-78341965D01*
X85107046Y-78341964D01*
X85110912Y-78341352D01*
X85115947Y-78338787D01*
X85207475Y-78292151D01*
X85210967Y-78290372D01*
X85290372Y-78210967D01*
X85325980Y-78141081D01*
X85339574Y-78114402D01*
X85339574Y-78114401D01*
X85341352Y-78110912D01*
X85345949Y-78081888D01*
X85365864Y-78049390D01*
X85402927Y-78040492D01*
X85412617Y-78043048D01*
X85487737Y-78071209D01*
X85493763Y-78072642D01*
X85550957Y-78078855D01*
X85553631Y-78079000D01*
X85586094Y-78079000D01*
X85593099Y-78076099D01*
X85596000Y-78069094D01*
X85596000Y-77363906D01*
X85593099Y-77356901D01*
X85586094Y-77354000D01*
X85105907Y-77354000D01*
X85098902Y-77356901D01*
X85096001Y-77363906D01*
X85096001Y-77597978D01*
X85081415Y-77633192D01*
X85046201Y-77647778D01*
X85038415Y-77647165D01*
X85000000Y-77641081D01*
X84996130Y-77641694D01*
X84892956Y-77658035D01*
X84892954Y-77658036D01*
X84889088Y-77658648D01*
X84885599Y-77660426D01*
X84885598Y-77660426D01*
X84840959Y-77683171D01*
X84789033Y-77709628D01*
X84709628Y-77789033D01*
X84684276Y-77838789D01*
X84666364Y-77873945D01*
X84658648Y-77889088D01*
X84641081Y-78000000D01*
X81130802Y-78000000D01*
X81253576Y-76836094D01*
X85096000Y-76836094D01*
X85098901Y-76843099D01*
X85105906Y-76846000D01*
X85586094Y-76846000D01*
X85593099Y-76843099D01*
X85596000Y-76836094D01*
X85596000Y-76130907D01*
X85593099Y-76123902D01*
X85586094Y-76121001D01*
X85553632Y-76121001D01*
X85550957Y-76121146D01*
X85493762Y-76127358D01*
X85487738Y-76128790D01*
X85358799Y-76177127D01*
X85352639Y-76180500D01*
X85242795Y-76262823D01*
X85237823Y-76267795D01*
X85155500Y-76377639D01*
X85152127Y-76383799D01*
X85103791Y-76512737D01*
X85102358Y-76518763D01*
X85096145Y-76575957D01*
X85096000Y-76578631D01*
X85096000Y-76836094D01*
X81253576Y-76836094D01*
X81281017Y-76575957D01*
X81313035Y-76272431D01*
X81325567Y-76246168D01*
X81324941Y-76245713D01*
X81327245Y-76242542D01*
X81330016Y-76239771D01*
X81331794Y-76236282D01*
X81331796Y-76236279D01*
X81386177Y-76129549D01*
X81386177Y-76129548D01*
X81387957Y-76126055D01*
X81407922Y-76000000D01*
X81387957Y-75873945D01*
X81367412Y-75833623D01*
X81362259Y-75805790D01*
X81447258Y-75000000D01*
X83641081Y-75000000D01*
X83658648Y-75110912D01*
X83709628Y-75210967D01*
X83789033Y-75290372D01*
X83889088Y-75341352D01*
X83892954Y-75341964D01*
X83892956Y-75341965D01*
X83996130Y-75358306D01*
X84000000Y-75358919D01*
X84003870Y-75358306D01*
X84107044Y-75341965D01*
X84107046Y-75341964D01*
X84110912Y-75341352D01*
X84210967Y-75290372D01*
X84290372Y-75210967D01*
X84341352Y-75110912D01*
X84358919Y-75000000D01*
X84341352Y-74889088D01*
X84290372Y-74789033D01*
X84210967Y-74709628D01*
X84110912Y-74658648D01*
X84107046Y-74658036D01*
X84107044Y-74658035D01*
X84003870Y-74641694D01*
X84000000Y-74641081D01*
X83996130Y-74641694D01*
X83892956Y-74658035D01*
X83892954Y-74658036D01*
X83889088Y-74658648D01*
X83789033Y-74709628D01*
X83709628Y-74789033D01*
X83658648Y-74889088D01*
X83641081Y-75000000D01*
X81447258Y-75000000D01*
X81495298Y-74544576D01*
X81513497Y-74511086D01*
X81544823Y-74500000D01*
X81902566Y-74500000D01*
X81911644Y-74501385D01*
G37*
G04 #@! TD.AperFunction*
G04 #@! TA.AperFunction,Conductor*
G36*
X47809255Y-91030926D02*
G01*
X52484806Y-91498481D01*
X52511732Y-91509777D01*
X55482081Y-93985068D01*
X55499795Y-94018816D01*
X55500000Y-94023325D01*
X55500000Y-94850200D01*
X55485414Y-94885414D01*
X55450200Y-94900000D01*
X53900000Y-94900000D01*
X53900000Y-95671966D01*
X53887527Y-95704932D01*
X53837329Y-95761770D01*
X53785043Y-95873135D01*
X53766115Y-95994699D01*
X53782067Y-96116689D01*
X53831617Y-96229298D01*
X53842835Y-96242643D01*
X53888321Y-96296756D01*
X53900000Y-96328800D01*
X53900000Y-97650200D01*
X53885414Y-97685414D01*
X53850200Y-97700000D01*
X52500000Y-97700000D01*
X52496936Y-97700797D01*
X52496933Y-97700797D01*
X47816831Y-98917624D01*
X47779080Y-98912368D01*
X47756102Y-98881957D01*
X47754500Y-98869426D01*
X47754500Y-91080479D01*
X47769086Y-91045265D01*
X47804300Y-91030679D01*
X47809255Y-91030926D01*
G37*
G04 #@! TD.AperFunction*
G04 #@! TA.AperFunction,Conductor*
G36*
X96299321Y-75214586D02*
G01*
X96311351Y-75234052D01*
X96565384Y-75996152D01*
X96567520Y-76005442D01*
X96582067Y-76116689D01*
X96583496Y-76119937D01*
X96583497Y-76119940D01*
X96613508Y-76188143D01*
X96631617Y-76229298D01*
X96633901Y-76232015D01*
X96709356Y-76321781D01*
X96715777Y-76331554D01*
X96786236Y-76472472D01*
X96788938Y-76510490D01*
X96781534Y-76524622D01*
X96514940Y-76880080D01*
X96482143Y-76899499D01*
X96475100Y-76900000D01*
X94526652Y-76900000D01*
X94491438Y-76885414D01*
X94485216Y-76877824D01*
X94112220Y-76318330D01*
X94105343Y-76278628D01*
X94295712Y-75517154D01*
X94314145Y-75489392D01*
X94686720Y-75209960D01*
X94716600Y-75200000D01*
X96264107Y-75200000D01*
X96299321Y-75214586D01*
G37*
G04 #@! TD.AperFunction*
G04 #@! TA.AperFunction,Conductor*
G36*
X66404714Y-86714586D02*
G01*
X66419300Y-86749800D01*
X66419300Y-87456727D01*
X66406827Y-87489693D01*
X66387329Y-87511770D01*
X66335043Y-87623135D01*
X66316115Y-87744699D01*
X66332067Y-87866689D01*
X66333496Y-87869937D01*
X66333497Y-87869940D01*
X66365849Y-87943463D01*
X66381617Y-87979298D01*
X66460780Y-88073475D01*
X66563194Y-88141647D01*
X66566582Y-88142705D01*
X66566583Y-88142706D01*
X66611513Y-88156743D01*
X66680625Y-88178335D01*
X66684170Y-88178400D01*
X66800085Y-88180525D01*
X66803633Y-88180590D01*
X66922329Y-88148229D01*
X67027172Y-88083856D01*
X67109733Y-87992643D01*
X67163376Y-87881925D01*
X67183787Y-87760602D01*
X67183917Y-87750000D01*
X67166476Y-87628214D01*
X67115554Y-87516218D01*
X67101443Y-87499841D01*
X67092773Y-87489779D01*
X67080700Y-87457272D01*
X67080700Y-86749800D01*
X67095286Y-86714586D01*
X67130500Y-86700000D01*
X68211692Y-86700000D01*
X68246906Y-86714586D01*
X68632762Y-87100442D01*
X68644628Y-87119422D01*
X68997280Y-88142112D01*
X69000000Y-88158346D01*
X69000000Y-89550200D01*
X68985414Y-89585414D01*
X68950200Y-89600000D01*
X64649800Y-89600000D01*
X64614586Y-89585414D01*
X64600000Y-89550200D01*
X64600000Y-88156743D01*
X64601793Y-88143500D01*
X64673070Y-87885120D01*
X64989915Y-86736556D01*
X65013340Y-86706490D01*
X65037922Y-86700000D01*
X66369500Y-86700000D01*
X66404714Y-86714586D01*
G37*
G04 #@! TD.AperFunction*
G04 #@! TA.AperFunction,Conductor*
G36*
X96504068Y-73500678D02*
G01*
X97074986Y-73595831D01*
X97107323Y-73616007D01*
X97111341Y-73622682D01*
X97281996Y-73963992D01*
X97284698Y-74002010D01*
X97268564Y-74025149D01*
X96313641Y-74789087D01*
X96282531Y-74800000D01*
X94700000Y-74800000D01*
X94693230Y-74805803D01*
X94013987Y-75388011D01*
X93981578Y-75400000D01*
X93735893Y-75400000D01*
X93700679Y-75385414D01*
X93688649Y-75365948D01*
X93507874Y-74823623D01*
X93510576Y-74785604D01*
X93514173Y-74779528D01*
X94385148Y-73521453D01*
X94417185Y-73500803D01*
X94426093Y-73500000D01*
X96495881Y-73500000D01*
X96504068Y-73500678D01*
G37*
G04 #@! TD.AperFunction*
G04 #@! TA.AperFunction,Conductor*
G36*
X68985414Y-91214586D02*
G01*
X69000000Y-91249800D01*
X69000000Y-92643257D01*
X68998207Y-92656500D01*
X68610085Y-94063443D01*
X68586660Y-94093510D01*
X68562078Y-94100000D01*
X65135506Y-94100000D01*
X65100292Y-94085414D01*
X65088426Y-94066434D01*
X64602720Y-92657888D01*
X64600000Y-92641654D01*
X64600000Y-91249800D01*
X64614586Y-91214586D01*
X64649800Y-91200000D01*
X68950200Y-91200000D01*
X68985414Y-91214586D01*
G37*
G04 #@! TD.AperFunction*
G04 #@! TA.AperFunction,Conductor*
G36*
X68676197Y-102514586D02*
G01*
X68690783Y-102549800D01*
X68687085Y-102566375D01*
X68687588Y-102566529D01*
X68686550Y-102569926D01*
X68685043Y-102573135D01*
X68666115Y-102694699D01*
X68682067Y-102816689D01*
X68683496Y-102819937D01*
X68683497Y-102819940D01*
X68718725Y-102900000D01*
X68731617Y-102929298D01*
X68783884Y-102991477D01*
X68788321Y-102996756D01*
X68800000Y-103028800D01*
X68800000Y-104250200D01*
X68785414Y-104285414D01*
X68750200Y-104300000D01*
X68668897Y-104300000D01*
X68654628Y-104297912D01*
X68564137Y-104270849D01*
X68560591Y-104270827D01*
X68560589Y-104270827D01*
X68504136Y-104270483D01*
X68441111Y-104270098D01*
X68343192Y-104298083D01*
X68329508Y-104300000D01*
X67468897Y-104300000D01*
X67454628Y-104297912D01*
X67364137Y-104270849D01*
X67360591Y-104270827D01*
X67360589Y-104270827D01*
X67304136Y-104270483D01*
X67241111Y-104270098D01*
X67143192Y-104298083D01*
X67129508Y-104300000D01*
X67120628Y-104300000D01*
X67085414Y-104285414D01*
X66914586Y-104114586D01*
X66900000Y-104079372D01*
X66900000Y-103240826D01*
X66914586Y-103205612D01*
X66940032Y-103191994D01*
X67165160Y-103146968D01*
X67390287Y-103101943D01*
X67390288Y-103101942D01*
X67400000Y-103100000D01*
X67493065Y-102541613D01*
X67513241Y-102509276D01*
X67542187Y-102500000D01*
X68640983Y-102500000D01*
X68676197Y-102514586D01*
G37*
G04 #@! TD.AperFunction*
M02*
