%TF.GenerationSoftware,KiCad,Pcbnew,6.0.11+dfsg-1*%
%TF.CreationDate,2023-08-05T12:31:10+02:00*%
%TF.ProjectId,kintex-pcie,6b696e74-6578-42d7-9063-69652e6b6963,rev?*%
%TF.SameCoordinates,Original*%
%TF.FileFunction,Drillmap*%
%TF.FilePolarity,Positive*%
%FSLAX45Y45*%
G04 Gerber Fmt 4.5, Leading zero omitted, Abs format (unit mm)*
G04 Created by KiCad (PCBNEW 6.0.11+dfsg-1) date 2023-08-05 12:31:10*
%MOMM*%
%LPD*%
G01*
G04 APERTURE LIST*
%ADD10C,0.100000*%
%ADD11C,0.200000*%
%ADD12C,0.320000*%
G04 APERTURE END LIST*
D10*
X6185000Y-11680000D02*
X6000000Y-11500000D01*
X4750000Y-11500000D02*
X4750000Y-5400000D01*
X11500000Y-11500000D02*
X12000000Y-11500000D01*
X11315000Y-11680000D02*
X11500000Y-11500000D01*
X6000000Y-11500000D02*
X4750000Y-11500000D01*
X12000000Y-11500000D02*
X12000000Y-5400000D01*
X5150000Y-5000000D02*
X11600000Y-5000000D01*
X12000000Y-5400000D02*
G75*
G03*
X11600000Y-5000000I-400000J0D01*
G01*
X5150000Y-5000000D02*
G75*
G03*
X4750000Y-5400000I0J-400000D01*
G01*
D11*
D12*
X4990000Y-5240000D02*
X5310000Y-5560000D01*
X5310000Y-5240000D02*
X4990000Y-5560000D01*
X11440000Y-5240000D02*
X11760000Y-5560000D01*
X11760000Y-5240000D02*
X11440000Y-5560000D01*
D11*
X5002619Y-12835476D02*
X5002619Y-12635476D01*
X5050238Y-12635476D01*
X5078810Y-12645000D01*
X5097857Y-12664048D01*
X5107381Y-12683095D01*
X5116905Y-12721190D01*
X5116905Y-12749762D01*
X5107381Y-12787857D01*
X5097857Y-12806905D01*
X5078810Y-12825952D01*
X5050238Y-12835476D01*
X5002619Y-12835476D01*
X5202619Y-12835476D02*
X5202619Y-12702143D01*
X5202619Y-12740238D02*
X5212143Y-12721190D01*
X5221667Y-12711667D01*
X5240714Y-12702143D01*
X5259762Y-12702143D01*
X5326429Y-12835476D02*
X5326429Y-12702143D01*
X5326429Y-12635476D02*
X5316905Y-12645000D01*
X5326429Y-12654524D01*
X5335952Y-12645000D01*
X5326429Y-12635476D01*
X5326429Y-12654524D01*
X5450238Y-12835476D02*
X5431190Y-12825952D01*
X5421667Y-12806905D01*
X5421667Y-12635476D01*
X5555000Y-12835476D02*
X5535952Y-12825952D01*
X5526429Y-12806905D01*
X5526429Y-12635476D01*
X5783571Y-12835476D02*
X5783571Y-12635476D01*
X5850238Y-12778333D01*
X5916905Y-12635476D01*
X5916905Y-12835476D01*
X6097857Y-12835476D02*
X6097857Y-12730714D01*
X6088333Y-12711667D01*
X6069286Y-12702143D01*
X6031190Y-12702143D01*
X6012143Y-12711667D01*
X6097857Y-12825952D02*
X6078809Y-12835476D01*
X6031190Y-12835476D01*
X6012143Y-12825952D01*
X6002619Y-12806905D01*
X6002619Y-12787857D01*
X6012143Y-12768809D01*
X6031190Y-12759286D01*
X6078809Y-12759286D01*
X6097857Y-12749762D01*
X6193095Y-12702143D02*
X6193095Y-12902143D01*
X6193095Y-12711667D02*
X6212143Y-12702143D01*
X6250238Y-12702143D01*
X6269286Y-12711667D01*
X6278809Y-12721190D01*
X6288333Y-12740238D01*
X6288333Y-12797381D01*
X6278809Y-12816428D01*
X6269286Y-12825952D01*
X6250238Y-12835476D01*
X6212143Y-12835476D01*
X6193095Y-12825952D01*
X6374048Y-12816428D02*
X6383571Y-12825952D01*
X6374048Y-12835476D01*
X6364524Y-12825952D01*
X6374048Y-12816428D01*
X6374048Y-12835476D01*
X6374048Y-12711667D02*
X6383571Y-12721190D01*
X6374048Y-12730714D01*
X6364524Y-12721190D01*
X6374048Y-12711667D01*
X6374048Y-12730714D01*
X4545000Y-13065000D02*
X4745000Y-13265000D01*
X4745000Y-13065000D02*
X4545000Y-13265000D01*
X4983571Y-13055476D02*
X5107381Y-13055476D01*
X5040714Y-13131667D01*
X5069286Y-13131667D01*
X5088333Y-13141190D01*
X5097857Y-13150714D01*
X5107381Y-13169762D01*
X5107381Y-13217381D01*
X5097857Y-13236428D01*
X5088333Y-13245952D01*
X5069286Y-13255476D01*
X5012143Y-13255476D01*
X4993095Y-13245952D01*
X4983571Y-13236428D01*
X5193095Y-13236428D02*
X5202619Y-13245952D01*
X5193095Y-13255476D01*
X5183571Y-13245952D01*
X5193095Y-13236428D01*
X5193095Y-13255476D01*
X5278810Y-13074524D02*
X5288333Y-13065000D01*
X5307381Y-13055476D01*
X5355000Y-13055476D01*
X5374048Y-13065000D01*
X5383571Y-13074524D01*
X5393095Y-13093571D01*
X5393095Y-13112619D01*
X5383571Y-13141190D01*
X5269286Y-13255476D01*
X5393095Y-13255476D01*
X5516905Y-13055476D02*
X5535952Y-13055476D01*
X5555000Y-13065000D01*
X5564524Y-13074524D01*
X5574048Y-13093571D01*
X5583571Y-13131667D01*
X5583571Y-13179286D01*
X5574048Y-13217381D01*
X5564524Y-13236428D01*
X5555000Y-13245952D01*
X5535952Y-13255476D01*
X5516905Y-13255476D01*
X5497857Y-13245952D01*
X5488333Y-13236428D01*
X5478810Y-13217381D01*
X5469286Y-13179286D01*
X5469286Y-13131667D01*
X5478810Y-13093571D01*
X5488333Y-13074524D01*
X5497857Y-13065000D01*
X5516905Y-13055476D01*
X5707381Y-13055476D02*
X5726428Y-13055476D01*
X5745476Y-13065000D01*
X5755000Y-13074524D01*
X5764524Y-13093571D01*
X5774048Y-13131667D01*
X5774048Y-13179286D01*
X5764524Y-13217381D01*
X5755000Y-13236428D01*
X5745476Y-13245952D01*
X5726428Y-13255476D01*
X5707381Y-13255476D01*
X5688333Y-13245952D01*
X5678809Y-13236428D01*
X5669286Y-13217381D01*
X5659762Y-13179286D01*
X5659762Y-13131667D01*
X5669286Y-13093571D01*
X5678809Y-13074524D01*
X5688333Y-13065000D01*
X5707381Y-13055476D01*
X5859762Y-13255476D02*
X5859762Y-13122143D01*
X5859762Y-13141190D02*
X5869286Y-13131667D01*
X5888333Y-13122143D01*
X5916905Y-13122143D01*
X5935952Y-13131667D01*
X5945476Y-13150714D01*
X5945476Y-13255476D01*
X5945476Y-13150714D02*
X5955000Y-13131667D01*
X5974048Y-13122143D01*
X6002619Y-13122143D01*
X6021667Y-13131667D01*
X6031190Y-13150714D01*
X6031190Y-13255476D01*
X6126428Y-13255476D02*
X6126428Y-13122143D01*
X6126428Y-13141190D02*
X6135952Y-13131667D01*
X6155000Y-13122143D01*
X6183571Y-13122143D01*
X6202619Y-13131667D01*
X6212143Y-13150714D01*
X6212143Y-13255476D01*
X6212143Y-13150714D02*
X6221667Y-13131667D01*
X6240714Y-13122143D01*
X6269286Y-13122143D01*
X6288333Y-13131667D01*
X6297857Y-13150714D01*
X6297857Y-13255476D01*
X6688333Y-13045952D02*
X6516905Y-13303095D01*
X6945476Y-13055476D02*
X6964524Y-13055476D01*
X6983571Y-13065000D01*
X6993095Y-13074524D01*
X7002619Y-13093571D01*
X7012143Y-13131667D01*
X7012143Y-13179286D01*
X7002619Y-13217381D01*
X6993095Y-13236428D01*
X6983571Y-13245952D01*
X6964524Y-13255476D01*
X6945476Y-13255476D01*
X6926428Y-13245952D01*
X6916905Y-13236428D01*
X6907381Y-13217381D01*
X6897857Y-13179286D01*
X6897857Y-13131667D01*
X6907381Y-13093571D01*
X6916905Y-13074524D01*
X6926428Y-13065000D01*
X6945476Y-13055476D01*
X7097857Y-13236428D02*
X7107381Y-13245952D01*
X7097857Y-13255476D01*
X7088333Y-13245952D01*
X7097857Y-13236428D01*
X7097857Y-13255476D01*
X7297857Y-13255476D02*
X7183571Y-13255476D01*
X7240714Y-13255476D02*
X7240714Y-13055476D01*
X7221667Y-13084048D01*
X7202619Y-13103095D01*
X7183571Y-13112619D01*
X7374048Y-13074524D02*
X7383571Y-13065000D01*
X7402619Y-13055476D01*
X7450238Y-13055476D01*
X7469286Y-13065000D01*
X7478809Y-13074524D01*
X7488333Y-13093571D01*
X7488333Y-13112619D01*
X7478809Y-13141190D01*
X7364524Y-13255476D01*
X7488333Y-13255476D01*
X7659762Y-13055476D02*
X7621667Y-13055476D01*
X7602619Y-13065000D01*
X7593095Y-13074524D01*
X7574048Y-13103095D01*
X7564524Y-13141190D01*
X7564524Y-13217381D01*
X7574048Y-13236428D01*
X7583571Y-13245952D01*
X7602619Y-13255476D01*
X7640714Y-13255476D01*
X7659762Y-13245952D01*
X7669286Y-13236428D01*
X7678809Y-13217381D01*
X7678809Y-13169762D01*
X7669286Y-13150714D01*
X7659762Y-13141190D01*
X7640714Y-13131667D01*
X7602619Y-13131667D01*
X7583571Y-13141190D01*
X7574048Y-13150714D01*
X7564524Y-13169762D01*
X7802619Y-13055476D02*
X7821667Y-13055476D01*
X7840714Y-13065000D01*
X7850238Y-13074524D01*
X7859762Y-13093571D01*
X7869286Y-13131667D01*
X7869286Y-13179286D01*
X7859762Y-13217381D01*
X7850238Y-13236428D01*
X7840714Y-13245952D01*
X7821667Y-13255476D01*
X7802619Y-13255476D01*
X7783571Y-13245952D01*
X7774048Y-13236428D01*
X7764524Y-13217381D01*
X7755000Y-13179286D01*
X7755000Y-13131667D01*
X7764524Y-13093571D01*
X7774048Y-13074524D01*
X7783571Y-13065000D01*
X7802619Y-13055476D01*
X7945476Y-13055476D02*
X7945476Y-13093571D01*
X8021667Y-13055476D02*
X8021667Y-13093571D01*
X8316905Y-13331667D02*
X8307381Y-13322143D01*
X8288333Y-13293571D01*
X8278809Y-13274524D01*
X8269286Y-13245952D01*
X8259762Y-13198333D01*
X8259762Y-13160238D01*
X8269286Y-13112619D01*
X8278809Y-13084048D01*
X8288333Y-13065000D01*
X8307381Y-13036428D01*
X8316905Y-13026905D01*
X8383571Y-13074524D02*
X8393095Y-13065000D01*
X8412143Y-13055476D01*
X8459762Y-13055476D01*
X8478810Y-13065000D01*
X8488333Y-13074524D01*
X8497857Y-13093571D01*
X8497857Y-13112619D01*
X8488333Y-13141190D01*
X8374048Y-13255476D01*
X8497857Y-13255476D01*
X8735952Y-13255476D02*
X8735952Y-13055476D01*
X8821667Y-13255476D02*
X8821667Y-13150714D01*
X8812143Y-13131667D01*
X8793095Y-13122143D01*
X8764524Y-13122143D01*
X8745476Y-13131667D01*
X8735952Y-13141190D01*
X8945476Y-13255476D02*
X8926429Y-13245952D01*
X8916905Y-13236428D01*
X8907381Y-13217381D01*
X8907381Y-13160238D01*
X8916905Y-13141190D01*
X8926429Y-13131667D01*
X8945476Y-13122143D01*
X8974048Y-13122143D01*
X8993095Y-13131667D01*
X9002619Y-13141190D01*
X9012143Y-13160238D01*
X9012143Y-13217381D01*
X9002619Y-13236428D01*
X8993095Y-13245952D01*
X8974048Y-13255476D01*
X8945476Y-13255476D01*
X9126429Y-13255476D02*
X9107381Y-13245952D01*
X9097857Y-13226905D01*
X9097857Y-13055476D01*
X9278810Y-13245952D02*
X9259762Y-13255476D01*
X9221667Y-13255476D01*
X9202619Y-13245952D01*
X9193095Y-13226905D01*
X9193095Y-13150714D01*
X9202619Y-13131667D01*
X9221667Y-13122143D01*
X9259762Y-13122143D01*
X9278810Y-13131667D01*
X9288333Y-13150714D01*
X9288333Y-13169762D01*
X9193095Y-13188809D01*
X9364524Y-13245952D02*
X9383571Y-13255476D01*
X9421667Y-13255476D01*
X9440714Y-13245952D01*
X9450238Y-13226905D01*
X9450238Y-13217381D01*
X9440714Y-13198333D01*
X9421667Y-13188809D01*
X9393095Y-13188809D01*
X9374048Y-13179286D01*
X9364524Y-13160238D01*
X9364524Y-13150714D01*
X9374048Y-13131667D01*
X9393095Y-13122143D01*
X9421667Y-13122143D01*
X9440714Y-13131667D01*
X9516905Y-13331667D02*
X9526429Y-13322143D01*
X9545476Y-13293571D01*
X9555000Y-13274524D01*
X9564524Y-13245952D01*
X9574048Y-13198333D01*
X9574048Y-13160238D01*
X9564524Y-13112619D01*
X9555000Y-13084048D01*
X9545476Y-13065000D01*
X9526429Y-13036428D01*
X9516905Y-13026905D01*
X9878810Y-13331667D02*
X9869286Y-13322143D01*
X9850238Y-13293571D01*
X9840714Y-13274524D01*
X9831190Y-13245952D01*
X9821667Y-13198333D01*
X9821667Y-13160238D01*
X9831190Y-13112619D01*
X9840714Y-13084048D01*
X9850238Y-13065000D01*
X9869286Y-13036428D01*
X9878810Y-13026905D01*
X9955000Y-13122143D02*
X9955000Y-13255476D01*
X9955000Y-13141190D02*
X9964524Y-13131667D01*
X9983571Y-13122143D01*
X10012143Y-13122143D01*
X10031190Y-13131667D01*
X10040714Y-13150714D01*
X10040714Y-13255476D01*
X10164524Y-13255476D02*
X10145476Y-13245952D01*
X10135952Y-13236428D01*
X10126429Y-13217381D01*
X10126429Y-13160238D01*
X10135952Y-13141190D01*
X10145476Y-13131667D01*
X10164524Y-13122143D01*
X10193095Y-13122143D01*
X10212143Y-13131667D01*
X10221667Y-13141190D01*
X10231190Y-13160238D01*
X10231190Y-13217381D01*
X10221667Y-13236428D01*
X10212143Y-13245952D01*
X10193095Y-13255476D01*
X10164524Y-13255476D01*
X10288333Y-13122143D02*
X10364524Y-13122143D01*
X10316905Y-13055476D02*
X10316905Y-13226905D01*
X10326429Y-13245952D01*
X10345476Y-13255476D01*
X10364524Y-13255476D01*
X10583571Y-13122143D02*
X10583571Y-13322143D01*
X10583571Y-13131667D02*
X10602619Y-13122143D01*
X10640714Y-13122143D01*
X10659762Y-13131667D01*
X10669286Y-13141190D01*
X10678810Y-13160238D01*
X10678810Y-13217381D01*
X10669286Y-13236428D01*
X10659762Y-13245952D01*
X10640714Y-13255476D01*
X10602619Y-13255476D01*
X10583571Y-13245952D01*
X10793095Y-13255476D02*
X10774048Y-13245952D01*
X10764524Y-13226905D01*
X10764524Y-13055476D01*
X10955000Y-13255476D02*
X10955000Y-13150714D01*
X10945476Y-13131667D01*
X10926429Y-13122143D01*
X10888333Y-13122143D01*
X10869286Y-13131667D01*
X10955000Y-13245952D02*
X10935952Y-13255476D01*
X10888333Y-13255476D01*
X10869286Y-13245952D01*
X10859762Y-13226905D01*
X10859762Y-13207857D01*
X10869286Y-13188809D01*
X10888333Y-13179286D01*
X10935952Y-13179286D01*
X10955000Y-13169762D01*
X11021667Y-13122143D02*
X11097857Y-13122143D01*
X11050238Y-13055476D02*
X11050238Y-13226905D01*
X11059762Y-13245952D01*
X11078810Y-13255476D01*
X11097857Y-13255476D01*
X11240714Y-13245952D02*
X11221667Y-13255476D01*
X11183571Y-13255476D01*
X11164524Y-13245952D01*
X11155000Y-13226905D01*
X11155000Y-13150714D01*
X11164524Y-13131667D01*
X11183571Y-13122143D01*
X11221667Y-13122143D01*
X11240714Y-13131667D01*
X11250238Y-13150714D01*
X11250238Y-13169762D01*
X11155000Y-13188809D01*
X11421667Y-13255476D02*
X11421667Y-13055476D01*
X11421667Y-13245952D02*
X11402619Y-13255476D01*
X11364524Y-13255476D01*
X11345476Y-13245952D01*
X11335952Y-13236428D01*
X11326428Y-13217381D01*
X11326428Y-13160238D01*
X11335952Y-13141190D01*
X11345476Y-13131667D01*
X11364524Y-13122143D01*
X11402619Y-13122143D01*
X11421667Y-13131667D01*
X11497857Y-13331667D02*
X11507381Y-13322143D01*
X11526428Y-13293571D01*
X11535952Y-13274524D01*
X11545476Y-13245952D01*
X11555000Y-13198333D01*
X11555000Y-13160238D01*
X11545476Y-13112619D01*
X11535952Y-13084048D01*
X11526428Y-13065000D01*
X11507381Y-13036428D01*
X11497857Y-13026905D01*
M02*
