%TF.GenerationSoftware,KiCad,Pcbnew,6.0.11+dfsg-1*%
%TF.CreationDate,2023-08-05T12:31:10+02:00*%
%TF.ProjectId,kintex-pcie,6b696e74-6578-42d7-9063-69652e6b6963,rev?*%
%TF.SameCoordinates,Original*%
%TF.FileFunction,Drillmap*%
%TF.FilePolarity,Positive*%
%FSLAX45Y45*%
G04 Gerber Fmt 4.5, Leading zero omitted, Abs format (unit mm)*
G04 Created by KiCad (PCBNEW 6.0.11+dfsg-1) date 2023-08-05 12:31:10*
%MOMM*%
%LPD*%
G01*
G04 APERTURE LIST*
%ADD10C,0.100000*%
%ADD11C,0.200000*%
%ADD12C,0.020000*%
G04 APERTURE END LIST*
D10*
X6185000Y-11680000D02*
X6000000Y-11500000D01*
X4750000Y-11500000D02*
X4750000Y-5400000D01*
X11500000Y-11500000D02*
X12000000Y-11500000D01*
X11315000Y-11680000D02*
X11500000Y-11500000D01*
X6000000Y-11500000D02*
X4750000Y-11500000D01*
X12000000Y-11500000D02*
X12000000Y-5400000D01*
X5150000Y-5000000D02*
X11600000Y-5000000D01*
X12000000Y-5400000D02*
G75*
G03*
X11600000Y-5000000I-400000J0D01*
G01*
X5150000Y-5000000D02*
G75*
G03*
X4750000Y-5400000I0J-400000D01*
G01*
D11*
D12*
X4840000Y-8990000D02*
X4860000Y-9010000D01*
X4860000Y-8990000D02*
X4840000Y-9010000D01*
X4880000Y-10060000D02*
X4900000Y-10080000D01*
X4900000Y-10060000D02*
X4880000Y-10080000D01*
X4890000Y-9190000D02*
X4910000Y-9210000D01*
X4910000Y-9190000D02*
X4890000Y-9210000D01*
X4890000Y-9290000D02*
X4910000Y-9310000D01*
X4910000Y-9290000D02*
X4890000Y-9310000D01*
X4890000Y-9390000D02*
X4910000Y-9410000D01*
X4910000Y-9390000D02*
X4890000Y-9410000D01*
X4890000Y-9490000D02*
X4910000Y-9510000D01*
X4910000Y-9490000D02*
X4890000Y-9510000D01*
X4890000Y-9590000D02*
X4910000Y-9610000D01*
X4910000Y-9590000D02*
X4890000Y-9610000D01*
X4890000Y-9690000D02*
X4910000Y-9710000D01*
X4910000Y-9690000D02*
X4890000Y-9710000D01*
X4890000Y-9790000D02*
X4910000Y-9810000D01*
X4910000Y-9790000D02*
X4890000Y-9810000D01*
X4915000Y-7715000D02*
X4935000Y-7735000D01*
X4935000Y-7715000D02*
X4915000Y-7735000D01*
X4915000Y-8590000D02*
X4935000Y-8610000D01*
X4935000Y-8590000D02*
X4915000Y-8610000D01*
X4990000Y-9290000D02*
X5010000Y-9310000D01*
X5010000Y-9290000D02*
X4990000Y-9310000D01*
X4990000Y-9390000D02*
X5010000Y-9410000D01*
X5010000Y-9390000D02*
X4990000Y-9410000D01*
X4990000Y-9490000D02*
X5010000Y-9510000D01*
X5010000Y-9490000D02*
X4990000Y-9510000D01*
X4990000Y-9590000D02*
X5010000Y-9610000D01*
X5010000Y-9590000D02*
X4990000Y-9610000D01*
X4990000Y-9690000D02*
X5010000Y-9710000D01*
X5010000Y-9690000D02*
X4990000Y-9710000D01*
X4990000Y-10315000D02*
X5010000Y-10335000D01*
X5010000Y-10315000D02*
X4990000Y-10335000D01*
X5090000Y-7715000D02*
X5110000Y-7735000D01*
X5110000Y-7715000D02*
X5090000Y-7735000D01*
X5090000Y-9390000D02*
X5110000Y-9410000D01*
X5110000Y-9390000D02*
X5090000Y-9410000D01*
X5090000Y-9490000D02*
X5110000Y-9510000D01*
X5110000Y-9490000D02*
X5090000Y-9510000D01*
X5090000Y-9590000D02*
X5110000Y-9610000D01*
X5110000Y-9590000D02*
X5090000Y-9610000D01*
X5090000Y-11040000D02*
X5110000Y-11060000D01*
X5110000Y-11040000D02*
X5090000Y-11060000D01*
X5115000Y-10265000D02*
X5135000Y-10285000D01*
X5135000Y-10265000D02*
X5115000Y-10285000D01*
X5240000Y-10520000D02*
X5260000Y-10540000D01*
X5260000Y-10520000D02*
X5240000Y-10540000D01*
X5410000Y-9590000D02*
X5430000Y-9610000D01*
X5430000Y-9590000D02*
X5410000Y-9610000D01*
X5420000Y-8820000D02*
X5440000Y-8840000D01*
X5440000Y-8820000D02*
X5420000Y-8840000D01*
X5435000Y-9675000D02*
X5455000Y-9695000D01*
X5455000Y-9675000D02*
X5435000Y-9695000D01*
X5440000Y-10590000D02*
X5460000Y-10610000D01*
X5460000Y-10590000D02*
X5440000Y-10610000D01*
X5440000Y-9920000D02*
X5460000Y-9940000D01*
X5460000Y-9920000D02*
X5440000Y-9940000D01*
X5450000Y-10520000D02*
X5470000Y-10540000D01*
X5470000Y-10520000D02*
X5450000Y-10540000D01*
X5540000Y-8790000D02*
X5560000Y-8810000D01*
X5560000Y-8790000D02*
X5540000Y-8810000D01*
X5540000Y-8840000D02*
X5560000Y-8860000D01*
X5560000Y-8840000D02*
X5540000Y-8860000D01*
X5550000Y-10370000D02*
X5570000Y-10390000D01*
X5570000Y-10370000D02*
X5550000Y-10390000D01*
X5565000Y-10265000D02*
X5585000Y-10285000D01*
X5585000Y-10265000D02*
X5565000Y-10285000D01*
X5590000Y-8790000D02*
X5610000Y-8810000D01*
X5610000Y-8790000D02*
X5590000Y-8810000D01*
X5590000Y-8840000D02*
X5610000Y-8860000D01*
X5610000Y-8840000D02*
X5590000Y-8860000D01*
X5590000Y-9380000D02*
X5610000Y-9400000D01*
X5610000Y-9380000D02*
X5590000Y-9400000D01*
X5590000Y-9430000D02*
X5610000Y-9450000D01*
X5610000Y-9430000D02*
X5590000Y-9450000D01*
X5670000Y-8590000D02*
X5690000Y-8610000D01*
X5690000Y-8590000D02*
X5670000Y-8610000D01*
X5670000Y-8660000D02*
X5690000Y-8680000D01*
X5690000Y-8660000D02*
X5670000Y-8680000D01*
X5670000Y-8790000D02*
X5690000Y-8810000D01*
X5690000Y-8790000D02*
X5670000Y-8810000D01*
X5670000Y-8840000D02*
X5690000Y-8860000D01*
X5690000Y-8840000D02*
X5670000Y-8860000D01*
X5670000Y-8950000D02*
X5690000Y-8970000D01*
X5690000Y-8950000D02*
X5670000Y-8970000D01*
X5670000Y-9030000D02*
X5690000Y-9050000D01*
X5690000Y-9030000D02*
X5670000Y-9050000D01*
X5670000Y-9380000D02*
X5690000Y-9400000D01*
X5690000Y-9380000D02*
X5670000Y-9400000D01*
X5670000Y-9430000D02*
X5690000Y-9450000D01*
X5690000Y-9430000D02*
X5670000Y-9450000D01*
X5750000Y-10160000D02*
X5770000Y-10180000D01*
X5770000Y-10160000D02*
X5750000Y-10180000D01*
X5760000Y-10030000D02*
X5780000Y-10050000D01*
X5780000Y-10030000D02*
X5760000Y-10050000D01*
X5770000Y-8590000D02*
X5790000Y-8610000D01*
X5790000Y-8590000D02*
X5770000Y-8610000D01*
X5770000Y-8660000D02*
X5790000Y-8680000D01*
X5790000Y-8660000D02*
X5770000Y-8680000D01*
X5770000Y-8790000D02*
X5790000Y-8810000D01*
X5790000Y-8790000D02*
X5770000Y-8810000D01*
X5770000Y-8840000D02*
X5790000Y-8860000D01*
X5790000Y-8840000D02*
X5770000Y-8860000D01*
X5770000Y-8950000D02*
X5790000Y-8970000D01*
X5790000Y-8950000D02*
X5770000Y-8970000D01*
X5770000Y-9030000D02*
X5790000Y-9050000D01*
X5790000Y-9030000D02*
X5770000Y-9050000D01*
X5770000Y-9300000D02*
X5790000Y-9320000D01*
X5790000Y-9300000D02*
X5770000Y-9320000D01*
X5770000Y-9350000D02*
X5790000Y-9370000D01*
X5790000Y-9350000D02*
X5770000Y-9370000D01*
X5820000Y-9950000D02*
X5840000Y-9970000D01*
X5840000Y-9950000D02*
X5820000Y-9970000D01*
X5840000Y-8790000D02*
X5860000Y-8810000D01*
X5860000Y-8790000D02*
X5840000Y-8810000D01*
X5840000Y-8840000D02*
X5860000Y-8860000D01*
X5860000Y-8840000D02*
X5840000Y-8860000D01*
X5840000Y-9300000D02*
X5860000Y-9320000D01*
X5860000Y-9300000D02*
X5840000Y-9320000D01*
X5840000Y-9350000D02*
X5860000Y-9370000D01*
X5860000Y-9350000D02*
X5840000Y-9370000D01*
X5890000Y-8790000D02*
X5910000Y-8810000D01*
X5910000Y-8790000D02*
X5890000Y-8810000D01*
X5890000Y-8840000D02*
X5910000Y-8860000D01*
X5910000Y-8840000D02*
X5890000Y-8860000D01*
X5900000Y-10590000D02*
X5920000Y-10610000D01*
X5920000Y-10590000D02*
X5900000Y-10610000D01*
X5990000Y-7365000D02*
X6010000Y-7385000D01*
X6010000Y-7365000D02*
X5990000Y-7385000D01*
X5990000Y-8115000D02*
X6010000Y-8135000D01*
X6010000Y-8115000D02*
X5990000Y-8135000D01*
X6040000Y-5090000D02*
X6060000Y-5110000D01*
X6060000Y-5090000D02*
X6040000Y-5110000D01*
X6040000Y-10370000D02*
X6060000Y-10390000D01*
X6060000Y-10370000D02*
X6040000Y-10390000D01*
X6070000Y-9490000D02*
X6090000Y-9510000D01*
X6090000Y-9490000D02*
X6070000Y-9510000D01*
X6110000Y-9190000D02*
X6130000Y-9210000D01*
X6130000Y-9190000D02*
X6110000Y-9210000D01*
X6110000Y-9840000D02*
X6130000Y-9860000D01*
X6130000Y-9840000D02*
X6110000Y-9860000D01*
X6130000Y-9620000D02*
X6150000Y-9640000D01*
X6150000Y-9620000D02*
X6130000Y-9640000D01*
X6130000Y-9740000D02*
X6150000Y-9760000D01*
X6150000Y-9740000D02*
X6130000Y-9760000D01*
X6150000Y-8960000D02*
X6170000Y-8980000D01*
X6170000Y-8960000D02*
X6150000Y-8980000D01*
X6150000Y-9010000D02*
X6170000Y-9030000D01*
X6170000Y-9010000D02*
X6150000Y-9030000D01*
X6150000Y-9390000D02*
X6170000Y-9410000D01*
X6170000Y-9390000D02*
X6150000Y-9410000D01*
X6150000Y-9450000D02*
X6170000Y-9470000D01*
X6170000Y-9450000D02*
X6150000Y-9470000D01*
X6160000Y-9260000D02*
X6180000Y-9280000D01*
X6180000Y-9260000D02*
X6160000Y-9280000D01*
X6160000Y-9310000D02*
X6180000Y-9330000D01*
X6180000Y-9310000D02*
X6160000Y-9330000D01*
X6190000Y-9680000D02*
X6210000Y-9700000D01*
X6210000Y-9680000D02*
X6190000Y-9700000D01*
X6200000Y-9180000D02*
X6220000Y-9200000D01*
X6220000Y-9180000D02*
X6200000Y-9200000D01*
X6200000Y-9500000D02*
X6220000Y-9520000D01*
X6220000Y-9500000D02*
X6200000Y-9520000D01*
X6200000Y-9560000D02*
X6220000Y-9580000D01*
X6220000Y-9560000D02*
X6200000Y-9580000D01*
X6200000Y-9800000D02*
X6220000Y-9820000D01*
X6220000Y-9800000D02*
X6200000Y-9820000D01*
X6200000Y-9860000D02*
X6220000Y-9880000D01*
X6220000Y-9860000D02*
X6200000Y-9880000D01*
X6220000Y-9410000D02*
X6240000Y-9430000D01*
X6240000Y-9410000D02*
X6220000Y-9430000D01*
X6240000Y-5090000D02*
X6260000Y-5110000D01*
X6260000Y-5090000D02*
X6240000Y-5110000D01*
X6240000Y-11900000D02*
X6260000Y-11920000D01*
X6260000Y-11900000D02*
X6240000Y-11920000D01*
X6260000Y-9260000D02*
X6280000Y-9280000D01*
X6280000Y-9260000D02*
X6260000Y-9280000D01*
X6260000Y-9310000D02*
X6280000Y-9330000D01*
X6280000Y-9310000D02*
X6260000Y-9330000D01*
X6260000Y-9680000D02*
X6280000Y-9700000D01*
X6280000Y-9680000D02*
X6260000Y-9700000D01*
X6270000Y-8960000D02*
X6290000Y-8980000D01*
X6290000Y-8960000D02*
X6270000Y-8980000D01*
X6270000Y-9010000D02*
X6290000Y-9030000D01*
X6290000Y-9010000D02*
X6270000Y-9030000D01*
X6270000Y-9140000D02*
X6290000Y-9160000D01*
X6290000Y-9140000D02*
X6270000Y-9160000D01*
X6270000Y-10890000D02*
X6290000Y-10910000D01*
X6290000Y-10890000D02*
X6270000Y-10910000D01*
X6270000Y-10950000D02*
X6290000Y-10970000D01*
X6290000Y-10950000D02*
X6270000Y-10970000D01*
X6270000Y-11190000D02*
X6290000Y-11210000D01*
X6290000Y-11190000D02*
X6270000Y-11210000D01*
X6270000Y-11250000D02*
X6290000Y-11270000D01*
X6290000Y-11250000D02*
X6270000Y-11270000D01*
X6280000Y-9500000D02*
X6300000Y-9520000D01*
X6300000Y-9500000D02*
X6280000Y-9520000D01*
X6280000Y-9560000D02*
X6300000Y-9580000D01*
X6300000Y-9560000D02*
X6280000Y-9580000D01*
X6300000Y-10310000D02*
X6320000Y-10330000D01*
X6320000Y-10310000D02*
X6300000Y-10330000D01*
X6310000Y-9800000D02*
X6330000Y-9820000D01*
X6330000Y-9800000D02*
X6310000Y-9820000D01*
X6310000Y-9860000D02*
X6330000Y-9880000D01*
X6330000Y-9860000D02*
X6310000Y-9880000D01*
X6340000Y-7540000D02*
X6360000Y-7560000D01*
X6360000Y-7540000D02*
X6340000Y-7560000D01*
X6340000Y-10190000D02*
X6360000Y-10210000D01*
X6360000Y-10190000D02*
X6340000Y-10210000D01*
X6340000Y-10270000D02*
X6360000Y-10290000D01*
X6360000Y-10270000D02*
X6340000Y-10290000D01*
X6340000Y-10890000D02*
X6360000Y-10910000D01*
X6360000Y-10890000D02*
X6340000Y-10910000D01*
X6340000Y-10950000D02*
X6360000Y-10970000D01*
X6360000Y-10950000D02*
X6340000Y-10970000D01*
X6340000Y-11900000D02*
X6360000Y-11920000D01*
X6360000Y-11900000D02*
X6340000Y-11920000D01*
X6380000Y-10380000D02*
X6400000Y-10400000D01*
X6400000Y-10380000D02*
X6380000Y-10400000D01*
X6390000Y-11190000D02*
X6410000Y-11210000D01*
X6410000Y-11190000D02*
X6390000Y-11210000D01*
X6390000Y-11250000D02*
X6410000Y-11270000D01*
X6410000Y-11250000D02*
X6390000Y-11270000D01*
X6390000Y-11490000D02*
X6410000Y-11510000D01*
X6410000Y-11490000D02*
X6390000Y-11510000D01*
X6390000Y-11665000D02*
X6410000Y-11685000D01*
X6410000Y-11665000D02*
X6390000Y-11685000D01*
X6400000Y-10330000D02*
X6420000Y-10350000D01*
X6420000Y-10330000D02*
X6400000Y-10350000D01*
X6440000Y-5090000D02*
X6460000Y-5110000D01*
X6460000Y-5090000D02*
X6440000Y-5110000D01*
X6440000Y-7940000D02*
X6460000Y-7960000D01*
X6460000Y-7940000D02*
X6440000Y-7960000D01*
X6440000Y-10765000D02*
X6460000Y-10785000D01*
X6460000Y-10765000D02*
X6440000Y-10785000D01*
X6440000Y-11900000D02*
X6460000Y-11920000D01*
X6460000Y-11900000D02*
X6440000Y-11920000D01*
X6490000Y-8770000D02*
X6510000Y-8790000D01*
X6510000Y-8770000D02*
X6490000Y-8790000D01*
X6500000Y-10090000D02*
X6520000Y-10110000D01*
X6520000Y-10090000D02*
X6500000Y-10110000D01*
X6510000Y-8690000D02*
X6530000Y-8710000D01*
X6530000Y-8690000D02*
X6510000Y-8710000D01*
X6510000Y-9300000D02*
X6530000Y-9320000D01*
X6530000Y-9300000D02*
X6510000Y-9320000D01*
X6510000Y-9880000D02*
X6530000Y-9900000D01*
X6530000Y-9880000D02*
X6510000Y-9900000D01*
X6530000Y-9370000D02*
X6550000Y-9390000D01*
X6550000Y-9370000D02*
X6530000Y-9390000D01*
X6540000Y-9830000D02*
X6560000Y-9850000D01*
X6560000Y-9830000D02*
X6540000Y-9850000D01*
X6540000Y-10420000D02*
X6560000Y-10440000D01*
X6560000Y-10420000D02*
X6540000Y-10440000D01*
X6540000Y-10490000D02*
X6560000Y-10510000D01*
X6560000Y-10490000D02*
X6540000Y-10510000D01*
X6540000Y-10690000D02*
X6560000Y-10710000D01*
X6560000Y-10690000D02*
X6540000Y-10710000D01*
X6540000Y-11900000D02*
X6560000Y-11920000D01*
X6560000Y-11900000D02*
X6540000Y-11920000D01*
X6550000Y-9060000D02*
X6570000Y-9080000D01*
X6570000Y-9060000D02*
X6550000Y-9080000D01*
X6560000Y-9930000D02*
X6580000Y-9950000D01*
X6580000Y-9930000D02*
X6560000Y-9950000D01*
X6560000Y-10070000D02*
X6580000Y-10090000D01*
X6580000Y-10070000D02*
X6560000Y-10090000D01*
X6565000Y-10865000D02*
X6585000Y-10885000D01*
X6585000Y-10865000D02*
X6565000Y-10885000D01*
X6565000Y-10915000D02*
X6585000Y-10935000D01*
X6585000Y-10915000D02*
X6565000Y-10935000D01*
X6570000Y-10260000D02*
X6590000Y-10280000D01*
X6590000Y-10260000D02*
X6570000Y-10280000D01*
X6570000Y-10320000D02*
X6590000Y-10340000D01*
X6590000Y-10320000D02*
X6570000Y-10340000D01*
X6580000Y-8770000D02*
X6600000Y-8790000D01*
X6600000Y-8770000D02*
X6580000Y-8790000D01*
X6580000Y-10170000D02*
X6600000Y-10190000D01*
X6600000Y-10170000D02*
X6580000Y-10190000D01*
X6590000Y-9870000D02*
X6610000Y-9890000D01*
X6610000Y-9870000D02*
X6590000Y-9890000D01*
X6590000Y-10420000D02*
X6610000Y-10440000D01*
X6610000Y-10420000D02*
X6590000Y-10440000D01*
X6590000Y-10490000D02*
X6610000Y-10510000D01*
X6610000Y-10490000D02*
X6590000Y-10510000D01*
X6590000Y-10690000D02*
X6610000Y-10710000D01*
X6610000Y-10690000D02*
X6590000Y-10710000D01*
X6600000Y-8690000D02*
X6620000Y-8710000D01*
X6620000Y-8690000D02*
X6600000Y-8710000D01*
X6600000Y-10120000D02*
X6620000Y-10140000D01*
X6620000Y-10120000D02*
X6600000Y-10140000D01*
X6610000Y-11080000D02*
X6630000Y-11100000D01*
X6630000Y-11080000D02*
X6610000Y-11100000D01*
X6610000Y-11330000D02*
X6630000Y-11350000D01*
X6630000Y-11330000D02*
X6610000Y-11350000D01*
X6620000Y-9820000D02*
X6640000Y-9840000D01*
X6640000Y-9820000D02*
X6620000Y-9840000D01*
X6620000Y-9930000D02*
X6640000Y-9950000D01*
X6640000Y-9930000D02*
X6620000Y-9950000D01*
X6630000Y-9300000D02*
X6650000Y-9320000D01*
X6650000Y-9300000D02*
X6630000Y-9320000D01*
X6630000Y-9370000D02*
X6650000Y-9390000D01*
X6650000Y-9370000D02*
X6630000Y-9390000D01*
X6640000Y-5090000D02*
X6660000Y-5110000D01*
X6660000Y-5090000D02*
X6640000Y-5110000D01*
X6640000Y-10260000D02*
X6660000Y-10280000D01*
X6660000Y-10260000D02*
X6640000Y-10280000D01*
X6640000Y-10865000D02*
X6660000Y-10885000D01*
X6660000Y-10865000D02*
X6640000Y-10885000D01*
X6640000Y-10915000D02*
X6660000Y-10935000D01*
X6660000Y-10915000D02*
X6640000Y-10935000D01*
X6660000Y-9880000D02*
X6680000Y-9900000D01*
X6680000Y-9880000D02*
X6660000Y-9900000D01*
X6665000Y-8765000D02*
X6685000Y-8785000D01*
X6685000Y-8765000D02*
X6665000Y-8785000D01*
X6700000Y-10180000D02*
X6720000Y-10200000D01*
X6720000Y-10180000D02*
X6700000Y-10200000D01*
X6700000Y-10860000D02*
X6720000Y-10880000D01*
X6720000Y-10860000D02*
X6700000Y-10880000D01*
X6700000Y-10910000D02*
X6720000Y-10930000D01*
X6720000Y-10910000D02*
X6700000Y-10930000D01*
X6710000Y-9930000D02*
X6730000Y-9950000D01*
X6730000Y-9930000D02*
X6710000Y-9950000D01*
X6720000Y-10460000D02*
X6740000Y-10480000D01*
X6740000Y-10460000D02*
X6720000Y-10480000D01*
X6730000Y-8690000D02*
X6750000Y-8710000D01*
X6750000Y-8690000D02*
X6730000Y-8710000D01*
X6730000Y-9300000D02*
X6750000Y-9320000D01*
X6750000Y-9300000D02*
X6730000Y-9320000D01*
X6730000Y-9370000D02*
X6750000Y-9390000D01*
X6750000Y-9370000D02*
X6730000Y-9390000D01*
X6730000Y-11080000D02*
X6750000Y-11100000D01*
X6750000Y-11080000D02*
X6730000Y-11100000D01*
X6730000Y-11330000D02*
X6750000Y-11350000D01*
X6750000Y-11330000D02*
X6730000Y-11350000D01*
X6740000Y-8770000D02*
X6760000Y-8790000D01*
X6760000Y-8770000D02*
X6740000Y-8790000D01*
X6740000Y-9540000D02*
X6760000Y-9560000D01*
X6760000Y-9540000D02*
X6740000Y-9560000D01*
X6740000Y-10540000D02*
X6760000Y-10560000D01*
X6760000Y-10540000D02*
X6740000Y-10560000D01*
X6740000Y-10640000D02*
X6760000Y-10660000D01*
X6760000Y-10640000D02*
X6740000Y-10660000D01*
X6770000Y-8310000D02*
X6790000Y-8330000D01*
X6790000Y-8310000D02*
X6770000Y-8330000D01*
X6770000Y-10260000D02*
X6790000Y-10280000D01*
X6790000Y-10260000D02*
X6770000Y-10280000D01*
X6770000Y-10320000D02*
X6790000Y-10340000D01*
X6790000Y-10320000D02*
X6770000Y-10340000D01*
X6770000Y-10860000D02*
X6790000Y-10880000D01*
X6790000Y-10860000D02*
X6770000Y-10880000D01*
X6770000Y-10910000D02*
X6790000Y-10930000D01*
X6790000Y-10910000D02*
X6770000Y-10930000D01*
X6790000Y-10500000D02*
X6810000Y-10520000D01*
X6810000Y-10500000D02*
X6790000Y-10520000D01*
X6800000Y-10640000D02*
X6820000Y-10660000D01*
X6820000Y-10640000D02*
X6800000Y-10660000D01*
X6810000Y-8690000D02*
X6830000Y-8710000D01*
X6830000Y-8690000D02*
X6810000Y-8710000D01*
X6830000Y-8770000D02*
X6850000Y-8790000D01*
X6850000Y-8770000D02*
X6830000Y-8790000D01*
X6830000Y-9370000D02*
X6850000Y-9390000D01*
X6850000Y-9370000D02*
X6830000Y-9390000D01*
X6830000Y-10260000D02*
X6850000Y-10280000D01*
X6850000Y-10260000D02*
X6830000Y-10280000D01*
X6830000Y-10320000D02*
X6850000Y-10340000D01*
X6850000Y-10320000D02*
X6830000Y-10340000D01*
X6840000Y-5090000D02*
X6860000Y-5110000D01*
X6860000Y-5090000D02*
X6840000Y-5110000D01*
X6840000Y-9300000D02*
X6860000Y-9320000D01*
X6860000Y-9300000D02*
X6840000Y-9320000D01*
X6840000Y-10160000D02*
X6860000Y-10180000D01*
X6860000Y-10160000D02*
X6840000Y-10180000D01*
X6840000Y-10460000D02*
X6860000Y-10480000D01*
X6860000Y-10460000D02*
X6840000Y-10480000D01*
X6840000Y-11900000D02*
X6860000Y-11920000D01*
X6860000Y-11900000D02*
X6840000Y-11920000D01*
X6850000Y-10520000D02*
X6870000Y-10540000D01*
X6870000Y-10520000D02*
X6850000Y-10540000D01*
X6890000Y-10570000D02*
X6910000Y-10590000D01*
X6910000Y-10570000D02*
X6890000Y-10590000D01*
X6900000Y-10260000D02*
X6920000Y-10280000D01*
X6920000Y-10260000D02*
X6900000Y-10280000D01*
X6910000Y-10470000D02*
X6930000Y-10490000D01*
X6930000Y-10470000D02*
X6910000Y-10490000D01*
X6915000Y-8715000D02*
X6935000Y-8735000D01*
X6935000Y-8715000D02*
X6915000Y-8735000D01*
X6915000Y-11065000D02*
X6935000Y-11085000D01*
X6935000Y-11065000D02*
X6915000Y-11085000D01*
X6915000Y-11340000D02*
X6935000Y-11360000D01*
X6935000Y-11340000D02*
X6915000Y-11360000D01*
X6930000Y-9430000D02*
X6950000Y-9450000D01*
X6950000Y-9430000D02*
X6930000Y-9450000D01*
X6940000Y-10520000D02*
X6960000Y-10540000D01*
X6960000Y-10520000D02*
X6940000Y-10540000D01*
X6950000Y-10650000D02*
X6970000Y-10670000D01*
X6970000Y-10650000D02*
X6950000Y-10670000D01*
X6960000Y-10870000D02*
X6980000Y-10890000D01*
X6980000Y-10870000D02*
X6960000Y-10890000D01*
X6960000Y-10920000D02*
X6980000Y-10940000D01*
X6980000Y-10920000D02*
X6960000Y-10940000D01*
X6970000Y-9330000D02*
X6990000Y-9350000D01*
X6990000Y-9330000D02*
X6970000Y-9350000D01*
X6990000Y-10490000D02*
X7010000Y-10510000D01*
X7010000Y-10490000D02*
X6990000Y-10510000D01*
X7010000Y-10540000D02*
X7030000Y-10560000D01*
X7030000Y-10540000D02*
X7010000Y-10560000D01*
X7010000Y-10650000D02*
X7030000Y-10670000D01*
X7030000Y-10650000D02*
X7010000Y-10670000D01*
X7015000Y-9915000D02*
X7035000Y-9935000D01*
X7035000Y-9915000D02*
X7015000Y-9935000D01*
X7015000Y-11065000D02*
X7035000Y-11085000D01*
X7035000Y-11065000D02*
X7015000Y-11085000D01*
X7015000Y-11340000D02*
X7035000Y-11360000D01*
X7035000Y-11340000D02*
X7015000Y-11360000D01*
X7020000Y-9300000D02*
X7040000Y-9320000D01*
X7040000Y-9300000D02*
X7020000Y-9320000D01*
X7030000Y-10870000D02*
X7050000Y-10890000D01*
X7050000Y-10870000D02*
X7030000Y-10890000D01*
X7030000Y-10920000D02*
X7050000Y-10940000D01*
X7050000Y-10920000D02*
X7030000Y-10940000D01*
X7040000Y-5090000D02*
X7060000Y-5110000D01*
X7060000Y-5090000D02*
X7040000Y-5110000D01*
X7040000Y-8290000D02*
X7060000Y-8310000D01*
X7060000Y-8290000D02*
X7040000Y-8310000D01*
X7040000Y-8790000D02*
X7060000Y-8810000D01*
X7060000Y-8790000D02*
X7040000Y-8810000D01*
X7040000Y-9640000D02*
X7060000Y-9660000D01*
X7060000Y-9640000D02*
X7040000Y-9660000D01*
X7090000Y-10260000D02*
X7110000Y-10280000D01*
X7110000Y-10260000D02*
X7090000Y-10280000D01*
X7090000Y-11865000D02*
X7110000Y-11885000D01*
X7110000Y-11865000D02*
X7090000Y-11885000D01*
X7100000Y-8790000D02*
X7120000Y-8810000D01*
X7120000Y-8790000D02*
X7100000Y-8810000D01*
X7100000Y-10870000D02*
X7120000Y-10890000D01*
X7120000Y-10870000D02*
X7100000Y-10890000D01*
X7100000Y-10920000D02*
X7120000Y-10940000D01*
X7120000Y-10920000D02*
X7100000Y-10940000D01*
X7120000Y-9290000D02*
X7140000Y-9310000D01*
X7140000Y-9290000D02*
X7120000Y-9310000D01*
X7140000Y-10420000D02*
X7160000Y-10440000D01*
X7160000Y-10420000D02*
X7140000Y-10440000D01*
X7140000Y-10490000D02*
X7160000Y-10510000D01*
X7160000Y-10490000D02*
X7140000Y-10510000D01*
X7140000Y-10550000D02*
X7160000Y-10570000D01*
X7160000Y-10550000D02*
X7140000Y-10570000D01*
X7160000Y-10260000D02*
X7180000Y-10280000D01*
X7180000Y-10260000D02*
X7160000Y-10280000D01*
X7160000Y-10320000D02*
X7180000Y-10340000D01*
X7180000Y-10320000D02*
X7160000Y-10340000D01*
X7165000Y-11065000D02*
X7185000Y-11085000D01*
X7185000Y-11065000D02*
X7165000Y-11085000D01*
X7165000Y-11340000D02*
X7185000Y-11360000D01*
X7185000Y-11340000D02*
X7165000Y-11360000D01*
X7170000Y-10870000D02*
X7190000Y-10890000D01*
X7190000Y-10870000D02*
X7170000Y-10890000D01*
X7170000Y-10920000D02*
X7190000Y-10940000D01*
X7190000Y-10920000D02*
X7170000Y-10940000D01*
X7190000Y-10420000D02*
X7210000Y-10440000D01*
X7210000Y-10420000D02*
X7190000Y-10440000D01*
X7190000Y-10490000D02*
X7210000Y-10510000D01*
X7210000Y-10490000D02*
X7190000Y-10510000D01*
X7190000Y-10550000D02*
X7210000Y-10570000D01*
X7210000Y-10550000D02*
X7190000Y-10570000D01*
X7215000Y-9890000D02*
X7235000Y-9910000D01*
X7235000Y-9890000D02*
X7215000Y-9910000D01*
X7220000Y-8890000D02*
X7240000Y-8910000D01*
X7240000Y-8890000D02*
X7220000Y-8910000D01*
X7220000Y-8940000D02*
X7240000Y-8960000D01*
X7240000Y-8940000D02*
X7220000Y-8960000D01*
X7220000Y-9740000D02*
X7240000Y-9760000D01*
X7240000Y-9740000D02*
X7220000Y-9760000D01*
X7230000Y-8600000D02*
X7250000Y-8620000D01*
X7250000Y-8600000D02*
X7230000Y-8620000D01*
X7230000Y-8650000D02*
X7250000Y-8670000D01*
X7250000Y-8650000D02*
X7230000Y-8670000D01*
X7240000Y-5090000D02*
X7260000Y-5110000D01*
X7260000Y-5090000D02*
X7240000Y-5110000D01*
X7265000Y-11065000D02*
X7285000Y-11085000D01*
X7285000Y-11065000D02*
X7265000Y-11085000D01*
X7265000Y-11340000D02*
X7285000Y-11360000D01*
X7285000Y-11340000D02*
X7265000Y-11360000D01*
X7280000Y-7950000D02*
X7300000Y-7970000D01*
X7300000Y-7950000D02*
X7280000Y-7970000D01*
X7280000Y-8010000D02*
X7300000Y-8030000D01*
X7300000Y-8010000D02*
X7280000Y-8030000D01*
X7280000Y-9370000D02*
X7300000Y-9390000D01*
X7300000Y-9370000D02*
X7280000Y-9390000D01*
X7290000Y-10820000D02*
X7310000Y-10840000D01*
X7310000Y-10820000D02*
X7290000Y-10840000D01*
X7300000Y-10900000D02*
X7320000Y-10920000D01*
X7320000Y-10900000D02*
X7300000Y-10920000D01*
X7330000Y-8480000D02*
X7350000Y-8500000D01*
X7350000Y-8480000D02*
X7330000Y-8500000D01*
X7330000Y-8600000D02*
X7350000Y-8620000D01*
X7350000Y-8600000D02*
X7330000Y-8620000D01*
X7330000Y-8650000D02*
X7350000Y-8670000D01*
X7350000Y-8650000D02*
X7330000Y-8670000D01*
X7330000Y-9140000D02*
X7350000Y-9160000D01*
X7350000Y-9140000D02*
X7330000Y-9160000D01*
X7340000Y-8890000D02*
X7360000Y-8910000D01*
X7360000Y-8890000D02*
X7340000Y-8910000D01*
X7340000Y-8940000D02*
X7360000Y-8960000D01*
X7360000Y-8940000D02*
X7340000Y-8960000D01*
X7340000Y-10665000D02*
X7360000Y-10685000D01*
X7360000Y-10665000D02*
X7340000Y-10685000D01*
X7350000Y-10270000D02*
X7370000Y-10290000D01*
X7370000Y-10270000D02*
X7350000Y-10290000D01*
X7350000Y-10410000D02*
X7370000Y-10430000D01*
X7370000Y-10410000D02*
X7350000Y-10430000D01*
X7350000Y-10540000D02*
X7370000Y-10560000D01*
X7370000Y-10540000D02*
X7350000Y-10560000D01*
X7360000Y-9890000D02*
X7380000Y-9910000D01*
X7380000Y-9890000D02*
X7360000Y-9910000D01*
X7360000Y-10150000D02*
X7380000Y-10170000D01*
X7380000Y-10150000D02*
X7360000Y-10170000D01*
X7365000Y-10740000D02*
X7385000Y-10760000D01*
X7385000Y-10740000D02*
X7365000Y-10760000D01*
X7370000Y-10840000D02*
X7390000Y-10860000D01*
X7390000Y-10840000D02*
X7370000Y-10860000D01*
X7410000Y-9310000D02*
X7430000Y-9330000D01*
X7430000Y-9310000D02*
X7410000Y-9330000D01*
X7420000Y-7840000D02*
X7440000Y-7860000D01*
X7440000Y-7840000D02*
X7420000Y-7860000D01*
X7420000Y-8070000D02*
X7440000Y-8090000D01*
X7440000Y-8070000D02*
X7420000Y-8090000D01*
X7420000Y-8980000D02*
X7440000Y-9000000D01*
X7440000Y-8980000D02*
X7420000Y-9000000D01*
X7430000Y-8240000D02*
X7450000Y-8260000D01*
X7450000Y-8240000D02*
X7430000Y-8260000D01*
X7430000Y-8410000D02*
X7450000Y-8430000D01*
X7450000Y-8410000D02*
X7430000Y-8430000D01*
X7430000Y-9440000D02*
X7450000Y-9460000D01*
X7450000Y-9440000D02*
X7430000Y-9460000D01*
X7440000Y-5090000D02*
X7460000Y-5110000D01*
X7460000Y-5090000D02*
X7440000Y-5110000D01*
X7440000Y-9140000D02*
X7460000Y-9160000D01*
X7460000Y-9140000D02*
X7440000Y-9160000D01*
X7490000Y-7290000D02*
X7510000Y-7310000D01*
X7510000Y-7290000D02*
X7490000Y-7310000D01*
X7490000Y-7790000D02*
X7510000Y-7810000D01*
X7510000Y-7790000D02*
X7490000Y-7810000D01*
X7490000Y-8290000D02*
X7510000Y-8310000D01*
X7510000Y-8290000D02*
X7490000Y-8310000D01*
X7490000Y-8790000D02*
X7510000Y-8810000D01*
X7510000Y-8790000D02*
X7490000Y-8810000D01*
X7490000Y-9290000D02*
X7510000Y-9310000D01*
X7510000Y-9290000D02*
X7490000Y-9310000D01*
X7490000Y-9790000D02*
X7510000Y-9810000D01*
X7510000Y-9790000D02*
X7490000Y-9810000D01*
X7490000Y-9890000D02*
X7510000Y-9910000D01*
X7510000Y-9890000D02*
X7490000Y-9910000D01*
X7500000Y-10170000D02*
X7520000Y-10190000D01*
X7520000Y-10170000D02*
X7500000Y-10190000D01*
X7520000Y-10280000D02*
X7540000Y-10300000D01*
X7540000Y-10280000D02*
X7520000Y-10300000D01*
X7540000Y-5690000D02*
X7560000Y-5710000D01*
X7560000Y-5690000D02*
X7540000Y-5710000D01*
X7540000Y-8340000D02*
X7560000Y-8360000D01*
X7560000Y-8340000D02*
X7540000Y-8360000D01*
X7540000Y-11900000D02*
X7560000Y-11920000D01*
X7560000Y-11900000D02*
X7540000Y-11920000D01*
X7565000Y-10665000D02*
X7585000Y-10685000D01*
X7585000Y-10665000D02*
X7565000Y-10685000D01*
X7565000Y-10815000D02*
X7585000Y-10835000D01*
X7585000Y-10815000D02*
X7565000Y-10835000D01*
X7565000Y-10965000D02*
X7585000Y-10985000D01*
X7585000Y-10965000D02*
X7565000Y-10985000D01*
X7565000Y-11115000D02*
X7585000Y-11135000D01*
X7585000Y-11115000D02*
X7565000Y-11135000D01*
X7565000Y-11265000D02*
X7585000Y-11285000D01*
X7585000Y-11265000D02*
X7565000Y-11285000D01*
X7565000Y-11440000D02*
X7585000Y-11460000D01*
X7585000Y-11440000D02*
X7565000Y-11460000D01*
X7565000Y-11590000D02*
X7585000Y-11610000D01*
X7585000Y-11590000D02*
X7565000Y-11610000D01*
X7565000Y-11740000D02*
X7585000Y-11760000D01*
X7585000Y-11740000D02*
X7565000Y-11760000D01*
X7580000Y-10440000D02*
X7600000Y-10460000D01*
X7600000Y-10440000D02*
X7580000Y-10460000D01*
X7580000Y-10520000D02*
X7600000Y-10540000D01*
X7600000Y-10520000D02*
X7580000Y-10540000D01*
X7590000Y-7590000D02*
X7610000Y-7610000D01*
X7610000Y-7590000D02*
X7590000Y-7610000D01*
X7590000Y-8090000D02*
X7610000Y-8110000D01*
X7610000Y-8090000D02*
X7590000Y-8110000D01*
X7590000Y-8590000D02*
X7610000Y-8610000D01*
X7610000Y-8590000D02*
X7590000Y-8610000D01*
X7590000Y-9090000D02*
X7610000Y-9110000D01*
X7610000Y-9090000D02*
X7590000Y-9110000D01*
X7590000Y-9590000D02*
X7610000Y-9610000D01*
X7610000Y-9590000D02*
X7590000Y-9610000D01*
X7590000Y-9790000D02*
X7610000Y-9810000D01*
X7610000Y-9790000D02*
X7590000Y-9810000D01*
X7620000Y-10140000D02*
X7640000Y-10160000D01*
X7640000Y-10140000D02*
X7620000Y-10160000D01*
X7620000Y-10480000D02*
X7640000Y-10500000D01*
X7640000Y-10480000D02*
X7620000Y-10500000D01*
X7640000Y-8340000D02*
X7660000Y-8360000D01*
X7660000Y-8340000D02*
X7640000Y-8360000D01*
X7670000Y-10570000D02*
X7690000Y-10590000D01*
X7690000Y-10570000D02*
X7670000Y-10590000D01*
X7690000Y-7390000D02*
X7710000Y-7410000D01*
X7710000Y-7390000D02*
X7690000Y-7410000D01*
X7690000Y-7890000D02*
X7710000Y-7910000D01*
X7710000Y-7890000D02*
X7690000Y-7910000D01*
X7690000Y-8390000D02*
X7710000Y-8410000D01*
X7710000Y-8390000D02*
X7690000Y-8410000D01*
X7690000Y-8890000D02*
X7710000Y-8910000D01*
X7710000Y-8890000D02*
X7690000Y-8910000D01*
X7690000Y-9390000D02*
X7710000Y-9410000D01*
X7710000Y-9390000D02*
X7690000Y-9410000D01*
X7690000Y-9890000D02*
X7710000Y-9910000D01*
X7710000Y-9890000D02*
X7690000Y-9910000D01*
X7690000Y-11900000D02*
X7710000Y-11920000D01*
X7710000Y-11900000D02*
X7690000Y-11920000D01*
X7740000Y-7740000D02*
X7760000Y-7760000D01*
X7760000Y-7740000D02*
X7740000Y-7760000D01*
X7740000Y-8340000D02*
X7760000Y-8360000D01*
X7760000Y-8340000D02*
X7740000Y-8360000D01*
X7754298Y-10245702D02*
X7774298Y-10265702D01*
X7774298Y-10245702D02*
X7754298Y-10265702D01*
X7760000Y-10460000D02*
X7780000Y-10480000D01*
X7780000Y-10460000D02*
X7760000Y-10480000D01*
X7770000Y-10300000D02*
X7790000Y-10320000D01*
X7790000Y-10300000D02*
X7770000Y-10320000D01*
X7790000Y-7690000D02*
X7810000Y-7710000D01*
X7810000Y-7690000D02*
X7790000Y-7710000D01*
X7790000Y-8190000D02*
X7810000Y-8210000D01*
X7810000Y-8190000D02*
X7790000Y-8210000D01*
X7790000Y-8690000D02*
X7810000Y-8710000D01*
X7810000Y-8690000D02*
X7790000Y-8710000D01*
X7790000Y-9190000D02*
X7810000Y-9210000D01*
X7810000Y-9190000D02*
X7790000Y-9210000D01*
X7790000Y-9690000D02*
X7810000Y-9710000D01*
X7810000Y-9690000D02*
X7790000Y-9710000D01*
X7790000Y-11900000D02*
X7810000Y-11920000D01*
X7810000Y-11900000D02*
X7790000Y-11920000D01*
X7800000Y-10030000D02*
X7820000Y-10050000D01*
X7820000Y-10030000D02*
X7800000Y-10050000D01*
X7810000Y-10260000D02*
X7830000Y-10280000D01*
X7830000Y-10260000D02*
X7810000Y-10280000D01*
X7840000Y-8040000D02*
X7860000Y-8060000D01*
X7860000Y-8040000D02*
X7840000Y-8060000D01*
X7840000Y-8440000D02*
X7860000Y-8460000D01*
X7860000Y-8440000D02*
X7840000Y-8460000D01*
X7840000Y-8940000D02*
X7860000Y-8960000D01*
X7860000Y-8940000D02*
X7840000Y-8960000D01*
X7840000Y-9330000D02*
X7860000Y-9350000D01*
X7860000Y-9330000D02*
X7840000Y-9350000D01*
X7870000Y-10360000D02*
X7890000Y-10380000D01*
X7890000Y-10360000D02*
X7870000Y-10380000D01*
X7890000Y-7490000D02*
X7910000Y-7510000D01*
X7910000Y-7490000D02*
X7890000Y-7510000D01*
X7890000Y-7990000D02*
X7910000Y-8010000D01*
X7910000Y-7990000D02*
X7890000Y-8010000D01*
X7890000Y-8490000D02*
X7910000Y-8510000D01*
X7910000Y-8490000D02*
X7890000Y-8510000D01*
X7890000Y-8990000D02*
X7910000Y-9010000D01*
X7910000Y-8990000D02*
X7890000Y-9010000D01*
X7890000Y-9490000D02*
X7910000Y-9510000D01*
X7910000Y-9490000D02*
X7890000Y-9510000D01*
X7890000Y-9690000D02*
X7910000Y-9710000D01*
X7910000Y-9690000D02*
X7890000Y-9710000D01*
X7890000Y-9865000D02*
X7910000Y-9885000D01*
X7910000Y-9865000D02*
X7890000Y-9885000D01*
X7940000Y-6190000D02*
X7960000Y-6210000D01*
X7960000Y-6190000D02*
X7940000Y-6210000D01*
X7940000Y-8640000D02*
X7960000Y-8660000D01*
X7960000Y-8640000D02*
X7940000Y-8660000D01*
X7940000Y-9440000D02*
X7960000Y-9460000D01*
X7960000Y-9440000D02*
X7940000Y-9460000D01*
X7940000Y-9540000D02*
X7960000Y-9560000D01*
X7960000Y-9540000D02*
X7940000Y-9560000D01*
X7940000Y-9640000D02*
X7960000Y-9660000D01*
X7960000Y-9640000D02*
X7940000Y-9660000D01*
X7940000Y-10240000D02*
X7960000Y-10260000D01*
X7960000Y-10240000D02*
X7940000Y-10260000D01*
X7990000Y-7290000D02*
X8010000Y-7310000D01*
X8010000Y-7290000D02*
X7990000Y-7310000D01*
X7990000Y-7790000D02*
X8010000Y-7810000D01*
X8010000Y-7790000D02*
X7990000Y-7810000D01*
X7990000Y-8290000D02*
X8010000Y-8310000D01*
X8010000Y-8290000D02*
X7990000Y-8310000D01*
X7990000Y-8790000D02*
X8010000Y-8810000D01*
X8010000Y-8790000D02*
X7990000Y-8810000D01*
X7990000Y-9290000D02*
X8010000Y-9310000D01*
X8010000Y-9290000D02*
X7990000Y-9310000D01*
X7990000Y-9790000D02*
X8010000Y-9810000D01*
X8010000Y-9790000D02*
X7990000Y-9810000D01*
X7990000Y-11900000D02*
X8010000Y-11920000D01*
X8010000Y-11900000D02*
X7990000Y-11920000D01*
X8040000Y-9540000D02*
X8060000Y-9560000D01*
X8060000Y-9540000D02*
X8040000Y-9560000D01*
X8040000Y-10140000D02*
X8060000Y-10160000D01*
X8060000Y-10140000D02*
X8040000Y-10160000D01*
X8050000Y-9440000D02*
X8070000Y-9460000D01*
X8070000Y-9440000D02*
X8050000Y-9460000D01*
X8050000Y-9640000D02*
X8070000Y-9660000D01*
X8070000Y-9640000D02*
X8050000Y-9660000D01*
X8090000Y-7590000D02*
X8110000Y-7610000D01*
X8110000Y-7590000D02*
X8090000Y-7610000D01*
X8090000Y-8090000D02*
X8110000Y-8110000D01*
X8110000Y-8090000D02*
X8090000Y-8110000D01*
X8090000Y-8590000D02*
X8110000Y-8610000D01*
X8110000Y-8590000D02*
X8090000Y-8610000D01*
X8090000Y-9090000D02*
X8110000Y-9110000D01*
X8110000Y-9090000D02*
X8090000Y-9110000D01*
X8090000Y-9590000D02*
X8110000Y-9610000D01*
X8110000Y-9590000D02*
X8090000Y-9610000D01*
X8090000Y-9865000D02*
X8110000Y-9885000D01*
X8110000Y-9865000D02*
X8090000Y-9885000D01*
X8140000Y-9440000D02*
X8160000Y-9460000D01*
X8160000Y-9440000D02*
X8140000Y-9460000D01*
X8140000Y-9540000D02*
X8160000Y-9560000D01*
X8160000Y-9540000D02*
X8140000Y-9560000D01*
X8140000Y-9640000D02*
X8160000Y-9660000D01*
X8160000Y-9640000D02*
X8140000Y-9660000D01*
X8140000Y-10040000D02*
X8160000Y-10060000D01*
X8160000Y-10040000D02*
X8140000Y-10060000D01*
X8140000Y-11900000D02*
X8160000Y-11920000D01*
X8160000Y-11900000D02*
X8140000Y-11920000D01*
X8160000Y-5470000D02*
X8180000Y-5490000D01*
X8180000Y-5470000D02*
X8160000Y-5490000D01*
X8190000Y-7390000D02*
X8210000Y-7410000D01*
X8210000Y-7390000D02*
X8190000Y-7410000D01*
X8190000Y-7890000D02*
X8210000Y-7910000D01*
X8210000Y-7890000D02*
X8190000Y-7910000D01*
X8190000Y-8390000D02*
X8210000Y-8410000D01*
X8210000Y-8390000D02*
X8190000Y-8410000D01*
X8190000Y-8890000D02*
X8210000Y-8910000D01*
X8210000Y-8890000D02*
X8190000Y-8910000D01*
X8190000Y-9390000D02*
X8210000Y-9410000D01*
X8210000Y-9390000D02*
X8190000Y-9410000D01*
X8240000Y-7540000D02*
X8260000Y-7560000D01*
X8260000Y-7540000D02*
X8240000Y-7560000D01*
X8240000Y-7640000D02*
X8260000Y-7660000D01*
X8260000Y-7640000D02*
X8240000Y-7660000D01*
X8240000Y-7740000D02*
X8260000Y-7760000D01*
X8260000Y-7740000D02*
X8240000Y-7760000D01*
X8240000Y-9440000D02*
X8260000Y-9460000D01*
X8260000Y-9440000D02*
X8240000Y-9460000D01*
X8240000Y-9540000D02*
X8260000Y-9560000D01*
X8260000Y-9540000D02*
X8240000Y-9560000D01*
X8240000Y-9640000D02*
X8260000Y-9660000D01*
X8260000Y-9640000D02*
X8240000Y-9660000D01*
X8290000Y-5660000D02*
X8310000Y-5680000D01*
X8310000Y-5660000D02*
X8290000Y-5680000D01*
X8290000Y-5765000D02*
X8310000Y-5785000D01*
X8310000Y-5765000D02*
X8290000Y-5785000D01*
X8290000Y-6015000D02*
X8310000Y-6035000D01*
X8310000Y-6015000D02*
X8290000Y-6035000D01*
X8290000Y-6120000D02*
X8310000Y-6140000D01*
X8310000Y-6120000D02*
X8290000Y-6140000D01*
X8290000Y-6340000D02*
X8310000Y-6360000D01*
X8310000Y-6340000D02*
X8290000Y-6360000D01*
X8290000Y-7690000D02*
X8310000Y-7710000D01*
X8310000Y-7690000D02*
X8290000Y-7710000D01*
X8290000Y-8190000D02*
X8310000Y-8210000D01*
X8310000Y-8190000D02*
X8290000Y-8210000D01*
X8290000Y-8690000D02*
X8310000Y-8710000D01*
X8310000Y-8690000D02*
X8290000Y-8710000D01*
X8290000Y-9190000D02*
X8310000Y-9210000D01*
X8310000Y-9190000D02*
X8290000Y-9210000D01*
X8290000Y-9690000D02*
X8310000Y-9710000D01*
X8310000Y-9690000D02*
X8290000Y-9710000D01*
X8290000Y-9865000D02*
X8310000Y-9885000D01*
X8310000Y-9865000D02*
X8290000Y-9885000D01*
X8290000Y-10015000D02*
X8310000Y-10035000D01*
X8310000Y-10015000D02*
X8290000Y-10035000D01*
X8290000Y-11900000D02*
X8310000Y-11920000D01*
X8310000Y-11900000D02*
X8290000Y-11920000D01*
X8340000Y-7540000D02*
X8360000Y-7560000D01*
X8360000Y-7540000D02*
X8340000Y-7560000D01*
X8340000Y-7640000D02*
X8360000Y-7660000D01*
X8360000Y-7640000D02*
X8340000Y-7660000D01*
X8340000Y-7740000D02*
X8360000Y-7760000D01*
X8360000Y-7740000D02*
X8340000Y-7760000D01*
X8340000Y-8840000D02*
X8360000Y-8860000D01*
X8360000Y-8840000D02*
X8340000Y-8860000D01*
X8340000Y-9340000D02*
X8360000Y-9360000D01*
X8360000Y-9340000D02*
X8340000Y-9360000D01*
X8340000Y-9440000D02*
X8360000Y-9460000D01*
X8360000Y-9440000D02*
X8340000Y-9460000D01*
X8340000Y-9540000D02*
X8360000Y-9560000D01*
X8360000Y-9540000D02*
X8340000Y-9560000D01*
X8340000Y-9640000D02*
X8360000Y-9660000D01*
X8360000Y-9640000D02*
X8340000Y-9660000D01*
X8390000Y-7490000D02*
X8410000Y-7510000D01*
X8410000Y-7490000D02*
X8390000Y-7510000D01*
X8390000Y-7990000D02*
X8410000Y-8010000D01*
X8410000Y-7990000D02*
X8390000Y-8010000D01*
X8390000Y-8490000D02*
X8410000Y-8510000D01*
X8410000Y-8490000D02*
X8390000Y-8510000D01*
X8390000Y-8990000D02*
X8410000Y-9010000D01*
X8410000Y-8990000D02*
X8390000Y-9010000D01*
X8390000Y-9490000D02*
X8410000Y-9510000D01*
X8410000Y-9490000D02*
X8390000Y-9510000D01*
X8440000Y-7540000D02*
X8460000Y-7560000D01*
X8460000Y-7540000D02*
X8440000Y-7560000D01*
X8440000Y-7640000D02*
X8460000Y-7660000D01*
X8460000Y-7640000D02*
X8440000Y-7660000D01*
X8440000Y-7740000D02*
X8460000Y-7760000D01*
X8460000Y-7740000D02*
X8440000Y-7760000D01*
X8440000Y-10015000D02*
X8460000Y-10035000D01*
X8460000Y-10015000D02*
X8440000Y-10035000D01*
X8470000Y-5470000D02*
X8490000Y-5490000D01*
X8490000Y-5470000D02*
X8470000Y-5490000D01*
X8470000Y-6530000D02*
X8490000Y-6550000D01*
X8490000Y-6530000D02*
X8470000Y-6550000D01*
X8490000Y-7290000D02*
X8510000Y-7310000D01*
X8510000Y-7290000D02*
X8490000Y-7310000D01*
X8490000Y-7790000D02*
X8510000Y-7810000D01*
X8510000Y-7790000D02*
X8490000Y-7810000D01*
X8490000Y-8290000D02*
X8510000Y-8310000D01*
X8510000Y-8290000D02*
X8490000Y-8310000D01*
X8490000Y-8790000D02*
X8510000Y-8810000D01*
X8510000Y-8790000D02*
X8490000Y-8810000D01*
X8490000Y-9290000D02*
X8510000Y-9310000D01*
X8510000Y-9290000D02*
X8490000Y-9310000D01*
X8490000Y-9790000D02*
X8510000Y-9810000D01*
X8510000Y-9790000D02*
X8490000Y-9810000D01*
X8490000Y-11900000D02*
X8510000Y-11920000D01*
X8510000Y-11900000D02*
X8490000Y-11920000D01*
X8540000Y-7540000D02*
X8560000Y-7560000D01*
X8560000Y-7540000D02*
X8540000Y-7560000D01*
X8540000Y-7640000D02*
X8560000Y-7660000D01*
X8560000Y-7640000D02*
X8540000Y-7660000D01*
X8540000Y-7740000D02*
X8560000Y-7760000D01*
X8560000Y-7740000D02*
X8540000Y-7760000D01*
X8590000Y-7590000D02*
X8610000Y-7610000D01*
X8610000Y-7590000D02*
X8590000Y-7610000D01*
X8590000Y-8090000D02*
X8610000Y-8110000D01*
X8610000Y-8090000D02*
X8590000Y-8110000D01*
X8590000Y-8190000D02*
X8610000Y-8210000D01*
X8610000Y-8190000D02*
X8590000Y-8210000D01*
X8590000Y-8290000D02*
X8610000Y-8310000D01*
X8610000Y-8290000D02*
X8590000Y-8310000D01*
X8590000Y-8390000D02*
X8610000Y-8410000D01*
X8610000Y-8390000D02*
X8590000Y-8410000D01*
X8590000Y-8490000D02*
X8610000Y-8510000D01*
X8610000Y-8490000D02*
X8590000Y-8510000D01*
X8590000Y-8590000D02*
X8610000Y-8610000D01*
X8610000Y-8590000D02*
X8590000Y-8610000D01*
X8590000Y-8690000D02*
X8610000Y-8710000D01*
X8610000Y-8690000D02*
X8590000Y-8710000D01*
X8590000Y-8790000D02*
X8610000Y-8810000D01*
X8610000Y-8790000D02*
X8590000Y-8810000D01*
X8590000Y-9090000D02*
X8610000Y-9110000D01*
X8610000Y-9090000D02*
X8590000Y-9110000D01*
X8590000Y-9590000D02*
X8610000Y-9610000D01*
X8610000Y-9590000D02*
X8590000Y-9610000D01*
X8590000Y-10015000D02*
X8610000Y-10035000D01*
X8610000Y-10015000D02*
X8590000Y-10035000D01*
X8620000Y-6680000D02*
X8640000Y-6700000D01*
X8640000Y-6680000D02*
X8620000Y-6700000D01*
X8640000Y-7840000D02*
X8660000Y-7860000D01*
X8660000Y-7840000D02*
X8640000Y-7860000D01*
X8640000Y-8040000D02*
X8660000Y-8060000D01*
X8660000Y-8040000D02*
X8640000Y-8060000D01*
X8690000Y-7390000D02*
X8710000Y-7410000D01*
X8710000Y-7390000D02*
X8690000Y-7410000D01*
X8690000Y-8190000D02*
X8710000Y-8210000D01*
X8710000Y-8190000D02*
X8690000Y-8210000D01*
X8690000Y-8290000D02*
X8710000Y-8310000D01*
X8710000Y-8290000D02*
X8690000Y-8310000D01*
X8690000Y-8390000D02*
X8710000Y-8410000D01*
X8710000Y-8390000D02*
X8690000Y-8410000D01*
X8690000Y-8490000D02*
X8710000Y-8510000D01*
X8710000Y-8490000D02*
X8690000Y-8510000D01*
X8690000Y-8590000D02*
X8710000Y-8610000D01*
X8710000Y-8590000D02*
X8690000Y-8610000D01*
X8690000Y-8690000D02*
X8710000Y-8710000D01*
X8710000Y-8690000D02*
X8690000Y-8710000D01*
X8690000Y-8790000D02*
X8710000Y-8810000D01*
X8710000Y-8790000D02*
X8690000Y-8810000D01*
X8690000Y-8890000D02*
X8710000Y-8910000D01*
X8710000Y-8890000D02*
X8690000Y-8910000D01*
X8690000Y-9390000D02*
X8710000Y-9410000D01*
X8710000Y-9390000D02*
X8690000Y-9410000D01*
X8690000Y-9865000D02*
X8710000Y-9885000D01*
X8710000Y-9865000D02*
X8690000Y-9885000D01*
X8690000Y-11900000D02*
X8710000Y-11920000D01*
X8710000Y-11900000D02*
X8690000Y-11920000D01*
X8740000Y-7740000D02*
X8760000Y-7760000D01*
X8760000Y-7740000D02*
X8740000Y-7760000D01*
X8740000Y-8040000D02*
X8760000Y-8060000D01*
X8760000Y-8040000D02*
X8740000Y-8060000D01*
X8740000Y-10015000D02*
X8760000Y-10035000D01*
X8760000Y-10015000D02*
X8740000Y-10035000D01*
X8770000Y-6830000D02*
X8790000Y-6850000D01*
X8790000Y-6830000D02*
X8770000Y-6850000D01*
X8790000Y-7690000D02*
X8810000Y-7710000D01*
X8810000Y-7690000D02*
X8790000Y-7710000D01*
X8790000Y-8190000D02*
X8810000Y-8210000D01*
X8810000Y-8190000D02*
X8790000Y-8210000D01*
X8790000Y-8290000D02*
X8810000Y-8310000D01*
X8810000Y-8290000D02*
X8790000Y-8310000D01*
X8790000Y-8390000D02*
X8810000Y-8410000D01*
X8810000Y-8390000D02*
X8790000Y-8410000D01*
X8790000Y-8490000D02*
X8810000Y-8510000D01*
X8810000Y-8490000D02*
X8790000Y-8510000D01*
X8790000Y-8590000D02*
X8810000Y-8610000D01*
X8810000Y-8590000D02*
X8790000Y-8610000D01*
X8790000Y-8690000D02*
X8810000Y-8710000D01*
X8810000Y-8690000D02*
X8790000Y-8710000D01*
X8790000Y-8790000D02*
X8810000Y-8810000D01*
X8810000Y-8790000D02*
X8790000Y-8810000D01*
X8790000Y-8890000D02*
X8810000Y-8910000D01*
X8810000Y-8890000D02*
X8790000Y-8910000D01*
X8790000Y-9190000D02*
X8810000Y-9210000D01*
X8810000Y-9190000D02*
X8790000Y-9210000D01*
X8790000Y-9690000D02*
X8810000Y-9710000D01*
X8810000Y-9690000D02*
X8790000Y-9710000D01*
X8890000Y-6990000D02*
X8910000Y-7010000D01*
X8910000Y-6990000D02*
X8890000Y-7010000D01*
X8890000Y-7180000D02*
X8910000Y-7200000D01*
X8910000Y-7180000D02*
X8890000Y-7200000D01*
X8890000Y-7490000D02*
X8910000Y-7510000D01*
X8910000Y-7490000D02*
X8890000Y-7510000D01*
X8890000Y-7990000D02*
X8910000Y-8010000D01*
X8910000Y-7990000D02*
X8890000Y-8010000D01*
X8890000Y-8190000D02*
X8910000Y-8210000D01*
X8910000Y-8190000D02*
X8890000Y-8210000D01*
X8890000Y-8290000D02*
X8910000Y-8310000D01*
X8910000Y-8290000D02*
X8890000Y-8310000D01*
X8890000Y-8590000D02*
X8910000Y-8610000D01*
X8910000Y-8590000D02*
X8890000Y-8610000D01*
X8890000Y-8690000D02*
X8910000Y-8710000D01*
X8910000Y-8690000D02*
X8890000Y-8710000D01*
X8890000Y-8790000D02*
X8910000Y-8810000D01*
X8910000Y-8790000D02*
X8890000Y-8810000D01*
X8890000Y-8890000D02*
X8910000Y-8910000D01*
X8910000Y-8890000D02*
X8890000Y-8910000D01*
X8890000Y-8990000D02*
X8910000Y-9010000D01*
X8910000Y-8990000D02*
X8890000Y-9010000D01*
X8890000Y-9490000D02*
X8910000Y-9510000D01*
X8910000Y-9490000D02*
X8890000Y-9510000D01*
X8890000Y-9865000D02*
X8910000Y-9885000D01*
X8910000Y-9865000D02*
X8890000Y-9885000D01*
X8890000Y-10015000D02*
X8910000Y-10035000D01*
X8910000Y-10015000D02*
X8890000Y-10035000D01*
X8890000Y-11900000D02*
X8910000Y-11920000D01*
X8910000Y-11900000D02*
X8890000Y-11920000D01*
X8990000Y-7290000D02*
X9010000Y-7310000D01*
X9010000Y-7290000D02*
X8990000Y-7310000D01*
X8990000Y-7790000D02*
X9010000Y-7810000D01*
X9010000Y-7790000D02*
X8990000Y-7810000D01*
X8990000Y-8190000D02*
X9010000Y-8210000D01*
X9010000Y-8190000D02*
X8990000Y-8210000D01*
X8990000Y-8290000D02*
X9010000Y-8310000D01*
X9010000Y-8290000D02*
X8990000Y-8310000D01*
X8990000Y-8790000D02*
X9010000Y-8810000D01*
X9010000Y-8790000D02*
X8990000Y-8810000D01*
X8990000Y-9290000D02*
X9010000Y-9310000D01*
X9010000Y-9290000D02*
X8990000Y-9310000D01*
X8990000Y-9790000D02*
X9010000Y-9810000D01*
X9010000Y-9790000D02*
X8990000Y-9810000D01*
X9040000Y-8240000D02*
X9060000Y-8260000D01*
X9060000Y-8240000D02*
X9040000Y-8260000D01*
X9040000Y-8340000D02*
X9060000Y-8360000D01*
X9060000Y-8340000D02*
X9040000Y-8360000D01*
X9040000Y-8440000D02*
X9060000Y-8460000D01*
X9060000Y-8440000D02*
X9040000Y-8460000D01*
X9040000Y-8540000D02*
X9060000Y-8560000D01*
X9060000Y-8540000D02*
X9040000Y-8560000D01*
X9040000Y-8640000D02*
X9060000Y-8660000D01*
X9060000Y-8640000D02*
X9040000Y-8660000D01*
X9040000Y-8940000D02*
X9060000Y-8960000D01*
X9060000Y-8940000D02*
X9040000Y-8960000D01*
X9040000Y-9915000D02*
X9060000Y-9935000D01*
X9060000Y-9915000D02*
X9040000Y-9935000D01*
X9040000Y-10015000D02*
X9060000Y-10035000D01*
X9060000Y-10015000D02*
X9040000Y-10035000D01*
X9090000Y-7590000D02*
X9110000Y-7610000D01*
X9110000Y-7590000D02*
X9090000Y-7610000D01*
X9090000Y-8090000D02*
X9110000Y-8110000D01*
X9110000Y-8090000D02*
X9090000Y-8110000D01*
X9090000Y-8190000D02*
X9110000Y-8210000D01*
X9110000Y-8190000D02*
X9090000Y-8210000D01*
X9090000Y-8290000D02*
X9110000Y-8310000D01*
X9110000Y-8290000D02*
X9090000Y-8310000D01*
X9090000Y-8390000D02*
X9110000Y-8410000D01*
X9110000Y-8390000D02*
X9090000Y-8410000D01*
X9090000Y-8490000D02*
X9110000Y-8510000D01*
X9110000Y-8490000D02*
X9090000Y-8510000D01*
X9090000Y-8590000D02*
X9110000Y-8610000D01*
X9110000Y-8590000D02*
X9090000Y-8610000D01*
X9090000Y-8690000D02*
X9110000Y-8710000D01*
X9110000Y-8690000D02*
X9090000Y-8710000D01*
X9090000Y-8790000D02*
X9110000Y-8810000D01*
X9110000Y-8790000D02*
X9090000Y-8810000D01*
X9090000Y-8890000D02*
X9110000Y-8910000D01*
X9110000Y-8890000D02*
X9090000Y-8910000D01*
X9090000Y-9590000D02*
X9110000Y-9610000D01*
X9110000Y-9590000D02*
X9090000Y-9610000D01*
X9090000Y-11900000D02*
X9110000Y-11920000D01*
X9110000Y-11900000D02*
X9090000Y-11920000D01*
X9140000Y-8140000D02*
X9160000Y-8160000D01*
X9160000Y-8140000D02*
X9140000Y-8160000D01*
X9140000Y-9740000D02*
X9160000Y-9760000D01*
X9160000Y-9740000D02*
X9140000Y-9760000D01*
X9140000Y-9840000D02*
X9160000Y-9860000D01*
X9160000Y-9840000D02*
X9140000Y-9860000D01*
X9190000Y-7390000D02*
X9210000Y-7410000D01*
X9210000Y-7390000D02*
X9190000Y-7410000D01*
X9190000Y-7890000D02*
X9210000Y-7910000D01*
X9210000Y-7890000D02*
X9190000Y-7910000D01*
X9190000Y-8290000D02*
X9210000Y-8310000D01*
X9210000Y-8290000D02*
X9190000Y-8310000D01*
X9190000Y-8390000D02*
X9210000Y-8410000D01*
X9210000Y-8390000D02*
X9190000Y-8410000D01*
X9190000Y-8490000D02*
X9210000Y-8510000D01*
X9210000Y-8490000D02*
X9190000Y-8510000D01*
X9190000Y-8590000D02*
X9210000Y-8610000D01*
X9210000Y-8590000D02*
X9190000Y-8610000D01*
X9190000Y-8690000D02*
X9210000Y-8710000D01*
X9210000Y-8690000D02*
X9190000Y-8710000D01*
X9190000Y-8790000D02*
X9210000Y-8810000D01*
X9210000Y-8790000D02*
X9190000Y-8810000D01*
X9190000Y-8890000D02*
X9210000Y-8910000D01*
X9210000Y-8890000D02*
X9190000Y-8910000D01*
X9190000Y-8990000D02*
X9210000Y-9010000D01*
X9210000Y-8990000D02*
X9190000Y-9010000D01*
X9190000Y-9390000D02*
X9210000Y-9410000D01*
X9210000Y-9390000D02*
X9190000Y-9410000D01*
X9190000Y-10015000D02*
X9210000Y-10035000D01*
X9210000Y-10015000D02*
X9190000Y-10035000D01*
X9240000Y-8140000D02*
X9260000Y-8160000D01*
X9260000Y-8140000D02*
X9240000Y-8160000D01*
X9240000Y-9040000D02*
X9260000Y-9060000D01*
X9260000Y-9040000D02*
X9240000Y-9060000D01*
X9240000Y-9240000D02*
X9260000Y-9260000D01*
X9260000Y-9240000D02*
X9240000Y-9260000D01*
X9290000Y-6530000D02*
X9310000Y-6550000D01*
X9310000Y-6530000D02*
X9290000Y-6550000D01*
X9290000Y-6670000D02*
X9310000Y-6690000D01*
X9310000Y-6670000D02*
X9290000Y-6690000D01*
X9290000Y-6930000D02*
X9310000Y-6950000D01*
X9310000Y-6930000D02*
X9290000Y-6950000D01*
X9290000Y-7070000D02*
X9310000Y-7090000D01*
X9310000Y-7070000D02*
X9290000Y-7090000D01*
X9290000Y-7690000D02*
X9310000Y-7710000D01*
X9310000Y-7690000D02*
X9290000Y-7710000D01*
X9290000Y-8190000D02*
X9310000Y-8210000D01*
X9310000Y-8190000D02*
X9290000Y-8210000D01*
X9290000Y-8290000D02*
X9310000Y-8310000D01*
X9310000Y-8290000D02*
X9290000Y-8310000D01*
X9290000Y-8390000D02*
X9310000Y-8410000D01*
X9310000Y-8390000D02*
X9290000Y-8410000D01*
X9290000Y-8490000D02*
X9310000Y-8510000D01*
X9310000Y-8490000D02*
X9290000Y-8510000D01*
X9290000Y-8590000D02*
X9310000Y-8610000D01*
X9310000Y-8590000D02*
X9290000Y-8610000D01*
X9290000Y-8690000D02*
X9310000Y-8710000D01*
X9310000Y-8690000D02*
X9290000Y-8710000D01*
X9290000Y-8790000D02*
X9310000Y-8810000D01*
X9310000Y-8790000D02*
X9290000Y-8810000D01*
X9290000Y-8890000D02*
X9310000Y-8910000D01*
X9310000Y-8890000D02*
X9290000Y-8910000D01*
X9290000Y-9190000D02*
X9310000Y-9210000D01*
X9310000Y-9190000D02*
X9290000Y-9210000D01*
X9290000Y-9690000D02*
X9310000Y-9710000D01*
X9310000Y-9690000D02*
X9290000Y-9710000D01*
X9290000Y-11900000D02*
X9310000Y-11920000D01*
X9310000Y-11900000D02*
X9290000Y-11920000D01*
X9315000Y-9965000D02*
X9335000Y-9985000D01*
X9335000Y-9965000D02*
X9315000Y-9985000D01*
X9320000Y-5480000D02*
X9340000Y-5500000D01*
X9340000Y-5480000D02*
X9320000Y-5500000D01*
X9340000Y-8140000D02*
X9360000Y-8160000D01*
X9360000Y-8140000D02*
X9340000Y-8160000D01*
X9340000Y-9240000D02*
X9360000Y-9260000D01*
X9360000Y-9240000D02*
X9340000Y-9260000D01*
X9340000Y-9865000D02*
X9360000Y-9885000D01*
X9360000Y-9865000D02*
X9340000Y-9885000D01*
X9350000Y-6400000D02*
X9370000Y-6420000D01*
X9370000Y-6400000D02*
X9350000Y-6420000D01*
X9390000Y-7490000D02*
X9410000Y-7510000D01*
X9410000Y-7490000D02*
X9390000Y-7510000D01*
X9390000Y-7990000D02*
X9410000Y-8010000D01*
X9410000Y-7990000D02*
X9390000Y-8010000D01*
X9390000Y-8390000D02*
X9410000Y-8410000D01*
X9410000Y-8390000D02*
X9390000Y-8410000D01*
X9390000Y-8490000D02*
X9410000Y-8510000D01*
X9410000Y-8490000D02*
X9390000Y-8510000D01*
X9390000Y-8590000D02*
X9410000Y-8610000D01*
X9410000Y-8590000D02*
X9390000Y-8610000D01*
X9390000Y-8690000D02*
X9410000Y-8710000D01*
X9410000Y-8690000D02*
X9390000Y-8710000D01*
X9390000Y-8790000D02*
X9410000Y-8810000D01*
X9410000Y-8790000D02*
X9390000Y-8810000D01*
X9390000Y-8890000D02*
X9410000Y-8910000D01*
X9410000Y-8890000D02*
X9390000Y-8910000D01*
X9390000Y-9090000D02*
X9410000Y-9110000D01*
X9410000Y-9090000D02*
X9390000Y-9110000D01*
X9390000Y-9290000D02*
X9410000Y-9310000D01*
X9410000Y-9290000D02*
X9390000Y-9310000D01*
X9390000Y-9390000D02*
X9410000Y-9410000D01*
X9410000Y-9390000D02*
X9390000Y-9410000D01*
X9390000Y-9490000D02*
X9410000Y-9510000D01*
X9410000Y-9490000D02*
X9390000Y-9510000D01*
X9390000Y-9590000D02*
X9410000Y-9610000D01*
X9410000Y-9590000D02*
X9390000Y-9610000D01*
X9390000Y-9690000D02*
X9410000Y-9710000D01*
X9410000Y-9690000D02*
X9390000Y-9710000D01*
X9390000Y-9790000D02*
X9410000Y-9810000D01*
X9410000Y-9790000D02*
X9390000Y-9810000D01*
X9440000Y-7640000D02*
X9460000Y-7660000D01*
X9460000Y-7640000D02*
X9440000Y-7660000D01*
X9440000Y-7840000D02*
X9460000Y-7860000D01*
X9460000Y-7840000D02*
X9440000Y-7860000D01*
X9440000Y-8140000D02*
X9460000Y-8160000D01*
X9460000Y-8140000D02*
X9440000Y-8160000D01*
X9440000Y-8540000D02*
X9460000Y-8560000D01*
X9460000Y-8540000D02*
X9440000Y-8560000D01*
X9440000Y-9440000D02*
X9460000Y-9460000D01*
X9460000Y-9440000D02*
X9440000Y-9460000D01*
X9440000Y-11900000D02*
X9460000Y-11920000D01*
X9460000Y-11900000D02*
X9440000Y-11920000D01*
X9490000Y-5650000D02*
X9510000Y-5670000D01*
X9510000Y-5650000D02*
X9490000Y-5670000D01*
X9490000Y-5765000D02*
X9510000Y-5785000D01*
X9510000Y-5765000D02*
X9490000Y-5785000D01*
X9490000Y-6015000D02*
X9510000Y-6035000D01*
X9510000Y-6015000D02*
X9490000Y-6035000D01*
X9490000Y-6100000D02*
X9510000Y-6120000D01*
X9510000Y-6100000D02*
X9490000Y-6120000D01*
X9490000Y-6260000D02*
X9510000Y-6280000D01*
X9510000Y-6260000D02*
X9490000Y-6280000D01*
X9490000Y-7200000D02*
X9510000Y-7220000D01*
X9510000Y-7200000D02*
X9490000Y-7220000D01*
X9490000Y-7290000D02*
X9510000Y-7310000D01*
X9510000Y-7290000D02*
X9490000Y-7310000D01*
X9490000Y-7990000D02*
X9510000Y-8010000D01*
X9510000Y-7990000D02*
X9490000Y-8010000D01*
X9490000Y-8090000D02*
X9510000Y-8110000D01*
X9510000Y-8090000D02*
X9490000Y-8110000D01*
X9490000Y-8290000D02*
X9510000Y-8310000D01*
X9510000Y-8290000D02*
X9490000Y-8310000D01*
X9490000Y-8390000D02*
X9510000Y-8410000D01*
X9510000Y-8390000D02*
X9490000Y-8410000D01*
X9490000Y-8690000D02*
X9510000Y-8710000D01*
X9510000Y-8690000D02*
X9490000Y-8710000D01*
X9490000Y-8790000D02*
X9510000Y-8810000D01*
X9510000Y-8790000D02*
X9490000Y-8810000D01*
X9490000Y-8890000D02*
X9510000Y-8910000D01*
X9510000Y-8890000D02*
X9490000Y-8910000D01*
X9490000Y-8990000D02*
X9510000Y-9010000D01*
X9510000Y-8990000D02*
X9490000Y-9010000D01*
X9490000Y-9190000D02*
X9510000Y-9210000D01*
X9510000Y-9190000D02*
X9490000Y-9210000D01*
X9490000Y-9390000D02*
X9510000Y-9410000D01*
X9510000Y-9390000D02*
X9490000Y-9410000D01*
X9490000Y-9490000D02*
X9510000Y-9510000D01*
X9510000Y-9490000D02*
X9490000Y-9510000D01*
X9490000Y-9590000D02*
X9510000Y-9610000D01*
X9510000Y-9590000D02*
X9490000Y-9610000D01*
X9490000Y-9790000D02*
X9510000Y-9810000D01*
X9510000Y-9790000D02*
X9490000Y-9810000D01*
X9520000Y-7070000D02*
X9540000Y-7090000D01*
X9540000Y-7070000D02*
X9520000Y-7090000D01*
X9540000Y-7440000D02*
X9560000Y-7460000D01*
X9560000Y-7440000D02*
X9540000Y-7460000D01*
X9540000Y-7540000D02*
X9560000Y-7560000D01*
X9560000Y-7540000D02*
X9540000Y-7560000D01*
X9540000Y-8540000D02*
X9560000Y-8560000D01*
X9560000Y-8540000D02*
X9540000Y-8560000D01*
X9540000Y-9040000D02*
X9560000Y-9060000D01*
X9560000Y-9040000D02*
X9540000Y-9060000D01*
X9540000Y-9240000D02*
X9560000Y-9260000D01*
X9560000Y-9240000D02*
X9540000Y-9260000D01*
X9540000Y-9340000D02*
X9560000Y-9360000D01*
X9560000Y-9340000D02*
X9540000Y-9360000D01*
X9540000Y-11900000D02*
X9560000Y-11920000D01*
X9560000Y-11900000D02*
X9540000Y-11920000D01*
X9580000Y-6640000D02*
X9600000Y-6660000D01*
X9600000Y-6640000D02*
X9580000Y-6660000D01*
X9590000Y-7000000D02*
X9610000Y-7020000D01*
X9610000Y-7000000D02*
X9590000Y-7020000D01*
X9590000Y-7990000D02*
X9610000Y-8010000D01*
X9610000Y-7990000D02*
X9590000Y-8010000D01*
X9590000Y-8090000D02*
X9610000Y-8110000D01*
X9610000Y-8090000D02*
X9590000Y-8110000D01*
X9590000Y-8190000D02*
X9610000Y-8210000D01*
X9610000Y-8190000D02*
X9590000Y-8210000D01*
X9590000Y-8390000D02*
X9610000Y-8410000D01*
X9610000Y-8390000D02*
X9590000Y-8410000D01*
X9590000Y-8690000D02*
X9610000Y-8710000D01*
X9610000Y-8690000D02*
X9590000Y-8710000D01*
X9590000Y-8790000D02*
X9610000Y-8810000D01*
X9610000Y-8790000D02*
X9590000Y-8810000D01*
X9590000Y-8890000D02*
X9610000Y-8910000D01*
X9610000Y-8890000D02*
X9590000Y-8910000D01*
X9590000Y-8990000D02*
X9610000Y-9010000D01*
X9610000Y-8990000D02*
X9590000Y-9010000D01*
X9590000Y-9190000D02*
X9610000Y-9210000D01*
X9610000Y-9190000D02*
X9590000Y-9210000D01*
X9590000Y-9390000D02*
X9610000Y-9410000D01*
X9610000Y-9390000D02*
X9590000Y-9410000D01*
X9590000Y-9490000D02*
X9610000Y-9510000D01*
X9610000Y-9490000D02*
X9590000Y-9510000D01*
X9590000Y-9590000D02*
X9610000Y-9610000D01*
X9610000Y-9590000D02*
X9590000Y-9610000D01*
X9590000Y-9790000D02*
X9610000Y-9810000D01*
X9610000Y-9790000D02*
X9590000Y-9810000D01*
X9620000Y-6760000D02*
X9640000Y-6780000D01*
X9640000Y-6760000D02*
X9620000Y-6780000D01*
X9640000Y-7640000D02*
X9660000Y-7660000D01*
X9660000Y-7640000D02*
X9640000Y-7660000D01*
X9640000Y-7840000D02*
X9660000Y-7860000D01*
X9660000Y-7840000D02*
X9640000Y-7860000D01*
X9650000Y-6930000D02*
X9670000Y-6950000D01*
X9670000Y-6930000D02*
X9650000Y-6950000D01*
X9660000Y-5480000D02*
X9680000Y-5500000D01*
X9680000Y-5480000D02*
X9660000Y-5500000D01*
X9690000Y-7390000D02*
X9710000Y-7410000D01*
X9710000Y-7390000D02*
X9690000Y-7410000D01*
X9690000Y-7590000D02*
X9710000Y-7610000D01*
X9710000Y-7590000D02*
X9690000Y-7610000D01*
X9690000Y-7690000D02*
X9710000Y-7710000D01*
X9710000Y-7690000D02*
X9690000Y-7710000D01*
X9690000Y-7790000D02*
X9710000Y-7810000D01*
X9710000Y-7790000D02*
X9690000Y-7810000D01*
X9690000Y-7890000D02*
X9710000Y-7910000D01*
X9710000Y-7890000D02*
X9690000Y-7910000D01*
X9690000Y-8090000D02*
X9710000Y-8110000D01*
X9710000Y-8090000D02*
X9690000Y-8110000D01*
X9690000Y-8290000D02*
X9710000Y-8310000D01*
X9710000Y-8290000D02*
X9690000Y-8310000D01*
X9690000Y-8490000D02*
X9710000Y-8510000D01*
X9710000Y-8490000D02*
X9690000Y-8510000D01*
X9690000Y-8690000D02*
X9710000Y-8710000D01*
X9710000Y-8690000D02*
X9690000Y-8710000D01*
X9690000Y-8890000D02*
X9710000Y-8910000D01*
X9710000Y-8890000D02*
X9690000Y-8910000D01*
X9690000Y-9090000D02*
X9710000Y-9110000D01*
X9710000Y-9090000D02*
X9690000Y-9110000D01*
X9690000Y-9290000D02*
X9710000Y-9310000D01*
X9710000Y-9290000D02*
X9690000Y-9310000D01*
X9690000Y-9490000D02*
X9710000Y-9510000D01*
X9710000Y-9490000D02*
X9690000Y-9510000D01*
X9690000Y-9690000D02*
X9710000Y-9710000D01*
X9710000Y-9690000D02*
X9690000Y-9710000D01*
X9690000Y-9790000D02*
X9710000Y-9810000D01*
X9710000Y-9790000D02*
X9690000Y-9810000D01*
X9690000Y-11900000D02*
X9710000Y-11920000D01*
X9710000Y-11900000D02*
X9690000Y-11920000D01*
X9740000Y-7940000D02*
X9760000Y-7960000D01*
X9760000Y-7940000D02*
X9740000Y-7960000D01*
X9790000Y-7590000D02*
X9810000Y-7610000D01*
X9810000Y-7590000D02*
X9790000Y-7610000D01*
X9790000Y-7690000D02*
X9810000Y-7710000D01*
X9810000Y-7690000D02*
X9790000Y-7710000D01*
X9790000Y-7790000D02*
X9810000Y-7810000D01*
X9810000Y-7790000D02*
X9790000Y-7810000D01*
X9790000Y-7890000D02*
X9810000Y-7910000D01*
X9810000Y-7890000D02*
X9790000Y-7910000D01*
X9790000Y-8090000D02*
X9810000Y-8110000D01*
X9810000Y-8090000D02*
X9790000Y-8110000D01*
X9790000Y-8190000D02*
X9810000Y-8210000D01*
X9810000Y-8190000D02*
X9790000Y-8210000D01*
X9790000Y-8290000D02*
X9810000Y-8310000D01*
X9810000Y-8290000D02*
X9790000Y-8310000D01*
X9790000Y-8490000D02*
X9810000Y-8510000D01*
X9810000Y-8490000D02*
X9790000Y-8510000D01*
X9790000Y-8690000D02*
X9810000Y-8710000D01*
X9810000Y-8690000D02*
X9790000Y-8710000D01*
X9790000Y-8890000D02*
X9810000Y-8910000D01*
X9810000Y-8890000D02*
X9790000Y-8910000D01*
X9790000Y-9090000D02*
X9810000Y-9110000D01*
X9810000Y-9090000D02*
X9790000Y-9110000D01*
X9790000Y-9290000D02*
X9810000Y-9310000D01*
X9810000Y-9290000D02*
X9790000Y-9310000D01*
X9790000Y-9490000D02*
X9810000Y-9510000D01*
X9810000Y-9490000D02*
X9790000Y-9510000D01*
X9790000Y-9690000D02*
X9810000Y-9710000D01*
X9810000Y-9690000D02*
X9790000Y-9710000D01*
X9790000Y-9790000D02*
X9810000Y-9810000D01*
X9810000Y-9790000D02*
X9790000Y-9810000D01*
X9865000Y-6740000D02*
X9885000Y-6760000D01*
X9885000Y-6740000D02*
X9865000Y-6760000D01*
X9890000Y-7490000D02*
X9910000Y-7510000D01*
X9910000Y-7490000D02*
X9890000Y-7510000D01*
X9890000Y-7590000D02*
X9910000Y-7610000D01*
X9910000Y-7590000D02*
X9890000Y-7610000D01*
X9890000Y-7990000D02*
X9910000Y-8010000D01*
X9910000Y-7990000D02*
X9890000Y-8010000D01*
X9890000Y-8090000D02*
X9910000Y-8110000D01*
X9910000Y-8090000D02*
X9890000Y-8110000D01*
X9890000Y-8390000D02*
X9910000Y-8410000D01*
X9910000Y-8390000D02*
X9890000Y-8410000D01*
X9890000Y-8490000D02*
X9910000Y-8510000D01*
X9910000Y-8490000D02*
X9890000Y-8510000D01*
X9890000Y-8590000D02*
X9910000Y-8610000D01*
X9910000Y-8590000D02*
X9890000Y-8610000D01*
X9890000Y-8690000D02*
X9910000Y-8710000D01*
X9910000Y-8690000D02*
X9890000Y-8710000D01*
X9890000Y-8790000D02*
X9910000Y-8810000D01*
X9910000Y-8790000D02*
X9890000Y-8810000D01*
X9890000Y-8890000D02*
X9910000Y-8910000D01*
X9910000Y-8890000D02*
X9890000Y-8910000D01*
X9890000Y-8990000D02*
X9910000Y-9010000D01*
X9910000Y-8990000D02*
X9890000Y-9010000D01*
X9890000Y-9090000D02*
X9910000Y-9110000D01*
X9910000Y-9090000D02*
X9890000Y-9110000D01*
X9890000Y-9190000D02*
X9910000Y-9210000D01*
X9910000Y-9190000D02*
X9890000Y-9210000D01*
X9890000Y-9290000D02*
X9910000Y-9310000D01*
X9910000Y-9290000D02*
X9890000Y-9310000D01*
X9890000Y-9390000D02*
X9910000Y-9410000D01*
X9910000Y-9390000D02*
X9890000Y-9410000D01*
X9890000Y-9490000D02*
X9910000Y-9510000D01*
X9910000Y-9490000D02*
X9890000Y-9510000D01*
X9890000Y-9590000D02*
X9910000Y-9610000D01*
X9910000Y-9590000D02*
X9890000Y-9610000D01*
X9890000Y-9690000D02*
X9910000Y-9710000D01*
X9910000Y-9690000D02*
X9890000Y-9710000D01*
X9890000Y-9790000D02*
X9910000Y-9810000D01*
X9910000Y-9790000D02*
X9890000Y-9810000D01*
X9890000Y-9890000D02*
X9910000Y-9910000D01*
X9910000Y-9890000D02*
X9890000Y-9910000D01*
X9890000Y-11900000D02*
X9910000Y-11920000D01*
X9910000Y-11900000D02*
X9890000Y-11920000D01*
X9920000Y-9960000D02*
X9940000Y-9980000D01*
X9940000Y-9960000D02*
X9920000Y-9980000D01*
X9940000Y-9850000D02*
X9960000Y-9870000D01*
X9960000Y-9850000D02*
X9940000Y-9870000D01*
X9990000Y-7290000D02*
X10010000Y-7310000D01*
X10010000Y-7290000D02*
X9990000Y-7310000D01*
X9990000Y-7590000D02*
X10010000Y-7610000D01*
X10010000Y-7590000D02*
X9990000Y-7610000D01*
X9990000Y-7790000D02*
X10010000Y-7810000D01*
X10010000Y-7790000D02*
X9990000Y-7810000D01*
X9990000Y-7990000D02*
X10010000Y-8010000D01*
X10010000Y-7990000D02*
X9990000Y-8010000D01*
X9990000Y-8090000D02*
X10010000Y-8110000D01*
X10010000Y-8090000D02*
X9990000Y-8110000D01*
X9990000Y-8190000D02*
X10010000Y-8210000D01*
X10010000Y-8190000D02*
X9990000Y-8210000D01*
X9990000Y-8290000D02*
X10010000Y-8310000D01*
X10010000Y-8290000D02*
X9990000Y-8310000D01*
X9990000Y-8390000D02*
X10010000Y-8410000D01*
X10010000Y-8390000D02*
X9990000Y-8410000D01*
X9990000Y-8490000D02*
X10010000Y-8510000D01*
X10010000Y-8490000D02*
X9990000Y-8510000D01*
X9990000Y-8590000D02*
X10010000Y-8610000D01*
X10010000Y-8590000D02*
X9990000Y-8610000D01*
X9990000Y-8690000D02*
X10010000Y-8710000D01*
X10010000Y-8690000D02*
X9990000Y-8710000D01*
X9990000Y-8790000D02*
X10010000Y-8810000D01*
X10010000Y-8790000D02*
X9990000Y-8810000D01*
X9990000Y-8890000D02*
X10010000Y-8910000D01*
X10010000Y-8890000D02*
X9990000Y-8910000D01*
X9990000Y-8990000D02*
X10010000Y-9010000D01*
X10010000Y-8990000D02*
X9990000Y-9010000D01*
X9990000Y-9090000D02*
X10010000Y-9110000D01*
X10010000Y-9090000D02*
X9990000Y-9110000D01*
X9990000Y-9190000D02*
X10010000Y-9210000D01*
X10010000Y-9190000D02*
X9990000Y-9210000D01*
X9990000Y-9290000D02*
X10010000Y-9310000D01*
X10010000Y-9290000D02*
X9990000Y-9310000D01*
X9990000Y-9390000D02*
X10010000Y-9410000D01*
X10010000Y-9390000D02*
X9990000Y-9410000D01*
X9990000Y-9490000D02*
X10010000Y-9510000D01*
X10010000Y-9490000D02*
X9990000Y-9510000D01*
X9990000Y-9590000D02*
X10010000Y-9610000D01*
X10010000Y-9590000D02*
X9990000Y-9610000D01*
X9990000Y-9690000D02*
X10010000Y-9710000D01*
X10010000Y-9690000D02*
X9990000Y-9710000D01*
X9990000Y-9790000D02*
X10010000Y-9810000D01*
X10010000Y-9790000D02*
X9990000Y-9810000D01*
X9990000Y-9890000D02*
X10010000Y-9910000D01*
X10010000Y-9890000D02*
X9990000Y-9910000D01*
X10090000Y-8290000D02*
X10110000Y-8310000D01*
X10110000Y-8290000D02*
X10090000Y-8310000D01*
X10090000Y-11900000D02*
X10110000Y-11920000D01*
X10110000Y-11900000D02*
X10090000Y-11920000D01*
X10115000Y-6740000D02*
X10135000Y-6760000D01*
X10135000Y-6740000D02*
X10115000Y-6760000D01*
X10165000Y-8315000D02*
X10185000Y-8335000D01*
X10185000Y-8315000D02*
X10165000Y-8335000D01*
X10240000Y-8315000D02*
X10260000Y-8335000D01*
X10260000Y-8315000D02*
X10240000Y-8335000D01*
X10290000Y-11900000D02*
X10310000Y-11920000D01*
X10310000Y-11900000D02*
X10290000Y-11920000D01*
X10315000Y-8315000D02*
X10335000Y-8335000D01*
X10335000Y-8315000D02*
X10315000Y-8335000D01*
X10390000Y-8315000D02*
X10410000Y-8335000D01*
X10410000Y-8315000D02*
X10390000Y-8335000D01*
X10465000Y-8315000D02*
X10485000Y-8335000D01*
X10485000Y-8315000D02*
X10465000Y-8335000D01*
X10490000Y-11900000D02*
X10510000Y-11920000D01*
X10510000Y-11900000D02*
X10490000Y-11920000D01*
X10540000Y-8315000D02*
X10560000Y-8335000D01*
X10560000Y-8315000D02*
X10540000Y-8335000D01*
X10615000Y-8315000D02*
X10635000Y-8335000D01*
X10635000Y-8315000D02*
X10615000Y-8335000D01*
X10690000Y-8315000D02*
X10710000Y-8335000D01*
X10710000Y-8315000D02*
X10690000Y-8335000D01*
X10690000Y-11900000D02*
X10710000Y-11920000D01*
X10710000Y-11900000D02*
X10690000Y-11920000D01*
X10765000Y-8315000D02*
X10785000Y-8335000D01*
X10785000Y-8315000D02*
X10765000Y-8335000D01*
X10770000Y-7290000D02*
X10790000Y-7310000D01*
X10790000Y-7290000D02*
X10770000Y-7310000D01*
X10770000Y-7450000D02*
X10790000Y-7470000D01*
X10790000Y-7450000D02*
X10770000Y-7470000D01*
X10770000Y-7610000D02*
X10790000Y-7630000D01*
X10790000Y-7610000D02*
X10770000Y-7630000D01*
X10770000Y-7930000D02*
X10790000Y-7950000D01*
X10790000Y-7930000D02*
X10770000Y-7950000D01*
X10770000Y-8090000D02*
X10790000Y-8110000D01*
X10790000Y-8090000D02*
X10770000Y-8110000D01*
X10840000Y-8315000D02*
X10860000Y-8335000D01*
X10860000Y-8315000D02*
X10840000Y-8335000D01*
X10850000Y-7370000D02*
X10870000Y-7390000D01*
X10870000Y-7370000D02*
X10850000Y-7390000D01*
X10850000Y-7530000D02*
X10870000Y-7550000D01*
X10870000Y-7530000D02*
X10850000Y-7550000D01*
X10850000Y-7610000D02*
X10870000Y-7630000D01*
X10870000Y-7610000D02*
X10850000Y-7630000D01*
X10850000Y-8010000D02*
X10870000Y-8030000D01*
X10870000Y-8010000D02*
X10850000Y-8030000D01*
X10850000Y-8090000D02*
X10870000Y-8110000D01*
X10870000Y-8090000D02*
X10850000Y-8110000D01*
X10890000Y-11900000D02*
X10910000Y-11920000D01*
X10910000Y-11900000D02*
X10890000Y-11920000D01*
X10915000Y-8315000D02*
X10935000Y-8335000D01*
X10935000Y-8315000D02*
X10915000Y-8335000D01*
X10930000Y-7290000D02*
X10950000Y-7310000D01*
X10950000Y-7290000D02*
X10930000Y-7310000D01*
X10930000Y-7450000D02*
X10950000Y-7470000D01*
X10950000Y-7450000D02*
X10930000Y-7470000D01*
X10930000Y-7610000D02*
X10950000Y-7630000D01*
X10950000Y-7610000D02*
X10930000Y-7630000D01*
X10930000Y-7770000D02*
X10950000Y-7790000D01*
X10950000Y-7770000D02*
X10930000Y-7790000D01*
X10930000Y-7930000D02*
X10950000Y-7950000D01*
X10950000Y-7930000D02*
X10930000Y-7950000D01*
X10990000Y-7850000D02*
X11010000Y-7870000D01*
X11010000Y-7850000D02*
X10990000Y-7870000D01*
X10990000Y-8010000D02*
X11010000Y-8030000D01*
X11010000Y-8010000D02*
X10990000Y-8030000D01*
X10990000Y-8315000D02*
X11010000Y-8335000D01*
X11010000Y-8315000D02*
X10990000Y-8335000D01*
X11000000Y-7280000D02*
X11020000Y-7300000D01*
X11020000Y-7280000D02*
X11000000Y-7300000D01*
X11065000Y-8315000D02*
X11085000Y-8335000D01*
X11085000Y-8315000D02*
X11065000Y-8335000D01*
X11090000Y-7450000D02*
X11110000Y-7470000D01*
X11110000Y-7450000D02*
X11090000Y-7470000D01*
X11090000Y-7730000D02*
X11110000Y-7750000D01*
X11110000Y-7730000D02*
X11090000Y-7750000D01*
X11090000Y-11900000D02*
X11110000Y-11920000D01*
X11110000Y-11900000D02*
X11090000Y-11920000D01*
X11140000Y-8315000D02*
X11160000Y-8335000D01*
X11160000Y-8315000D02*
X11140000Y-8335000D01*
X11190000Y-7850000D02*
X11210000Y-7870000D01*
X11210000Y-7850000D02*
X11190000Y-7870000D01*
X11190000Y-8010000D02*
X11210000Y-8030000D01*
X11210000Y-8010000D02*
X11190000Y-8030000D01*
X11190000Y-8462340D02*
X11210000Y-8482340D01*
X11210000Y-8462340D02*
X11190000Y-8482340D01*
X11190000Y-8517660D02*
X11210000Y-8537660D01*
X11210000Y-8517660D02*
X11190000Y-8537660D01*
X11215000Y-8315000D02*
X11235000Y-8335000D01*
X11235000Y-8315000D02*
X11215000Y-8335000D01*
X11240000Y-11900000D02*
X11260000Y-11920000D01*
X11260000Y-11900000D02*
X11240000Y-11920000D01*
X11250000Y-7290000D02*
X11270000Y-7310000D01*
X11270000Y-7290000D02*
X11250000Y-7310000D01*
X11250000Y-7450000D02*
X11270000Y-7470000D01*
X11270000Y-7450000D02*
X11250000Y-7470000D01*
X11250000Y-7770000D02*
X11270000Y-7790000D01*
X11270000Y-7770000D02*
X11250000Y-7790000D01*
X11250000Y-7930000D02*
X11270000Y-7950000D01*
X11270000Y-7930000D02*
X11250000Y-7950000D01*
X11290000Y-7570000D02*
X11310000Y-7590000D01*
X11310000Y-7570000D02*
X11290000Y-7590000D01*
X11290000Y-8315000D02*
X11310000Y-8335000D01*
X11310000Y-8315000D02*
X11290000Y-8335000D01*
X11290000Y-11390000D02*
X11310000Y-11410000D01*
X11310000Y-11390000D02*
X11290000Y-11410000D01*
X11330000Y-7610000D02*
X11350000Y-7630000D01*
X11350000Y-7610000D02*
X11330000Y-7630000D01*
X11330000Y-7690000D02*
X11350000Y-7710000D01*
X11350000Y-7690000D02*
X11330000Y-7710000D01*
X11330000Y-7850000D02*
X11350000Y-7870000D01*
X11350000Y-7850000D02*
X11330000Y-7870000D01*
X11330000Y-7930000D02*
X11350000Y-7950000D01*
X11350000Y-7930000D02*
X11330000Y-7950000D01*
X11330000Y-8010000D02*
X11350000Y-8030000D01*
X11350000Y-8010000D02*
X11330000Y-8030000D01*
X11330000Y-8090000D02*
X11350000Y-8110000D01*
X11350000Y-8090000D02*
X11330000Y-8110000D01*
X11365000Y-8315000D02*
X11385000Y-8335000D01*
X11385000Y-8315000D02*
X11365000Y-8335000D01*
X11370000Y-7410000D02*
X11390000Y-7430000D01*
X11390000Y-7410000D02*
X11370000Y-7430000D01*
X11410000Y-7220000D02*
X11430000Y-7240000D01*
X11430000Y-7220000D02*
X11410000Y-7240000D01*
X11410000Y-7450000D02*
X11430000Y-7470000D01*
X11430000Y-7450000D02*
X11410000Y-7470000D01*
X11410000Y-7610000D02*
X11430000Y-7630000D01*
X11430000Y-7610000D02*
X11410000Y-7630000D01*
X11410000Y-7690000D02*
X11430000Y-7710000D01*
X11430000Y-7690000D02*
X11410000Y-7710000D01*
X11410000Y-7770000D02*
X11430000Y-7790000D01*
X11430000Y-7770000D02*
X11410000Y-7790000D01*
X11410000Y-7850000D02*
X11430000Y-7870000D01*
X11430000Y-7850000D02*
X11410000Y-7870000D01*
X11410000Y-8010000D02*
X11430000Y-8030000D01*
X11430000Y-8010000D02*
X11410000Y-8030000D01*
X11440000Y-8090000D02*
X11460000Y-8110000D01*
X11460000Y-8090000D02*
X11440000Y-8110000D01*
X11440000Y-8165000D02*
X11460000Y-8185000D01*
X11460000Y-8165000D02*
X11440000Y-8185000D01*
X11440000Y-8240000D02*
X11460000Y-8260000D01*
X11460000Y-8240000D02*
X11440000Y-8260000D01*
X11440000Y-8315000D02*
X11460000Y-8335000D01*
X11460000Y-8315000D02*
X11440000Y-8335000D01*
X11480000Y-7940000D02*
X11500000Y-7960000D01*
X11500000Y-7940000D02*
X11480000Y-7960000D01*
X11480000Y-8020000D02*
X11500000Y-8040000D01*
X11500000Y-8020000D02*
X11480000Y-8040000D01*
X11510000Y-7610000D02*
X11530000Y-7630000D01*
X11530000Y-7610000D02*
X11510000Y-7630000D01*
X11510000Y-7870000D02*
X11530000Y-7890000D01*
X11530000Y-7870000D02*
X11510000Y-7890000D01*
X11515000Y-8315000D02*
X11535000Y-8335000D01*
X11535000Y-8315000D02*
X11515000Y-8335000D01*
X11565000Y-8090000D02*
X11585000Y-8110000D01*
X11585000Y-8090000D02*
X11565000Y-8110000D01*
X11570000Y-7450000D02*
X11590000Y-7470000D01*
X11590000Y-7450000D02*
X11570000Y-7470000D01*
X11590000Y-8315000D02*
X11610000Y-8335000D01*
X11610000Y-8315000D02*
X11590000Y-8335000D01*
X11740000Y-7050000D02*
X11760000Y-7070000D01*
X11760000Y-7050000D02*
X11740000Y-7070000D01*
X11740000Y-7100000D02*
X11760000Y-7120000D01*
X11760000Y-7100000D02*
X11740000Y-7120000D01*
X11740000Y-7240000D02*
X11760000Y-7260000D01*
X11760000Y-7240000D02*
X11740000Y-7260000D01*
X11740000Y-7290000D02*
X11760000Y-7310000D01*
X11760000Y-7290000D02*
X11740000Y-7310000D01*
X11815000Y-8090000D02*
X11835000Y-8110000D01*
X11835000Y-8090000D02*
X11815000Y-8110000D01*
X11840000Y-7050000D02*
X11860000Y-7070000D01*
X11860000Y-7050000D02*
X11840000Y-7070000D01*
X11840000Y-7100000D02*
X11860000Y-7120000D01*
X11860000Y-7100000D02*
X11840000Y-7120000D01*
X11840000Y-7240000D02*
X11860000Y-7260000D01*
X11860000Y-7240000D02*
X11840000Y-7260000D01*
X11840000Y-7290000D02*
X11860000Y-7310000D01*
X11860000Y-7290000D02*
X11840000Y-7310000D01*
X11890000Y-8315000D02*
X11910000Y-8335000D01*
X11910000Y-8315000D02*
X11890000Y-8335000D01*
D10*
X5425000Y-10847000D02*
G75*
G03*
X5425000Y-10847000I-50000J0D01*
G01*
X5425000Y-11101000D02*
G75*
G03*
X5425000Y-11101000I-50000J0D01*
G01*
X5750000Y-7600000D02*
G75*
G03*
X5750000Y-7600000I-50000J0D01*
G01*
X5750000Y-7854000D02*
G75*
G03*
X5750000Y-7854000I-50000J0D01*
G01*
X5750000Y-8108000D02*
G75*
G03*
X5750000Y-8108000I-50000J0D01*
G01*
X5797500Y-10847500D02*
G75*
G03*
X5797500Y-10847500I-50000J0D01*
G01*
X5797500Y-11101500D02*
G75*
G03*
X5797500Y-11101500I-50000J0D01*
G01*
X6051500Y-10847500D02*
G75*
G03*
X6051500Y-10847500I-50000J0D01*
G01*
X6051500Y-11101500D02*
G75*
G03*
X6051500Y-11101500I-50000J0D01*
G01*
X7987000Y-5202500D02*
G75*
G03*
X7987000Y-5202500I-50000J0D01*
G01*
X8241000Y-5202500D02*
G75*
G03*
X8241000Y-5202500I-50000J0D01*
G01*
X8495000Y-5202500D02*
G75*
G03*
X8495000Y-5202500I-50000J0D01*
G01*
X8749000Y-5202500D02*
G75*
G03*
X8749000Y-5202500I-50000J0D01*
G01*
X9168000Y-5202500D02*
G75*
G03*
X9168000Y-5202500I-50000J0D01*
G01*
X9422000Y-5202500D02*
G75*
G03*
X9422000Y-5202500I-50000J0D01*
G01*
X9676000Y-5202500D02*
G75*
G03*
X9676000Y-5202500I-50000J0D01*
G01*
X9930000Y-5202500D02*
G75*
G03*
X9930000Y-5202500I-50000J0D01*
G01*
X10365000Y-6325000D02*
G75*
G03*
X10365000Y-6325000I-50000J0D01*
G01*
X10619000Y-6325000D02*
G75*
G03*
X10619000Y-6325000I-50000J0D01*
G01*
X10873000Y-6325000D02*
G75*
G03*
X10873000Y-6325000I-50000J0D01*
G01*
X11127000Y-6325000D02*
G75*
G03*
X11127000Y-6325000I-50000J0D01*
G01*
X11381000Y-6325000D02*
G75*
G03*
X11381000Y-6325000I-50000J0D01*
G01*
X11635000Y-6325000D02*
G75*
G03*
X11635000Y-6325000I-50000J0D01*
G01*
D11*
X5002619Y-12835476D02*
X5002619Y-12635476D01*
X5050238Y-12635476D01*
X5078810Y-12645000D01*
X5097857Y-12664048D01*
X5107381Y-12683095D01*
X5116905Y-12721190D01*
X5116905Y-12749762D01*
X5107381Y-12787857D01*
X5097857Y-12806905D01*
X5078810Y-12825952D01*
X5050238Y-12835476D01*
X5002619Y-12835476D01*
X5202619Y-12835476D02*
X5202619Y-12702143D01*
X5202619Y-12740238D02*
X5212143Y-12721190D01*
X5221667Y-12711667D01*
X5240714Y-12702143D01*
X5259762Y-12702143D01*
X5326429Y-12835476D02*
X5326429Y-12702143D01*
X5326429Y-12635476D02*
X5316905Y-12645000D01*
X5326429Y-12654524D01*
X5335952Y-12645000D01*
X5326429Y-12635476D01*
X5326429Y-12654524D01*
X5450238Y-12835476D02*
X5431190Y-12825952D01*
X5421667Y-12806905D01*
X5421667Y-12635476D01*
X5555000Y-12835476D02*
X5535952Y-12825952D01*
X5526429Y-12806905D01*
X5526429Y-12635476D01*
X5783571Y-12835476D02*
X5783571Y-12635476D01*
X5850238Y-12778333D01*
X5916905Y-12635476D01*
X5916905Y-12835476D01*
X6097857Y-12835476D02*
X6097857Y-12730714D01*
X6088333Y-12711667D01*
X6069286Y-12702143D01*
X6031190Y-12702143D01*
X6012143Y-12711667D01*
X6097857Y-12825952D02*
X6078809Y-12835476D01*
X6031190Y-12835476D01*
X6012143Y-12825952D01*
X6002619Y-12806905D01*
X6002619Y-12787857D01*
X6012143Y-12768809D01*
X6031190Y-12759286D01*
X6078809Y-12759286D01*
X6097857Y-12749762D01*
X6193095Y-12702143D02*
X6193095Y-12902143D01*
X6193095Y-12711667D02*
X6212143Y-12702143D01*
X6250238Y-12702143D01*
X6269286Y-12711667D01*
X6278809Y-12721190D01*
X6288333Y-12740238D01*
X6288333Y-12797381D01*
X6278809Y-12816428D01*
X6269286Y-12825952D01*
X6250238Y-12835476D01*
X6212143Y-12835476D01*
X6193095Y-12825952D01*
X6374048Y-12816428D02*
X6383571Y-12825952D01*
X6374048Y-12835476D01*
X6364524Y-12825952D01*
X6374048Y-12816428D01*
X6374048Y-12835476D01*
X6374048Y-12711667D02*
X6383571Y-12721190D01*
X6374048Y-12730714D01*
X6364524Y-12721190D01*
X6374048Y-12711667D01*
X6374048Y-12730714D01*
D12*
X4725000Y-13155000D02*
X4745000Y-13175000D01*
X4745000Y-13155000D02*
X4725000Y-13175000D01*
D11*
X5040714Y-13055476D02*
X5059762Y-13055476D01*
X5078810Y-13065000D01*
X5088333Y-13074524D01*
X5097857Y-13093571D01*
X5107381Y-13131667D01*
X5107381Y-13179286D01*
X5097857Y-13217381D01*
X5088333Y-13236428D01*
X5078810Y-13245952D01*
X5059762Y-13255476D01*
X5040714Y-13255476D01*
X5021667Y-13245952D01*
X5012143Y-13236428D01*
X5002619Y-13217381D01*
X4993095Y-13179286D01*
X4993095Y-13131667D01*
X5002619Y-13093571D01*
X5012143Y-13074524D01*
X5021667Y-13065000D01*
X5040714Y-13055476D01*
X5193095Y-13236428D02*
X5202619Y-13245952D01*
X5193095Y-13255476D01*
X5183571Y-13245952D01*
X5193095Y-13236428D01*
X5193095Y-13255476D01*
X5278810Y-13074524D02*
X5288333Y-13065000D01*
X5307381Y-13055476D01*
X5355000Y-13055476D01*
X5374048Y-13065000D01*
X5383571Y-13074524D01*
X5393095Y-13093571D01*
X5393095Y-13112619D01*
X5383571Y-13141190D01*
X5269286Y-13255476D01*
X5393095Y-13255476D01*
X5516905Y-13055476D02*
X5535952Y-13055476D01*
X5555000Y-13065000D01*
X5564524Y-13074524D01*
X5574048Y-13093571D01*
X5583571Y-13131667D01*
X5583571Y-13179286D01*
X5574048Y-13217381D01*
X5564524Y-13236428D01*
X5555000Y-13245952D01*
X5535952Y-13255476D01*
X5516905Y-13255476D01*
X5497857Y-13245952D01*
X5488333Y-13236428D01*
X5478810Y-13217381D01*
X5469286Y-13179286D01*
X5469286Y-13131667D01*
X5478810Y-13093571D01*
X5488333Y-13074524D01*
X5497857Y-13065000D01*
X5516905Y-13055476D01*
X5707381Y-13055476D02*
X5726428Y-13055476D01*
X5745476Y-13065000D01*
X5755000Y-13074524D01*
X5764524Y-13093571D01*
X5774048Y-13131667D01*
X5774048Y-13179286D01*
X5764524Y-13217381D01*
X5755000Y-13236428D01*
X5745476Y-13245952D01*
X5726428Y-13255476D01*
X5707381Y-13255476D01*
X5688333Y-13245952D01*
X5678809Y-13236428D01*
X5669286Y-13217381D01*
X5659762Y-13179286D01*
X5659762Y-13131667D01*
X5669286Y-13093571D01*
X5678809Y-13074524D01*
X5688333Y-13065000D01*
X5707381Y-13055476D01*
X5859762Y-13255476D02*
X5859762Y-13122143D01*
X5859762Y-13141190D02*
X5869286Y-13131667D01*
X5888333Y-13122143D01*
X5916905Y-13122143D01*
X5935952Y-13131667D01*
X5945476Y-13150714D01*
X5945476Y-13255476D01*
X5945476Y-13150714D02*
X5955000Y-13131667D01*
X5974048Y-13122143D01*
X6002619Y-13122143D01*
X6021667Y-13131667D01*
X6031190Y-13150714D01*
X6031190Y-13255476D01*
X6126428Y-13255476D02*
X6126428Y-13122143D01*
X6126428Y-13141190D02*
X6135952Y-13131667D01*
X6155000Y-13122143D01*
X6183571Y-13122143D01*
X6202619Y-13131667D01*
X6212143Y-13150714D01*
X6212143Y-13255476D01*
X6212143Y-13150714D02*
X6221667Y-13131667D01*
X6240714Y-13122143D01*
X6269286Y-13122143D01*
X6288333Y-13131667D01*
X6297857Y-13150714D01*
X6297857Y-13255476D01*
X6688333Y-13045952D02*
X6516905Y-13303095D01*
X6945476Y-13055476D02*
X6964524Y-13055476D01*
X6983571Y-13065000D01*
X6993095Y-13074524D01*
X7002619Y-13093571D01*
X7012143Y-13131667D01*
X7012143Y-13179286D01*
X7002619Y-13217381D01*
X6993095Y-13236428D01*
X6983571Y-13245952D01*
X6964524Y-13255476D01*
X6945476Y-13255476D01*
X6926428Y-13245952D01*
X6916905Y-13236428D01*
X6907381Y-13217381D01*
X6897857Y-13179286D01*
X6897857Y-13131667D01*
X6907381Y-13093571D01*
X6916905Y-13074524D01*
X6926428Y-13065000D01*
X6945476Y-13055476D01*
X7097857Y-13236428D02*
X7107381Y-13245952D01*
X7097857Y-13255476D01*
X7088333Y-13245952D01*
X7097857Y-13236428D01*
X7097857Y-13255476D01*
X7231190Y-13055476D02*
X7250238Y-13055476D01*
X7269286Y-13065000D01*
X7278809Y-13074524D01*
X7288333Y-13093571D01*
X7297857Y-13131667D01*
X7297857Y-13179286D01*
X7288333Y-13217381D01*
X7278809Y-13236428D01*
X7269286Y-13245952D01*
X7250238Y-13255476D01*
X7231190Y-13255476D01*
X7212143Y-13245952D01*
X7202619Y-13236428D01*
X7193095Y-13217381D01*
X7183571Y-13179286D01*
X7183571Y-13131667D01*
X7193095Y-13093571D01*
X7202619Y-13074524D01*
X7212143Y-13065000D01*
X7231190Y-13055476D01*
X7421667Y-13055476D02*
X7440714Y-13055476D01*
X7459762Y-13065000D01*
X7469286Y-13074524D01*
X7478809Y-13093571D01*
X7488333Y-13131667D01*
X7488333Y-13179286D01*
X7478809Y-13217381D01*
X7469286Y-13236428D01*
X7459762Y-13245952D01*
X7440714Y-13255476D01*
X7421667Y-13255476D01*
X7402619Y-13245952D01*
X7393095Y-13236428D01*
X7383571Y-13217381D01*
X7374048Y-13179286D01*
X7374048Y-13131667D01*
X7383571Y-13093571D01*
X7393095Y-13074524D01*
X7402619Y-13065000D01*
X7421667Y-13055476D01*
X7555000Y-13055476D02*
X7688333Y-13055476D01*
X7602619Y-13255476D01*
X7774048Y-13255476D02*
X7812143Y-13255476D01*
X7831190Y-13245952D01*
X7840714Y-13236428D01*
X7859762Y-13207857D01*
X7869286Y-13169762D01*
X7869286Y-13093571D01*
X7859762Y-13074524D01*
X7850238Y-13065000D01*
X7831190Y-13055476D01*
X7793095Y-13055476D01*
X7774048Y-13065000D01*
X7764524Y-13074524D01*
X7755000Y-13093571D01*
X7755000Y-13141190D01*
X7764524Y-13160238D01*
X7774048Y-13169762D01*
X7793095Y-13179286D01*
X7831190Y-13179286D01*
X7850238Y-13169762D01*
X7859762Y-13160238D01*
X7869286Y-13141190D01*
X7945476Y-13055476D02*
X7945476Y-13093571D01*
X8021667Y-13055476D02*
X8021667Y-13093571D01*
X8316905Y-13331667D02*
X8307381Y-13322143D01*
X8288333Y-13293571D01*
X8278809Y-13274524D01*
X8269286Y-13245952D01*
X8259762Y-13198333D01*
X8259762Y-13160238D01*
X8269286Y-13112619D01*
X8278809Y-13084048D01*
X8288333Y-13065000D01*
X8307381Y-13036428D01*
X8316905Y-13026905D01*
X8374048Y-13055476D02*
X8507381Y-13055476D01*
X8421667Y-13255476D01*
X8564524Y-13055476D02*
X8697857Y-13055476D01*
X8612143Y-13255476D01*
X8783571Y-13255476D02*
X8821667Y-13255476D01*
X8840714Y-13245952D01*
X8850238Y-13236428D01*
X8869286Y-13207857D01*
X8878810Y-13169762D01*
X8878810Y-13093571D01*
X8869286Y-13074524D01*
X8859762Y-13065000D01*
X8840714Y-13055476D01*
X8802619Y-13055476D01*
X8783571Y-13065000D01*
X8774048Y-13074524D01*
X8764524Y-13093571D01*
X8764524Y-13141190D01*
X8774048Y-13160238D01*
X8783571Y-13169762D01*
X8802619Y-13179286D01*
X8840714Y-13179286D01*
X8859762Y-13169762D01*
X8869286Y-13160238D01*
X8878810Y-13141190D01*
X9116905Y-13255476D02*
X9116905Y-13055476D01*
X9202619Y-13255476D02*
X9202619Y-13150714D01*
X9193095Y-13131667D01*
X9174048Y-13122143D01*
X9145476Y-13122143D01*
X9126429Y-13131667D01*
X9116905Y-13141190D01*
X9326429Y-13255476D02*
X9307381Y-13245952D01*
X9297857Y-13236428D01*
X9288333Y-13217381D01*
X9288333Y-13160238D01*
X9297857Y-13141190D01*
X9307381Y-13131667D01*
X9326429Y-13122143D01*
X9355000Y-13122143D01*
X9374048Y-13131667D01*
X9383571Y-13141190D01*
X9393095Y-13160238D01*
X9393095Y-13217381D01*
X9383571Y-13236428D01*
X9374048Y-13245952D01*
X9355000Y-13255476D01*
X9326429Y-13255476D01*
X9507381Y-13255476D02*
X9488333Y-13245952D01*
X9478810Y-13226905D01*
X9478810Y-13055476D01*
X9659762Y-13245952D02*
X9640714Y-13255476D01*
X9602619Y-13255476D01*
X9583571Y-13245952D01*
X9574048Y-13226905D01*
X9574048Y-13150714D01*
X9583571Y-13131667D01*
X9602619Y-13122143D01*
X9640714Y-13122143D01*
X9659762Y-13131667D01*
X9669286Y-13150714D01*
X9669286Y-13169762D01*
X9574048Y-13188809D01*
X9745476Y-13245952D02*
X9764524Y-13255476D01*
X9802619Y-13255476D01*
X9821667Y-13245952D01*
X9831190Y-13226905D01*
X9831190Y-13217381D01*
X9821667Y-13198333D01*
X9802619Y-13188809D01*
X9774048Y-13188809D01*
X9755000Y-13179286D01*
X9745476Y-13160238D01*
X9745476Y-13150714D01*
X9755000Y-13131667D01*
X9774048Y-13122143D01*
X9802619Y-13122143D01*
X9821667Y-13131667D01*
X9897857Y-13331667D02*
X9907381Y-13322143D01*
X9926429Y-13293571D01*
X9935952Y-13274524D01*
X9945476Y-13245952D01*
X9955000Y-13198333D01*
X9955000Y-13160238D01*
X9945476Y-13112619D01*
X9935952Y-13084048D01*
X9926429Y-13065000D01*
X9907381Y-13036428D01*
X9897857Y-13026905D01*
D10*
X4745000Y-13429000D02*
G75*
G03*
X4745000Y-13429000I-50000J0D01*
G01*
D11*
X5107381Y-13519476D02*
X4993095Y-13519476D01*
X5050238Y-13519476D02*
X5050238Y-13319476D01*
X5031190Y-13348048D01*
X5012143Y-13367095D01*
X4993095Y-13376619D01*
X5193095Y-13500428D02*
X5202619Y-13509952D01*
X5193095Y-13519476D01*
X5183571Y-13509952D01*
X5193095Y-13500428D01*
X5193095Y-13519476D01*
X5326429Y-13319476D02*
X5345476Y-13319476D01*
X5364524Y-13329000D01*
X5374048Y-13338524D01*
X5383571Y-13357571D01*
X5393095Y-13395667D01*
X5393095Y-13443286D01*
X5383571Y-13481381D01*
X5374048Y-13500428D01*
X5364524Y-13509952D01*
X5345476Y-13519476D01*
X5326429Y-13519476D01*
X5307381Y-13509952D01*
X5297857Y-13500428D01*
X5288333Y-13481381D01*
X5278810Y-13443286D01*
X5278810Y-13395667D01*
X5288333Y-13357571D01*
X5297857Y-13338524D01*
X5307381Y-13329000D01*
X5326429Y-13319476D01*
X5516905Y-13319476D02*
X5535952Y-13319476D01*
X5555000Y-13329000D01*
X5564524Y-13338524D01*
X5574048Y-13357571D01*
X5583571Y-13395667D01*
X5583571Y-13443286D01*
X5574048Y-13481381D01*
X5564524Y-13500428D01*
X5555000Y-13509952D01*
X5535952Y-13519476D01*
X5516905Y-13519476D01*
X5497857Y-13509952D01*
X5488333Y-13500428D01*
X5478810Y-13481381D01*
X5469286Y-13443286D01*
X5469286Y-13395667D01*
X5478810Y-13357571D01*
X5488333Y-13338524D01*
X5497857Y-13329000D01*
X5516905Y-13319476D01*
X5707381Y-13319476D02*
X5726428Y-13319476D01*
X5745476Y-13329000D01*
X5755000Y-13338524D01*
X5764524Y-13357571D01*
X5774048Y-13395667D01*
X5774048Y-13443286D01*
X5764524Y-13481381D01*
X5755000Y-13500428D01*
X5745476Y-13509952D01*
X5726428Y-13519476D01*
X5707381Y-13519476D01*
X5688333Y-13509952D01*
X5678809Y-13500428D01*
X5669286Y-13481381D01*
X5659762Y-13443286D01*
X5659762Y-13395667D01*
X5669286Y-13357571D01*
X5678809Y-13338524D01*
X5688333Y-13329000D01*
X5707381Y-13319476D01*
X5859762Y-13519476D02*
X5859762Y-13386143D01*
X5859762Y-13405190D02*
X5869286Y-13395667D01*
X5888333Y-13386143D01*
X5916905Y-13386143D01*
X5935952Y-13395667D01*
X5945476Y-13414714D01*
X5945476Y-13519476D01*
X5945476Y-13414714D02*
X5955000Y-13395667D01*
X5974048Y-13386143D01*
X6002619Y-13386143D01*
X6021667Y-13395667D01*
X6031190Y-13414714D01*
X6031190Y-13519476D01*
X6126428Y-13519476D02*
X6126428Y-13386143D01*
X6126428Y-13405190D02*
X6135952Y-13395667D01*
X6155000Y-13386143D01*
X6183571Y-13386143D01*
X6202619Y-13395667D01*
X6212143Y-13414714D01*
X6212143Y-13519476D01*
X6212143Y-13414714D02*
X6221667Y-13395667D01*
X6240714Y-13386143D01*
X6269286Y-13386143D01*
X6288333Y-13395667D01*
X6297857Y-13414714D01*
X6297857Y-13519476D01*
X6688333Y-13309952D02*
X6516905Y-13567095D01*
X6945476Y-13319476D02*
X6964524Y-13319476D01*
X6983571Y-13329000D01*
X6993095Y-13338524D01*
X7002619Y-13357571D01*
X7012143Y-13395667D01*
X7012143Y-13443286D01*
X7002619Y-13481381D01*
X6993095Y-13500428D01*
X6983571Y-13509952D01*
X6964524Y-13519476D01*
X6945476Y-13519476D01*
X6926428Y-13509952D01*
X6916905Y-13500428D01*
X6907381Y-13481381D01*
X6897857Y-13443286D01*
X6897857Y-13395667D01*
X6907381Y-13357571D01*
X6916905Y-13338524D01*
X6926428Y-13329000D01*
X6945476Y-13319476D01*
X7097857Y-13500428D02*
X7107381Y-13509952D01*
X7097857Y-13519476D01*
X7088333Y-13509952D01*
X7097857Y-13500428D01*
X7097857Y-13519476D01*
X7231190Y-13319476D02*
X7250238Y-13319476D01*
X7269286Y-13329000D01*
X7278809Y-13338524D01*
X7288333Y-13357571D01*
X7297857Y-13395667D01*
X7297857Y-13443286D01*
X7288333Y-13481381D01*
X7278809Y-13500428D01*
X7269286Y-13509952D01*
X7250238Y-13519476D01*
X7231190Y-13519476D01*
X7212143Y-13509952D01*
X7202619Y-13500428D01*
X7193095Y-13481381D01*
X7183571Y-13443286D01*
X7183571Y-13395667D01*
X7193095Y-13357571D01*
X7202619Y-13338524D01*
X7212143Y-13329000D01*
X7231190Y-13319476D01*
X7364524Y-13319476D02*
X7488333Y-13319476D01*
X7421667Y-13395667D01*
X7450238Y-13395667D01*
X7469286Y-13405190D01*
X7478809Y-13414714D01*
X7488333Y-13433762D01*
X7488333Y-13481381D01*
X7478809Y-13500428D01*
X7469286Y-13509952D01*
X7450238Y-13519476D01*
X7393095Y-13519476D01*
X7374048Y-13509952D01*
X7364524Y-13500428D01*
X7583571Y-13519476D02*
X7621667Y-13519476D01*
X7640714Y-13509952D01*
X7650238Y-13500428D01*
X7669286Y-13471857D01*
X7678809Y-13433762D01*
X7678809Y-13357571D01*
X7669286Y-13338524D01*
X7659762Y-13329000D01*
X7640714Y-13319476D01*
X7602619Y-13319476D01*
X7583571Y-13329000D01*
X7574048Y-13338524D01*
X7564524Y-13357571D01*
X7564524Y-13405190D01*
X7574048Y-13424238D01*
X7583571Y-13433762D01*
X7602619Y-13443286D01*
X7640714Y-13443286D01*
X7659762Y-13433762D01*
X7669286Y-13424238D01*
X7678809Y-13405190D01*
X7850238Y-13386143D02*
X7850238Y-13519476D01*
X7802619Y-13309952D02*
X7755000Y-13452809D01*
X7878809Y-13452809D01*
X7945476Y-13319476D02*
X7945476Y-13357571D01*
X8021667Y-13319476D02*
X8021667Y-13357571D01*
X8316905Y-13595667D02*
X8307381Y-13586143D01*
X8288333Y-13557571D01*
X8278809Y-13538524D01*
X8269286Y-13509952D01*
X8259762Y-13462333D01*
X8259762Y-13424238D01*
X8269286Y-13376619D01*
X8278809Y-13348048D01*
X8288333Y-13329000D01*
X8307381Y-13300428D01*
X8316905Y-13290905D01*
X8383571Y-13338524D02*
X8393095Y-13329000D01*
X8412143Y-13319476D01*
X8459762Y-13319476D01*
X8478810Y-13329000D01*
X8488333Y-13338524D01*
X8497857Y-13357571D01*
X8497857Y-13376619D01*
X8488333Y-13405190D01*
X8374048Y-13519476D01*
X8497857Y-13519476D01*
X8564524Y-13319476D02*
X8688333Y-13319476D01*
X8621667Y-13395667D01*
X8650238Y-13395667D01*
X8669286Y-13405190D01*
X8678810Y-13414714D01*
X8688333Y-13433762D01*
X8688333Y-13481381D01*
X8678810Y-13500428D01*
X8669286Y-13509952D01*
X8650238Y-13519476D01*
X8593095Y-13519476D01*
X8574048Y-13509952D01*
X8564524Y-13500428D01*
X8926429Y-13519476D02*
X8926429Y-13319476D01*
X9012143Y-13519476D02*
X9012143Y-13414714D01*
X9002619Y-13395667D01*
X8983571Y-13386143D01*
X8955000Y-13386143D01*
X8935952Y-13395667D01*
X8926429Y-13405190D01*
X9135952Y-13519476D02*
X9116905Y-13509952D01*
X9107381Y-13500428D01*
X9097857Y-13481381D01*
X9097857Y-13424238D01*
X9107381Y-13405190D01*
X9116905Y-13395667D01*
X9135952Y-13386143D01*
X9164524Y-13386143D01*
X9183571Y-13395667D01*
X9193095Y-13405190D01*
X9202619Y-13424238D01*
X9202619Y-13481381D01*
X9193095Y-13500428D01*
X9183571Y-13509952D01*
X9164524Y-13519476D01*
X9135952Y-13519476D01*
X9316905Y-13519476D02*
X9297857Y-13509952D01*
X9288333Y-13490905D01*
X9288333Y-13319476D01*
X9469286Y-13509952D02*
X9450238Y-13519476D01*
X9412143Y-13519476D01*
X9393095Y-13509952D01*
X9383571Y-13490905D01*
X9383571Y-13414714D01*
X9393095Y-13395667D01*
X9412143Y-13386143D01*
X9450238Y-13386143D01*
X9469286Y-13395667D01*
X9478810Y-13414714D01*
X9478810Y-13433762D01*
X9383571Y-13452809D01*
X9555000Y-13509952D02*
X9574048Y-13519476D01*
X9612143Y-13519476D01*
X9631190Y-13509952D01*
X9640714Y-13490905D01*
X9640714Y-13481381D01*
X9631190Y-13462333D01*
X9612143Y-13452809D01*
X9583571Y-13452809D01*
X9564524Y-13443286D01*
X9555000Y-13424238D01*
X9555000Y-13414714D01*
X9564524Y-13395667D01*
X9583571Y-13386143D01*
X9612143Y-13386143D01*
X9631190Y-13395667D01*
X9707381Y-13595667D02*
X9716905Y-13586143D01*
X9735952Y-13557571D01*
X9745476Y-13538524D01*
X9755000Y-13509952D01*
X9764524Y-13462333D01*
X9764524Y-13424238D01*
X9755000Y-13376619D01*
X9745476Y-13348048D01*
X9735952Y-13329000D01*
X9716905Y-13300428D01*
X9707381Y-13290905D01*
M02*
